<svg id="Grupo_173272" data-name="Grupo 173272" xmlns="http://www.w3.org/2000/svg" xmlns:xlink="http://www.w3.org/1999/xlink" width="399.623" height="339.035" viewBox="0 0 399.623 339.035">
  <defs>
    <clipPath id="clip-path">
      <rect id="Rectángulo_215920" data-name="Rectángulo 215920" width="399.623" height="339.035" fill="none"/>
    </clipPath>
  </defs>
  <g id="Grupo_173271" data-name="Grupo 173271" clip-path="url(#clip-path)">
    <path id="Trazado_236589" data-name="Trazado 236589" d="M84.743,307.78S9.931,261.227,1.733,184.371,12.611,34.2,98.347,7.4c83.268-26.021,121.1,25.284,149.452,20.5s80.638-38.408,127.976,27.1c33.817,46.8,53.287,214.516-96.327,229.2-144.852,14.22-194.7,23.57-194.7,23.57" transform="translate(0 0)" fill="#fce6ec"/>
    <path id="Trazado_236590" data-name="Trazado 236590" d="M422.552,521.5c0,1.273,4.715,3.368-184.3,3.93-122.636.365-165.682-2.313-165.682-3.586s18.826-1.2,147.161-2.3c202.147-1.743,202.82.688,202.82,1.961" transform="translate(-26.154 -186.926)" fill="#756880"/>
    <path id="Trazado_236591" data-name="Trazado 236591" d="M539.218,263.413s-19.073-21.5-13.321-29.064S542.245,250.7,542.245,250.7s-18.165-54.192-5.146-59.036,14.532,49.651,14.532,49.651.6-19.981,5.449-20.284.605,16.652.605,16.652,6.963-29.064,18.165-24.22-15.137,44.806-15.137,44.806,6.358-8.174,10.293-5.146-15.44,15.44-15.44,15.44Z" transform="translate(-189.14 -68.964)" fill="#4d9687"/>
    <path id="Trazado_236592" data-name="Trazado 236592" d="M574,312.034c-.152.2-1.538.321-3.739.372-.663,7.772-3.013,25.149-4.436,26.572-1.816,1.816-29.971.908-31.183.3-.9-.448-3.442-17.423-4.71-26.257-.088-.606-.17-1.172-.243-1.692-.012-.07-.02-.139-.03-.206a14.731,14.731,0,0,1-2.585-.3c-.909-.606-1.514-10.6-1.514-10.6s47.531,0,49.348.606,0,9.991-.908,11.2" transform="translate(-189.409 -108.2)" fill="#6b4e4e"/>
    <path id="Trazado_236593" data-name="Trazado 236593" d="M568,320.048a152.213,152.213,0,0,1-19.092.212q-8.342-.241-16.653-.978c-.088-.605-.17-1.171-.242-1.692,5.616.436,11.241.754,16.875.9,6.367.161,12.734-.148,19.095,0a.78.78,0,0,1,.018,1.559" transform="translate(-191.736 -114.457)" fill="#493333"/>
    <path id="Trazado_236594" data-name="Trazado 236594" d="M565.831,271.026c-1.132-.284-2.12.981-2.716,1.751a8.719,8.719,0,0,0-.879,1.4c-1.221-3.733-2.458-7.46-3.8-11.152a53.532,53.532,0,0,0-2.495-6.394c-.452-.875-1.784-2.755-2.792-1.32a5.843,5.843,0,0,0-.572,2.441,28.913,28.913,0,0,0-.254,3.145,54.4,54.4,0,0,0,.25,6.732,61.311,61.311,0,0,0,1.974,10.63c-1.048-.762-2.225-1.3-3.165-.789-1.639.9-.659,3.79-.112,5.077.3.7,1.463.2,1.229-.518-.193-.6-1.115-3.159.145-3.021a4.794,4.794,0,0,1,1.214.768,14,14,0,0,1,1.667,1.425.787.787,0,0,0,1.306-.761,61.014,61.014,0,0,1-2.507-11.311,42.626,42.626,0,0,1-.138-11.437c.025-.161.1-.4.167-.626.031.056.067.109.1.167a21.381,21.381,0,0,1,1.158,2.773q1.034,2.7,1.987,5.423c1.336,3.8,2.582,7.627,3.829,11.456a.812.812,0,0,0,1.552,0,7.981,7.981,0,0,1,.845-2.279c.159-.279,1.241-2.07,1.657-1.977a13.5,13.5,0,0,0-.152,2.165,24.818,24.818,0,0,1-.463,3.234c-.2.991,1.284,1.422,1.529.422a20.432,20.432,0,0,0,.591-5.148c-.015-.913-.1-2.012-1.156-2.276" transform="translate(-198.39 -91.824)" fill="#366d60"/>
    <path id="Trazado_236595" data-name="Trazado 236595" d="M560.242,367.6h-3.075l9.043,52.811a63.734,63.734,0,0,0-8.642-.235h-4.9L551.405,367.6h-3.074s.736,26.773,1.587,52.578h-1.456q-4.552,0-9.105,0c-2.363,0-4.821-.145-7.207.022l9.008-52.6h-3.075S521.346,467,522.37,467.339a2.362,2.362,0,0,0,1.708,0l7.737-45.183c2.49.207,5.07.044,7.542.047q4.552.006,9.105,0h1.523c.771,23.176,1.624,44.973,2.1,45.132a2.362,2.362,0,0,0,1.708,0l-1.082-45.131h4.853a60.364,60.364,0,0,0,8.9-.269l7.774,45.4a2.362,2.362,0,0,0,1.708,0c1.025-.341-15.713-99.743-15.713-99.743" transform="translate(-188.243 -132.479)" fill="#88393d"/>
    <path id="Trazado_236596" data-name="Trazado 236596" d="M532.01,361.314c1.025,0,42.015-1.366,42.7-.342s0,5.124,0,5.124-41.674.342-42.015,0-.683-4.782-.683-4.782" transform="translate(-191.733 -129.955)" fill="#88393d"/>
    <path id="Trazado_236597" data-name="Trazado 236597" d="M441.949,474.733l3.855,30.725h-7.188l-18.529-32.092Z" transform="translate(-151.397 -170.598)" fill="#391715"/>
    <path id="Trazado_236598" data-name="Trazado 236598" d="M157.45,473.13l-3.856,30.725h7.189l18.529-32.092Z" transform="translate(-55.354 -170.021)" fill="#391715"/>
    <path id="Trazado_236599" data-name="Trazado 236599" d="M131.281,476.131l-3.856,30.725h7.189l18.529-32.092Z" transform="translate(-45.923 -171.102)" fill="#802c30"/>
    <path id="Trazado_236600" data-name="Trazado 236600" d="M467.584,476.692l3.856,30.725h-7.189l-18.528-32.092Z" transform="translate(-160.636 -171.305)" fill="#802c30"/>
    <path id="Trazado_236601" data-name="Trazado 236601" d="M358.763,326.834,353.052,412l-102.267.147-40.358.058-96.142.136-1.121-35.979s-11.614-81.638-4.1-94.961c2.22-3.935,21.892-6.244,49.219-7.457,8.54-.379,17.824-.652,27.559-.837,34.142-.639,73.806-.168,106.1.707,6.2.167,12.126.351,17.691.546,20.273.7,35.73,1.534,41.957,2.258,14.688,1.708,7.173,50.213,7.173,50.213" transform="translate(-38.394 -98.321)" fill="#ef838b"/>
    <path id="Trazado_236602" data-name="Trazado 236602" d="M350.528,438.064H147.147a.342.342,0,0,1,0-.683H350.528a.342.342,0,1,1,0,.683" transform="translate(-52.908 -157.629)" fill="#d9737d"/>
    <path id="Trazado_236603" data-name="Trazado 236603" d="M466.669,348.5a.342.342,0,0,1-.341-.324c-.019-.367-1.69-36.853,11.551-54.846a.342.342,0,1,1,.55.4c-3.772,5.126-8.687,15.173-10.672,33.925a148.133,148.133,0,0,0-.746,20.481.341.341,0,0,1-.324.358h-.017" transform="translate(-168.034 -105.662)" fill="#bb272d"/>
    <path id="Trazado_236604" data-name="Trazado 236604" d="M448.112,347.264l-.047,0-5.337-.368a.683.683,0,0,1,.094-1.363l4.809.332c1.132-3.382,7.689-22.91,10.925-31.093a46.741,46.741,0,0,0,2.794-15c.178-5.575-.588-8.915-1.425-9.753-2.335-2.334-12.654.614-19.482,2.565-9.554,2.73-38.6,2.1-39.828,2.076a.683.683,0,0,1,.031-1.366c.3.007,30.066.65,39.42-2.023a114.372,114.372,0,0,1,12.849-3.135c4.163-.652,6.7-.361,7.976.918,2.693,2.693,2.594,16.966-1.065,26.219-3.518,8.9-10.992,31.3-11.067,31.526a.683.683,0,0,1-.648.467" transform="translate(-144.139 -103.721)" fill="#d9737d"/>
    <path id="Trazado_236605" data-name="Trazado 236605" d="M150.763,352.855a.342.342,0,0,1-.336-.283c-5.777-32.99-18.381-47.061-23.532-51.579a.341.341,0,1,1,.45-.514c6.807,5.971,12.571,15.174,17.132,27.353a143.517,143.517,0,0,1,6.622,24.622.342.342,0,0,1-.278.4.387.387,0,0,1-.059.005" transform="translate(-45.69 -108.261)" fill="#bb272d"/>
    <path id="Trazado_236606" data-name="Trazado 236606" d="M125.547,339.478a.683.683,0,0,1-.636-.433c-.681-1.729-1.353-3.6-2-5.573-7.127-21.827-8.623-32.257-5.164-36,1.579-1.709,4.053-2.043,8.024-1.085,9.708,2.344,134.782-.052,136.044-.077a.672.672,0,0,1,.7.67.683.683,0,0,1-.67.7c-5.162.1-126.513,2.423-136.392.039-3.43-.828-5.5-.618-6.7.683-2.991,3.237-1.308,13.924,5.46,34.649.635,1.943,1.3,3.792,1.967,5.5a.684.684,0,0,1-.635.934" transform="translate(-41.794 -106.626)" fill="#d9737d"/>
    <path id="Trazado_236607" data-name="Trazado 236607" d="M148.568,382.6a.683.683,0,0,1,0-1.366c6.278-.014,13.1-.047,21.473-.1h.005a.683.683,0,0,1,0,1.367c-8.375.057-15.2.09-21.479.1Z" transform="translate(-53.297 -137.356)" fill="#d9737d"/>
    <path id="Trazado_236608" data-name="Trazado 236608" d="M130.04,430.285c-1.582-14.43-7.556-64.356-16.117-80.588-10.05-19.053-31.589-34.729-44.877-22.515-10.713,9.847,18.9,77.319,30.775,103.1Z" transform="translate(-24.056 -116.359)" fill="#ef838b"/>
    <path id="Trazado_236609" data-name="Trazado 236609" d="M145.794,429.049a.683.683,0,0,1-.677-.6c-2.076-17.865-7.746-61.008-15.525-75.756a60.012,60.012,0,0,0-18.205-20.97.683.683,0,1,1,.774-1.126A61.429,61.429,0,0,1,130.8,352.052c7.887,14.951,13.588,58.295,15.673,76.236a.682.682,0,0,1-.679.762" transform="translate(-40.036 -119.1)" fill="#bb272d"/>
    <path id="Trazado_236610" data-name="Trazado 236610" d="M474.917,430.663c12.2-26.6,40.773-92.241,30.216-101.94-13.291-12.211-34.827,3.469-44.872,22.524-8.34,15.819-14.215,63.631-15.97,79.416Z" transform="translate(-160.119 -116.915)" fill="#ef838b"/>
    <path id="Trazado_236611" data-name="Trazado 236611" d="M444.64,429.871a.7.7,0,0,1-.081,0,.683.683,0,0,1-.6-.758c2.078-17.773,7.756-60.711,15.575-75.543a61.08,61.08,0,0,1,19.019-21.724.683.683,0,1,1,.762,1.134A59.672,59.672,0,0,0,460.744,354.2c-7.712,14.628-13.358,57.368-15.427,75.065a.683.683,0,0,1-.677.6" transform="translate(-159.999 -119.552)" fill="#d9737d"/>
    <path id="Trazado_236612" data-name="Trazado 236612" d="M381.776,382.108a.683.683,0,0,1-.261-1.307c.542-.241,13.638-5.877,45.866-5.409h.007a.683.683,0,0,1-.027,1.366c-31.87-.463-45.163,5.234-45.293,5.291a.674.674,0,0,1-.292.058" transform="translate(-137.349 -135.279)" fill="#d9737d"/>
    <path id="Trazado_236613" data-name="Trazado 236613" d="M279.573,354.9c-.033.331,2.209,17.2,2.209,17.2a7.818,7.818,0,0,0,3.53,2.771c2.465,1.022,4.852,1.7,4.644,2.685a2.494,2.494,0,0,1-1.973,1.926c-1.027.234-12.03-1.29-13.145-1.288a6.192,6.192,0,0,1-6.592-4.438c-1.556-4.613-1.848-7.319,1.8-12.649s1.022-2.465,1.022-2.465Z" transform="translate(-96.28 -127.903)" fill="#e08e6f"/>
    <path id="Trazado_236614" data-name="Trazado 236614" d="M285.321,380.071a7.819,7.819,0,0,1-3.53-2.77s-.516-3.882-1.049-7.958a26.256,26.256,0,0,0-7.869,1.8,17.5,17.5,0,0,0-5.7,3.153,17.933,17.933,0,0,0,1.078,4.666,6.192,6.192,0,0,0,6.592,4.438c1.116,0,12.119,1.522,13.145,1.288a2.494,2.494,0,0,0,1.973-1.925c.208-.984-2.179-1.664-4.644-2.686" transform="translate(-96.289 -133.109)" fill="#e4e4ff"/>
    <path id="Trazado_236615" data-name="Trazado 236615" d="M188.1,346.247a14.927,14.927,0,0,0,9.8,6.09,28.192,28.192,0,0,0,9.037-.112c3.165-.425,5.08.4,9.826.963,8.534,1.02,18.825-21.346,21.728-23.039s.981-36.353-14.7-37.738-29.208,26.49-33.425,33.833a26.99,26.99,0,0,0-2.264,20" transform="translate(-67.441 -105.365)" fill="#6b4e4e"/>
    <path id="Trazado_236616" data-name="Trazado 236616" d="M268.309,366.6l3.509,7.643s2.1-4.09,2.063-6.552-5.572-1.091-5.572-1.091" transform="translate(-96.697 -131.985)"/>
    <path id="Trazado_236617" data-name="Trazado 236617" d="M287.165,358.8l1.79,13.558s.821.157,3.3-3.4,2.3-4.108,1.818-6.133-6.906-4.022-6.906-4.022" transform="translate(-103.493 -129.309)"/>
    <path id="Trazado_236618" data-name="Trazado 236618" d="M240.486,354.5a34.541,34.541,0,0,1,7.439-7.635c4.932-3.775,8-4.083,8.848-3.392s-1.057,6.132-1.057,6.132l.5,1.113s2.17-6.63,1.789-8.949-2.416-3.278-2.691-5.13-4.267-24.75-7.537-33.282-14.106-5.031-17.009-3.339a52.161,52.161,0,0,0-7.138,5.726Z" transform="translate(-80.595 -107.346)" fill="#6b4e4e"/>
    <path id="Trazado_236619" data-name="Trazado 236619" d="M268.862,342.105s2.711-3.612,5.759-4.454,5.856,2.322,6.786,4.466-3.036,6.926-4.614,8.293l.04,1.144s4.291-4.218,5.565-7.135-.379-4.675-1.061-7.023.627-2.524-.874-4.267-2.038-2.481-1.832-4.59-5.206-23.7-7.944-26.022-8.7-7.467-15.411-2.574,6.779,37.922,9.118,40.432,4.469,1.73,4.469,1.73" transform="translate(-91.331 -107.362)" fill="#6b4e4e"/>
    <path id="Trazado_236620" data-name="Trazado 236620" d="M242.78,362.371c-.152-.02-.264-.445-.313-.562l-.437-1.03q-.42-.993-.838-1.988-.82-1.953-1.616-3.915c-1.057-2.619-2.059-5.259-2.981-7.929-1.817-5.264-3.361-10.617-4.8-15.993-.819-3.051-1.607-6.11-2.394-9.169-.155-.605-1.121-.445-.964.167,1.444,5.612,2.889,11.225,4.53,16.784s3.5,11.03,5.664,16.4q.927,2.3,1.893,4.579.481,1.142.965,2.282c.249.588.483,1.25,1.2,1.347.624.084.718-.889.1-.974" transform="translate(-82.32 -115.832)" fill="#493333"/>
    <path id="Trazado_236621" data-name="Trazado 236621" d="M273.553,351.382q-4.181-10.949-7.387-22.237-.894-3.154-1.71-6.328c-.155-.605-1.121-.445-.964.167q2.932,11.4,6.856,22.508,1.119,3.163,2.317,6.3c.225.588,1.112.178.888-.409" transform="translate(-94.955 -116.204)" fill="#e08e6f"/>
    <path id="Trazado_236622" data-name="Trazado 236622" d="M266.636,377.3a54.512,54.512,0,0,1-3.82-7.627,22.376,22.376,0,0,0-5.133,3.076,36.423,36.423,0,0,0-6.978,6.983,10.031,10.031,0,0,0,.4,1.235c.444,1.067,4.978,1.623,6.06,1.63s3.013.393,7.977.978,5.551.212,6.032-1.279c.707-2.2-3.4-3.508-4.534-5" transform="translate(-90.353 -133.229)" fill="#e4e4ff"/>
    <path id="Trazado_236623" data-name="Trazado 236623" d="M276.606,384.047a3.732,3.732,0,0,0-.53-.543l-.024-.02a11.947,11.947,0,0,0-1.534-1.012,6.035,6.035,0,0,1-2.067-1.96c-.225-.354-.726.063-.5.414a6.019,6.019,0,0,0,1.61,1.7c.164.116.333.224.5.328a1.46,1.46,0,0,0-.576.038,1.055,1.055,0,0,1-.563.084c-.192-.04-.368-.139-.555-.2a1.893,1.893,0,0,0-1.043,0,2.56,2.56,0,0,1-1.244.047c-.411-.1-.8-.255-1.217-.341a2.012,2.012,0,0,0-1.879.408c-.294.295.118.8.414.5.522-.525,1.291-.305,1.914-.115a3.76,3.76,0,0,0,2.123.139,1.638,1.638,0,0,1,1.057.1,1.462,1.462,0,0,0,.886.089,1.9,1.9,0,0,1,.534-.126,2.87,2.87,0,0,1,.645.136q.57.147,1.135.308a2.108,2.108,0,0,1,.825,1.721,1.918,1.918,0,0,1-.993,1.544c-.37.194-.1.788.273.593a2.559,2.559,0,0,0,.808-3.843" transform="translate(-96.183 -137.086)" fill="#ceceff"/>
    <path id="Trazado_236624" data-name="Trazado 236624" d="M297.436,386.923l-1.4-.523a2.523,2.523,0,0,0-1.37-.316,2.068,2.068,0,0,1-.619.1,5.137,5.137,0,0,1-.678-.152,2.437,2.437,0,0,0-1.4.118c-.393.148-.119.74.272.592a2.054,2.054,0,0,1,1.3,0,2.185,2.185,0,0,0,1.162,0,2.15,2.15,0,0,1,1.2.3l1.305.487a.326.326,0,0,0,.234-.609" transform="translate(-105.155 -139.105)" fill="#ceceff"/>
    <path id="Trazado_236625" data-name="Trazado 236625" d="M211.67,265c-.193-.361-.723-5.432-.723-5.432s3.208-.142,4.1-1.081-.594-3.252,2.055-5.844,8.081-3.314,15.787-1.647,8.8,5.652,7.866,8.184,3.5,8.554-6.338,9.986S211.67,265,211.67,265" transform="translate(-76.024 -90.136)" fill="#8c3737"/>
    <path id="Trazado_236626" data-name="Trazado 236626" d="M225.282,267.339a13.062,13.062,0,0,1-3.211-4.543c-1.205-2.86-1.023-8.212,1.928-9.18a14.015,14.015,0,0,1,9.923.173c4.314,1.451,6.438,5.429,5.95,10.409s-8.742,7.6-14.59,3.141" transform="translate(-79.781 -91.106)"/>
    <path id="Trazado_236627" data-name="Trazado 236627" d="M229.77,259.16s.065-4.505,3.547-6.271c2.079-5.4,5.607-5.5,9.971-5.574a11.653,11.653,0,0,1,6.823,1.772,7.8,7.8,0,0,1,3.823,1.64,6.829,6.829,0,0,1,1.68,2.921,8.272,8.272,0,0,1,2.008,4.3c.479,2.812-1.423,6.343-1.423,6.343a19.483,19.483,0,0,1-2.113,5.268c-1.5,2.451-13.952,1.841-17.9.2s-8.644-3.276-6.418-10.6" transform="translate(-82.601 -89.13)" fill="#b2272d"/>
    <path id="Trazado_236628" data-name="Trazado 236628" d="M236.955,272.528s-3.022-.915-4.276-2.936c-2.759.627-3.568,1.393-3.057-.87.235-1.042.617-2.872-.754-3.425s-3.318,2.965-2.121,5.405c1.407,2.87,10.208,1.827,10.208,1.827" transform="translate(-81.584 -95.59)" fill="#e08e6f"/>
    <path id="Trazado_236629" data-name="Trazado 236629" d="M282.282,296.046s1.252,1.187,1.6,4.643-5.009,9.793-9.886,5.235c-5.035-4.707-19.743-.839-19.743-.839l.9-11.545s11.8-4.775,16.7-3.611,10.426,6.116,10.426,6.116" transform="translate(-91.63 -104.423)" fill="#8c3737"/>
    <path id="Trazado_236630" data-name="Trazado 236630" d="M191.758,279.63s1.055,13.676,1.034,19.718-5.87,26.526-7.442,30.934,1.967,11.377,1.967,11.377a37.452,37.452,0,0,1,1.22-12.845c1.9-6.543,16.044-25.23,21.152-29.635a111.994,111.994,0,0,1,13.219-9.2Z" transform="translate(-66.654 -100.777)" fill="#8c3737"/>
    <path id="Trazado_236631" data-name="Trazado 236631" d="M264.995,261c-.43-.6-.723-1.272-1.421-1.511a3.523,3.523,0,0,0-1.132-.2c-.167,0-.333.02-.5.026a8.586,8.586,0,0,0,.432-2.284c.054-.454.006-.819-.221-.831-.256-.013-.2.32-.3.7a3.889,3.889,0,0,1-.315.814,4.863,4.863,0,0,0-.18-.51,2.6,2.6,0,0,0-1.6-1.4c-.47-.171-.713-.02-.27.338a3.662,3.662,0,0,1,1.346,2.673c.015.382-.09.773.193,1.088a1.181,1.181,0,0,0,.974.295,3.752,3.752,0,0,1,.957.038,2.785,2.785,0,0,1,1.682,1.12c.335.466.69.11.358-.354" transform="translate(-93.433 -92.164)" fill="#80151b"/>
    <path id="Trazado_236632" data-name="Trazado 236632" d="M255.342,306.328s-1.083,2.936-2.079,3.541-3.3-2.2-2.42-4.918,5.3-1.118,4.5,1.377" transform="translate(-90.332 -109.391)"/>
    <path id="Trazado_236633" data-name="Trazado 236633" d="M248.733,297.411s1.906-.567,2.356,2.331a10.9,10.9,0,0,1-.535,4.209c-.38.7-3.662,2.821-4.2,3.641a7.883,7.883,0,0,1-3.5,2.065.726.726,0,0,1-.5-1.244,4.335,4.335,0,0,0,1-1.1,21.133,21.133,0,0,0-2.487,1.762c-.558.459-1.223.046-1.54-.035-.489-.125-1.5-.07-.824-1.453.268-.551,1.736-3.062,1.984-3.5s-1.018.995-1.484,1.564-1.584.956-1.82.215,1.417-2.939,2.334-3.927.8-1.305.8-1.305-1.916-.444-2.2-1.191.145-1.474,1.049-1.282a10.227,10.227,0,0,0,3.9.022c1.057-.307,5.668-.778,5.668-.778" transform="translate(-85.471 -107.169)" fill="#e08e6f"/>
    <path id="Trazado_236634" data-name="Trazado 236634" d="M243.243,301.234a.388.388,0,0,0-.508-.188,11.2,11.2,0,0,0-1.322.857.385.385,0,0,0-.053.539.391.391,0,0,0,.539.053c.225-.17.458-.33.7-.482.152-.094.305-.185.461-.271a.41.41,0,0,0,.2-.21.393.393,0,0,0-.01-.3" transform="translate(-86.953 -108.481)" fill="#d38060"/>
    <path id="Trazado_236635" data-name="Trazado 236635" d="M276.629,288.281a21.98,21.98,0,0,0,2.926.4c.463-.069,3.923,2.637,5.37,3.007a11.47,11.47,0,0,1,3.711,2.289c1.063.789,1.8.1,1.116-1.1,0,0,.683.78.982,1.2s1.027-.216.9-1.346-.895-1.79-1.036-2.825a9.82,9.82,0,0,0-1.428-3.786,44.887,44.887,0,0,0-8.686-4.148c-2.177-.6-3.024-.9-3.57-.1-1.383,2.029-.32,6.619-.28,6.412" transform="translate(-99.541 -101.408)" fill="#e08e6f"/>
    <path id="Trazado_236636" data-name="Trazado 236636" d="M201.3,281.517s11.226,5.32,13.668,6.015,16.126-1.614,19.694-1.948,13.014,1.046,13.691,1.113,2.217-9.82,1.649-11.016-24.619-3.666-29.692-4.277-11.521-5.805-14.764-6.465-11.354,2.122-11.154,7.918c1.458,42.28,6.907,8.66,6.907,8.66" transform="translate(-70.055 -95.448)" fill="#8c3737"/>
    <path id="Trazado_236637" data-name="Trazado 236637" d="M295.963,297.411a12.39,12.39,0,0,0-1.5-1.811.455.455,0,0,0-.626-.061.45.45,0,0,0-.061.626c.7.729,1.392,1.218,2.1,1.946.161.167.452.469.64.3.168-.15-.407-.8-.553-1" transform="translate(-105.84 -106.475)" fill="#d38060"/>
    <path id="Trazado_236638" data-name="Trazado 236638" d="M296.15,291.178c-.153-.176-.823-.645-1.005-.482s.157.457.32.644c.238.274,2.266,3.059,2.366,3.007.2-.1-1.172-2.585-1.68-3.17" transform="translate(-106.351 -104.753)" fill="#d38060"/>
    <path id="Trazado_236639" data-name="Trazado 236639" d="M254.224,282.754c.029-.626-.944-.726-.973-.1-.127,2.725-.268,5.63-1.68,8.035a57.388,57.388,0,0,0-9.341.222c-3.138.334-6.077.766-9.166,1.385-3.146.63-5.931.993-9.631,1.4a22.033,22.033,0,0,1-4.832.058,18.613,18.613,0,0,1-4.519-1.169,29.619,29.619,0,0,1-8.483-4.959c-.485-.4-1.055.391-.574.792a30.519,30.519,0,0,0,7.5,4.6c.3.127.594.246.893.363q-2.9-.061-5.787-.345a.326.326,0,0,0-.064.649,73.6,73.6,0,0,0,7.768.361c.5.15,1,.29,1.5.4a18.054,18.054,0,0,0,4.834.331,72.218,72.218,0,0,0,9.382-1.087c3.151-.552,6.615-1.206,9.789-1.633a55.753,55.753,0,0,1,10.582-.4c.466.026.633-.012.826-.308,1.717-2.628,1.827-5.556,1.968-8.6" transform="translate(-73.824 -101.715)" fill="#60150b"/>
    <path id="Trazado_236640" data-name="Trazado 236640" d="M221.712,268.882q-2.939-1.545-5.957-2.931c-.382-.175-.613.435-.233.609q3.016,1.385,5.956,2.931c.372.2.6-.416.234-.609" transform="translate(-77.603 -95.836)" fill="#60150b"/>
    <path id="Trazado_236641" data-name="Trazado 236641" d="M270.864,271.489c-.122-.395-.766-.29-.643.111a8.362,8.362,0,0,1-.631,6.452c-.2.364.326.75.528.382a8.991,8.991,0,0,0,.745-6.946" transform="translate(-97.143 -97.754)" fill="#b2272d"/>
    <path id="Trazado_236642" data-name="Trazado 236642" d="M262.7,388.785c-32.179,1.355-49.45-7.466-73.861-7.287l.445,12.1,73.294,5.15Z" transform="translate(-68.056 -137.488)" fill="#ef838b"/>
    <path id="Trazado_236643" data-name="Trazado 236643" d="M284.072,386.868a176.2,176.2,0,0,1-18.181.923c-6.105-.032-12.206-.365-18.29-.867s-12.154-1.175-18.217-1.89-12.151-1.476-18.234-2.155c-6.1-.681-12.214-1.281-18.342-1.671a17.126,17.126,0,0,0-2.271-.135c-1.527.107-.3,1.47.289,1.5,6.1.336,12.018,1.021,18.089,1.676,6.115.659,12.47,1.576,18.578,2.305,6.065.724,11.935,1.412,18.02,1.955,6.053.54,13.2.592,19.276.7a146.221,146.221,0,0,0,17.435-.6c.754-.072,1.5-.2,2.26-.237,1.4-.07,1.327-1.676-.412-1.505" transform="translate(-68.402 -137.332)" fill="#d9737d"/>
    <path id="Trazado_236644" data-name="Trazado 236644" d="M95.245,27.93s-2.589,88.328,1.438,90.63,126.881,1.726,128.32-2.878,2.014-88.328-1.438-89.478S95.245,27.93,95.245,27.93" transform="translate(-34.031 -9.346)" fill="#fce6ec"/>
    <path id="Trazado_236645" data-name="Trazado 236645" d="M224.91,22.147c-4.6-.288-135.513-2.014-134.937,1.438,0,0-2.878,93.507,1.151,95.521s131.484-.576,134.074-1.726,4.315-94.945-.288-95.233M219.443,112.2c-1.438.863-119.4,2.589-121.7,2.014s-.575-85.451-.575-85.451,119.4-1.726,122.277-.288,1.438,82.862,0,83.724" transform="translate(-32.067 -7.735)" fill="#ecd4ce"/>
    <path id="Trazado_236646" data-name="Trazado 236646" d="M446.251,125.423s-.407,13.3,0,13.587,3.662,0,3.662,0l.407-13.876Z" transform="translate(-160.761 -45.098)" fill="#ecd4ce"/>
    <path id="Trazado_236647" data-name="Trazado 236647" d="M586.173,125.423s-.407,13.3,0,13.587,3.663,0,3.663,0l.407-13.876Z" transform="translate(-211.188 -45.098)" fill="#ecd4ce"/>
    <path id="Trazado_236648" data-name="Trazado 236648" d="M562.253,98.123l.333,9.68-31.079.485,1.544-10.166Z" transform="translate(-191.552 -35.363)" fill="#fce6ec"/>
    <path id="Trazado_236649" data-name="Trazado 236649" d="M548.082,108.1l-59.015.013s-1.53-10.169,1.005-10.676c2.136-.427,57.4-1.208,57.738-.53a3.385,3.385,0,0,1,.34,1.359s-26.485-.679-26.825,0-.34,8.149.34,8.489,26.485,0,26.485,0Z" transform="translate(-176.092 -34.83)" fill="#ecd4ce"/>
    <path id="Trazado_236650" data-name="Trazado 236650" d="M549.765,71.387l.24,4.919-22.428.384,1.114-5.3Z" transform="translate(-190.136 -25.728)" fill="#fce6ec"/>
    <path id="Trazado_236651" data-name="Trazado 236651" d="M539.539,76.544l-42.588.01s-1.1-5.306.726-5.707c1.541-.338,41.422-.956,41.666-.418a2.883,2.883,0,0,1,.246,1.073s-19.113-.537-19.359,0-.245,3.71.246,3.978,19.113,0,19.113,0Z" transform="translate(-178.979 -25.306)" fill="#ecd4ce"/>
    <path id="Trazado_236652" data-name="Trazado 236652" d="M497.671,80.934l-.247,9.683,31.083.208-1.635-10.152Z" transform="translate(-179.269 -29.074)" fill="#fce6ec"/>
    <path id="Trazado_236653" data-name="Trazado 236653" d="M495.852,91.018l47.505-.546c.189-1.139,1.422-9.12-.792-10.046-2.386-1-46.208-1.285-46.542-.6a3.39,3.39,0,0,0-.327,1.361s26.479-.915,26.824-.239.412,8.146-.264,8.491-26.485.237-26.485.237Z" transform="translate(-178.645 -28.634)" fill="#ecd4ce"/>
    <path id="Trazado_236654" data-name="Trazado 236654" d="M432.956,114.645s112.724-1.366,113.407,0c1.112,2.225-.342,7.173-.342,7.173H432.956Z" transform="translate(-156.035 -41.098)" fill="#ecd4ce"/>
    <path id="Trazado_236655" data-name="Trazado 236655" d="M175.712,522.672c0,.981-2.5,1.776-43.414,1.776-41.9,0-44.948-.795-44.948-1.776S89.564,520.9,132.3,520.9c35.3,0,43.414.8,43.414,1.776" transform="translate(-31.48 -187.728)" fill="#756880"/>
    <path id="Trazado_236656" data-name="Trazado 236656" d="M172.626,477.772s1.254,3.948,2.083,4.981,18.945,10.577,21.255,11.139,4.227.35,4.406,1.965-2.132,2.892-5.273,3.136a43.942,43.942,0,0,0-7.267.8,166.891,166.891,0,0,1-17.372,1.816c-3.364.065-8.86,1.183-9.5.027s.433-9.958.38-14.141-7.086-18.833-6.647-20.414,12.516-2.3,13.94-1.437,4,12.125,4,12.125" transform="translate(-55.743 -167.683)" fill="#e08e6f"/>
    <path id="Trazado_236657" data-name="Trazado 236657" d="M203.8,506.058c-.178-1.615-2.1-1.4-4.406-1.965-2.055-.5-16.617-8.108-20.392-10.509a39.214,39.214,0,0,1-6.017,3.937,17.948,17.948,0,0,1-8.262,2.406c-.191,4.5-.874,10.937-.334,11.914.638,1.155,6.134.038,9.5-.028A166.916,166.916,0,0,0,191.257,510a43.867,43.867,0,0,1,7.267-.8c3.14-.245,5.451-1.522,5.273-3.137" transform="translate(-59.17 -177.885)" fill="#fff"/>
    <path id="Trazado_236658" data-name="Trazado 236658" d="M164.157,510.4a39.916,39.916,0,0,1,10.523-2.687c6.764-.928,8.355-2.122,8.62-4.774s2.582-3.783,3.245-3.518,16.249,6.568,17.177,7.629-.133,3.183-.929,3.845-18.964,2.785-27.185,3.581-10.679.943-11.342-.117-.109-3.959-.109-3.959" transform="translate(-59.083 -179.974)" fill="#7596c0"/>
    <path id="Trazado_236659" data-name="Trazado 236659" d="M101.836,479.206s.812,4.062,1.524,5.179,17.669,12.592,19.9,13.4,4.163.813,4.163,2.438-2.437,2.64-5.585,2.539a43.9,43.9,0,0,0-7.311,0,166.986,166.986,0,0,1-17.466-.1c-3.351-.3-8.937.2-9.444-1.015s1.523-9.851,1.929-14.014-4.975-19.5-4.367-21.021,12.694-.914,14.014.1,2.64,12.491,2.64,12.491" transform="translate(-30.682 -167.833)" fill="#e08e6f"/>
    <path id="Trazado_236660" data-name="Trazado 236660" d="M124.618,509.185c-1.824-.663-13.463-8.434-18.061-11.872a36.647,36.647,0,0,1-6.444,2.39,21.373,21.373,0,0,1-9.355.543c-.6,4.432-2.246,11.688-1.784,12.8.507,1.218,6.092.711,9.444,1.016a166.97,166.97,0,0,0,17.466.1,43.835,43.835,0,0,1,7.311,0c3.148.1,5.585-.914,5.585-2.539s-1.929-1.625-4.163-2.437" transform="translate(-32.037 -179.229)" fill="#fff"/>
    <path id="Trazado_236661" data-name="Trazado 236661" d="M88.834,513.174a127.98,127.98,0,0,0,14.659,1.089c5.133-.1,4.974-5.989,6.344-7.96s3.149-2.006,3.662-1.748,10.734,5.776,12.962,7.061,3.085,2.228,2.314,3.77-2.657,2.142-6.17,2.228-29.306-.686-31.877-.6-2.578-1.2-2.313-3c.1-.7.42-.842.42-.842" transform="translate(-31.823 -181.798)" fill="#7596c0"/>
    <path id="Trazado_236662" data-name="Trazado 236662" d="M126.868,241.7s13.247,90.364,16.559,105.03,4.495,32.408,2.6,36.666,1.419,8.516-2.839,10.408-12.747,2.76-13.221,1.34-1.682-5.834-4.047-6.781-1.419,0-7.1-17.978-9.226-46.364-9.226-46.364-6.386,33.591-5.914,46.838-1.419,17.978-2.839,19.4,1.17,5.587-1.669,7.006-13.3,2.6-14.89,1.509c-2.5-1.714-.473-6.623-3.312-8.042s-3.485-3.191-5.378-23.534,3.959-59.26,3.486-63.991-1.419-19.4-.947-44.945,3.312-32.172,3.312-32.172,37.375,8.043,45.418,15.613" transform="translate(-27.109 -81.48)" fill="#e6a758"/>
    <path id="Trazado_236663" data-name="Trazado 236663" d="M93.706,243.095a26.566,26.566,0,0,1-5.278,12.864,26.015,26.015,0,0,1-2.69,2.988c-.432.413.224,1.067.656.656a27.255,27.255,0,0,0,8.239-16.507c.072-.59-.856-.585-.927,0" transform="translate(-30.848 -87.451)" fill="#c78b43"/>
    <path id="Trazado_236664" data-name="Trazado 236664" d="M136.731,376.9q-1.815-10.918-3.429-21.869-.91-6.176-1.756-12.36c-.054-.393-.649-.225-.6.164q1.506,11,3.213,21.979,1.7,10.936,3.605,21.84,1.074,6.15,2.211,12.288c.072.39.668.225.6-.164q-2.022-10.92-3.845-21.877" transform="translate(-47.192 -123.414)" fill="#c78b43"/>
    <path id="Trazado_236665" data-name="Trazado 236665" d="M155.787,459.234a13.183,13.183,0,0,1-5.153-6.9,62.1,62.1,0,0,1-2.526-9.829q-.648-3.241-1.13-6.512c-.058-.391-.653-.225-.6.164q.881,5.944,2.3,11.792a25.828,25.828,0,0,0,3.279,8.391,11.344,11.344,0,0,0,3.517,3.427.309.309,0,0,0,.311-.533" transform="translate(-52.754 -157.049)" fill="#c78b43"/>
    <path id="Trazado_236666" data-name="Trazado 236666" d="M95.877,483.163a26.339,26.339,0,0,1-10.186.988,3.428,3.428,0,0,1,.5.97,27.2,27.2,0,0,0,9.934-1.064.464.464,0,0,0-.246-.893" transform="translate(-30.882 -174.121)" fill="#c78b43"/>
    <path id="Trazado_236667" data-name="Trazado 236667" d="M168.974,476.322c-.579.1-.228.952.362.867a32.539,32.539,0,0,0,9.855-3.118,7.419,7.419,0,0,1,.328-1.283,39.934,39.934,0,0,1-10.545,3.535" transform="translate(-60.791 -170.39)" fill="#c78b43"/>
    <path id="Trazado_236668" data-name="Trazado 236668" d="M131,286.491q-.351,13.6-.961,27.19t-1.483,27.167q-.492,7.671-1.068,15.335c-.045.595,1.188.65,1.233.059.678-9.044,1.261-17.935,1.766-26.991s.8-18.289,1.132-27.353q.281-7.68.479-15.365c.015-.6-1.083-.638-1.1-.042" transform="translate(-45.947 -103.096)" fill="#ef838b"/>
    <path id="Trazado_236669" data-name="Trazado 236669" d="M184.557,129.484c-.588-2.55-2.954-1.231-5.308-.838s-1.965-1.992-12.362.558a87.777,87.777,0,0,1-19.873,2.587c-1.178,0-34.331-10.4-35.116-10.594s6.67-6.866-11.379-12.163c0,0-11.771-4.12-14.517-3.531s-.588,3.923-1.57,4.316-2.746,3.139-2.746,3.139-15.694.785-21.383,1.962c-2.851.59-8.56,4.632-14.51,10.317a1.612,1.612,0,0,0-.553.281c-4.258,3.312-12.458,14.036-15.455,18.136s-1.059,12.422-.743,15.418.788,5.835,2.523,7.886,4.338,9.735,5.915,15.255,4.1,5.046,5.52,5.362,2.386,4.974,3.627,5.362c3.127.977,10.408-6.939,11.67-8.516s-.947-5.362-1.735-6.782-1.229-8.436-2.649-11.906-5.519-13.563-4.416-14.982,8.764-6.628,8.764-6.628q.43-.217.853-.422a94.628,94.628,0,0,0,1.265,15.093,102.008,102.008,0,0,1,1.02,23.455c-.158,2.05-2.051,6.781-1.893,9.62a46.279,46.279,0,0,0,1.419,7.412,100.893,100.893,0,0,0,21.058,8.875c12.616,3.785,29.806,4.81,30.91,4.021s.316-7.49.316-10.329c2.905-4.142.247-20.833,1.829-25.791.428-1.342,2.229-9.084,4.371-27.47,9.453,2.112,21.081,4.268,28.81,4.372,14.517.2,30.334-6.864,33.473-8.04s1.108-3.279,4.051-4.26-.6-8.624-1.187-11.175" transform="translate(-10.14 -38.002)" fill="#7596c0"/>
    <path id="Trazado_236670" data-name="Trazado 236670" d="M138.323,217.873q.019-.66.075-1.319a2.5,2.5,0,0,0-.019-1.133,1.028,1.028,0,0,0-.8-.564c-.537-.147-1.076-.288-1.616-.429q-1.471-.382-2.948-.739-6.134-1.483-12.363-2.533-1.536-.258-3.077-.491c-.5-.075-1-.152-1.5-.219a1.713,1.713,0,0,0-1.2.154,2.014,2.014,0,0,0-.638.882c-.187.384-.387.76-.608,1.126a13.862,13.862,0,0,1-1.368,1.873,14.061,14.061,0,0,1-9.29,4.773.315.315,0,0,0-.249.279q-1.287,6.308-2.572,12.616c-.079.388.537.434.615.049q1.261-6.18,2.52-12.358a14.578,14.578,0,0,0,8.032-3.543,14.29,14.29,0,0,0,2.936-3.531c.185-.317.356-.642.517-.972.233-.479.407-.807,1.006-.763,1.011.074,2.031.289,3.031.447q6.114.965,12.151,2.354,3,.692,5.973,1.486a5,5,0,0,1,.7.192c.23.1.214.285.2.5-.029.428-.078.854-.1,1.283a24.622,24.622,0,0,0,2.875,12.82q0-.69-.008-1.393a24.166,24.166,0,0,1-2.185-8.029,23.465,23.465,0,0,1-.088-2.821" transform="translate(-36.089 -75.83)" fill="#3a6c88"/>
    <path id="Trazado_236671" data-name="Trazado 236671" d="M126.8,118.285s-3.714-6.293-3.126-8.058,15.694,3.531,19.618,7.847-7.011,11.748-7.011,11.748Z" transform="translate(-44.55 -39.599)" fill="#3a6c88"/>
    <path id="Trazado_236672" data-name="Trazado 236672" d="M88.77,153.026q-8.085,4.031-15.752,8.833c-.5.316-.04,1.118.468.8q7.656-4.8,15.752-8.833c.533-.266.065-1.066-.468-.8" transform="translate(-26.237 -55.13)" fill="#3a6c88"/>
    <path id="Trazado_236673" data-name="Trazado 236673" d="M63.535,182.448a128,128,0,0,1-5.56-17.035.464.464,0,0,0-.9.236,127.936,127.936,0,0,0,5.56,17.034.479.479,0,0,0,.565.331.466.466,0,0,0,.331-.566" transform="translate(-20.565 -59.494)" fill="#fce6ec"/>
    <path id="Trazado_236674" data-name="Trazado 236674" d="M213.1,145.446q-4.029.526-8.026,1.25c-.586.107-.338,1,.246.894q3.874-.7,7.78-1.217a.479.479,0,0,0,.463-.464.465.465,0,0,0-.463-.463" transform="translate(-73.786 -52.417)" fill="#3a6c88"/>
    <path id="Trazado_236675" data-name="Trazado 236675" d="M124.38,128.586c-3.246-3.991-6.581-8.117-8.205-13.075-.185-.564-1.08-.323-.894.246.171.521.364,1.032.569,1.536a35.825,35.825,0,0,0-3.907-.972c-.388-.074-.555.521-.164.6a35.879,35.879,0,0,1,4.39,1.125c1.835,4.126,4.716,7.709,7.556,11.2.376.463,1.028-.2.655-.655" transform="translate(-40.204 -41.513)" fill="#3a6c88"/>
    <path id="Trazado_236676" data-name="Trazado 236676" d="M155.855,129.607a24.018,24.018,0,0,1-5.556,5.749c-.478.352.028,1.128.51.773a25.14,25.14,0,0,0,5.8-6c-.432-.132-.7-.211-.758-.226-.088-.022-.072-.126,0-.3" transform="translate(-54.097 -46.71)" fill="#3a6c88"/>
    <path id="Trazado_236677" data-name="Trazado 236677" d="M173.91,147.845c-.045.395.573.391.618,0a50.386,50.386,0,0,0-.228-13.082l-.656-.2a49.644,49.644,0,0,1,.583,8.482q-.042,2.407-.318,4.8" transform="translate(-62.581 -48.495)" fill="#3a6c88"/>
    <path id="Trazado_236678" data-name="Trazado 236678" d="M86.82,125.952c1.143,1.418,2.221,2.886,3.3,4.353.233.317.769.01.533-.311-2.707-3.682-5.549-7.5-9.165-10.332q-.446.063-.857.129a35.27,35.27,0,0,1,6.188,6.162" transform="translate(-29.059 -43.125)" fill="#3a6c88"/>
    <path id="Trazado_236679" data-name="Trazado 236679" d="M171.13,164.095c-.05-.59-.977-.595-.927,0a46.514,46.514,0,0,1-.012,7.931c-.052.594.876.59.927,0a46.59,46.59,0,0,0,.012-7.931" transform="translate(-61.335 -58.979)" fill="#3a6c88"/>
    <path id="Trazado_236680" data-name="Trazado 236680" d="M120.047,249.241A140.48,140.48,0,0,1,99.5,243.567q-2.855-1.029-5.664-2.18c-.546-.225-1,.583-.45.809a141.155,141.155,0,0,0,20.457,6.638q2.973.72,5.975,1.307c.583.114.813-.783.227-.9" transform="translate(-33.566 -86.98)" fill="#3a6c88"/>
    <path id="Trazado_236681" data-name="Trazado 236681" d="M153.1,255.765a87.2,87.2,0,0,1-12.962-.944c-.585-.087-.816.81-.227.9a88.893,88.893,0,0,0,13.208.972.463.463,0,0,0-.02-.926" transform="translate(-50.298 -91.834)" fill="#3a6c88"/>
    <path id="Trazado_236682" data-name="Trazado 236682" d="M167.1,80.657a4.373,4.373,0,0,0-2.689-1.848,8.074,8.074,0,0,0-2.624-.148,4.8,4.8,0,0,0,1.226-4.08c-.473-2.839-5.283-4.048-11.88-1.472,0,0-.107-3.132-5.046-2.418-10.9,1.574-10.33,18.688-9.935,22s2.287,3.628,5.2,4.337S158.6,89.2,158.6,89.2a10.983,10.983,0,0,0,6.649-4.39c1.713-2.626-.5-4.424-2.271-5.247a3.775,3.775,0,0,1,3.323,1.566c.316.5,1.118.04.8-.468" transform="translate(-49.009 -25.439)" fill="#493333"/>
    <path id="Trazado_236683" data-name="Trazado 236683" d="M128.6,116.624s5.046-1.893,7.885-11.354l10.093,7.57s-3.119,5.082-4.695,8.567c-.234.519-1.189,2.557-1.918,3.97-1.165,2.26-2.535,8.91-11.366-8.752" transform="translate(-46.347 -37.939)" fill="#e08e6f"/>
    <path id="Trazado_236684" data-name="Trazado 236684" d="M140.445,107.184a26.223,26.223,0,0,0-.6,3.039,9.543,9.543,0,0,0,3.2,8.184,9.171,9.171,0,0,0,3.474,1.838c1.654-3.33,4.093-7.3,4.093-7.3l-9.853-7.39c-.068.549-.192,1.094-.314,1.634" transform="translate(-50.381 -38.04)" fill="#231f20"/>
    <path id="Trazado_236685" data-name="Trazado 236685" d="M157.145,84.6a8.414,8.414,0,0,0-6.231-.948c-7.638,2.5-8.79,10.914-9.271,9.309,0,0-2.43-4.635-4.844-2.091-3.542,3.735,1.129,7.592,1.129,7.592a11.349,11.349,0,0,0,7.945,11.87c3.257,1.115,4.524.926,7.362-1.992a24.939,24.939,0,0,0,6.935-13.85,33.514,33.514,0,0,0,.556-5.275c-.12-2.3-2.057-3.787-3.58-4.615" transform="translate(-48.823 -30.053)" fill="#e08e6f"/>
    <path id="Trazado_236686" data-name="Trazado 236686" d="M160.127,98.812a.467.467,0,0,0-.655,0c-.042.049-.186.245-.32.139a10.905,10.905,0,0,1-.806-.752l-1.635-1.584c-.429-.415-1.084.239-.655.655.643.623,1.256,1.266,1.9,1.889a2.883,2.883,0,0,0,1.1.782,1.091,1.091,0,0,0,1.073-.474.474.474,0,0,0,0-.655" transform="translate(-56.191 -34.772)" fill="#493333"/>
    <path id="Trazado_236687" data-name="Trazado 236687" d="M172.379,103.22a4.977,4.977,0,0,0-1.094.24.53.53,0,0,0-.12-.21.472.472,0,0,0-.328-.136.517.517,0,0,0-.463.464.794.794,0,0,0,.637.8,1.085,1.085,0,0,0,.568-.036c.136-.047.818-.219.91-.273a.463.463,0,0,0-.111-.847" transform="translate(-61.4 -37.162)" fill="#493333"/>
    <path id="Trazado_236688" data-name="Trazado 236688" d="M158.1,102.165l-.006-.022c-.012-.034-.033-.083-.049-.115a.6.6,0,0,0-.084-.116.533.533,0,0,0-.28-.161.658.658,0,0,0-.349.013c-.036.013-.063.028-.093.042-.014,0-.029,0-.042.008l-.111.047a.464.464,0,0,0-.166.166,1.336,1.336,0,0,0-.113.214.7.7,0,0,0-.048.133.76.76,0,0,0-.022.194.714.714,0,0,0,.1.356.63.63,0,0,0,.111.136.648.648,0,0,0,.257.147.618.618,0,0,0,.306,0,.45.45,0,0,0,.077-.01l.111-.047a.271.271,0,0,0,.04-.032l.007,0a1.152,1.152,0,0,0,.116-.091,1.094,1.094,0,0,0,.1-.121.392.392,0,0,0,.04-.067,1.134,1.134,0,0,0,.074-.188,2.3,2.3,0,0,0,.044-.287.583.583,0,0,0-.016-.2" transform="translate(-56.487 -36.665)" fill="#231f20"/>
    <path id="Trazado_236689" data-name="Trazado 236689" d="M170.951,106.356l-.047-.111a.353.353,0,0,0-.119-.13.234.234,0,0,0-.1-.059.352.352,0,0,0-.178-.04.737.737,0,0,0-.345.1.805.805,0,0,0-.25.248.554.554,0,0,0-.052.107.543.543,0,0,0-.042.116,1.313,1.313,0,0,0-.018.134c0,.008-.006.015-.008.024a.689.689,0,0,0-.019.176,1.1,1.1,0,0,0,.019.138.206.206,0,0,0,.01.03.607.607,0,0,0,.071.152.621.621,0,0,0,.106.126.642.642,0,0,0,.237.138l.02.006a.976.976,0,0,0,.13.018h.029a1.185,1.185,0,0,0,.127-.017.724.724,0,0,0,.128-.052l.02-.012a1.076,1.076,0,0,0,.1-.077l.012-.011a.867.867,0,0,0,.084-.109.231.231,0,0,0,.013-.024.864.864,0,0,0,.063-.157.487.487,0,0,0,.011-.059c.009-.063.019-.126.024-.189a1.978,1.978,0,0,0-.025-.464" transform="translate(-61.184 -38.207)" fill="#231f20"/>
    <path id="Trazado_236690" data-name="Trazado 236690" d="M163.374,110.372l-.074-.057a.358.358,0,0,0-.182-.049l-.516.067a.268.268,0,0,0-.139.031.261.261,0,0,0-.116.075.268.268,0,0,0-.075.116.274.274,0,0,0-.031.139.362.362,0,0,0,.106.256l.073.057a.36.36,0,0,0,.183.049l.516-.067a.276.276,0,0,0,.139-.031.326.326,0,0,0,.191-.191.278.278,0,0,0,.031-.14.368.368,0,0,0-.106-.256" transform="translate(-58.47 -39.739)" fill="#d57260"/>
    <path id="Trazado_236691" data-name="Trazado 236691" d="M160.9,115.6a4.734,4.734,0,0,0-3.417-2.734c-2.681-.631-3.207,2.892-2.944,3.943s6.046.053,6.361-1.209" transform="translate(-55.672 -40.651)" fill="#fff"/>
    <path id="Trazado_236692" data-name="Trazado 236692" d="M145.208,92.016s.379,1.243,1.878-.728,1.577-3.548,2.681-3.706,2.287.473,3.864-1.5.315-3.233,1.262-3.706,3.312,3.154,5.2,4.1,3.47.947,4.258-.079-3.075-4.258-7.648-6.466-13.64,7.213-11.5,12.082" transform="translate(-52.216 -28.689)" fill="#493333"/>
    <path id="Trazado_236693" data-name="Trazado 236693" d="M200.717,511.686l-7.474.586c-2.349.184-4.7.348-7.031.721a29.339,29.339,0,0,0-3.43.752c-1.1.316-2.187.7-3.311.932a23.715,23.715,0,0,1-3.531.329,28.175,28.175,0,0,0-3.487.44c-1.279.237-2.552.522-3.818.823a14.186,14.186,0,0,0-3.554,1.267c-.523.287-.056,1.087.468.8a12.622,12.622,0,0,1,3.068-1.11c1.112-.274,2.235-.519,3.358-.746a28.352,28.352,0,0,1,3.522-.519c1.123-.082,2.249-.088,3.366-.242a21.739,21.739,0,0,0,3.341-.834,31.462,31.462,0,0,1,3.388-.847,65.261,65.261,0,0,1,6.888-.779l8.237-.646c.59-.047.6-.973,0-.927" transform="translate(-59.412 -184.408)" fill="#3a6c88"/>
    <path id="Trazado_236694" data-name="Trazado 236694" d="M126.289,519.553c-9.592.4-19.212.8-28.8.141-2.678-.184-5.351-.448-8.01-.82a.481.481,0,0,0-.57.324.466.466,0,0,0,.324.57A168.654,168.654,0,0,0,118.1,520.8c2.73-.089,5.46-.2,8.19-.315.594-.025.6-.952,0-.927" transform="translate(-32.036 -186.996)" fill="#3a6c88"/>
    <path id="Trazado_236695" data-name="Trazado 236695" d="M58.05,237.524s-.627.993-.427,1.642,2.645-.549,3.943-1.5-2.04-1.886-3.515-.145" transform="translate(-20.753 -85.251)" fill="#3a6c88"/>
    <path id="Trazado_236696" data-name="Trazado 236696" d="M87.407,247.25s-3.782-1.215-6.582-.682c-.4,4.055-.744,9.245-.927,15.823a78.03,78.03,0,0,0,4.972-8.156c2.681-5.2,2.537-6.986,2.537-6.986" transform="translate(-28.794 -88.813)"/>
    <path id="Trazado_236697" data-name="Trazado 236697" d="M71.143,233.655s4.179.221,5.8.285,1.366,3.572,1.366,3.572,1.661,1.071,1.323,2.565-1.5,1.142-1.377,2.347-.977.715-1.894,1.293-.537,1.57-1.33,1.874-1.617-.064-1.847.821-4.456,1.136-5.965.462-3.427-3.011-5.935-8.08-2.237-3.567-2.966-4.88a15.456,15.456,0,0,1,6.891-6.891c3.642-1.792,3.971,1.66,5.247,4.7s.692,1.934.692,1.934" transform="translate(-21.016 -81.64)" fill="#e08e6f"/>
    <path id="Trazado_236698" data-name="Trazado 236698" d="M87.991,242.285a9.472,9.472,0,0,1-2.131-1.763c-.268-.262-.725.162-.482.451a6.31,6.31,0,0,0,2.357,1.713c.156.073.439.155.509,0s-.1-.32-.253-.4" transform="translate(-30.745 -86.653)" fill="#d58060"/>
    <path id="Trazado_236699" data-name="Trazado 236699" d="M272.213,155.117l-.391,1.4s.579,1.083,1.335.926.945-1.447.819-2.675-1.763.346-1.763.346" transform="translate(-97.963 -55.61)"/>
    <path id="Trazado_236700" data-name="Trazado 236700" d="M275.15,135.209s-3.267.943-5.527,1.626c-2.341.708.3,8.625,1.065,10.664.049.131,4.377-2.109,8.072-2.606s7.71-.159,8.772-1.43a7.879,7.879,0,0,0,1.591-3.895c.2-1.171-.945-.832-1.029-1.765s.867-2.383.571-3.062,2.5-1.671,4.728-3.08c2-1.262,1.629-3.152-1.825-2.065s-6.056,1.953-6.792,1.9-1-2.178-2.632-1.726a9.366,9.366,0,0,0-4.1,2.523c-1.011,1.055-2.214,2.622-2.894,2.919" transform="translate(-96.829 -46.588)" fill="#e08e6f"/>
    <path id="Trazado_236701" data-name="Trazado 236701" d="M293.056,144.113a18.983,18.983,0,0,0-2.087.664,2.378,2.378,0,0,1-1.057-.03c-.219-.061-.486-.182-.5-.477-.031-.713.9-1.036,1.341-1.259.384-.194.766-.393,1.147-.594a7.655,7.655,0,0,0,1.115-.654c.229-.176.056-.619-.207-.549a6.587,6.587,0,0,0-1.069.439c-.352.165-.7.328-1.053.5a5.393,5.393,0,0,0-1.436.845,2.221,2.221,0,0,1-1.482-.048.655.655,0,0,1-.288-.878,4.425,4.425,0,0,0,.38-1.083,1.141,1.141,0,0,0-.054-.529c-.093-.212-.29-.232-.471-.3-.28-.11-.706-.347-.574-.769a3.307,3.307,0,0,1,.916-1.123c.659-.6,1.367-.931,2.034-1.513a1.669,1.669,0,0,0,.863.207c.4-.024.81-.506,1-.8a1.408,1.408,0,0,1,1.481.093c.4.264.743-.225.217-.587a1.675,1.675,0,0,0-1.594-.288,1.675,1.675,0,0,0-.064-.972.338.338,0,0,0-.654.124c0,.434.221,1.234-.213,1.526-.362.244-.869-.109-1.157-.33a3.716,3.716,0,0,1-.6-.569c-.188-.227-.4-.587-.729-.418-.237.122-.361.5-.516.719a3.924,3.924,0,0,1-.6.7c-.3.272-.055.434.322.32a3.824,3.824,0,0,0,.982-.78c.008-.008.182.212.278.312a4.073,4.073,0,0,0,.386.351,8.252,8.252,0,0,0-1.245.855,9.939,9.939,0,0,0-1.389,1.272A1.523,1.523,0,0,0,286.1,140a1.63,1.63,0,0,0,1.045.92,4.77,4.77,0,0,1-.363.95,1.518,1.518,0,0,0,.086,1.243,1.681,1.681,0,0,0,1.88.7,1.387,1.387,0,0,0,.333,1.4,2.354,2.354,0,0,0,1.919.388c.744-.115,1.408-.627,2.159-.675.2-.012.338-.278.313-.483a.374.374,0,0,0-.417-.341" transform="translate(-103.081 -48.36)" fill="#d58060"/>
    <path id="Trazado_236702" data-name="Trazado 236702" d="M180.816,125.968a46.8,46.8,0,0,0-8.428-3.776c-.455-.152-.65.566-.2.718a45.769,45.769,0,0,1,8.25,3.7.372.372,0,0,0,.375-.642" transform="translate(-61.964 -44.03)" fill="#fff"/>
    <path id="Trazado_236703" data-name="Trazado 236703" d="M185.709,121.18l-4.89-.857q-1.2-.21-2.4-.42c-.745-.132-1.563-.335-2.316-.45-.567-.086-.655.525-.221.626.755.175,1.415.375,2.175.513.812.147,1.626.285,2.44.428l5.011.879c.468.082.669-.635.2-.718" transform="translate(-63.289 -43.047)" fill="#fff"/>
    <path id="Trazado_236704" data-name="Trazado 236704" d="M180.255,116.211q-3.972.182-7.95.114a.372.372,0,0,0,0,.744q3.976.069,7.95-.114c.477-.022.48-.766,0-.744" transform="translate(-61.968 -41.881)" fill="#fff"/>
    <path id="Trazado_236705" data-name="Trazado 236705" d="M453.752,526.029c0,.862-3.383,1.731-50.8,2.064-51.316.359-52.906-.7-52.906-1.561s1.842-1,52.906-1.561c49.087-.542,50.8.2,50.8,1.057" transform="translate(-126.153 -189.13)" fill="#756880"/>
    <path id="Trazado_236706" data-name="Trazado 236706" d="M406.1,336.059s1.635,1.7,6.567,2.249,3.945-4.6,4.164-5.151-7.874.216-10.732,2.9" transform="translate(-146.357 -120.008)"/>
    <path id="Trazado_236707" data-name="Trazado 236707" d="M492.686,342.53s8.943-.874,9.4-1.971-8.855-5.591-11.047-5.262,1.644,7.233,1.644,7.233" transform="translate(-176.725 -120.833)"/>
    <path id="Trazado_236708" data-name="Trazado 236708" d="M434.008,333.726s13.488,2.32,22.913,1.991,6.247-10.411,5.371-14.9-20.6-2.083-24.331,4.274-3.953,8.64-3.953,8.64" transform="translate(-156.414 -114.787)"/>
    <path id="Trazado_236709" data-name="Trazado 236709" d="M377.928,444.819s-5.748,30.917-6.14,32.647c-.162.488-10.292,10.955-11.268,11.443s-7.322,2.928-8.3,4.067.488,2.441.976,2.929,32.051.325,32.539-.163-3.254-14.479-3.091-16.107,8.3-28.146,10.412-34.979-15.131.163-15.131.163" transform="translate(-126.82 -159.172)" fill="#e99880"/>
    <path id="Trazado_236710" data-name="Trazado 236710" d="M362.908,509.047c2.524-3.972,6.854-3.767,9.5,2.219,1.712,3.877,2.4,6.129,3.513,6.574s9.048.153,9.382.264.278,2.056-.278,2.333-32.17.5-33.726-.333-.166-1.889-.166-1.889-.723-2.056,0-2.833,6.39-2.723,7.612-3.611,4.167-2.723,4.167-2.723" transform="translate(-126.339 -182.491)" fill="#8c3737"/>
    <path id="Trazado_236711" data-name="Trazado 236711" d="M372.4,524.66a148.546,148.546,0,0,1-18.613-.255c-.4-.031-.395.587,0,.617a148.4,148.4,0,0,0,18.613.255c.4-.02.4-.638,0-.618" transform="translate(-127.396 -188.992)" fill="#60150b"/>
    <path id="Trazado_236712" data-name="Trazado 236712" d="M482.62,445.7s3.091,27.983,3.091,30.424-3.742,17.9-3.417,18.71,11.389,1.139,13.829.814,3.417-2.115,3.254-3.091-2.441-11.877-3.091-13.992-.326-15.944-.814-31.563-12.853-1.3-12.853-1.3" transform="translate(-173.809 -158.469)" fill="#e99880"/>
    <path id="Trazado_236713" data-name="Trazado 236713" d="M482.071,517.085s-.55.157-.471,1.414,5.186,1.1,10.765,1.022,5.815-.315,6.836-1.022a1.723,1.723,0,0,0,.393-2.436c-.393-.55-1.1-5.422-1.572-5.108s-.865-2.514-3.458-4.714-9.115-1.414-10.608,1.257-1.886,9.586-1.886,9.586" transform="translate(-173.563 -181.986)" fill="#8c3737"/>
    <path id="Trazado_236714" data-name="Trazado 236714" d="M494.039,523.04a36.127,36.127,0,0,1-10.319-.117c-.389-.061-.556.534-.164.6a36.694,36.694,0,0,0,10.483.139c.388-.051.393-.67,0-.618" transform="translate(-174.19 -188.457)" fill="#60150b"/>
    <path id="Trazado_236715" data-name="Trazado 236715" d="M430.592,293.033s-12.336,29.66-16.274,38.584c.525,11.812-11.57,45.866-12.3,51.742-.263,2.1-14.618-2.289-14.628-4.5-.024-5.568,14.333-81.362,18.533-99.473s13.649-54.857,13.649-54.857l32.546.262s8.924,37.8,7.874,62.731-2.625,41.471-2.1,45.408,5.513,27.1,5.776,47.311c0,0-.382,2.163-4.408,3.751-4.062,1.6-9.56,1.945-9.734,1.117-.441-2.1-18.932-92.076-18.932-92.076" transform="translate(-139.612 -80.918)" fill="#6b4e4e"/>
    <path id="Trazado_236716" data-name="Trazado 236716" d="M471.528,335.126a36.276,36.276,0,0,0-7.059,1.168,25.785,25.785,0,0,0-6.067,2.55,71.869,71.869,0,0,1,8.85,1.169,57.78,57.78,0,0,1,16.3,5.826c.36.2.716.4,1.071.6.2-3.407.4-7.1.592-11.051a105.781,105.781,0,0,0-13.686-.265" transform="translate(-165.205 -120.727)" fill="#493333"/>
    <path id="Trazado_236717" data-name="Trazado 236717" d="M440.719,311.905q-3.173,9.754-6.539,19.444t-6.926,19.309q-2,5.416-4.069,10.808c-.143.372.455.533.6.164q3.667-9.579,7.144-19.23t6.757-19.369q1.848-5.471,3.633-10.962c.123-.379-.473-.541-.6-.164" transform="translate(-152.506 -112.332)" fill="#493333"/>
    <path id="Trazado_236718" data-name="Trazado 236718" d="M417.278,399.327q-.639,7.8-1.959,15.531T412,430.165q-1.119,4.253-2.446,8.447c-.12.38.476.542.6.164q2.373-7.5,4.083-15.2,1.7-7.653,2.722-15.434.579-4.4.94-8.818c.032-.4-.586-.394-.618,0" transform="translate(-147.595 -143.808)" fill="#493333"/>
    <path id="Trazado_236719" data-name="Trazado 236719" d="M424.477,135.478c-.8-5.909-7.32-8.374-9.415-13.591a23.676,23.676,0,0,1-1.172-4.589,19.886,19.886,0,0,1-.36-4.777,25.165,25.165,0,0,1,2.458-8.747c.708-1.565,1.483-3.1,2.3-4.617a21.154,21.154,0,0,1,2.841-4.218c.4-.441-.255-1.1-.656-.655a32.251,32.251,0,0,0-4.748,7.876,30.555,30.555,0,0,0-2.956,8.8,23.991,23.991,0,0,0,.892,9.63,12.466,12.466,0,0,0,1.905,4.066,26.9,26.9,0,0,0,2.882,3.235c2.217,2.209,4.7,4.574,5.138,7.835a.467.467,0,0,0,.57.324.475.475,0,0,0,.324-.57" transform="translate(-148.696 -33.926)" fill="#b2272d"/>
    <path id="Trazado_236720" data-name="Trazado 236720" d="M426.6,133.42s.158-3.312-5.362-8.2-7.254-13.72-5.677-20.817,5.834-14.036,9.62-14.509,4.416.315,7.57-.789,8.674,2.365,14.351,7.728,13.72,25.548,2.523,32.171A36.4,36.4,0,0,1,426.6,133.42" transform="translate(-149.564 -32.039)" fill="#b2272d"/>
    <path id="Trazado_236721" data-name="Trazado 236721" d="M446.752,122.5a44.58,44.58,0,0,0,5.079,9.217,9.154,9.154,0,0,0,5.7,3.4s-13.235,9.664-16.8,10.646-3.525-3.61-3.525-3.61,2.883-1.038,3.9-2.329c.57-.725-4.83-9.32-5.054-12.014s10.692-5.309,10.692-5.309" transform="translate(-157.152 -44.147)" fill="#e08e6f"/>
    <path id="Trazado_236722" data-name="Trazado 236722" d="M442.051,135.786a11.5,11.5,0,0,0,3.392-6.109,18.824,18.824,0,0,0-.182-6.567c-2.975.826-9.373,2.846-9.2,4.917.153,1.837,2.708,6.412,4.14,9.37.629-.523,1.258-1.044,1.85-1.611" transform="translate(-157.152 -44.368)" fill="#231f20"/>
    <path id="Trazado_236723" data-name="Trazado 236723" d="M428.055,96.377a8.411,8.411,0,0,1,6.042,1.794c5.851,5.508,3.309,13.617,4.427,12.369,0,0,4.173-3.16,5.274.169,1.616,4.889-4.253,6.39-4.253,6.39a11.348,11.348,0,0,1-12.241,7.36c-3.421-.377-4.977-1.918-6.512-4.37-1.93-3.082-1.181-9.834.814-15.816a33.311,33.311,0,0,1,1.741-5.009,5.489,5.489,0,0,1,4.707-2.887" transform="translate(-151.247 -34.727)" fill="#e08e6f"/>
    <path id="Trazado_236724" data-name="Trazado 236724" d="M425.822,124.267a.434.434,0,0,1,.4-.462.479.479,0,0,1,.311.1l.754.572a.434.434,0,0,1-.252.763.479.479,0,0,1-.31-.1l-.755-.572a.443.443,0,0,1-.152-.3" transform="translate(-153.463 -44.618)" fill="#d57260"/>
    <path id="Trazado_236725" data-name="Trazado 236725" d="M436.109,118.584a1.7,1.7,0,0,1,.106-.617,1.02,1.02,0,0,1,.142-.238.854.854,0,0,1,.357-.266.75.75,0,0,1,.889.277,1.3,1.3,0,0,1,.2.569.844.844,0,0,1,.007.166,1.926,1.926,0,0,1-.024.243c0,.026,0,.051,0,.077a1.165,1.165,0,0,1-.228.554,1.1,1.1,0,0,1-.205.21.739.739,0,0,1-.2.112.646.646,0,0,1-.448,0,.686.686,0,0,1-.379-.294,1.434,1.434,0,0,1-.136-.3,1.694,1.694,0,0,1-.081-.493" transform="translate(-157.171 -42.313)" fill="#231f20"/>
    <path id="Trazado_236726" data-name="Trazado 236726" d="M421.288,115.834a.592.592,0,0,1,0-.089,1.574,1.574,0,0,1,.02-.238,1.657,1.657,0,0,1,.07-.226.61.61,0,0,1,.039-.089.936.936,0,0,1,.127-.191.765.765,0,0,1,.329-.223.691.691,0,0,1,.519.032.684.684,0,0,1,.343.386.672.672,0,0,1,.037.23.544.544,0,0,1,.012.054,1.366,1.366,0,0,1-.006.35.642.642,0,0,1-.014.085,1.14,1.14,0,0,1-.077.237.7.7,0,0,1-.13.2,1.479,1.479,0,0,1-.124.113l-.02.013-.074.038q-.039.022-.081.04l-.015,0-.161.033h-.025l-.079-.005a.652.652,0,0,1-.086-.006.85.85,0,0,1-.175-.059.648.648,0,0,1-.153-.1,1.364,1.364,0,0,1-.112-.123.153.153,0,0,1-.017-.022.951.951,0,0,1-.145-.442" transform="translate(-151.829 -41.353)" fill="#231f20"/>
    <path id="Trazado_236727" data-name="Trazado 236727" d="M424.4,98.753s1.1-2.143,2.922-2.533.585,2.533,4.286,4.156,3.637,2.273,4.221,4.676,2.4,4.546,4.156,3.572,3.507-4.092,3.637-6.883-6.949-12.534-13.508-10.91a7.222,7.222,0,0,0-5.715,7.923" transform="translate(-152.937 -32.669)" fill="#b2272d"/>
    <path id="Trazado_236728" data-name="Trazado 236728" d="M438.755,113.053a.476.476,0,0,0-.634-.166,15.609,15.609,0,0,1-2.954.9.468.468,0,0,0-.324.57.473.473,0,0,0,.57.324,16.616,16.616,0,0,0,3.175-.992.466.466,0,0,0,.166-.634" transform="translate(-156.71 -40.665)" fill="#b2272d"/>
    <path id="Trazado_236729" data-name="Trazado 236729" d="M423.113,111.082l-.843-1.238a.494.494,0,0,0-.277-.213.473.473,0,0,0-.357.047.468.468,0,0,0-.212.277.46.46,0,0,0,.046.357l.843,1.238a.5.5,0,0,0,.277.213.473.473,0,0,0,.357-.047.467.467,0,0,0,.213-.277.46.46,0,0,0-.047-.357" transform="translate(-151.873 -39.505)" fill="#b2272d"/>
    <path id="Trazado_236730" data-name="Trazado 236730" d="M423.637,128.471s2.484-.153,3.478,1.643-1.911,2.026-2.79,1.6-.688-3.248-.688-3.248" transform="translate(-152.67 -46.299)" fill="#fff"/>
    <path id="Trazado_236731" data-name="Trazado 236731" d="M409.923,173.641s.253,20.292-.262,26.51c-.265,3.193-27.943,21.064-28.484,21.292-1.176.494,4.388,10.272,6.488,13.159a.818.818,0,0,0,.887.293c4.413-1.173,21.312-8.628,32.92-13.746,12.81-5.648-11.549-47.508-11.549-47.508" transform="translate(-137.315 -62.579)" fill="#e6a758"/>
    <path id="Trazado_236732" data-name="Trazado 236732" d="M390.362,260.613s1.149,4.37-.156,5.1-4.646-2.975-5.272-4.437,4.384-3.052,5.428-.665" transform="translate(-138.708 -93.482)"/>
    <path id="Trazado_236733" data-name="Trazado 236733" d="M372.524,248.865l-2.913.985s-5.379.263-7.879.44-3.664,1.373-3.653,2.128.28,3.16.34,4.056,1.565.5,2.128.207c0,0,.5,1.693,1.107,1.543s.966,1.592,1.868,1.91,1.174-.441,1.558.026.871,1.5,1.909,1.485,1.667,1.063,3.121.335,2.34-1.4,4.695-2.73c1.2-.679,4.855-2.036,5.9-2.544.09-.285-2.874-10.037-8.179-7.839" transform="translate(-129.049 -89.573)" fill="#e99880"/>
    <path id="Trazado_236734" data-name="Trazado 236734" d="M368.291,255.122a2.022,2.022,0,0,0-1.1.034,8.691,8.691,0,0,1-1.248.047c-.821.057-2.6-.019-2.672-.026a.335.335,0,0,0-.362.249c-.07.258-.1.528-.166.789s-.129.5-.205.752-.15.472-.242.7a.913.913,0,0,1-.4.532.317.317,0,0,0-.112.43.321.321,0,0,0,.429.112c.548-.262.734-.963.913-1.492a1.9,1.9,0,0,1,.305-.448,1.757,1.757,0,0,1,1.447-.657.9.9,0,0,1,.608.172c.169.136.255.341.461.437a1.273,1.273,0,0,0,.61.043.971.971,0,0,1,.608.2c.365.282.387.807.63,1.175.275.418.868.629.923,1.162a2.524,2.524,0,0,0,.242,1.273.947.947,0,0,0,.447.358c.09.036.241.051.309.129a1.056,1.056,0,0,1,.1.4,5.194,5.194,0,0,1-.1,1.488c-.054.365.271.629.44.228a3.435,3.435,0,0,0,.425-1.605c-.052-.523-.162-1.081-.711-1.283-.335-.124-.377-.3-.382-.65a2.8,2.8,0,0,0-.073-.793c-.2-.627-.883-.846-1.117-1.449a2.058,2.058,0,0,0-.9-1.21,1.735,1.735,0,0,0-.7-.206,2.607,2.607,0,0,1-.37.013.323.323,0,0,1-.15-.1,7.943,7.943,0,0,0,.886-.165c.183-.044.367-.088.552-.122a3.286,3.286,0,0,0,.549-.087c.335-.119.439-.324.11-.437" transform="translate(-130.373 -91.922)" fill="#d38060"/>
    <path id="Trazado_236735" data-name="Trazado 236735" d="M406.1,264.285s9.552,0,15.6,1.968a2.272,2.272,0,0,0,2.906-1.572l8.789-33.2-1.183,32.668a2.992,2.992,0,0,0,3.38,3.077c4.43-.582,12.176-1.532,18.014-1.886,8.662-.525,18.111,2.624,18.111,2.624a274.076,274.076,0,0,0-1.312-29.4c-1.575-15.223-6.825-37.271-7.874-43.308s3.149-49.607,2.887-50.395a6.524,6.524,0,0,0-4.987-4.462C456.76,139.61,446,138.561,446,138.561l-3.937-4.725s-7.611,7.35-8.136,9.187a33.753,33.753,0,0,0-.787,4.987l-2.252-5.032-2.681-4.1-.58,3.884s-7.6,4.056-9.435,5.894,1.3,36.889,1.561,41.613S406.1,264.285,406.1,264.285" transform="translate(-146.357 -48.234)" fill="#e6a758"/>
    <path id="Trazado_236736" data-name="Trazado 236736" d="M490.678,238.539c.882.871,1.746,1.763,2.694,2.563.291.246.588.484.883.723-.759-3.623-1.422-6.717-1.859-8.915-1.526,1.022-2.885,2.291-4.461,3.237a24.038,24.038,0,0,1,2.742,2.391" transform="translate(-175.849 -83.939)" fill="#c78b43"/>
    <path id="Trazado_236737" data-name="Trazado 236737" d="M428.557,196.028a36.065,36.065,0,0,1,1.176-7.751,24.588,24.588,0,0,0,.73-8.646c-.083-.588-.975-.338-.893.247.725,5.157-1.663,10.112-1.917,15.215a15.826,15.826,0,0,0,.274,3.841c.259,1.32.661,2.6.984,3.909a15.78,15.78,0,0,1,.507,4.1,35.941,35.941,0,0,1-.416,4.278l-1.339,9.758a.48.48,0,0,0,.323.57.466.466,0,0,0,.57-.324l1.215-8.844c.386-2.817.847-5.64.322-8.472-.491-2.649-1.522-5.151-1.534-7.879" transform="translate(-154.116 -64.617)" fill="#c78b43"/>
    <path id="Trazado_236738" data-name="Trazado 236738" d="M487.12,263.572a6.631,6.631,0,0,1-3.174-1.43,24.306,24.306,0,0,1-2.575-2.178,25.958,25.958,0,0,1-4.176-5.229,26.4,26.4,0,0,1-1.723-3.376.466.466,0,0,0-.633-.166.474.474,0,0,0-.166.634,26.793,26.793,0,0,0,8.646,11,7.655,7.655,0,0,0,3.8,1.675c.593.056.589-.871,0-.927" transform="translate(-171.05 -90.507)" fill="#c78b43"/>
    <path id="Trazado_236739" data-name="Trazado 236739" d="M453.494,148a38.841,38.841,0,0,1,9.3-7.194l-.6-.722A46.731,46.731,0,0,0,456,144.344a30.866,30.866,0,0,0-3.156,3c-.4.44.253,1.1.655.655" transform="translate(-163.155 -50.485)" fill="#c78b43"/>
    <path id="Trazado_236740" data-name="Trazado 236740" d="M442.218,149.524c.434.408,1.091-.246.655-.655q-1.47-1.382-2.984-2.716l-.156,1.046-.038.02c.849.759,1.693,1.525,2.523,2.305" transform="translate(-158.463 -52.673)" fill="#c78b43"/>
    <path id="Trazado_236741" data-name="Trazado 236741" d="M431.522,161.684a46.122,46.122,0,0,0-6.109-5.283c-.164.136-.309.265-.428.384a.424.424,0,0,0-.032.043,45.641,45.641,0,0,1,6.132,5.292c.277.286.714-.151.437-.437" transform="translate(-153.15 -56.366)" fill="#c78b43"/>
    <path id="Trazado_236742" data-name="Trazado 236742" d="M487.954,145.864s11.812,10.236,17.848,16.8,15.158,18.3,14.174,23.36c-1.838,9.449-30.4,15.65-37.785,18.975-1.272.572-11.531-12-8.48-13.53,2.8-1.4,21.067-11.482,22.379-12.269s-20.735-14.437-23.1-19.686c0,0,4.462-19.948,14.961-13.649" transform="translate(-170.464 -52.125)" fill="#e6a758"/>
    <path id="Trazado_236743" data-name="Trazado 236743" d="M493.233,185.367a130.392,130.392,0,0,1-10.49-8.883c-.434-.408-1.091.246-.655.656a132.8,132.8,0,0,0,10.677,9.027c.475.361.936-.444.468-.8" transform="translate(-173.69 -63.557)" fill="#c78b43"/>
    <path id="Trazado_236744" data-name="Trazado 236744" d="M485.713,144.055c-.044-.01-.084-.024-.13-.034-.2-.043-.423-.086-.662-.13a26.788,26.788,0,0,0-6.55,7.494,30.162,30.162,0,0,0-2.469,5.345c-.132.376.464.538.6.164a27.287,27.287,0,0,1,9.216-12.838" transform="translate(-171.505 -51.857)" fill="#c78b43"/>
    <path id="Trazado_236745" data-name="Trazado 236745" d="M483.977,230.455s1.527,3.625.509,4.961-4.9-2.416-5.852-4.579,5.152-.636,5.343-.382" transform="translate(-172.46 -82.781)"/>
    <path id="Trazado_236746" data-name="Trazado 236746" d="M467.361,217.731s-5.41,1.034-6.727,1.123-2.864,1.611-3.763,1.8a1.244,1.244,0,0,0-.961,1.616c.166.628,1.265,1.272,1.265,1.272a11.677,11.677,0,0,0-.15,3.216c.258.676,1.554.717,1.641.6s.227.872,1.112.981,1,.026,1.218.73,1.5,1.043,1.931,1.079.546.755.95,1.155,1.681.972,3.869.655,6.718-4.395,8.059-5.882c0,0-3.993-10.063-8.445-8.34" transform="translate(-164.289 -78.398)" fill="#e99880"/>
    <path id="Trazado_236747" data-name="Trazado 236747" d="M470.3,226.781a1.1,1.1,0,0,1-.312-.656,3.382,3.382,0,0,0-.547-1.364,2.929,2.929,0,0,0-1.089-.892,3.087,3.087,0,0,1-.636-.32,1.7,1.7,0,0,1-.439-.643c-.369-.8-.878-1.862-1.946-1.706-.523.077-.445.895.08.818.441-.065.731.385.9.732a3.956,3.956,0,0,0,.846,1.4c.45.387,1.059.466,1.474.912a3.062,3.062,0,0,1,.614,1.472,1.672,1.672,0,0,0,.349.7c.169.193.391.312.573.486.368.35.285.993.425,1.447.159.514.59.873.747,1.389a2.92,2.92,0,0,1,.09,1.308c-.034.524.487.391.521-.137.061-.939.379-1.28-.148-2.1a4.385,4.385,0,0,1-.389-.6,2.586,2.586,0,0,1-.141-.658,2.025,2.025,0,0,0-.477-1.177c-.151-.156-.333-.268-.5-.411" transform="translate(-167.574 -79.713)" fill="#d38060"/>
    <path id="Trazado_236748" data-name="Trazado 236748" d="M464.725,228.2a4.816,4.816,0,0,0-1.484.157,6.439,6.439,0,0,0-1.46.677,3.355,3.355,0,0,1-1.383.459c-.221.019-.925.047-1.053-.333a.813.813,0,0,1-.028-.367c.226-.209.378-.361.574-.554a26.246,26.246,0,0,0,2.4-2.625c.323-.417-.317-.934-.642-.514a25.15,25.15,0,0,1-2.246,2.473q-.307.3-.617.6a2.24,2.24,0,0,1-.533.433.6.6,0,0,1-.8-.432,2.563,2.563,0,0,1,.023-1.3,10.558,10.558,0,0,1,.38-1.476,11.168,11.168,0,0,1,1.3-2.651c.292-.436-.346-.954-.642-.514a12.757,12.757,0,0,0-1.283,2.427l-.017,0a1.39,1.39,0,0,1-1.041-.908c-.146-.3-.15-.453-.373-.421s-.212.188-.184.415a1.844,1.844,0,0,0,1.344,1.7,9.272,9.272,0,0,0-.388,1.895,1.864,1.864,0,0,0,1.062,2.1,1.229,1.229,0,0,0,.906-.063c.138.79,1.035.984,1.85.937a1.534,1.534,0,0,0,.776,1.438,5.526,5.526,0,0,0,1.948.58,1.806,1.806,0,0,0,.914,1.37,3.762,3.762,0,0,0,2.234.284c.529-.043.508-.563-.019-.521a3.883,3.883,0,0,1-1.668-.4.927.927,0,0,1-.626-1,.417.417,0,0,0-.341-.471,10.639,10.639,0,0,1-1.676-.375c-.377-.141-.921-.485-.672-.956a.457.457,0,0,0,.038-.1,15.794,15.794,0,0,0,1.632-.808,3.694,3.694,0,0,1,1.653-.324.425.425,0,0,0,.471-.341.415.415,0,0,0-.341-.471" transform="translate(-164.201 -80.033)" fill="#d38060"/>
    <path id="Trazado_236749" data-name="Trazado 236749" d="M503.828,191.684a59.343,59.343,0,0,1-9.981,5.739l-11.192,5.507-6.356,3.128c-.535.264-.067,1.062.467.8l11.33-5.575c3.588-1.765,7.225-3.458,10.746-5.355a41.046,41.046,0,0,0,5.453-3.443c.468-.357.007-1.162-.468-.8" transform="translate(-171.57 -69.049)" fill="#fce6ec"/>
    <path id="Trazado_236750" data-name="Trazado 236750" d="M446.908,203.92q-.347-3.778-.83-7.542c-.317-2.464-.736-4.913-1.039-7.378a25.761,25.761,0,0,1,.118-7.43c.4-2.447.9-4.872,1.227-7.332a84.705,84.705,0,0,0,.529-16.657c-.026-.395-.644-.4-.617,0a84.61,84.61,0,0,1-.314,14.865c-.276,2.514-.7,5-1.16,7.486a28.323,28.323,0,0,0-.582,7.251c.18,2.505.65,4.986.992,7.473s.634,4.963.885,7.452q.75,7.474.962,14.989.236,8.42-.209,16.839c-.02.4.6.4.618,0a208.891,208.891,0,0,0-.579-30.015" transform="translate(-160.083 -56.684)" fill="#c78b43"/>
    <path id="Trazado_236751" data-name="Trazado 236751" d="M407.846,128.142q-2.314-.358-4.593-.905c-.427-.1-.608.555-.181.658q2.277.547,4.593.905a.352.352,0,0,0,.419-.239.343.343,0,0,0-.238-.419" transform="translate(-145.177 -45.852)" fill="#fff"/>
    <path id="Trazado_236752" data-name="Trazado 236752" d="M406.949,133.292q-4.269.259-8.528.66c-.433.041-.437.723,0,.682q4.258-.4,8.528-.66c.436-.026.439-.709,0-.682" transform="translate(-143.471 -48.037)" fill="#fff"/>
  </g>
</svg>
