<svg id="Grupo_173276" data-name="Grupo 173276" xmlns="http://www.w3.org/2000/svg" xmlns:xlink="http://www.w3.org/1999/xlink" width="264.181" height="382.296" viewBox="0 0 264.181 382.296">
  <defs>
    <clipPath id="clip-path">
      <rect id="Rectángulo_215923" data-name="Rectángulo 215923" width="264.181" height="382.296" fill="none"/>
    </clipPath>
  </defs>
  <g id="Grupo_173275" data-name="Grupo 173275" clip-path="url(#clip-path)">
    <path id="Trazado_236753" data-name="Trazado 236753" d="M412.972,2930.018c0,18.086-55.05,32.749-122.957,32.749s-122.957-14.663-122.957-32.749,55.05-32.748,122.957-32.748,122.957,14.662,122.957,32.748" transform="translate(-148.79 -2580.471)" fill="#8e1919"/>
    <path id="Trazado_236754" data-name="Trazado 236754" d="M1865.924,412.877l-1.055-27.671L1837.057,399.1l5.358,26.133,26.024-4.374Z" transform="translate(-1636.186 -343.086)"/>
    <path id="Trazado_236755" data-name="Trazado 236755" d="M1541.46,129a18.077,18.077,0,0,0-3.564-7.857,35.266,35.266,0,0,0-6.161-5.641,33.722,33.722,0,0,1-6.237-5.7,25.756,25.756,0,0,1-3.895-7.947c-.465-1.427-.869-2.872-1.272-4.318a.632.632,0,0,0-.023-.062.814.814,0,0,0-.89-1.01A21.888,21.888,0,0,0,1506.2,106.5a36.813,36.813,0,0,0-4.982,17.872,45.425,45.425,0,0,0,3.455,18.879c2.275,5.562,5.362,10.9,6.673,16.808a26.813,26.813,0,0,1,.595,4.344,11.174,11.174,0,0,0,.635,3.838,4.293,4.293,0,0,0,3.01,2.527,8.111,8.111,0,0,0,3.925-.281,55.712,55.712,0,0,0,8.974-3.482,34.332,34.332,0,0,0,7.406-4.356,11.973,11.973,0,0,0,4.259-6.258c.772-3.151-.439-6.257-.814-9.365-.387-3.208.748-6.163,1.594-9.2a19.12,19.12,0,0,0,.528-8.83" transform="translate(-1337.046 -85.899)"/>
    <path id="Trazado_236756" data-name="Trazado 236756" d="M558.5,2057.051q-.758-26.254-2.446-52.469t-4.316-52.349q-1.479-14.725-3.253-29.418a.752.752,0,0,0-.363-.583,1.185,1.185,0,0,0-.206-.271c-2.636-2.649-6.659-2.785-10.156-2.51-4.63.363-9.249,1-13.864,1.5-4.792.528-9.583,1.126-14.391,1.495a77.694,77.694,0,0,1-14.281-.164c-5.312-.568-10.56-1.6-15.8-2.625a.7.7,0,0,0-.832.438.8.8,0,0,0-1.377.446q-2.506,27.058-3.067,54.248-.553,27,.81,53.99.772,15.214,2.158,30.388a.811.811,0,0,0,1.356.5,21.8,21.8,0,0,0,8.392.785.732.732,0,0,0,.622-.423.673.673,0,0,0,.664-.5q5.949-18.263,11.445-36.67,5.462-18.3,10.469-36.732,2.354-8.662,4.6-17.351,5.26,15.662,10.87,31.2,6.817,18.875,14.149,37.56,4.133,10.533,8.431,21a1.957,1.957,0,0,0,1.108.849l7.958-.589a.74.74,0,0,0,.69-.9.844.844,0,0,0,.624-.85" transform="translate(-422.165 -1709.483)" fill="#a5b5bf"/>
    <path id="Trazado_236757" data-name="Trazado 236757" d="M555.567,196.5c-.669-1.848-2.3-3.241-4.343-2.577a7.409,7.409,0,0,0-2.772,2.009c-2.289-15.622-16.643-27.66-34.014-27.66-16.784,0-30.753,11.238-33.741,26.089a11.152,11.152,0,0,0-3.338-1.028,3.164,3.164,0,0,0-2.425.505,3.452,3.452,0,0,0-1.065,2.39c-.423,3.53-.089,8.035,3.617,9.728a5.173,5.173,0,0,0,3.213.3c2.48,12.315,12.509,22.144,25.433,25.141l.6,8.971a4.833,4.833,0,0,1-1.982.994,12.348,12.348,0,0,0-2.5.95c-1.559.893-2.565,2.616-1.665,4.361.881,1.707,2.815,2.9,4.454,3.781a16.836,16.836,0,0,0,17-.611c1.566-.976,3.337-2.3,3.968-4.11a2.984,2.984,0,0,0-.2-2.63,4.349,4.349,0,0,0-2.157-1.486,6.439,6.439,0,0,1-3.572-4.372,13.738,13.738,0,0,1-.232-5.3c13.95-2.056,25.105-11.951,28.124-24.7a5.768,5.768,0,0,0,3.752-.162,7.021,7.021,0,0,0,3.873-4.139,9.74,9.74,0,0,0-.019-6.452" transform="translate(-421.927 -149.871)" fill="#e1e1e1"/>
    <path id="Trazado_236758" data-name="Trazado 236758" d="M1614.146,121.847a4.185,4.185,0,0,0-3.731-2.318,3.166,3.166,0,0,0-.962.187A27.337,27.337,0,1,0,1580.82,150.9a10.476,10.476,0,0,1-3.929,8.575,16.194,16.194,0,0,1-4.951,2.763c-1.719.617-3.616.829-5.229,1.717a5.244,5.244,0,0,0-2.728,4.708,9.309,9.309,0,0,0,2.173,5.5,22.441,22.441,0,0,0,9.024,6.994,27.978,27.978,0,0,0,12.742,2.1,28.561,28.561,0,0,0,12.018-3.27,21.2,21.2,0,0,0,8.318-7.966,16.024,16.024,0,0,0,2-5.336,3.6,3.6,0,0,0-.517-2.777,3.459,3.459,0,0,0-2.164-1.2,20.5,20.5,0,0,0-2.539-.178,13.309,13.309,0,0,1-2.749-.476,13.863,13.863,0,0,1-4.88-2.548,13.45,13.45,0,0,1-4.853-9.991c-.006-.173-.006-.346,0-.519a27.4,27.4,0,0,0,16.1-17.768,4.718,4.718,0,0,0,2.927-.641,7.25,7.25,0,0,0,2.565-8.733" transform="translate(-1385.021 -85.743)" fill="#e1e1e1"/>
    <path id="Trazado_236759" data-name="Trazado 236759" d="M1950.591,2168.489a.839.839,0,0,0-.911-.72,85.979,85.979,0,0,0-19.8,2.539.835.835,0,0,0-1.53.516c.012.115.024.229.035.345a.874.874,0,0,0,.035.456c.005.014.011.026.016.038q1.775,17.2,3.836,34.375,2.108,17.537,4.516,35.034,1.356,9.853,2.808,19.692a.788.788,0,0,0,.8.693.769.769,0,0,0,.677.259l6.778-.6a1.039,1.039,0,0,0,.15-.028.811.811,0,0,0,.132.032.824.824,0,0,0,.926-.7q.244-17.894.489-35.787.243-17.784.485-35.57.136-9.925.271-19.849a.909.909,0,0,0,.281-.724" transform="translate(-1717.497 -1930.737)" fill="#e1e1e1"/>
    <path id="Trazado_236760" data-name="Trazado 236760" d="M1654.905,2181.594a.893.893,0,0,0-.723.017l-11.639.808-6.059.42-3.029.21c-.447.031-.9.08-1.346.09a3.87,3.87,0,0,1-.534-.058c-.082-.008-.094-.042-.092-.062a.84.84,0,0,0-1.12-1.154.822.822,0,0,0-.92.889q1.606,18.2,3.424,36.391t3.85,36.348q1.15,10.27,2.367,20.534a.784.784,0,0,0,.979.68,1.031,1.031,0,0,0,.411.073l7.112-.129a.64.64,0,0,0,.343-.112.72.72,0,0,0,.964-.654q1.133-18.308,2.381-36.607,1.242-18.191,2.6-36.374.745-9.985,1.523-19.97a.874.874,0,0,0-.491-1.341" transform="translate(-1451.272 -1942.989)" fill="#e1e1e1"/>
    <path id="Trazado_236761" data-name="Trazado 236761" d="M2265.757,1686.4c-1.019-2.528-3.1-4.38-4.82-6.42a11.3,11.3,0,0,1-2.272-3.782.84.84,0,0,0-1.065-.461l-5.221,1.351a.683.683,0,0,0-.455.458.733.733,0,0,0-.488.631,32,32,0,0,1-1.161,5.418,48.328,48.328,0,0,1-2.1,5.187,2.367,2.367,0,0,0,.062,2.367,1.884,1.884,0,0,0,2.309.512,4.807,4.807,0,0,0,.867-.452q-.26,1.629-.363,3.277a23.642,23.642,0,0,0-.061,2.364,1.857,1.857,0,0,0,.812,1.62c1.494.841,2.445-1.187,2.974-2.214.245-.475.466-.958.668-1.448.214.868.432,1.735.676,2.594a2.012,2.012,0,0,0,.883,1.286,1.373,1.373,0,0,0,1.679-.3,2.928,2.928,0,0,0,.583-1.72q.148-1.124.248-2.252.046-.523.081-1.046a14.457,14.457,0,0,0,1.31,1.985,3.459,3.459,0,0,0,1.6,1.333,1.538,1.538,0,0,0,1.791-.743c.7-1.223.219-2.965-.273-4.174-.166-.407-.354-.806-.552-1.2a2,2,0,0,0,1.837-.158c1.424-.846.96-2.757.454-4.014" transform="translate(-2002.097 -1492.474)" fill="#e1e1e1"/>
    <path id="Trazado_236762" data-name="Trazado 236762" d="M1705.182,2547.025c-.749-1.132-2.233-.832-3.379-.748l-.526.039q-.064-1.734-.135-3.467a.839.839,0,0,0-.91-.719l-2.948,0a.8.8,0,0,0-.72.8.828.828,0,0,0-.151.52q.055,1.605.109,3.21l-3.364.245a.776.776,0,0,0-.607,1.171.755.755,0,0,0-.141.41,10.879,10.879,0,0,0,.183,2.93.845.845,0,0,0,.91.719l3.2-.208q.065,1.915.131,3.829a.8.8,0,0,0,.5.661c1.211.375,2.657.651,3.627-.4.921-1,.553-2.749.515-3.979,0-.14-.009-.281-.013-.421l3.217-.209a.825.825,0,0,0,.719-.91,7.341,7.341,0,0,1,.153-1.858,2.634,2.634,0,0,0-.366-1.617" transform="translate(-1507.329 -2264.163)" fill="#fff"/>
    <path id="Trazado_236763" data-name="Trazado 236763" d="M1352.753,804.279q-1.428-12.518-3.182-25-1.784-12.7-3.906-25.348c-1.261-7.518-2.558-15.042-4.422-22.44a93.83,93.83,0,0,0-7.587-20.758,49.671,49.671,0,0,0-5.836-9.1c-2.131-2.516-4.921-4.906-8.3-5.382a8.459,8.459,0,0,0-2.5.027.783.783,0,0,0-.661.585.666.666,0,0,0-.444.3c-3.522,5.806-8.454,11.02-14.829,13.64-6.063,2.492-13.582,2.331-19.012-1.611-3.357-2.437-5.591-6.037-7.754-9.5-.43-.687-1.3-.262-1.428.374a.964.964,0,0,0-.185.091c-2.853,1.818-6.339,2.166-9.436,3.4a27.728,27.728,0,0,0-8.421,5.888c-5.574,5.222-11.142,10.431-16.935,15.415q-4.969,4.276-10.077,8.389a.783.783,0,0,0-.227.974.906.906,0,0,0-.432.823,6.814,6.814,0,0,0,.82,3.835,3.644,3.644,0,0,0,3.768,1.414,25.3,25.3,0,0,0,4.6-1.506q2.372-.889,4.714-1.856a154.372,154.372,0,0,0,18.1-8.917q2.86-1.648,5.646-3.42-2.749,24.565-5.293,49.152-2.819,27.266-5.385,54.557-1.453,15.455-2.825,30.919a.791.791,0,0,0,.377.77.816.816,0,0,0,.645.654,183.065,183.065,0,0,0,35.325,4.28,183.736,183.736,0,0,0,55.066-7.024.826.826,0,0,0,.46-1.064.579.579,0,0,1-.032-.688q-4.236-23.878-8.473-47.755-4.215-23.758-8.431-47.515-2-11.263-4-22.526c3.839,7.5,6.109,15.673,8.22,23.8q3.62,13.927,7.2,27.864l4.084,15.807a.6.6,0,0,0,.069.16.723.723,0,0,0,.676.868,22.643,22.643,0,0,0,9.527-1.246.892.892,0,0,0,.524-.211.794.794,0,0,0,.193-1.12" transform="translate(-1092.997 -620.049)" fill="#c37c93"/>
    <path id="Trazado_236764" data-name="Trazado 236764" d="M1171.146,3191.113q-3.8-5.442-8.069-10.529a.873.873,0,0,0-.194-.173.726.726,0,0,0-.793-.407q-4.172.59-8.378.862a.725.725,0,0,0-.7.841.768.768,0,0,0-.255.677q.43,4.391.578,8.8a.762.762,0,0,0,.114.393.72.72,0,0,0,.661.573,91.664,91.664,0,0,0,16.422.346.7.7,0,0,0,.68-.567.773.773,0,0,0-.07-.818" transform="translate(-1026.709 -2832.282)" fill="#fff"/>
    <path id="Trazado_236765" data-name="Trazado 236765" d="M438.954,3188.345q-4.355-.061-8.688-.506a.775.775,0,0,0-.749.337,1.094,1.094,0,0,0-.136.12q-4.46,4.612-9.078,9.066a.854.854,0,0,0-.206,1.084.675.675,0,0,0,.683.7l9.247.46c1.48.074,2.962.172,4.445.213a12.028,12.028,0,0,0,3.776-.38.843.843,0,0,0,1.234-.792q.039-4.555.078-9.108a.805.805,0,0,0,.091-.271.824.824,0,0,0-.7-.926" transform="translate(-374.059 -2839.263)" fill="#fff"/>
    <path id="Trazado_236766" data-name="Trazado 236766" d="M1982.013,3030.5a65.884,65.884,0,0,1-.526-10,1.015,1.015,0,0,0-.159-.59c0-.022.01-.043.013-.066a.826.826,0,0,0-.7-.926l-8.014-.279a.846.846,0,0,0-.926.7.772.772,0,0,0,.019.3q-3.456,5.639-6.913,11.275a.844.844,0,0,0,.15,1.15.787.787,0,0,0,.1.062.824.824,0,0,0,.783.455l15.407-.567a.725.725,0,0,0,.664-.992.763.763,0,0,0,.1-.52" transform="translate(-1749.828 -2688.564)"/>
    <path id="Trazado_236767" data-name="Trazado 236767" d="M1669.658,3046.355a.831.831,0,0,0-.891-.825,55.692,55.692,0,0,1-8.874-.1.808.808,0,0,0-.875.614.728.728,0,0,0-.053.076q-3.13,4.914-6.567,9.621a.809.809,0,0,0,.248,1.187.891.891,0,0,0,.848.482q7.6.067,15.182-.485a.707.707,0,0,0,.62-.4.874.874,0,0,0,.527-.866q-.011-4.458-.023-8.917a.619.619,0,0,0-.142-.388" transform="translate(-1471.57 -2712.425)"/>
    <path id="Trazado_236768" data-name="Trazado 236768" d="M1729.877,303.354a10.614,10.614,0,0,0-6.928-1.107c-1.036.188-.849,1.818.191,1.629a9.2,9.2,0,0,1,6.1.992.827.827,0,0,0,1.073-.44.839.839,0,0,0-.44-1.073" transform="translate(-1533.94 -269.048)"/>
    <path id="Trazado_236769" data-name="Trazado 236769" d="M1583.867,289.538a9.354,9.354,0,0,0-6.474,1.92c-.833.647.152,1.958.987,1.31a7.629,7.629,0,0,1,5.259-1.605c1.049.08,1.283-1.544.228-1.624" transform="translate(-1404.633 -257.853)"/>
    <path id="Trazado_236770" data-name="Trazado 236770" d="M1609.384,334.861a1.251,1.251,0,0,0-1.482,0,1.2,1.2,0,0,0-.451.734,1.244,1.244,0,0,0-.2.793,1.366,1.366,0,0,0,2.155.888,1.534,1.534,0,0,0-.02-2.412" transform="translate(-1431.502 -298.027)"/>
    <path id="Trazado_236771" data-name="Trazado 236771" d="M1728.658,350.369a1.43,1.43,0,0,0-2.02-.223.848.848,0,0,0-.219,1.067,1.06,1.06,0,0,0,.006.174,1.268,1.268,0,0,0,1.724.964,1.321,1.321,0,0,0,.508-1.982" transform="translate(-1537.551 -311.577)"/>
    <path id="Trazado_236772" data-name="Trazado 236772" d="M1608.607,356.617c-.953.5-2.559,1.413-3.489.383-.805-.892,1.016-1.946,1.543-2.46a10.376,10.376,0,0,0,3.131-7.224.849.849,0,0,0-.7-.926.825.825,0,0,0-.926.7,9.026,9.026,0,0,1-1.19,4.424,8.693,8.693,0,0,1-1.383,1.795c-.532.529-1.168.948-1.657,1.523a2.453,2.453,0,0,0,.607,3.79c1.529.936,3.218.275,4.667-.477a.846.846,0,0,0,.461-1.064.826.826,0,0,0-1.064-.461" transform="translate(-1427.987 -308.507)"/>
    <path id="Trazado_236773" data-name="Trazado 236773" d="M1668.7,500.435a11.561,11.561,0,0,0-8.17-.784.826.826,0,0,0-.461,1.065.839.839,0,0,0,1.065.461,9.881,9.881,0,0,1,6.933.772c.944.473,1.575-1.042.633-1.513" transform="translate(-1478.508 -444.655)"/>
    <path id="Trazado_236774" data-name="Trazado 236774" d="M1665.925,61.634a19.358,19.358,0,0,0-18.2-15.969,20.113,20.113,0,0,0-2.692.067.839.839,0,0,0-.315.09c-6.65.137-13.3,2.961-16.692,8.947a14.148,14.148,0,0,0-1.7,9.645,7.85,7.85,0,0,0,2.324,4.433,7.179,7.179,0,0,0,4.811,1.5c1.892.011,3.78-.261,5.668-.349q3.118-.143,6.238,0a76.949,76.949,0,0,1,12.4,1.688c1.856.391,3.825.587,5.512-.457a6.442,6.442,0,0,0,2.706-4.166,14.025,14.025,0,0,0-.061-5.425" transform="translate(-1448.276 -40.656)"/>
    <path id="Trazado_236775" data-name="Trazado 236775" d="M1869.975,115.222c-1.682-3.51-3.3-6.961-3.672-10.888-.4-4.271.357-8.551,1.132-12.737a80.2,80.2,0,0,0,1.651-12.615,45.638,45.638,0,0,0-1.36-12.524,34.859,34.859,0,0,0-11.582-18.487,27.166,27.166,0,0,0-21.127-5.859,23.636,23.636,0,0,0-5.343,1.523.762.762,0,0,0-.489.628.187.187,0,0,0-.012.015.825.825,0,0,0,.15,1.15c6.532,3.978,11.063,10.284,15.29,16.5,4.53,6.663,9.9,14.133,9.187,22.633-.327,3.9-2.085,7.457-3.291,11.133a22.243,22.243,0,0,0-1.2,5.663,17.746,17.746,0,0,0,.611,5.452c.923,3.548,2.646,6.812,3.88,10.251a21.462,21.462,0,0,1,1.247,5.132c.2,2.013-.092,4.027-.057,6.042a8.9,8.9,0,0,0,1.541,5.239,8.039,8.039,0,0,0,3.6,2.651,8.947,8.947,0,0,0,8.819-1.39,11.75,11.75,0,0,0,4.148-8.965c.031-3.752-1.529-7.231-3.117-10.547" transform="translate(-1629.018 -37.225)"/>
    <path id="Trazado_236776" data-name="Trazado 236776" d="M1968.274,231.417a6.182,6.182,0,0,0-1.456-2.508,8.132,8.132,0,0,1-1.759-2.142c-.8-1.872.214-4.034,1.049-5.709,1.1-2.2,2.159-4.474,1.527-6.973a.825.825,0,0,0-1.064-.461.841.841,0,0,0-.461,1.064c.5,1.981-.663,4.028-1.515,5.737a10.094,10.094,0,0,0-1.409,5.649,5.045,5.045,0,0,0,1.145,2.58c.584.7,1.309,1.276,1.826,2.034a5.836,5.836,0,0,1,.36,5.1,18.059,18.059,0,0,1-3.779,5.6c-.692.8.609,1.8,1.3,1,2.625-3.02,5.455-6.713,4.237-10.971" transform="translate(-1747.948 -190.221)"/>
    <path id="Trazado_236777" data-name="Trazado 236777" d="M1692.406,378.276a3,3,0,0,0-3.426.008,7.971,7.971,0,0,1-3.972,1.181c-1.366-.022-2.743-.388-4,.351a3.28,3.28,0,0,0,.787,6.016,5.479,5.479,0,0,0,2.014.457,18.1,18.1,0,0,0,4.136-.3c2.451-.469,4.995-1.928,5.472-4.588a3.348,3.348,0,0,0-1.013-3.125" transform="translate(-1495.732 -336.433)" fill="#a5b5bf"/>
    <path id="Trazado_236778" data-name="Trazado 236778" d="M583.6,33.66a65.472,65.472,0,0,0-5.433-13.146A30.461,30.461,0,0,0,569.689,10.5a19.177,19.177,0,0,0-11.544-3.9,15.736,15.736,0,0,0-6.319,1.453,15.929,15.929,0,0,1,5.806-5.152.845.845,0,0,0,.461-1.065.827.827,0,0,0-1.065-.46A17.95,17.95,0,0,0,549.8,8.18a12.243,12.243,0,0,1,2.424-6.858c.632-.843-.665-1.849-1.3-1a13.958,13.958,0,0,0-2.436,5.289,8.829,8.829,0,0,0-.531-.886,6.532,6.532,0,0,0-4.884-2.954c-1.047-.054-1.285,1.57-.229,1.624,2.64.133,4.023,2.174,4.756,4.467a16.582,16.582,0,0,0-9.127-1.9,26.932,26.932,0,0,0-13.2,4.622c-8.212,5.495-12.958,14.816-13.728,24.551-.459,5.821.238,12.1,3,17.32a.832.832,0,0,0,1.413.2,37.108,37.108,0,0,0,7.215-14.42,16.071,16.071,0,0,0,3.71,6.336.822.822,0,0,0,1.256-.333,27.628,27.628,0,0,1,6.98-12,42.77,42.77,0,0,1,3.744,7.683.828.828,0,0,0,1.413.2,31,31,0,0,0,4.553-7.536l4.007,6.546a.826.826,0,0,0,1.412-.177,77.056,77.056,0,0,0,3.614-10.076,69.965,69.965,0,0,1,5.149,11.747.826.826,0,0,0,1.413.2,20.6,20.6,0,0,0,3.7-8.48,26.985,26.985,0,0,1,2.607,8.871.829.829,0,0,0,1.464.4,42.294,42.294,0,0,0,3.618-6.943A49.185,49.185,0,0,0,582.607,47.99a.793.793,0,0,0,.325.175.911.911,0,0,0,.6.407.84.84,0,0,0,.926-.7c1.249-4.706.5-9.622-.862-14.215" transform="translate(-455.495 0)"/>
    <path id="Trazado_236779" data-name="Trazado 236779" d="M928.549,380.758a16.3,16.3,0,0,0-5.484,1.705.767.767,0,0,0-.429.182l-.169.138a.821.821,0,0,0,.987,1.31,14.347,14.347,0,0,1,5.286-1.706.821.821,0,0,0-.191-1.629" transform="translate(-821.308 -339.118)"/>
    <path id="Trazado_236780" data-name="Trazado 236780" d="M948.495,419.313a1.436,1.436,0,0,0-.254-.591.741.741,0,0,0-.484-.791,1.786,1.786,0,0,0-2.5,1.656,1.645,1.645,0,0,0,2.529,1.322,1.627,1.627,0,0,0,.707-1.595" transform="translate(-841.897 -372.111)"/>
    <path id="Trazado_236781" data-name="Trazado 236781" d="M717.388,386.512a13.446,13.446,0,0,0-5.583-.786c-1.056.074-.859,1.7.191,1.629a11.494,11.494,0,0,1,4.759.67c.988.36,1.628-1.15.633-1.513" transform="translate(-633.349 -343.519)"/>
    <path id="Trazado_236782" data-name="Trazado 236782" d="M724.887,427.157a1.536,1.536,0,0,0-.963-.325,1.324,1.324,0,0,0-.539.04,1.616,1.616,0,1,0,1.5.284" transform="translate(-643.324 -380.151)"/>
    <path id="Trazado_236783" data-name="Trazado 236783" d="M795.036,441.17a.839.839,0,0,0-1.065-.461,8.83,8.83,0,0,1-4.4.187c-.364-.1-.862-.262-.637-.7a10.22,10.22,0,0,1,1.275-1.5,15.043,15.043,0,0,0,3.156-7.583.821.821,0,0,0-1.624-.228,13.645,13.645,0,0,1-1.387,4.584,12.9,12.9,0,0,1-1.279,2.015,23.289,23.289,0,0,0-1.5,1.807,1.964,1.964,0,0,0-.07,2.123,2.794,2.794,0,0,0,1.775,1.1,10.887,10.887,0,0,0,5.293-.269.827.827,0,0,0,.461-1.065" transform="translate(-701.149 -383.154)"/>
    <path id="Trazado_236784" data-name="Trazado 236784" d="M925.992,427.844a2.682,2.682,0,0,0-3.4-.827c-1.275.576-2.122,1.768-3.376,2.391a9.86,9.86,0,0,1-3.779.8,3.564,3.564,0,0,0-3.359,2.106,2.975,2.975,0,0,0,1.5,3.632.616.616,0,0,0,.13.051c1.909,1.348,4.867.518,6.9-.051,2.47-.692,5.009-2.2,5.779-4.81a3.92,3.92,0,0,0-.4-3.3" transform="translate(-812.196 -380.078)" fill="#a5b5bf"/>
    <path id="Trazado_236785" data-name="Trazado 236785" d="M784.255,598.63a11.929,11.929,0,0,0-12.635-.073c-.9.557.1,1.864.987,1.31a10.217,10.217,0,0,1,10.647.063c.882.563,1.893-.731,1-1.3" transform="translate(-686.934 -531.529)"/>
    <path id="Trazado_236786" data-name="Trazado 236786" d="M1330.523,1861.53a2.394,2.394,0,0,0,1.1-1.5c.364-1.633-.819-3-2.047-3.893a25.644,25.644,0,0,0-4.246-2.235,14.652,14.652,0,0,1-2.056-1.129,5.492,5.492,0,0,0-2.083-1.187c-1.021-.171-1.989.482-2.862.914l-2.985,1.476a.857.857,0,0,0-.349.311.7.7,0,0,0-.8.493l-1.649,4.708-.823,2.354a7.431,7.431,0,0,0-.6,2.086,1.524,1.524,0,0,0,.948,1.537,2.415,2.415,0,0,0,1.968-.348,10.553,10.553,0,0,0,1.647-1.1,30.021,30.021,0,0,0,.123,3.106q.121,1.317.361,2.618a8.9,8.9,0,0,0,.6,2.292c.668,1.37,2.517,2.145,3.628.78a4.918,4.918,0,0,0,.779-2.044,21.2,21.2,0,0,0,.425-2.523,22.013,22.013,0,0,0,.125-2.355c.33.723.687,1.434,1.076,2.129a5.313,5.313,0,0,0,1.675,2.227,1.582,1.582,0,0,0,2.219-.581,4.98,4.98,0,0,0,.286-2.456,12.16,12.16,0,0,0-.264-2.068c.3.3.6.589.913.874a2.709,2.709,0,0,0,2.652.889,2.338,2.338,0,0,0,1.462-1.817,4.907,4.907,0,0,0-1.227-3.554" transform="translate(-1167.763 -1649.099)" fill="#e1e1e1"/>
    <path id="Trazado_236787" data-name="Trazado 236787" d="M303.5,715.928l-3.7-29.274c-1.22-9.652-2.33-19.325-3.789-28.944-.727-4.8-1.565-9.581-2.611-14.32a91.966,91.966,0,0,0-3.524-12.547,38.306,38.306,0,0,0-6.033-10.876,33.508,33.508,0,0,0-8.562-7.323c-6.593-4.007-14.095-6.147-21.524-7.993q-1.383-.345-2.767-.676a.766.766,0,0,0-.354-.009.85.85,0,0,0-.994.469,13.01,13.01,0,0,1-7.667,6.053,12.578,12.578,0,0,1-9.772-1.259,12.8,12.8,0,0,1-3.993-3.624.841.841,0,0,0-1.112-.815c-4.63,1.649-9.556-.231-13.583-2.566-2.13-1.233-4.156-2.636-6.261-3.911-2.2-1.334-4.477-2.549-6.748-3.764a66.011,66.011,0,0,1-12.06-7.645,26.615,26.615,0,0,1-4.5-4.87c-1.324-1.879-2.2-4.1-3.818-5.756a5.626,5.626,0,0,0-6.463-1.532,24.185,24.185,0,0,0-2.707,1.664,4.091,4.091,0,0,1-2.532.85.785.785,0,0,0-.745.334.844.844,0,0,0-.415,1.264q7.043,10.34,14.9,20.088t16.477,18.817q2.792,2.937,5.66,5.8-3.825,19.19-6.628,38.566-2.842,19.672-4.618,39.478-1,11.13-1.654,22.285a.855.855,0,0,0,.795.905.812.812,0,0,0,.481.941,162.651,162.651,0,0,0,34.3,5.735,162.716,162.716,0,0,0,53.653-5.746.8.8,0,0,0,.507-.853.905.905,0,0,0,.011-.221q-1.048-13.712-2.1-27.425t-2.1-27.426q-.373-4.857-.742-9.714c2.1,4.767,3.909,9.674,5.537,14.619,2.987,9.072,5.459,18.312,8.052,27.5l4.667,16.544a.68.68,0,0,0,.356.412.866.866,0,0,0,.889.961,10.042,10.042,0,0,0,6.986-3.316.778.778,0,0,0,.8-.888" transform="translate(-148.845 -511.477)" fill="#abc9c7"/>
    <path id="Trazado_236788" data-name="Trazado 236788" d="M60.756,133.846a12.743,12.743,0,0,0-5.362-.506c-3.746.184-7.771.956-11.315-.7-2.894-1.352-4.146-4.273-4.8-7.218a136.589,136.589,0,0,1,5.375-16.967c1.419-3.928,2.8-7.871,3.88-11.909a35.468,35.468,0,0,0,1.282-6.036c.159-1.881-.523-4.115-2.6-4.594-1.889-.436-3.246,1.2-4.064,2.659-1.05,1.881-1.936,3.874-2.812,5.84q-1.374,3.079-2.564,6.237-.587,1.553-1.126,3.123a8.48,8.48,0,0,1-.98,2.324c-.382.519-.935.8-1.4.179-.57-.765-.286-1.963-.206-2.835q.323-3.459.644-6.919.328-3.515.654-7.028c.18-1.942.63-4.42-1.2-5.756a2.481,2.481,0,0,0-2.486-.3,3.508,3.508,0,0,0-1.614,1.8,17.665,17.665,0,0,0-.867,2.741q-.469,1.683-.909,3.375-.863,3.336-1.6,6.7-.361,1.658-.689,3.322a10.953,10.953,0,0,1-.82,2.969,2.926,2.926,0,0,1-.992,1.133q-.543-5.116-1.084-10.232-.3-2.867-.608-5.734-.149-1.407-.3-2.813a11.177,11.177,0,0,0-.377-2.369,2.439,2.439,0,0,0-3.375-1.5c-1.481.654-2.006,2.19-2.168,3.691-.4,3.738-.615,7.509-.918,11.258l-.456,5.641c-.1,1.259-.014,2.871-.747,3.976-.76,1.147-1.778-.01-2.239-.789-.888-1.5-1.578-3.148-2.352-4.708L7.047,96.8c-.63-1.269-1.228-2.763-2.439-3.6a2.763,2.763,0,0,0-3.766.522C-.3,95.057-.077,96.856.33,98.429c1.892,7.3,3.981,14.56,5.971,21.837l.276,1,.22,7.216c.062,2.078.091,4.159.2,6.235a14.728,14.728,0,0,0,1.053,5.259c1.553,3.457,5.075,4.9,8.514,5.824a45.676,45.676,0,0,0,12.154,1.447c8.378-.056,16.584-2.075,24.558-4.491,2.023-.612,4.051-1.227,6.054-1.9,1.685-.568,3.461-1.594,3.763-3.518a3.335,3.335,0,0,0-2.337-3.495" transform="translate(0 -73.573)" fill="#e1e1e1"/>
    <path id="Trazado_236789" data-name="Trazado 236789" d="M1097.83,903.42a8.049,8.049,0,0,0-5.157-4.893.772.772,0,0,0-.467-.224,11.309,11.309,0,0,0-8.918,2.642,10.771,10.771,0,0,0-2.7,3.489,1.27,1.27,0,0,0,.732,1.886,1.463,1.463,0,0,0,.627.009,3.261,3.261,0,0,0-.2.815,1.4,1.4,0,0,0,1.856,1.513,4.629,4.629,0,0,0,1.3-.859c.057-.046.115-.091.172-.136l-.037.122a4.615,4.615,0,0,0-.285,1.537,1.192,1.192,0,0,0,.8,1.088,1.343,1.343,0,0,0,1.377-.465c.256-.265.506-.529.76-.791a1.743,1.743,0,0,0,.3.934,1.68,1.68,0,0,0,2.539.213,15.083,15.083,0,0,0,3.481-3.575,6.36,6.36,0,0,1,.905,3.407.823.823,0,0,0,.91.719c1.471-.248,2.035-1.753,2.315-3.046a8.158,8.158,0,0,0-.3-4.386m-8.511,5.724c.189-.058-.029.143,0,0" transform="translate(-962.292 -799.99)" fill="#e1e1e1"/>
  </g>
</svg>
