<svg xmlns="http://www.w3.org/2000/svg" xmlns:xlink="http://www.w3.org/1999/xlink" width="614.639" height="614.639" viewBox="0 0 614.639 614.639">
  <defs>
    <clipPath id="clip-path">
      <rect id="Rectángulo_219030" data-name="Rectángulo 219030" width="614.639" height="614.639" transform="translate(40.627 40.672)" fill="none"/>
    </clipPath>
    <clipPath id="clip-path-3">
      <path id="Trazado_250624" data-name="Trazado 250624" d="M317.55,200.088a151.048,151.048,0,0,1,30.4-3.075q4.782,0,9.49.3l36.236-73.347Z" fill="none"/>
    </clipPath>
    <linearGradient id="linear-gradient" x1="-2.803" y1="5.459" x2="-2.794" y2="5.459" gradientUnits="objectBoundingBox">
      <stop offset="0" stop-color="#a12828"/>
      <stop offset="0.014" stop-color="#b03723"/>
      <stop offset="0.044" stop-color="#cc531a"/>
      <stop offset="0.07" stop-color="#dd6415"/>
      <stop offset="0.09" stop-color="#e36a14"/>
      <stop offset="0.128" stop-color="#e87710"/>
      <stop offset="0.205" stop-color="#f08d0a"/>
      <stop offset="0.296" stop-color="#f79e05"/>
      <stop offset="0.408" stop-color="#fbaa02"/>
      <stop offset="0.566" stop-color="#feb100"/>
      <stop offset="1" stop-color="#ffb300"/>
    </linearGradient>
    <clipPath id="clip-path-4">
      <path id="Trazado_250625" data-name="Trazado 250625" d="M347.946,40.672a312.658,312.658,0,0,0-35.529,2.039l81.255,81.256-45.225-83.3Z" fill="none"/>
    </clipPath>
    <linearGradient id="linear-gradient-2" x1="-2.534" y1="5.773" x2="-2.526" y2="5.773" xlink:href="#linear-gradient"/>
    <clipPath id="clip-path-5">
      <path id="Trazado_250626" data-name="Trazado 250626" d="M347.943,498.966l0,0q-4.782,0-9.49-.3l-36.235,73.347h0l76.119-76.125h0a151.1,151.1,0,0,1-30.4,3.074" fill="none"/>
    </clipPath>
    <linearGradient id="linear-gradient-3" x1="-2.661" y1="2.005" x2="-2.652" y2="2.005" gradientUnits="objectBoundingBox">
      <stop offset="0" stop-color="#372345"/>
      <stop offset="0.058" stop-color="#552357"/>
      <stop offset="0.126" stop-color="#6f2367"/>
      <stop offset="0.204" stop-color="#852374"/>
      <stop offset="0.294" stop-color="#96237e"/>
      <stop offset="0.406" stop-color="#a22385"/>
      <stop offset="0.564" stop-color="#a92389"/>
      <stop offset="1" stop-color="#ab248b"/>
    </linearGradient>
    <clipPath id="clip-path-6">
      <path id="Trazado_250627" data-name="Trazado 250627" d="M302.222,572.018l45.224,83.29h.5a312.225,312.225,0,0,0,35.53-2.039Z" fill="none"/>
    </clipPath>
    <linearGradient id="linear-gradient-4" x1="-2.447" y1="1.207" x2="-2.438" y2="1.207" xlink:href="#linear-gradient-3"/>
    <clipPath id="clip-path-7">
      <path id="Trazado_250628" data-name="Trazado 250628" d="M123.923,302.265l76.12,76.123a151.128,151.128,0,0,1-3.075-30.4q0-4.782.3-9.489l-73.344-36.235Z" fill="none"/>
    </clipPath>
    <linearGradient id="linear-gradient-5" x1="-1.005" y1="3.803" x2="-0.995" y2="3.803" gradientUnits="objectBoundingBox">
      <stop offset="0" stop-color="#540c16"/>
      <stop offset="0.004" stop-color="#540c16"/>
      <stop offset="0.022" stop-color="#631318"/>
      <stop offset="0.071" stop-color="#87241f"/>
      <stop offset="0.125" stop-color="#a83425"/>
      <stop offset="0.186" stop-color="#c3412a"/>
      <stop offset="0.254" stop-color="#d94c2e"/>
      <stop offset="0.333" stop-color="#ea5432"/>
      <stop offset="0.432" stop-color="#f65934"/>
      <stop offset="0.569" stop-color="#fd5d35"/>
      <stop offset="0.95" stop-color="#ff5e36"/>
      <stop offset="1" stop-color="#ff5e36"/>
    </linearGradient>
    <clipPath id="clip-path-8">
      <path id="Trazado_250629" data-name="Trazado 250629" d="M40.627,347.491v.5a312.427,312.427,0,0,0,2.039,35.529l81.255-81.254Z" fill="none"/>
    </clipPath>
    <clipPath id="clip-path-9">
      <path id="Trazado_250630" data-name="Trazado 250630" d="M495.775,317.6a151.123,151.123,0,0,1,3.074,30.4v0q0,4.782-.3,9.49L571.9,393.717,495.776,317.6Z" fill="none"/>
    </clipPath>
    <linearGradient id="linear-gradient-6" x1="-4.459" y1="3.661" x2="-4.45" y2="3.661" gradientUnits="objectBoundingBox">
      <stop offset="0" stop-color="#1e4952"/>
      <stop offset="0.008" stop-color="#1c4d54"/>
      <stop offset="0.068" stop-color="#156d61"/>
      <stop offset="0.137" stop-color="#0e886c"/>
      <stop offset="0.214" stop-color="#099e76"/>
      <stop offset="0.304" stop-color="#05af7d"/>
      <stop offset="0.415" stop-color="#02bb82"/>
      <stop offset="0.571" stop-color="#00c285"/>
      <stop offset="1" stop-color="#00c486"/>
    </linearGradient>
    <clipPath id="clip-path-10">
      <path id="Trazado_250631" data-name="Trazado 250631" d="M571.9,393.717l83.292-45.224v-.5a312.481,312.481,0,0,0-2.039-35.531Z" fill="none"/>
    </clipPath>
    <linearGradient id="linear-gradient-7" x1="-4.773" y1="3.447" x2="-4.765" y2="3.447" xlink:href="#linear-gradient-6"/>
    <clipPath id="clip-path-12">
      <rect id="Rectángulo_219025" data-name="Rectángulo 219025" width="292.574" height="292.662" transform="translate(201.504 202.403)" fill="none"/>
    </clipPath>
    <clipPath id="clip-path-13">
      <rect id="Rectángulo_219024" data-name="Rectángulo 219024" width="292.574" height="292.574" transform="translate(201.504 202.403)" fill="none"/>
    </clipPath>
    <clipPath id="clip-path-14">
      <path id="Trazado_250633" data-name="Trazado 250633" d="M237.92,238.258a155.618,155.618,0,1,0,110.039-45.581A155.621,155.621,0,0,0,237.92,238.258" fill="none"/>
    </clipPath>
    <linearGradient id="linear-gradient-8" x1="-0.237" y1="1.22" x2="-0.234" y2="1.22" gradientUnits="objectBoundingBox">
      <stop offset="0" stop-color="#fff"/>
      <stop offset="0.316" stop-color="#f4f4f4"/>
      <stop offset="0.865" stop-color="#d8d8d8"/>
      <stop offset="1" stop-color="#d0d0d0"/>
    </linearGradient>
    <clipPath id="clip-path-15">
      <path id="Trazado_250634" data-name="Trazado 250634" d="M347.957,201.015A147.281,147.281,0,1,0,452.1,244.152a147.272,147.272,0,0,0-104.145-43.137h0" fill="none"/>
    </clipPath>
    <linearGradient id="linear-gradient-9" x1="-0.278" y1="1.261" x2="-0.276" y2="1.261" gradientUnits="objectBoundingBox">
      <stop offset="0" stop-color="#e5e5e5"/>
      <stop offset="0.207" stop-color="#eee"/>
      <stop offset="0.61" stop-color="#fafafa"/>
      <stop offset="1" stop-color="#fff"/>
    </linearGradient>
    <clipPath id="clip-path-16">
      <rect id="Rectángulo_219029" data-name="Rectángulo 219029" width="695.817" height="695.939" fill="none"/>
    </clipPath>
  </defs>
  <g id="Grupo_176847" data-name="Grupo 176847" transform="translate(-40.627 -40.672)">
    <g id="Grupo_176911" data-name="Grupo 176911" clip-path="url(#clip-path)">
      <g id="Grupo_176881" data-name="Grupo 176881">
        <g id="Grupo_176880" data-name="Grupo 176880" clip-path="url(#clip-path)">
          <path id="Trazado_250620" data-name="Trazado 250620" d="M347.945,40.672a312.454,312.454,0,0,0-35.529,2.039l81.255,81.255-76.116,76.121a151.126,151.126,0,0,1,30.4-3.074c72.841,0,133.8,51.852,147.9,120.583l76.121,76.12,81.255-81.255C635.177,157.524,503.93,40.678,347.945,40.672" fill="#ffb300"/>
          <path id="Trazado_250621" data-name="Trazado 250621" d="M495.851,317.6a151.128,151.128,0,0,1,3.074,30.4c0,72.841-51.851,133.8-120.583,147.9l-76.121,76.121,81.255,81.255C538.41,635.221,655.255,503.979,655.266,348a312.463,312.463,0,0,0-2.039-35.53l-81.254,81.251Z" fill="#00c486"/>
          <path id="Trazado_250622" data-name="Trazado 250622" d="M378.342,495.895a151.126,151.126,0,0,1-30.4,3.074c-72.841,0-133.8-51.851-147.9-120.582l-76.121-76.121L42.666,383.521c18.053,154.935,149.3,271.781,305.28,271.79a312.464,312.464,0,0,0,35.53-2.039l-81.255-81.255Z" fill="#ab248b"/>
          <path id="Trazado_250623" data-name="Trazado 250623" d="M200.043,378.387a151.128,151.128,0,0,1-3.074-30.4c0-72.841,51.851-133.8,120.583-147.9l76.12-76.12L312.417,42.711C157.482,60.764,40.636,192.008,40.627,347.992a312.454,312.454,0,0,0,2.039,35.529l81.255-81.255Z" fill="#ff5e36"/>
        </g>
      </g>
      <g id="Grupo_176883" data-name="Grupo 176883">
        <g id="Grupo_176882" data-name="Grupo 176882" clip-path="url(#clip-path-3)">
          <rect id="Rectángulo_219016" data-name="Rectángulo 219016" width="107.654" height="107.654" transform="translate(279.491 162.404) rotate(-45.283)" fill="url(#linear-gradient)"/>
        </g>
      </g>
      <g id="Grupo_176885" data-name="Grupo 176885">
        <g id="Grupo_176884" data-name="Grupo 176884" clip-path="url(#clip-path-4)">
          <rect id="Rectángulo_219017" data-name="Rectángulo 219017" width="116.355" height="116.353" transform="translate(270.77 82.378) rotate(-45.04)" fill="url(#linear-gradient-2)"/>
        </g>
      </g>
      <g id="Grupo_176887" data-name="Grupo 176887">
        <g id="Grupo_176886" data-name="Grupo 176886" clip-path="url(#clip-path-5)">
          <rect id="Rectángulo_219018" data-name="Rectángulo 219018" width="107.652" height="107.652" transform="matrix(0.704, -0.711, 0.711, 0.704, 264.161, 534.334)" fill="url(#linear-gradient-3)"/>
        </g>
      </g>
      <g id="Grupo_176889" data-name="Grupo 176889">
        <g id="Grupo_176888" data-name="Grupo 176888" clip-path="url(#clip-path-6)">
          <rect id="Rectángulo_219019" data-name="Rectángulo 219019" width="116.351" height="116.349" transform="translate(260.577 613.721) rotate(-45.04)" fill="url(#linear-gradient-4)"/>
        </g>
      </g>
      <g id="Grupo_176891" data-name="Grupo 176891">
        <g id="Grupo_176890" data-name="Grupo 176890" clip-path="url(#clip-path-7)">
          <rect id="Rectángulo_219020" data-name="Rectángulo 219020" width="107.651" height="107.651" transform="translate(85.863 340.705) rotate(-45.285)" fill="url(#linear-gradient-5)"/>
        </g>
      </g>
      <g id="Grupo_176893" data-name="Grupo 176893">
        <g id="Grupo_176892" data-name="Grupo 176892" clip-path="url(#clip-path-8)">
          <rect id="Rectángulo_219021" data-name="Rectángulo 219021" width="116.416" height="116.418" transform="translate(0 342.951) rotate(-45.04)" fill="#ff5e36"/>
        </g>
      </g>
      <g id="Grupo_176895" data-name="Grupo 176895">
        <g id="Grupo_176894" data-name="Grupo 176894" clip-path="url(#clip-path-9)">
          <rect id="Rectángulo_219022" data-name="Rectángulo 219022" width="107.65" height="107.65" transform="translate(457.716 356.033) rotate(-45.283)" fill="url(#linear-gradient-6)"/>
        </g>
      </g>
      <g id="Grupo_176897" data-name="Grupo 176897">
        <g id="Grupo_176896" data-name="Grupo 176896" clip-path="url(#clip-path-10)">
          <rect id="Rectángulo_219023" data-name="Rectángulo 219023" width="116.351" height="116.353" transform="translate(531.268 353.147) rotate(-45.04)" fill="url(#linear-gradient-7)"/>
        </g>
      </g>
      <g id="Grupo_176904" data-name="Grupo 176904">
        <g id="Grupo_176903" data-name="Grupo 176903" clip-path="url(#clip-path)">
          <g id="Grupo_176902" data-name="Grupo 176902" opacity="0.51">
            <g id="Grupo_176901" data-name="Grupo 176901">
              <g id="Grupo_176900" data-name="Grupo 176900" clip-path="url(#clip-path-12)">
                <g id="Grupo_176899" data-name="Grupo 176899">
                  <g id="Grupo_176898" data-name="Grupo 176898" clip-path="url(#clip-path-13)">
                    <path id="Trazado_250632" data-name="Trazado 250632" d="M494.078,348.69a146.38,146.38,0,0,1-4.65,36.7.057.057,0,0,0-.007.034c-.576,2.249-1.208,4.469-1.895,6.677A146.3,146.3,0,0,1,201.5,348.69c0-.687.007-1.374.014-2.054a146.084,146.084,0,0,1,59.95-116.055q2.375-1.738,4.817-3.38a.027.027,0,0,0,.014-.007q3.268-2.206,6.656-4.219h.007a146.534,146.534,0,0,1,131.108-9.35c.007,0,.007,0,.014.007.131.048.256.1.381.152a.439.439,0,0,0,.084.035c.125.055.243.1.361.152l.021.014A146.773,146.773,0,0,1,470.74,269.4c.007.007.014.014.014.02v.007c.194.291.382.583.569.875v.007c1.326,2.082,2.6,4.192,3.81,6.35.048.083.1.166.166.263a3.331,3.331,0,0,1,.166.312v.007c1.825,3.255,3.533,6.566,5.094,9.967l.021.041c.34.729.673,1.458.992,2.193a.025.025,0,0,1,.007.02c.055.111.1.216.153.327a143.814,143.814,0,0,1,7.509,21.494c.007.007.007.007.007.014a146.326,146.326,0,0,1,4.823,37.387" fill="#572c45"/>
                  </g>
                </g>
              </g>
            </g>
          </g>
        </g>
      </g>
      <g id="Grupo_176906" data-name="Grupo 176906">
        <g id="Grupo_176905" data-name="Grupo 176905" clip-path="url(#clip-path-14)">
          <rect id="Rectángulo_219027" data-name="Rectángulo 219027" width="472.39" height="472.39" transform="translate(13.93 355.894) rotate(-45)" fill="url(#linear-gradient-8)"/>
        </g>
      </g>
      <g id="Grupo_176908" data-name="Grupo 176908">
        <g id="Grupo_176907" data-name="Grupo 176907" clip-path="url(#clip-path-15)">
          <rect id="Rectángulo_219028" data-name="Rectángulo 219028" width="447.08" height="447.08" transform="translate(31.824 355.486) rotate(-45)" fill="url(#linear-gradient-9)"/>
        </g>
      </g>
      <g id="Grupo_176910" data-name="Grupo 176910">
        <g id="Grupo_176909" data-name="Grupo 176909" clip-path="url(#clip-path-16)">
          <path id="Trazado_250635" data-name="Trazado 250635" d="M419.826,91.22c-2.045-1.415-3.07-2.118-5.128-3.515-1.254.928-1.88,1.393-3.13,2.325-1.324-.894-1.988-1.34-3.318-2.227,5.928-4.25,8.916-6.352,14.94-10.507,1.328.9,1.991,1.359,3.313,2.271-1.712,7.111-2.6,10.652-4.435,17.706-1.306-.919-1.96-1.377-3.272-2.289.415-1.5.621-2.257,1.03-3.764m-2.834-5.2c1.439.979,2.157,1.471,3.589,2.46.665-2.463.994-3.7,1.645-6.165l-.066-.046c-2.073,1.5-3.106,2.245-5.168,3.751" fill="#fff"/>
          <path id="Trazado_250636" data-name="Trazado 250636" d="M431.364,101.621a4.586,4.586,0,0,1-2.269.294,4.84,4.84,0,0,1-2.222-.922,4.579,4.579,0,0,1-2.061-3.142,6.041,6.041,0,0,1,1.4-4.176l4.242-6c1.268.9,1.9,1.346,3.163,2.25L429.33,95.92a3.739,3.739,0,0,0-.915,2.148,1.919,1.919,0,0,0,.916,1.416,4.264,4.264,0,0,0,1.432.709,2.636,2.636,0,0,0,1.329,0l5.422-7.461c1.26.915,1.888,1.375,3.142,2.3l-7.513,10.214c-1.02-.75-1.53-1.124-2.554-1.869l.775-1.755" fill="#fff"/>
          <path id="Trazado_250637" data-name="Trazado 250637" d="M445.908,98.934c-.351.574-.527.862-.879,1.436a4.625,4.625,0,0,1,2.237-.084,5.516,5.516,0,0,1,2.227,1.064,4.822,4.822,0,0,1,1.557,1.867,3.428,3.428,0,0,1,.189,2.2,4.657,4.657,0,0,1,2.342-.206,5.166,5.166,0,0,1,2.329,1.082,4.328,4.328,0,0,1,1.823,3.119,5.8,5.8,0,0,1-1.555,3.947l-4.667,5.9c-1.2-.946-1.8-1.417-3-2.357l4.64-5.937a3.229,3.229,0,0,0,.889-2,2,2,0,0,0-.878-1.441,2.987,2.987,0,0,0-1.325-.619,2.487,2.487,0,0,0-1.308.123c-.091.118-.165.221-.222.31s-.12.176-.186.263l-5.088,6.6c-1.2-.929-1.808-1.392-3.018-2.313l4.567-5.994a3.238,3.238,0,0,0,.852-1.995,1.983,1.983,0,0,0-.9-1.452,3.317,3.317,0,0,0-1.255-.617,2.553,2.553,0,0,0-1.226.008l-5.554,7.392c-1.217-.914-1.826-1.369-3.048-2.276l7.557-10.181c1.16.861,1.739,1.293,2.894,2.16" fill="#fff"/>
          <path id="Trazado_250638" data-name="Trazado 250638" d="M458.413,125.11a6.824,6.824,0,0,1-2.75-4.457,6.02,6.02,0,0,1,1.4-4.616l.292-.367a6.417,6.417,0,0,1,4.276-2.554,6.328,6.328,0,0,1,4.888,1.626,5.949,5.949,0,0,1,2.45,4.027,5.71,5.71,0,0,1-1.494,4.23l-1.128,1.363c-2.615-2.165-3.929-3.239-6.573-5.371l-.074.03a3.235,3.235,0,0,0-.636,2.2,3.17,3.17,0,0,0,1.318,2.11,8.826,8.826,0,0,0,1.837,1.2,9.623,9.623,0,0,0,1.887.626c-.217.915-.326,1.372-.546,2.286a7.493,7.493,0,0,1-2.437-.658,11.467,11.467,0,0,1-2.713-1.673m6.446-8.322a2.266,2.266,0,0,0-1.841-.58,3.31,3.31,0,0,0-1.774.986c-.006.025-.009.037-.016.062,1.464,1.18,2.194,1.773,3.649,2.964l.163-.2a2.712,2.712,0,0,0,.71-1.683,2.02,2.02,0,0,0-.891-1.55" fill="#fff"/>
          <path id="Trazado_250639" data-name="Trazado 250639" d="M475.474,122.455l-1.038,1.5a4.989,4.989,0,0,1,2.324-.015,5.052,5.052,0,0,1,2.142,1.114,4.543,4.543,0,0,1,1.777,3.154,5.375,5.375,0,0,1-1.634,3.753l-5.084,5.875c-1.156-1-1.735-1.5-2.9-2.493l5.042-5.9a2.776,2.776,0,0,0,.846-1.813,2.1,2.1,0,0,0-.856-1.476,3.735,3.735,0,0,0-1.343-.762,2.892,2.892,0,0,0-1.334-.092L467.5,132.32c-1.165-.982-1.749-1.472-2.92-2.447l8.117-9.741c1.112.926,1.667,1.391,2.773,2.323" fill="#fff"/>
          <path id="Trazado_250640" data-name="Trazado 250640" d="M490,130.9l-2.058,2.325c.728.645,1.092.968,1.818,1.616-.64.717-.96,1.075-1.6,1.793-.724-.645-1.086-.967-1.812-1.61l-4.28,4.835a1.373,1.373,0,0,0-.439,1.02,1.3,1.3,0,0,0,.47.84,4.112,4.112,0,0,0,.411.326,4.817,4.817,0,0,0,.447.265c-.564.822-.846,1.233-1.411,2.054a8.393,8.393,0,0,1-1.008-.544,7.4,7.4,0,0,1-.941-.718,4.361,4.361,0,0,1-1.631-2.735,4,4,0,0,1,1.229-3.021l4.26-4.868c-.63-.551-.945-.827-1.577-1.376l1.577-1.813c.633.552.95.828,1.582,1.381l2.045-2.337c1.17,1.023,1.753,1.537,2.917,2.567" fill="#fff"/>
          <path id="Trazado_250641" data-name="Trazado 250641" d="M486.94,140.664a6.306,6.306,0,0,1,4.434-2.263,6.61,6.61,0,0,1,4.892,2,6.678,6.678,0,0,1,2.446,4.709,6.276,6.276,0,0,1-1.855,4.629c-.068.072-.1.108-.168.18a6.384,6.384,0,0,1-4.474,2.2,7.633,7.633,0,0,1-7.232-6.615,6.386,6.386,0,0,1,1.793-4.653c.066-.073.1-.109.164-.183m2.681,2.748a5.054,5.054,0,0,0-1.366,2.52,2.435,2.435,0,0,0,.918,2.257,2.407,2.407,0,0,0,2.31.688,5.013,5.013,0,0,0,2.389-1.575c.067-.072.1-.108.167-.181a4.918,4.918,0,0,0,1.353-2.5,2.447,2.447,0,0,0-.906-2.28,2.41,2.41,0,0,0-2.34-.682,4.959,4.959,0,0,0-2.361,1.569l-.164.182" fill="#fff"/>
          <path id="Trazado_250642" data-name="Trazado 250642" d="M502.87,155.729a7.517,7.517,0,0,1,4.4-2.482,4.952,4.952,0,0,1,4.25,1.552,4.336,4.336,0,0,1,1.358,3.544l4.874-4.953c1.119,1.1,1.677,1.652,2.789,2.759l-12.9,12.957c-.92-.915-1.381-1.372-2.306-2.283.345-.535.518-.8.862-1.339a4.4,4.4,0,0,1-3.882-1.275,5.019,5.019,0,0,1-1.71-4.036,6.8,6.8,0,0,1,2.087-4.267l.17-.177m2.586,2.832a4.73,4.73,0,0,0-1.371,2.319,2.267,2.267,0,0,0,.8,2.108,3.265,3.265,0,0,0,1.237.793,2.567,2.567,0,0,0,1.331.084c1.515-1.541,2.273-2.311,3.789-3.851a2.8,2.8,0,0,0-.069-1.373,2.945,2.945,0,0,0-.792-1.243,2.217,2.217,0,0,0-2.259-.646,5.69,5.69,0,0,0-2.492,1.632l-.171.177" fill="#fff"/>
          <path id="Trazado_250643" data-name="Trazado 250643" d="M513.847,175.71a6.807,6.807,0,0,1-2.22-4.733,6.026,6.026,0,0,1,1.921-4.425l.332-.331a6.421,6.421,0,0,1,4.536-2.054,6.3,6.3,0,0,1,4.665,2.163,5.936,5.936,0,0,1,1.971,4.273,5.716,5.716,0,0,1-1.967,4.031l-1.275,1.226c-2.348-2.443-3.53-3.657-5.909-6.07l-.078.021a3.23,3.23,0,0,0-.882,2.11,3.159,3.159,0,0,0,1.066,2.244,8.849,8.849,0,0,0,1.686,1.4,9.626,9.626,0,0,0,1.8.834c-.32.884-.481,1.325-.8,2.207a7.467,7.467,0,0,1-2.345-.928,11.408,11.408,0,0,1-2.5-1.965m7.349-7.536a2.261,2.261,0,0,0-1.761-.783,3.312,3.312,0,0,0-1.873.779l-.023.06c1.318,1.337,1.974,2.007,3.282,3.353l.185-.18a2.714,2.714,0,0,0,.9-1.59,2.014,2.014,0,0,0-.707-1.639" fill="#fff"/>
          <path id="Trazado_250644" data-name="Trazado 250644" d="M538.74,178.646l-2.282,2.106c.659.714.988,1.072,1.644,1.789l-1.771,1.622c-.654-.714-.982-1.07-1.639-1.782l-4.746,4.378a1.375,1.375,0,0,0-.54.97,1.3,1.3,0,0,0,.383.883,4.166,4.166,0,0,0,.375.366,4.888,4.888,0,0,0,.419.309l-1.612,1.9a8.48,8.48,0,0,1-.948-.643,7.409,7.409,0,0,1-.862-.808,4.356,4.356,0,0,1-1.346-2.884,4,4,0,0,1,1.529-2.881l4.729-4.414c-.571-.611-.856-.916-1.429-1.526l1.751-1.644c.575.611.862.918,1.434,1.531l2.27-2.119c1.06,1.136,1.588,1.705,2.641,2.846" fill="#fff"/>
          <path id="Trazado_250645" data-name="Trazado 250645" d="M534.241,197.54a6.8,6.8,0,0,1-2-4.829,6.026,6.026,0,0,1,2.119-4.333l.347-.316a6.422,6.422,0,0,1,4.624-1.846,6.3,6.3,0,0,1,4.562,2.372,5.938,5.938,0,0,1,1.777,4.359,5.72,5.72,0,0,1-2.147,3.938l-1.33,1.167c-2.236-2.548-3.362-3.814-5.629-6.333l-.079.018a3.241,3.241,0,0,0-.977,2.068,3.165,3.165,0,0,0,.964,2.29,8.856,8.856,0,0,0,1.622,1.472,9.6,9.6,0,0,0,1.762.915c-.36.868-.54,1.3-.9,2.169a7.491,7.491,0,0,1-2.3-1.033,11.428,11.428,0,0,1-2.409-2.078m7.683-7.195a2.262,2.262,0,0,0-1.724-.862,3.319,3.319,0,0,0-1.906.693c-.01.024-.016.036-.026.059,1.256,1.4,1.881,2.1,3.127,3.5l.193-.171a2.714,2.714,0,0,0,.968-1.549,2.013,2.013,0,0,0-.632-1.669" fill="#fff"/>
          <path id="Trazado_250646" data-name="Trazado 250646" d="M551.495,197.609l-1.263,1.317a4.982,4.982,0,0,1,2.3.352,5.034,5.034,0,0,1,1.937,1.437,4.535,4.535,0,0,1,1.253,3.393,5.376,5.376,0,0,1-2.208,3.447l-5.951,5c-.982-1.17-1.475-1.754-2.463-2.918l5.912-5.022a2.783,2.783,0,0,0,1.123-1.656,2.1,2.1,0,0,0-.611-1.592,3.731,3.731,0,0,0-1.2-.964,2.9,2.9,0,0,0-1.3-.3l-6.951,5.99c-.994-1.153-1.493-1.729-2.493-2.876l9.558-8.332c.95,1.09,1.423,1.636,2.367,2.73" fill="#fff"/>
          <path id="Trazado_250647" data-name="Trazado 250647" d="M556.955,218.4a1.156,1.156,0,0,0,.365-1.083,6.543,6.543,0,0,0-.885-2.2,9.947,9.947,0,0,1-1.374-3.785,2.84,2.84,0,0,1,1.053-2.565,3.358,3.358,0,0,1,3.135-.573,6.833,6.833,0,0,1,3.537,2.489,7.388,7.388,0,0,1,1.862,4.11,3.22,3.22,0,0,1-1.242,3.016l-.071.023c-.934-1.161-1.4-1.741-2.343-2.9a1.568,1.568,0,0,0,.613-1.215,2.866,2.866,0,0,0-1.891-2.422,1.228,1.228,0,0,0-1.123.222,1.106,1.106,0,0,0-.38,1.04,6.965,6.965,0,0,0,.93,2.18,9.7,9.7,0,0,1,1.392,3.9,2.894,2.894,0,0,1-1.146,2.567,3.271,3.271,0,0,1-3.207.483,7.707,7.707,0,0,1-3.561-2.653,7.107,7.107,0,0,1-1.843-4.254,3.467,3.467,0,0,1,1.248-3.071l.071-.025c.9,1.076,1.344,1.615,2.235,2.695a1.714,1.714,0,0,0-.664,1.516,3.364,3.364,0,0,0,.816,1.716,2.881,2.881,0,0,0,1.317,1.011,1.2,1.2,0,0,0,1.156-.223" fill="#fff"/>
          <path id="Trazado_250648" data-name="Trazado 250648" d="M572.911,218.82c-.965-1.225-1.449-1.836-2.421-3.056l2.007-1.6c.975,1.225,1.461,1.838,2.43,3.068l-2.016,1.588m-12.346,9.723c-.943-1.2-1.416-1.794-2.365-2.985l9.916-7.9c.968,1.214,1.45,1.822,2.41,3.042l-9.961,7.845" fill="#fff"/>
          <path id="Trazado_250649" data-name="Trazado 250649" d="M567.223,226.568a6.3,6.3,0,0,1,4.762-1.448,6.616,6.616,0,0,1,4.467,2.828,6.692,6.692,0,0,1,1.584,5.07,6.271,6.271,0,0,1-2.639,4.233l-.2.148a6.376,6.376,0,0,1-4.792,1.376,7.644,7.644,0,0,1-5.961-7.79,6.377,6.377,0,0,1,2.582-4.265l.194-.152m2.156,3.178a5.041,5.041,0,0,0-1.786,2.241,2.435,2.435,0,0,0,.509,2.385,2.41,2.41,0,0,0,2.154,1.085,5.017,5.017,0,0,0,2.629-1.13l.2-.149a4.915,4.915,0,0,0,1.77-2.222,2.449,2.449,0,0,0-.493-2.4,2.412,2.412,0,0,0-2.185-1.085,4.963,4.963,0,0,0-2.6,1.129l-.195.151m11.667-4.317c1.057,1.385,1.584,2.08,2.633,3.472l-.04.064c-1.867-.454-2.8-.676-4.666-1.114-.806-1.057-1.209-1.585-2.02-2.638,1.636.081,2.454.124,4.093.216" fill="#fff"/>
          <path id="Trazado_250650" data-name="Trazado 250650" d="M583.922,238.295l-1.361,1.215a5,5,0,0,1,2.264.531,5.054,5.054,0,0,1,1.823,1.587,4.546,4.546,0,0,1,.99,3.484,5.367,5.367,0,0,1-2.466,3.268l-6.319,4.52c-.891-1.244-1.338-1.866-2.235-3.1l6.283-4.55a2.77,2.77,0,0,0,1.246-1.565,2.106,2.106,0,0,0-.487-1.637,3.734,3.734,0,0,0-1.127-1.056,2.887,2.887,0,0,0-1.277-.4l-7.393,5.434c-.9-1.229-1.357-1.842-2.266-3.065l10.173-7.568c.864,1.161,1.294,1.743,2.152,2.909" fill="#fff"/>
          <path id="Trazado_250651" data-name="Trazado 250651" d="M589.114,256.634a7.508,7.508,0,0,1,4.811-1.556,4.972,4.972,0,0,1,3.864,2.374,4.531,4.531,0,0,1,.8,2,4.47,4.47,0,0,1-.229,2.035l1.493-.573c.739,1.1,1.107,1.645,1.841,2.745l-14.6,9.74c-.841-1.261-1.263-1.891-2.112-3.147L590,266.862a4.19,4.19,0,0,1-1.708-.621,4.855,4.855,0,0,1-1.385-1.389,5.045,5.045,0,0,1-.884-4.306,6.787,6.787,0,0,1,2.89-3.771l.2-.141m1.979,3.3a4.8,4.8,0,0,0-1.817,2.012,2.264,2.264,0,0,0,.352,2.24,3.406,3.406,0,0,0,1.043,1.036,2.461,2.461,0,0,0,1.232.357l4.661-3.148a2.576,2.576,0,0,0,.165-1.3,3.148,3.148,0,0,0-.557-1.363,2.223,2.223,0,0,0-2.1-1.08,5.73,5.73,0,0,0-2.776,1.111l-.2.139" fill="#fff"/>
          <path id="Trazado_250652" data-name="Trazado 250652" d="M599.113,279.448a4.6,4.6,0,0,1-2.221-.55,4.844,4.844,0,0,1-1.736-1.667,4.573,4.573,0,0,1-.779-3.675,6.041,6.041,0,0,1,2.824-3.381l6.131-4.05c.855,1.3,1.281,1.944,2.129,3.244l-6.174,4.027a3.74,3.74,0,0,0-1.633,1.669,1.922,1.922,0,0,0,.34,1.652,4.246,4.246,0,0,0,1.077,1.181,2.63,2.63,0,0,0,1.238.485l7.761-4.983c.842,1.311,1.261,1.967,2.095,3.284l-10.708,6.789c-.679-1.07-1.019-1.6-1.7-2.671l1.359-1.354" fill="#fff"/>
          <path id="Trazado_250653" data-name="Trazado 250653" d="M604.027,291.256a6.857,6.857,0,0,1-1.133-5.129,6,6,0,0,1,2.845-3.9l.4-.249a6.088,6.088,0,0,1,8.967,2.167,5.987,5.987,0,0,1,.993,4.624,5.7,5.7,0,0,1-2.8,3.506l-1.515.914c-1.761-2.919-2.651-4.373-4.448-7.267l-.08,0a3.229,3.229,0,0,0-1.324,1.868,3.185,3.185,0,0,0,.551,2.434,8.974,8.974,0,0,0,1.343,1.746A9.726,9.726,0,0,0,609.4,293.2c-.506.793-.759,1.189-1.267,1.98a7.533,7.533,0,0,1-2.089-1.434,11.522,11.522,0,0,1-2.014-2.485m8.831-5.728a2.278,2.278,0,0,0-1.55-1.161,3.3,3.3,0,0,0-2,.343c-.015.021-.022.032-.036.054,1,1.6,1.49,2.406,2.474,4.017l.22-.135a2.7,2.7,0,0,0,1.224-1.356,2.027,2.027,0,0,0-.332-1.762" fill="#fff"/>
          <path id="Trazado_250654" data-name="Trazado 250654" d="M428.093,129.957a6.974,6.974,0,0,1-3.848,2.758,4.751,4.751,0,0,1-4.128-.967,4.61,4.61,0,0,1-1.292-1.425,3.864,3.864,0,0,1-.49-1.713l-3.619,4.888c-1.16-.859-1.742-1.287-2.908-2.14l10.363-14.169c1.083.792,1.624,1.19,2.7,1.987-.287.534-.43.8-.718,1.335a4.063,4.063,0,0,1,3.826.685,4.693,4.693,0,0,1,2.068,3.861,7.713,7.713,0,0,1-1.808,4.7l-.149.2m-2.79-2.42a5.72,5.72,0,0,0,1.23-2.711,2.132,2.132,0,0,0-.918-2.078,2.977,2.977,0,0,0-1.335-.6,2.345,2.345,0,0,0-1.287.169l-3.305,4.465a2.2,2.2,0,0,0,.253,1.209,3.317,3.317,0,0,0,.985,1.083,2.157,2.157,0,0,0,2.147.392,4.866,4.866,0,0,0,2.082-1.733l.148-.2" fill="#fff"/>
          <path id="Trazado_250655" data-name="Trazado 250655" d="M437.883,132.787l-1.047-.865a2.624,2.624,0,0,0-1.264-.585,2.041,2.041,0,0,0-1.187.206l-5.253,6.766c-1.149-.892-1.725-1.336-2.879-2.221l7.718-10.061c1.1.841,1.643,1.263,2.735,2.11l-1.019,1.583a4.015,4.015,0,0,1,1.942-.456,2.946,2.946,0,0,1,1.744.655,3.129,3.129,0,0,1,.381.351c.107.119.211.243.314.374-.874.857-1.312,1.285-2.185,2.143" fill="#fff"/>
          <path id="Trazado_250656" data-name="Trazado 250656" d="M436.719,136.047a6.458,6.458,0,0,1,4.222-2.586,6.192,6.192,0,0,1,4.849,1.554,6.256,6.256,0,0,1,2.58,4.414,6.425,6.425,0,0,1-1.616,4.69c-.063.076-.094.114-.156.191a6.541,6.541,0,0,1-4.269,2.525,7.075,7.075,0,0,1-7.314-5.884,6.539,6.539,0,0,1,1.552-4.711l.152-.193m2.724,2.473a5.228,5.228,0,0,0-1.225,2.583,2.3,2.3,0,0,0,.988,2.137,2.275,2.275,0,0,0,2.278.483,5.2,5.2,0,0,0,2.262-1.741l.155-.191a5.084,5.084,0,0,0,1.214-2.561,2.31,2.31,0,0,0-.978-2.16,2.282,2.282,0,0,0-2.308-.476,5.137,5.137,0,0,0-2.233,1.734l-.153.192" fill="#fff"/>
          <path id="Trazado_250657" data-name="Trazado 250657" d="M447.926,145.373a7.737,7.737,0,0,1,4.163-2.837,4.665,4.665,0,0,1,4.22,1.125,4.092,4.092,0,0,1,1.156,1.511,4.331,4.331,0,0,1,.349,1.831l4.5-5.3c1.147.973,1.719,1.462,2.86,2.442l-11.909,13.869c-.943-.809-1.414-1.213-2.362-2.018.31-.555.463-.833.771-1.39a4.441,4.441,0,0,1-2.021.047,4.232,4.232,0,0,1-1.824-.932,4.722,4.722,0,0,1-1.872-3.791,7,7,0,0,1,1.816-4.369c.061-.076.093-.114.156-.19m2.664,2.532a4.888,4.888,0,0,0-1.218,2.4,2.141,2.141,0,0,0,.883,1.989,3.034,3.034,0,0,0,1.246.661,2.5,2.5,0,0,0,1.3-.042l3.5-4.119a2.64,2.64,0,0,0-.972-2.48,2.11,2.11,0,0,0-2.235-.422,5.884,5.884,0,0,0-2.344,1.828c-.063.076-.1.113-.157.189" fill="#fff"/>
          <path id="Trazado_250658" data-name="Trazado 250658" d="M462.857,163.912a4.279,4.279,0,0,1-4.267-.942,4.255,4.255,0,0,1-1.619-3.221,6.245,6.245,0,0,1,1.851-3.979l4.811-5.554c1.119.97,1.678,1.456,2.792,2.432-1.944,2.218-2.915,3.327-4.859,5.544a3.879,3.879,0,0,0-1.139,2.032,1.788,1.788,0,0,0,.717,1.451,3.9,3.9,0,0,0,1.3.8,2.514,2.514,0,0,0,1.286.1l6.127-6.893c1.111.987,1.664,1.482,2.769,2.476l-8.479,9.427c-.9-.807-1.347-1.209-2.249-2.012.384-.663.575-1,.958-1.658" fill="#fff"/>
          <path id="Trazado_250659" data-name="Trazado 250659" d="M471.954,171.479a2.122,2.122,0,0,0,1.474.638,1.872,1.872,0,0,0,1.382-.659c.978.909,1.466,1.365,2.439,2.279l-.03.069a3.878,3.878,0,0,1-3.314,1.3,6.755,6.755,0,0,1-5.929-6.155,6.6,6.6,0,0,1,1.875-4.511l.236-.26a6.527,6.527,0,0,1,4.313-2.3,5.993,5.993,0,0,1,4.684,1.838,5.906,5.906,0,0,1,2.059,3.738,4.276,4.276,0,0,1-1.324,3.578l-.066.034c-.979-.92-1.47-1.379-2.453-2.293a2.41,2.41,0,0,0,.7-1.581,1.951,1.951,0,0,0-.7-1.539,2.138,2.138,0,0,0-2.213-.6,5.445,5.445,0,0,0-2.276,1.594l-.237.259a5.5,5.5,0,0,0-1.406,2.416,2.156,2.156,0,0,0,.791,2.146" fill="#fff"/>
          <path id="Trazado_250660" data-name="Trazado 250660" d="M479.9,182.581a6.346,6.346,0,0,1-2.2-4.517,6.169,6.169,0,0,1,1.844-4.427l.322-.341a6.591,6.591,0,0,1,4.419-2.24,5.9,5.9,0,0,1,4.578,1.882,5.537,5.537,0,0,1,1.962,4.08,5.865,5.865,0,0,1-1.893,4.042l-1.238,1.264c-2.315-2.27-3.481-3.4-5.826-5.638l-.075.025a3.3,3.3,0,0,0-.846,2.109A2.945,2.945,0,0,0,482,180.96a8.123,8.123,0,0,0,1.659,1.281,9,9,0,0,0,1.768.724c-.306.88-.459,1.32-.769,2.2a7,7,0,0,1-2.3-.788,10.477,10.477,0,0,1-2.461-1.8m7.13-7.744a2.122,2.122,0,0,0-1.729-.677,3.383,3.383,0,0,0-1.824.857l-.024.06c1.3,1.241,1.947,1.864,3.236,3.114l.18-.185a2.794,2.794,0,0,0,.864-1.6,1.885,1.885,0,0,0-.7-1.567" fill="#fff"/>
          <path id="Trazado_250661" data-name="Trazado 250661" d="M493.962,187.334a7.761,7.761,0,0,1,4.419-2.419,4.652,4.652,0,0,1,4.085,1.528,4.093,4.093,0,0,1,1,1.615,4.345,4.345,0,0,1,.167,1.854l4.992-4.834c1.045,1.079,1.566,1.621,2.605,2.706l-13.206,12.641c-.858-.9-1.288-1.343-2.151-2.235l.9-1.308a4.448,4.448,0,0,1-2.015-.15,4.213,4.213,0,0,1-1.723-1.1,4.71,4.71,0,0,1-1.489-3.951,7.011,7.011,0,0,1,2.235-4.169l.174-.174m2.4,2.776a4.9,4.9,0,0,0-1.446,2.265,2.137,2.137,0,0,0,.683,2.064,3.023,3.023,0,0,0,1.174.778,2.5,2.5,0,0,0,1.3.084l3.881-3.758a2.637,2.637,0,0,0-.723-2.561,2.106,2.106,0,0,0-2.181-.636,5.9,5.9,0,0,0-2.511,1.591l-.175.173" fill="#fff"/>
          <path id="Trazado_250662" data-name="Trazado 250662" d="M505.4,208.265a6.985,6.985,0,0,1,.438-.873,6.039,6.039,0,0,1,.582-.82,4.843,4.843,0,0,1-2.135-.043,3.913,3.913,0,0,1-1.943-1.187,4.775,4.775,0,0,1-1.494-3.08,3.566,3.566,0,0,1,1.236-2.758,3.263,3.263,0,0,1,3.154-.872,8.065,8.065,0,0,1,3.832,2.58c.564.6.845.908,1.407,1.514l.74-.685a1.882,1.882,0,0,0,.687-1.344,2.594,2.594,0,0,0-1.926-2.211,1.36,1.36,0,0,0-1.141.4c-.972-1.036-1.459-1.553-2.437-2.583.014-.027.021-.04.034-.067a3.134,3.134,0,0,1,3.053-.806,6.908,6.908,0,0,1,3.723,2.264,6.452,6.452,0,0,1,1.882,3.721,3.861,3.861,0,0,1-1.394,3.351l-3.862,3.538a9.357,9.357,0,0,0-1.139,1.238,8.077,8.077,0,0,0-.842,1.389c-.979-1.071-1.47-1.605-2.455-2.669m-.6-4a3.294,3.294,0,0,0,1.486.941,2.483,2.483,0,0,0,1.454.051l1.315-1.219c-.56-.6-.841-.907-1.4-1.51a2.551,2.551,0,0,0-1.6-.921,1.715,1.715,0,0,0-1.373.472,1.283,1.283,0,0,0-.443,1.026,1.834,1.834,0,0,0,.564,1.16" fill="#fff"/>
          <path id="Trazado_250663" data-name="Trazado 250663" d="M520.957,206.5l-1.241,1.337a4.822,4.822,0,0,1,2.252.249,4.648,4.648,0,0,1,1.9,1.321,4.232,4.232,0,0,1,1.225,3.257,5.528,5.528,0,0,1-2.171,3.452l-5.847,5.116c-.962-1.1-1.444-1.647-2.412-2.741l5.808-5.142a2.867,2.867,0,0,0,1.1-1.662,1.961,1.961,0,0,0-.6-1.527,3.445,3.445,0,0,0-1.18-.89,2.78,2.78,0,0,0-1.277-.239l-6.827,6.13c-.973-1.083-1.461-1.623-2.439-2.7l9.385-8.526c.93,1.024,1.393,1.537,2.318,2.565m8.809,1.94a2.668,2.668,0,0,1-1.942.694,2.564,2.564,0,0,1-1.865-.917,5.051,5.051,0,0,1-.963-1.852,4.7,4.7,0,0,0-.817-1.678.945.945,0,0,0-.8-.316,1.407,1.407,0,0,0-.881.379c-.386-.723-.579-1.085-.968-1.808a2.713,2.713,0,0,1,1.932-.72,2.5,2.5,0,0,1,1.887.879,5.47,5.47,0,0,1,.919,1.791,5.481,5.481,0,0,0,.879,1.755,1,1,0,0,0,.79.327,1.349,1.349,0,0,0,.914-.364c.365.732.547,1.1.91,1.83" fill="#fff"/>
          <path id="Trazado_250664" data-name="Trazado 250664" d="M523.364,218.623a6.467,6.467,0,0,1,4.629-1.754,6.172,6.172,0,0,1,4.467,2.426,6.248,6.248,0,0,1,1.7,4.813,6.432,6.432,0,0,1-2.466,4.3l-.189.157a6.542,6.542,0,0,1-4.663,1.686,7.054,7.054,0,0,1-6.076-7.136,6.546,6.546,0,0,1,2.407-4.334l.186-.162m2.209,2.933a5.23,5.23,0,0,0-1.687,2.308,2.3,2.3,0,0,0,.569,2.281,2.269,2.269,0,0,0,2.145.9,5.2,5.2,0,0,0,2.547-1.288l.188-.159a5.093,5.093,0,0,0,1.672-2.288,2.309,2.309,0,0,0-.554-2.3,2.278,2.278,0,0,0-2.176-.9,5.134,5.134,0,0,0-2.517,1.287l-.187.16" fill="#fff"/>
          <path id="Trazado_250665" data-name="Trazado 250665" d="M532.8,239.928l7.99-6.464c-.513-.634-.77-.951-1.285-1.584l1.863-1.517c.517.636.775.954,1.29,1.591l1.094-.885a4.082,4.082,0,0,1,3.4-1.02,5.592,5.592,0,0,1,3.266,2.232,7.277,7.277,0,0,1,.553.8q.257.428.531.963c-.878.53-1.316.8-2.193,1.327-.1-.18-.2-.352-.3-.517a5.577,5.577,0,0,0-.39-.548,1.879,1.879,0,0,0-1.213-.79,1.753,1.753,0,0,0-1.316.455l-1.1.878c.661.827.991,1.241,1.648,2.071l-1.882,1.492c-.655-.826-.984-1.239-1.642-2.062l-8.028,6.417c-.91-1.138-1.366-1.706-2.282-2.838" fill="#fff"/>
          <path id="Trazado_250666" data-name="Trazado 250666" d="M540.176,249.22c-.9-1.15-1.344-1.724-2.245-2.868l9.961-7.846c.92,1.168,1.378,1.753,2.291,2.926l-10.007,7.788m13.4-11.842c1.026,1.314,1.538,1.973,2.556,3.294l-.04.063c-1.833-.382-2.749-.569-4.58-.935-.782-1-1.174-1.5-1.96-2.5,1.608.027,2.413.043,4.024.08" fill="#fff"/>
          <path id="Trazado_250667" data-name="Trazado 250667" d="M549.31,255.372a1.162,1.162,0,0,0,.421-1.048,6.093,6.093,0,0,0-.743-2.158,9.255,9.255,0,0,1-1.134-3.706,2.875,2.875,0,0,1,1.183-2.479,3.391,3.391,0,0,1,3.113-.508,6.352,6.352,0,0,1,3.336,2.481,6.863,6.863,0,0,1,1.6,4.031,3.26,3.26,0,0,1-1.394,2.914l-.072.022c-.852-1.146-1.28-1.717-2.138-2.858a1.6,1.6,0,0,0,.672-1.173,2.647,2.647,0,0,0-1.72-2.387,1.241,1.241,0,0,0-1.116.2,1.118,1.118,0,0,0-.434,1.007,6.492,6.492,0,0,0,.789,2.137,9.01,9.01,0,0,1,1.145,3.818,2.934,2.934,0,0,1-1.273,2.478,3.3,3.3,0,0,1-3.182.418,7.136,7.136,0,0,1-3.348-2.638,6.6,6.6,0,0,1-1.566-4.168,3.514,3.514,0,0,1,1.4-2.97l.071-.023c.82,1.061,1.228,1.593,2.042,2.659a1.74,1.74,0,0,0-.741,1.464,3.11,3.11,0,0,0,.705,1.683,2.651,2.651,0,0,0,1.236,1.005,1.209,1.209,0,0,0,1.149-.2" fill="#fff"/>
          <path id="Trazado_250668" data-name="Trazado 250668" d="M564.982,256.04c-.88-1.208-1.322-1.811-2.209-3.014.827-.609,1.24-.913,2.066-1.523.891,1.208,1.334,1.813,2.217,3.026-.829.6-1.244.907-2.074,1.511m-12.7,9.252c-.859-1.179-1.29-1.767-2.155-2.941,4.083-3.009,6.124-4.514,10.206-7.524.883,1.2,1.323,1.8,2.2,3l-10.25,7.465" fill="#fff"/>
          <path id="Trazado_250669" data-name="Trazado 250669" d="M559.261,270.939a2.124,2.124,0,0,0,1.311.933,1.867,1.867,0,0,0,1.49-.357c.769,1.095,1.153,1.644,1.917,2.744l-.044.06a3.871,3.871,0,0,1-3.514.583,6.781,6.781,0,0,1-4.532-7.268,6.589,6.589,0,0,1,2.77-4.025l.285-.206a6.518,6.518,0,0,1,4.7-1.348,6.006,6.006,0,0,1,4.205,2.778,5.936,5.936,0,0,1,1.244,4.092,4.276,4.276,0,0,1-2.036,3.228l-.073.019c-.768-1.105-1.154-1.657-1.928-2.759a2.4,2.4,0,0,0,1.013-1.4,1.961,1.961,0,0,0-.372-1.656,2.145,2.145,0,0,0-2.043-1.046,5.438,5.438,0,0,0-2.558,1.086l-.286.2a5.476,5.476,0,0,0-1.876,2.072,2.16,2.16,0,0,0,.33,2.267" fill="#fff"/>
          <path id="Trazado_250670" data-name="Trazado 250670" d="M566.634,274.366a6.457,6.457,0,0,1,4.8-1.228,6.2,6.2,0,0,1,4.179,2.917,6.275,6.275,0,0,1,1.171,4.985,6.418,6.418,0,0,1-2.923,4.009l-.2.136a6.535,6.535,0,0,1-4.824,1.155,7.091,7.091,0,0,1-5.266-7.788,6.533,6.533,0,0,1,2.868-4.046l.2-.14m1.877,3.168a5.224,5.224,0,0,0-1.931,2.109,2.307,2.307,0,0,0,.317,2.335,2.283,2.283,0,0,0,2.037,1.135,5.192,5.192,0,0,0,2.675-1l.2-.137a5.086,5.086,0,0,0,1.914-2.091,2.317,2.317,0,0,0-.3-2.354,2.287,2.287,0,0,0-2.067-1.137,5.13,5.13,0,0,0-2.645,1l-.2.139" fill="#fff"/>
          <path id="Trazado_250671" data-name="Trazado 250671" d="M437.547,175.47l-.348.628.054.046c2.854-1.8,4.285-2.7,7.156-4.477,1.155,1,1.73,1.5,2.879,2.5-5.448,2.981-8.155,4.492-13.538,7.552a6.751,6.751,0,0,1-2.616.774,3.828,3.828,0,0,1-2.736-1.107,4.356,4.356,0,0,1-.571-.576q-.238-.294-.562-.735c.766-.66,1.15-.99,1.917-1.648.069.078.143.161.224.25a2.486,2.486,0,0,0,.229.224,1.912,1.912,0,0,0,1.273.535,2.764,2.764,0,0,0,1.215-.328l.947-.487c1.9-5.042,2.829-7.572,4.659-12.654,1.169.983,1.752,1.476,2.915,2.465-1.229,2.819-1.849,4.226-3.1,7.033" fill="#fff"/>
          <path id="Trazado_250672" data-name="Trazado 250672" d="M448.487,192.591a5.9,5.9,0,0,1-2.164-4.315,6.333,6.333,0,0,1,1.785-4.422l.313-.349a6.767,6.767,0,0,1,4.3-2.4,5.508,5.508,0,0,1,4.475,1.624,5.17,5.17,0,0,1,1.928,3.9,6.031,6.031,0,0,1-1.835,4.045l-1.2,1.295c-2.267-2.109-3.408-3.157-5.7-5.238-.029.012-.044.017-.074.028a3.4,3.4,0,0,0-.819,2.106,2.74,2.74,0,0,0,1.04,2.043,7.387,7.387,0,0,0,1.623,1.173,8.341,8.341,0,0,0,1.727.624c-.3.876-.445,1.313-.744,2.188a6.578,6.578,0,0,1-2.246-.66,9.558,9.558,0,0,1-2.4-1.638m6.933-7.92a1.984,1.984,0,0,0-1.689-.58,3.476,3.476,0,0,0-1.778.926c-.008.024-.013.036-.021.059,1.27,1.153,1.9,1.732,3.166,2.894l.175-.19a2.9,2.9,0,0,0,.839-1.609,1.763,1.763,0,0,0-.692-1.5" fill="#fff"/>
          <path id="Trazado_250673" data-name="Trazado 250673" d="M464.973,190.278l-1.047,1.317a4.315,4.315,0,0,1,2.12.066,4.647,4.647,0,0,1,1.938,1.163,4.093,4.093,0,0,1,1.183,1.887,3.334,3.334,0,0,1-.157,2.115,4.429,4.429,0,0,1,2.241-.044,4.377,4.377,0,0,1,2.033,1.186,3.776,3.776,0,0,1,1.245,3.1,6.18,6.18,0,0,1-2.07,3.668l-5.309,5.331c-.984-.981-1.478-1.469-2.467-2.444l5.286-5.369a3.466,3.466,0,0,0,1.143-1.851,1.736,1.736,0,0,0-.608-1.434,2.524,2.524,0,0,0-1.156-.677,2.359,2.359,0,0,0-1.252.032c-.1.106-.189.2-.257.281s-.14.161-.216.24l-5.806,5.976c-.993-.965-1.491-1.446-2.489-2.4l5.219-5.435a3.476,3.476,0,0,0,1.108-1.852,1.727,1.727,0,0,0-.623-1.448,2.807,2.807,0,0,0-1.088-.672,2.367,2.367,0,0,0-1.157-.072l-6.359,6.712c-1.005-.953-1.509-1.428-2.52-2.374l8.669-9.254c.961.9,1.44,1.352,2.4,2.257" fill="#fff"/>
          <path id="Trazado_250674" data-name="Trazado 250674" d="M473.229,207.011a6.642,6.642,0,0,1,4.443-2.121,5.756,5.756,0,0,1,4.473,1.962,5.815,5.815,0,0,1,1.879,4.53,6.607,6.607,0,0,1-2.219,4.406l-.178.17a6.731,6.731,0,0,1-4.483,2.057,6.5,6.5,0,0,1-6.249-6.4,6.732,6.732,0,0,1,2.16-4.435l.174-.174m2.287,2.657a5.443,5.443,0,0,0-1.546,2.4,2.163,2.163,0,0,0,.656,2.168,2.14,2.14,0,0,0,2.136.68,5.4,5.4,0,0,0,2.432-1.481l.176-.172a5.283,5.283,0,0,0,1.533-2.375,2.178,2.178,0,0,0-.644-2.19,2.15,2.15,0,0,0-2.166-.677,5.334,5.334,0,0,0-2.4,1.477l-.175.173" fill="#fff"/>
          <path id="Trazado_250675" data-name="Trazado 250675" d="M484.043,224.091a1.97,1.97,0,0,0,1.375.694,1.919,1.919,0,0,0,1.41-.575c.867.935,1.3,1.4,2.161,2.342l-.036.065a3.951,3.951,0,0,1-3.353,1.106,6.216,6.216,0,0,1-5.192-6.289,6.792,6.792,0,0,1,2.255-4.305l.254-.243a6.719,6.719,0,0,1,4.419-2.027,5.588,5.588,0,0,1,4.39,2.023,5.488,5.488,0,0,1,1.654,3.746,4.378,4.378,0,0,1-1.63,3.421l-.068.03c-.867-.945-1.3-1.416-2.174-2.355a2.484,2.484,0,0,0,.833-1.506,1.828,1.828,0,0,0-.542-1.536,2.019,2.019,0,0,0-2.1-.69,5.668,5.668,0,0,0-2.368,1.442l-.256.241a5.722,5.722,0,0,0-1.6,2.286,2.033,2.033,0,0,0,.567,2.13" fill="#fff"/>
          <path id="Trazado_250676" data-name="Trazado 250676" d="M501.3,223.18c-.954-1.059-1.433-1.587-2.393-2.641l1.9-1.728c.964,1.057,1.445,1.588,2.4,2.651L501.3,223.18M489.628,233.7c-.93-1.032-1.4-1.547-2.332-2.573l9.372-8.541c.955,1.048,1.431,1.574,2.381,2.627l-9.421,8.487" fill="#fff"/>
          <path id="Trazado_250677" data-name="Trazado 250677" d="M495.991,231.12a6.642,6.642,0,0,1,4.552-1.876,5.757,5.757,0,0,1,4.359,2.2,5.82,5.82,0,0,1,1.632,4.626,6.607,6.607,0,0,1-2.456,4.279l-.187.16a6.729,6.729,0,0,1-4.589,1.809,6.5,6.5,0,0,1-5.893-6.727,6.737,6.737,0,0,1,2.4-4.311l.184-.164m2.139,2.778a5.441,5.441,0,0,0-1.674,2.309,2.163,2.163,0,0,0,.538,2.2,2.14,2.14,0,0,0,2.1.8,5.4,5.4,0,0,0,2.509-1.347l.186-.161a5.285,5.285,0,0,0,1.659-2.289,2.177,2.177,0,0,0-.524-2.222,2.149,2.149,0,0,0-2.126-.794,5.328,5.328,0,0,0-2.479,1.344l-.184.163" fill="#fff"/>
          <path id="Trazado_250678" data-name="Trazado 250678" d="M512.318,240.436l-1.287,1.291a4.7,4.7,0,0,1,2.2.262,4.3,4.3,0,0,1,1.792,1.305,3.952,3.952,0,0,1,1.03,3.183,5.708,5.708,0,0,1-2.313,3.341l-6.006,4.929c-.885-1.078-1.328-1.616-2.219-2.689l5.968-4.956a2.961,2.961,0,0,0,1.17-1.608,1.829,1.829,0,0,0-.5-1.493,3.16,3.16,0,0,0-1.11-.877,2.669,2.669,0,0,0-1.239-.245l-7.018,5.912c-.9-1.063-1.344-1.593-2.245-2.65l9.65-8.225c.857,1.006,1.284,1.51,2.136,2.52" fill="#fff"/>
          <path id="Trazado_250679" data-name="Trazado 250679" d="M514.126,262.676a7.033,7.033,0,0,1,.512-.824,6.2,6.2,0,0,1,.649-.767,4.746,4.746,0,0,1-2.085-.154,3.611,3.611,0,0,1-1.785-1.254,4.423,4.423,0,0,1-1.163-3.071,3.65,3.65,0,0,1,1.474-2.616,3.308,3.308,0,0,1,3.169-.683,7.443,7.443,0,0,1,3.5,2.709c.494.618.74.927,1.232,1.546l.789-.627a1.932,1.932,0,0,0,.8-1.27,1.981,1.981,0,0,0-.526-1.469,1.956,1.956,0,0,0-1.145-.781,1.385,1.385,0,0,0-1.154.331c-.851-1.058-1.278-1.586-2.135-2.639l.039-.063a3.173,3.173,0,0,1,3.064-.623,6.4,6.4,0,0,1,3.424,2.4,5.975,5.975,0,0,1,1.484,3.716,3.932,3.932,0,0,1-1.686,3.182c-1.648,1.294-2.472,1.941-4.121,3.234a9.755,9.755,0,0,0-1.233,1.143,8.343,8.343,0,0,0-.958,1.3c-.855-1.091-1.284-1.635-2.144-2.721m-.2-3.914a3.035,3.035,0,0,0,1.363.992,2.43,2.43,0,0,0,1.418.126l1.4-1.115c-.491-.618-.736-.926-1.228-1.541a2.361,2.361,0,0,0-1.476-.979,1.748,1.748,0,0,0-1.389.387,1.309,1.309,0,0,0-.532.974,1.7,1.7,0,0,0,.44,1.156" fill="#fff"/>
          <path id="Trazado_250680" data-name="Trazado 250680" d="M519.758,269.894c-.847-1.1-1.273-1.653-2.126-2.751l14.432-11.221c.88,1.131,1.318,1.7,2.191,2.835l-14.5,11.137" fill="#fff"/>
          <path id="Trazado_250681" data-name="Trazado 250681" d="M160.5,219.6c-.871,1.078-1.3,1.62-2.159,2.711l-13.421-10.536c.915-1.165,1.376-1.745,2.306-2.9L160.5,219.6" fill="#fff"/>
          <path id="Trazado_250682" data-name="Trazado 250682" d="M154.884,206.509l1.488,1.054a4.7,4.7,0,0,1-.075-2.235,4.43,4.43,0,0,1,1.038-2.016,4.058,4.058,0,0,1,3.036-1.557,5.611,5.611,0,0,1,3.659,1.779l5.756,5.219c-.931,1.027-1.394,1.544-2.312,2.585l-5.819-5.13a2.92,2.92,0,0,0-1.775-.9,1.869,1.869,0,0,0-1.412.753,3.254,3.254,0,0,0-.705,1.256,2.7,2.7,0,0,0-.051,1.276l6.985,5.951c-.9,1.053-1.343,1.583-2.226,2.65l-9.765-8.089c.865-1.044,1.3-1.563,2.178-2.6" fill="#fff"/>
          <path id="Trazado_250683" data-name="Trazado 250683" d="M162.637,193.363c-1.013,1.063-1.515,1.6-2.514,2.675l-1.882-1.745c1.008-1.087,1.516-1.627,2.538-2.7l1.858,1.77M174.014,204.2c-.953,1-1.426,1.5-2.365,2.516l-9.3-8.619c.987-1.064,1.484-1.593,2.485-2.644l9.18,8.747" fill="#fff"/>
          <path id="Trazado_250684" data-name="Trazado 250684" d="M178.084,196.679a1.973,1.973,0,0,0,.66-1.391,1.919,1.919,0,0,0-.6-1.4c.919-.889,1.381-1.33,2.311-2.208l.065.035a3.978,3.978,0,0,1,1.159,3.336,5.544,5.544,0,0,1-1.751,3.5,5.6,5.6,0,0,1-4.379,1.837,6.833,6.833,0,0,1-4.39-2.088l-.252-.245a6.6,6.6,0,0,1-2.176-4.355,5.7,5.7,0,0,1,1.954-4.516,5.6,5.6,0,0,1,3.768-1.791,4.321,4.321,0,0,1,3.462,1.562l.03.068c-.943.89-1.412,1.338-2.344,2.24a2.453,2.453,0,0,0-1.528-.795,1.864,1.864,0,0,0-1.54.6,2.05,2.05,0,0,0-.653,2.14,5.586,5.586,0,0,0,1.51,2.327l.249.248a5.7,5.7,0,0,0,2.335,1.526,2.041,2.041,0,0,0,2.114-.626" fill="#fff"/>
          <path id="Trazado_250685" data-name="Trazado 250685" d="M177.058,179.331c-1.088.982-1.629,1.476-2.7,2.473l-1.745-1.882c1.086-1.006,1.632-1.506,2.73-2.5l1.719,1.906M187.583,191c-1.024.923-1.533,1.389-2.544,2.326l-8.621-9.3c1.062-.986,1.6-1.474,2.673-2.445L187.583,191" fill="#fff"/>
          <path id="Trazado_250686" data-name="Trazado 250686" d="M185.018,184.633a6.539,6.539,0,0,1-1.83-4.578,5.856,5.856,0,0,1,2.33-4.387,5.916,5.916,0,0,1,4.732-1.577,6.5,6.5,0,0,1,4.217,2.574l.154.192a6.782,6.782,0,0,1,1.665,4.643,6.515,6.515,0,0,1-6.808,5.742,6.785,6.785,0,0,1-4.3-2.425l-.164-.184m2.815-2.131a5.459,5.459,0,0,0,2.288,1.7,2.172,2.172,0,0,0,2.208-.5,2.147,2.147,0,0,0,.838-2.077,5.408,5.408,0,0,0-1.284-2.542l-.157-.19a5.214,5.214,0,0,0-2.253-1.71,2.207,2.207,0,0,0-2.255.5,2.179,2.179,0,0,0-.852,2.132,5.267,5.267,0,0,0,1.306,2.5c.065.074.1.111.161.186" fill="#fff"/>
          <path id="Trazado_250687" data-name="Trazado 250687" d="M208.49,169.766a1.17,1.17,0,0,0-1.015-.465,5.588,5.588,0,0,0-2.1.635,8.856,8.856,0,0,1-3.607.977,2.924,2.924,0,0,1-2.427-1.242,3.405,3.405,0,0,1-.5-3.093,5.985,5.985,0,0,1,2.46-3.224,6.452,6.452,0,0,1,3.984-1.418,3.273,3.273,0,0,1,2.827,1.519l.02.072c-1.136.783-1.7,1.178-2.826,1.976a1.618,1.618,0,0,0-1.139-.715,2.488,2.488,0,0,0-2.353,1.609,1.254,1.254,0,0,0,.188,1.111,1.129,1.129,0,0,0,.983.465,6.173,6.173,0,0,0,2.09-.694,8.322,8.322,0,0,1,3.733-.949,2.964,2.964,0,0,1,2.389,1.389,3.361,3.361,0,0,1,.371,3.151,6.579,6.579,0,0,1-2.552,3.145A6.106,6.106,0,0,1,205,175.368a3.6,3.6,0,0,1-2.894-1.485c-.009-.028-.013-.042-.023-.07,1.023-.772,1.537-1.154,2.569-1.912a1.776,1.776,0,0,0,1.423.788,2.865,2.865,0,0,0,1.628-.617,2.444,2.444,0,0,0,.975-1.166,1.232,1.232,0,0,0-.186-1.14" fill="#fff"/>
          <path id="Trazado_250688" data-name="Trazado 250688" d="M220.656,163.6a4.406,4.406,0,0,1-.431,2.134,4.071,4.071,0,0,1-1.479,1.61,3.969,3.969,0,0,1-3.392.611,6.5,6.5,0,0,1-3.313-2.856l-4.115-6.087c1.2-.809,1.8-1.209,3.006-2l4.045,6.162a4.031,4.031,0,0,0,1.635,1.653,1.674,1.674,0,0,0,1.533-.262,3.592,3.592,0,0,0,1.064-.995,2.437,2.437,0,0,0,.41-1.184l-4.928-7.8c1.226-.775,1.842-1.158,3.08-1.917l6.627,10.81c-.976.6-1.462.9-2.431,1.509-.524-.557-.786-.835-1.311-1.39" fill="#fff"/>
          <path id="Trazado_250689" data-name="Trazado 250689" d="M222.311,146.357l1.551,2.69c.789-.455,1.185-.68,1.978-1.129.472.837.709,1.255,1.182,2.092-.786.444-1.178.668-1.96,1.118,1.29,2.238,1.936,3.357,3.226,5.594a1.449,1.449,0,0,0,.8.755,1.125,1.125,0,0,0,.878-.138,3.477,3.477,0,0,0,.4-.262,4.156,4.156,0,0,0,.356-.317c.587.8.88,1.207,1.465,2.012a7.207,7.207,0,0,1-.751.729,6.222,6.222,0,0,1-.885.608,3.762,3.762,0,0,1-2.87.546,4.251,4.251,0,0,1-2.409-2.155l-3.308-5.559c-.669.4-1,.6-1.669,1-.5-.823-.746-1.234-1.244-2.056.672-.406,1.009-.609,1.684-1.01-.635-1.068-.952-1.6-1.588-2.669,1.259-.749,1.891-1.119,3.16-1.851" fill="#fff"/>
          <path id="Trazado_250690" data-name="Trazado 250690" d="M229.721,142.32c-1.3.7-1.944,1.046-3.231,1.758-.5-.9-.746-1.348-1.242-2.246,1.3-.719,1.952-1.074,3.262-1.775.484.9.726,1.358,1.211,2.263m7.414,13.856c-1.221.653-1.829.984-3.04,1.655-2.455-4.44-3.682-6.659-6.137-11.1,1.273-.7,1.912-1.051,3.2-1.738l5.982,11.18" fill="#fff"/>
          <path id="Trazado_250691" data-name="Trazado 250691" d="M242.9,153.189c-1.239.622-1.857.938-3.086,1.577l-8.43-16.222c1.32-.686,1.982-1.024,3.312-1.692,3.281,6.535,4.923,9.8,8.2,16.337" fill="#fff"/>
          <path id="Trazado_250692" data-name="Trazado 250692" d="M131.771,409.995l-5.414,3c-.7-1.264-1.047-1.9-1.736-3.168l15-8.14c1.264,2.33,1.9,3.489,3.205,5.8a7,7,0,0,1,1.027,4.827,5.021,5.021,0,0,1-2.55,3.474,4.888,4.888,0,0,1-4.279.472,7.079,7.079,0,0,1-3.674-3.437c-.634-1.126-.949-1.69-1.575-2.821m2.307-1.277c.622,1.124.935,1.685,1.565,2.8a2.979,2.979,0,0,0,1.782,1.564,2.716,2.716,0,0,0,2.1-.325,2.865,2.865,0,0,0,1.393-1.66,2.909,2.909,0,0,0-.4-2.328c-.622-1.1-.931-1.658-1.545-2.767l-4.9,2.712" fill="#fff"/>
          <path id="Trazado_250693" data-name="Trazado 250693" d="M135.119,428.584a6.093,6.093,0,0,1-.908-4.892,6.169,6.169,0,0,1,3.013-3.714l.4-.238a6.859,6.859,0,0,1,4.828-.995,5.535,5.535,0,0,1,3.791,2.81,5.179,5.179,0,0,1,.766,4.24,6.109,6.109,0,0,1-2.834,3.421l-1.5.937c-1.666-2.668-2.487-4.009-4.1-6.708l-.079,0a3.332,3.332,0,0,0-1.383,1.794,2.824,2.824,0,0,0,.449,2.3,7.574,7.574,0,0,0,1.266,1.62,8.382,8.382,0,0,0,1.52,1.1c-.512.774-.768,1.161-1.278,1.938a6.719,6.719,0,0,1-2.03-1.293,9.9,9.9,0,0,1-1.919-2.327m8.874-5.661a1.989,1.989,0,0,0-1.453-1.033,3.505,3.505,0,0,0-1.97.372l-.038.051c.888,1.482,1.336,2.22,2.239,3.693l.22-.135a2.9,2.9,0,0,0,1.248-1.317,1.771,1.771,0,0,0-.246-1.631" fill="#fff"/>
          <path id="Trazado_250694" data-name="Trazado 250694" d="M151.184,435.349c-.271-.44-.4-.66-.675-1.1a2.415,2.415,0,0,0-.966-.912,2.028,2.028,0,0,0-1.168-.168l-7.207,4.63c-.776-1.208-1.162-1.813-1.928-3.028l10.724-6.766c.693,1.1,1.041,1.646,1.743,2.739l-1.494,1.144a4.048,4.048,0,0,1,1.946.154,2.833,2.833,0,0,1,1.607,1.527c.057.139.112.282.162.43-1.1.541-1.646.811-2.744,1.35" fill="#fff"/>
          <path id="Trazado_250695" data-name="Trazado 250695" d="M159.2,436.629c-.774-1.153-1.159-1.73-1.924-2.889l2.142-1.414c.76,1.152,1.142,1.726,1.912,2.871l-2.13,1.432m-13.044,8.764c-.8-1.2-1.2-1.794-1.995-3l10.582-6.985c.77,1.167,1.158,1.749,1.938,2.909l-10.525,7.072" fill="#fff"/>
          <path id="Trazado_250696" data-name="Trazado 250696" d="M152.842,443.754a6.741,6.741,0,0,1,4.757-1.274,5.772,5.772,0,0,1,4.041,2.653,5.83,5.83,0,0,1,1.132,4.718,6.708,6.708,0,0,1-2.817,4.05l-.2.144a6.558,6.558,0,0,1-4.747,1.378,6.722,6.722,0,0,1-5.284-7.538,6.556,6.556,0,0,1,2.915-3.993l.2-.138m1.8,3.053a5.317,5.317,0,0,0-1.927,2.106,2.211,2.211,0,0,0,.316,2.286,2.188,2.188,0,0,0,2.028,1.048,5.292,5.292,0,0,0,2.636-1.084l.2-.143a5.307,5.307,0,0,0,1.875-2.116,2.182,2.182,0,0,0-.286-2.258,2.156,2.156,0,0,0-2.02-1.022,5.361,5.361,0,0,0-2.621,1.043l-.2.14" fill="#fff"/>
          <path id="Trazado_250697" data-name="Trazado 250697" d="M160.736,455.357a8.139,8.139,0,0,1,4.7-1.778,4.365,4.365,0,0,1,3.7,1.9,3.7,3.7,0,0,1,.719,1.642,4.23,4.23,0,0,1-.112,1.8l5.538-4.2c.835,1.1,1.255,1.652,2.1,2.746l-14.48,11.16c-.747-.971-1.121-1.458-1.862-2.434l1.056-1.187a4.319,4.319,0,0,1-1.967-.376,4.062,4.062,0,0,1-1.552-1.3,4.544,4.544,0,0,1-.887-4.077,7.039,7.039,0,0,1,2.857-3.757c.08-.058.121-.087.2-.145m1.894,2.993a4.974,4.974,0,0,0-1.756,2.03,2.058,2.058,0,0,0,.375,2.1,2.865,2.865,0,0,0,1.049.9,2.422,2.422,0,0,0,1.263.224l4.306-3.262a2.682,2.682,0,0,0,.187-1.3,2.514,2.514,0,0,0-.517-1.244,2,2,0,0,0-2.019-.844,6.153,6.153,0,0,0-2.691,1.251Z" fill="#fff"/>
          <path id="Trazado_250698" data-name="Trazado 250698" d="M169.351,466.424a6.745,6.745,0,0,1,4.663-1.579,5.763,5.763,0,0,1,4.2,2.382,5.825,5.825,0,0,1,1.431,4.632,6.712,6.712,0,0,1-2.552,4.221l-.19.157a6.565,6.565,0,0,1-4.647,1.683,6.708,6.708,0,0,1-5.752-7.173,6.556,6.556,0,0,1,2.652-4.171l.194-.152m1.986,2.928a5.324,5.324,0,0,0-1.787,2.225,2.206,2.206,0,0,0,.461,2.259,2.184,2.184,0,0,0,2.09.914,5.3,5.3,0,0,0,2.56-1.253l.191-.155a5.33,5.33,0,0,0,1.736-2.232,2.181,2.181,0,0,0-.431-2.234,2.151,2.151,0,0,0-2.08-.887,5.365,5.365,0,0,0-2.547,1.21l-.193.153" fill="#fff"/>
          <path id="Trazado_250699" data-name="Trazado 250699" d="M181.956,482.208a8.143,8.143,0,0,1,4.54-2.142,4.362,4.362,0,0,1,3.834,1.6,3.709,3.709,0,0,1,.845,1.58,4.23,4.23,0,0,1,.028,1.8l5.192-4.62c.918,1.032,1.38,1.547,2.307,2.571l-13.557,12.265c-.822-.909-1.231-1.365-2.047-2.279.383-.507.575-.76.959-1.266a4.326,4.326,0,0,1-1.989-.22,4.053,4.053,0,0,1-1.649-1.171,4.535,4.535,0,0,1-1.2-3.992,7.037,7.037,0,0,1,2.553-3.969l.186-.161m2.121,2.833a4.971,4.971,0,0,0-1.59,2.161,2.057,2.057,0,0,0,.538,2.063,2.859,2.859,0,0,0,1.115.811,2.435,2.435,0,0,0,1.277.123l4.036-3.591a2.7,2.7,0,0,0,.085-1.307,2.515,2.515,0,0,0-.613-1.2,2,2,0,0,0-2.079-.681,6.16,6.16,0,0,0-2.583,1.458l-.186.162" fill="#fff"/>
          <path id="Trazado_250700" data-name="Trazado 250700" d="M190.762,501.718a6.054,6.054,0,0,1-1.89-4.585,6.18,6.18,0,0,1,2.182-4.252l.346-.316a6.877,6.877,0,0,1,4.513-1.98,5.5,5.5,0,0,1,4.28,1.952,5.15,5.15,0,0,1,1.618,3.98,6.118,6.118,0,0,1-2.066,3.93l-1.274,1.228c-2.176-2.258-3.254-3.4-5.388-5.693l-.076.021a3.333,3.333,0,0,0-.984,2.039,2.81,2.81,0,0,0,.911,2.154,7.511,7.511,0,0,0,1.57,1.318,8.325,8.325,0,0,0,1.712.757c-.343.863-.513,1.294-.852,2.159a6.674,6.674,0,0,1-2.249-.84,9.808,9.808,0,0,1-2.353-1.872m7.509-7.376a1.979,1.979,0,0,0-1.631-.705,3.5,3.5,0,0,0-1.849.774l-.027.057c1.172,1.261,1.762,1.889,2.946,3.138l.187-.177a2.914,2.914,0,0,0,.949-1.547,1.762,1.762,0,0,0-.575-1.54" fill="#fff"/>
          <path id="Trazado_250701" data-name="Trazado 250701" d="M206.09,513.573a2.03,2.03,0,0,0,1.434.649,1.886,1.886,0,0,0,1.384-.642c.934.9,1.4,1.35,2.342,2.243-.012.028-.019.041-.031.068a3.873,3.873,0,0,1-3.3,1.3,6.438,6.438,0,0,1-5.648-6.216,6.613,6.613,0,0,1,2.119-4.384l.249-.248A6.81,6.81,0,0,1,209,504.2a5.6,5.6,0,0,1,4.424,1.813,5.48,5.48,0,0,1,1.818,3.614,4.431,4.431,0,0,1-1.407,3.516l-.066.034c-.933-.886-1.4-1.331-2.322-2.225a2.493,2.493,0,0,0,.75-1.548,1.829,1.829,0,0,0-.614-1.5,2.025,2.025,0,0,0-2.122-.594,5.7,5.7,0,0,0-2.313,1.531l-.246.25a5.587,5.587,0,0,0-1.5,2.352,2.078,2.078,0,0,0,.691,2.135" fill="#fff"/>
          <path id="Trazado_250702" data-name="Trazado 250702" d="M215.569,525.759a6.863,6.863,0,0,1,.364-.9,6.1,6.1,0,0,1,.513-.864,4.735,4.735,0,0,1-2.115.146,3.775,3.775,0,0,1-2.007-1.021,4.59,4.59,0,0,1-1.658-2.95,3.57,3.57,0,0,1,1.1-2.807,3.323,3.323,0,0,1,3.066-1.081,7.747,7.747,0,0,1,3.873,2.2c.585.537.878.806,1.465,1.341l.679-.745a1.944,1.944,0,0,0,.59-1.381,1.976,1.976,0,0,0-.742-1.364,1.953,1.953,0,0,0-1.243-.6,1.4,1.4,0,0,0-1.093.5c-.994-.922-1.49-1.385-2.477-2.315l.031-.068a3.207,3.207,0,0,1,2.945-1.037,6.406,6.406,0,0,1,3.694,1.836,5.963,5.963,0,0,1,2.02,3.393,3.973,3.973,0,0,1-1.123,3.418l-3.5,3.9a9.436,9.436,0,0,0-1.013,1.342,8.051,8.051,0,0,0-.705,1.461c-1.069-.956-1.6-1.437-2.663-2.4m-.877-3.9a3.119,3.119,0,0,0,1.528.8,2.425,2.425,0,0,0,1.436-.085l1.208-1.325c-.59-.538-.885-.807-1.472-1.347a2.431,2.431,0,0,0-1.622-.764,1.741,1.741,0,0,0-1.325.576,1.292,1.292,0,0,0-.38,1.047,1.766,1.766,0,0,0,.627,1.1" fill="#fff"/>
          <path id="Trazado_250703" data-name="Trazado 250703" d="M222.651,532.057c-1.086-.945-1.627-1.42-2.706-2.374l12.114-13.692c1.033.914,1.552,1.37,2.593,2.276l-12,13.79" fill="#fff"/>
          <path id="Trazado_250704" data-name="Trazado 250704" d="M235.62,526.477l-.972,1.373a4.364,4.364,0,0,1,2.109-.071,4.624,4.624,0,0,1,1.989,1.011,4.069,4.069,0,0,1,1.3,1.774,3.37,3.37,0,0,1,.009,2.113,4.483,4.483,0,0,1,2.218-.25,4.343,4.343,0,0,1,2.116.968,3.767,3.767,0,0,1,1.544,2.928,6.255,6.255,0,0,1-1.635,3.882l-4.649,5.915c-1.134-.892-1.7-1.34-2.826-2.24l4.7-5.887a3.476,3.476,0,0,0,.947-1.958,1.743,1.743,0,0,0-.745-1.366,2.53,2.53,0,0,0-1.211-.565,2.392,2.392,0,0,0-1.245.143q-.141.172-.231.3c-.061.087-.125.173-.194.257l-5.264,6.46c-1.113-.908-1.669-1.364-2.775-2.28l4.808-5.8a3.491,3.491,0,0,0,.97-1.928,1.734,1.734,0,0,0-.718-1.4,2.822,2.822,0,0,0-1.126-.6,2.4,2.4,0,0,0-1.157,0l-5.966,7.064c-1.1-.926-1.644-1.392-2.733-2.327l8.26-9.62c.985.845,1.479,1.267,2.471,2.1" fill="#fff"/>
          <path id="Trazado_250705" data-name="Trazado 250705" d="M248.108,552.6a6.987,6.987,0,0,1,.276-.936,6.059,6.059,0,0,1,.427-.909,4.736,4.736,0,0,1-2.1.344,3.8,3.8,0,0,1-2.1-.829,4.618,4.618,0,0,1-1.941-2.785,3.564,3.564,0,0,1,.82-2.9,3.319,3.319,0,0,1,2.953-1.365,7.8,7.8,0,0,1,4.077,1.827c.636.482.955.722,1.593,1.2l.6-.806a1.935,1.935,0,0,0,.454-1.433,1.984,1.984,0,0,0-.873-1.289,1.961,1.961,0,0,0-1.3-.478,1.4,1.4,0,0,0-1.042.6c-1.082-.826-1.621-1.241-2.7-2.075.009-.028.014-.043.024-.071a3.2,3.2,0,0,1,2.836-1.31,6.443,6.443,0,0,1,3.864,1.483,6.01,6.01,0,0,1,2.348,3.193,3.972,3.972,0,0,1-.787,3.514l-3.108,4.217a9.467,9.467,0,0,0-.88,1.433,7.982,7.982,0,0,0-.56,1.523c-1.161-.853-1.739-1.282-2.893-2.144m-1.255-3.807a3.141,3.141,0,0,0,1.6.653,2.435,2.435,0,0,0,1.425-.219l1.075-1.435c-.641-.48-.961-.721-1.6-1.205a2.451,2.451,0,0,0-1.693-.609,1.738,1.738,0,0,0-1.266.7,1.291,1.291,0,0,0-.277,1.079,1.774,1.774,0,0,0,.733,1.037" fill="#fff"/>
          <path id="Trazado_250706" data-name="Trazado 250706" d="M120.828,433.673c1.426-.246,2.138-.371,3.561-.625.377.626.566.938.945,1.562l-5.447,3.311c-.657-1.08-.984-1.622-1.634-2.708l2.575-1.54M123,437.257c1.424-.259,2.135-.391,3.555-.658.383.622.574.932.959,1.553l-5.417,3.361c-.666-1.074-1-1.613-1.657-2.692l2.56-1.564" fill="#fff"/>
          <path id="Trazado_250707" data-name="Trazado 250707" d="M117.232,453.824c-.831-1.29-1.244-1.937-2.064-3.234l15.45-9.773c.788,1.247,1.185,1.869,1.984,3.108l-15.37,9.9" fill="#fff"/>
          <path id="Trazado_250708" data-name="Trazado 250708" d="M125.328,462.657a4.507,4.507,0,0,1-2.233-.5,4.788,4.788,0,0,1-1.767-1.644,4.52,4.52,0,0,1-.806-3.676,6.008,6.008,0,0,1,2.839-3.365l6.151-4.019c.814,1.245,1.223,1.866,2.047,3.105l-6.138,4.081a3.75,3.75,0,0,0-1.62,1.681,1.891,1.891,0,0,0,.356,1.638,4.141,4.141,0,0,0,1.1,1.152,2.577,2.577,0,0,0,1.245.448l7.628-5.184c.838,1.234,1.26,1.85,2.108,3.076l-10.428,7.213c-.723-1.045-1.082-1.569-1.8-2.619.528-.557.792-.835,1.321-1.391" fill="#fff"/>
          <path id="Trazado_250709" data-name="Trazado 250709" d="M139.8,464.544l-1.383,1.189a4.95,4.95,0,0,1,2.219.505,4.77,4.77,0,0,1,1.76,1.516,4.335,4.335,0,0,1,.932,3.369,5.54,5.54,0,0,1-2.442,3.273l-6.244,4.624c-.915-1.236-1.37-1.855-2.274-3.1l6.272-4.566A2.843,2.843,0,0,0,139.9,469.8a2.019,2.019,0,0,0-.454-1.6,3.555,3.555,0,0,0-1.091-1.026,2.837,2.837,0,0,0-1.252-.392l-7.472,5.325c-.89-1.247-1.332-1.873-2.211-3.129l10.385-7.275c.8,1.138,1.2,1.706,2,2.837" fill="#fff"/>
          <path id="Trazado_250710" data-name="Trazado 250710" d="M141.434,487.958a6.663,6.663,0,0,1,.5-.845,5.808,5.808,0,0,1,.645-.774,4.865,4.865,0,0,1-2.166-.292,4.208,4.208,0,0,1-1.888-1.46,5.094,5.094,0,0,1-1.255-3.356,3.466,3.466,0,0,1,1.516-2.637,3.264,3.264,0,0,1,3.264-.462,8.688,8.688,0,0,1,3.612,3.054c.516.671.775,1.006,1.293,1.674l.8-.618a1.869,1.869,0,0,0,.8-1.285,2.671,2.671,0,0,0-1.732-2.415,1.356,1.356,0,0,0-1.18.278c-.876-1.15-1.312-1.726-2.18-2.883l.041-.063a3.148,3.148,0,0,1,3.136-.442,7.149,7.149,0,0,1,3.485,2.649,6.651,6.651,0,0,1,1.563,3.885,3.875,3.875,0,0,1-1.632,3.251l-4.112,3.245a8.875,8.875,0,0,0-1.223,1.156,7.608,7.608,0,0,0-.926,1.341c-.947-1.2-1.418-1.8-2.355-3m-.326-4.16a3.494,3.494,0,0,0,1.434,1.134,2.5,2.5,0,0,0,1.469.213l1.417-1.1c-.521-.672-.781-1.008-1.3-1.682a2.7,2.7,0,0,0-1.535-1.118,1.693,1.693,0,0,0-1.427.311,1.258,1.258,0,0,0-.536.989,1.96,1.96,0,0,0,.477,1.252" fill="#fff"/>
          <path id="Trazado_250711" data-name="Trazado 250711" d="M153.839,493.495a7.761,7.761,0,0,1,4.64-1.978,4.765,4.765,0,0,1,3.96,1.878,4.181,4.181,0,0,1,.887,1.687,4.422,4.422,0,0,1,.05,1.868l5.287-4.509c.958,1.122,1.439,1.682,2.407,2.8l-13.812,11.978c-.855-.987-1.28-1.481-2.129-2.473.389-.505.583-.757.973-1.261a4.355,4.355,0,0,1-3.754-1.639,4.966,4.966,0,0,1-1.278-4.208,6.746,6.746,0,0,1,2.579-3.984l.19-.156m2.21,3.057a4.742,4.742,0,0,0-1.611,2.157,2.239,2.239,0,0,0,.576,2.17,3.208,3.208,0,0,0,1.155.9,2.528,2.528,0,0,0,1.314.2l4.11-3.506a2.774,2.774,0,0,0,.073-1.351,2.815,2.815,0,0,0-.644-1.278,2.154,2.154,0,0,0-2.145-.821,5.845,5.845,0,0,0-2.639,1.373l-.189.158" fill="#fff"/>
          <path id="Trazado_250712" data-name="Trazado 250712" d="M163.109,514.2a6.681,6.681,0,0,1-1.995-4.849,5.97,5.97,0,0,1,2.2-4.288l.353-.309a6.61,6.61,0,0,1,4.623-1.805,6.071,6.071,0,0,1,4.432,2.258,5.7,5.7,0,0,1,1.715,4.212,5.878,5.878,0,0,1-2.085,3.955l-1.3,1.2c-2.269-2.455-3.392-3.693-5.615-6.188l-.079.017a3.222,3.222,0,0,0-.989,2.059,3.105,3.105,0,0,0,.961,2.28,8.5,8.5,0,0,0,1.632,1.449,9.23,9.23,0,0,0,1.772.877c-.343.873-.514,1.311-.854,2.186a7.3,7.3,0,0,1-2.326-.99,11.1,11.1,0,0,1-2.444-2.065m7.652-7.228a2.175,2.175,0,0,0-1.689-.82,3.379,3.379,0,0,0-1.9.7l-.027.058c1.221,1.37,1.836,2.053,3.071,3.411l.19-.174a2.77,2.77,0,0,0,.96-1.549,1.934,1.934,0,0,0-.61-1.627" fill="#fff"/>
          <path id="Trazado_250713" data-name="Trazado 250713" d="M184.769,518.412l-1.093,1.279a4.573,4.573,0,0,1,2.176.205,5.191,5.191,0,0,1,1.981,1.3,4.55,4.55,0,0,1,1.222,1.989,3.421,3.421,0,0,1-.134,2.165,4.637,4.637,0,0,1,2.3.035,4.872,4.872,0,0,1,2.116,1.268,4.13,4.13,0,0,1,1.394,3.2,5.992,5.992,0,0,1-1.951,3.754l-5.2,5.439c-1.108-1.058-1.66-1.59-2.758-2.657l5.25-5.4a3.308,3.308,0,0,0,1.109-1.88,1.908,1.908,0,0,0-.675-1.495,2.829,2.829,0,0,0-1.209-.737,2.476,2.476,0,0,0-1.293-.017c-.1.106-.191.2-.259.28s-.14.16-.217.238l-5.862,5.922c-1.085-1.074-1.625-1.613-2.7-2.7l5.344-5.313a3.32,3.32,0,0,0,1.13-1.847,1.9,1.9,0,0,0-.645-1.528,3.16,3.16,0,0,0-1.118-.762,2.509,2.509,0,0,0-1.192-.155c-2.647,2.583-3.971,3.874-6.619,6.456-1.065-1.092-1.6-1.64-2.652-2.741l9.148-8.78c.958,1,1.438,1.495,2.4,2.485" fill="#fff"/>
          <path id="Trazado_250714" data-name="Trazado 250714" d="M203.345,532.3c-1.087-1.008-1.627-1.513-2.705-2.53L202.4,527.9c1.071,1.011,1.609,1.514,2.689,2.515l-1.745,1.882m-10.688,11.521c-1.124-1.042-1.683-1.566-2.8-2.617l8.7-9.225c1.085,1.023,1.629,1.532,2.722,2.546l-8.623,9.3" fill="#fff"/>
          <path id="Trazado_250715" data-name="Trazado 250715" d="M199.378,550.264a6.7,6.7,0,0,1-2.517-4.61,5.963,5.963,0,0,1,1.717-4.5l.317-.346a6.6,6.6,0,0,1,4.4-2.295,6.086,6.086,0,0,1,4.658,1.769,5.713,5.713,0,0,1,2.169,4.006,5.873,5.873,0,0,1-1.64,4.16l-1.161,1.335c-2.528-2.2-3.781-3.309-6.267-5.552l-.076.026a3.223,3.223,0,0,0-.759,2.155,3.107,3.107,0,0,0,1.207,2.165,8.518,8.518,0,0,0,1.783,1.266,9.221,9.221,0,0,0,1.859.681c-.245.907-.367,1.36-.609,2.269a7.343,7.343,0,0,1-2.423-.735,11.137,11.137,0,0,1-2.659-1.791m6.82-8.018a2.181,2.181,0,0,0-1.77-.634,3.374,3.374,0,0,0-1.809.9l-.02.061c1.365,1.231,2.051,1.844,3.429,3.062l.171-.193a2.772,2.772,0,0,0,.785-1.645,1.941,1.941,0,0,0-.786-1.553" fill="#fff"/>
          <path id="Trazado_250716" data-name="Trazado 250716" d="M208.554,557.911c-1.171-.992-1.755-1.49-2.918-2.491l11.928-13.854c1.117.962,1.678,1.441,2.8,2.394l-11.814,13.951" fill="#fff"/>
          <path id="Trazado_250717" data-name="Trazado 250717" d="M222.494,551.276c-1.251.7-1.878,1.05-3.134,1.745-.57-.472-.854-.709-1.422-1.183l4.085-4.894c.957.8,1.437,1.2,2.4,1.989l-1.929,2.343m3.322,2.709c-1.244.712-1.868,1.067-3.117,1.773-.575-.466-.862-.7-1.434-1.169,1.615-1.973,2.423-2.96,4.039-4.932.965.79,1.448,1.183,2.419,1.967l-1.907,2.361" fill="#fff"/>
          <path id="Trazado_250718" data-name="Trazado 250718" d="M445.6,566.7c-2.181,1.453-3.278,2.172-5.481,3.594,1.057,1.639,1.586,2.458,2.644,4.1,2.647-1.709,3.963-2.575,6.579-4.327.585.872.877,1.308,1.461,2.181-3.827,2.564-5.758,3.823-9.653,6.295l-9.142-14.407c3.744-2.376,5.6-3.586,9.279-6.051l1.467,2.191c-2.541,1.7-3.819,2.543-6.391,4.2.93,1.441,1.395,2.162,2.326,3.6,2.191-1.414,3.281-2.129,5.449-3.574l1.462,2.2" fill="#fff"/>
          <path id="Trazado_250719" data-name="Trazado 250719" d="M451.888,561.035l.06-.041c-.259-1.783-.392-2.673-.664-4.45,1.3-.907,1.942-1.363,3.229-2.281.184,2.949.265,4.427.4,7.39,2.812,1.161,4.225,1.733,7.065,2.856-1.319.941-1.981,1.409-3.309,2.339-1.68-.878-2.517-1.32-4.186-2.211.248,1.876.368,2.815.6,4.7-1.342.921-2.014,1.378-3.364,2.287-.054-3.055-.092-4.579-.193-7.62-2.73-1.168-4.088-1.761-6.79-2.964,1.3-.879,1.955-1.322,3.252-2.212,1.553.89,2.332,1.332,3.894,2.211" fill="#fff"/>
          <path id="Trazado_250720" data-name="Trazado 250720" d="M469.291,551.7a7.017,7.017,0,0,1,1.647,4.425,4.558,4.558,0,0,1-2.027,3.651,4.411,4.411,0,0,1-1.715.806,3.754,3.754,0,0,1-1.761-.054l3.586,4.912c-1.169.854-1.756,1.279-2.932,2.124-4.1-5.7-6.145-8.555-10.241-14.258,1.023-.735,1.533-1.1,2.551-1.846l1.049,1.091a4.168,4.168,0,0,1,.36-1.853,3.835,3.835,0,0,1,1.25-1.483,4.384,4.384,0,0,1,4.1-.764,8.1,8.1,0,0,1,3.987,3.052c.06.079.09.118.149.2m-2.981,1.934a6.008,6.008,0,0,0-2.231-1.962,2.022,2.022,0,0,0-2.174.225,2.72,2.72,0,0,0-.9,1.057,2.294,2.294,0,0,0-.183,1.252l3.275,4.486a2.149,2.149,0,0,0,1.21.131,3.129,3.129,0,0,0,1.3-.6,2.07,2.07,0,0,0,.949-1.914,4.952,4.952,0,0,0-1.092-2.475l-.147-.2" fill="#fff"/>
          <path id="Trazado_250721" data-name="Trazado 250721" d="M477.659,552.824c-1.133.882-1.7,1.322-2.842,2.2L463.7,540.51c1.1-.84,1.642-1.261,2.73-2.109l11.233,14.423" fill="#fff"/>
          <path id="Trazado_250722" data-name="Trazado 250722" d="M475.553,546.272a6.736,6.736,0,0,1-1.6-4.655,5.761,5.761,0,0,1,2.363-4.213,5.825,5.825,0,0,1,4.627-1.451,6.7,6.7,0,0,1,4.231,2.536l.158.189a6.562,6.562,0,0,1,1.7,4.64,6.7,6.7,0,0,1-7.141,5.779,6.569,6.569,0,0,1-4.184-2.631l-.152-.194m2.917-2a5.323,5.323,0,0,0,2.234,1.777,2.207,2.207,0,0,0,2.255-.47,2.185,2.185,0,0,0,.9-2.094,5.3,5.3,0,0,0-1.263-2.554l-.156-.19a5.321,5.321,0,0,0-2.239-1.727,2.18,2.18,0,0,0-2.232.44,2.15,2.15,0,0,0-.878,2.084,5.368,5.368,0,0,0,1.222,2.542l.154.192" fill="#fff"/>
          <path id="Trazado_250723" data-name="Trazado 250723" d="M494.162,534.714a1.173,1.173,0,0,0-1.061-.36,5.875,5.875,0,0,0-2.051.83,8.434,8.434,0,0,1-3.539,1.239,2.9,2.9,0,0,1-2.487-1.108,3.486,3.486,0,0,1-.7-3.038,5.843,5.843,0,0,1,2.114-3.308,6.312,6.312,0,0,1,3.721-1.7,3.343,3.343,0,0,1,2.955,1.212l.028.069c-1.021.9-1.532,1.344-2.56,2.233a1.641,1.641,0,0,0-1.2-.608,2.417,2.417,0,0,0-2.16,1.762,1.265,1.265,0,0,0,.279,1.087,1.127,1.127,0,0,0,1.009.4,5.858,5.858,0,0,0,2.012-.854,8.743,8.743,0,0,1,3.612-1.312,2.988,2.988,0,0,1,2.541,1.1,3.292,3.292,0,0,1,.7,3.113,6.754,6.754,0,0,1-2.348,3.475A6.264,6.264,0,0,1,491,540.676a3.513,3.513,0,0,1-3-1.3c-.011-.028-.016-.042-.027-.069,1-.836,1.494-1.255,2.485-2.1a1.746,1.746,0,0,0,1.487.673,2.946,2.946,0,0,0,1.606-.773,2.517,2.517,0,0,0,.9-1.273,1.215,1.215,0,0,0-.287-1.124" fill="#fff"/>
          <path id="Trazado_250724" data-name="Trazado 250724" d="M493.084,519.379c-1.028.928-1.544,1.391-2.58,2.312l-1.7-1.918c1.03-.916,1.542-1.376,2.565-2.3l1.72,1.905m10.534,11.661c-1.064.961-1.6,1.44-2.67,2.393l-8.426-9.474c1.042-.928,1.561-1.393,2.6-2.328l8.5,9.409" fill="#fff"/>
          <path id="Trazado_250725" data-name="Trazado 250725" d="M501.037,524.662a6.747,6.747,0,0,1-1.939-4.524,5.747,5.747,0,0,1,2.046-4.37,5.808,5.808,0,0,1,4.5-1.781,6.71,6.71,0,0,1,4.4,2.222l.171.177a6.567,6.567,0,0,1,2.036,4.5,6.689,6.689,0,0,1-6.693,6.276,6.571,6.571,0,0,1-4.363-2.321l-.166-.182m2.76-2.2a5.329,5.329,0,0,0,2.357,1.61,2.2,2.2,0,0,0,2.214-.632,2.179,2.179,0,0,0,.746-2.152,5.3,5.3,0,0,0-1.447-2.454c-.068-.072-.1-.107-.169-.179a5.323,5.323,0,0,0-2.359-1.559,2.175,2.175,0,0,0-2.192.6,2.149,2.149,0,0,0-.722,2.141,5.374,5.374,0,0,0,1.4,2.446l.167.18m-5.689-10.945c1.117-1.051,1.673-1.578,2.781-2.639l.066.035c-.1,1.784-.158,2.678-.279,4.467-.861.812-1.292,1.217-2.159,2.023-.157-1.557-.239-2.334-.409-3.886" fill="#fff"/>
          <path id="Trazado_250726" data-name="Trazado 250726" d="M509.556,508c.554.474.832.71,1.387,1.184a4.734,4.734,0,0,1,.066-2.194,4.213,4.213,0,0,1,1.115-1.875,3.908,3.908,0,0,1,3.03-1.3,5.788,5.788,0,0,1,3.564,1.947l5.554,5.433c-1.006,1.029-1.511,1.541-2.525,2.561l-5.5-5.468a2.985,2.985,0,0,0-1.711-1.014,1.823,1.823,0,0,0-1.433.631,3.137,3.137,0,0,0-.772,1.173,2.689,2.689,0,0,0-.14,1.251l6.448,6.529c-1.02,1.007-1.532,1.509-2.56,2.508l-8.84-9.09c.931-.9,1.4-1.36,2.32-2.272" fill="#fff"/>
          <path id="Trazado_250727" data-name="Trazado 250727" d="M530.259,498.034l1.018.624.05-.054-.7-.972c-1.756-2.792-2.641-4.183-4.42-6.955.981-1.077,1.469-1.617,2.442-2.7,2.6,4.7,3.885,7.058,6.408,11.814-.924,1.011-1.388,1.515-2.32,2.519-4.947-2.126-7.407-3.209-12.3-5.419,1-1.058,1.5-1.589,2.492-2.655,2.922,1.533,4.387,2.293,7.327,3.8" fill="#fff"/>
          <path id="Trazado_250728" data-name="Trazado 250728" d="M529.807,482.1c-.913,1.042-1.372,1.562-2.293,2.6l-1.917-1.706c.916-1.03,1.372-1.546,2.28-2.582l1.93,1.691m11.82,10.356c-.945,1.079-1.42,1.616-2.373,2.688l-9.472-8.43c.927-1.042,1.389-1.564,2.308-2.614l9.537,8.356" fill="#fff"/>
          <path id="Trazado_250729" data-name="Trazado 250729" d="M538.321,486.417a6.748,6.748,0,0,1-2.452-4.269,5.75,5.75,0,0,1,1.525-4.58,5.819,5.819,0,0,1,4.269-2.3,6.713,6.713,0,0,1,4.634,1.693l.19.156a6.568,6.568,0,0,1,2.545,4.237,6.7,6.7,0,0,1-5.921,7.018,6.572,6.572,0,0,1-4.6-1.8l-.186-.161m2.486-2.512a5.332,5.332,0,0,0,2.528,1.325,2.205,2.205,0,0,0,2.126-.887,2.18,2.18,0,0,0,.492-2.225,5.291,5.291,0,0,0-1.723-2.27l-.189-.158a5.323,5.323,0,0,0-2.524-1.274,2.181,2.181,0,0,0-2.108.852,2.151,2.151,0,0,0-.469,2.212,5.362,5.362,0,0,0,1.68,2.265l.187.16" fill="#fff"/>
          <path id="Trazado_250730" data-name="Trazado 250730" d="M555.055,476.411c-.9,1.121-1.347,1.68-2.252,2.794l-14.19-11.526c.87-1.07,1.3-1.607,2.164-2.684l14.278,11.416" fill="#fff"/>
          <path id="Trazado_250731" data-name="Trazado 250731" d="M560.63,469.7a6.053,6.053,0,0,1-4.223,2.6,6.181,6.181,0,0,1-4.547-1.472l-.368-.291a6.87,6.87,0,0,1-2.677-4.137,5.511,5.511,0,0,1,1.245-4.541,5.16,5.16,0,0,1,3.674-2.236,6.115,6.115,0,0,1,4.21,1.413l1.415,1.063c-1.884,2.509-2.837,3.755-4.763,6.229l.033.072a3.334,3.334,0,0,0,2.17.645,2.81,2.81,0,0,0,1.981-1.243,7.533,7.533,0,0,0,1.051-1.761,8.362,8.362,0,0,0,.475-1.81c.906.2,1.359.3,2.267.5a6.694,6.694,0,0,1-.471,2.354,9.847,9.847,0,0,1-1.472,2.621m-8.481-6.235a1.982,1.982,0,0,0-.436,1.724,3.507,3.507,0,0,0,1.059,1.7l.061.017c1.058-1.36,1.584-2.042,2.629-3.411l-.2-.157a2.909,2.909,0,0,0-1.678-.689,1.761,1.761,0,0,0-1.43.814" fill="#fff"/>
          <path id="Trazado_250732" data-name="Trazado 250732" d="M556.63,453.505l1.556.948a4.763,4.763,0,0,1-.28-2.181,4.252,4.252,0,0,1,.806-2.033,3.932,3.932,0,0,1,2.791-1.777,5.775,5.775,0,0,1,3.831,1.352l6.347,4.482c-.832,1.179-1.251,1.767-2.094,2.94-2.519-1.81-3.781-2.715-6.3-4.525a2.975,2.975,0,0,0-1.85-.727,1.83,1.83,0,0,0-1.318.854,3.152,3.152,0,0,0-.578,1.284,2.7,2.7,0,0,0,.058,1.26c2.963,2.169,4.442,3.253,7.4,5.422-.849,1.16-1.276,1.738-2.133,2.891l-10.173-7.571c.778-1.045,1.165-1.568,1.936-2.619" fill="#fff"/>
          <path id="Trazado_250733" data-name="Trazado 250733" d="M562.645,439.639l2.563,1.753c.5-.725.743-1.087,1.235-1.814.8.538,1.194.807,1.989,1.346-.494.731-.742,1.1-1.24,1.824l5.33,3.645a1.43,1.43,0,0,0,1.053.327,1.166,1.166,0,0,0,.742-.526,3.62,3.62,0,0,0,.251-.422,4.255,4.255,0,0,0,.186-.452c.885.457,1.327.686,2.213,1.141a7.407,7.407,0,0,1-.373,1.021,6.537,6.537,0,0,1-.556.972,3.918,3.918,0,0,1-2.424,1.809,4.123,4.123,0,0,1-3.1-.936l-5.311-3.692c-.435.625-.653.937-1.09,1.561l-1.967-1.38c.435-.62.652-.93,1.084-1.552l-2.55-1.773c.791-1.137,1.185-1.708,1.967-2.852" fill="#fff"/>
          <path id="Trazado_250734" data-name="Trazado 250734" d="M582.508,438.266a6.813,6.813,0,0,1-.952-.211,6.154,6.154,0,0,1-.937-.364,4.726,4.726,0,0,1,.49,2.064,3.8,3.8,0,0,1-.68,2.151,4.607,4.607,0,0,1-2.64,2.124,3.568,3.568,0,0,1-2.95-.618,3.316,3.316,0,0,1-1.569-2.848,7.763,7.763,0,0,1,1.538-4.19c.435-.667.653-1,1.086-1.669l-.847-.548a1.939,1.939,0,0,0-1.459-.355,1.984,1.984,0,0,0-1.226.959,1.961,1.961,0,0,0-.386,1.327,1.39,1.39,0,0,0,.669,1c-.749,1.136-1.125,1.7-1.882,2.831l-.072-.019a3.2,3.2,0,0,1-1.505-2.737A6.429,6.429,0,0,1,570.4,433.2a5.991,5.991,0,0,1,3.023-2.559,3.969,3.969,0,0,1,3.559.546L581.4,434a9.361,9.361,0,0,0,1.49.78,7.924,7.924,0,0,0,1.556.456c-.77,1.214-1.157,1.819-1.936,3.026m-3.708,1.509a3.145,3.145,0,0,0,.54-1.641,2.436,2.436,0,0,0-.318-1.4l-1.5-.975c-.435.672-.653,1.007-1.091,1.677a2.442,2.442,0,0,0-.489,1.728,1.743,1.743,0,0,0,.785,1.214,1.3,1.3,0,0,0,1.1.2,1.772,1.772,0,0,0,.982-.8" fill="#fff"/>
        </g>
      </g>
    </g>
  </g>
</svg>
