<svg id="Grupo_173496" data-name="Grupo 173496" xmlns="http://www.w3.org/2000/svg" xmlns:xlink="http://www.w3.org/1999/xlink" width="318.869" height="215.395" viewBox="0 0 318.869 215.395">
  <defs>
    <clipPath id="clip-path">
      <rect id="Rectángulo_216058" data-name="Rectángulo 216058" width="318.869" height="215.395" fill="none"/>
    </clipPath>
  </defs>
  <g id="Grupo_173495" data-name="Grupo 173495" clip-path="url(#clip-path)">
    <path id="Trazado_236964" data-name="Trazado 236964" d="M37.729,215.394H298.547c42.692-67.847-33.173-69.932-46.111-146.686-9.727-57.7-40.872-88.882-90.251-54.179C84.593,69.06,57.522,62.683,32.878,82.593c-41.126,33.224-48.152,97.247,4.851,132.8" transform="translate(0 0)" fill="#e9f8ff"/>
    <rect id="Rectángulo_216056" data-name="Rectángulo 216056" width="88.076" height="165.494" rx="10.209" transform="translate(27.547 14.536)" fill="#26264c"/>
    <path id="Trazado_236965" data-name="Trazado 236965" d="M118.818,27.706v144.06a2.956,2.956,0,0,1-2.956,2.957H44.046a2.955,2.955,0,0,1-2.957-2.957V27.706a2.955,2.955,0,0,1,2.957-2.956h71.816a2.956,2.956,0,0,1,2.956,2.956" transform="translate(-8.368 -5.04)" fill="#eaf4f9"/>
    <path id="Trazado_236966" data-name="Trazado 236966" d="M137.006,27.706v144.06a2.956,2.956,0,0,1-2.956,2.957H130.4a2.955,2.955,0,0,0,2.956-2.957V27.706A2.955,2.955,0,0,0,130.4,24.75h3.651a2.956,2.956,0,0,1,2.956,2.956" transform="translate(-26.556 -5.04)" fill="#accce8"/>
    <path id="Trazado_236967" data-name="Trazado 236967" d="M89.152,182.319V81.358a19.312,19.312,0,0,0-38.624,0V182.319Z" transform="translate(-10.29 -12.636)" fill="#fff"/>
    <path id="Rectángulo_216057" data-name="Rectángulo 216057" d="M10.209,0H77.868A10.208,10.208,0,0,1,88.076,10.208V155.284a10.209,10.209,0,0,1-10.209,10.209H10.209A10.209,10.209,0,0,1,0,155.284V10.209A10.209,10.209,0,0,1,10.209,0Z" transform="translate(202.156 30.619)" fill="#26264c"/>
    <path id="Trazado_236968" data-name="Trazado 236968" d="M335.125,44.945H263.308a2.956,2.956,0,0,0-2.956,2.956V191.962a2.956,2.956,0,0,0,2.956,2.956h71.817a2.955,2.955,0,0,0,2.956-2.956V47.9a2.955,2.955,0,0,0-2.956-2.956" transform="translate(-53.022 -9.153)" fill="#eaf4f9"/>
    <path id="Trazado_236969" data-name="Trazado 236969" d="M260.352,47.9V191.963a2.955,2.955,0,0,0,2.956,2.956h3.651A2.955,2.955,0,0,1,264,191.963V47.9a2.955,2.955,0,0,1,2.956-2.956h-3.651a2.955,2.955,0,0,0-2.956,2.956" transform="translate(-53.022 -9.153)" fill="#accce8"/>
    <path id="Trazado_236970" data-name="Trazado 236970" d="M283.478,202.462h51.8V102.645a20.808,20.808,0,0,0-20.809-20.808h-10.18a20.808,20.808,0,0,0-20.808,20.808Z" transform="translate(-57.732 -16.667)" fill="#fff"/>
    <path id="Trazado_236971" data-name="Trazado 236971" d="M218.256,82.57c-.1,6.389-4.522,8.663-4.522,8.663s-11-.138-16.18,6.56c-4.952,6.406-10.449-.641-10.927-1.266l-.033-.049s.406,2.63-.706,9.937a45.629,45.629,0,0,1-3.662,12.389l-7.713,2.533a41.059,41.059,0,0,1-2.346-8.257,69.548,69.548,0,0,1-1.2-14.24c.2-14.166,11.163-13.022,11.163-13.022-.1-5.789,1.722-15.222,11.772-19.485s17.454,3.654,17.454,3.654c4.263,1.73,7,6.195,6.9,12.584" transform="translate(-34.816 -13.252)" fill="#2f2159"/>
    <path id="Trazado_236972" data-name="Trazado 236972" d="M186.2,112.394a45.646,45.646,0,0,1-3.662,12.389l-7.712,2.533a40.992,40.992,0,0,1-2.346-8.257c1.891-1.486,4.619-.885,6.714-1.575,3.044-1,4.464-5.285,3.344-10.773-1.112-5.472.917-12.276.917-12.276s.107.5.917,3.247a14.653,14.653,0,0,0,2.533,4.774s.406,2.63-.706,9.937" transform="translate(-35.126 -19.232)" fill="#18132d"/>
    <path id="Trazado_236973" data-name="Trazado 236973" d="M197.68,89.892s-.106-.08-.288-.2c-.78-.491-2.962-1.614-4.279.2-1.623,2.233-.105,6.191,1.165,7.1s1.778.812,2.082,2.132.006,7.916-1.316,10.859a31.692,31.692,0,0,1-3.365,5.581s-1.468,5.178,4.276,7a51.614,51.614,0,0,0,12.178,2.025l4.431-1.45-7.26-8.787a10.877,10.877,0,0,1-.164-3.408,17.733,17.733,0,0,1,.456-2.79,6.43,6.43,0,0,0,5.582-1.827,29.251,29.251,0,0,0,6.951-13.345c1.015-5.48.71-6.292,0-9.945s-1.675-4.364-1.675-4.364a4.3,4.3,0,0,0-4.617,2.232c-1.675,2.943-1.574,3.451-5.125,6.039s-7.763,3.349-9.031,2.942" transform="translate(-39.002 -16.008)" fill="#f9c3a5"/>
    <path id="Trazado_236974" data-name="Trazado 236974" d="M213.774,258.308H160.906a48.006,48.006,0,0,1,.811-5.926c.811-4.775.909-9.036,3.443-19.29s4.27-22.115,4.27-22.115l25.184-.162,14.2-.1s1,9.084,2.119,17.61c.755,5.731,1.777,17.317,2.37,24.29.285,3.393.471,5.691.471,5.691" transform="translate(-32.769 -42.914)" fill="#3c259e"/>
    <path id="Trazado_236975" data-name="Trazado 236975" d="M194.613,210.84c-.958,2.24-3.913,4.327-3.913,4.327s-18.64-.617-19.956,2.329-5.074,23.845-5.277,27.6,1.121,4.36,0,7.307-1.315,4.465,5.277,4.563,18.478,1.363,18.478,1.363H160.9a48.023,48.023,0,0,1,.811-5.926c.812-4.774.91-9.035,3.443-19.289S169.43,211,169.43,211Z" transform="translate(-32.769 -42.939)" fill="#2f2159"/>
    <path id="Trazado_236976" data-name="Trazado 236976" d="M236.358,243.882c-1.08-1.965-1.624-4.538-1.551-2.915s1.347,5.147.877,7.444-3.247,5.074-4.262,2.5a38.571,38.571,0,0,1-2.03-10.075c0-2.168.342-4.133-.2-6.227s-6.689-21.522-8.979-28.723c-.706-2.207-1.437-4.944-2.055-7.729-1.4-6.3-2.19-12.885-.64-14.289,2.24-2.029,8.167-3.2,9.376-.585,0,0,.252,1.932.666,5.066,1.714,13.013,6.251,46.714,7.454,48.353a14.851,14.851,0,0,1,2.7,7.177c.2,2.435-.268,1.956-1.355,0" transform="translate(-44.125 -37.02)" fill="#f9c3a5"/>
    <path id="Trazado_236977" data-name="Trazado 236977" d="M227.557,188.35a35.686,35.686,0,0,1-2.224,3.126,43.641,43.641,0,0,1-7.177,6.681c-1.4-6.3-2.192-12.884-.64-14.289,2.24-2.029,8.167-3.2,9.376-.584,0,0,.252,1.931.666,5.066" transform="translate(-44.125 -37.02)" fill="#f48e76"/>
    <path id="Trazado_236978" data-name="Trazado 236978" d="M215.367,173.4c-.406,1.624-8.524,3.451-8.524,3.451a47.358,47.358,0,0,0-.609,10.554c.244,2.923.585,4.506.722,5.529a2.542,2.542,0,0,1-.113,1.575c-.512,1.015-19.484,3.556-26.791,3.15s-12.478-1.12-12.478-2.946v-20.5s-1.136,4.481-2.955,4.319c-1.234-.113-6.357-.755-9.734-1.527-1.6-.373-2.817-.779-3.044-1.168-.714-1.218,6.592-29.836,8.321-35.624s3.548-10.554,5.683-11.463a156.778,156.778,0,0,1,16.14-5.034,5.44,5.44,0,0,1,2.638-.243,20.137,20.137,0,0,0,1.566,2.565c1.819,2.55,5.132,6.008,9.491,5.554,6.8-.715,4.263-5.074,3.045-6.089a4.632,4.632,0,0,1-1.511-2.022c.122.049,1.4.6,3.1,1.4,3.628,1.7,9.2,4.507,9.668,6,.715,2.241,5.789,40.9,5.383,42.525" transform="translate(-30.913 -25.127)" fill="#f985cd"/>
    <path id="Trazado_236979" data-name="Trazado 236979" d="M213.379,178.405c-.812.138-36.4,3.385-38.157,4.871s1.9,15.969,4.335,16.643c1.843.519,20.629.641,31.435-1.437a2.533,2.533,0,0,1-.114,1.574c-.511,1.015-19.484,3.556-26.791,3.15s-12.479-1.12-12.479-2.947v-20.5s2.4-6.633,3.889-12.584,1.891-6.763,1.891-9.336V154.05s.406,8.663,6.227,11.1,27.464-.674,27.464-.674,1.081-1.624,0-6.227c-.966-4.116-1.827-7.038-2-7.607.35,1.055,3.15,9.6,4.295,13.022,1.218,3.654.812,14.614,0,14.744" transform="translate(-34.949 -30.679)" fill="#d15ec4"/>
    <path id="Trazado_236980" data-name="Trazado 236980" d="M203.5,133.714c-7.372,0-11.959-6.665-13.793-10a5.443,5.443,0,0,1,2.639-.243s4.253,8.833,11.057,8.119,4.262-5.074,3.044-6.089a4.634,4.634,0,0,1-1.51-2.022c.122.049,1.4.6,3.1,1.4,2.8,3.9,4.148,8.841-4.538,8.841" transform="translate(-38.634 -25.127)" fill="#ffa6e1"/>
    <path id="Trazado_236981" data-name="Trazado 236981" d="M186.189,126.034c-6.5-.268-13.006,1.063-17.179,3.385-4.611,2.574-1.477,1.762-.26,4.295s-2.16-1.721-4.327-1.047c-1.843.585-7.81,34.357-9.539,44.335-1.6-.373-2.817-.78-3.044-1.169-.714-1.218,6.593-29.836,8.322-35.624s3.548-10.554,5.683-11.463a156.618,156.618,0,0,1,16.14-5.034,5.459,5.459,0,0,1,2.639-.244,20.109,20.109,0,0,0,1.566,2.566" transform="translate(-30.913 -25.127)" fill="#ffa6e1"/>
    <path id="Trazado_236982" data-name="Trazado 236982" d="M183.255,134.345s6.63,10.824,17.59,10.013,12.989-11.908,10.012-10.69-4.6,3.654-11.636,3.383-17.32-13.125-15.967-2.706" transform="translate(-37.296 -26.532)" fill="#ffa6e1"/>
    <path id="Trazado_236983" data-name="Trazado 236983" d="M196.465,262.681c.2-1.169,3.434-20.475,3.24-24.705a36.447,36.447,0,0,1,.008-5.788s1.51,7.924,2.127,15.279c.6,7.356,4.36,9.289,7.5,10.2,2.168.625,7.858-.139,11.2-.674.285,3.393.471,5.691.471,5.691Z" transform="translate(-40.011 -47.286)" fill="#2f2159"/>
    <path id="Trazado_236984" data-name="Trazado 236984" d="M207.8,114.394a7.111,7.111,0,0,1-3.857-2.841l-1.624-2.334s2.842,12.914,3.654,11.277a41.891,41.891,0,0,0,1.827-6.1" transform="translate(-41.203 -22.243)" fill="#f48e76"/>
    <path id="Trazado_236985" data-name="Trazado 236985" d="M206.8,190.9l6.552-19.282a.812.812,0,0,1,.768-.55h8.693a.811.811,0,0,1,.766,1.08l-6.748,19.282a.813.813,0,0,1-.766.544h-8.5a.813.813,0,0,1-.769-1.073" transform="translate(-42.107 -34.839)" fill="#2f2159"/>
    <path id="Trazado_236986" data-name="Trazado 236986" d="M207.776,190.9l6.552-19.282a.813.813,0,0,1,.768-.55h8.693a.812.812,0,0,1,.767,1.08l-6.748,19.282a.815.815,0,0,1-.767.544h-8.5a.812.812,0,0,1-.768-1.073" transform="translate(-42.306 -34.839)" fill="#3c259e"/>
    <path id="Trazado_236987" data-name="Trazado 236987" d="M210.35,181.893c0,1.924-2.436,8.224-3.751,9.23-1.324,1.023-7.818.617-11.268.511s-16.441,7.306-22.936,10.757-17.454,6.593-20.9,2.533.5-17.861.5-17.861a36.162,36.162,0,0,0,12.689,2.07l-.917,3.824a88.843,88.843,0,0,0,11.877-3.653c5.886-2.339,17.86-5.895,18.778-7.112s2.841-3.548,4.157-4.06,1.526,1.324,2.03,2.59,3.345.463,5.585.358c2.224-.105,4.157-1.112,4.157.812" transform="translate(-30.564 -36.26)" fill="#f9c3a5"/>
    <path id="Trazado_236988" data-name="Trazado 236988" d="M165.174,191.439l-.917,3.824s-8.93-3.052-11.772-5.895a36.162,36.162,0,0,0,12.689,2.07" transform="translate(-31.054 -38.566)" fill="#f48e76"/>
    <path id="Trazado_236989" data-name="Trazado 236989" d="M227.069,173.048a.611.611,0,0,1-.551.432.316.316,0,0,1-.311-.432.611.611,0,0,1,.551-.431.316.316,0,0,1,.311.431" transform="translate(-46.065 -35.154)" fill="#fff"/>
    <path id="Trazado_236990" data-name="Trazado 236990" d="M101.312,54.421s-12.349-5.25-18.353,4.635-3.1,14.458-6.005,17S72.38,77.117,72.241,79.8s1.017,3.188-1.57,4.25-2.078,2.771-.739,5.5-5.081,2.935-3.141,7.634,5.265,4.191,8.315,2.436S80.724,89.1,89.94,94.331s11.406,3.634,11.406,3.634,1.752-2.34,1.2-4,2.833-1.54,2.032-4.681.246-5.543,1.478-6.221,1.379-4.8.8-7.822.257-4,2.008-6.466,2-13.919-7.55-14.351" transform="translate(-13.527 -10.799)" fill="#2f2159"/>
    <path id="Trazado_236991" data-name="Trazado 236991" d="M86.239,89.754a4.977,4.977,0,0,0,2.895-.724c.939-.815,2.448-2.14,2.464-4.065s-.97-2.649.477-5.543S95.493,75.681,95.909,73a35.765,35.765,0,0,1,1.539-7.375c.8-1.94,4.234-7.175,7.206-7.175s4.9,3.957,5.328,5.913a39.705,39.705,0,0,1,.292,9.423c-.277,3.095-1.386,8.546-4.7,10.3s-5.019-.4-5.019-.4a7.436,7.436,0,0,0-2.11,3.988,4.382,4.382,0,0,0,2.494,5.4c1.94,1.016,1.941,8.04-3.665,9.438s-10.716-3.388-10.716-3.388Z" transform="translate(-17.563 -11.904)" fill="#f48e76"/>
    <path id="Trazado_236992" data-name="Trazado 236992" d="M69.75,200.4l3.765-21.665.111.591,4.01,21.074H93.327c-.019-.379-.053-1.079-.1-2.043-.229-4.213-.754-13.391-1.486-22.024-.983-11.707-2.336-16.63-2.336-16.63l-27.715-8.868a58.162,58.162,0,0,0-6.652,16.008c-1.954,8.258-.8,30.529-.636,33.556Z" transform="translate(-10.98 -30.719)" fill="#3c259e"/>
    <path id="Trazado_236993" data-name="Trazado 236993" d="M58.107,200.689a144.542,144.542,0,0,1,.631-27.379c1.81-13.183,8.054-20.5,8.117-20.576l-.558-.485c-.064.074-6.45,7.545-8.291,20.961a145.154,145.154,0,0,0-.646,27.479Z" transform="translate(-11.606 -31.006)" fill="#6859c1"/>
    <path id="Trazado_236994" data-name="Trazado 236994" d="M130.7,154.185a1.99,1.99,0,0,1-1.98-.14l-.1-.06a4.345,4.345,0,0,1-.613-.414l-.037-.021-.147-.118-.03-.029a17.291,17.291,0,0,1-1.477-1.39,3.025,3.025,0,0,0-.585-.5,11.457,11.457,0,0,0-2.564-.88c-.237,0-3.829-.392-6.43-.673-1.5-.162-2.668-.3-2.668-.3s-.968-5.543,3.1-7.391c0,0,1.2.384,2.683.865,1.995.636,4.5,1.434,5.218,1.678a2.629,2.629,0,0,0,1.2.1c.237-.029.458-.081.665-.126a2.029,2.029,0,0,1,1.093.022,7.429,7.429,0,0,0,2.21-.17c1.257-.155,2.72-.177,3.607.813,1.574,1.752-1.2,7.665-3.141,8.729" transform="translate(-23.211 -28.974)" fill="#f48e76"/>
    <path id="Trazado_236995" data-name="Trazado 236995" d="M116.663,145.922a6.241,6.241,0,0,0,.08,4.035c-1.5-.162-2.667-.3-2.667-.3s-.969-5.543,3.1-7.391c0,0,1.2.385,2.681.865a7.8,7.8,0,0,0-3.192,2.786" transform="translate(-23.212 -28.974)" fill="#c65252"/>
    <path id="Trazado_236996" data-name="Trazado 236996" d="M132.218,156.876a4.464,4.464,0,0,1-.613-.412c.349.233.528.348.613.412" transform="translate(-26.802 -31.865)" fill="#fff"/>
    <path id="Trazado_236997" data-name="Trazado 236997" d="M131.373,156.285l.185.143-.037-.025Z" transform="translate(-26.755 -31.828)" fill="#fff"/>
    <path id="Trazado_236998" data-name="Trazado 236998" d="M130.752,154.046a17.44,17.44,0,0,1-1.478-1.39,6.782,6.782,0,0,1,.732-2.491,8.437,8.437,0,0,0,.466-.968s-1.848.518-1.988-.753a6.01,6.01,0,0,1,.739-2.882c.237-.029.458-.082.665-.127-.746,1.146-1.124,2.89-.251,3.253,1.05.443,2.313-.784,2.438-.909-.111.178-1.05,1.633-1.655,2.823a3.358,3.358,0,0,0,.332,3.444" transform="translate(-26.163 -29.619)" fill="#c65252"/>
    <path id="Trazado_236999" data-name="Trazado 236999" d="M129.835,145.525s.623-1.656,1.914-1.518,1.707.415,1.2,2.171a2.81,2.81,0,0,1-3.143,2.218c-1.153-.244.029-2.871.029-2.871" transform="translate(-26.333 -29.326)" fill="#ff9d8a"/>
    <path id="Trazado_237000" data-name="Trazado 237000" d="M107.089,134.021c-1.2.185-2.4.458-2.86,2.949s.458,4.627-.651,4.627a6.57,6.57,0,0,1-4.715-3.607c-.407-1.05-1.257-4.1-2.018-6.933-.79-2.934-1.486-5.631-1.486-5.631s-.783,4.021-1.382,7.76c-.3,1.878-.561,3.689-.657,4.894-.274,3.606.191,12.845-.643,13.495s-9.7,1.937-19.859-2.04c-5.291-2.069-8.706-3.909-10.539-5.379-1.692-1.36-2.039-2.4-1.285-3.023,1.566-1.293,6.09-10.163,7.11-12.2s1.566-22.268,4.019-26.422a8.862,8.862,0,0,1,1.369-1.752c2.808-2.794,7.146-3.725,8-3.163,0,0,1.478,8.33,8.691,9.165,3.658.424,4.719-1.4,5.01-3.216.283-1.762-.157-3.523.341-3.251,1.02.554,6.748,7.391,6.845,8.5.08,1.034,2.512,19.534,3.732,22.615a.941.941,0,0,0,.237.406,4.975,4.975,0,0,1,.806.732l.014.007c.591.666.79,1.339-.081,1.464" transform="translate(-12.345 -19.845)" fill="#f9c84e"/>
    <path id="Trazado_237001" data-name="Trazado 237001" d="M102.342,142.326c-.3,1.877-.562,3.689-.658,4.894Z" transform="translate(-20.708 -28.985)" fill="#f0aa97"/>
    <path id="Trazado_237002" data-name="Trazado 237002" d="M102.879,120.678a20.307,20.307,0,0,1-2.745,3.768,58.6,58.6,0,0,1-4.116,4.338c.24.911.526,1.991.826,3.1l6.12-11.085ZM82.029,106.744c1.863,3.213,4.608,8.757,6.384,12.035v-.006L90,121.361l0,0a.479.479,0,0,0,.334.11c1.743,0,7.611-5.454,8.726-6.385,0,0-4.435,2.757-6.933,2.757-2.448,0-9.8-10.673-10.094-11.1m-1.122-1.789c.307.428.679,1.027,1.1,1.746a13.976,13.976,0,0,0-1.1-1.746m-6.337-3.428a8.773,8.773,0,0,0-1.079.068,8.826,8.826,0,0,0-1.367,1.751c-2.454,4.154-3,24.39-4.021,26.422s-5.543,10.9-7.11,12.2a.944.944,0,0,0-.377.749c0,.595.53,1.363,1.664,2.274a118.969,118.969,0,0,0,6.747-11.338c1.752-3.881,1.944-11.087,1.944-12.749,0-.122.036-.179.1-.179.85,0,6.783,9.129,10.947,12.47,4.494,3.6,11.3,5.721,11.3,5.721.1-1.2.354-3.016.658-4.894.219-1.367.462-2.771.683-4-1.785,1.539-3.438,2.633-4.451,2.633a1.186,1.186,0,0,1-.217-.018c-3.044-.547-12.653-12.372-16.067-18.846a13.982,13.982,0,0,1-1.807-6.556,7.8,7.8,0,0,1,.875-3.881,3.1,3.1,0,0,1,.976-.813,3.707,3.707,0,0,1,1.75-.407,6.742,6.742,0,0,1,4.842,2.389,7.5,7.5,0,0,0-5.993-2.988" transform="translate(-12.345 -20.677)" fill="#f69750"/>
    <path id="Trazado_237003" data-name="Trazado 237003" d="M103.077,124.6c-3.193,3.732-8.2,8.537-10.14,8.182-3.045-.547-12.653-12.372-16.068-18.846s-.932-10.436-.932-10.436a3.1,3.1,0,0,1,.976-.813c1.958-1.042,4.981.008,6.7,2.106,2.033,2.491,8.219,15.706,9.328,16.726s7.856-5.269,9.061-6.275c.325-.273.71-.066,1.109.393.932,1.079,1.951,3.547,2.55,4.486a1.8,1.8,0,0,0,.214.288c.266.266-.968,2.055-2.794,4.19" transform="translate(-15.287 -20.83)" fill="#f9c84e"/>
    <path id="Trazado_237004" data-name="Trazado 237004" d="M115.668,139.89a3.8,3.8,0,0,0-1.579.3c-.3.15-.344.3.01.3a2.235,2.235,0,0,0,.319-.027,4.155,4.155,0,0,1,.6-.042,7.123,7.123,0,0,1,2.974.774,4.876,4.876,0,0,0-.806-.732.941.941,0,0,1-.237-.406,5.083,5.083,0,0,0-1.285-.166" transform="translate(-23.186 -28.489)" fill="#f58d50"/>
    <path id="Trazado_237005" data-name="Trazado 237005" d="M95.523,123.184v.006a15.407,15.407,0,0,0,1.581,2.585h0l0,0Z" transform="translate(-19.454 -25.087)" fill="#f58351"/>
    <path id="Trazado_237006" data-name="Trazado 237006" d="M95.293,123.191a42.7,42.7,0,0,1-.869,5.015c-.034.077-.034.111-.008.111a24.824,24.824,0,0,0,2.458-2.54h0a15.373,15.373,0,0,1-1.581-2.586" transform="translate(-19.225 -25.088)" fill="#f69750"/>
    <path id="Trazado_237007" data-name="Trazado 237007" d="M76.913,102.79a3.08,3.08,0,0,0-.976.813,7.794,7.794,0,0,0-.875,3.881,13.991,13.991,0,0,0,1.806,6.556c3.415,6.473,13.023,18.3,16.068,18.846a1.177,1.177,0,0,0,.216.018c2.078,0,6.844-4.6,9.924-8.2,0,0-6.661,5.124-9.969,5.124a2.606,2.606,0,0,1-.5-.046c-3.082-.621-14.663-15.151-16.2-19.467a9.8,9.8,0,0,1,.51-7.524" transform="translate(-15.287 -20.934)" fill="#fad473"/>
    <path id="Trazado_237008" data-name="Trazado 237008" d="M129.442,111.64c-.088.51,1.574,3.607-.51,5.129s-3.7,2.4-4.664,1.663-2.587-2.305-3.51-2.5-3.88,1.936-4.893,2.867c-.672.606-2.129,1.826-3.037,2.579-.6-.938-1.618-3.407-2.55-4.486,1.907-1.818,6.733-6.341,7.517-6.452.983-.141,8.181-.651,11.138-1.109s7.213-1.53,7.213-.281-6.607,2.077-6.7,2.587" transform="translate(-22.459 -22.09)" fill="#f48e76"/>
    <path id="Trazado_237009" data-name="Trazado 237009" d="M98.369,205.006c-.019-.379-.054-1.079-.1-2.043-3.917-.044-8.2-.835-10.443-3.673-4.774-6.038-7.051-25.845-7.051-25.845l-2.106,10.487,4.011,21.074Z" transform="translate(-16.021 -35.323)" fill="#2f2159"/>
    <path id="Trazado_237010" data-name="Trazado 237010" d="M103.164,89.355,99.33,86.28s-.678,8.6,0,7.8,3.834-4.727,3.834-4.727" transform="translate(-20.168 -17.571)" fill="#c65252"/>
    <path id="Trazado_237011" data-name="Trazado 237011" d="M60.4,21.674V28.6a8.9,8.9,0,0,1-5.728,8.292c.007.37.022.784.029,1.257.06,3.134,3.6,6.452,3.865,6.7a44.3,44.3,0,0,1-7.745-3.688,11.691,11.691,0,0,1-3.762-3.7H15.776A8.867,8.867,0,0,1,6.907,28.6V21.674a8.841,8.841,0,0,1,8.869-8.869H51.533A8.871,8.871,0,0,1,60.4,21.674" transform="translate(-1.407 -2.608)" fill="#ff6969"/>
    <path id="Trazado_237012" data-name="Trazado 237012" d="M36.288,29.393c.436.774,1.687,2.157,1.341,2.765-.18.318-.643,1.2-1.051,1.969l-.034.014s-8.681-7.347-7.077-12.656,7.077-3.2,8.55,0l.152-.1c.311.788.573,1.59.449,1.734-.256.3-1.894,1.431-1.679,1.728s1.9,1.728,1.9,1.9-2.986,1.859-2.551,2.64" transform="translate(-5.961 -3.716)" fill="#fff"/>
    <path id="Trazado_237013" data-name="Trazado 237013" d="M40.829,34.556c.408-.773.87-1.651,1.05-1.97.346-.608-.905-1.989-1.341-2.763s2.551-2.468,2.551-2.641-1.687-1.6-1.9-1.9,1.424-1.425,1.679-1.728c.124-.145-.138-.947-.449-1.735v-.006c.823-.5,4.783-2.731,7.706-.463,3.283,2.551.616,10.223-9.3,13.207" transform="translate(-8.247 -4.144)" fill="#fff"/>
    <path id="Trazado_237014" data-name="Trazado 237014" d="M58.569,45.169a44.3,44.3,0,0,1-7.746-3.688,11.694,11.694,0,0,1-3.761-3.7H15.777a8.867,8.867,0,0,1-8.87-8.869V21.991a8.9,8.9,0,0,1,4.324-7.627c-1.153,5.721-2.247,16.726,5.742,18.892,7.295,1.973,28.58,1.308,41.884.65a8.8,8.8,0,0,1-4.183,3.3c.007.37.022.783.029,1.257.059,3.134,3.6,6.452,3.865,6.7" transform="translate(-1.407 -2.925)" fill="#db4d7d"/>
    <path id="Trazado_237015" data-name="Trazado 237015" d="M333.241,39.066v6.925a8.71,8.71,0,0,0,1.544,4.988,8.8,8.8,0,0,0,4.183,3.3c-.006.37-.022.784-.029,1.257-.059,3.134-3.6,6.452-3.865,6.7a44.269,44.269,0,0,0,7.745-3.687,11.715,11.715,0,0,0,3.762-3.7h31.285a8.867,8.867,0,0,0,8.869-8.869V39.066a8.843,8.843,0,0,0-8.869-8.869H342.11a8.871,8.871,0,0,0-8.869,8.869" transform="translate(-67.866 -6.15)" fill="#97caef"/>
    <path id="Trazado_237016" data-name="Trazado 237016" d="M361.056,35.919a3.51,3.51,0,0,0-3.851,2.536c-.321.792-1.04,3.259-1.04,3.259a6.027,6.027,0,0,0-.405,2.163c.109.782.84,1.136,2.642,1.421s2.618.378,2.618.378-1.847,3.766-.995,4.405,1.618-.137,2.618-1.563c.755-1.077,1.539-2.154,2.321-2.3l.782-.143,1.279-8.811s-4.445-1.206-5.969-1.35" transform="translate(-72.449 -7.311)" fill="#fff"/>
    <path id="Trazado_237017" data-name="Trazado 237017" d="M369.582,37.621l2.38.573a2.078,2.078,0,0,1,1.574,2.285l-.615,4.785a1.706,1.706,0,0,1-1.883,1.477l-2.737-.31Z" transform="translate(-75.007 -7.662)" fill="#80a1d1"/>
    <path id="Trazado_237018" data-name="Trazado 237018" d="M335.469,62.56a44.327,44.327,0,0,0,7.746-3.688,11.719,11.719,0,0,0,3.761-3.7h31.285a8.867,8.867,0,0,0,8.869-8.87V39.383a8.893,8.893,0,0,0-4.324-7.628c1.154,5.721,2.247,16.726-5.742,18.892-7.295,1.973-28.579,1.308-41.883.65a8.791,8.791,0,0,0,4.183,3.3c-.007.37-.022.784-.029,1.257-.06,3.134-3.6,6.452-3.865,6.7" transform="translate(-68.261 -6.467)" fill="#90b3dd"/>
    <path id="Trazado_237019" data-name="Trazado 237019" d="M329.434,223.311h-13.57l-4.346-24.3-3.415,24.3H294.15l.022-.436,1.737-39.474,31.781-1.109s1.456,4.989,1.744,20.51,0,20.509,0,20.509" transform="translate(-59.905 -37.125)" fill="#3c259e"/>
    <path id="Trazado_237020" data-name="Trazado 237020" d="M311.518,201.257l-3.415,24.3H294.15l.022-.436c4.272-1.442,9.667-3.341,10.325-4,1.108-1.108,5.07-29.563,5.906-27.714s1.116,7.849,1.116,7.849" transform="translate(-59.905 -39.371)" fill="#2f2159"/>
    <path id="Trazado_237021" data-name="Trazado 237021" d="M293.4,79.138s-4.62-1.663-3.326-6.035,6.837-2.217,8.87-1.479,13.611.555,15.459,4,1.909,16.321-3.572,16.445S293.4,79.138,293.4,79.138" transform="translate(-59.028 -14.345)" fill="#2f2159"/>
    <path id="Trazado_237022" data-name="Trazado 237022" d="M294.3,81.363s-.431,14.166,3.141,17.738,6.714,2.218,6.714,2.218-.123,6.837-1.91,7.575-3.449,5.543,1.91,5.113,5.974.431,7.637-1.232,2.059-5.816,2.059-5.816a10.074,10.074,0,0,1-2.059-6.071,58.064,58.064,0,0,0-.061-6.59s-.678-.37.307-1.293,2.271-1.417,1.813-3.7-2.8,1.478-2.86.493a41,41,0,0,0-.985-6.22c-.493-1.664-4.5-.74-7.576-.74a38.315,38.315,0,0,1-8.13-1.478" transform="translate(-59.933 -16.57)" fill="#f48e76"/>
    <path id="Trazado_237023" data-name="Trazado 237023" d="M286.9,135.412s-.665,2.712-1.722,5.95c-1.53,4.693-3.888,10.494-6.223,10.657-3.947.266-11.212-13.4-13.555-18.144s-4.737-7.76-5.292-7.886a4.323,4.323,0,0,1-2.712-2.528,6.319,6.319,0,0,0-3.082-3.444c-1.478-.805-2.336-2.283-1.293-3.7a32.724,32.724,0,0,1,2.9-3.208s-5.854-6.341-3.94-5.846,8.13,6.1,8.558,7.391,1.973,6.711,2.277,7.139,13.8,15.4,13.8,15.4l1.272-2.786,1.626-3.562Z" transform="translate(-51.239 -21.84)" fill="#f48e76"/>
    <path id="Trazado_237024" data-name="Trazado 237024" d="M293.626,141.45s-.665,2.712-1.722,5.95l-7.295-6.948,1.626-3.562Z" transform="translate(-57.962 -27.878)" fill="#c65252"/>
    <path id="Trazado_237025" data-name="Trazado 237025" d="M332.907,134.374a6.826,6.826,0,0,1-.776.776c-1.9,1.707-6.282,4.855-7.753,4.788a.586.586,0,0,1-.34-.11C322.93,138.9,320.8,134,320.8,134l.3,1.5.015.044,2.254,11.286,1.493,7.451,1.116,5.586s2.305,9.8.74,10.259a23.113,23.113,0,0,1-2.809.222c-7.923.347-29.592.554-30.45-.222-.377-.339-.436-1.433-.377-3.126.1-2.683.5-6.858.406-11.884-.007-.385-.014-.768-.029-1.16-.281-8.773-.4-16.067-.4-16.067s-9.578-2.5-9.578-4.716,6.74-15.24,8.04-16.074,9.239-2.772,9.239-2.772-1.39,4.065,3.7,2.868,7.2-3.7,7.2-3.7,11.087,3.7,11.825,4.339,10.444,15.247,9.431,16.533" transform="translate(-57.732 -23.115)" fill="#a9dd66"/>
    <path id="Trazado_237026" data-name="Trazado 237026" d="M321.866,130.784s.835,14.6-4.892,20.14c-4.553,4.405-16.386,6.888-21.035,7.716q.014.751.014,1.476c0,4.367-.333,7.993-.419,10.409,1.179.1,2.689.185,4.385.185a32.95,32.95,0,0,0,12.805-2.231c5.215-2.287,9.089-4.086,11.322-4.086a1.951,1.951,0,0,1,2.166,2.053c.162,1.789.186,4.73.148,7.428a23.357,23.357,0,0,0,2.809-.221c.4-.116.546-.835.546-1.843a50.726,50.726,0,0,0-1.285-8.416l-1.116-5.587-1.493-7.45-2.254-11.286-.015-.045a5.13,5.13,0,0,1-.3-1.5Z" transform="translate(-60.187 -26.635)" fill="#82bd5b"/>
    <path id="Trazado_237027" data-name="Trazado 237027" d="M294.214,132.176l-2.471,8.62,3,.9Z" transform="translate(-59.415 -26.918)" fill="#82bd5b"/>
    <path id="Trazado_237028" data-name="Trazado 237028" d="M340.084,153.214c-1.1,2.284-6.718,4.737-11.182,6.608-1.507.635-2.89,1.2-3.917,1.663-4.065,1.848-8.181,2.217-9.7,3.466s-2.587,2.772-6.186,2.5-6.608-1.53-5.543-2.542,5.078-.784,5.492-1.715c.421-.916-2.86-.968-1.8-1.656a11.836,11.836,0,0,1,5.314-1.2,6.7,6.7,0,0,0,3.458-1.013c.466-.281,9.284-5.824,11.182-6.844l.207-.1c1.818-.917,3.526-1.027,3.349-1.692-.059-.221-.347-.894-.71-1.7-.547-1.2-1.257-2.72-1.626-3.5,1.471.067,5.853-3.082,7.753-4.788.088.169.178.346.273.531,1.811,3.57,4.671,9.86,3.636,12" transform="translate(-61.776 -28.652)" fill="#f48e76"/>
    <path id="Trazado_237029" data-name="Trazado 237029" d="M342.863,141.219a21.851,21.851,0,0,1-2.276,3.592,33.617,33.617,0,0,1-4.124,4.168c-.547-1.2-1.256-2.72-1.626-3.5,1.472.067,5.853-3.082,7.753-4.789.089.17.178.347.273.532" transform="translate(-68.191 -28.652)" fill="#c65252"/>
    <path id="Trazado_237030" data-name="Trazado 237030" d="M283.013,144.5l2.771,2.831-2.119-4.261Z" transform="translate(-57.637 -29.136)" fill="#c65252"/>
    <path id="Trazado_237031" data-name="Trazado 237031" d="M306.68,105.87l3.941-2.156s-3.51,7.637-3.633,6.467-.308-4.311-.308-4.311" transform="translate(-62.457 -21.122)" fill="#c65252"/>
  </g>
</svg>
