<svg xmlns="http://www.w3.org/2000/svg" xmlns:xlink="http://www.w3.org/1999/xlink" width="184.397" height="244.186" viewBox="0 0 184.397 244.186">
  <defs>
    <clipPath id="clip-path">
      <rect id="Rectángulo_216663" data-name="Rectángulo 216663" width="184.397" height="244.186" transform="translate(0 0)" fill="none"/>
    </clipPath>
  </defs>
  <g id="Grupo_173795" data-name="Grupo 173795" transform="translate(0 -0.003)">
    <g id="Grupo_173794" data-name="Grupo 173794" transform="translate(0 0.003)" clip-path="url(#clip-path)">
      <path id="Trazado_238121" data-name="Trazado 238121" d="M544.518,162.659c-3.667-3.031-8.318-6.355-13.284-6.233-4.673.115-5.05,1.74-4.992,5.63.077,5.2-1.343,10.954-2.569,16-.359,1.475-8.029,13.255-3.231,14.069.255.043,2.036-1.417,2.5-1.589,4.594-1.7,10.213.06,15.039-.594,5.193-.7,10.569-2.771,12.527-7.992,2.912-7.767.2-14.176-5.99-19.291" transform="translate(-428.119 -129.066)" fill="#26332f"/>
      <path id="Trazado_238122" data-name="Trazado 238122" d="M735.083,377.847a6.062,6.062,0,0,0-.655-.014,1.523,1.523,0,0,0-1.606,1.255c-.959,3.637-4.293,7.594-3.762,11.583.318,2.389,3.114,5.5,5.032,6.342,3.537,1.555,7.292-.663,9.628-1.548,4.978-1.885,3.121-8.752-.122-12.253-2.192-2.367-6.4-5.225-8.515-5.365" transform="translate(-601.503 -311.748)" fill="#b84337"/>
      <path id="Trazado_238123" data-name="Trazado 238123" d="M697.2,419.933a15.7,15.7,0,0,0-2.787-1.417c-1.806-.67-3.753-.816-4.56,1.111a20.605,20.605,0,0,1,7.528,6.3c-.491-.643,1.585-2.824,1.642-3.54.158-1.977-.43-1.58-1.824-2.457" transform="translate(-569.198 -344.946)" fill="#b84337"/>
      <path id="Trazado_238124" data-name="Trazado 238124" d="M731.634,416.617c-1.743-2.719-5.976.71-8.221.516-1.186-.1-5.155-1.127-5.612.644a1.667,1.667,0,0,0,.82,2.144,9.117,9.117,0,0,0,1.429.132,3.154,3.154,0,0,1,1.332.76c1.372,1.018,2.7-.852,4.146.147.226.156.7,1.212.908,1.229.34.027.6-2.2.964-2.526.618-.548,4.725-1.8,4.218.088.255-.276.723-.566.8-.96a2.641,2.641,0,0,0-.472-1.687c-.117-.192-.233-.363-.311-.487" transform="translate(-592.184 -342.884)" fill="#aa3d35"/>
      <path id="Trazado_238125" data-name="Trazado 238125" d="M692.184,303.128c-1.871-1.82-3.783-3.674-5.666-5.555-1.4-1.4-2.651-2.912-4.041-4.3-.928-.927-1.776-1.5-2.436.087l-.458.391c1.36.812,2.126,2.544,3.224,3.653,1.2,1.211,2.625,2.192,3.815,3.437,3.363,3.517,5.428,8.4,9.2,11.472,2.389-4-.883-6.507-3.633-9.183" transform="translate(-560.725 -241.231)" fill="#feb229"/>
      <path id="Trazado_238126" data-name="Trazado 238126" d="M653.436,296.41c.4.455-8.406,7.518-7.059,10.4,1,2.144,13.1,17.238,16.809,16.389,1.389-.318,8.234-8.29,7.834-8.865-1.753-2.519-15.8-15.9-17.584-17.927" transform="translate(-533.212 -244.569)" fill="#28221d"/>
      <path id="Trazado_238127" data-name="Trazado 238127" d="M667.9,318.237c-.44-.394-2.526-2.857-2.947-2.859-.855,0-1.486,2.309-1.8,3.027-.752,1.741-2.282,3.514-2.688,5.361-.251,1.145-.12,1.086.662,1.9l.464.483c1.719,1.8,3.43,3.691,5.167,5.417a44.314,44.314,0,0,0,3.474,2.985c.2.159.946.948,1.223.975,1.807.174,3.88-3.281,4.591-4.582,1.474-2.7.661-3.638-1.244-5.8a82.5,82.5,0,0,0-6.907-6.9" transform="translate(-544.863 -260.22)" fill="#18385d"/>
      <path id="Trazado_238128" data-name="Trazado 238128" d="M700.865,673.707c-1.421-2.364-2.22-6.289-5.74-5.432-1.879.458-6.191,5.021-8.292,6.212-1.41.8-14.724,9.159-15.832,6.674,1.271,2.85,3.032,5.749,4.488,8.407,2.258,4.121,4.4,8.184,7.006,12.175,4.288,6.577,10.261,18.334,20.206,19.823,5.887.881,10.576-5.158,12.745-9.174,2.519-4.661-1.364-9.821-3.644-13.914-5.37-9.641-6.327-17.11-10.938-24.771" transform="translate(-553.645 -551.297)" fill="#b84337"/>
      <path id="Trazado_238129" data-name="Trazado 238129" d="M861.043,925.011c1,6.9,9.188,4.892,11.877.02,6.087-11.032-13.425-10.737-11.877-.02" transform="translate(-710.376 -756.508)" fill="#b84337"/>
      <path id="Trazado_238130" data-name="Trazado 238130" d="M528.114,334.986q-.077-.5-.157-.994c-.166-1.025-1.946-16.464-1.833-16.459a31.238,31.238,0,0,1-9.684-1.931c-2.81-1.139-7.777-6.234-10.709-3.745-1.877,1.593-1.923,6.239-1.945,8.527-.074,7.973.948,17.178-.559,24.925a18.439,18.439,0,0,1-3.243,7.987c-1.808,2.238-2.79,1.949-.724,4.744l0,0c7.425,10.044,20.2,17.4,31.833,9.633,5.146-3.434,5.227-7.773,2.281-12.834-3.487-5.99-4.2-13.029-5.263-19.856" transform="translate(-410.984 -256.757)" fill="#c85540"/>
      <path id="Trazado_238131" data-name="Trazado 238131" d="M542.708,358.128a12.562,12.562,0,0,1-2.648-.4c-4.739-1.243-8.525-5.02-12.482-7.77-.007.134-.018.264-.023.4-.145,3.49,1.343,6.794,1.142,10.3-.167,2.916.033,5.6.131,8.572.078,2.368-1.286,4.511-1.053,6.955.167,1.748,3.747-3.39,3.731-3.369a31.393,31.393,0,0,1,4.611-5.189c3.468-3,6.69-1.615,10.794-2.627,2.385-.588,5.715-3.237,4-5.98-1.6-2.568-5.743-.781-8.206-.886" transform="translate(-435.279 -288.75)" fill="#ba4b3f"/>
      <path id="Trazado_238132" data-name="Trazado 238132" d="M546.867,217.9c-.133-5.725-5.365-12.575-10.747-13.917a12.7,12.7,0,0,0-4.762-.216,16.611,16.611,0,0,0-14.113,12.74c-1.337,5.5,2.177,10.072,1.841,15.335-.342,5.341.906,8.017,5.216,11.046a70.573,70.573,0,0,0,8.438,4.778c3.808,1.941,10.4,3.422,13.174-1.426,1.078-1.883,1.042-4.382,1.353-6.481.535-3.608,1.862-7.074,2.12-10.727.169-2.384-.648-3.947-1.642-5.976-.955-1.952-.826-2.894-.879-5.155" transform="translate(-426.529 -168.027)" fill="#e76e43"/>
      <path id="Trazado_238133" data-name="Trazado 238133" d="M570.427,272.536c-1.057-.212-3.187-.921-3.807.544.018-.048.267.02.647.155,1.144.416,3.446,1.437,3.7,1.518,1.535.509,2.21-.733,2.577-2.155a14.153,14.153,0,0,1-3.115-.062" transform="translate(-467.52 -224.575)" fill="#293b37"/>
      <path id="Trazado_238134" data-name="Trazado 238134" d="M649.609,260.434c-.21.116-2.508,1.511-2.632,1.317.615.95,1.154,1.61,1.906,1.47a1.985,1.985,0,0,0,.845-.425c.179-.144,2.219-2.353,2.352-2.123-.8-1.384-1.414-.818-2.471-.239" transform="translate(-533.822 -214.372)" fill="#293b37"/>
      <path id="Trazado_238135" data-name="Trazado 238135" d="M599.756,316.144l.087,0a1.33,1.33,0,0,1-.2-.013Z" transform="translate(-494.77 -260.839)" fill="#f5e0d6"/>
      <path id="Trazado_238136" data-name="Trazado 238136" d="M665.767,318.608l0,.007,0-.007-.057-.1c-.741-1.149-4.256-.649-3.133,1.349.9,1.59,4.4.381,3.154-1.316l.036.062" transform="translate(-546.513 -262.306)" fill="#e86652"/>
      <path id="Trazado_238137" data-name="Trazado 238137" d="M681.851,321.92c.005.01.005.009,0,0" transform="translate(-562.597 -265.618)" fill="#e86652"/>
      <path id="Trazado_238138" data-name="Trazado 238138" d="M553.883,202.151l.044-.041Z" transform="translate(-457.01 -166.762)" fill="#7f5f64"/>
      <path id="Trazado_238139" data-name="Trazado 238139" d="M490.782,290.036l-.042.066Z" transform="translate(-404.912 -239.31)" fill="#7f5f64"/>
      <path id="Trazado_238140" data-name="Trazado 238140" d="M540.89,202.721c-4.643-.731-9.368,1.686-12.432,5.038a23.05,23.05,0,0,0-5.2,9.124c-.267.953-1.028,3.283-.144,4.146,1.222,1.194,3.237-4.829,3.846-5.779a17.287,17.287,0,0,1,6.756-5.715c1.444-.755,3.079-1.145,4.5-1.894,4.937-2.6,7.63.688,11.481,2.968-1.812-3.972-4.121-7.148-8.813-7.888" transform="translate(-431.282 -167.158)" fill="#db623f"/>
      <path id="Trazado_238141" data-name="Trazado 238141" d="M180.772,147.15c-4.507-3.648-10.618-3.337-16.039-2.872-6.031.516-8.662,3.954-13.288,5.22-7.154,1.958-17.679-5.394-23.866-.43-4.837,3.882-3.443,12.243-10.788,14.279-6.3,1.747-12.583-1.749-18.655,1.551-8.9,4.838-9.681,18.21-8.449,26.993.709,5.054,2.226,10.318,5.245,14.5,3.244,4.5,9.837,9.137,15.358,9.629,5.074.452,8.755-3.265,13.593-3.631,3.043-.23,5.159,1.732,8.179,2.015A12.809,12.809,0,0,0,142,211.262c2.493-2.088,4.138-4.131,7.617-4.3,3.424-.165,16.052.332,16.052.332s2.474-14.978,1.616-21.308c-.761-5.623-3.54-9.821-1.424-15.368,1.717-4.5,3.861-9.119,8.178-11.663,2.966-1.747,11.559-1.015,10.118-6.648a9.669,9.669,0,0,0-3.388-5.158" transform="translate(-73.624 -118.818)" fill="#293b37"/>
      <path id="Trazado_238142" data-name="Trazado 238142" d="M505.756,317.015c-3.418.8-2.3,6.314.5,7.2a3.6,3.6,0,0,0,.947-.03c1.286-.137,3.353-.469,3.457-.187-.762-2.1-1.467-7.785-4.9-6.983" transform="translate(-415.55 -261.507)" fill="#e76e43"/>
      <path id="Trazado_238143" data-name="Trazado 238143" d="M515.214,333.33c.01.971.248,2.491,1.6,1.686-.181-.756-.443-1.5-.674-2.249Z" transform="translate(-425.104 -274.567)" fill="#ba4b3f"/>
      <path id="Trazado_238144" data-name="Trazado 238144" d="M209.555,384.173c-3.339-1.828-5.429,3.236-7.627,4.677a6.275,6.275,0,0,1-1.959.842c-1.788.446-3.644.233-5.522.819-3.347,1.043-5.8,4.638-9.639,4.044-5.953-.923-5.3-8.717-13.1-6.932-7.114,1.628-9.194,12.51-16.111,9.6-2.449-1.032-4.955-7.32-7.18-7.1-7.217.713.358,19.744,4.46,21.471,5.646,2.377,9.5-4.729,14.627-5.243,5.016-.5,8.737,6.418,14.248,3.326,2.178-1.222,3.892-4.068,6.061-5.532,3.193-2.154,6.018-3.069,9.665-2.414,3.466.622,7.473,1.848,10.633-.73,3.054-2.492,5.91-14.378,1.442-16.825" transform="translate(-119.99 -316.659)" fill="#26332f"/>
      <path id="Trazado_238145" data-name="Trazado 238145" d="M126.016,286.036a7.211,7.211,0,0,0-2,3.612c-.223,1.276,1.771,1.555,1.987.281a5.517,5.517,0,0,1,1.59-2.644c.865-.972-.716-2.211-1.573-1.249" transform="translate(-102.308 -235.722)" fill="#3c4f4a"/>
      <path id="Trazado_238146" data-name="Trazado 238146" d="M313.935,225.1a9.223,9.223,0,0,1-5.728,1.078,1,1,0,0,0-.28,1.989,11.056,11.056,0,0,0,6.77-1.2c1.116-.625.368-2.495-.763-1.864" transform="translate(-253.383 -185.625)" fill="#3c4f4a"/>
      <path id="Trazado_238147" data-name="Trazado 238147" d="M362.2,181.446a8.548,8.548,0,0,0-1.792,1.982,1,1,0,1,0,1.578,1.244,6.947,6.947,0,0,1,1.425-1.621c1.024-.792-.185-2.4-1.21-1.6" transform="translate(-297.199 -149.535)" fill="#3c4f4a"/>
      <path id="Trazado_238148" data-name="Trazado 238148" d="M517.455,177.984a9.041,9.041,0,0,1-3.885-.016,1,1,0,0,0-.282,1.99,11.235,11.235,0,0,0,4.925-.115c1.238-.373.47-2.229-.758-1.859" transform="translate(-422.829 -146.816)" fill="#3c4f4a"/>
      <path id="Trazado_238149" data-name="Trazado 238149" d="M567.533,166.177l-.662-.094a1,1,0,0,0-.282,1.989l.665.1a1.005,1.005,0,0,0,.279-1.991" transform="translate(-466.782 -137.028)" fill="#3c4f4a"/>
      <path id="Trazado_238150" data-name="Trazado 238150" d="M164.114,323.026a2.393,2.393,0,0,1-1.195-2.339,1,1,0,0,0-1.989-.281,4.367,4.367,0,0,0,1.941,4.2c1.048.753,2.3-.822,1.243-1.578" transform="translate(-132.755 -263.681)" fill="#3c4f4a"/>
      <path id="Trazado_238151" data-name="Trazado 238151" d="M245.463,378.379c-.558-1.159-2.421-.41-1.865.76a21.867,21.867,0,0,0,2.029,3.538,1,1,0,0,0,1.6-1.2,19.309,19.309,0,0,1-1.767-3.093" transform="translate(-200.909 -311.724)" fill="#3c4f4a"/>
      <path id="Trazado_238152" data-name="Trazado 238152" d="M348.7,397.314a6.524,6.524,0,0,0-4.858.09c-1.18.521-.427,2.386.762,1.859a4.43,4.43,0,0,1,3.292-.107c1.213.454,2.017-1.393.8-1.842" transform="translate(-283.212 -327.475)" fill="#3c4f4a"/>
      <path id="Trazado_238153" data-name="Trazado 238153" d="M424.945,420.96a1.286,1.286,0,0,1-1.91-.273c-.81-1-2.42.2-1.605,1.206a3.332,3.332,0,0,0,4.724.67c1.065-.739-.145-2.344-1.209-1.6" transform="translate(-347.538 -346.799)" fill="#3c4f4a"/>
      <path id="Trazado_238154" data-name="Trazado 238154" d="M480.964,377.821c-.033.207-.066.415-.111.62a2.437,2.437,0,0,0-.1.244,1.1,1.1,0,0,1-.157.263,1.024,1.024,0,0,0,.162,1.412,1.012,1.012,0,0,0,1.414-.165,4.8,4.8,0,0,0,.777-2.092,1,1,0,0,0-1.99-.282" transform="translate(-396.374 -311.053)" fill="#3c4f4a"/>
      <path id="Trazado_238155" data-name="Trazado 238155" d="M204.494,278.975a8.025,8.025,0,0,0-3.317,1.143c-1.058.752.15,2.355,1.211,1.6a5.87,5.87,0,0,1,2.361-.759c1.271-.228,1.023-2.224-.254-1.989" transform="translate(-165.654 -230.168)" fill="#3c4f4a"/>
      <path id="Trazado_238156" data-name="Trazado 238156" d="M296.185,293.608c-2.108-.282-4.243-.286-6.349-.566a1,1,0,0,0-.281,1.99c2.106.279,4.236.283,6.346.563a1,1,0,0,0,.284-1.987" transform="translate(-238.222 -241.782)" fill="#3c4f4a"/>
      <path id="Trazado_238157" data-name="Trazado 238157" d="M380.751,279.392a9,9,0,0,0-4.073,1.713,1,1,0,0,0,1.205,1.606,6.906,6.906,0,0,1,3.124-1.326,1.006,1.006,0,0,0-.257-1.994" transform="translate(-310.466 -230.519)" fill="#3c4f4a"/>
      <path id="Trazado_238158" data-name="Trazado 238158" d="M444.825,262.809l-3.646-.519a1.007,1.007,0,0,0-.284,1.993l3.645.515a1,1,0,0,0,.285-1.989" transform="translate(-363.096 -216.408)" fill="#3c4f4a"/>
      <path id="Trazado_238159" data-name="Trazado 238159" d="M234.94,262.385a19.984,19.984,0,0,0-4.625-.282c-1.293.115-1.033,2.109.256,1.994a17.714,17.714,0,0,1,4.085.28,1.007,1.007,0,0,0,.284-1.992" transform="translate(-189.332 -216.225)" fill="#26332f"/>
      <path id="Trazado_238160" data-name="Trazado 238160" d="M299.541,265.1a16.528,16.528,0,0,1-3.758-.231,1,1,0,0,0-.278,1.986,18.69,18.69,0,0,0,4.295.238c1.286-.11,1.031-2.1-.259-1.993" transform="translate(-243.134 -218.536)" fill="#26332f"/>
      <path id="Trazado_238161" data-name="Trazado 238161" d="M385.059,226.225q-1.9,1.422-3.789,2.842a1.006,1.006,0,0,0,1.205,1.61c1.263-.953,2.527-1.9,3.787-2.847a1,1,0,0,0-1.2-1.605" transform="translate(-314.258 -186.487)" fill="#26332f"/>
      <path id="Trazado_238162" data-name="Trazado 238162" d="M464.192,222.317a8.362,8.362,0,0,1-3.353-1.351c-1.073-.717-2.328.854-1.246,1.574a10.717,10.717,0,0,0,4.32,1.768,1.006,1.006,0,0,0,.278-1.991" transform="translate(-378.869 -182.169)" fill="#26332f"/>
      <path id="Trazado_238163" data-name="Trazado 238163" d="M445.519,310.108a11.034,11.034,0,0,0-4.686.823c-1.23.413-.467,2.27.762,1.864a8.649,8.649,0,0,1,3.645-.7c1.285.136,1.573-1.852.28-1.989" transform="translate(-363.217 -255.841)" fill="#26332f"/>
      <path id="Trazado_238164" data-name="Trazado 238164" d="M513.1,222.319a2,2,0,0,1-.195.139c-.038.025-.059.04-.077.05-.075.03-.223.077-.244.093a.265.265,0,0,1-.057,0l0,0a.066.066,0,0,1-.017,0c-.135-.008-.272-.033-.41-.051a1,1,0,0,0-.284,1.989,3.869,3.869,0,0,0,1.115.037,3.227,3.227,0,0,0,1.383-.658,1.008,1.008,0,0,0,.2-1.4,1.018,1.018,0,0,0-1.413-.2" transform="translate(-421.612 -183.273)" fill="#26332f"/>
      <path id="Trazado_238165" data-name="Trazado 238165" d="M232.179,338.706a9.332,9.332,0,0,0-5.26-.07c-1.245.294-1.007,2.29.256,1.99a7.6,7.6,0,0,1,4.207-.076c1.223.4,2.033-1.443.8-1.844" transform="translate(-186.554 -279.127)" fill="#212a25"/>
      <path id="Trazado_238166" data-name="Trazado 238166" d="M311.212,358.024a18.374,18.374,0,0,1-4.063-.76,1.006,1.006,0,0,0-.594,1.921,21.068,21.068,0,0,0,4.594.849,1,1,0,0,0,.063-2.009" transform="translate(-252.37 -294.745)" fill="#212a25"/>
      <path id="Trazado_238167" data-name="Trazado 238167" d="M399.022,344.891a4.865,4.865,0,0,0-2.936,2.077,1.023,1.023,0,0,0,.167,1.413,1.008,1.008,0,0,0,1.41-.163,2.962,2.962,0,0,1,1.612-1.335,1.025,1.025,0,0,0,.871-1.122,1,1,0,0,0-1.124-.87" transform="translate(-326.641 -284.556)" fill="#212a25"/>
      <path id="Trazado_238168" data-name="Trazado 238168" d="M449.965,354.876a5.535,5.535,0,0,1-2.124-.5,1.025,1.025,0,0,0-1.41.159,1.009,1.009,0,0,0,.162,1.415,7.5,7.5,0,0,0,3.09.913,1,1,0,0,0,.282-1.987" transform="translate(-368.174 -292.226)" fill="#212a25"/>
      <path id="Trazado_238169" data-name="Trazado 238169" d="M304.386,436.571a5.993,5.993,0,0,1-.949.95,3.942,3.942,0,0,1-.946.535,1.22,1.22,0,0,0-.689,1.552,1.206,1.206,0,0,0,1.551.689,7.85,7.85,0,0,0,2.888-2.2,1.2,1.2,0,0,0-1.855-1.523" transform="translate(-248.951 -359.861)" fill="#3c4f4a"/>
      <path id="Trazado_238170" data-name="Trazado 238170" d="M178.695,383.8c-.043,0-.07,0-.088,0s-.062-.006-.093-.011c-.119-.017-.236-.047-.353-.073a3.73,3.73,0,0,0-1.09-.082,1.2,1.2,0,1,0,.236,2.388c.043,0,.07,0,.087,0s.062.005.093.011c.119.016.236.046.353.072a3.718,3.718,0,0,0,1.09.083,1.2,1.2,0,0,0-.236-2.389" transform="translate(-145.209 -316.534)" fill="#3c4f4a"/>
      <path id="Trazado_238171" data-name="Trazado 238171" d="M464.42,181.351a2.5,2.5,0,0,0-1.865-.49,1.2,1.2,0,0,0,.235,2.389l.154-.013a1.2,1.2,0,0,0,1.476-1.885" transform="translate(-380.762 -149.215)" fill="#3c4f4a"/>
      <path id="Trazado_238172" data-name="Trazado 238172" d="M127.407,465.472a5.564,5.564,0,0,1-2.631-1.72c-.869-1.281-2.813.128-1.944,1.409a7.616,7.616,0,0,0,3.573,2.493c1.437.563,2.443-1.616,1-2.181" transform="translate(-101.168 -382.226)" fill="#3c4f4a"/>
      <path id="Trazado_238173" data-name="Trazado 238173" d="M118.786,374.149a1.2,1.2,0,0,0-2.389.236l.33,3.344a1.2,1.2,0,0,0,2.389-.236Z" transform="translate(-96.034 -307.85)" fill="#3c4f4a"/>
      <path id="Trazado_238174" data-name="Trazado 238174" d="M168.043,437.919a4.431,4.431,0,0,1-1.152-.093,3.589,3.589,0,0,1-.5-.124c-.092-.032-.182-.068-.272-.108-.055-.023-.084-.034-.1-.041l-.053-.041c-1.238-.922-2.766.929-1.522,1.856a5.912,5.912,0,0,0,3.84.939,1.2,1.2,0,0,0-.236-2.389" transform="translate(-135.297 -360.787)" fill="#212a25"/>
      <path id="Trazado_238175" data-name="Trazado 238175" d="M277.981,433.477c-.877.585-1.4,1.613-2.2,2.147a1.2,1.2,0,0,0,1.409,1.945c.877-.585,1.4-1.612,2.2-2.147a1.2,1.2,0,1,0-1.409-1.944" transform="translate(-227.142 -357.483)" fill="#212a25"/>
      <path id="Trazado_238176" data-name="Trazado 238176" d="M516.76,189.384c-.919.1-1.471,1.643-2.264,2.089a18.481,18.481,0,0,1-2.795.711,16.416,16.416,0,0,0-6.266,3.452c-1.972,1.929-3.839,5.381-5.082,7.833a53.656,53.656,0,0,1-3.437,6.168c-.51.747-1.579,2.034-1.562,3,0,.212.6,1.829.688,1.362.508-2.761,3.729-3.689,4.535-6.4a17.4,17.4,0,0,1,1.645-3.519c1.23-2.141,2.577-4.718,4.433-6.376,2.186-1.953,4.09-2.584,6.771-3.364,1.4-.407,3.582-1.267,4.291-2.7.493-1,.6-2.434-.957-2.259" transform="translate(-408.718 -156.25)" fill="#263531"/>
      <path id="Trazado_238177" data-name="Trazado 238177" d="M601.777,1090.054c-8.866,4.683-2.265,39.112.567,51.983,2.448-.1,34.782.392,40.688,0-3.189-19.055-3.764-37.919-12.642-47.536-5.329-5.772-21.924-7.979-28.613-4.447" transform="translate(-492.845 -898.005)" fill="#20375a"/>
      <path id="Trazado_238178" data-name="Trazado 238178" d="M417.956,1112.1c-2.679-2.825-4.434-2.687-8.237-2.565a33.121,33.121,0,0,0-17.774,5.4c-4.844,3.223-9.251,6.6-12.869,11.142-3.586,4.5-5.044,7.7-7.778,12.79-3.044,5.67-4.271,14.408-5.227,20.6.1.011,38.294,0,56.758,0-.38-4.87.367-16.484,0-21.353-.236-3.129.51-6.953.508-10.195,0-7.154.2-9.942-5.38-15.823" transform="translate(-302.046 -915.437)" fill="#284263"/>
      <path id="Trazado_238179" data-name="Trazado 238179" d="M439.445,564.9c-1.367-6.947-2.519-13.938-3.942-20.874-.68-3.318-2.084-10.276-6.239-10.753-2.146-.247-7.412,1.174-8.936,2.7-1.381,1.384-.918,3.338-2.467,4.662-3.135,2.678-8.4,4.493-12.438,4.79a4.533,4.533,0,0,1-4.189-2.25c-9.92.8-17.269-12.163-26.413-3.75-5.415,4.982-15.059,19.217-13.614,26.6,3.871,19.793,10.8,38.6,12.85,58.979.5,4.932-2.417,13.494,1.317,17.572,5.116,5.586,21.231,1.638,27.763,1.313,10.07-.5,20.554.708,28.729-6.254a38.544,38.544,0,0,1,3.955-3.117c3.115-2.025,3.568-1.907,3.387-5.86-.26-5.652-.635-11.292-1.394-16.9a133.207,133.207,0,0,1-1.336-24.41c.324-7.593,4.485-14.727,2.967-22.447" transform="translate(-297.913 -439.979)" fill="#feb229"/>
      <path id="Trazado_238180" data-name="Trazado 238180" d="M798.7,855.422h0Z" transform="translate(-659.011 -705.81)" fill="#eba477"/>
      <path id="Trazado_238181" data-name="Trazado 238181" d="M534.682,534.045a1.65,1.65,0,0,0-.8.427c-1.23,3.4-.731,8.077-15.009,8.977-4.462.281-13.432-3.283-16.366-6.566-.483-.541-2.448,1.407-2.521,1.756-.263,1.249,6.774,11.563,22.768,9.522,13.565-1.731,14.608-10.813,14.025-13.007a5.624,5.624,0,0,0-2.1-1.109" transform="translate(-412.535 -440.642)" fill="#ed9500"/>
      <path id="Trazado_238182" data-name="Trazado 238182" d="M539.75,573.133a1.273,1.273,0,0,0-1.772.211l-.829,1.05a1.262,1.262,0,0,0,1.982,1.562l.828-1.051a1.274,1.274,0,0,0-.21-1.771" transform="translate(-442.984 -472.675)" fill="#feb229"/>
      <path id="Trazado_238183" data-name="Trazado 238183" d="M574.434,587.035a1.276,1.276,0,0,0-1.1,1.4c0,.017,0,.034,0,.052a.687.687,0,0,1-.006.085,2.41,2.41,0,0,1-.069.317,2.375,2.375,0,0,0-.093.837,1.255,1.255,0,0,0,2.5-.1,1.283,1.283,0,0,1,.028-.143c.021-.092.05-.182.075-.274a3.077,3.077,0,0,0,.066-1.071,1.271,1.271,0,0,0-1.4-1.1" transform="translate(-472.915 -484.358)" fill="#feb229"/>
      <path id="Trazado_238184" data-name="Trazado 238184" d="M623.828,590.133a1.262,1.262,0,0,0-2.506.3,2.538,2.538,0,0,0,.9,1.745,1.257,1.257,0,0,0,1.626-1.916c-.005-.042-.011-.084-.017-.125" transform="translate(-512.647 -486.002)" fill="#feb229"/>
      <path id="Trazado_238185" data-name="Trazado 238185" d="M657.779,578.624a1.257,1.257,0,0,0-1.625,1.916c.005.042.012.083.017.126a1.261,1.261,0,1,0,2.505-.3,2.537,2.537,0,0,0-.9-1.745" transform="translate(-541.056 -477.203)" fill="#feb229"/>
      <path id="Trazado_238186" data-name="Trazado 238186" d="M691.12,557.2a1.269,1.269,0,0,0-1.1,1.4,3.411,3.411,0,0,0,2.1,1.657,1.269,1.269,0,0,0,1.1-1.4,1.964,1.964,0,0,0-2.1-1.657" transform="translate(-569.327 -459.742)" fill="#feb229"/>
      <path id="Trazado_238187" data-name="Trazado 238187" d="M500.949,1092.069c-1.662.19-2.495.972-4.264,1.674a76.137,76.137,0,0,1-9.243,3.224c-12.222,3.07-24.643,4.2-37.248,4.432-3.257.059-6.7-1.175-9.925-1.725-2.938-.5-3.585.046-3.426,3.246.107,2.171-.22,5.483,1.1,7.33,1.21,1.69,3.519,1.661,5.276,1.916a108.415,108.415,0,0,0,10.932.642,93.014,93.014,0,0,0,18.365-1.158,160.172,160.172,0,0,0,16.977-3.077c3.666-.983,11.343-2.792,13.084-5.933,1.588-2.864-.429-7.649-.766-10.614a7.027,7.027,0,0,0-.864.044" transform="translate(-360.422 -901.034)" fill="#ed9500"/>
      <path id="Trazado_238188" data-name="Trazado 238188" d="M657.722,1157.436c-.006-.016-.013-.036-.022-.061a2.181,2.181,0,0,1-.083-.291c.011.026-.03-.234-.032-.29-.007-.156,0-.314,0-.47a1.232,1.232,0,0,0-2.464-.006,5.384,5.384,0,0,0,.531,2.471,1.237,1.237,0,0,0,1.685.446,1.254,1.254,0,0,0,.446-1.684c-.027-.057-.045-.093-.057-.115" transform="translate(-540.539 -953.068)" fill="#feb229"/>
      <path id="Trazado_238189" data-name="Trazado 238189" d="M719.062,1152.305c-.006-.022-.013-.045-.018-.068s-.007-.053-.014-.078c0,0,0,0,0,0a.01.01,0,0,1,0,0,1.224,1.224,0,0,0-1.189-.972,1.238,1.238,0,0,0-1.235,1.229,2.666,2.666,0,0,0,.289,1.053c.027.058.056.116.085.173a.569.569,0,0,1,.017.068c.006.026.008.052.014.078a.011.011,0,0,1,0,0v0a1.225,1.225,0,0,0,2.424-.257,2.668,2.668,0,0,0-.289-1.054c-.027-.059-.056-.115-.084-.173" transform="translate(-591.272 -949.848)" fill="#feb229"/>
      <path id="Trazado_238190" data-name="Trazado 238190" d="M766.487,1128.065a1.243,1.243,0,0,0-1.235,1.228l0,1.479a1.232,1.232,0,0,0,2.464.006l0-1.479a1.243,1.243,0,0,0-1.229-1.235" transform="translate(-631.408 -930.77)" fill="#feb229"/>
      <path id="Trazado_238191" data-name="Trazado 238191" d="M795.167,1112.076a1.22,1.22,0,0,0-1.154-.85,1.239,1.239,0,0,0-1.235,1.229,1.657,1.657,0,0,0,.244.872,2.286,2.286,0,0,0,.2.252,1.219,1.219,0,0,0,1.153.85,1.239,1.239,0,0,0,1.235-1.229,1.661,1.661,0,0,0-.245-.873,2.314,2.314,0,0,0-.2-.252" transform="translate(-654.123 -916.876)" fill="#feb229"/>
      <path id="Trazado_238192" data-name="Trazado 238192" d="M466.765,812.494A52.1,52.1,0,0,1,457.9,815.4c-3.86.952-7.789,1.667-11.725,2.276-4.809.743-14.593,2.917-18.979-.366-6.314-4.729-2.3-18.408-12.946-20.9-4.674-1.092-8.13,1.529-9.174,6.078-1.095,4.771,1.476,9.412,2.512,13.916,2.863,12.444-2.053,32.9,13.323,37.722,5.818,1.824,8.565.337,13.336-3.564,6.162-5.038,12.089-10.309,18.14-15.467,4.429-3.776,9.528-6.356,12.675-11.477,1.628-2.648,3.556-8.311,1.707-11.116l-.006-.01" transform="translate(-334.011 -656.919)" fill="#f4a31b"/>
      <path id="Trazado_238193" data-name="Trazado 238193" d="M88.121,458.731c-8.146-3.768-21.349-11.494-30.4-7.1C35.359,462.481,86.126,492.537,93.41,496.2c2.831,1.424,6.279,4.7,8.493,1.829,1.182-1.534,1.383-8.405,2.22-10.768.561-1.586,5.278-17.335,7.943-15.613-3.058-1.975-6.545-3.711-9.614-5.4-4.759-2.612-9.388-5.233-14.33-7.52" transform="translate(-42.964 -371.557)" fill="#c85540"/>
      <path id="Trazado_238194" data-name="Trazado 238194" d="M26.221,449.139c-6.807-1.52-7.842,6.846-4.245,11.092,8.143,9.615,14.811-8.725,4.245-11.092" transform="translate(-16.456 -370.436)" fill="#c85540"/>
      <path id="Trazado_238195" data-name="Trazado 238195" d="M347.465,520.465a11.041,11.041,0,0,0-5.223-3.133c-5.465-1.42-10.754-3.376-15.925-4.593-.547,8.677.031,17.488-.646,26.15-.4,5.053-4.1,13.048-2.092,17.914,1.392,3.371,8.219,10.441,11.213,13.291-1.87-1.78,21.158-13.129,22.635-14.185,8.325-5.952,1.157-18.863-3.475-25.7-2.135-3.154-3.825-7-6.486-9.741" transform="translate(-266.496 -423.063)" fill="#feb229"/>
      <path id="Trazado_238196" data-name="Trazado 238196" d="M103.266,532.549l0,0c-1.486-1.316-12.064-9.352-11.052-4.7.494,2.267,9.771,9.465,11.626,11.32,1.5,1.5,7.9,7.441,9.79,6.692,3.372-1.342-8.888-12-10.361-13.3" transform="translate(-76.027 -434.341)" fill="#ba4b3f"/>
      <path id="Trazado_238197" data-name="Trazado 238197" d="M745.321,536.848c-2.871-3.71-7.2-4.684-11.666-5.192-3.228-.367-8.245-1.015-11.194.649-3.842,2.167-.514,5.442.57,8.546,2.27,6.5,2.678,17.412,11.5,18.491a22.534,22.534,0,0,0,11.94-2.105c4.517-2.305,4.939-4.123,3.724-8.73-1.018-3.859-2.458-8.532-4.878-11.659" transform="translate(-594.617 -438.31)" fill="#feb229"/>
      <path id="Trazado_238198" data-name="Trazado 238198" d="M455.587,1225.71a23.51,23.51,0,0,1-20.21,13.918c-1.777.109-1.339,3.56.43,3.452a26.169,26.169,0,0,0,22.359-15.922c.834-1.917-1.755-3.34-2.578-1.448" transform="translate(-358.294 -1010.602)" fill="#f4ebec"/>
      <path id="Trazado_238199" data-name="Trazado 238199" d="M595.192,1157.653c-.486-1.289-2.517-.6-2.028.7a9.4,9.4,0,0,1,.442,2.756,1.073,1.073,0,0,0,2.14-.135,11.407,11.407,0,0,0-.555-3.32" transform="translate(-489.359 -954.616)" fill="#feb229"/>
      <path id="Trazado_238200" data-name="Trazado 238200" d="M546.74,1173.73a1.082,1.082,0,0,0-1,1.137c0,.058.006.116.008.173a1.071,1.071,0,0,0,1.619,1.4,2.305,2.305,0,0,0,.514-1.712,1.082,1.082,0,0,0-1.137-1" transform="translate(-450.088 -968.447)" fill="#feb229"/>
      <path id="Trazado_238201" data-name="Trazado 238201" d="M778.209,492.795c-2.024-3.512-5.567-5.716-8.216-4.412-3.955,1.946-5.393,7.471-5.393,7.471,1.312,10.272,2.2,20.509,4.1,30.732,1.149,6.183.691,12.83,1.31,19.1.011.112.023.225.036.34,1,8.546,9.127,28.053,20.518,23.375,5.3-2.176,5.495-7.631,6.233-12.491,1.663-10.95-1-25.191-4.618-35.719-3.581-10.43-8.471-18.858-13.969-28.4" transform="translate(-630.873 -402.654)" fill="#b84337"/>
      <path id="Trazado_238202" data-name="Trazado 238202" d="M722.09,565.85a102.022,102.022,0,0,1,.638,11.522c-.185,6.383.306,12.751.333,19.13.013,3.042-1.2,6.16-.54,9.157,1.658,7.544,9.189,2.165,12.179-1.623a16.2,16.2,0,0,0,2.818-5.154c4.334-13.69-8.793-30.187-15.269-41.742.894,1.6-.339,6.587-.161,8.711" transform="translate(-595.784 -459.697)" fill="#feb229"/>
      <path id="Trazado_238203" data-name="Trazado 238203" d="M817.355,799.409c-2.221-1.911-5.443.309-6.739-4.232a41.977,41.977,0,0,1-1.131-10.506c.031-2.788,2.39-15.622-1.842-16.871-1.278-.377-8.453,29.942,3.245,33.06,1.37.365,9.621,2.051,6.806-1.116a3.547,3.547,0,0,0-.339-.334" transform="translate(-663.627 -633.511)" fill="#b03e37"/>
      <path id="Trazado_238204" data-name="Trazado 238204" d="M629.448,389.567c-1.726.512-4.163,1.767-3.093,3.766,1.083,2.025,3.792,1.6,5.571,1.149a4.069,4.069,0,0,0,2.453-1.355c.692-1.073.021-1.694-.681-2.582-1.451-1.835-2.226-1.579-4.25-.978" transform="translate(-516.59 -321.066)" fill="#ed7955"/>
      <path id="Trazado_238205" data-name="Trazado 238205" d="M635.12,307.822a3.259,3.259,0,0,1-.943-.972c-.627-1.152-.737-2.527-1.425-3.629-2.456.134-1.017,5.824-.1,6.777,1.213,1.263,4.9,1.352,3.689-1.068a4.088,4.088,0,0,0-1.218-1.109" transform="translate(-520.962 -250.189)" fill="#ba4b3f"/>
      <path id="Trazado_238206" data-name="Trazado 238206" d="M554.584,362.844c-1.073-1.866-6.527-1.313-4.922,1.918,1.281,2.575,6.768.9,4.961-1.862.111.228.014.049-.039-.056" transform="translate(-453.285 -298.505)" fill="#df453a"/>
      <path id="Trazado_238207" data-name="Trazado 238207" d="M679.782,350.056c-.82-1.111-3.776-.407-2.49,1.538,1.024,1.547,3.859.129,2.519-1.5.091.137.015.029-.029-.033" transform="translate(-558.572 -288.397)" fill="#df453a"/>
      <path id="Trazado_238208" data-name="Trazado 238208" d="M529.053,1.085a1.2,1.2,0,0,0-2.389.151l.646,10.238a1.2,1.2,0,0,0,2.389-.151Z" transform="translate(-434.55 -0.003)" fill="#fefefe"/>
      <path id="Trazado_238209" data-name="Trazado 238209" d="M790.477,68.454a31.738,31.738,0,0,0-8.522,10.219,1.2,1.2,0,0,0,2.138,1.076,28.9,28.9,0,0,1,7.72-9.308c1.182-.969-.14-2.967-1.336-1.986" transform="translate(-645.081 -56.265)" fill="#fefefe"/>
      <path id="Trazado_238210" data-name="Trazado 238210" d="M934.61,220.195c-3.1,2.687-5.84,5.8-8.94,8.484-1.143.991.146,3.048,1.3,2.045,3.1-2.687,5.84-5.8,8.94-8.484,1.143-.991-.146-3.048-1.3-2.045" transform="translate(-763.407 -181.462)" fill="#fefefe"/>
      <path id="Trazado_238211" data-name="Trazado 238211" d="M72.6,1017.887c-2.058.679-3.955,1.756-6.014,2.435a1.2,1.2,0,0,0,.78,2.263c2.058-.68,3.955-1.756,6.014-2.435a1.2,1.2,0,0,0-.78-2.263" transform="translate(-54.294 -839.806)" fill="#fefefe"/>
      <path id="Trazado_238212" data-name="Trazado 238212" d="M996.009,483.766a35.968,35.968,0,0,1-6.819.9,1.2,1.2,0,0,0,.151,2.389,39.281,39.281,0,0,0,7.449-1.027c1.493-.387.706-2.649-.78-2.263" transform="translate(-815.29 -399.121)" fill="#fefefe"/>
      <path id="Trazado_238213" data-name="Trazado 238213" d="M1015.665,916.945a29.18,29.18,0,0,1-5.362-1.4,1.2,1.2,0,0,0-.888,2.223,32.516,32.516,0,0,0,5.954,1.556c1.523.282,1.805-2.1.3-2.375" transform="translate(-832.267 -755.342)" fill="#fefefe"/>
      <path id="Trazado_238214" data-name="Trazado 238214" d="M963.694,1194.37a30.978,30.978,0,0,0-4.575-3.5c-1.331-.791-2.394,1.355-1.076,2.138a27.727,27.727,0,0,1,4.068,3.154,1.2,1.2,0,0,0,1.583-1.8" transform="translate(-789.987 -982.451)" fill="#fefefe"/>
      <path id="Trazado_238215" data-name="Trazado 238215" d="M204.161,1209.506a1.226,1.226,0,0,0-1.607.532,25.884,25.884,0,0,1-4.906,5.019,1.224,1.224,0,0,0-.325,1.661,1.2,1.2,0,0,0,1.661.325,29.945,29.945,0,0,0,5.709-5.929,1.2,1.2,0,0,0-.531-1.607" transform="translate(-162.644 -997.86)" fill="#fefefe"/>
      <path id="Trazado_238216" data-name="Trazado 238216" d="M765.086,462.353c-4.367,1.779-7.6,1.467-11.944,3.85.819,2.8.547,3.964,1.083,6.49.415,1.953,2.163,12.236,2.163,12.236s3.465-5.464,5.42-6.4c1.858-.885,3.626-2.022,4.444-2.407,4.077-1.917,5.637,2.1,3.621-1.964a71.462,71.462,0,0,1-4.787-11.81" transform="translate(-621.42 -381.489)" fill="#b84337"/>
      <path id="Trazado_238217" data-name="Trazado 238217" d="M735.77,362.833c-.467-.138-.683-.109-.949-.512-.4-.61.211-.471-.562-.8a4.583,4.583,0,0,1-1.576-.708c-.46-.4-.823-.9-1.263-1.324-.893-.855-4.712-4.79-5.985-2.686-.735,1.216.67,2.2.74,3.359.071,1.181-2.082,2.288-2.879,3.154-.684.742-3.6,6.906-1.393,6.916.465,0,.81-.544,1.2-.955a1.492,1.492,0,0,1,.543-.4c.653.641-.224,2.342,1.238,2.254,1.282-.077,1.511-2.287,2.643-2.326.753-.026-.645,2.919,1.83,1.173,1.158-.817,1.895-2.281,3.27-2.788,1.908-.7,2.471,1.345,2.163,2.9a2.53,2.53,0,0,0-1.293,1.7,8.96,8.96,0,0,0,2.435-.176c1.381-.357,2.161-1.709,3.266-.349.8-1.025-.215-2.416-.634-3.359-.631-1.42-1.132-4.58-2.793-5.072" transform="translate(-594.975 -293.897)" fill="#b84337"/>
      <path id="Trazado_238218" data-name="Trazado 238218" d="M758.734,399.712a8.62,8.62,0,0,0-1.333,2.482c.074.151.169.186.3.3a9.5,9.5,0,0,1,.864-1.166,4.714,4.714,0,0,1,.486-.56l.076-.072c.394-.425.8-.832,1.159-1.194a7.8,7.8,0,0,1,.839-.487,6.8,6.8,0,0,1,2.351-1.129.579.579,0,0,1,.3-.061l.011,0c-.018-.14-.131-1.053-.131-1.053a9.387,9.387,0,0,0-4.92,2.945" transform="translate(-624.934 -327.374)" fill="#a2362f"/>
      <path id="Trazado_238219" data-name="Trazado 238219" d="M738.9,386.936a7.788,7.788,0,0,0-1.053,1.127,8.893,8.893,0,0,0-1.635,3.289c-.026.113.057,1.258.188,1a17.47,17.47,0,0,1,6.856-7.4,3.825,3.825,0,0,1-.309-.883c-.1-.429-3.711,2.573-4.047,2.863" transform="translate(-607.444 -316.865)" fill="#a2362f"/>
      <path id="Trazado_238220" data-name="Trazado 238220" d="M718.21,363.818c-.816-.169-1.062.964-1.355,1.512-.42.787-2.376,4.209-.46,4.346.8.058,1.165-.76,1.622-1.246.918-.974,2.671-4.1.193-4.612" transform="translate(-590.416 -300.174)" fill="#b84337"/>
      <path id="Trazado_238221" data-name="Trazado 238221" d="M731.535,355.666a6.478,6.478,0,0,0-3.524,1.169c-.676.47-.578.79-.3,1.616.663,1.949,2.4,1.209,3.964.895,1.526-.307,2.486-1.519,1.331-2.966a1.889,1.889,0,0,0-1.473-.714" transform="translate(-600.262 -293.46)" fill="#b84337"/>
      <path id="Trazado_238222" data-name="Trazado 238222" d="M727.593,376.68a16.065,16.065,0,0,0-4.5,4.136c-.361.5-2.042,3.768-.834,4a7.312,7.312,0,0,1,.862-2.346,10.154,10.154,0,0,1,1.577-2.388c.04-.046.083-.093.127-.139a18.45,18.45,0,0,1,3.194-2.671,1.845,1.845,0,0,0-.424-.595" transform="translate(-595.581 -310.8)" fill="#a2362f"/>
      <path id="Trazado_238223" data-name="Trazado 238223" d="M762.848,360.4a1.849,1.849,0,0,0-.78-.02,1.049,1.049,0,0,1-.4-.033c-.639-.207-.292-.318-.566-.753a1.091,1.091,0,0,0-1.975.05c-.219.531.283,1.069.5,1.543.342.736.643,1.753,1.481,2.069.571.213,2.164.23,2.534-.358a2.112,2.112,0,0,0-.8-2.5" transform="translate(-626.316 -296.203)" fill="#b84337"/>
      <path id="Trazado_238224" data-name="Trazado 238224" d="M779.755,372.882l-.285-.117c-.454-.185-.437.045-.786-.462a5.923,5.923,0,0,1-.282-.858c-2.2,1.083-1.4,4.811,1.141,4.473,1.378-.183,1.405-.536,1.227-1.77a1.358,1.358,0,0,0-1.016-1.266" transform="translate(-641.204 -306.481)" fill="#b84337"/>
      <path id="Trazado_238225" data-name="Trazado 238225" d="M11.162,804.242c-3.484,1.014-6.775,2.577-10.258,3.59a1.283,1.283,0,0,0,.682,2.473c3.484-1.013,6.775-2.577,10.259-3.59a1.283,1.283,0,0,0-.682-2.473" transform="translate(0 -663.536)" fill="#fefefe"/>
      <path id="Trazado_238226" data-name="Trazado 238226" d="M45.812,80.029c-2-1.563-2.944-3.951-3.861-6.243a1.341,1.341,0,0,0-1.613-.916,1.314,1.314,0,0,0-.916,1.614c1.075,2.686,2.18,5.563,4.535,7.4a1.343,1.343,0,0,0,1.855,0,1.313,1.313,0,0,0,0-1.855" transform="translate(-32.471 -60.085)" fill="#fefefe"/>
      <path id="Trazado_238227" data-name="Trazado 238227" d="M1018.239,664.873a3.058,3.058,0,0,1-2.349,0,1.34,1.34,0,0,0-1.794.471,1.315,1.315,0,0,0,.47,1.795,5.9,5.9,0,0,0,5,0,1.315,1.315,0,0,0,.471-1.795,1.34,1.34,0,0,0-1.795-.471" transform="translate(-836.591 -548.459)" fill="#fefefe"/>
      <path id="Trazado_238228" data-name="Trazado 238228" d="M997.033,1061.8a42.6,42.6,0,0,1-8.083-4.065,1.313,1.313,0,0,0-1.324,2.265,45.73,45.73,0,0,0,8.709,4.33c1.606.547,2.29-1.988.7-2.53" transform="translate(-814.375 -872.574)" fill="#fefefe"/>
      <path id="Trazado_238229" data-name="Trazado 238229" d="M629.875,359.273c.143-1.808.522-3.992-.808-5.474-1.412-1.573-3.448-.359-3.448-.359s-2.883-.446-3.9.589c-2.274,2.308-2.3,8.894-.658,11.29,1.067,1.557,1.629,2.063,5.233,1.5,2.431-.382,3.082-.288,3.749-1.752a3.742,3.742,0,0,0-.094-2.846,8.623,8.623,0,0,1-.072-2.945" transform="translate(-511.488 -291.256)" fill="#cd3734"/>
      <path id="Trazado_238230" data-name="Trazado 238230" d="M631.878,368.634a4.877,4.877,0,0,1-.478-1.923c-.043-1.581.4-3.09.031-4.663-.248-1.071-1.019-1.3-2.064-1.424-1.753-.207-4.961.085-5.821,1.957-1.406,3.058-1.6,7.157.726,8.341a8,8,0,0,0,5,.687,5.226,5.226,0,0,0,2.152-.988c.737-.536.859-.9.6-1.632-.039-.109-.086-.227-.141-.355" transform="translate(-513.628 -297.505)" fill="#af2f3d"/>
      <path id="Trazado_238231" data-name="Trazado 238231" d="M634.832,357.728a1.745,1.745,0,0,0-.288-.009,16.113,16.113,0,0,0-2.178.557,9.214,9.214,0,0,1-2.106.057c-1.41-.043-1.615.744-2.047,2.06a31.688,31.688,0,0,1,7.891-.967c-.25-.7-.508-1.608-1.272-1.7" transform="translate(-518.34 -295.154)" fill="#fff"/>
      <path id="Trazado_238232" data-name="Trazado 238232" d="M631.7,392.519a2.825,2.825,0,0,0-.3-.158,7.992,7.992,0,0,0-2.881-.389c-1.369-.024-4.2.227-3.36,2.356.62,1.57,4.269,2.571,5.737,2.286.8-.155,2.209-.487,2.529-1.39.343-.97-.859-2.184-1.726-2.7" transform="translate(-515.695 -323.417)" fill="#c3424f"/>
      <path id="Trazado_238233" data-name="Trazado 238233" d="M626.521,412.119c.285.214.454,1.21.868,1.574a2.282,2.282,0,0,0,1.878.586c1.516-.243,3.051-.462,4.6-.625,1.067-.112,1.272-.651,1.481-1.864-1.538.555-7.6,1.251-8.829.329" transform="translate(-516.944 -339.77)" fill="#fff"/>
      <path id="Trazado_238234" data-name="Trazado 238234" d="M589.619,332.359a1.889,1.889,0,0,0,1,1.315c3.47,1.423,2.839-5.39,2.138-7.027-1.615.871-3.741,3.71-3.137,5.712" transform="translate(-486.41 -269.518)" fill="#9ed8f5"/>
      <path id="Trazado_238235" data-name="Trazado 238235" d="M521.2,396.857a1.684,1.684,0,0,0,.383,1.464c2.519,2.488,4.534-3.376,4.536-4.992-1.751.107-4.7,1.646-4.919,3.529" transform="translate(-430.023 -324.536)" fill="#9ed8f5"/>
      <path id="Trazado_238236" data-name="Trazado 238236" d="M566.26,394.727a1.87,1.87,0,0,0,.92,1.4c3.5,1.708,3.5-5.164,2.925-6.86-1.779.74-4.285,3.408-3.846,5.462" transform="translate(-467.181 -321.184)" fill="#9ed8f5"/>
      <path id="Trazado_238237" data-name="Trazado 238237" d="M520.848,454.916a1.889,1.889,0,0,0,.814,1.437c3.248,1.875,3.535-4.961,3.06-6.677-1.717.646-4.2,3.175-3.874,5.241" transform="translate(-429.729 -371.029)" fill="#9ed8f5"/>
      <path id="Trazado_238238" data-name="Trazado 238238" d="M442.554,524.244a1.682,1.682,0,0,0,.384,1.464c2.519,2.488,4.534-3.375,4.535-4.992-1.751.107-4.695,1.646-4.919,3.529" transform="translate(-365.135 -429.644)" fill="#9ed8f5"/>
      <path id="Trazado_238239" data-name="Trazado 238239" d="M493.04,514.916a1.87,1.87,0,0,0,.92,1.4c3.5,1.708,3.5-5.164,2.925-6.86-1.779.74-4.285,3.408-3.846,5.462" transform="translate(-406.767 -420.352)" fill="#9ed8f5"/>
      <path id="Trazado_238240" data-name="Trazado 238240" d="M671.432,316.127c-.493,1.431-.2,4.343,1.289,5.221a1.558,1.558,0,0,0,1.341.239c2.9-1.076-1.29-4.858-2.631-5.46" transform="translate(-553.819 -260.838)" fill="#9ed8f5"/>
      <path id="Trazado_238241" data-name="Trazado 238241" d="M575.616,305.9a22.438,22.438,0,0,0-5.794-2.016.692.692,0,1,0-.324,1.342,20.223,20.223,0,0,1,4.3,1.375c-1.375.814-2.83,1.511-4.257,2.252-.861.447-.01,1.575.848,1.13a54.967,54.967,0,0,0,5.3-2.9.656.656,0,0,0-.075-1.179" transform="translate(-469.415 -250.718)" fill="#212a25"/>
      <path id="Trazado_238242" data-name="Trazado 238242" d="M661.86,286.584a9.436,9.436,0,0,0-3.511,3.384.6.6,0,0,0,.274.809,10.663,10.663,0,0,0,3.012,1,.6.6,0,0,0,.256-1.181,10.375,10.375,0,0,1-2.1-.613,8.766,8.766,0,0,1,2.759-2.4c.688-.4-.005-1.4-.691-1" transform="translate(-543.149 -236.385)" fill="#212a25"/>
      <path id="Trazado_238243" data-name="Trazado 238243" d="M391.089,729.216c-.884,4.538-2.926,8.674-5.094,12.717-.548,1.02.989,1.969,1.542.941,2.239-4.173,4.372-8.463,5.283-13.145.221-1.132-1.508-1.658-1.731-.513" transform="translate(-318.39 -601.15)" fill="#ed9500"/>
      <path id="Trazado_238244" data-name="Trazado 238244" d="M298.888,500.63c-1.187,6.235-2.072,47.261-2.267,49.049a37.617,37.617,0,0,1,7.62,1.7c.544-2.313-.02-6.3.273-8.7.864-6.953.981-14.2,1.7-21.226.594-5.764,2.935-12.563,1.894-18.845-3.078-.786-6.141-1.472-9.223-1.979" transform="translate(-244.743 -413.072)" fill="#ed9500"/>
      <path id="Trazado_238245" data-name="Trazado 238245" d="M371.436,716.344a1.284,1.284,0,0,0-1.577.9,84.559,84.559,0,0,0-.559,11.625,1.283,1.283,0,0,0,2.564,0,79.829,79.829,0,0,1,.467-10.943,1.315,1.315,0,0,0-.9-1.577" transform="translate(-304.71 -591.025)" fill="#ed9500"/>
      <path id="Trazado_238246" data-name="Trazado 238246" d="M63.535,137.726c-3.67-.061-3.413-5.4-5.166-2.285-3.662,6.52-8.92,18.693-12.412,25.316a78.271,78.271,0,0,0-6.8,16.572c-1.367,5.467-1.944,14.9,2.336,19.437,13.1,13.9,24.883-20.134,26.075-28.054,1.291-8.6,4.482-20.944,4.016-29.61-.172-3.191-5.595-1.336-8.051-1.377" transform="translate(-31.483 -110.948)" fill="#c85540"/>
      <path id="Trazado_238247" data-name="Trazado 238247" d="M173.832,40.119a31.777,31.777,0,0,0-7.773-2.962c-4.538-1.243-5.778-1.306-8.2,1.981-2.285,3.1-4.144,6.4-6.241,9.576-1.728,2.614-4.176,4.984-4.407,8.33-.166,2.408.552,2.736,2.871,4.113,2.087,1.238,7.368,5.67,10,3.914.944-.631,1.183-3.142,1.8-4.154a10.926,10.926,0,0,1,3.411-3.426c3.056-2.019,7.49-3.869,9.018-7.479-.1.235.97-9.34,1.85-7.79q-.066-.117-.14-.227a6.511,6.511,0,0,0-2.188-1.877" transform="translate(-121.444 -30.01)" fill="#c85540"/>
      <path id="Trazado_238248" data-name="Trazado 238248" d="M233.4,42.322a42.333,42.333,0,0,1-8.295-2.286,34.5,34.5,0,0,1-.175,6.394c-.137,1.951-.759,2.992,1.613,3.214,3.175.3,8.947-1.573,10.907-3.574,3.039-3.1-1.036-3.233-4.05-3.748" transform="translate(-185.448 -33.034)" fill="#c85540"/>
      <path id="Trazado_238249" data-name="Trazado 238249" d="M240.445,53c-2.351.5-1.53,2.754-2.232,4.245a2.1,2.1,0,0,1-1.314,1.213c-.994.313-2.283.012-3.64.215-1.83.275-4.022,1.213-4.909,2.636-.825,1.324-1.445,2.857-.081,4.1,4.7,4.29,7.286,1.546,10.992-.649,3.03-1.8,4.7-3.362,3.556-7.12-.417-1.374-.08-5.131-2.371-4.642" transform="translate(-187.684 -43.697)" fill="#c85540"/>
      <path id="Trazado_238250" data-name="Trazado 238250" d="M219.987,57.068h-.007c0,.052,0,.1.006.154-1.03.1-2.163.449-3.056.49-.878.04-.882,1.408,0,1.368.993-.045,2.115-.388,3.041-.487-.02.512-.051,1.029-.081,1.53-.052.859-.1,1.67-.1,2.433l1.317.131c0-.731.046-1.528.1-2.371a30.026,30.026,0,0,0,.078-3.44,5.278,5.278,0,0,1-1.3.192" transform="translate(-178.445 -46.929)" fill="#a73b33"/>
      <path id="Trazado_238251" data-name="Trazado 238251" d="M254.465,44.647c.741.969.506,3.189.3,5.147-.08.753-.162,1.532-.193,2.246l1.316.176c.029-.682.106-1.411.188-2.184.251-2.367.488-4.6-.542-5.951Z" transform="translate(-209.96 -36.372)" fill="#a73b33"/>
      <path id="Trazado_238252" data-name="Trazado 238252" d="M272.923,49.458c.6,1.19.266,2.909-.053,4.571-.111.584-.228,1.187-.3,1.763l1.309.26c.071-.547.179-1.109.292-1.7.351-1.83.713-3.723-.051-5.25Z" transform="translate(-224.897 -40.511)" fill="#a73b33"/>
      <path id="Trazado_238253" data-name="Trazado 238253" d="M235.229,59.08c-.957.819-3.575.287-4.962.513-2.7.438-6.024,1.688-5.326,4.524,1.178.281,1.879-.963,2.625-1.509a7.311,7.311,0,0,1,4.729-1.567c1.488.029,3.421.511,4.223-.838,1.354-2.28-.38-4.915,2.564-6.569-3.977-.112-2.017,3.875-3.854,5.446" transform="translate(-185.522 -44.252)" fill="#a73b33"/>
      <path id="Trazado_238254" data-name="Trazado 238254" d="M153.693,180.406c-2.859,1.8-.8,9.913-1.341,12.8-1.179,6.267-3.461,11.956-5.96,17.742a39.118,39.118,0,0,1-2.078,3.749c-1.653,2.8-3.418,6-2.741,8.324,1.816,6.236,7.715-7.35,8.1-9.064,1.256-5.571,2.782-11.084,3.828-16.7.288-1.545,3.4-18.878.192-16.854" transform="translate(-116.689 -148.718)" fill="#ba4b3f"/>
      <path id="Trazado_238255" data-name="Trazado 238255" d="M208.806,80.212a9,9,0,0,1-.069,6.653c-.3.832,1.022,1.187,1.319.364a10.3,10.3,0,0,0-.069-7.707c-.375-.8-1.554-.1-1.181.69" transform="translate(-172.193 -65.323)" fill="#a73b33"/>
      <path id="Trazado_238256" data-name="Trazado 238256" d="M199.586,135.6c-2.366.682-5.079.791-7.166-.7-.719-.514-1.4.673-.69,1.181,2.368,1.692,5.531,1.613,8.22.838a.684.684,0,0,0-.364-1.319" transform="translate(-157.949 -111.204)" fill="#a73b33"/>
    </g>
  </g>
</svg>
