<svg xmlns="http://www.w3.org/2000/svg" xmlns:xlink="http://www.w3.org/1999/xlink" width="7.528" height="11.881" viewBox="0 0 7.528 11.881">
  <defs>
    <clipPath id="clip-path">
      <rect id="Rectángulo_215682" data-name="Rectángulo 215682" width="7.528" height="11.881" transform="translate(0 0)" fill="none"/>
    </clipPath>
  </defs>
  <g id="Grupo_173806" data-name="Grupo 173806" transform="translate(0 0.004)">
    <g id="Grupo_172415" data-name="Grupo 172415" transform="translate(0 -0.004)" clip-path="url(#clip-path)">
      <path id="Trazado_221193" data-name="Trazado 221193" d="M247.567,792.778v3.785a.258.258,0,0,1-.258.258h-.458a.292.292,0,0,1-.291-.292v-3.75Z" transform="translate(-244.122 -784.939)" fill="#699dee"/>
      <path id="Trazado_221194" data-name="Trazado 221194" d="M115.021,946.453v.535a.258.258,0,0,1-.258.256h-3.087a.442.442,0,0,1-.443-.442v-.225a.341.341,0,0,1,.342-.341h3.23a.216.216,0,0,1,.215.215" transform="translate(-110.134 -936.882)" fill="#699dee"/>
      <path id="Trazado_221197" data-name="Trazado 221197" d="M7.527,2.389,7.327.381A.427.427,0,0,0,6.889,0L4.765.058a.4.4,0,0,0-.392.415l.009.3a.3.3,0,0,0,.313.3l.871-.025L4.181,2.729a2.947,2.947,0,0,0-3.319.59,3.138,3.138,0,0,0-.224.25A2.912,2.912,0,0,0,0,5.34c0,.017,0,.034,0,.051a2.947,2.947,0,0,0,.86,2.085A2.917,2.917,0,0,0,2.439,8.3v.875a.182.182,0,0,1-.182.182h-.97a.186.186,0,0,0-.187.185v.64a.182.182,0,0,0,.182.182h.965a.192.192,0,0,1,.191.191V11.7a.179.179,0,0,0,.179.179h.651a.177.177,0,0,0,.177-.177V10.536a.175.175,0,0,1,.176-.176H4.689a.2.2,0,0,0,.2-.2V9.539A.187.187,0,0,0,4.7,9.353H3.618a.172.172,0,0,1-.172-.173V8.3a2.923,2.923,0,0,0,1.575-.818,2.972,2.972,0,0,0,.432-.548A2.918,2.918,0,0,0,5.883,5.4c0-.016,0-.03,0-.046a2.912,2.912,0,0,0-.86-2.034L5.01,3.307,6.433,1.575l.092.917a.35.35,0,0,0,.383.313l.3-.03a.353.353,0,0,0,.316-.386M2.9,7.331a1.937,1.937,0,0,1-1.9-1.889c0-.036,0-.071,0-.106a1.934,1.934,0,0,1,1.958-1.87A1.939,1.939,0,0,1,4.874,5.347c0,.025,0,.051,0,.077A1.935,1.935,0,0,1,2.9,7.331" transform="translate(-0.001 0.004)" fill="#4b5cc9"/>
      <path id="Trazado_221199" data-name="Trazado 221199" d="M5.882,540.076a2.919,2.919,0,0,1-.43,1.532,2.973,2.973,0,0,1-.432.548,2.923,2.923,0,0,1-1.575.818v.883a.172.172,0,0,0,.172.173H4.7a.187.187,0,0,1,.188.187v.623a.2.2,0,0,1-.2.2H3.621a.175.175,0,0,0-.176.176v1.165a.177.177,0,0,1-.177.177H2.617a.179.179,0,0,1-.179-.179v-1.147a.192.192,0,0,0-.191-.191H1.281a.182.182,0,0,1-.182-.182v-.64a.186.186,0,0,1,.187-.185h.97a.182.182,0,0,0,.182-.182v-.875a2.917,2.917,0,0,1-1.578-.821A2.947,2.947,0,0,1,0,540.067c0-.017,0-.034,0-.051.273,0,.619,0,1.008,0,0,.035,0,.07,0,.106a1.934,1.934,0,0,0,3.866-.018c0-.026,0-.052,0-.077l1.007.006c0,.016,0,.03,0,.046" transform="translate(0 -534.673)" fill="#f55d8b"/>
    </g>
  </g>
</svg>
