<svg xmlns="http://www.w3.org/2000/svg" xmlns:xlink="http://www.w3.org/1999/xlink" width="505" height="279.898" viewBox="0 0 505 279.898">
  <defs>
    <clipPath id="clip-path">
      <rect id="Rectángulo_218346" data-name="Rectángulo 218346" width="402.193" height="257.973" fill="none"/>
    </clipPath>
    <clipPath id="clip-path-2">
      <rect id="Rectángulo_218339" data-name="Rectángulo 218339" width="402.193" height="262.9" fill="none"/>
    </clipPath>
    <clipPath id="clip-path-3">
      <rect id="Rectángulo_218338" data-name="Rectángulo 218338" width="265.475" height="171.399" fill="none"/>
    </clipPath>
    <clipPath id="clip-path-5">
      <rect id="Rectángulo_218341" data-name="Rectángulo 218341" width="24.111" height="26.472" fill="none"/>
    </clipPath>
    <clipPath id="clip-path-6">
      <rect id="Rectángulo_218342" data-name="Rectángulo 218342" width="11.564" height="19.954" fill="none"/>
    </clipPath>
    <clipPath id="clip-path-7">
      <rect id="Rectángulo_218343" data-name="Rectángulo 218343" width="21.746" height="27.797" fill="none"/>
    </clipPath>
    <clipPath id="clip-path-8">
      <rect id="Rectángulo_218345" data-name="Rectángulo 218345" width="402.193" height="181.152" fill="none"/>
    </clipPath>
  </defs>
  <g id="Grupo_176912" data-name="Grupo 176912" transform="translate(-914.805 -3321.717)">
    <rect id="Rectángulo_217034" data-name="Rectángulo 217034" width="505" height="279.898" transform="translate(914.805 3321.717)" fill="#5672c3"/>
    <g id="Grupo_175444" data-name="Grupo 175444" transform="translate(966.805 3343.545)">
      <g id="Grupo_175443" data-name="Grupo 175443" clip-path="url(#clip-path)">
        <g id="Grupo_175429" data-name="Grupo 175429">
          <g id="Grupo_175428" data-name="Grupo 175428" clip-path="url(#clip-path-2)">
            <g id="Grupo_175427" data-name="Grupo 175427" transform="translate(59.741 0.8)" opacity="0.2" style="mix-blend-mode: multiply;isolation: isolate">
              <g id="Grupo_175426" data-name="Grupo 175426">
                <g id="Grupo_175425" data-name="Grupo 175425" clip-path="url(#clip-path-3)">
                  <path id="Trazado_246891" data-name="Trazado 246891" d="M355.651,79.745c5.775,13.115,8.515,27.6,4.4,40.416-4.115,12.862-13.672,24.236-25.153,32.667-11.152,8.192-24.787,13.632-39.75,15.983-15.328,2.4-31.5,1.789-47.427-.289-8.33-1.087-16.593-2.719-24.882-4.216-8.525-1.549-17.16-2.747-25.6-2.064-13.594,1.1-25.737,5.983-38.691,8.707a67.406,67.406,0,0,1-19,1.6,45.489,45.489,0,0,1-19.325-5.95,47.98,47.98,0,0,1-22.639-30.77c-3.049-14.47,1.047-28.571,7.1-41.2a149.342,149.342,0,0,1,22.05-33.306A169.252,169.252,0,0,1,157.15,34.008a186.68,186.68,0,0,1,35.165-19.359A142.022,142.022,0,0,1,210.3,6.143,73.683,73.683,0,0,1,232.591,1.4,90.6,90.6,0,0,1,254.8,3.145c15.449,3.061,30.3,9.409,43.687,17.3A165.87,165.87,0,0,1,332.68,46.9c9.708,9.9,17.748,20.993,22.971,32.845" transform="translate(-96.549 -1.293)" fill="#f2ac56"/>
                </g>
              </g>
            </g>
          </g>
        </g>
        <rect id="Rectángulo_218340" data-name="Rectángulo 218340" width="50.377" height="93.124" transform="translate(203.103 156.409)" fill="#fca27e"/>
        <g id="Grupo_175440" data-name="Grupo 175440">
          <g id="Grupo_175439" data-name="Grupo 175439" clip-path="url(#clip-path-2)">
            <path id="Trazado_246892" data-name="Trazado 246892" d="M458.546,236.6a80.109,80.109,0,0,1-7.633,12.447q1.956,33.227,3.9,66.449H354.175c.364-19.16,3.817-38.159,4.661-57.313a64.721,64.721,0,0,0-.78-15.65,67.169,67.169,0,0,0-5.2-14.506c-3.305-7.186-6.917-14.231-10.721-21.167a75.786,75.786,0,0,1-5.165-10.651q-.9-3.232-1.489-6.546a69.159,69.159,0,0,1-1.08-12.37c.006-3.682.307-7.364.121-11.034a42.4,42.4,0,0,0-2.525-12.434,67.667,67.667,0,0,1,30.833-2.02c.307,3.727.7,7.454,1.3,11.143.518,3.139,1.241,6.381,3.216,8.88a11.655,11.655,0,0,0,6.342,3.951c-.55,5.907-1,12.006.946,17.6a32.61,32.61,0,0,0,4.155,7.717,67.587,67.587,0,0,0,10.37,11.776,4.334,4.334,0,0,0,6.418.435,53.441,53.441,0,0,0,16.194-15.478,39.148,39.148,0,0,0,.16,7.243.973.973,0,0,0,.978,1.036c1.144.269,2.282.53,3.427.8a40.848,40.848,0,0,1-.051-12.939,73.813,73.813,0,0,1,5.894-18.891,93.432,93.432,0,0,0-1.707,31.984,3.046,3.046,0,0,0,.371,1.3,2.625,2.625,0,0,0,.895.78,12.182,12.182,0,0,0,5.223,1.745,20.484,20.484,0,0,1-1.579-8.515,30,30,0,0,1,.94-6.156c1.982-8.113,5.811-15.842,6.265-24.179-.332,14.052-.108,28.276,3.356,41.893a9.837,9.837,0,0,1,6.546-3.145c3.254-.211,6.572,1.2,9.737,1.055a78.745,78.745,0,0,0,.722-36.811c.428,1.048.857,2.1,1.272,3.151a114.4,114.4,0,0,1,7.569,32.234c.6.115,1.2.217,1.8.326,1.01,8.777-1.164,17.855-5.038,25.859" transform="translate(-126.569 -57.525)" fill="#f4e5d9"/>
            <path id="Trazado_246893" data-name="Trazado 246893" d="M445.547,128.374a20.464,20.464,0,0,1-5.294,4.8,24.515,24.515,0,0,1-.83,7.857,146.97,146.97,0,0,1-5.2,17.684c-1.375,3.772-2.915,7.531-3.5,11.5q-.135.882-.192,1.764a53.4,53.4,0,0,1-16.194,15.477,4.334,4.334,0,0,1-6.418-.434,67.587,67.587,0,0,1-10.369-11.776,32.6,32.6,0,0,1-4.156-7.716c-1.95-5.594-1.5-11.693-.947-17.6a11.663,11.663,0,0,1-6.342-3.951c-1.975-2.5-2.7-5.741-3.215-8.88-.6-3.688-1-7.416-1.3-11.143-.039-.421-.071-.851-.1-1.272a45.353,45.353,0,0,1,.295-12.587,27.339,27.339,0,0,1,1.074-3.8c3.146-8.81,10.2-16.169,12.978-25.208,4.6,2.525,10.127,2.87,15.381,3.5q4.335.518,8.63,1.343a13.409,13.409,0,0,1,3.76,1.151,9.782,9.782,0,0,1,3.842,4.174A44.037,44.037,0,0,1,429.59,98.6a55.728,55.728,0,0,0,9.4,16.174c1.848-1.586,4.4-2.755,6.591-1.759,1.893.857,2.819,3.043,3.043,5.108a14.668,14.668,0,0,1-3.081,10.253" transform="translate(-145.323 -31.676)" fill="#ffb888"/>
            <path id="Trazado_246894" data-name="Trazado 246894" d="M485.354,151.373a35.216,35.216,0,0,0-.836-10.607,88.877,88.877,0,0,0-4.578-14.347c-1.878-4.714-3.948-9.349-5.8-14.074-.94-2.4-1.823-4.825-2.593-7.285q-.321-3.267-.4-6.551c-.179-8.183.806-16.372.294-24.542s-2.717-16.6-8.3-22.58c-4.015-4.3-9.481-7.007-15.088-8.8a60.524,60.524,0,0,0-24.21-2.576c-5.894.575-11.9,2.116-16.5,5.849-3.114,2.525-5.415,5.92-8.439,8.554-4.6,4.008-10.875,6.291-14.11,11.463-4.654,7.454-.971,17.114-1.483,25.885,3.146-8.809,10.2-16.168,12.978-25.208,4.6,2.526,10.127,2.87,15.382,3.5q4.334.518,8.63,1.343a18.475,18.475,0,0,1,2.707.694c2.072,3.438,3.081,7.449,4.246,11.266,1.338,4.386,3.059,8.912,6.623,11.993a12.385,12.385,0,0,0,2.938,1.915,3.967,3.967,0,0,0,2.226.451c.141.173.276.353.419.524,1.848-1.585,4.4-2.755,6.592-1.758,1.892.856,2.819,3.043,3.042,5.108a14.669,14.669,0,0,1-3.081,10.254,20.506,20.506,0,0,1-5.293,4.8c.048.466.064.936.066,1.408a60.271,60.271,0,0,1-3.364,7.743,87.61,87.61,0,0,0-3.733,8.394,51.073,51.073,0,0,0-3.532,17.744,29.827,29.827,0,0,0,.743,6.569c.018,1.4.105,2.8.249,4.19a.973.973,0,0,0,.978,1.036c1.144.269,2.282.531,3.427.8a40.848,40.848,0,0,1-.051-12.939A73.812,73.812,0,0,1,441.4,132.7a93.433,93.433,0,0,0-1.707,31.984,3.046,3.046,0,0,0,.371,1.3,2.625,2.625,0,0,0,.895.78,12.182,12.182,0,0,0,5.223,1.745A20.484,20.484,0,0,1,444.6,160a29.958,29.958,0,0,1,.94-6.156c1.471-6.022,3.957-11.832,5.328-17.836-.409,3.795-.848,7.587-.957,11.4a39.827,39.827,0,0,0,1.768,13.9,25.535,25.535,0,0,0,2.312,5.014q.512,2.628,1.17,5.231a9.837,9.837,0,0,1,6.546-3.145c3.254-.211,6.572,1.2,9.737,1.055a78.745,78.745,0,0,0,.722-36.811c.428,1.048.857,2.1,1.272,3.151a114.4,114.4,0,0,1,7.569,32.234c.6.115,1.2.217,1.8.326l-.831-4.6a34.4,34.4,0,0,1,.831,4.6l.985.173a50.818,50.818,0,0,0,1.564-17.166M436.531,96.415a12.234,12.234,0,0,1-2.523-1.8,17.581,17.581,0,0,1-3.638-4.9c-2.212-4.278-3.038-9.087-4.735-13.564a28.6,28.6,0,0,0-1.659-3.639c.028.014.058.024.086.038a9.787,9.787,0,0,1,3.842,4.175,44,44,0,0,1,2.155,5.345,55.742,55.742,0,0,0,8.52,15.069,5.166,5.166,0,0,1-2.046-.721m3.359,28.089a146.663,146.663,0,0,1-5.2,17.683c-1.374,3.771-2.915,7.531-3.5,11.5-.082.538-.14,1.077-.179,1.616a37.635,37.635,0,0,1,.582-11.321A61.027,61.027,0,0,1,434,135.208a77.617,77.617,0,0,1,3.651-8.434c1.057-2.142,2.126-4.287,3.008-6.506a38.791,38.791,0,0,1-.77,4.236m11.04,30.78a62.294,62.294,0,0,1,.125-14.988c.213-2.127.457-4.25.673-6.376-.139,10.174.156,20.4,1.893,30.373a29.821,29.821,0,0,1-2.691-9.009m33.851-7.541c-1.324-6.124-4.411-11.693-6.84-17.466a86.92,86.92,0,0,1-6.026-22.092q.358,1.025.735,2.043c1.77,4.755,3.826,9.4,5.754,14.088a106.737,106.737,0,0,1,4.943,14.243,43.965,43.965,0,0,1,1.486,9.451c-.018-.089-.033-.179-.052-.267" transform="translate(-145.79 -15.148)" fill="#442626"/>
            <path id="Trazado_246895" data-name="Trazado 246895" d="M398.007,186.4c1.538,0,3.05.087,4.56.142s3.011.1,4.515.187a37.327,37.327,0,0,0,4.535.148,21.228,21.228,0,0,0,4.466-.775c1.454-.414,2.88-.887,4.292-1.38s2.775-1.111,4.125-1.739a48.3,48.3,0,0,0,7.789-4.514l.087.094a22.319,22.319,0,0,1-7.286,5.65,27.3,27.3,0,0,1-4.34,1.651,25.244,25.244,0,0,1-4.531.924c-1.527.189-3.048.319-4.565.5s-3.04.436-4.579.5a28.371,28.371,0,0,1-9.087-1.267Z" transform="translate(-151.729 -68.042)" fill="#442626"/>
            <path id="Trazado_246896" data-name="Trazado 246896" d="M465.806,162.966c1.005-.066,1.932-.2,2.881-.35.937-.163,1.942-.272,2.818-.421a8.216,8.216,0,0,0,2.5-.918c.819-.442,1.63-.985,2.529-1.446a9.423,9.423,0,0,1-1.97,2.272,6.117,6.117,0,0,1-2.832,1.349,15.639,15.639,0,0,1-2.993.156,7.089,7.089,0,0,1-2.938-.643" transform="translate(-177.584 -60.935)" fill="#442626"/>
            <path id="Trazado_246897" data-name="Trazado 246897" d="M404.867,192.393a4.36,4.36,0,0,1,1.124,1.909,6.748,6.748,0,0,1,.274,2.2,8.5,8.5,0,0,1-.358,2.142,8.076,8.076,0,0,1-.882,1.983,11.819,11.819,0,0,1-.111-2.141l.073-2.029c.023-.663.035-1.319.016-1.983s-.069-1.335-.137-2.078" transform="translate(-154.352 -73.348)" fill="#442626"/>
            <path id="Trazado_246898" data-name="Trazado 246898" d="M481.516,138.594c-.731-.408-1.421-.865-2.116-1.316l.213.072a2.3,2.3,0,0,0-1.457.936,6.393,6.393,0,0,0-.889,1.673,7.064,7.064,0,0,0-.516,3.721c.119.616.342,1.268.5,1.988a4.675,4.675,0,0,1,.023,2.294,6,6,0,0,1-2.663,3.367,7.465,7.465,0,0,0,1.759-3.542,4.32,4.32,0,0,0-.223-1.831,20.755,20.755,0,0,1-.619-2.029,5.592,5.592,0,0,1-.019-2.3,8.953,8.953,0,0,1,.679-2.107,6.031,6.031,0,0,1,1.255-1.88,2.9,2.9,0,0,1,2.149-.926l.151.008.063.064c.581.591,1.166,1.177,1.711,1.812" transform="translate(-180.941 -52.118)" fill="#442626"/>
            <path id="Trazado_246899" data-name="Trazado 246899" d="M397.019,152.825a8.337,8.337,0,0,0,1.426,3.344c.734.806,1.92,1.074,3.16,1.561,1.276.5,2.308,1.251,3.419,1.635a4.185,4.185,0,0,0,1.712.241,2.65,2.65,0,0,0,1.661-.684,2.454,2.454,0,0,1-1.53,1.3,4.163,4.163,0,0,1-2.1.11,20.713,20.713,0,0,1-3.637-1.413c-.568-.231-1.19-.438-1.809-.755a3.967,3.967,0,0,1-2.348-3.362,8.616,8.616,0,0,1,.045-1.975" transform="translate(-151.329 -58.263)" fill="#442626"/>
            <path id="Trazado_246900" data-name="Trazado 246900" d="M403.249,170.19a16.886,16.886,0,0,0-3.305.345,9.852,9.852,0,0,1-2.608.371c-1.585-.108-2.915-1.176-4.13-2.2a4.691,4.691,0,0,1-1.074-1.119,4.585,4.585,0,0,1-.5-2.193,17.065,17.065,0,0,0-.761-5.325,18.907,18.907,0,0,1,3.069,1.125,4.644,4.644,0,0,1,2.218,3.465,4.951,4.951,0,0,1,1.739.16,5.979,5.979,0,0,1,2.922,2.448,13.589,13.589,0,0,0,2.429,2.922" transform="translate(-149.016 -61.025)" fill="#f27242"/>
            <path id="Trazado_246901" data-name="Trazado 246901" d="M128.344,174.806s-16.761,9.654-15.161,26.27,11.75,61.313,11.75,61.313,8.5-1.479,16.152-2.755l6.22-.444s7.2,42.756,7.287,45.637-1.244,13.986-1.244,13.986H274.2s-1.955-16.437-5.865-29.056-6.753-24.88-7.108-30.212,7.717-23.428,0-41.723c0,0,12.884-7.416,12.973-11.592,0,0-12.973-41.231-28.434-45.319s-45.5,2.572-45.5,2.572h-35.9s-33.389,5.935-36.022,11.323" transform="translate(-43.109 -60.84)" fill="#f27242"/>
            <path id="Trazado_246902" data-name="Trazado 246902" d="M300.627,300.174a101.752,101.752,0,0,0-12.7,4.093q-1.539.638-3.085,1.25l-3.062,1.311-3.054,1.341-3.043,1.378-6.119,2.727c-2.059.877-4.115,1.768-6.209,2.575a74.892,74.892,0,0,1-12.871,3.919c4.18-1.624,8.245-3.419,12.284-5.3l6.045-2.852L274.9,307.8c2.049-.9,4.105-1.8,6.186-2.643l3.151-1.2c1.059-.382,2.128-.737,3.194-1.093a55.077,55.077,0,0,1,13.2-2.689" transform="translate(-95.496 -114.439)" fill="#f2dcce"/>
            <path id="Trazado_246903" data-name="Trazado 246903" d="M256.284,329.5c3.522-1.25,7.111-2.262,10.729-3.153,1.806-.46,3.628-.842,5.448-1.244,1.824-.377,3.656-.714,5.487-1.055,1.838-.3,3.677-.6,5.52-.868,1.848-.236,3.692-.5,5.547-.674a111.431,111.431,0,0,1,11.163-.663c-3.648.807-7.3,1.482-10.951,2.145l-10.95,1.949-10.963,1.871c-3.66.612-7.324,1.215-11.03,1.693" transform="translate(-97.706 -122.699)" fill="#f2dcce"/>
            <path id="Trazado_246904" data-name="Trazado 246904" d="M264.892,95.033a23.388,23.388,0,0,0-.609-5.879,49.614,49.614,0,0,0-5.011-12.065c-1.36-2.564-2.708-5.118-3.87-7.762-.614-7.955,1.035-16.339-2.212-23.6-2.27-5.069-6.636-8.867-9.679-13.514a42.021,42.021,0,0,1-3.248-6.17c-.2-.473-.409-.946-.6-1.419-3.03-7.282-5.2-15.056-11.124-20.048a19.531,19.531,0,0,0-20-2.858c-9.461-3.759-21.295-1.234-28.09,6.438-4.6,5.178-6.815,12.006-10.478,17.887-.16.258-.331.51-.5.765-1.544,1.687-3.128,3.341-4.7,4.995-4.521,4.768-9.023,9.76-11.886,15.739a29.508,29.508,0,0,0-2.716,9.307,73.772,73.772,0,0,0-.209,10.427,56.757,56.757,0,0,1-.4,10.4,23.812,23.812,0,0,1-1.306,4.9,29.519,29.519,0,0,1-2.333,4.539c-1.75,2.875-3.794,5.608-5.131,8.715a15.022,15.022,0,0,0-1.258,9.029,36.535,36.535,0,0,0-1.789,9.109c1.272-1.458,3.432-1.752,5.364-1.567s3.829.736,5.76.595c3.861-.288,6.949-3.247,10.593-4.539,4.282-1.522,8.995-.646,13.527-.921,4.4-.262,9.372-2.314,10.516-6.489,3.139-7.5,3.458-15.337,3.4-23.494a69.318,69.318,0,0,1-4.833-9.455,3.886,3.886,0,0,1-3.2.608,8.108,8.108,0,0,1-3.9-2.813c-4.519-5.23-6.865-12.594-5.069-19.268.339-1.241.94-2.583,2.148-3.024a4.06,4.06,0,0,1,2.34.064,18.238,18.238,0,0,1,5.037,2.1,15.717,15.717,0,0,0,7.917-3.734c4.953-1.6,9-5.853,13.03-8.981a31.852,31.852,0,0,1,9.377-5.01c2.925-.99,6.1-1.868,8.271-4.214,2.338-2.529,3.094-6.144,2.889-9.5a.367.367,0,0,0-.011-.041c6.372,2.112,12.681,5.8,15.783,11.6.1.192.2.384.293.575.205.415.39.85.562,1.291,2.187,5.67,1.049,12,1.234,18.079.153,5.159,1.285,10.274,1.189,15.433-.172,8.918-4.066,17.523-9.839,24.318a34.539,34.539,0,0,1-3.433,3.548,73.049,73.049,0,0,0,.7,12.447c.077.032.147.064.224.1,3.886,1.56,8.26.512,12.408-.058a51.59,51.59,0,0,1,10.836-.325c2.954.217,6,.741,8.432,2.429a18.642,18.642,0,0,1,5.043,6.156,30.3,30.3,0,0,0,.541-14.84M154.809,49.115c-3.644,11.91,2.372,25.834-3.536,36.8-1.713,3.184-4.3,5.8-6.451,8.714a36.672,36.672,0,0,0-4.836,8.963,14.446,14.446,0,0,1,.865-6.155c1.107-3.161,3.052-5.923,4.835-8.727a29.423,29.423,0,0,0,4.131-9,41.431,41.431,0,0,0,.836-10c-.039-3.431-.233-6.866-.051-10.3a30.229,30.229,0,0,1,2.079-9.824c2.464-6.088,6.806-11.206,11.245-15.95.91-.973,1.831-1.939,2.752-2.906-4.506,5.886-9.722,11.355-11.87,18.383m55.279-21.863a33.093,33.093,0,0,0-9.037,4.5c-2.846,2.058-5.347,4.545-8.191,6.605a22.825,22.825,0,0,1-4.2,2.454c.246-.249.486-.5.718-.762,2.257-2.538,3.976-5.581,6.59-7.748,5.108-4.226,12.582-4.315,18.08-8.01a16.148,16.148,0,0,0,6.245-8.333,11.756,11.756,0,0,1-2.241,6.855c-1.958,2.513-5.069,3.472-7.968,4.439m53.388,63.085c-2.04-5.146-5.479-9.7-7.038-15a26.534,26.534,0,0,1-.819-3.928c.645,1.348,1.332,2.677,2.031,4a68.93,68.93,0,0,1,5.434,11.753,26.9,26.9,0,0,1,1.07,5.109c-.205-.649-.428-1.294-.678-1.927" transform="translate(-52.517 0)" fill="#442626"/>
            <path id="Trazado_246905" data-name="Trazado 246905" d="M137.615,195.47a3.342,3.342,0,0,0,2.067-2.63,3.305,3.305,0,0,0-1.522-2.432,10.217,10.217,0,0,0-5.352-2.091,27.5,27.5,0,0,0-2.945-.006c1.015-2.834.235-6.076-1.083-8.817a11.971,11.971,0,0,0-2.877-4,6,6,0,0,0-4.573-1.522c-1.763.241-3.23,1.436-4.641,2.531a57.126,57.126,0,0,1-7.932,5.1,17.218,17.218,0,0,0-3.935,2.506,11.213,11.213,0,0,0-2.6,4.387,22.4,22.4,0,0,0-1.151,4.87,22.654,22.654,0,0,0-.043,5.179c-.012,1.862-.025,3.731-.037,5.594-.006.489-.006.978.031,1.466a7.15,7.15,0,0,0,.161,1.021,9.045,9.045,0,0,0,2.97,4.183,49.345,49.345,0,0,0,4.5,3.675,17.578,17.578,0,0,0,4.133,2.357,7.625,7.625,0,0,0,4.69.309c.73-.21,1.51-.687,1.59-1.442a2.261,2.261,0,0,0-.52-1.429c-.588-.891-1.207-1.751-1.875-2.58a15.522,15.522,0,0,0,11.441-.266,4.319,4.319,0,0,0,1.578-1.033,1.747,1.747,0,0,0,.377-1.763c-.3-.736-1.176-1.033-1.943-1.244-5.495-1.535-11.07-3.372-15.692-6.652q5.819,2.116,11.831,3.657a24.617,24.617,0,0,0,6.485.99,9.453,9.453,0,0,0,6.082-2.116,3.084,3.084,0,0,0,1.238-2.5c-.155-1.231-1.4-1.968-2.531-2.469a37.446,37.446,0,0,0-4-1.479l-.173-.056c.328.031.662.043,1,.043a11.106,11.106,0,0,0,5.266-1.349m-15.853-11.806c.347.65.724,1.275,1.126,1.887.26.377.526.755.811,1.12l.483.594c-.278-.037-.551-.068-.829-.1-1.343-.148-2.673-.3-4-.545a16.287,16.287,0,0,0,2.407-2.958" transform="translate(-38.465 -66.311)" fill="#ffb888"/>
            <path id="Trazado_246906" data-name="Trazado 246906" d="M106.076,225.117a47.738,47.738,0,0,0,6.147,3.576,48.238,48.238,0,0,0,6.637,2.554,21.442,21.442,0,0,1-12.784-6.129" transform="translate(-40.441 -85.824)" fill="#f27242"/>
            <path id="Trazado_246907" data-name="Trazado 246907" d="M116.113,203.878c1.859.434,3.708.887,5.564,1.3s3.713.815,5.579,1.174c1.862.374,3.734.7,5.608,1.028.937.163,1.876.312,2.817.457l2.825.45c-.955-.015-1.907-.083-2.861-.139-.951-.081-1.9-.177-2.851-.281-1.9-.214-3.786-.526-5.662-.889s-3.737-.8-5.575-1.325-3.662-1.089-5.445-1.776" transform="translate(-44.267 -77.727)" fill="#f27242"/>
            <path id="Trazado_246908" data-name="Trazado 246908" d="M112.4,213.7a15.371,15.371,0,0,1,2.141,1.035,15.019,15.019,0,0,1,1.995,1.3,5.992,5.992,0,0,1-4.136-2.33" transform="translate(-42.851 -81.472)" fill="#f27242"/>
            <path id="Trazado_246909" data-name="Trazado 246909" d="M135.831,192.92c-.142-.148-.272-.3-.408-.452l-.483-.594c-.285-.365-.551-.743-.811-1.12-.4-.613-.78-1.238-1.126-1.887a16.287,16.287,0,0,1-2.407,2.958c-.068.074-.142.142-.217.21.043-.074.087-.148.136-.223.749-1.268,1.516-2.494,2.24-3.743l.285-.489.266.507,1.275,2.4.631,1.207c.13.266.272.526.408.792.074.142.142.285.21.433" transform="translate(-49.706 -71.513)" fill="#f27242"/>
            <path id="Trazado_246910" data-name="Trazado 246910" d="M139.462,195.812c-1.992-.142-3.96-.217-5.952-.433a16.088,16.088,0,0,1-5.779-1.559c.594.142,1.182.266,1.776.371a.362.362,0,0,0,.08.012c1.324.241,2.654.4,4,.544.278.031.551.062.829.1l.2.019a24.029,24.029,0,0,1,4.851.947" transform="translate(-48.696 -73.892)" fill="#f27242"/>
            <path id="Trazado_246911" data-name="Trazado 246911" d="M425.053,263.053a209.441,209.441,0,0,1-27,28.775c-7.282,6.418-15.778,12.62-25.489,12.741-9.25.109-17.862-5.555-23.347-13.009s-8.3-16.513-10.446-25.515a270.159,270.159,0,0,1-4.935-27.188c-.773-5.825-1.426-11.751-3.209-17.313l.128-.045a38.391,38.391,0,0,0-4.277-9.078c-5.261-9.161-9.96-18.956-11.386-29.376-2.135-6.457-7.377-11.815-8.241-18.565-.109-.844.025-1.937.837-2.161a1.707,1.707,0,0,1,1.017.127,7.026,7.026,0,0,1,.71.288,6.489,6.489,0,0,1,2.928-.767,3.84,3.84,0,0,1,1.8.346,10.839,10.839,0,0,1,2.877-2.507,4.579,4.579,0,0,1,2.282-.894,5.027,5.027,0,0,1,2.947,1.265c.358.256.723.512,1.08.768a4.81,4.81,0,0,1,3.133.536,8.586,8.586,0,0,1,1.393.934c1.643-.448,3.593.371,5,1.49,4.916,3.9,6.572,10.535,10.094,15.726a32.488,32.488,0,0,1,3.49,5.422,21.669,21.669,0,0,1,1.2,6.149,107.456,107.456,0,0,0,3.523,18.2l.09-.025a134.716,134.716,0,0,0,14.269,34.247c2.493,4.225,5.223,8.324,7.7,12.562q9.293-12.524,19.69-24.2c6.553,3.682,13.074,7.5,18.776,12.389,5.881,5.037,10.919,11.354,13.368,18.674" transform="translate(-116.973 -60.583)" fill="#ffb888"/>
            <path id="Trazado_246912" data-name="Trazado 246912" d="M405.14,300.571a37.487,37.487,0,0,1,2.133,3.14c.66,1.07,1.307,2.144,1.87,3.268s1.025,2.311,1.65,3.4a24.5,24.5,0,0,0,2.138,3.11c.788.985,1.582,1.965,2.292,3.024a20.737,20.737,0,0,1,1.957,3.335,19.9,19.9,0,0,1,1.441,7.54l-.126.024a68.325,68.325,0,0,0-2.555-7q-.781-1.642-1.731-3.255c-.645-1.064-1.28-2.161-1.865-3.289s-1.2-2.226-1.905-3.275-1.517-2.033-2.218-3.089a26.717,26.717,0,0,1-1.82-3.328,24.4,24.4,0,0,1-1.376-3.554Z" transform="translate(-154.413 -114.59)" fill="#f4e5d9"/>
            <path id="Trazado_246913" data-name="Trazado 246913" d="M311.072,165.374a20.624,20.624,0,0,1,3.779,2.865,26.562,26.562,0,0,1,5.634,7.62,22.866,22.866,0,0,1,.942,2.182c.132.374.27.744.379,1.126l.168.569a.526.526,0,0,0,.093.237c.03.063.188-.006.127-.1.1.069-.041.254-.174.183-.121-.055-.168-.17-.223-.245l-.314-.5c-.2-.335-.408-.668-.619-1-.4-.665-.827-1.315-1.246-1.965-.85-1.291-1.711-2.566-2.635-3.8-.9-1.244-1.869-2.442-2.854-3.634s-2.023-2.347-3.057-3.548" transform="translate(-118.593 -63.047)" fill="#f27242"/>
            <path id="Trazado_246914" data-name="Trazado 246914" d="M319.728,164.079a11.708,11.708,0,0,1,3.239,1.657,15.144,15.144,0,0,1,4.742,5.5,11.633,11.633,0,0,1,1.158,3.448c-.683-1.007-1.328-1.986-2.011-2.931s-1.4-1.847-2.152-2.723-1.541-1.718-2.374-2.533-1.707-1.6-2.6-2.421" transform="translate(-121.893 -62.554)" fill="#f27242"/>
            <path id="Trazado_246915" data-name="Trazado 246915" d="M332.272,161.673a20.375,20.375,0,0,1,2.974,2.611,23.024,23.024,0,0,1,2.486,3.093,18.665,18.665,0,0,1,1.861,3.528,12.718,12.718,0,0,1,.918,3.871c-.6-1.188-1.182-2.33-1.818-3.44s-1.32-2.185-2.025-3.25-1.442-2.114-2.19-3.169-1.507-2.112-2.207-3.244" transform="translate(-126.676 -61.636)" fill="#f27242"/>
            <path id="Trazado_246916" data-name="Trazado 246916" d="M340.329,164.84a11.414,11.414,0,0,1,2.771,1.624,15.422,15.422,0,0,1,4.138,4.874,11.343,11.343,0,0,1,1.148,3c-.7-.821-1.338-1.643-1.981-2.451s-1.3-1.594-1.955-2.376-1.333-1.551-2.024-2.317-1.4-1.526-2.1-2.353" transform="translate(-129.747 -62.844)" fill="#f27242"/>
            <path id="Trazado_246917" data-name="Trazado 246917" d="M259.418,70.029a36.889,36.889,0,0,1-4.852,17.14,44.572,44.572,0,0,1-4.987,7.179,34.545,34.545,0,0,1-3.433,3.549,22.2,22.2,0,0,1-3.644,2.646c-8.062,4.616-18.712,2.583-26.154-2.979a40.348,40.348,0,0,1-9.992-11.245,69.28,69.28,0,0,1-4.832-9.455,3.888,3.888,0,0,1-3.2.607,8.1,8.1,0,0,1-3.9-2.813c-4.52-5.229-6.866-12.594-5.069-19.268.339-1.24.94-2.583,2.148-3.024a4.06,4.06,0,0,1,2.34.064,18.238,18.238,0,0,1,5.037,2.1,16.77,16.77,0,0,0,9.941-5.709c2.257-2.538,3.977-5.581,6.592-7.748,5.108-4.226,12.581-4.315,18.079-8.01A16.153,16.153,0,0,0,240.2,23c6.425,2.1,12.811,5.805,15.938,11.654.1.192.2.384.294.575.2.416.39.85.562,1.291,2.187,5.671,1.049,12,1.234,18.08.134,4.552,1.03,9.065,1.176,13.61.019.608.026,1.215.013,1.822" transform="translate(-71.96 -8.767)" fill="#fca27e"/>
            <path id="Trazado_246918" data-name="Trazado 246918" d="M223.938,134.189c1.405,1.108,2.795,2.18,4.247,3.161s2.944,1.88,4.455,2.764a30.024,30.024,0,0,0,4.7,2.406,23.033,23.033,0,0,0,5.134,1.259,48.888,48.888,0,0,0,5.233.4,19.521,19.521,0,0,0,5.082-.6c3.3-.787,6.094-3.042,8.929-5.192l.088.093a27.3,27.3,0,0,1-3.789,3.833,13.63,13.63,0,0,1-4.871,2.583,16.628,16.628,0,0,1-5.48.482,25.234,25.234,0,0,1-5.33-.917c-1.736-.462-3.434-1.01-5.134-1.554a42.721,42.721,0,0,1-5.058-1.856,23.164,23.164,0,0,1-4.551-2.911,21.077,21.077,0,0,1-3.747-3.867Z" transform="translate(-85.339 -51.158)" fill="#442626"/>
            <path id="Trazado_246919" data-name="Trazado 246919" d="M258,159.645a22.99,22.99,0,0,1-1.253,6.47,12.833,12.833,0,0,1-10.171,9.027c-7.972,1.585-16.289-2.014-22.19-7.588-5.332-5.038-9.008-11.52-12.217-18.137,3.139-7.5,3.171-15.925,3.113-24.082a40.358,40.358,0,0,0,9.992,11.245c7.441,5.561,18.092,7.595,26.154,2.979a22.161,22.161,0,0,0,3.644-2.646,73.052,73.052,0,0,0,.7,12.447A74.263,74.263,0,0,0,258,159.645" transform="translate(-80.889 -47.782)" fill="#fca27e"/>
            <path id="Trazado_246920" data-name="Trazado 246920" d="M256.96,97.985a2.267,2.267,0,0,0,1.388.816,5,5,0,0,0,1.6-.02,6.421,6.421,0,0,1,1.853-.039c.639.106,1.194.319,1.71.434a2.612,2.612,0,0,0,1.417.047,10.9,10.9,0,0,0,1.528-.586,7.02,7.02,0,0,1,.863-.308,7.841,7.841,0,0,1,.888-.161,1.918,1.918,0,0,0,1.428-.711,1.888,1.888,0,0,1-1.272,1.265,7.463,7.463,0,0,0-1.494.731,7.989,7.989,0,0,1-1.632.836,3.642,3.642,0,0,1-2.008.024c-.607-.165-1.137-.37-1.636-.484a7.616,7.616,0,0,0-1.606-.138,4.467,4.467,0,0,1-1.829-.349,2.135,2.135,0,0,1-1.2-1.358" transform="translate(-97.964 -37.155)" fill="#442626"/>
            <path id="Trazado_246921" data-name="Trazado 246921" d="M267.594,112.3a18.425,18.425,0,0,0,2.583,2.2,16.032,16.032,0,0,0-2.775,2.883,10.1,10.1,0,0,1-1.067,1.311,5.247,5.247,0,0,1-2.909,1.3,15.573,15.573,0,0,1-3.229.09,15.225,15.225,0,0,1-3.19-.025,5.266,5.266,0,0,1-2.915-1.3,10.007,10.007,0,0,1-1.067-1.311,15.975,15.975,0,0,0-2.768-2.883,18,18,0,0,0,2.577-2.2,7.154,7.154,0,0,1,2.378-1.924c1.324-.5,2.749,0,4.169.2v-.019c1.95.294,4-.946,5.843-.249a7.132,7.132,0,0,1,2.372,1.924" transform="translate(-95.408 -41.998)" fill="#f27242"/>
            <path id="Trazado_246922" data-name="Trazado 246922" d="M261.119,117.223a4.628,4.628,0,0,1,1.816-1.136,6.349,6.349,0,0,1,2.06-.355,6.276,6.276,0,0,1,2.065.326,4.584,4.584,0,0,1,1.831,1.114,12.135,12.135,0,0,1-2.022.317c-.635.051-1.248.075-1.862.079s-1.227-.014-1.862-.056a12.416,12.416,0,0,1-2.026-.288" transform="translate(-99.549 -44.122)" fill="#f4e5d9"/>
            <g id="Grupo_175432" data-name="Grupo 175432" transform="translate(136.133 34.986)" opacity="0.4" style="mix-blend-mode: multiply;isolation: isolate">
              <g id="Grupo_175431" data-name="Grupo 175431">
                <g id="Grupo_175430" data-name="Grupo 175430" clip-path="url(#clip-path-5)">
                  <path id="Trazado_246923" data-name="Trazado 246923" d="M243.621,61.927A11.582,11.582,0,0,1,243,70.193a20.678,20.678,0,0,1-5.6,7.155,44.584,44.584,0,0,1-4.008,3.026,15.073,15.073,0,0,1-4.285,2.451,5.618,5.618,0,0,1-4.06-.458,7.759,7.759,0,0,1-3-3.283,13.182,13.182,0,0,1-1.29-3.51,14.66,14.66,0,0,1-.622-2.541,11.548,11.548,0,0,1,2.148-8.481,21.308,21.308,0,0,1,6.783-6.023,12.936,12.936,0,0,1,8.77-1.8,7.609,7.609,0,0,1,5.787,5.2" transform="translate(-220.009 -56.542)" fill="#e2a38d"/>
                </g>
              </g>
            </g>
            <g id="Grupo_175435" data-name="Grupo 175435" transform="translate(175.901 58.448)" opacity="0.4" style="mix-blend-mode: multiply;isolation: isolate">
              <g id="Grupo_175434" data-name="Grupo 175434">
                <g id="Grupo_175433" data-name="Grupo 175433" clip-path="url(#clip-path-6)">
                  <path id="Trazado_246924" data-name="Trazado 246924" d="M295.837,97.274a36.89,36.89,0,0,1-4.852,17.14,4.786,4.786,0,0,1-2.608-1.79,11.4,11.4,0,0,1-1.387-2.864c-.467-1.253-.921-2.506-1.381-3.753-.793-2.173-1.976-4.7-.9-6.981a13.763,13.763,0,0,1,1.752-2.379,8.6,8.6,0,0,1,6.035-2.18,6.976,6.976,0,0,1,3.324.984c.019.608.026,1.215.013,1.822" transform="translate(-284.28 -94.46)" fill="#e2a38d"/>
                </g>
              </g>
            </g>
            <path id="Trazado_246925" data-name="Trazado 246925" d="M219.418,106.856l-8.147,13.9a1.338,1.338,0,0,1-2.283.1L191.275,94.4a1.348,1.348,0,0,1-.147-1.216l5.741-15.444a1.334,1.334,0,0,1,2.391-.237l20.127,27.988a1.347,1.347,0,0,1,.032,1.361" transform="translate(-72.834 -29.305)" fill="#8c7769"/>
            <path id="Trazado_246926" data-name="Trazado 246926" d="M202.1,79.393c2.39,3.24,4.721,6.52,7.044,9.806s4.6,6.6,6.9,9.9l3.4,4.988.85,1.247a4,4,0,0,1,.729,1.423,3,3,0,0,1-.064,1.636,3.4,3.4,0,0,1-.353.729l-.389.647-3.106,5.176c-1.056,1.713-2.092,3.438-3.164,5.142.947-1.776,1.93-3.533,2.893-5.3l2.952-5.266a7.922,7.922,0,0,0,.656-1.292,2.5,2.5,0,0,0,.038-1.342,3.448,3.448,0,0,0-.66-1.233l-.861-1.239-3.445-4.956c-2.258-3.33-4.544-6.642-6.781-9.987s-4.468-6.694-6.641-10.084" transform="translate(-77.047 -30.268)" fill="#ad9789"/>
            <path id="Trazado_246927" data-name="Trazado 246927" d="M196.04,167.986s-1.6,40.518-2.929,63.175-3.867,52.249-25.06,51.719-30.392-45.051-30.392-45.051l12.8-2.135c-.071-3.126,7.53-24.575,14.441-43.408,3.178-8.637,6.208-16.724,8.286-22.234v-.006c1.687-4.469,2.742-7.243,2.742-7.243s-11.193-25.386-11.9-27.963,2.25-13.444,2.25-13.444-.767-4.239.959-6.873,10.268-13.393,12.313-15.759,4.589-2.966,5.031.237-4.973,8.234-4.973,8.234l-.652,3.375s4.858-5.837,10.305-5.983,7.5-1.567,6.936,1.956-7.882,5.69-7.882,5.69l-3.791,4.558c2.461-.652,3.286,0,4.443,3.081s4.89,8.113,1.483,8.65-4.858-3.2-4.858-3.2l-.473,2.819s5.421,9.462,9.418,17.594,1.509,22.215,1.509,22.215" transform="translate(-52.481 -36.9)" fill="#fca27e"/>
            <path id="Trazado_246928" data-name="Trazado 246928" d="M168.125,263.1c-.506,2.15-1.094,4.268-1.727,6.371s-1.283,4.2-2.032,6.262c-.764,2.059-1.61,4.094-2.31,6.176s-1.272,4.2-1.8,6.337c-.995,4.283-2.271,8.5-3.232,12.735a41.8,41.8,0,0,0-1.36,12.911l-.126.022a28.488,28.488,0,0,1,.155-13.233c.47-2.171,1.12-4.286,1.776-6.386s1.363-4.182,2.117-6.251,1.465-4.148,2.075-6.259,1.1-4.261,1.694-6.381c.608-2.114,1.335-4.19,2.1-6.25s1.606-4.1,2.546-6.1Z" transform="translate(-59.025 -100.287)" fill="#f27242"/>
            <path id="Trazado_246929" data-name="Trazado 246929" d="M214.147,147.27a31.2,31.2,0,0,1,3.214,3.879,31.616,31.616,0,0,1,2.614,4.307c.738,1.515,1.3,3.109,1.941,4.653l1.953,4.633a31.207,31.207,0,0,1,1.59,4.8,33.826,33.826,0,0,1,.892,4.994,27.743,27.743,0,0,1-.851,10.052l-.126-.02a63.556,63.556,0,0,0-.38-9.892c-.186-1.629-.4-3.258-.709-4.875s-.673-3.227-1.079-4.836a26.139,26.139,0,0,0-1.668-4.688,46.2,46.2,0,0,0-2.5-4.31c-.859-1.414-1.672-2.851-2.512-4.281s-1.69-2.857-2.484-4.341Z" transform="translate(-81.602 -56.145)" fill="#442626"/>
            <path id="Trazado_246930" data-name="Trazado 246930" d="M209.313,137.272a6.379,6.379,0,0,0,3.652,3,3.308,3.308,0,0,0,1.11.175,1.4,1.4,0,0,0,.9-.3c.406-.331.338-1.176.148-1.89a18.187,18.187,0,0,0-.882-2.226q-.5-1.127-1.04-2.232c-.362-.736-.719-1.474-1.1-2.2l-.579-1.085a7.787,7.787,0,0,0-.586-.976,1.2,1.2,0,0,0-.661-.485,3.342,3.342,0,0,0-1.033-.083,13.165,13.165,0,0,0-2.339.341c-1.583.368-3.2.82-4.753,1.212a1.106,1.106,0,0,0-.713.491,2.217,2.217,0,0,0-.224.991c-.014.782.027,1.632.07,2.445.08,1.645.254,3.287.462,4.936a35.273,35.273,0,0,1-1.087-4.872c-.118-.834-.225-1.635-.283-2.508a2.911,2.911,0,0,1,.246-1.422,1.81,1.81,0,0,1,.525-.64,2.687,2.687,0,0,1,.668-.358c.822-.291,1.6-.509,2.406-.754s1.59-.5,2.409-.7a13.221,13.221,0,0,1,2.564-.41,4.531,4.531,0,0,1,1.432.116,2.489,2.489,0,0,1,1.327.923,8.646,8.646,0,0,1,.684,1.156l.577,1.113c.376.746.745,1.5,1.085,2.26s.665,1.533.975,2.308a14.978,14.978,0,0,1,.82,2.434,4.875,4.875,0,0,1,.1,1.373,2.352,2.352,0,0,1-.178.745,1.651,1.651,0,0,1-.514.648,2.168,2.168,0,0,1-1.436.379,3.878,3.878,0,0,1-1.312-.319,6.215,6.215,0,0,1-3.438-3.586" transform="translate(-76.39 -48.69)" fill="#442626"/>
            <path id="Trazado_246931" data-name="Trazado 246931" d="M197.178,138.3a33.22,33.22,0,0,1-1.261-5.323,45.3,45.3,0,0,1-.519-5.449l-.018-1.369a8.982,8.982,0,0,1,.075-1.445,3.764,3.764,0,0,1,.553-1.491,5.575,5.575,0,0,1,1-1.091c1.34-1.221,2.711-2.411,4.174-3.511-1.084,1.474-2.258,2.859-3.464,4.213a6.319,6.319,0,0,0-.753.978,2.588,2.588,0,0,0-.306,1.063,22.724,22.724,0,0,0,.02,2.612c.048,1.794.143,3.588.23,5.386s.214,3.6.273,5.428" transform="translate(-74.487 -45.224)" fill="#442626"/>
            <path id="Trazado_246932" data-name="Trazado 246932" d="M183.687,136.555a23.318,23.318,0,0,1,1.226,3.422q.494,1.739.823,3.515c.222,1.182.381,2.375.488,3.576a23.016,23.016,0,0,1,.075,3.635,29.153,29.153,0,0,1-1.059-3.469c-.29-1.164-.547-2.333-.76-3.51s-.4-2.358-.541-3.55a29.615,29.615,0,0,1-.251-3.618" transform="translate(-70.029 -52.06)" fill="#442626"/>
            <g id="Grupo_175438" data-name="Grupo 175438" transform="translate(112.418 133.151)" opacity="0.4" style="mix-blend-mode: multiply;isolation: isolate">
              <g id="Grupo_175437" data-name="Grupo 175437">
                <g id="Grupo_175436" data-name="Grupo 175436" clip-path="url(#clip-path-7)">
                  <path id="Trazado_246933" data-name="Trazado 246933" d="M202.549,239.132c-1.944,2.742-5.677,3.842-8.893,3.855a15.662,15.662,0,0,1-9.6-3.375,18.84,18.84,0,0,1-2.372-2.187c3.177-8.637,6.207-16.724,8.285-22.234.185.684.358,1.374.537,2.059a27.72,27.72,0,0,0,1.944,5.447c1.662,3.3,4.488,5.581,7.173,8.023a13.02,13.02,0,0,1,3.42,3.983,4.393,4.393,0,0,1-.493,4.43" transform="translate(-181.683 -215.19)" fill="#e2a38d"/>
                </g>
              </g>
            </g>
          </g>
        </g>
        <g id="Grupo_175442" data-name="Grupo 175442" transform="translate(0 76.821)">
          <g id="Grupo_175441" data-name="Grupo 175441" clip-path="url(#clip-path-8)">
            <path id="Trazado_246934" data-name="Trazado 246934" d="M492.131,315.451c-4.388,3.2-8.369,7.3-10.449,12.251-.949-8.685,2.015-17.453,6.118-25.208,4.3-8.119,9.86-15.524,14.131-23.653,4.086-7.774,6.978-16.2,11.836-23.512a51.823,51.823,0,0,1,31.171-21.593,49.411,49.411,0,0,0-14.083,19.749,94.819,94.819,0,0,0-5.834,23.734c-.658,4.983-1.134,10.107-3.253,14.668-2.7,5.81-7.82,10.14-13.223,13.584s-11.238,6.208-16.414,9.979" transform="translate(-183.569 -165.932)" fill="#5b8989"/>
            <path id="Trazado_246935" data-name="Trazado 246935" d="M484.029,325.59a14.631,14.631,0,0,1,.337-3.289c.1-.548.277-1.074.423-1.611.188-.521.362-1.052.6-1.554a23.9,23.9,0,0,1,3.524-5.636,37.725,37.725,0,0,1,4.683-4.706c1.677-1.434,3.432-2.757,5.181-4.068s3.508-2.6,5.159-4.018a30.562,30.562,0,0,0,4.539-4.665,33.925,33.925,0,0,0,5.389-11.805c1.134-4.211,1.916-8.515,3.033-12.774a60.551,60.551,0,0,1,1.961-6.327,48.3,48.3,0,0,1,2.768-6.037,49,49,0,0,1,18.2-18.794l.063.1a55.431,55.431,0,0,0-17.17,19.289,56.356,56.356,0,0,0-4.763,12.058c-1.17,4.192-2.12,8.484-3.48,12.67a40.83,40.83,0,0,1-5.7,11.85,51.2,51.2,0,0,1-9.407,9.223c-1.712,1.369-3.438,2.7-5.11,4.089a42.5,42.5,0,0,0-4.66,4.5c-.715.809-1.377,1.66-2.007,2.534a21.568,21.568,0,0,0-1.651,2.775,17.077,17.077,0,0,0-1.8,6.2Z" transform="translate(-184.532 -168.436)" fill="#f2dcce"/>
            <path id="Trazado_246936" data-name="Trazado 246936" d="M578.6,350.384a37.959,37.959,0,0,0-20.764-.552c-8.127,2.094-15.777,6.919-24.16,6.494-7.674-.384-14.389-5.124-21.767-7.259a33.1,33.1,0,0,0-15.612-.643,21.859,21.859,0,0,0-3.422.963,20.27,20.27,0,0,1,9.62-5.5c5.059-1.357,10.376-1.3,15.6-1.637a100.717,100.717,0,0,0,16.277-2.4c6.248-1.444,12.518-3.5,18.912-3.007,9.712.741,17.947,7.158,25.315,13.535" transform="translate(-187.905 -205.213)" fill="#5b8989"/>
            <path id="Trazado_246937" data-name="Trazado 246937" d="M513.938,349.132a30.87,30.87,0,0,1,8.479-1.113,31.638,31.638,0,0,1,8.51,1.179c1.377.4,2.713.889,4.054,1.34a32.186,32.186,0,0,0,4.063,1.166,15.794,15.794,0,0,0,4.186.311,20.374,20.374,0,0,0,4.13-.757c2.7-.772,5.309-1.867,8.047-2.713a30.139,30.139,0,0,1,8.506-1.458A29.415,29.415,0,0,1,580.3,351.6l-.056.1a35.352,35.352,0,0,0-16.294-3.369c-.7.008-1.387.076-2.08.119-.689.087-1.382.145-2.067.262a31.879,31.879,0,0,0-4.083.886c-2.7.762-5.395,1.713-8.207,2.282a24.817,24.817,0,0,1-4.262.533,20.673,20.673,0,0,1-4.274-.335c-2.817-.482-5.558-1.317-8.292-1.939a46.858,46.858,0,0,0-8.292-1.215,47.894,47.894,0,0,0-8.431.325Z" transform="translate(-195.934 -209.143)" fill="#f2dcce"/>
            <path id="Trazado_246938" data-name="Trazado 246938" d="M79.3,230.1c6.207,1.76,10.6,7.358,13.308,13.214s4.167,12.239,7.012,18.026c2.022,4.125,4.738,7.918,6.321,12.229,3.224,8.8,1.367,18.362-1.354,27.495-.983-4.831-3.915-9.344-7.073-13.274-4.159-5.186-8.967-10.143-11.067-16.453-2.908-8.752-.056-18.38-1.4-27.5A30.213,30.213,0,0,0,79.3,230.1" transform="translate(-30.233 -164.546)" fill="#5b8989"/>
            <path id="Trazado_246939" data-name="Trazado 246939" d="M104.545,297.534a20.593,20.593,0,0,0-1.259-7.973,64.288,64.288,0,0,0-3.357-7.422c-1.2-2.463-2.4-4.956-3.513-7.481a40.145,40.145,0,0,1-2.694-7.84,61.653,61.653,0,0,1-1.169-8.205c-.257-2.735-.538-5.448-1.049-8.1a35.036,35.036,0,0,0-6.632-14.7l.092-.082a28.555,28.555,0,0,1,7.833,14.52c.269,1.373.476,2.753.608,4.135s.221,2.758.308,4.131c.181,2.744.3,5.473.676,8.174a25.636,25.636,0,0,0,2.392,7.8c1.188,2.469,2.69,4.772,4.058,7.166a36.462,36.462,0,0,1,3.36,7.612,16.633,16.633,0,0,1,.468,8.283Z" transform="translate(-32.357 -166.694)" fill="#f2dcce"/>
            <path id="Trazado_246940" data-name="Trazado 246940" d="M101.9,353.072c-2.759-8.292-11.208-13.313-19.472-16.182-8.307-2.875-17.248-4.429-24.593-9.26-8.133-5.35-13.346-14.095-20.574-20.61A47.412,47.412,0,0,0,11.717,295.3a106.39,106.39,0,0,1,16.395-5.164,51.427,51.427,0,0,1,15.1-1.53,25.389,25.389,0,0,1,14.1,5.146C63.781,298.967,66.5,307.7,72.7,313.238c5.308,4.738,12.628,6.654,18.1,11.2,8.14,6.739,10.817,18.039,11.1,28.637" transform="translate(-4.467 -186.816)" fill="#5b8989"/>
            <path id="Trazado_246941" data-name="Trazado 246941" d="M101.885,349.061c-1.94-4.059-3.808-8.2-6.553-11.686a22.62,22.62,0,0,0-2.214-2.449c-.381-.4-.816-.732-1.225-1.095-.439-.327-.858-.679-1.322-.97a30.734,30.734,0,0,0-5.917-2.958c-2.071-.838-4.206-1.581-6.3-2.461a31.966,31.966,0,0,1-5.982-3.238,44.48,44.48,0,0,1-5.27-4.272q-2.451-2.346-4.752-4.833c-3.09-3.288-6.052-6.683-9.39-9.63a39.349,39.349,0,0,0-5.342-3.95,44.64,44.64,0,0,0-5.917-3.013,42.817,42.817,0,0,0-26.221-2.12l-.034-.119a39.223,39.223,0,0,1,26.756,1.018c1.049.458,2.108.9,3.114,1.445,1.032.5,2.008,1.1,2.985,1.7a40.546,40.546,0,0,1,5.435,4.175,104.764,104.764,0,0,1,9.119,10.046,47.014,47.014,0,0,0,9.74,9.223c3.723,2.56,8.153,3.562,12.42,5.07a32.6,32.6,0,0,1,3.167,1.3,19.871,19.871,0,0,1,3,1.716A20.488,20.488,0,0,1,96.1,336.8a48.2,48.2,0,0,1,5.9,12.217Z" transform="translate(-5.891 -189.054)" fill="#f2dcce"/>
            <path id="Trazado_246942" data-name="Trazado 246942" d="M509.229,388.393c-2.749-.138-5.36,1.262-7.522,2.981-1.219.965-2.343,2.046-3.5,3.083a27.835,27.835,0,0,1-2.792,2.263,18.03,18.03,0,0,1-27.019-8.16,23.858,23.858,0,0,0-1.531-3.627c-1.175-1.936-3.206-3.2-4.57-5.012a8.963,8.963,0,0,1-1.676-3.888,9.429,9.429,0,0,1-.123-1.422c-.022-2.487.994-4.867,1.3-7.333a7,7,0,0,0-1.458-5.542,7.835,7.835,0,0,1,5.164.45c.095.051.189.1.276.16,2.284,1.414,3.1,4.373,3.7,7.028.261,1.153.522,2.284.783,3.438-.007.007-.007.007,0,.015a8.911,8.911,0,0,0,1.763,4.229c1.711,1.871,4.642,1.958,6.76,3.351,1.654,1.08,2.684,2.865,3.859,4.446s2.734,3.126,4.707,3.307a8.228,8.228,0,0,0,2.742-.363c1.052-.261,2.111-.522,3.17-.762a36.2,36.2,0,0,1,6.535-.936,18.315,18.315,0,0,1,6.4.848h.007a12.8,12.8,0,0,1,3.032,1.444" transform="translate(-175.498 -214.646)" fill="#f27242"/>
            <path id="Trazado_246943" data-name="Trazado 246943" d="M465.187,349.026a4.432,4.432,0,0,0-2.778-.218A4.2,4.2,0,0,0,460,351.615c-.268.791-.42,1.61-.609,2.416-.087-.058-.181-.109-.276-.16a7.835,7.835,0,0,0-5.164-.45,7,7,0,0,1,1.458,5.542c-.3,2.466-1.32,4.845-1.3,7.333a9.421,9.421,0,0,0,.123,1.422l-.08.014a5.62,5.62,0,0,0-.914-2.154,14.393,14.393,0,0,0-2.756-2.757q-2.329-1.958-4.672-3.9c-1.109-.928-2.328-2.1-2.212-3.539.116-1.5,1.588-2.452,2.669-3.5a8.525,8.525,0,0,0,2.284-3.815c.551-1.958.573-4.381,2.285-5.477,1.6-1.008,3.75-.21,5.556-.776,1.611-.493,2.844-2.046,4.519-2.111,2.031-.087,3.453,2.017,3.975,3.982a11.925,11.925,0,0,1,.392,2.27,13.158,13.158,0,0,1-.094,3.068" transform="translate(-169.116 -206.33)" fill="#f27242"/>
            <path id="Trazado_246944" data-name="Trazado 246944" d="M504.792,349.721a13.9,13.9,0,0,1-.363,1.734,4.044,4.044,0,0,0-.929-.239,4.519,4.519,0,0,0-3.967,1.473l-.4.131a3.743,3.743,0,0,0-.166-.45,11.1,11.1,0,0,0-1.857-2.684q-1.447-1.719-2.9-3.438a5.82,5.82,0,0,0-1.052-1.059,4.62,4.62,0,0,0-3.6-.558c-1.233.239-2.393.74-3.612,1.03a10.863,10.863,0,0,1-5.839-.232c-.53-.174-1.066-.384-1.611-.558a13.157,13.157,0,0,0,.095-3.068l.123-.014q.566-2.861,1.132-5.723a16.232,16.232,0,0,1,1.617-5.121,4.009,4.009,0,0,1,2.625-2.111c1.364-.21,2.648.66,3.663,1.589a8.306,8.306,0,0,0,3.365,2.306c1.393.319,2.9-.239,4.258.2,1.567.515,2.43,2.2,2.836,3.808s.53,3.315,1.364,4.743a7.5,7.5,0,0,0,1.189,1.487c1.611,1.64,3.758,2.93,4.076,5.157a5.872,5.872,0,0,1-.043,1.6" transform="translate(-182.42 -202.173)" fill="#f27242"/>
            <path id="Trazado_246945" data-name="Trazado 246945" d="M538.35,368.464c-.457,2.219-2.481,4.055-4.628,5.034a38.464,38.464,0,0,1-4.562,1.574,11.762,11.762,0,0,1-.6-3.01c.029-1.247.638-2.495.3-3.7-.384-1.385-1.857-2.14-3.221-2.6s-2.88-.878-3.721-2.046c-.726-1.009-.777-2.35-1.3-3.474a4.5,4.5,0,0,0-2.473-2.278,13.891,13.891,0,0,0,.363-1.734,5.871,5.871,0,0,0,.043-1.6c-.319-2.226-2.466-3.518-4.076-5.157,1.487-.885,2.844-1.987,4.4-2.757a7,7,0,0,1,4.453-.74,4.062,4.062,0,0,1,.8.254,7.581,7.581,0,0,1,2.495,1.994,15.84,15.84,0,0,0,2.227,2.234,15.008,15.008,0,0,0,5.085,1.973,5.7,5.7,0,0,1,3.155,1.734,2.818,2.818,0,0,1,.275.442,5.093,5.093,0,0,1,.37,3.025v.007c-.029.2-.057.392-.094.58a14.359,14.359,0,0,0-.551,4.164c.189,1.653,1.211,3.133,1.335,4.794a4.445,4.445,0,0,1-.08,1.284" transform="translate(-196.14 -208.679)" fill="#f27242"/>
            <path id="Trazado_246946" data-name="Trazado 246946" d="M546.38,393.8a17.089,17.089,0,0,0-2.081,1.951c-1.284,1.734-.994,4.222-2.067,6.093a6.323,6.323,0,0,1-4.99,2.851,18.811,18.811,0,0,1-5.9-.725c-1.617-.377-3.235-.747-4.853-1.124a12.942,12.942,0,0,0-4.946-.435c1.16-1.038,2.284-2.118,3.5-3.083,2.161-1.72,4.772-3.119,7.522-2.981a12.756,12.756,0,0,0-3.032-1.444,5.347,5.347,0,0,0,2.51-4.889,6.86,6.86,0,0,0-.189-1.023,38.481,38.481,0,0,0,4.562-1.574c2.147-.979,4.171-2.814,4.628-5.034a12.809,12.809,0,0,1,1.574.181,7.719,7.719,0,0,1,4.628,2.5c2.024,2.5,1.458,6.514-.863,8.733" transform="translate(-198.831 -222.603)" fill="#f27242"/>
            <path id="Trazado_246947" data-name="Trazado 246947" d="M493.468,371.62l-1.632.043c-.87-1.037-.928-2.727-1.864-3.771a4.3,4.3,0,0,0-3.5-1.11,34.8,34.8,0,0,1-3.772.333c-2.553-.123-4.744-1.777-6.746-3.358a5.732,5.732,0,0,0-2.2,3.743,10.836,10.836,0,0,0-.152,2.516c-.261-1.153-.522-2.284-.783-3.438-.6-2.655-1.414-5.614-3.7-7.029.189-.8.341-1.625.609-2.416a4.2,4.2,0,0,1,2.408-2.807,4.432,4.432,0,0,1,2.778.217c.544.174,1.08.385,1.61.559a10.865,10.865,0,0,0,5.839.232c1.218-.29,2.379-.791,3.612-1.03a4.616,4.616,0,0,1,3.6.558,5.8,5.8,0,0,1,1.052,1.059q1.458,1.719,2.9,3.438a11.1,11.1,0,0,1,1.857,2.684,3.828,3.828,0,0,1,.167.45c1.008,2.989-.559,6.3-2.1,9.125" transform="translate(-178.85 -211.849)" fill="#f27242"/>
            <path id="Trazado_246948" data-name="Trazado 246948" d="M523.542,388.262h-.007a18.316,18.316,0,0,0-6.4-.849,36.2,36.2,0,0,0-6.535.936l-.065-.3a17.491,17.491,0,0,0,1.349-5.651c.138-2-.312-4.388-2.132-5.215-1.118-.508-2.51-.29-3.5-1.009a2.068,2.068,0,0,1-.428-.406l1.632-.043c1.538-2.822,3.1-6.137,2.1-9.125l.4-.131A4.519,4.519,0,0,1,513.924,365a4.042,4.042,0,0,1,.929.239,4.506,4.506,0,0,1,2.473,2.278c.522,1.124.573,2.466,1.3,3.474.841,1.168,2.357,1.581,3.721,2.046s2.836,1.218,3.221,2.6c.333,1.2-.276,2.452-.305,3.7a11.815,11.815,0,0,0,.6,3.01,6.862,6.862,0,0,1,.189,1.023,5.346,5.346,0,0,1-2.51,4.889" transform="translate(-192.843 -215.958)" fill="#f27242"/>
            <path id="Trazado_246949" data-name="Trazado 246949" d="M500.646,384.193a17.511,17.511,0,0,1-1.349,5.651l.065.3c-1.059.239-2.118.5-3.17.762a8.213,8.213,0,0,1-2.742.363c-1.973-.181-3.525-1.719-4.708-3.307s-2.2-3.365-3.859-4.446c-2.118-1.393-5.048-1.479-6.76-3.351a8.91,8.91,0,0,1-1.763-4.229c-.007-.007-.007-.007,0-.014a10.9,10.9,0,0,1,.152-2.517,5.733,5.733,0,0,1,2.2-3.743c2,1.582,4.193,3.235,6.746,3.359a34.8,34.8,0,0,0,3.772-.334,4.3,4.3,0,0,1,3.5,1.11c.936,1.044.994,2.734,1.864,3.772a2.069,2.069,0,0,0,.428.406c.987.718,2.379.5,3.5,1.009,1.82.827,2.27,3.213,2.132,5.215" transform="translate(-181.603 -217.75)" fill="#f27242"/>
            <path id="Trazado_246950" data-name="Trazado 246950" d="M571.952,358.091c-.21,1.044.246,2.155-.066,3.177-.319,1.067-1.363,1.712-2.277,2.35a7.944,7.944,0,0,0-3.489,4.49,11.991,11.991,0,0,0-1.937-3.961,10.933,10.933,0,0,0-4.671-3.054c-1.755-.682-3.591-1.153-5.31-1.922a5.57,5.57,0,0,1-1.682-1.067,2.571,2.571,0,0,1-.675-1.074v-.007a5.1,5.1,0,0,0-.369-3.025,1.486,1.486,0,0,0,.645.036c3.054-.348,6.049-1.182,9.117-1.4s6.361.268,8.726,2.234c.834-.725.653-2.052.45-3.141a32.647,32.647,0,0,1-.537-5.883,4.115,4.115,0,0,0,2.075-1.312c.109-.131.246-.283.413-.269a.48.48,0,0,1,.239.131,5.133,5.133,0,0,1,1.879,3.612c.066,1-.166,2-.116,3.01v.036a9.764,9.764,0,0,1,.145,2.822c-.384,1.617-2.227,2.589-2.56,4.214" transform="translate(-210.245 -208.07)" fill="#c64e2a"/>
            <path id="Trazado_246951" data-name="Trazado 246951" d="M555.474,318.294a11.209,11.209,0,0,1-.065,1.639,6.155,6.155,0,0,1-.994,2.6,9.275,9.275,0,0,1-1.335-.348,22.5,22.5,0,0,1-4.28-2.546,3.937,3.937,0,0,0-1.131-2.031c-1.56-1.465-4.135-1.516-5.535-3.133-1.059-1.233-1.255-3.177-2.64-4.011-1.283-.777-2.937-.21-4.258.5a7.851,7.851,0,0,1-3.83,1.349,3.8,3.8,0,0,1,.747-3.4,4.384,4.384,0,0,1,3.337-1.53c.5,0,1,.08,1.494.123a10.875,10.875,0,0,0,3.177-.189c1.313-.275,2.778-.769,3.931-.065a5.037,5.037,0,0,1,1.581,2.234,7.825,7.825,0,0,0,2.155,2.829,10.655,10.655,0,0,0,3.184,1.458c.16.051.319.1.478.16.225.08.442.16.66.247,1.465.58,2.945,1.6,3.25,3.148a4.865,4.865,0,0,1,.072.972" transform="translate(-202.544 -193.819)" fill="#c64e2a"/>
            <path id="Trazado_246952" data-name="Trazado 246952" d="M542.036,321.609a9.824,9.824,0,0,0-2.017-1.037,14.406,14.406,0,0,0-4.99-.537,12.139,12.139,0,0,1-4.954-.725,4.36,4.36,0,0,1-2.778-3.859,13.135,13.135,0,0,0-2.677,8.3c.116,3.917,1.987,7.732,1.647,11.584a7.583,7.583,0,0,0-2.495-1.995,4.019,4.019,0,0,0-.8-.254c.276-2.06-.768-4.091-1.98-5.781-2.473-3.468-5.839-6.376-7.463-10.307a2.847,2.847,0,0,0,3.3.312,15.23,15.23,0,0,0,2.807-2.176,4.4,4.4,0,0,1,3.235-1.233c.471.065.921.261,1.393.341a2.155,2.155,0,0,0,.377.036,7.855,7.855,0,0,0,3.829-1.349c1.32-.711,2.974-1.276,4.258-.5,1.385.834,1.582,2.778,2.64,4.011,1.4,1.617,3.975,1.668,5.534,3.133a3.939,3.939,0,0,1,1.132,2.031" transform="translate(-195.779 -195.791)" fill="#c64e2a"/>
            <path id="Trazado_246953" data-name="Trazado 246953" d="M562.328,344.682c-2.365-1.966-5.658-2.452-8.726-2.234s-6.064,1.052-9.117,1.4a1.478,1.478,0,0,1-.645-.036,2.867,2.867,0,0,0-.276-.442,5.69,5.69,0,0,0-3.155-1.733,15.021,15.021,0,0,1-5.085-1.973,15.83,15.83,0,0,1-2.227-2.234c.341-3.852-1.53-7.667-1.646-11.584a13.13,13.13,0,0,1,2.676-8.3A4.36,4.36,0,0,0,536.9,321.4a12.141,12.141,0,0,0,4.954.725,14.39,14.39,0,0,1,4.99.537,9.807,9.807,0,0,1,2.017,1.037,22.512,22.512,0,0,0,4.279,2.546,9.231,9.231,0,0,0,1.335.348c1.262.232,2.568.261,3.83.515,1.719.348,3.518,1.291,4.011,2.966a6.745,6.745,0,0,1,.051,2.531c-.094,1.015-.137,2.038-.131,3.054a32.647,32.647,0,0,0,.537,5.883c.2,1.088.384,2.416-.45,3.141" transform="translate(-202.609 -197.881)" fill="#c64e2a"/>
            <path id="Trazado_246954" data-name="Trazado 246954" d="M581.156,336.777a6.167,6.167,0,0,1-2.328,3.365v-.036c-.051-1.009.181-2.01.116-3.01a5.135,5.135,0,0,0-1.879-3.612.485.485,0,0,0-.24-.131c-.167-.014-.305.138-.413.269a4.126,4.126,0,0,1-2.075,1.313c-.007-1.016.036-2.038.131-3.054a6.744,6.744,0,0,0-.051-2.531c-.493-1.676-2.292-2.619-4.011-2.966-1.262-.254-2.567-.283-3.83-.515a6.145,6.145,0,0,0,.994-2.6,11.221,11.221,0,0,0,.065-1.639,4.817,4.817,0,0,0-.072-.972c-.3-1.545-1.784-2.568-3.249-3.148-.218-.087-.436-.166-.66-.246-.16-.058-.319-.109-.479-.16l.544-.029a5.275,5.275,0,0,1,6.92-.276c1.458,1.241,2.191,3.279,3.867,4.207.681.385,1.458.544,2.169.863a5.215,5.215,0,0,1,2.945,4.07c.181,1.6-.4,3.3.181,4.8a14.542,14.542,0,0,0,.842,1.552,6.2,6.2,0,0,1,.515,4.482" transform="translate(-214.705 -197.156)" fill="#c64e2a"/>
            <path id="Trazado_246955" data-name="Trazado 246955" d="M497.67,393.522a21.289,21.289,0,0,1,5.3-3.927,22.18,22.18,0,0,1,6.285-2.178l-.129.962a22.087,22.087,0,0,0-7.5-1.773,32.565,32.565,0,0,0-3.9-.046c-1.307.061-2.6.221-3.917.408a32.031,32.031,0,0,1-3.993.368,12.487,12.487,0,0,1-2.017-.15,7.818,7.818,0,0,1-1.939-.613,9.631,9.631,0,0,1-3.109-2.562c-.88-1.005-1.684-2.061-2.619-2.95a8.574,8.574,0,0,0-3.265-1.931,31.96,31.96,0,0,1-3.766-1.442,7.065,7.065,0,0,1-1.742-1.232,8.194,8.194,0,0,1-1.31-1.683,18.373,18.373,0,0,1-1.551-3.8,36.2,36.2,0,0,0-1.281-3.675,12.182,12.182,0,0,0-2.043-3.141,11.965,11.965,0,0,0-2.914-2.369,4.721,4.721,0,0,0-3.307-.9l.319-.81a14.4,14.4,0,0,1,1.824,7.042,13.924,13.924,0,0,1-1.763,6.933l-.111-.056a14.86,14.86,0,0,0,1.157-6.853,14.342,14.342,0,0,0-2.059-6.505l-.369-.6.689-.212a4,4,0,0,1,2.283.049,9.842,9.842,0,0,1,1.946.832,13.268,13.268,0,0,1,3.275,2.566,12.68,12.68,0,0,1,2.28,3.489,30.7,30.7,0,0,1,1.273,3.846,17.291,17.291,0,0,0,1.361,3.58,6.519,6.519,0,0,0,2.544,2.575,37.558,37.558,0,0,0,3.593,1.549,12.02,12.02,0,0,1,1.822.951,8.847,8.847,0,0,1,1.576,1.335c.94.988,1.683,2.1,2.508,3.119a8.581,8.581,0,0,0,2.924,2.513,7.806,7.806,0,0,0,3.784.666,24.608,24.608,0,0,0,3.894-.574,30.71,30.71,0,0,1,8-.8,20.581,20.581,0,0,1,7.864,1.937l1.482.713-1.612.249a24.14,24.14,0,0,0-6.142,1.821,25.3,25.3,0,0,0-5.527,3.373Z" transform="translate(-174.587 -213.948)" fill="#fff0e9"/>
            <path id="Trazado_246956" data-name="Trazado 246956" d="M467.959,360.416a5.726,5.726,0,0,1,1.752-5.456,6,6,0,0,1,5.787-1.288,27.956,27.956,0,0,1,2.63,1.2,7.073,7.073,0,0,0,2.663.65,48.721,48.721,0,0,0,5.659-.5,7.7,7.7,0,0,1,2.977.271,4.391,4.391,0,0,1,1.394.765A9.787,9.787,0,0,1,491.9,357.1l1.921,2.1c.323.346.635.7.948,1.059s.629.691.95,1.109a4.3,4.3,0,0,1,.748,1.474,4.423,4.423,0,0,1,.125,1.625,7.781,7.781,0,0,1-.945,2.882,16.8,16.8,0,0,1-3.59,4.508l-.091-.084a23.432,23.432,0,0,0,2.8-4.842c.694-1.661,1.009-3.54-.09-4.754-.264-.327-.591-.692-.9-1.048s-.624-.712-.925-1.078l-1.826-2.178a5.186,5.186,0,0,0-1.947-1.656,7.472,7.472,0,0,0-2.617-.522c-1.859-.09-3.754.229-5.678.227a9.882,9.882,0,0,1-2.893-.406c-.932-.288-1.807-.664-2.666-.851a5.823,5.823,0,0,0-4.89,1.028,6.093,6.093,0,0,0-2.249,4.71Z" transform="translate(-178.351 -211.552)" fill="#fff0e9"/>
            <path id="Trazado_246957" data-name="Trazado 246957" d="M499.151,390.271c.2-3.1.656-6.162.324-9.114a3,3,0,0,0-.678-1.781,4.166,4.166,0,0,0-1.894-.861,4.78,4.78,0,0,1-2.159-1.085,4.29,4.29,0,0,1-.753-.942,10.376,10.376,0,0,1-.574-1.031,12.919,12.919,0,0,0-1.124-1.984,3.135,3.135,0,0,0-1.64-1.243,5.253,5.253,0,0,0-2.088-.131c-.714.082-1.453.255-2.224.411a9.323,9.323,0,0,1-2.46.23,6.783,6.783,0,0,1-2.455-.647,6.94,6.94,0,0,1-2.038-1.509c-.292-.318-.5-.613-.736-.833a.923.923,0,0,0-.6-.323l.4-.243a9.616,9.616,0,0,0-1.35,2.752,10.444,10.444,0,0,0-.429,3.127l-.123.016a8.272,8.272,0,0,1-.126-3.295,8.928,8.928,0,0,1,1.125-3.181l.12-.2.276-.04a1.615,1.615,0,0,1,.85.123,2.563,2.563,0,0,1,.632.4c.348.291.614.609.861.843a5.716,5.716,0,0,0,1.711,1.17,5.974,5.974,0,0,0,1.994.552,8.135,8.135,0,0,0,2.147-.109,21.721,21.721,0,0,1,2.351-.307,5.4,5.4,0,0,1,2.476.408,3.985,3.985,0,0,1,1.818,1.716c.408.7.671,1.437.994,2.132a5.31,5.31,0,0,0,1.242,1.845,2.787,2.787,0,0,0,.933.525,7.051,7.051,0,0,0,1.093.224,4.821,4.821,0,0,1,2.38.78,2.644,2.644,0,0,1,.83,1.109,4.538,4.538,0,0,1,.321,1.249,17.559,17.559,0,0,1-.173,4.743,30.013,30.013,0,0,1-1.126,4.534Z" transform="translate(-181.588 -217.25)" fill="#fff0e9"/>
            <path id="Trazado_246958" data-name="Trazado 246958" d="M512.1,365.684a6.4,6.4,0,0,1,4.456-.722,5.815,5.815,0,0,1,3.835,2.645c.866,1.429.668,3.025,1.479,4.175a3.146,3.146,0,0,0,1.7,1.143,19.651,19.651,0,0,0,2.14.444,5.489,5.489,0,0,1,2.2.859,3.1,3.1,0,0,1,1.255,2.226,6.965,6.965,0,0,1-.231,2.387,13.763,13.763,0,0,0-.425,2.029,3.306,3.306,0,0,0,.03.921c.056.314.151.642.248.989a6.541,6.541,0,0,1,.4,2.331,4.3,4.3,0,0,1-.861,2.23,8.1,8.1,0,0,1-1.594,1.6l-.089-.086a6.191,6.191,0,0,0,1.569-3.753,6.707,6.707,0,0,0-.56-1.936,7.59,7.59,0,0,1-.356-1.123,4.608,4.608,0,0,1-.1-1.266c.137-1.676.905-2.955.813-4.217a2.177,2.177,0,0,0-.722-1.559,5.152,5.152,0,0,0-1.758-.976c-.674-.226-1.4-.431-2.1-.7a4.262,4.262,0,0,1-1.878-1.3c-.952-1.25-1.192-2.839-2.019-3.851a6.319,6.319,0,0,0-3.208-2.281,8.311,8.311,0,0,0-4.177-.093Z" transform="translate(-195.235 -215.912)" fill="#fff0e9"/>
            <path id="Trazado_246959" data-name="Trazado 246959" d="M537.29,388.522a17.889,17.889,0,0,0,3.062-.973,12.867,12.867,0,0,0,4.886-3.676,18.118,18.118,0,0,0,1.786-2.671,7.14,7.14,0,0,1-.989,3.218,8.529,8.529,0,0,1-5.38,4.043,7.167,7.167,0,0,1-3.365.059" transform="translate(-204.837 -222.151)" fill="#fff0e9"/>
            <path id="Trazado_246960" data-name="Trazado 246960" d="M542.514,358.3a7.222,7.222,0,0,0-1.458-4.843,4.306,4.306,0,0,0-1.937-1.685,7.289,7.289,0,0,0-2.7-.385,8.77,8.77,0,0,1-2.872-.356,5.926,5.926,0,0,1-2.523-1.66c-1.33-1.44-2.049-3.065-3.645-4.039l.039-.118a4.142,4.142,0,0,1,1.391.445,7,7,0,0,1,1.2.845c.732.631,1.339,1.34,1.967,1.948a6.5,6.5,0,0,0,1.988,1.484,18.976,18.976,0,0,0,2.545.778c.9.235,1.827.405,2.74.678a5.833,5.833,0,0,1,2.59,1.4,4.152,4.152,0,0,1,.86,1.245,5.011,5.011,0,0,1,.442,1.441,4.255,4.255,0,0,1-.509,2.864Z" transform="translate(-201.06 -208.431)" fill="#fff0e9"/>
            <path id="Trazado_246961" data-name="Trazado 246961" d="M517.012,360.005a6.1,6.1,0,0,0-.092-2.745,6.483,6.483,0,0,0-1.27-2.276c-.592-.721-1.234-1.44-1.8-2.211a23.462,23.462,0,0,1-1.629-2.434,13.984,13.984,0,0,1,2.343,1.783,21.029,21.029,0,0,1,2.064,2.1,5.377,5.377,0,0,1,1.241,2.874,3.986,3.986,0,0,1-.856,2.907" transform="translate(-195.28 -210.385)" fill="#fff0e9"/>
            <path id="Trazado_246962" data-name="Trazado 246962" d="M543.32,342.338a4.335,4.335,0,0,1,2.281-1.07c.827-.163,1.64-.3,2.468-.414a29.413,29.413,0,0,1,5.02-.314,32.286,32.286,0,0,1,4.988.679,25.626,25.626,0,0,0,4.815.572l-.4.919a6.969,6.969,0,0,1-1.483-2.839,12.194,12.194,0,0,1-.362-3.081c0-2.044.348-4.011.249-5.977a8.087,8.087,0,0,0-.588-2.847,4.141,4.141,0,0,0-1.83-2.129,6.3,6.3,0,0,0-2.814-.578,19.3,19.3,0,0,1-3.028-.17,9.512,9.512,0,0,1-2.921-1.026,13.951,13.951,0,0,1-2.461-1.829,6.074,6.074,0,0,0-2.345-1.406,6.752,6.752,0,0,0-2.734.081,10.749,10.749,0,0,1-3.135.239,7.651,7.651,0,0,1-3.065-1.013,7.838,7.838,0,0,1-3.783-5.088l1.212.192a34.15,34.15,0,0,0-2.454,4.8,10.352,10.352,0,0,0-.744,5.121,37.089,37.089,0,0,0,1.5,5.218,11.158,11.158,0,0,1,.473,2.768,5.891,5.891,0,0,1-.509,2.741l-.115-.046a8.009,8.009,0,0,0-.437-5.271,34.309,34.309,0,0,1-1.861-5.253,10.985,10.985,0,0,1,.579-5.685,31.666,31.666,0,0,1,2.431-5.05l.835-1.5.376,1.692a6.783,6.783,0,0,0,3.155,4.245,6.385,6.385,0,0,0,2.551.909,9.643,9.643,0,0,0,2.811-.165,7.377,7.377,0,0,1,3.2.028,7.012,7.012,0,0,1,2.692,1.723,14.82,14.82,0,0,0,2.231,1.862,8.525,8.525,0,0,0,2.643,1.1,18.894,18.894,0,0,0,2.929.313,7.01,7.01,0,0,1,2.976.7,4.728,4.728,0,0,1,2,2.318,9.621,9.621,0,0,1,.7,2.966c.189,2.021,0,4.039.114,5.983a8.483,8.483,0,0,0,1.833,5.208l.818.9-1.218.023a22.741,22.741,0,0,1-5.037-.627,36.9,36.9,0,0,0-4.832-.815,34.1,34.1,0,0,0-4.907.017c-.82.056-1.656.1-2.466.189a4.439,4.439,0,0,0-2.262.775Z" transform="translate(-201.714 -196.183)" fill="#fff0e9"/>
            <path id="Trazado_246963" data-name="Trazado 246963" d="M547.682,321.216a5.01,5.01,0,0,0-1.233-2.381,6.867,6.867,0,0,0-2.208-1.374l-2.633-1.265a8.132,8.132,0,0,1-1.284-.776,7.67,7.67,0,0,1-1.1-1.046,6.157,6.157,0,0,0-1.932-1.744,3.194,3.194,0,0,0-2.309.288,14.879,14.879,0,0,1-2.8.95,7.03,7.03,0,0,1-3-.072l.006-.124a13.514,13.514,0,0,0,2.731-.742c.853-.329,1.62-.807,2.561-1.233a5.5,5.5,0,0,1,1.556-.434,3.112,3.112,0,0,1,1.74.3,3.4,3.4,0,0,1,1.251,1.123,13.793,13.793,0,0,1,.746,1.29,4.132,4.132,0,0,0,.816,1.119,3.82,3.82,0,0,0,1.178.732,28.364,28.364,0,0,0,2.827.666,4.735,4.735,0,0,1,2.6,1.735,3.669,3.669,0,0,1,.61,2.988Z" transform="translate(-201.749 -195.481)" fill="#fff0e9"/>
            <path id="Trazado_246964" data-name="Trazado 246964" d="M567.881,326.816c-.077-1.016-.038-2-.106-2.941a7.488,7.488,0,0,0-.6-2.612,4.815,4.815,0,0,0-1.684-1.952c-.755-.544-1.636-1.044-2.419-1.694a11.665,11.665,0,0,1,2.909.862,5.242,5.242,0,0,1,1.345.9,4.381,4.381,0,0,1,.971,1.366,5.906,5.906,0,0,1,.443,3.154,9.494,9.494,0,0,1-.856,2.917" transform="translate(-214.665 -197.91)" fill="#fff0e9"/>
            <path id="Trazado_246965" data-name="Trazado 246965" d="M580.531,344.18a17.315,17.315,0,0,1,1.88-1.934,25.488,25.488,0,0,1,2.1-1.669l1.314-.941-.432,1.605a8.085,8.085,0,0,0-.042,3.979c.153.649.45,1.336.592,2.108a2.743,2.743,0,0,1-.389,2.24,3.176,3.176,0,0,0-.289-2.034c-.28-.629-.672-1.242-.947-1.991a6.9,6.9,0,0,1-.045-4.65l.881.665c-.753.451-1.507.905-2.272,1.347s-1.541.879-2.356,1.277" transform="translate(-221.322 -206.305)" fill="#fff0e9"/>
            <path id="Trazado_246966" data-name="Trazado 246966" d="M478.382,350.549c-.2-.644-.31-1.25-.432-1.848l-.321-1.771-.295-1.775a18.518,18.518,0,0,1-.213-1.887,5.194,5.194,0,0,1,1.142,1.6,7.264,7.264,0,0,1,.656,3.8,5.222,5.222,0,0,1-.537,1.886" transform="translate(-181.898 -207.689)" fill="#fff0e9"/>
            <path id="Trazado_246967" data-name="Trazado 246967" d="M110.152,389.714c2.749-.138,5.36,1.262,7.522,2.981,1.219.965,2.343,2.046,3.5,3.083a27.743,27.743,0,0,0,2.792,2.263,18.03,18.03,0,0,0,27.019-8.16,23.85,23.85,0,0,1,1.531-3.627c1.175-1.936,3.206-3.2,4.57-5.012a8.962,8.962,0,0,0,1.676-3.888,9.427,9.427,0,0,0,.123-1.422c.022-2.487-.994-4.867-1.3-7.333a7,7,0,0,1,1.458-5.542,7.835,7.835,0,0,0-5.164.45c-.095.051-.189.1-.276.16-2.284,1.414-3.1,4.373-3.7,7.028-.261,1.153-.522,2.284-.783,3.438.007.007.007.007,0,.015a8.912,8.912,0,0,1-1.763,4.229c-1.711,1.871-4.642,1.958-6.76,3.351-1.654,1.08-2.684,2.865-3.859,4.446s-2.734,3.126-4.707,3.307a8.227,8.227,0,0,1-2.742-.363c-1.052-.261-2.111-.522-3.17-.762a36.2,36.2,0,0,0-6.535-.936,18.315,18.315,0,0,0-6.4.848h-.007a12.8,12.8,0,0,0-3.032,1.444" transform="translate(-41.994 -215.149)" fill="#c64e2a"/>
            <path id="Trazado_246968" data-name="Trazado 246968" d="M170.927,350.348a4.432,4.432,0,0,1,2.778-.218,4.2,4.2,0,0,1,2.408,2.807c.268.791.421,1.61.609,2.416.087-.058.181-.109.276-.16a7.835,7.835,0,0,1,5.164-.45,7,7,0,0,0-1.458,5.542c.3,2.466,1.32,4.845,1.3,7.333a9.427,9.427,0,0,1-.123,1.422l.08.014a5.619,5.619,0,0,1,.914-2.154,14.392,14.392,0,0,1,2.756-2.757q2.329-1.958,4.672-3.9c1.109-.928,2.328-2.1,2.212-3.539-.116-1.5-1.588-2.452-2.669-3.5a8.525,8.525,0,0,1-2.284-3.815c-.551-1.958-.573-4.381-2.285-5.477-1.6-1.008-3.75-.21-5.556-.776-1.611-.493-2.844-2.046-4.519-2.111-2.031-.087-3.453,2.017-3.975,3.982a11.922,11.922,0,0,0-.392,2.27,13.157,13.157,0,0,0,.094,3.068" transform="translate(-65.11 -206.834)" fill="#c64e2a"/>
            <path id="Trazado_246969" data-name="Trazado 246969" d="M154.762,346.189c-.545.179-1.083.39-1.609.563a10.9,10.9,0,0,1-5.841.229c-1.219-.291-2.376-.792-3.614-1.027a4.59,4.59,0,0,0-3.6.557,5.679,5.679,0,0,0-1.052,1.058c-.971,1.145-1.937,2.3-2.9,3.44a11.023,11.023,0,0,0-1.856,2.685,3.259,3.259,0,0,0-.167.446l-.4-.13a4.519,4.519,0,0,0-3.966-1.473,3.939,3.939,0,0,0-.928.241,13.676,13.676,0,0,1-.365-1.733,6.28,6.28,0,0,1-.043-1.6c.322-2.228,2.469-3.521,4.078-5.16a7.327,7.327,0,0,0,1.188-1.485,6.45,6.45,0,0,0,.563-1.293l.006-.006c.365-1.108.514-2.308.8-3.447.4-1.6,1.268-3.292,2.834-3.805a3.961,3.961,0,0,1,1.207-.179,14.348,14.348,0,0,0,3.05-.025,8.248,8.248,0,0,0,3.366-2.308c1.015-.928,2.3-1.794,3.663-1.584a3.986,3.986,0,0,1,2.624,2.11,16.161,16.161,0,0,1,1.621,5.117q.566,2.868,1.132,5.724l.124.019a13.011,13.011,0,0,0,.093,3.063" transform="translate(-48.944 -202.679)" fill="#c64e2a"/>
            <path id="Trazado_246970" data-name="Trazado 246970" d="M116.183,355.954a6.281,6.281,0,0,0,.043,1.6,13.681,13.681,0,0,0,.365,1.733,4.511,4.511,0,0,0-2.475,2.277c-.52,1.126-.569,2.469-1.3,3.471-.842,1.169-2.357,1.584-3.719,2.048s-2.834,1.219-3.218,2.6c-.334,1.2.272,2.45.3,3.7a12.174,12.174,0,0,1-.6,3.007,37.86,37.86,0,0,1-4.566-1.572c-2.147-.978-4.17-2.815-4.628-5.037a4.64,4.64,0,0,1-.08-1.281,8.129,8.129,0,0,1,.545-2.141,11.368,11.368,0,0,0,.792-2.654,14.331,14.331,0,0,0-.551-4.164c-.025-.13-.049-.266-.068-.408a1.46,1.46,0,0,1-.025-.173v-.006a5.029,5.029,0,0,1,.371-3.026,2.346,2.346,0,0,1,.272-.439,5.677,5.677,0,0,1,3.156-1.733,15.049,15.049,0,0,0,5.086-1.974,16.17,16.17,0,0,0,2.228-2.234,7.612,7.612,0,0,1,2.494-2,4.6,4.6,0,0,1,.8-.254,7.034,7.034,0,0,1,4.455.742c.235.118.47.241.7.371v.006c1.275.718,2.444,1.627,3.7,2.376-1.609,1.64-3.756,2.933-4.078,5.16" transform="translate(-36.712 -209.183)" fill="#c64e2a"/>
            <path id="Trazado_246971" data-name="Trazado 246971" d="M111.364,403.736a12.856,12.856,0,0,0-4.944.433c-1.615.377-3.236.749-4.851,1.126a18.8,18.8,0,0,1-5.9.724,6.3,6.3,0,0,1-4.993-2.852c-1.07-1.869-.786-4.356-2.067-6.089a17.785,17.785,0,0,0-2.079-1.955,6.894,6.894,0,0,1-1.782-2.914,6.281,6.281,0,0,1,.916-5.816,7.692,7.692,0,0,1,4.628-2.5,12.229,12.229,0,0,1,1.572-.186c.458,2.221,2.481,4.059,4.628,5.037a37.86,37.86,0,0,0,4.566,1.572,6.32,6.32,0,0,0-.192,1.021,5.348,5.348,0,0,0,2.512,4.894,12.511,12.511,0,0,0-3.032,1.442c2.747-.136,5.358,1.262,7.518,2.982,1.219.965,2.345,2.042,3.5,3.081" transform="translate(-32.183 -223.106)" fill="#c64e2a"/>
            <path id="Trazado_246972" data-name="Trazado 246972" d="M139.553,372.941l1.632.043c.87-1.037.928-2.727,1.864-3.771a4.3,4.3,0,0,1,3.5-1.11,34.8,34.8,0,0,0,3.772.334c2.553-.123,4.744-1.777,6.746-3.358a5.732,5.732,0,0,1,2.2,3.743,10.836,10.836,0,0,1,.152,2.516c.261-1.153.522-2.284.783-3.438.6-2.655,1.414-5.614,3.7-7.029-.189-.8-.341-1.625-.609-2.416a4.2,4.2,0,0,0-2.408-2.807,4.432,4.432,0,0,0-2.778.217c-.544.174-1.08.385-1.61.559a10.865,10.865,0,0,1-5.839.232c-1.218-.29-2.379-.791-3.612-1.03a4.616,4.616,0,0,0-3.6.558,5.8,5.8,0,0,0-1.052,1.059q-1.458,1.719-2.9,3.438a11.1,11.1,0,0,0-1.857,2.684,3.825,3.825,0,0,0-.167.45c-1.008,2.989.559,6.3,2.1,9.125" transform="translate(-52.282 -212.353)" fill="#c64e2a"/>
            <path id="Trazado_246973" data-name="Trazado 246973" d="M113.492,389.584h.007a18.316,18.316,0,0,1,6.4-.849,36.193,36.193,0,0,1,6.535.936l.065-.3a17.506,17.506,0,0,1-1.349-5.65c-.138-2,.312-4.388,2.132-5.215,1.117-.508,2.51-.29,3.5-1.009a2.069,2.069,0,0,0,.428-.406l-1.632-.043c-1.538-2.822-3.1-6.137-2.1-9.125l-.4-.131a4.519,4.519,0,0,0-3.967-1.473,4.043,4.043,0,0,0-.929.239,4.508,4.508,0,0,0-2.473,2.278c-.522,1.124-.573,2.466-1.3,3.474-.842,1.168-2.357,1.581-3.721,2.046s-2.836,1.218-3.221,2.6c-.334,1.2.276,2.452.305,3.7a11.811,11.811,0,0,1-.6,3.01,6.865,6.865,0,0,0-.189,1.023,5.346,5.346,0,0,0,2.51,4.889" transform="translate(-42.302 -216.462)" fill="#c64e2a"/>
            <path id="Trazado_246974" data-name="Trazado 246974" d="M133.876,385.515a17.511,17.511,0,0,0,1.349,5.651l-.065.3c1.059.239,2.118.5,3.17.762a8.211,8.211,0,0,0,2.742.363c1.973-.181,3.525-1.719,4.708-3.307s2.2-3.365,3.859-4.446c2.118-1.393,5.048-1.479,6.76-3.351a8.909,8.909,0,0,0,1.763-4.229c.007-.007.007-.007,0-.014a10.906,10.906,0,0,0-.152-2.517,5.734,5.734,0,0,0-2.2-3.743c-2,1.582-4.193,3.235-6.746,3.359a34.812,34.812,0,0,1-3.772-.334,4.3,4.3,0,0,0-3.5,1.11c-.936,1.044-.994,2.734-1.864,3.772a2.066,2.066,0,0,1-.428.406c-.987.718-2.379.5-3.5,1.009-1.82.827-2.27,3.213-2.132,5.215" transform="translate(-51.03 -218.254)" fill="#c64e2a"/>
            <path id="Trazado_246975" data-name="Trazado 246975" d="M119.125,394.844a21.314,21.314,0,0,0-5.3-3.927,22.186,22.186,0,0,0-6.285-2.178l.13.962a22.078,22.078,0,0,1,7.5-1.773,32.554,32.554,0,0,1,3.9-.046c1.307.061,2.6.222,3.918.408a32.011,32.011,0,0,0,3.992.368,12.479,12.479,0,0,0,2.018-.15,7.826,7.826,0,0,0,1.939-.613,9.621,9.621,0,0,0,3.108-2.562c.88-1.005,1.684-2.061,2.62-2.95a8.569,8.569,0,0,1,3.265-1.931,31.963,31.963,0,0,0,3.766-1.442,7.087,7.087,0,0,0,1.742-1.232,8.191,8.191,0,0,0,1.311-1.683,18.406,18.406,0,0,0,1.551-3.8,36.2,36.2,0,0,1,1.281-3.675,12.2,12.2,0,0,1,2.043-3.141,11.965,11.965,0,0,1,2.914-2.369,4.721,4.721,0,0,1,3.307-.9l-.319-.81a14.394,14.394,0,0,0-1.824,7.041,13.918,13.918,0,0,0,1.763,6.933l.111-.056a14.86,14.86,0,0,1-1.156-6.853,14.348,14.348,0,0,1,2.058-6.505l.37-.6-.689-.212a4,4,0,0,0-2.283.049,9.824,9.824,0,0,0-1.946.832,13.244,13.244,0,0,0-3.275,2.566,12.68,12.68,0,0,0-2.279,3.489,30.591,30.591,0,0,0-1.273,3.846,17.291,17.291,0,0,1-1.362,3.58,6.517,6.517,0,0,1-2.543,2.575,37.539,37.539,0,0,1-3.593,1.549,11.993,11.993,0,0,0-1.822.951,8.828,8.828,0,0,0-1.576,1.335c-.941.988-1.683,2.1-2.508,3.119a8.574,8.574,0,0,1-2.924,2.513,7.808,7.808,0,0,1-3.784.666,24.618,24.618,0,0,1-3.894-.574,30.708,30.708,0,0,0-7.995-.8,20.579,20.579,0,0,0-7.864,1.937l-1.482.713,1.612.249a24.138,24.138,0,0,1,6.142,1.821,25.281,25.281,0,0,1,5.527,3.373Z" transform="translate(-40.32 -214.452)" fill="#fff0e9"/>
            <path id="Trazado_246976" data-name="Trazado 246976" d="M163.8,361.737a5.726,5.726,0,0,0-1.752-5.456,6,6,0,0,0-5.787-1.288,27.976,27.976,0,0,0-2.63,1.2,7.073,7.073,0,0,1-2.663.65,48.733,48.733,0,0,1-5.659-.5,7.7,7.7,0,0,0-2.977.271,4.391,4.391,0,0,0-1.394.765,9.783,9.783,0,0,0-1.074,1.051l-1.921,2.1c-.323.346-.635.7-.948,1.059s-.629.691-.95,1.109a4.3,4.3,0,0,0-.748,1.474,4.422,4.422,0,0,0-.125,1.625,7.781,7.781,0,0,0,.945,2.882,16.8,16.8,0,0,0,3.59,4.508l.091-.084a23.434,23.434,0,0,1-2.8-4.842c-.694-1.661-1.009-3.54.09-4.754.264-.327.591-.692.9-1.048s.624-.712.925-1.078l1.826-2.178a5.185,5.185,0,0,1,1.947-1.656,7.47,7.47,0,0,1,2.617-.522c1.859-.09,3.754.229,5.678.227a9.883,9.883,0,0,0,2.893-.406c.932-.288,1.807-.664,2.666-.851a5.823,5.823,0,0,1,4.89,1.028,6.093,6.093,0,0,1,2.249,4.71Z" transform="translate(-51.524 -212.056)" fill="#fff0e9"/>
            <path id="Trazado_246977" data-name="Trazado 246977" d="M135.349,391.594c-.2-3.1-.657-6.162-.324-9.114a3,3,0,0,1,.678-1.781,4.167,4.167,0,0,1,1.894-.861,4.78,4.78,0,0,0,2.159-1.085,4.29,4.29,0,0,0,.753-.942,10.382,10.382,0,0,0,.574-1.031,12.919,12.919,0,0,1,1.124-1.984,3.136,3.136,0,0,1,1.64-1.243,5.254,5.254,0,0,1,2.088-.131c.714.082,1.453.255,2.224.411a9.323,9.323,0,0,0,2.46.23,6.784,6.784,0,0,0,2.455-.647,6.941,6.941,0,0,0,2.038-1.509c.292-.318.5-.613.736-.833a.924.924,0,0,1,.6-.323l-.4-.243a9.615,9.615,0,0,1,1.35,2.752,10.443,10.443,0,0,1,.429,3.127l.123.016a8.271,8.271,0,0,0,.126-3.295,8.928,8.928,0,0,0-1.126-3.181l-.12-.2-.276-.04a1.615,1.615,0,0,0-.85.122,2.562,2.562,0,0,0-.632.4c-.348.291-.614.609-.861.843a5.715,5.715,0,0,1-1.711,1.17,5.975,5.975,0,0,1-1.994.552,8.135,8.135,0,0,1-2.147-.109,21.745,21.745,0,0,0-2.351-.307,5.4,5.4,0,0,0-2.476.408,3.985,3.985,0,0,0-1.818,1.716c-.408.7-.671,1.437-.994,2.132a5.309,5.309,0,0,1-1.242,1.845,2.787,2.787,0,0,1-.933.525,7.046,7.046,0,0,1-1.093.224,4.821,4.821,0,0,0-2.38.78,2.644,2.644,0,0,0-.83,1.109,4.536,4.536,0,0,0-.321,1.249,17.56,17.56,0,0,0,.173,4.743,30.024,30.024,0,0,0,1.126,4.534Z" transform="translate(-51.024 -217.754)" fill="#fff0e9"/>
            <path id="Trazado_246978" data-name="Trazado 246978" d="M126.869,367.006a6.4,6.4,0,0,0-4.456-.722,5.816,5.816,0,0,0-3.835,2.645c-.866,1.429-.668,3.025-1.479,4.175a3.146,3.146,0,0,1-1.7,1.143,19.673,19.673,0,0,1-2.14.444,5.488,5.488,0,0,0-2.2.859,3.1,3.1,0,0,0-1.255,2.226,6.963,6.963,0,0,0,.231,2.387,13.768,13.768,0,0,1,.425,2.029,3.306,3.306,0,0,1-.03.921c-.056.314-.151.642-.248.989a6.541,6.541,0,0,0-.4,2.331,4.291,4.291,0,0,0,.862,2.23,8.083,8.083,0,0,0,1.593,1.6l.088-.086a6.192,6.192,0,0,1-1.569-3.753,6.71,6.71,0,0,1,.56-1.936,7.584,7.584,0,0,0,.356-1.123,4.609,4.609,0,0,0,.1-1.266c-.137-1.676-.905-2.955-.813-4.217a2.177,2.177,0,0,1,.721-1.559,5.153,5.153,0,0,1,1.758-.976c.674-.226,1.4-.431,2.1-.7a4.263,4.263,0,0,0,1.878-1.3c.952-1.25,1.192-2.839,2.019-3.851a6.319,6.319,0,0,1,3.208-2.281,8.311,8.311,0,0,1,4.177-.093Z" transform="translate(-41.849 -216.415)" fill="#fff0e9"/>
            <path id="Trazado_246979" data-name="Trazado 246979" d="M106.219,389.843a17.888,17.888,0,0,1-3.062-.973,12.868,12.868,0,0,1-4.886-3.676,18.122,18.122,0,0,1-1.786-2.671,7.14,7.14,0,0,0,.989,3.218,8.529,8.529,0,0,0,5.38,4.043,7.166,7.166,0,0,0,3.365.059" transform="translate(-36.784 -222.655)" fill="#fff0e9"/>
            <path id="Trazado_246980" data-name="Trazado 246980" d="M97.249,359.621a7.223,7.223,0,0,1,1.458-4.843,4.306,4.306,0,0,1,1.937-1.685,7.288,7.288,0,0,1,2.7-.385,8.77,8.77,0,0,0,2.872-.356,5.925,5.925,0,0,0,2.523-1.66c1.33-1.44,2.049-3.065,3.645-4.039l-.039-.118a4.142,4.142,0,0,0-1.391.446,7,7,0,0,0-1.2.845c-.732.63-1.339,1.34-1.967,1.948a6.5,6.5,0,0,1-1.988,1.484,18.982,18.982,0,0,1-2.545.778c-.9.235-1.827.405-2.74.678a5.833,5.833,0,0,0-2.59,1.4,4.152,4.152,0,0,0-.86,1.245,5.012,5.012,0,0,0-.442,1.441,4.256,4.256,0,0,0,.509,2.864Z" transform="translate(-36.814 -208.935)" fill="#fff0e9"/>
            <path id="Trazado_246981" data-name="Trazado 246981" d="M129.005,361.326a6.083,6.083,0,0,1,.09-2.745,6.483,6.483,0,0,1,1.27-2.276c.592-.721,1.234-1.44,1.8-2.211a23.37,23.37,0,0,0,1.629-2.434,13.981,13.981,0,0,0-2.343,1.783,21.025,21.025,0,0,0-2.064,2.1,5.377,5.377,0,0,0-1.241,2.874,3.984,3.984,0,0,0,.858,2.907" transform="translate(-48.849 -210.889)" fill="#fff0e9"/>
            <path id="Trazado_246982" data-name="Trazado 246982" d="M170,351.87c.2-.644.31-1.25.432-1.848l.321-1.771.295-1.775a18.521,18.521,0,0,0,.213-1.887,5.193,5.193,0,0,0-1.142,1.6,7.264,7.264,0,0,0-.656,3.8A5.224,5.224,0,0,0,170,351.87" transform="translate(-64.591 -208.192)" fill="#fff0e9"/>
            <path id="Trazado_246983" data-name="Trazado 246983" d="M83.164,378.236a12.234,12.234,0,0,0-1.572.186,7.692,7.692,0,0,0-4.628,2.5,6.281,6.281,0,0,0-.916,5.816,8.157,8.157,0,0,1-1.219,1.089,9.877,9.877,0,0,0-6.318-1.07c-2.1-1.436-1.485-4.814-2.995-6.856-1-1.349-2.822-1.974-3.57-3.471a4.845,4.845,0,0,1,.507-4.393,11.366,11.366,0,0,1,2.048-2.679,5.815,5.815,0,0,0,2.159.427,2.582,2.582,0,0,0-.4,1.411c.043,1.869,2.19,2.951,2.933,4.672.594,1.367.4,3.286,1.72,3.979.91.489,2.017.043,2.951-.4q4.882-2.32,9.758-4.635a8.129,8.129,0,0,0-.545,2.141,4.64,4.64,0,0,0,.08,1.281" transform="translate(-23.487 -217.635)" fill="#f27242"/>
            <path id="Trazado_246984" data-name="Trazado 246984" d="M101.578,324.438a6.5,6.5,0,0,1-2.122.2c-1.5-.161-2.846-1.145-4.356-1.169-2.871-.043-4.659,3.211-7.376,4.133-1.708.575-3.725.2-5.21,1.219-1.974,1.349-1.906,4.307-3.317,6.243a6.907,6.907,0,0,1-.718.823c-1.77-1.052-3.626-1.986-4.814-3.638a4.021,4.021,0,0,1-.223-.34,6.616,6.616,0,0,1,2.135-8.793c1.312-.78,2.871-1.064,4.158-1.881a18.392,18.392,0,0,0,3.409-3.453,5.665,5.665,0,0,1,4.152-2.215c2.475.093,4.362,2.815,6.825,2.611,1.578-.13,2.9-1.448,4.474-1.448,1.689-.006,3.038,1.572,3.372,3.224a3.694,3.694,0,0,1,.068.445v.006a10.708,10.708,0,0,1-.458,4.034" transform="translate(-27.67 -197.127)" fill="#f27242"/>
            <path id="Trazado_246985" data-name="Trazado 246985" d="M72.118,349.324a2.768,2.768,0,0,0,.272,1.46,2.115,2.115,0,0,0-.947.662c-.749.947-.439,2.339-.823,3.484-.569,1.726-2.624,2.753-3.484,4.22a5.815,5.815,0,0,1-2.159-.427,2.31,2.31,0,0,1-.371-.186,4.118,4.118,0,0,1-1.646-4.393c.34-1.5,1.343-2.859,1.262-4.387-.074-1.448-1.12-2.723-1.163-4.17a4.019,4.019,0,0,1,2.184-3.446,5.51,5.51,0,0,1,4.492-.359,4.014,4.014,0,0,0,.223.34c1.188,1.652,3.044,2.586,4.814,3.638-1.114,1.108-2.506,2.048-2.654,3.564" transform="translate(-23.962 -207.001)" fill="#f27242"/>
            <path id="Trazado_246986" data-name="Trazado 246986" d="M87.29,367.269a11.368,11.368,0,0,1-.792,2.654q-4.882,2.32-9.758,4.634c-.934.439-2.042.885-2.951.4-1.318-.693-1.126-2.611-1.72-3.979-.743-1.72-2.89-2.8-2.933-4.672a2.582,2.582,0,0,1,.4-1.411c.86-1.466,2.914-2.494,3.484-4.22.384-1.145.074-2.537.823-3.484a2.115,2.115,0,0,1,.947-.662,3.981,3.981,0,0,0,1.126,1.4,9.871,9.871,0,0,0,2.97,1.442c1.794.637,5.408,2.345,7.79,3.329.019.142.043.278.068.408a14.33,14.33,0,0,1,.551,4.164" transform="translate(-26.357 -212.744)" fill="#f27242"/>
            <path id="Trazado_246987" data-name="Trazado 246987" d="M110.848,335.9a18.923,18.923,0,0,1-1.337,5.328c-.229-.13-.464-.254-.7-.371a7.034,7.034,0,0,0-4.455-.742,4.6,4.6,0,0,0-.8.254,7.612,7.612,0,0,0-2.494,2,16.171,16.171,0,0,1-2.228,2.234,15.048,15.048,0,0,1-5.086,1.974A5.677,5.677,0,0,0,90.6,348.3a2.345,2.345,0,0,0-.272.439,5.028,5.028,0,0,0-.371,3.026v.006a1.459,1.459,0,0,0,.025.173c-2.382-.984-6-2.692-7.79-3.329a9.87,9.87,0,0,1-2.97-1.442,3.981,3.981,0,0,1-1.126-1.4,2.769,2.769,0,0,1-.272-1.46c.149-1.516,1.541-2.456,2.654-3.564a6.906,6.906,0,0,0,.718-.823c1.411-1.937,1.343-4.894,3.317-6.243,1.485-1.015,3.5-.643,5.21-1.219,2.716-.922,4.5-4.177,7.376-4.133,1.51.025,2.852,1.009,4.356,1.169a6.5,6.5,0,0,0,2.122-.2,9.023,9.023,0,0,1,3.9-.439,4.493,4.493,0,0,1,2.989,2.815,9.153,9.153,0,0,1,.39,4.214" transform="translate(-29.663 -201.997)" fill="#f27242"/>
            <path id="Trazado_246988" data-name="Trazado 246988" d="M136.858,325.629a7.988,7.988,0,0,1-.953,2.9q-.1.213-.223.427a3.959,3.959,0,0,0-1.207.179c-1.565.514-2.432,2.2-2.834,3.805-.285,1.139-.433,2.339-.8,3.447l-.006.006a6.45,6.45,0,0,1-.563,1.293,7.325,7.325,0,0,1-1.188,1.485c-1.256-.749-2.426-1.658-3.7-2.376v-.006a18.923,18.923,0,0,0,1.337-5.328,9.153,9.153,0,0,0-.39-4.214,4.493,4.493,0,0,0-2.989-2.815,9.023,9.023,0,0,0-3.9.439,10.708,10.708,0,0,0,.458-4.034v-.006a13.8,13.8,0,0,1,1.862-2.073,7.228,7.228,0,0,1,4.034-2.048,3.723,3.723,0,0,1,3.793,2.017c.34.817.309,1.794.848,2.5,1.151,1.516,3.768.575,5.315,1.689a3.079,3.079,0,0,1,1.1,2.716" transform="translate(-45.538 -197.556)" fill="#f27242"/>
            <path id="Trazado_246989" data-name="Trazado 246989" d="M109.413,340.38a14.353,14.353,0,0,0-.041-8.023,6.333,6.333,0,0,0-1.864-3.251,4.17,4.17,0,0,0-3.526-.283c-.652.157-1.33.349-2.041.483a5.81,5.81,0,0,1-2.206.041c-1.453-.285-2.644-1.06-3.976-1.241a5.157,5.157,0,0,0-3.732,1.176c-1.107.792-2.025,1.843-3.171,2.7a14.3,14.3,0,0,1-3.8,1.885,5.5,5.5,0,0,0-2.95,2.219,8.031,8.031,0,0,0-.588,1.835,7.18,7.18,0,0,1-.8,2.106c-.782,1.3-1.879,2.232-2.414,3.3A3.47,3.47,0,0,0,77.874,345a1.691,1.691,0,0,0,.666,1.33,4.629,4.629,0,0,0,.791.491q.433.236.9.434c.611.271,1.243.513,1.893.73,1.294.442,2.634.846,3.941,1.37a10.516,10.516,0,0,1,3.56,2.232l-.082.093a10.8,10.8,0,0,0-1.769-1.035,17.369,17.369,0,0,0-1.918-.7c-1.306-.4-2.663-.657-4.017-1.028a21.12,21.12,0,0,1-2.029-.641q-.5-.19-.995-.427a5.742,5.742,0,0,1-1-.563,2.855,2.855,0,0,1-.863-.967,3.036,3.036,0,0,1-.347-1.252,4.745,4.745,0,0,1,.518-2.329,9.467,9.467,0,0,1,1.278-1.819,16.376,16.376,0,0,0,1.215-1.567,5.912,5.912,0,0,0,.715-1.746,9.034,9.034,0,0,1,.756-2.085,4.737,4.737,0,0,1,1.63-1.658,9.476,9.476,0,0,1,1.992-.917,15.324,15.324,0,0,0,3.753-1.522c1.127-.736,2.151-1.693,3.32-2.489a6.01,6.01,0,0,1,4.021-1.228c1.437.162,2.723.838,4.026.957a9.726,9.726,0,0,0,3.878-.837,7.123,7.123,0,0,1,2.2-.351,3.713,3.713,0,0,1,2.255.751,5.079,5.079,0,0,1,1.416,1.817,10.789,10.789,0,0,1,.715,2.056,12.609,12.609,0,0,1-.768,8.32Z" transform="translate(-29.203 -201.669)" fill="#fff0e9"/>
            <path id="Trazado_246990" data-name="Trazado 246990" d="M75.106,357.291a2,2,0,0,0-1.65,1.085,5.658,5.658,0,0,0-.549,2.013,7.789,7.789,0,0,1-1.8,4.351,9,9,0,0,0-1.353,1.672,2.1,2.1,0,0,0-.227.961,2.642,2.642,0,0,0,.251,1.013,6.341,6.341,0,0,0,1.328,1.752,8.7,8.7,0,0,1,1.5,1.806,11.391,11.391,0,0,1,.721,2.21c.207.665.546,1.019,1.067,1.056a2.143,2.143,0,0,0,.863-.137,4.735,4.735,0,0,0,.895-.442c.6-.363,1.2-.8,1.859-1.224a17.534,17.534,0,0,1,8.749-2.713l.019.122a29.158,29.158,0,0,0-8.052,3.7c-.613.39-1.223.859-1.941,1.238a4.244,4.244,0,0,1-2.533.612,2.108,2.108,0,0,1-1.322-.712,2.688,2.688,0,0,1-.565-1.25,14.307,14.307,0,0,0-.373-2.172,6.571,6.571,0,0,0-1.2-1.811,10,10,0,0,1-1.378-1.858,3.062,3.062,0,0,1-.305-2.4,7.824,7.824,0,0,1,1.184-2.057,10.494,10.494,0,0,0,1.046-1.836,11.315,11.315,0,0,0,.627-2.062,5.226,5.226,0,0,1,.958-2.218,2.712,2.712,0,0,1,1-.747,1.708,1.708,0,0,1,1.206-.072Z" transform="translate(-26.298 -212.959)" fill="#fff0e9"/>
            <path id="Trazado_246991" data-name="Trazado 246991" d="M65.547,368.536a6.067,6.067,0,0,1,.975.085,6.563,6.563,0,0,1,.78.181,6.208,6.208,0,0,1,.75.28,5.869,5.869,0,0,1,.859.47,1.663,1.663,0,0,1-.945.5,2.234,2.234,0,0,1-1.906-.577,1.674,1.674,0,0,1-.512-.937" transform="translate(-24.989 -217.322)" fill="#fff0e9"/>
            <path id="Trazado_246992" data-name="Trazado 246992" d="M73.517,340.15a7.954,7.954,0,0,0,1.139,1.371c.4.394.83.754,1.275,1.116s.916.741,1.365,1.173a5.147,5.147,0,0,1,1.153,1.533,16.053,16.053,0,0,1-1.719-.741,8.785,8.785,0,0,1-1.581-1.005,5.126,5.126,0,0,1-1.275-1.5,2.882,2.882,0,0,1-.356-1.943" transform="translate(-28.008 -206.501)" fill="#fff0e9"/>
            <path id="Trazado_246993" data-name="Trazado 246993" d="M119.712,326.613a8.863,8.863,0,0,1,.14-1.2c.065-.359.137-.7.219-1.031s.174-.668.282-1.016a8.787,8.787,0,0,1,.432-1.125,2.312,2.312,0,0,1,.54,1.174,3.183,3.183,0,0,1-.593,2.4,2.32,2.32,0,0,1-1.021.791" transform="translate(-45.639 -199.674)" fill="#fff0e9"/>
            <path id="Trazado_246994" data-name="Trazado 246994" d="M130.612,343.968a8.952,8.952,0,0,1,1.846.7c.288.145.575.295.85.462a5.609,5.609,0,0,1,.8.532l-.811.377a13.516,13.516,0,0,1,.476-1.484,9.349,9.349,0,0,0,.379-1.492,12.92,12.92,0,0,1,.648-3.076,6.927,6.927,0,0,1,1.742-2.7,5.372,5.372,0,0,1,2.836-1.472l.053.112a15.359,15.359,0,0,0-1.994,2.17,27.352,27.352,0,0,0-1.586,2.377,17.678,17.678,0,0,0-1.307,2.679,5.087,5.087,0,0,0-.226,1.491c0,.51.051,1.023.03,1.527l-.032.758-.778-.381a5.636,5.636,0,0,1-.819-.509c-.266-.181-.522-.379-.774-.58a8.915,8.915,0,0,1-1.4-1.387Z" transform="translate(-49.769 -204.848)" fill="#fff0e9"/>
          </g>
        </g>
      </g>
    </g>
  </g>
</svg>
