<svg xmlns="http://www.w3.org/2000/svg" xmlns:xlink="http://www.w3.org/1999/xlink" width="506.255" height="355" viewBox="0 0 506.255 355">
  <defs>
    <clipPath id="clip-path">
      <rect id="Rectángulo_216895" data-name="Rectángulo 216895" width="506.255" height="355" fill="none"/>
    </clipPath>
    <clipPath id="clip-path-2">
      <rect id="Rectángulo_216863" data-name="Rectángulo 216863" width="506.255" height="355.001" fill="none"/>
    </clipPath>
    <clipPath id="clip-path-3">
      <rect id="Rectángulo_216862" data-name="Rectángulo 216862" width="503.14" height="339.512" fill="none"/>
    </clipPath>
    <clipPath id="clip-path-4">
      <path id="Trazado_238907" data-name="Trazado 238907" d="M485.612,198.68C388.481,147.631,507.524,83.59,413.4,18.644A159.763,159.763,0,0,0,378.2.22H266.226C223.913,13.983,188.191,40.2,168.665,62.937,74.015,173.169,16.082,23.931,16.082,18.644V339.732H519.223V218.862a332.124,332.124,0,0,0-33.611-20.182" transform="translate(-16.082 -0.22)" fill="none"/>
    </clipPath>
    <linearGradient id="linear-gradient" x1="0.071" y1="0.812" x2="0.072" y2="0.812" gradientUnits="objectBoundingBox">
      <stop offset="0" stop-color="#6398bf"/>
      <stop offset="0.005" stop-color="#6398bf"/>
      <stop offset="1" stop-color="#c5e7ff"/>
    </linearGradient>
    <clipPath id="clip-path-6">
      <rect id="Rectángulo_216868" data-name="Rectángulo 216868" width="220.999" height="39.559" fill="none"/>
    </clipPath>
    <clipPath id="clip-path-7">
      <rect id="Rectángulo_216869" data-name="Rectángulo 216869" width="16.473" height="22.936" fill="none"/>
    </clipPath>
    <clipPath id="clip-path-8">
      <rect id="Rectángulo_216870" data-name="Rectángulo 216870" width="20.553" height="45.65" fill="none"/>
    </clipPath>
    <clipPath id="clip-path-9">
      <rect id="Rectángulo_216871" data-name="Rectángulo 216871" width="11.355" height="13.453" fill="none"/>
    </clipPath>
    <clipPath id="clip-path-10">
      <rect id="Rectángulo_216874" data-name="Rectángulo 216874" width="251.713" height="5.004" fill="none"/>
    </clipPath>
    <clipPath id="clip-path-11">
      <rect id="Rectángulo_216876" data-name="Rectángulo 216876" width="109.236" height="9.098" fill="none"/>
    </clipPath>
    <clipPath id="clip-path-12">
      <rect id="Rectángulo_216877" data-name="Rectángulo 216877" width="49.782" height="10.69" fill="none"/>
    </clipPath>
    <clipPath id="clip-path-13">
      <path id="Trazado_238956" data-name="Trazado 238956" d="M.074,735.55c-1.914,34.709,34.272,73.612,34.272,74.112,0,1.18,9.519,2.136,21.262,2.136s21.262-.957,21.262-2.136c0-.452,63.239-26.938,60.021-57.283C131.708,703.5,58.243,641.807,51,641.807c-6.761,0-48.326,46.636-50.924,93.742" transform="translate(0 -641.807)" fill="none"/>
    </clipPath>
    <clipPath id="clip-path-15">
      <rect id="Rectángulo_216887" data-name="Rectángulo 216887" width="4.274" height="16.565" fill="none"/>
    </clipPath>
    <clipPath id="clip-path-16">
      <rect id="Rectángulo_216888" data-name="Rectángulo 216888" width="27.891" height="15.102" fill="none"/>
    </clipPath>
    <clipPath id="clip-path-17">
      <rect id="Rectángulo_216889" data-name="Rectángulo 216889" width="60.195" height="68.665" fill="none"/>
    </clipPath>
    <clipPath id="clip-path-18">
      <rect id="Rectángulo_216890" data-name="Rectángulo 216890" width="38.255" height="24.043" fill="none"/>
    </clipPath>
    <clipPath id="clip-path-19">
      <rect id="Rectángulo_216891" data-name="Rectángulo 216891" width="10.178" height="20.178" fill="none"/>
    </clipPath>
    <clipPath id="clip-path-20">
      <rect id="Rectángulo_216893" data-name="Rectángulo 216893" width="11.952" height="30.736" fill="none"/>
    </clipPath>
  </defs>
  <g id="Grupo_174274" data-name="Grupo 174274" clip-path="url(#clip-path)">
    <rect id="Rectángulo_216860" data-name="Rectángulo 216860" width="503.141" height="339.512" transform="translate(3.114 0.045)" fill="#bbddf6"/>
    <g id="Grupo_174228" data-name="Grupo 174228" transform="translate(0 -0.001)">
      <g id="Grupo_174227" data-name="Grupo 174227" clip-path="url(#clip-path-2)">
        <g id="Grupo_174226" data-name="Grupo 174226" transform="translate(3.114 0.046)" opacity="0.73" style="mix-blend-mode: multiply;isolation: isolate">
          <g id="Grupo_174225" data-name="Grupo 174225">
            <g id="Grupo_174224" data-name="Grupo 174224" clip-path="url(#clip-path-3)">
              <g id="Grupo_174223" data-name="Grupo 174223" transform="translate(0 0)">
                <g id="Grupo_174222" data-name="Grupo 174222" clip-path="url(#clip-path-4)">
                  <path id="Trazado_239008" data-name="Trazado 239008" d="M17.782,18.872l607.5-17.638L608.682,582.1,1.185,599.734Z" transform="translate(-179.621 119.969) rotate(-37.224)" fill="url(#linear-gradient)"/>
                </g>
              </g>
            </g>
          </g>
        </g>
      </g>
    </g>
    <rect id="Rectángulo_216864" data-name="Rectángulo 216864" width="503.141" height="43.476" transform="translate(3.114 311.524)" fill="#6abcf6"/>
    <rect id="Rectángulo_216865" data-name="Rectángulo 216865" width="223.708" height="140.133" transform="translate(62.872 200.338)" fill="#05356b"/>
    <rect id="Rectángulo_216866" data-name="Rectángulo 216866" width="248.057" height="23.413" transform="translate(45.367 191.457)" fill="#0858b1"/>
    <rect id="Rectángulo_216867" data-name="Rectángulo 216867" width="220.999" height="140.133" transform="translate(105.051 198.936)" fill="#0086f5"/>
    <g id="Grupo_174251" data-name="Grupo 174251" transform="translate(0 -0.001)">
      <g id="Grupo_174250" data-name="Grupo 174250" clip-path="url(#clip-path-2)">
        <path id="Trazado_238908" data-name="Trazado 238908" d="M828.74,1241.491c0,17.327-35.656,31.373-79.641,31.373s-79.64-14.046-79.64-31.373,35.656-31.373,79.64-31.373,79.641,14.046,79.641,31.373" transform="translate(-539.821 -961.34)" fill="#007ce3"/>
        <path id="Trazado_238909" data-name="Trazado 238909" d="M760.357,1210.119c-36.842,0-67.841,9.855-76.937,23.238,12.861-10.516,40.174-17.773,71.789-17.773,43.984,0,79.64,14.046,79.64,31.373a14.373,14.373,0,0,1-2.7,8.135c5.032-4.115,7.852-8.727,7.852-13.6,0-17.327-35.656-31.373-79.641-31.373" transform="translate(-551.078 -961.34)" fill="#2374b8"/>
        <g id="Grupo_174231" data-name="Grupo 174231" transform="translate(105.051 200.339)" opacity="0.46">
          <g id="Grupo_174230" data-name="Grupo 174230">
            <g id="Grupo_174229" data-name="Grupo 174229" clip-path="url(#clip-path-6)">
              <path id="Trazado_238910" data-name="Trazado 238910" d="M542.489,974.494v39.559c13.01-14.734,221-21.394,221-21.394V974.494Z" transform="translate(-542.489 -974.494)" fill="#2374b8"/>
            </g>
          </g>
        </g>
        <path id="Trazado_238911" data-name="Trazado 238911" d="M1113.738,690.85c12.286.5,24.843-6.641,33.816-10.766.265-.122,4.813-5.419,6.765-4.985a.733.733,0,0,1,.589.826c-.07.614-.545.76-1.354,1.651s-1.394,2.162-1.024,2.232c.811.157,7.517-4.885,9.651-5.564,1.066-.34,1.731.317-1.138,2.268-.851.579-1.792,1.144-2.66,1.664-2.056,1.232-3.19,2.34-2.584,2.167,1.807-.517,9.744-5.351,10.6-4.192.421.566-8.539,5.032-10.625,6.306,2.82-.264,10.566-5.279,10.069-3.5-.309,1.1-7.4,4.7-9.146,5.234-2.122.654.311.571,1.545.512,1.01-.049,4.7-1.425,3.611.152-.962,1.393-11.027,2.352-14.6,3.48h0c-3.158,1-20.35,15.146-32.208,15.884-7.833.488-26.024-8.051-35.648-11.9a7.482,7.482,0,0,1-4.311-4.783l-.122-.393c-1.275-4.116,1.583-5.517,5.5-6.744v.555c1.991-.624,11.389.4,13.152,1.558,4.36,2.872,16.588,8.194,20.119,8.337" transform="translate(-866.559 -535.562)" fill="#ffa283"/>
        <path id="Trazado_238912" data-name="Trazado 238912" d="M1140.012,705.415c-.557-.742-10.437-2.8-14.368-5.5s-5.138,16.67-5.138,16.67,10.686,5.31,13.727,5.982c3.321.733,8.2-13.919,5.778-17.154" transform="translate(-903.525 -555.821)" fill="#dfe1eb"/>
        <g id="Grupo_174234" data-name="Grupo 174234" transform="translate(216.982 143.838)" opacity="0.39">
          <g id="Grupo_174233" data-name="Grupo 174233">
            <g id="Grupo_174232" data-name="Grupo 174232" clip-path="url(#clip-path-7)">
              <path id="Trazado_238913" data-name="Trazado 238913" d="M1125.928,719.186a59.95,59.95,0,0,0,8.306,3.383c.862.19,1.829-.657,2.746-2.07-1.1-.588-2.215-1.182-2.384-1.294-3.932-2.613-7.884-10.555-7.712-15.671a11.819,11.819,0,0,0-.292-3.038c-.307-.169-.659-.38-.948-.579-3.93-2.7-5.138,16.67-5.138,16.67l4.278,1.374s.441.5,1.143,1.225" transform="translate(-1120.508 -699.659)" fill="#9bb9d1"/>
            </g>
          </g>
        </g>
        <path id="Trazado_238914" data-name="Trazado 238914" d="M877.034,803.364l-11.251,26.709,9.314.588,14.951-26.611Z" transform="translate(-698.128 -638.206)" fill="#ffa283"/>
        <path id="Trazado_238915" data-name="Trazado 238915" d="M962.345,696l12.68,45.571,32.82.471s4.888-27.246,4.888-29.334-12.748-16.717-15.2-19.321-31.748-2.813-35.188,2.613" transform="translate(-775.991 -549.431)" fill="#fff"/>
        <g id="Grupo_174237" data-name="Grupo 174237" transform="translate(186.354 146.57)" opacity="0.39">
          <g id="Grupo_174236" data-name="Grupo 174236">
            <g id="Grupo_174235" data-name="Grupo 174235" clip-path="url(#clip-path-8)">
              <path id="Trazado_238916" data-name="Trazado 238916" d="M982.9,758.6l-20.553-45.65L975.006,758.5Z" transform="translate(-962.344 -712.95)" fill="#9bb9d1"/>
            </g>
          </g>
        </g>
        <path id="Trazado_238917" data-name="Trazado 238917" d="M919.044,712.95l-10.4,21.094,13.174,7.056,2.792-8.876s1.108-12.187-5.566-19.274" transform="translate(-732.69 -566.38)" fill="#fff"/>
        <path id="Trazado_238918" data-name="Trazado 238918" d="M926.954,559.8c0,4.87-3.3,8.817-7.377,8.817s-7.377-3.948-7.377-8.817,3.3-8.817,7.377-8.817,7.377,3.948,7.377,8.817" transform="translate(-735.556 -437.707)" fill="#26004a"/>
        <path id="Trazado_238919" data-name="Trazado 238919" d="M1030.674,688.124c-3.526-2.182-13.678-2.181-16.316.619s17.67,21.563,26.771,21.563c.928,0-5.419-19.066-10.455-22.182" transform="translate(-817.743 -545.414)" fill="#a5375c"/>
        <path id="Trazado_238920" data-name="Trazado 238920" d="M1042.021,622.9s-2.557,14.411,0,17.125c2.007,2.13,6.365,9.888,8.388,13.026,2.677,4.152-.681,2.678-1.8,2.337-5.663-1.724-18.7-16.2-18.7-16.2l-.507-19.087Z" transform="translate(-830.065 -492.623)" fill="#ffa283"/>
        <g id="Grupo_174240" data-name="Grupo 174240" transform="translate(200.6 127.763)" opacity="0.68" style="mix-blend-mode: multiply;isolation: isolate">
          <g id="Grupo_174239" data-name="Grupo 174239">
            <g id="Grupo_174238" data-name="Grupo 174238" clip-path="url(#clip-path-9)">
              <path id="Trazado_238921" data-name="Trazado 238921" d="M1035.914,621.465c1.606,5.3,4.407,9.977,7.3,11.82a31.271,31.271,0,0,0,2.919,1.635,81.5,81.5,0,0,1,1.132-10.937Z" transform="translate(-1035.913 -621.466)" fill="#ff682b"/>
            </g>
          </g>
        </g>
        <path id="Trazado_238922" data-name="Trazado 238922" d="M1157.994,793.392s.148-.393,1.848-.393,4.243,2.525,4.243,2.525-.769,1.87-3.356.614-2.735-2.746-2.735-2.746" transform="translate(-933.753 -629.973)" fill="#a5375c"/>
        <path id="Trazado_238923" data-name="Trazado 238923" d="M1030.113,511.407s12.829,14.153,11.87,24.807-13.908,4.775-19.327.459-6.746-26.51,7.457-25.266" transform="translate(-821.546 -406.231)" fill="#ffa283"/>
        <path id="Trazado_238924" data-name="Trazado 238924" d="M989.449,472.319a7.625,7.625,0,0,1,1.794,8.364c-1.672,3.655-6.2,3.446-10.131,6.579s-3.861,16.186-3.861,16.186-15.614,3.028-11.975-12.636,5.8-11.7,10.328-15.037c3.891-2.874,9.194-7.671,13.845-3.456" transform="translate(-777.91 -373.899)" fill="#320063"/>
        <path id="Trazado_238925" data-name="Trazado 238925" d="M1020.556,589.154s-3.683-1.5-3.565.959,2.423,5.95,3.85,3.007-.285-3.967-.285-3.967" transform="translate(-820.053 -467.675)" fill="#ffa283"/>
        <path id="Trazado_238926" data-name="Trazado 238926" d="M1002.133,682.673a109.87,109.87,0,0,1,10.378,11.6,49.093,49.093,0,0,0,7.813,8.3l5.513,4.652s-6.168-.245-8.94-1.787-2.24-3.245-5.555-3.245a8.893,8.893,0,0,1-7.062-3.307c-1.841-1.955-3.4-2.569-4.973-4.238s-5.041-8.377-3.933-9.554,6.759-2.416,6.759-2.416" transform="translate(-802.451 -542.328)" fill="#a5375c"/>
        <path id="Trazado_238927" data-name="Trazado 238927" d="M1144.493,788.96a2.162,2.162,0,0,1-2.927,1.171,2.409,2.409,0,0,1-1.1-3.108,2.162,2.162,0,0,1,2.927-1.171,2.41,2.41,0,0,1,1.1,3.108" transform="translate(-919.457 -624.129)" fill="#a5375c"/>
        <path id="Trazado_238928" data-name="Trazado 238928" d="M1129.23,801.4s-2.883.785-2.883,2.9a3.681,3.681,0,0,1-1.183,2.982s2.772.353,4.065-1.02,0-4.866,0-4.866" transform="translate(-907.281 -636.645)" fill="#a5375c"/>
        <rect id="Rectángulo_216872" data-name="Rectángulo 216872" width="251.713" height="23.413" transform="translate(81.18 191.458)" fill="#6fb6f2"/>
        <g id="Grupo_174243" data-name="Grupo 174243" transform="translate(81.18 191.458)" style="mix-blend-mode: screen;isolation: isolate">
          <g id="Grupo_174242" data-name="Grupo 174242">
            <g id="Grupo_174241" data-name="Grupo 174241" clip-path="url(#clip-path-10)">
              <rect id="Rectángulo_216873" data-name="Rectángulo 216873" width="251.713" height="5.004" transform="translate(0)" fill="#76bbf5"/>
            </g>
          </g>
        </g>
        <path id="Trazado_238929" data-name="Trazado 238929" d="M637.466,709.207l-61.937-1.577-12.02-37.6,61.078-1.113Z" transform="translate(-454.388 -531.404)" fill="#003f8c"/>
        <path id="Trazado_238930" data-name="Trazado 238930" d="M575.529,711.6l61.937,1.577-1.075-3.362c-7.866-.449-24.507-2.234-39.783-9.3-13.313-6.158-23.088-18.09-28.435-26.595l-4.664.085Z" transform="translate(-454.388 -535.375)" fill="#002f69"/>
        <path id="Trazado_238931" data-name="Trazado 238931" d="M678.3,759.985c-5.99,6.255-10.279,16.184-9.472,29.231l-9-1.427c2.451-14.877,9.7-24.927,17.322-29.955Z" transform="translate(-532.052 -602.038)" fill="#2374b8"/>
        <path id="Trazado_238932" data-name="Trazado 238932" d="M663.124,905.012H628.177v-6.8h28.54a6.613,6.613,0,0,1,6.407,6.8Z" transform="translate(-506.533 -713.554)" fill="#003f8c"/>
        <path id="Trazado_238933" data-name="Trazado 238933" d="M652.236,905.012H617.289v-6.8h28.54a6.613,6.613,0,0,1,6.407,6.8Z" transform="translate(-497.753 -713.554)" fill="#002f69"/>
        <rect id="Rectángulo_216875" data-name="Rectángulo 216875" width="503.141" height="15.932" transform="translate(3.114 339.069)" fill="#6abcf6"/>
        <g id="Grupo_174246" data-name="Grupo 174246" transform="translate(348.208 329.427)" style="mix-blend-mode: multiply;isolation: isolate">
          <g id="Grupo_174245" data-name="Grupo 174245">
            <g id="Grupo_174244" data-name="Grupo 174244" clip-path="url(#clip-path-11)">
              <path id="Trazado_238934" data-name="Trazado 238934" d="M1902.038,1611.51h-98.5c-2.966,0-5.369-2.036-5.369-4.549s2.4-4.549,5.369-4.549h98.5c2.965,0,5.369,2.036,5.369,4.549s-2.4,4.549-5.369,4.549" transform="translate(-1798.172 -1602.412)" fill="#c8d9e3"/>
            </g>
          </g>
        </g>
        <g id="Grupo_174249" data-name="Grupo 174249" transform="translate(21.185 334.733)" style="mix-blend-mode: multiply;isolation: isolate">
          <g id="Grupo_174248" data-name="Grupo 174248">
            <g id="Grupo_174247" data-name="Grupo 174247" clip-path="url(#clip-path-12)">
              <path id="Trazado_238935" data-name="Trazado 238935" d="M159.185,1633.565c0,2.952-11.144,5.345-24.891,5.345s-24.891-2.393-24.891-5.345,11.144-5.345,24.891-5.345,24.891,2.393,24.891,5.345" transform="translate(-109.403 -1628.22)" fill="#6abcf6"/>
            </g>
          </g>
        </g>
        <path id="Trazado_238936" data-name="Trazado 238936" d="M213.389,1498.564H182.513l-5.9-40.269h42.668Z" transform="translate(-142.416 -1158.496)" fill="#0072e3"/>
        <path id="Trazado_238937" data-name="Trazado 238937" d="M219.884,1450.04c0,1.18-9.519,2.136-21.262,2.136s-21.262-.957-21.262-2.136,9.519-2.136,21.262-2.136,21.262.957,21.262,2.136" transform="translate(-143.015 -1150.24)" fill="#003972"/>
      </g>
    </g>
    <g id="Grupo_174253" data-name="Grupo 174253" transform="translate(0 131.944)">
      <g id="Grupo_174252" data-name="Grupo 174252" clip-path="url(#clip-path-13)">
        <path id="Trazado_238938" data-name="Trazado 238938" d="M298.559,1018.415c-.106.125-4.229,4.568-9.215,11.141-7.962,10.494-18.514,26.119-21.061,36.262a20.19,20.19,0,0,0-.474,2.493q-.11.923-.218,1.9c-1.505,13.517-2.712,33.874-3.061,40.058-.4-.007-.789-.014-1.177-.023.362-6.424,1.676-28.594,3.29-42.1a20.5,20.5,0,0,1,.444-2.4c.219-.9.5-1.84.837-2.812,5.9-17.06,28.7-44.122,29.77-45.39Z" transform="translate(-212.356 -940.302)" fill="#64b1ff"/>
        <path id="Trazado_238939" data-name="Trazado 238939" d="M276.614,925.762q-.59,0-1.189,0c.339-2.527,1.909-16.351-.586-40.086q-.228-2.173-.5-4.458-.207-1.725-.444-3.511c-4.179-31.53,1.412-91.838,1.469-92.444l1.171.126c-.057.606-5.634,60.762-1.474,92.139.039.293.078.587.115.877q.19,1.462.36,2.881c3.1,25.884,1.5,41.24,1.083,44.471" transform="translate(-219.603 -755.774)" fill="#64b1ff"/>
        <path id="Trazado_238940" data-name="Trazado 238940" d="M307.718,1159.62l-1.144-.3c5.479-24.6,5.906-80.739,5.91-81.3l1.177.01c0,.565-.431,56.847-5.943,81.6" transform="translate(-247.207 -988.337)" fill="#64b1ff"/>
        <path id="Trazado_238941" data-name="Trazado 238941" d="M216.51,1220.438h-1.177c0-15.516-15.445-65.216-15.605-65.7l.711.859c.656,2,16.072,49.115,16.072,64.845" transform="translate(-161.051 -1049.286)" fill="#0072e3"/>
        <path id="Trazado_238942" data-name="Trazado 238942" d="M127.94,971.282c0,.013,2.407-8.613,2.284-13.413a50.1,50.1,0,0,0-.893-9.967c-.334-1.3-1.633-1.3-2.09-.013.012-.058-2.931-11.793-4.48-12.6-.493-.275-1.948,1.292-2.2.681-2.545-6.105-11.17-15.241-11.157-15.313q.086,8.086.2,15.98c6.205,10.947,12.539,21.581,18.332,34.645" transform="translate(-88.218 -863.331)" fill="#002b54"/>
        <path id="Trazado_238943" data-name="Trazado 238943" d="M126.641,971.335c.041-.18-1.6-22.731-4.416-28.063a10.96,10.96,0,0,0-2.775-3.925c-.83-.622-1.847-.292-1.86,1.045q0,.136,0,.272c-.014,1.47-1.5,2.111-1.96.853-2.519-6.9-5.043-13.72-7.512-20.86-.02.139-2.428,23.012,6.526,32.83,8.9,10.214,11.983,17.948,12,17.849" transform="translate(-86.93 -863.33)" fill="#0072e3"/>
        <path id="Trazado_238944" data-name="Trazado 238944" d="M251.057,766.807s5.884-6.1,7.382-10.216c.9-2.462,2.274-6.063,2.477-9.021a1.42,1.42,0,0,0-2.309-1.285s1.1-12.112-.235-13.872c-.427-.564-2.568-.133-2.61-.838-.416-7.094-6.218-20.864-6.218-20.864l-5.578,14.041Z" transform="translate(-196.724 -696.546)" fill="#003972"/>
        <path id="Trazado_238945" data-name="Trazado 238945" d="M245.676,766.807s6.122-20.268,5.169-26.891a14.033,14.033,0,0,0-1.532-5.247c-.656-1.091-1.863-1.473-2.377-.3l-.1.238a1.25,1.25,0,0,1-2.4-.547l-.266-23.351S233.291,729.065,238.9,744s6.773,22.811,6.773,22.811" transform="translate(-191.343 -696.546)" fill="#64b1ff"/>
        <path id="Trazado_238946" data-name="Trazado 238946" d="M398.725,1009.418c.079.036-1.239-5.679,1.231-9.294,2.833-4.148,6.891-6.192,11.365-4.754,1.574.506,2.411,2.744,1.911,3.707a35.722,35.722,0,0,1,12.255,2.684,4.454,4.454,0,0,1,2.232,2.427l.015.042c1.263,3.519,5.4,3.14,10.305,11.715,6,6.811,5.967,30.345,4.576,30.583a39.059,39.059,0,0,0-8.666-14.787c-6.117-20.558-23.515-28.018-35.225-22.323" transform="translate(-321.287 -922.32)" fill="#002b54"/>
        <path id="Trazado_238947" data-name="Trazado 238947" d="M397.571,1042c.238-.522,0-5,7.177-7.016,5.433-1.528,13.045-2.3,17.02.223a32.618,32.618,0,0,1,5.9,4.055c1.454,1.254,1.658,3.553.434,3.258l-.246-.052c-1.314-.237-.914,2.255.407,3.411,7.389,6.412,13.406,17.227,13.648,31.36.007-.265-9.348-17.687-22.659-28.29-14.394-11.23-21.556-7.007-21.682-6.95" transform="translate(-320.583 -953.031)" fill="#64b1ff"/>
        <path id="Trazado_238948" data-name="Trazado 238948" d="M320.693,947.581l-.777-2.555s-9.362,16.255-8.441,22.983a14.009,14.009,0,0,0,5.53,9.663Z" transform="translate(-251.108 -882.69)" fill="#002b54"/>
        <path id="Trazado_238949" data-name="Trazado 238949" d="M329.931,931.274s.807.611.807,3.18-5.183,33.1-5.183,33.1-3.919-7.411-3.343-13.038,6.74-22.2,7.719-23.241" transform="translate(-259.77 -871.765)" fill="#64b1ff"/>
        <path id="Trazado_238950" data-name="Trazado 238950" d="M283.222,1286.111l-.906-.194c4.8-27.787-5.083-42.273-5.688-43.126l-5.246-4.586.571-.8,4.948,4.386c.11.147,11.338,15.3,6.321,44.323" transform="translate(-218.831 -1114.959)" fill="#0072e3"/>
        <path id="Trazado_238951" data-name="Trazado 238951" d="M89.939,1183.239c-.068.008.352-6.625-1.3-9.9-1.019-1.947-2.6-4.819-4.894-6.387-1.024-.711-2.922.041-2.969,1.158.27-.257-10.007-5.518-13.091-4.163-.914.313-2.023,2.557-2.742,2.505-7.618-1.831-25.728,9.428-25.388,10.337a70.811,70.811,0,0,1,12.4,3.015c14.643-5.472,28.726-3.2,37.985,3.434" transform="translate(-31.889 -1056.428)" fill="#002b54"/>
        <path id="Trazado_238952" data-name="Trazado 238952" d="M90.033,1198.554c.027-.345-4.327-15.316-16.577-15.86-2.183-.1-4.139-.387-6.071.19-1.522.455-2.67,1.662-1.841,2.338l.166.139c.875.76-.581,2.508-1.939,2.395a52.128,52.128,0,0,0-24.2,3.915c.074.539,15.4,7.906,30.148,5.52,15.4-1.466,19.01,1.61,20.314,1.364" transform="translate(-31.909 -1071.371)" fill="#0072e3"/>
        <path id="Trazado_238953" data-name="Trazado 238953" d="M252.378,1358.9l.56-.12c-2.972-17.189,3.144-26.15,3.519-26.677l3.245-2.837-.353-.5-3.313,2.9c-.068.091-6.762,9.273-3.658,27.227" transform="translate(-202.844 -1187.539)" fill="#0072e3"/>
        <path id="Trazado_238954" data-name="Trazado 238954" d="M274.685,1295.462c.042,0,.047-4.3,1.071-6.327a10.874,10.874,0,0,1,3.028-3.951c.633-.44,1.807.026,1.837.717-.167-.159,6.19-3.414,8.1-2.575.565.193,1.251,1.582,1.7,1.549,4.713-1.132,15.915,5.833,15.7,6.4a43.813,43.813,0,0,0-7.672,1.865c-9.058-3.385-18.035-1.776-23.762,2.327" transform="translate(-221.493 -1151.331)" fill="#002b54"/>
        <path id="Trazado_238955" data-name="Trazado 238955" d="M274.606,1304.719c-.4-.107,5.691-9.428,10.474-9.835a8.242,8.242,0,0,1,3.755.118c.942.281,1.651,1.028,1.139,1.446l-.1.086c-.542.47.359,1.551,1.2,1.481a32.248,32.248,0,0,1,14.97,2.421c-.046.333-9.7,3.312-18.822,1.836-9.524-.907-12.565,2.8-12.613,2.447" transform="translate(-221.415 -1160.498)" fill="#0072e3"/>
      </g>
    </g>
    <g id="Grupo_174273" data-name="Grupo 174273" transform="translate(0 -0.001)">
      <g id="Grupo_174272" data-name="Grupo 174272" clip-path="url(#clip-path-2)">
        <path id="Trazado_238957" data-name="Trazado 238957" d="M530.348,350.89A10.543,10.543,0,1,1,519.81,340.7a10.368,10.368,0,0,1,10.537,10.19" transform="translate(-410.654 -270.658)" fill="#fff"/>
        <path id="Trazado_238958" data-name="Trazado 238958" d="M508.334,342.343H473.345v-7.158c0-5.59,4.268-10.121,9.533-10.121H498.8c5.265,0,9.533,4.531,9.533,10.121Z" transform="translate(-381.684 -258.237)" fill="#024590"/>
        <path id="Trazado_238959" data-name="Trazado 238959" d="M476.179,338.922a15.447,15.447,0,0,0-2.834,9.335v5.095H496.1c-13.881,0-18.428-8.856-19.916-14.43" transform="translate(-381.684 -269.245)" fill="#002f69"/>
        <path id="Trazado_238960" data-name="Trazado 238960" d="M551.144,266.856h-7.929V256a3.972,3.972,0,1,1,7.929,0Z" transform="translate(-438.024 -200.028)" fill="#024590"/>
        <rect id="Rectángulo_216879" data-name="Rectángulo 216879" width="7.929" height="3.157" transform="translate(105.191 63.671)" fill="#002f69"/>
        <rect id="Rectángulo_216880" data-name="Rectángulo 216880" width="1.947" height="60.33" transform="translate(108.147 0)" fill="#024590"/>
        <path id="Trazado_238961" data-name="Trazado 238961" d="M180.464,410.489a10.543,10.543,0,1,1-10.537-10.19,10.368,10.368,0,0,1,10.537,10.19" transform="translate(-128.525 -318.004)" fill="#fff"/>
        <path id="Trazado_238962" data-name="Trazado 238962" d="M158.45,401.942H123.461v-7.157c0-5.59,4.268-10.121,9.533-10.121h15.923c5.265,0,9.533,4.531,9.533,10.121Z" transform="translate(-99.553 -305.584)" fill="#024590"/>
        <path id="Trazado_238963" data-name="Trazado 238963" d="M126.3,398.521a15.447,15.447,0,0,0-2.834,9.335v5.095h22.75c-13.882,0-18.428-8.856-19.916-14.43" transform="translate(-99.553 -316.592)" fill="#002f69"/>
        <path id="Trazado_238964" data-name="Trazado 238964" d="M201.26,326.456h-7.929V315.6a4.092,4.092,0,0,1,3.965-4.209h0a4.092,4.092,0,0,1,3.964,4.209Z" transform="translate(-155.893 -247.376)" fill="#024590"/>
        <rect id="Rectángulo_216881" data-name="Rectángulo 216881" width="7.929" height="3.156" transform="translate(37.438 75.924)" fill="#002f69"/>
        <rect id="Rectángulo_216882" data-name="Rectángulo 216882" width="1.947" height="71.102" transform="translate(40.394 1.481)" fill="#024590"/>
        <path id="Trazado_238965" data-name="Trazado 238965" d="M806,249.408a10.543,10.543,0,1,1-10.537-10.19A10.368,10.368,0,0,1,806,249.408" transform="translate(-632.926 -190.039)" fill="#fff"/>
        <path id="Trazado_238966" data-name="Trazado 238966" d="M783.984,240.861H748.995V233.7c0-5.59,4.268-10.121,9.533-10.121h15.923c5.265,0,9.533,4.531,9.533,10.121Z" transform="translate(-603.955 -177.618)" fill="#024590"/>
        <path id="Trazado_238967" data-name="Trazado 238967" d="M751.829,237.439a15.447,15.447,0,0,0-2.834,9.335v5.095h22.75c-13.881,0-18.428-8.856-19.916-14.43" transform="translate(-603.955 -188.625)" fill="#002f69"/>
        <path id="Trazado_238968" data-name="Trazado 238968" d="M826.795,165.374h-7.929V154.52a3.972,3.972,0,1,1,7.929,0Z" transform="translate(-660.296 -119.409)" fill="#024590"/>
        <rect id="Rectángulo_216883" data-name="Rectángulo 216883" width="7.929" height="3.156" transform="translate(158.57 42.808)" fill="#002f69"/>
        <rect id="Rectángulo_216884" data-name="Rectángulo 216884" width="1.947" height="39.421" transform="translate(161.526 0.046)" fill="#024590"/>
        <path id="Trazado_238969" data-name="Trazado 238969" d="M1937.744,854.526s-1.822,12.062-6.484,14.191c-3.115,1.422-5.583,6.253-19.223,5.662l-.633,9.237s26.339,2.007,32.3-.747c8.359-3.865-5.957-28.344-5.957-28.344" transform="translate(-1541.269 -678.851)" fill="#c25076"/>
        <path id="Trazado_238970" data-name="Trazado 238970" d="M2257.079,896.551h0a6.734,6.734,0,0,0,8.1-5.333l6.395-28.972a7.181,7.181,0,0,0-5.023-8.6,6.734,6.734,0,0,0-8.1,5.333l-6.394,28.972a7.18,7.18,0,0,0,5.023,8.6" transform="translate(-1815.81 -678.003)" fill="#288397"/>
        <path id="Trazado_238971" data-name="Trazado 238971" d="M2257.079,896.551h0a6.734,6.734,0,0,0,8.1-5.333l6.395-28.972a7.181,7.181,0,0,0-5.023-8.6,6.734,6.734,0,0,0-8.1,5.333l-6.394,28.972a7.18,7.18,0,0,0,5.023,8.6" transform="translate(-1815.81 -678.003)" fill="#288397"/>
        <path id="Trazado_238972" data-name="Trazado 238972" d="M2257.079,896.551h0a6.734,6.734,0,0,0,8.1-5.333l6.395-28.972a7.181,7.181,0,0,0-5.023-8.6,6.734,6.734,0,0,0-8.1,5.333l-6.394,28.972a7.18,7.18,0,0,0,5.023,8.6" transform="translate(-1815.81 -678.003)" fill="#edf7f9"/>
        <path id="Trazado_238973" data-name="Trazado 238973" d="M2252.057,887.958l6.394-28.972a6.676,6.676,0,0,1,9-5.029,6.788,6.788,0,0,0-7.165,5.485l-6.394,28.972a7.25,7.25,0,0,0,4.123,8.293,6.4,6.4,0,0,1-.933-.153,7.18,7.18,0,0,1-5.023-8.6" transform="translate(-1815.81 -678.007)" fill="#8f9a9b"/>
        <path id="Trazado_238974" data-name="Trazado 238974" d="M2324.412,934.35l2.969-1.167,4.315-19.549-2.224-2.209Z" transform="translate(-1874.299 -724.052)" fill="#0a2126"/>
        <path id="Trazado_238975" data-name="Trazado 238975" d="M2261.556,1053.073c4.429-7.136-8.124-25.509-9.114-34.737-1.17-10.919-.034-16.1-.023-16.149l-2.067-.538c-.051.221-1.245,5.555-.024,16.943,1.246,11.623,18.5,35.205,4.8,34.947-15.521-.3-24.221,0-24.307,0l.072,2.258c.085,0,8.738-.3,24.2,0,2.489.05,5.088-.51,6.463-2.724" transform="translate(-1798.834 -795.728)" fill="#0a2126"/>
        <path id="Trazado_238976" data-name="Trazado 238976" d="M2006.954,1263.181h42.44l2.233-5.648H2004.46Z" transform="translate(-1616.304 -999.007)" fill="#0a2126"/>
        <rect id="Rectángulo_216885" data-name="Rectángulo 216885" width="10.245" height="21.712" transform="translate(406.388 261.35)" fill="#0a2126"/>
        <rect id="Rectángulo_216886" data-name="Rectángulo 216886" width="5.138" height="35.811" transform="translate(408.942 282.895)" fill="#edf7f9"/>
        <path id="Trazado_238977" data-name="Trazado 238977" d="M2105.656,1544.74h7.566v-12.383h-7.566Z" transform="translate(-1697.904 -1217.332)" fill="#0a2126"/>
        <path id="Trazado_238978" data-name="Trazado 238978" d="M2172.626,1574.278l-27.9-15.061v6.861l20.005,8.2v1.506h7.895Z" transform="translate(-1729.409 -1238.67)" fill="#0a2126"/>
        <path id="Trazado_238979" data-name="Trazado 238979" d="M1961.606,1574.284v1.509h7.893v-1.509l20-8.2v-6.859Z" transform="translate(-1581.749 -1238.678)" fill="#0a2126"/>
        <path id="Trazado_238980" data-name="Trazado 238980" d="M2105.635,1575.792v1.166h8.205v-1.166h-1.873v-16.565h-5.136l.539,16.565Z" transform="translate(-1697.887 -1238.678)" fill="#0a2126"/>
        <g id="Grupo_174256" data-name="Grupo 174256" transform="translate(408.944 320.549)" opacity="0.39">
          <g id="Grupo_174255" data-name="Grupo 174255">
            <g id="Grupo_174254" data-name="Grupo 174254" clip-path="url(#clip-path-15)">
              <path id="Trazado_238981" data-name="Trazado 238981" d="M2111.807,1559.227l.539,16.565h2.024l1.712-16.565Z" transform="translate(-2111.807 -1559.227)" fill="#9caaad"/>
            </g>
          </g>
        </g>
        <g id="Grupo_174259" data-name="Grupo 174259" transform="translate(379.858 320.549)" opacity="0.39">
          <g id="Grupo_174258" data-name="Grupo 174258">
            <g id="Grupo_174257" data-name="Grupo 174257" clip-path="url(#clip-path-16)">
              <path id="Trazado_238982" data-name="Trazado 238982" d="M1961.606,1574.284v.046l27.891-11.581v-3.521Z" transform="translate(-1961.607 -1559.227)" fill="#9caaad"/>
            </g>
          </g>
        </g>
        <path id="Trazado_238983" data-name="Trazado 238983" d="M1983.386,1217.467h48.88a5.194,5.194,0,0,0,0-10.369h-48.88a5.194,5.194,0,0,0,0,10.369" transform="translate(-1595.373 -958.94)" fill="#d3dee0"/>
        <path id="Trazado_238984" data-name="Trazado 238984" d="M1983.5,1207.1h48.771a4.731,4.731,0,0,1,3.556,1.65c-.619-.011-36.781,0-48.94-.007-4.277,0-6.469,5.417-3.555,8.719a5.035,5.035,0,0,1-4.823-5.1,5.133,5.133,0,0,0,4.992-5.265" transform="translate(-1595.376 -958.94)" fill="#fdffff"/>
        <path id="Trazado_238985" data-name="Trazado 238985" d="M1838.646,1095.814s-46.754,4.015-46.754,18.719c0,12.106,21.044,61,24.937,79.81.725,3.5-3.655,8.634-3.44,9.205,1.016,2.7,6.473-1.146,6.473-1.146l4.2-13.51s-16.075-63.446-11.182-68.641,52.106-15.929,52.106-15.929Z" transform="translate(-1444.899 -870.534)" fill="#e76a53"/>
        <g id="Grupo_174262" data-name="Grupo 174262" transform="translate(359.893 229.458)" opacity="0.68" style="mix-blend-mode: multiply;isolation: isolate">
          <g id="Grupo_174261" data-name="Grupo 174261">
            <g id="Grupo_174260" data-name="Grupo 174260" clip-path="url(#clip-path-17)">
              <path id="Trazado_238986" data-name="Trazado 238986" d="M1858.832,1131.012c3.847-12.253,39.071-14.873,39.071-14.873l15.06,2.474,5.744,1.855S1871.5,1131.2,1866.6,1136.4c-3.065,3.254,2.095,29.353,6.379,48.407-6.935-21.368-16.322-46.869-14.148-53.792" transform="translate(-1858.512 -1116.139)" fill="#ff7f4c"/>
            </g>
          </g>
        </g>
        <path id="Trazado_238987" data-name="Trazado 238987" d="M1901.117,1547.158s1-.691,2.4,1.529.793,14.724.793,14.724l-2.207.519s-.067-9.171-.578-9.068-1.378,9.624-2.564,10.237-9.3,2.832-10.817,1.731,2.587-4.806,2.587-4.806,4.231-.243,4.669-.924,5.719-13.941,5.719-13.941" transform="translate(-1522.238 -1229.01)" fill="#09434c"/>
        <path id="Trazado_238988" data-name="Trazado 238988" d="M1945.312,1117.1s1.415,6.859-2.5,11.013-47.482,1.948-49.627,8.126c-3.807,10.971,6.221,64.8,6.221,64.8l-4.33,13.424s-5.912,4.235-6.465,2.648c-.264-.756,4.155-6.764,3.638-11.567-1.927-17.909-24.128-69.036-20.9-79.3,3.847-12.253,39.071-14.874,39.071-14.874Z" transform="translate(-1508.71 -882.892)" fill="#ffa283"/>
        <path id="Trazado_238989" data-name="Trazado 238989" d="M1894.449,1101.855s1.379,6.861-1.206,9.606-50.919,7.254-50.919,7.254,1.613-8.43-7.8-12.155-19.159-4.974-26.569-3.369c0,0,1.454-5.008,15.489-9.348s29.483-4.536,29.483-4.536Z" transform="translate(-1457.848 -865.366)" fill="#0001e4"/>
        <path id="Trazado_238990" data-name="Trazado 238990" d="M2099.99,508.908c-1.474.328-14.779.486-14.779,10.76s.193,14.358-2.308,18.851,1.664,15.393,4.783,15.43,3.378,11.934,3.378,11.934,18,8.577,23,6.331a7.8,7.8,0,0,1,4.094-.5c8.838,1.009,15.033-9.581,9.376-16.861q-.357-.461-.774-.9c-7.652-8.124-6.733-7.466-6.733-16.656s-1.539-6.535-5.194-12.049-5.806-18.35-14.844-16.337" transform="translate(-1678.94 -404.117)" fill="#160862"/>
        <path id="Trazado_238991" data-name="Trazado 238991" d="M2029.6,722.126c-2.693,2.859-18.824,18.055-15.568,27.438,7.23,20.838-5.359,44.537-5.359,47.8s38.426,14.3,46.891,14.3-10.179-28.7-6.717-38.5,8.063-49.106,5.178-52.169c-1.924-2.042-23.885.561-24.424,1.133" transform="translate(-1619.702 -572.158)" fill="#a5375c"/>
        <g id="Grupo_174265" data-name="Grupo 174265" transform="translate(396.475 200.821)" opacity="0.29" style="mix-blend-mode: multiply;isolation: isolate">
          <g id="Grupo_174264" data-name="Grupo 174264">
            <g id="Grupo_174263" data-name="Grupo 174263" clip-path="url(#clip-path-18)">
              <path id="Trazado_238992" data-name="Trazado 238992" d="M2080.093,977.023l.064-.184-32.735,9.478s6.541,14.565,38.255,14.565c-3.231-8.609-7.38-18.775-5.585-23.859" transform="translate(-2047.422 -976.839)" fill="#a5375c"/>
            </g>
          </g>
        </g>
        <path id="Trazado_238993" data-name="Trazado 238993" d="M2116.675,622.357l-1.475,18.592s-9.9,22.165-5.165,24S2125.6,641.8,2125.6,641.8V618Z" transform="translate(-1700.402 -490.952)" fill="#ffa283"/>
        <g id="Grupo_174268" data-name="Grupo 174268" transform="translate(415.018 127.05)" opacity="0.68" style="mix-blend-mode: multiply;isolation: isolate">
          <g id="Grupo_174267" data-name="Grupo 174267">
            <g id="Grupo_174266" data-name="Grupo 174266" clip-path="url(#clip-path-19)">
              <path id="Trazado_238994" data-name="Trazado 238994" d="M2153.358,618v12.04c-2.945,4.738-7.113,8.054-10.177,8.137l1.255-15.823Z" transform="translate(-2143.18 -618.002)" fill="#ff7f4c"/>
            </g>
          </g>
        </g>
        <path id="Trazado_238995" data-name="Trazado 238995" d="M2117.931,533.665s-5.194-2.451-6.925,8.577-.273,22.752,4.856,23.569,14.572-7.94,14.572-17.034c0-7.816-8.4-16.275-12.5-15.112" transform="translate(-1701.657 -423.768)" fill="#ffa283"/>
        <path id="Trazado_238996" data-name="Trazado 238996" d="M1955.252,1542.556s1.1-.756,2.625,1.673.868,16.114.868,16.114l-2.415.568s-.074-10.037-.633-9.925-1.508,10.533-2.806,11.2-10.175,3.1-11.839,1.895,2.831-5.26,2.831-5.26,4.63-.266,5.11-1.012,6.26-15.258,6.26-15.258" transform="translate(-1564.877 -1225.346)" fill="#09434c"/>
        <path id="Trazado_238997" data-name="Trazado 238997" d="M1869.911,952.183a1.83,1.83,0,0,0-1.757-1.085,35.84,35.84,0,0,0-4.37.542c-1.729.228-9.833,7.272-5.584,8.7h11.711s2.421-5.582,0-8.152" transform="translate(-1497.386 -755.569)" fill="#e76a53"/>
        <rect id="Rectángulo_216892" data-name="Rectángulo 216892" width="42.522" height="30.736" transform="translate(353.954 203.115)" fill="#7f3100"/>
        <g id="Grupo_174271" data-name="Grupo 174271" transform="translate(384.523 203.115)" opacity="0.38">
          <g id="Grupo_174270" data-name="Grupo 174270">
            <g id="Grupo_174269" data-name="Grupo 174269" clip-path="url(#clip-path-20)">
              <path id="Trazado_238998" data-name="Trazado 238998" d="M1985.7,1018.733h11.953V988h-7.888c-1.128,6.491-3.443,20.633-4.065,30.736" transform="translate(-1985.698 -987.997)" fill="#001c41"/>
            </g>
          </g>
        </g>
        <path id="Trazado_238999" data-name="Trazado 238999" d="M1910.185,953.8h-2.4v-7.05a2.752,2.752,0,0,0-2.664-2.828h-5.177a2.752,2.752,0,0,0-2.664,2.828v7.05h-2.4v-7.05a5.234,5.234,0,0,1,5.065-5.377h5.177a5.234,5.234,0,0,1,5.065,5.377Z" transform="translate(-1527.942 -747.842)" fill="#7f3100"/>
        <path id="Trazado_239000" data-name="Trazado 239000" d="M1950.773,955.879s-6.384-.14-9-2.2-4.5-3.3-8.153-2.319-4.474,1.6-5.409,2.858-3.085,5.317-1.4,6.282,14.634,1.474,15.1,1.248,10.861,1.685,10.861,1.685Z" transform="translate(-1553.186 -755.505)" fill="#ffa283"/>
        <path id="Trazado_239001" data-name="Trazado 239001" d="M2089.843,785.933c-7.773,11.655-32.947,5.657-42.421,3.587a49.486,49.486,0,0,0,.164-10.589c-.174-1.433,22.94-.56,26.321-2.63s10.75-47.185,10.75-47.185,5.093,2.276,7.452,10.182c4.744,15.9,3.889,37.4-2.268,46.636" transform="translate(-1650.947 -579.222)" fill="#c25076"/>
        <path id="Trazado_239002" data-name="Trazado 239002" d="M2159.831,571.158a10.648,10.648,0,0,0,4.391-17.353c-7.652-8.124-6.733-7.466-6.733-16.656s.87-11.352-2.785-16.866-8.215-13.533-17.253-11.52c-.117.026-.307.051-.56.08-.173.047-9.848.088-8.081,5.9a2.966,2.966,0,0,1,3.961,1.476c3.009,5.037,3.077,6.637,6.54,8.271s2.124,7.964,2.123,12.15c0,3.208.428,6.406.348,9.614-.092,3.653-6.667,29.067,12.71,25.312,1.779-.345,3.561.151,5.338-.406" transform="translate(-1716.401 -403.919)" fill="#003c8e"/>
        <path id="Trazado_239003" data-name="Trazado 239003" d="M1553.846,127.168c0-5.744-6.269-10.4-14-10.4H1453.6c-7.733,0-14,4.657-14,10.4v16.641c0,5.744,6.269,10.4,14,10.4h83.687l8.527,23.185s8.036-32.136,8.036-33.586Z" transform="translate(-1160.823 -92.761)" fill="#007ee6"/>
        <path id="Trazado_239004" data-name="Trazado 239004" d="M1285.9,288.106c-6.634,0-9.523-2.765-12.5-6.831h-16.147c-5.013,0-9.077,3.393-9.077,7.579.054,17-1.626,9.164,6.536,29.328l4.2-9.625h54.253c5.013,0,9.077-3.393,9.077-7.578V288.854a6.4,6.4,0,0,0-.044-.748Z" transform="translate(-1006.384 -223.449)" fill="#ffd7cf"/>
        <path id="Trazado_239005" data-name="Trazado 239005" d="M1571.845,164.557h-90.88a1.385,1.385,0,1,1,0-2.667h90.88a1.385,1.385,0,1,1,0,2.667" transform="translate(-1192.764 -128.608)" fill="#fff"/>
        <path id="Trazado_239006" data-name="Trazado 239006" d="M1571.845,200.593h-90.88a1.385,1.385,0,1,1,0-2.667h90.88a1.385,1.385,0,1,1,0,2.667" transform="translate(-1192.764 -157.235)" fill="#fff"/>
        <path id="Trazado_239007" data-name="Trazado 239007" d="M1571.845,240.77h-90.88a1.385,1.385,0,1,1,0-2.667h90.88a1.385,1.385,0,1,1,0,2.667" transform="translate(-1192.764 -189.153)" fill="#fff"/>
      </g>
    </g>
  </g>
</svg>
