<svg xmlns="http://www.w3.org/2000/svg" xmlns:xlink="http://www.w3.org/1999/xlink" width="503.31" height="356.989" viewBox="0 0 503.31 356.989">
  <defs>
    <clipPath id="clip-path">
      <rect id="Rectángulo_217024" data-name="Rectángulo 217024" width="503" height="356" fill="none"/>
    </clipPath>
    <clipPath id="clip-path-2">
      <rect id="Rectángulo_217022" data-name="Rectángulo 217022" width="503.114" height="235.25" fill="none"/>
    </clipPath>
  </defs>
  <g id="Grupo_174444" data-name="Grupo 174444" transform="translate(-284.805 -6180)">
    <g id="Grupo_174442" data-name="Grupo 174442" transform="translate(284.805 6180)">
      <rect id="Rectángulo_217023" data-name="Rectángulo 217023" width="503" height="356" fill="#d9ddf8"/>
      <g id="Grupo_174443" data-name="Grupo 174443">
        <g id="Grupo_174442-2" data-name="Grupo 174442" clip-path="url(#clip-path)">
          <path id="Trazado_240489" data-name="Trazado 240489" d="M503.31,170.3c-4.288-4.355-8.683-8.493-12.813-12.487a131.684,131.684,0,0,1-24.59-32.077C460,114.894,454.16,103.542,443.965,96.573c-19.965-13.649-45.121-8.1-66.854-15.73-20.563-7.222-36.918-30.43-60.127-28.4-20.538,1.794-31.128,22.777-42.775,37.969a65.614,65.614,0,0,1-25.081,20.483c-10.026,4.653-20.695,7.8-30.243,13.572-9.565,5.785-16.037,14.026-20.493,24.648-4.665,11.12-7.52,24.112-16.2,32.693-8.553,8.455-20.542,10.588-31.643,12.564-11.251,2-22.288,4.17-32.411,10.045-20.1,11.664-34.51,32.16-55.42,42.408C42.637,256.662,15.053,254.305,0,273.3v98.05H503.31Z" transform="translate(0 -15.034)" fill="#c3c7f4"/>
        </g>
      </g>
    </g>
    <g id="Grupo_174441" data-name="Grupo 174441" transform="translate(285 6301.739)">
      <g id="Grupo_174440" data-name="Grupo 174440" clip-path="url(#clip-path-2)">
        <path id="Trazado_240427" data-name="Trazado 240427" d="M493.588,196.048S484.406,95.775,404.8,92.959s-38.324,103.618-38.324,103.618Z" transform="translate(-229.139 -30.582)" fill="#b29efe"/>
        <line id="Línea_216" data-name="Línea 216" x2="45.596" y2="91.818" transform="translate(162.476 73.871)" fill="none" stroke="#d0beea" stroke-linecap="round" stroke-linejoin="round" stroke-width="2"/>
        <path id="Trazado_240428" data-name="Trazado 240428" d="M511.123,118.394l-20.711,38.283-45.94-25.593" transform="translate(-306.169 -38.973)" fill="none" stroke="#d0beea" stroke-linecap="round" stroke-linejoin="round" stroke-width="2"/>
        <path id="Trazado_240429" data-name="Trazado 240429" d="M496.862,164.311l-30.945,49.339L398.23,180.432" transform="translate(-260.888 -54.088)" fill="none" stroke="#d0beea" stroke-linecap="round" stroke-linejoin="round" stroke-width="2"/>
        <line id="Línea_217" data-name="Línea 217" x1="35.623" transform="translate(215.935 142.175)" fill="none" stroke="#d0beea" stroke-linecap="round" stroke-linejoin="round" stroke-width="2"/>
        <line id="Línea_218" data-name="Línea 218" x2="0.593" y2="33.222" transform="translate(190.425 71.959)" fill="none" stroke="#d0beea" stroke-linecap="round" stroke-linejoin="round" stroke-width="2"/>
        <line id="Línea_219" data-name="Línea 219" x1="21.783" y2="6.856" transform="translate(195.554 89.94)" fill="none" stroke="#d0beea" stroke-linecap="round" stroke-linejoin="round" stroke-width="2"/>
        <line id="Línea_220" data-name="Línea 220" x1="4.337" y2="31.364" transform="translate(220.666 103.267)" fill="none" stroke="#d0beea" stroke-linecap="round" stroke-linejoin="round" stroke-width="2"/>
        <line id="Línea_221" data-name="Línea 221" x1="24.018" y1="17.388" transform="translate(225.737 142.174)" fill="none" stroke="#d0beea" stroke-linecap="round" stroke-linejoin="round" stroke-width="2"/>
        <line id="Línea_222" data-name="Línea 222" y1="5.25" x2="40.577" transform="translate(136.926 146.054)" fill="none" stroke="#d0beea" stroke-linecap="round" stroke-linejoin="round" stroke-width="2"/>
        <line id="Línea_223" data-name="Línea 223" x2="15.116" y2="22.267" transform="translate(145.314 115.408)" fill="none" stroke="#d0beea" stroke-linecap="round" stroke-linejoin="round" stroke-width="2"/>
        <line id="Línea_224" data-name="Línea 224" y1="15.495" x2="18.886" transform="translate(145.314 147.774)" fill="none" stroke="#d0beea" stroke-linecap="round" stroke-linejoin="round" stroke-width="2"/>
        <line id="Línea_225" data-name="Línea 225" x2="13.165" y2="26.815" transform="translate(146.857 77.396)" fill="none" stroke="#d0beea" stroke-linecap="round" stroke-linejoin="round" stroke-width="2"/>
        <line id="Línea_226" data-name="Línea 226" y1="1.68" x2="25.331" transform="translate(140.82 107.625)" fill="none" stroke="#d0beea" stroke-linecap="round" stroke-linejoin="round" stroke-width="2"/>
        <path id="Trazado_240430" data-name="Trazado 240430" d="M448.9,181.794c-.688-2.129-1.425-4.244-2.256-6.335a113.488,113.488,0,0,0-16.073-28.1c-3.154-4.046-6.66-7.811-9.687-11.957-2.836-3.885-5.287-8.2-6.078-13-.71-4.309.087-10.145,5.311-10.989,5.024-.812,9.616,3.044,12.811,6.437a60.02,60.02,0,0,1,8.714,12.887,165.908,165.908,0,0,1,12.352,28.795c.936-14.327-.476-28.694-1.956-42.977C450.3,99.739,448.6,82.635,451.6,65.85a62.637,62.637,0,0,1,3.025-11.792c1.252-3.194,3.892-6.351,7.668-6.044,3.618.294,5.909,3.674,7.647,6.485a49.645,49.645,0,0,1,4.878,10.552c5.367,16.279,3.022,33.788.457,50.358-1.314,8.491-2.876,16.944-4.764,25.326a240.357,240.357,0,0,1-6.607,24.167,114.007,114.007,0,0,0,7.843-19.589c4.064-13.382,6.384-27.222,10.465-40.6q.749-2.454,1.58-4.883a11.954,11.954,0,0,1,1.717-3.526,4.524,4.524,0,0,1,6.559-.733c2.222,1.782,3.4,4.851,4.24,7.482a32.779,32.779,0,0,1,1.493,9.186c.323,13.372-6.487,25.725-13,36.948a223.208,223.208,0,0,1-22.866,32.609Z" transform="translate(-272.812 -15.798)" fill="#9c77d2"/>
        <path id="Trazado_240431" data-name="Trazado 240431" d="M472.28,68.776c3.1,37.469-1.051,77.773-9.45,119.736" transform="translate(-280.667 -22.64)" fill="none" stroke="#524776" stroke-linecap="round" stroke-linejoin="round" stroke-width="1.5"/>
        <path id="Trazado_240432" data-name="Trazado 240432" d="M458.562,134.422c-5.991,29.922-15.964,56.036-32.549,75.822" transform="translate(-241.224 -44.249)" fill="none" stroke="#524776" stroke-linecap="round" stroke-linejoin="round" stroke-width="1.5"/>
        <path id="Trazado_240433" data-name="Trazado 240433" d="M481.969,153.942c14.3,14.4,25.5,33.558,30.187,62.728" transform="translate(-332.356 -50.675)" fill="none" stroke="#524776" stroke-linecap="round" stroke-linejoin="round" stroke-width="1.5"/>
        <path id="Trazado_240434" data-name="Trazado 240434" d="M91.595,230.857s9.975-35.03,43.049-33.786,14.831,33.786,14.831,33.786Z" transform="translate(287.176 -64.861)" fill="#b29efe"/>
        <line id="Línea_227" data-name="Línea 227" x1="20.606" y2="30.048" transform="translate(407.121 135.947)" fill="none" stroke="#d0c3ff" stroke-linecap="round" stroke-linejoin="round" stroke-width="1.5"/>
        <path id="Trazado_240435" data-name="Trazado 240435" d="M99.469,202.659l2,20.626,22.807-7.757" transform="translate(312.114 -66.712)" fill="none" stroke="#d0c3ff" stroke-linecap="round" stroke-linejoin="round" stroke-width="1.5"/>
        <path id="Trazado_240436" data-name="Trazado 240436" d="M103.186,221.844l14.946,15.862L144,233.911" transform="translate(289.891 -73.027)" fill="none" stroke="#d0c3ff" stroke-linecap="round" stroke-linejoin="round" stroke-width="1.5"/>
        <line id="Línea_228" data-name="Línea 228" x1="7.03" y2="10.474" transform="translate(426.077 141.85)" fill="none" stroke="#d0c3ff" stroke-linecap="round" stroke-linejoin="round" stroke-width="1.5"/>
        <line id="Línea_229" data-name="Línea 229" x2="10.226" y2="8.76" transform="translate(402.527 139.264)" fill="none" stroke="#d0c3ff" stroke-linecap="round" stroke-linejoin="round" stroke-width="1.5"/>
        <line id="Línea_230" data-name="Línea 230" x2="1.699" y2="12.833" transform="translate(400.165 145.31)" fill="none" stroke="#d0c3ff" stroke-linecap="round" stroke-linejoin="round" stroke-width="1.5"/>
        <line id="Línea_231" data-name="Línea 231" x1="8.927" y2="6.525" transform="translate(418.799 156.574)" fill="none" stroke="#d0c3ff" stroke-linecap="round" stroke-linejoin="round" stroke-width="1.5"/>
        <line id="Línea_232" data-name="Línea 232" x2="16.638" y2="5.556" transform="translate(388.221 155.766)" fill="none" stroke="#d0c3ff" stroke-linecap="round" stroke-linejoin="round" stroke-width="1.5"/>
        <path id="Trazado_240437" data-name="Trazado 240437" d="M201.384,222.1s3.15-50.386,46.549-50.059,26.25,50.587,26.25,50.587Z" transform="translate(90.497 -56.632)" fill="#b29efe"/>
        <line id="Línea_233" data-name="Línea 233" x1="22.443" y2="43.478" transform="translate(322.467 122.21)" fill="none" stroke="#d0c3ff" stroke-linecap="round" stroke-linejoin="round" stroke-width="1.5"/>
        <path id="Trazado_240438" data-name="Trazado 240438" d="M243.694,190.387l-26.937,9.673-5.962-23.226" transform="translate(118.015 -58.21)" fill="none" stroke="#d0c3ff" stroke-linecap="round" stroke-linejoin="round" stroke-width="1.5"/>
        <path id="Trazado_240439" data-name="Trazado 240439" d="M213.143,195.746l13.98,31.959,36.419-9.326" transform="translate(96.592 -64.436)" fill="none" stroke="#d0c3ff" stroke-linecap="round" stroke-linejoin="round" stroke-width="1.5"/>
        <line id="Línea_234" data-name="Línea 234" x2="18.992" y2="7.014" transform="translate(299.935 145.31)" fill="none" stroke="#d0c3ff" stroke-linecap="round" stroke-linejoin="round" stroke-width="1.5"/>
        <line id="Línea_235" data-name="Línea 235" x1="15.735" y1="2.874" transform="translate(345.974 137.827)" fill="none" stroke="#d0c3ff" stroke-linecap="round" stroke-linejoin="round" stroke-width="1.5"/>
        <path id="Trazado_240440" data-name="Trazado 240440" d="M249.4,181.773l8.682,9.1,3.743-9.931" transform="translate(73.982 -59.562)" fill="none" stroke="#d0c3ff" stroke-linecap="round" stroke-linejoin="round" stroke-width="1.5"/>
        <line id="Línea_236" data-name="Línea 236" x1="8.819" y2="12.835" transform="translate(338.19 146.728)" fill="none" stroke="#d0c3ff" stroke-linecap="round" stroke-linejoin="round" stroke-width="1.5"/>
        <path id="Trazado_240441" data-name="Trazado 240441" d="M294.351,214.293h-32.2c.411-1.489.759-3,1.026-4.531a96.991,96.991,0,0,0,1.164-11.573c.4-7.635.368-15.332,1.76-22.876a43.1,43.1,0,0,1,3.38-10.806,11.953,11.953,0,0,1,2.873-4.33,3.635,3.635,0,0,1,4.351-.264,5.806,5.806,0,0,1,2.01,3.793,49.543,49.543,0,0,1,.577,6.021,110.818,110.818,0,0,1-1.874,28.3q-.472,2.41-1.048,4.806c.554-1.336,1.11-2.669,1.655-4l6.2-15.167q6.2-15.171,12.431-30.327c1.336-3.256,3.593-7.433,7.831-6.473a6.6,6.6,0,0,1,4.325,3.59,11.421,11.421,0,0,1,.594,6.693,91.859,91.859,0,0,1-8.259,26.01,98.074,98.074,0,0,1-10.424,17.154,134.294,134.294,0,0,0,16.232-13.881A140.975,140.975,0,0,0,317.4,174.519c2.563-3.258,6.324-7.248,10.914-5.46a7.42,7.42,0,0,1,4,4.234,9.975,9.975,0,0,1-.016,6.81,27.682,27.682,0,0,1-3.652,6.787q-1.979,2.92-4.244,5.632a76.694,76.694,0,0,1-30.05,21.772" transform="translate(-5.646 -48.298)" fill="#9c77d2"/>
        <path id="Trazado_240442" data-name="Trazado 240442" d="M332.264,155.116c-6.446,24.266-14.992,45.467-26.774,61.941" transform="translate(-34.079 -51.061)" fill="none" stroke="#524776" stroke-linecap="round" stroke-linejoin="round" stroke-width="1.5"/>
        <path id="Trazado_240443" data-name="Trazado 240443" d="M316.413,190.007c-13.752,17.724-29.3,30.973-47.118,38.535" transform="translate(6.053 -62.547)" fill="none" stroke="#524776" stroke-linecap="round" stroke-linejoin="round" stroke-width="1.5"/>
        <path id="Trazado_240444" data-name="Trazado 240444" d="M353.842,175.463c1.307,17.278.233,33.481-3.938,48.291" transform="translate(-85.975 -57.759)" fill="none" stroke="#524776" stroke-linecap="round" stroke-linejoin="round" stroke-width="1.5"/>
        <path id="Trazado_240445" data-name="Trazado 240445" d="M566.157,195.614s-49.7-98.044,4.2-105.3,96.576,105.3,96.576,105.3Z" transform="translate(-529.59 -29.619)" fill="#b29efe"/>
        <line id="Línea_237" data-name="Línea 237" x2="47.422" y2="96.86" transform="translate(40.766 69.011)" fill="none" stroke="#d0beea" stroke-linecap="round" stroke-linejoin="round" stroke-width="2"/>
        <path id="Trazado_240446" data-name="Trazado 240446" d="M696.3,110.121,685.427,137.38l-35.849-13.629" transform="translate(-628.936 -36.25)" fill="none" stroke="#d0beea" stroke-linecap="round" stroke-linejoin="round" stroke-width="2"/>
        <path id="Trazado_240447" data-name="Trazado 240447" d="M679.243,144.294l-11.976,45.219L618.1,166.9" transform="translate(-590.76 -47.499)" fill="none" stroke="#d0beea" stroke-linecap="round" stroke-linejoin="round" stroke-width="2"/>
        <path id="Trazado_240448" data-name="Trazado 240448" d="M658.139,198.876,632.5,229.735,581.49,216.77" transform="translate(-545.099 -65.466)" fill="none" stroke="#d0beea" stroke-linecap="round" stroke-linejoin="round" stroke-width="2"/>
        <line id="Línea_238" data-name="Línea 238" x2="3.492" y2="19.517" transform="translate(56.491 72.861)" fill="none" stroke="#d0beea" stroke-linecap="round" stroke-linejoin="round" stroke-width="2"/>
        <line id="Línea_239" data-name="Línea 239" y1="4.242" x2="20.388" transform="translate(19.591 94.853)" fill="none" stroke="#d0beea" stroke-linecap="round" stroke-linejoin="round" stroke-width="2"/>
        <path id="Trazado_240449" data-name="Trazado 240449" d="M666.965,162.942l21.323,23.143-17.479,2.184" transform="translate(-632.587 -53.637)" fill="none" stroke="#d0beea" stroke-linecap="round" stroke-linejoin="round" stroke-width="2"/>
        <line id="Línea_240" data-name="Línea 240" x2="14.804" y2="14.403" transform="translate(49.166 143.91)" fill="none" stroke="#d0beea" stroke-linecap="round" stroke-linejoin="round" stroke-width="2"/>
        <line id="Línea_241" data-name="Línea 241" x1="5.51" y2="28.688" transform="translate(96.33 124.835)" fill="none" stroke="#d0beea" stroke-linecap="round" stroke-linejoin="round" stroke-width="2"/>
        <line id="Línea_242" data-name="Línea 242" x1="31.767" y2="4.04" transform="translate(91.312 155.522)" fill="none" stroke="#d0beea" stroke-linecap="round" stroke-linejoin="round" stroke-width="2"/>
        <line id="Línea_243" data-name="Línea 243" x1="14.849" y2="16.863" transform="translate(82.616 102.086)" fill="none" stroke="#d0beea" stroke-linecap="round" stroke-linejoin="round" stroke-width="2"/>
        <line id="Línea_244" data-name="Línea 244" x2="5.338" y2="42.638" transform="translate(74.715 85.984)" fill="none" stroke="#d0beea" stroke-linecap="round" stroke-linejoin="round" stroke-width="2"/>
        <line id="Línea_245" data-name="Línea 245" x2="16.449" y2="21.685" transform="translate(29.785 75.546)" fill="none" stroke="#d0beea" stroke-linecap="round" stroke-linejoin="round" stroke-width="2"/>
        <path id="Trazado_240450" data-name="Trazado 240450" d="M594.664,121.485a6.493,6.493,0,0,1,4.543-2.327c4-.462,7.8,1.322,11.036,3.494,3.751,2.517,7.24,5.48,10.755,8.31,4.477,3.6,8.928,7.27,13.294,11.03a159.61,159.61,0,0,1-18.462-24.8,156.669,156.669,0,0,1-10.04-19.562,128.751,128.751,0,0,1-7.221-21.543c-1.725-7.537-2.568-15.417-1.368-23.1a32.834,32.834,0,0,1,3.152-10.572,3.56,3.56,0,0,1,3.405-2.189c1.708.184,2.747,1.725,3.643,3.021,9.058,13.115,13.512,28.665,19.431,43.3q7.473,18.478,16.437,36.3-2.457-7.256-4.411-14.673A232.235,232.235,0,0,1,633,77.654a228.057,228.057,0,0,1,.83-62.343q.571-3.756,1.268-7.492c.372-2,.688-4.144,1.9-5.837a4.652,4.652,0,0,1,5.14-1.789c2.266.655,3.93,2.532,5.292,4.358,5.813,7.79,7.1,17.947,8.206,27.325,1.321,11.236,1.839,22.547,2.222,33.847.381,11.256.618,22.523,1.383,33.762a229.112,229.112,0,0,0,3.924,30.615,133.969,133.969,0,0,0,9.314,29.187c.961,2.081,1.949,4.146,3.006,6.18H630.534q-6.568-4.737-12.748-9.992-5.022-4.295-9.75-8.917a103.951,103.951,0,0,1-8.838-9.412c-2.437-3.056-4.78-6.689-5.438-10.612a6.578,6.578,0,0,1,.9-5.049" transform="translate(-570.586 0)" fill="#9c77d2"/>
        <path id="Trazado_240451" data-name="Trazado 240451" d="M609.485,21.485s-1.894,49.874,3.227,92.923,17.983,58.13,17.983,58.13" transform="translate(-536.206 -7.072)" fill="none" stroke="#524776" stroke-linecap="round" stroke-linejoin="round" stroke-width="1.5"/>
        <path id="Trazado_240452" data-name="Trazado 240452" d="M619.707,85.207c7.955,35.8,27.325,72.118,53.024,108.714" transform="translate(-585.328 -28.049)" fill="none" stroke="#524776" stroke-linecap="round" stroke-linejoin="round" stroke-width="1.5"/>
        <path id="Trazado_240453" data-name="Trazado 240453" d="M634.708,188.571c13.138,14.612,29.048,27.421,46.9,38.969" transform="translate(-604.267 -62.074)" fill="none" stroke="#524776" stroke-linecap="round" stroke-linejoin="round" stroke-width="1.5"/>
        <rect id="Rectángulo_217021" data-name="Rectángulo 217021" width="503.114" height="69.255" transform="translate(0 165.995)" fill="#c3c7f4"/>
        <line id="Línea_246" data-name="Línea 246" x1="446.503" transform="translate(24.929 165.995)" fill="none" stroke="#31245c" stroke-miterlimit="10" stroke-width="1.5"/>
        <path id="Trazado_240454" data-name="Trazado 240454" d="M546.474,280.819c0-8.79-71.407-15.916-159.492-15.916S227.49,272.029,227.49,280.819s71.407,15.916,159.492,15.916,159.492-7.126,159.492-15.916" transform="translate(-195.964 -87.201)" fill="#afb5ef"/>
        <path id="Trazado_240455" data-name="Trazado 240455" d="M423.129,115.376l27.6,95.825A122.307,122.307,0,0,0,487,223.461a5.359,5.359,0,0,1,4.216,3.928H436.9a3.831,3.831,0,0,1-3.53-5.32,60.764,60.764,0,0,1,5.024-9.293c-16.328-17.083-29.913-35.613-30.187-61.161,0,0-35.437,45.674-35.7,44.886s-19.377-38.677-19.377-38.677Z" transform="translate(-224.99 -37.98)" fill="#6636e0"/>
        <path id="Trazado_240456" data-name="Trazado 240456" d="M433.119,152.181s6.343,38.718,13.606,50.4S457.357,218.2,457.357,218.2" transform="translate(-244.787 -50.095)" fill="none" stroke="#31245c" stroke-linecap="round" stroke-linejoin="round" stroke-width="2" stroke-dasharray="12.009 12.009"/>
        <path id="Trazado_240457" data-name="Trazado 240457" d="M421.042,234.121a72.061,72.061,0,0,0,13.751-5.261l4.366,15.161-12.715,4.332a168.535,168.535,0,0,1-11-12.841c1.557-.364,3.412-.82,5.6-1.39" transform="translate(-214.729 -75.336)" fill="#31245c"/>
        <path id="Trazado_240458" data-name="Trazado 240458" d="M360.905,251.178a62.014,62.014,0,0,0,7.806-3.726l2.081,7.226a122.3,122.3,0,0,0,36.277,12.26,5.359,5.359,0,0,1,4.216,3.928H356.962a3.831,3.831,0,0,1-3.53-5.32,60.765,60.765,0,0,1,5.024-9.293q-1.543-1.614-3.05-3.247a48.2,48.2,0,0,0,5.5-1.828" transform="translate(-145.056 -81.457)" fill="#f2c4a5"/>
        <path id="Trazado_240459" data-name="Trazado 240459" d="M353.431,270.785c.6-1.417,1.287-2.843,2.055-4.277a49.467,49.467,0,0,0,7.606,1.547c5.109.635,11.174-2.435,14.829-4.688a124.284,124.284,0,0,0,29.148,8.811,5.359,5.359,0,0,1,4.216,3.928H356.962a3.832,3.832,0,0,1-3.531-5.32" transform="translate(-145.056 -86.695)" fill="#662dba"/>
        <path id="Trazado_240460" data-name="Trazado 240460" d="M314.95,164.263l5.6,3.675,94.323-44.974s37.624,51.448,54.6,69.824,22.574,22.049,22.574,22.049c11,5.3,25.038,8.3,39.959,10.625a4.479,4.479,0,0,1,3.789,4.425H474.616a2.82,2.82,0,0,1-2.7-3.671A23.463,23.463,0,0,1,477,218.337c-33.408-14.642-62.3-29.385-77-44.449,0,0-44.449,51.8-90.648,54.949s-47.424-24.675-47.424-24.675l2.1-15.4Z" transform="translate(-208.386 -40.477)" fill="#663cfe"/>
        <path id="Trazado_240461" data-name="Trazado 240461" d="M629.143,184.529l5.6,3.675,4.478-2.135c-1.49,7.895-5.69,25.853-15.2,41.2a207.835,207.835,0,0,1-15.362,21.714c-31.592-3.068-32.543-24.557-32.543-24.557l2.1-15.4Z" transform="translate(-522.579 -60.743)" fill="#6636e0"/>
        <path id="Trazado_240462" data-name="Trazado 240462" d="M645.047,206.181s.347,1.489,1.114,3.865" transform="translate(-575.757 -67.871)" fill="none" stroke="#31245c" stroke-linecap="round" stroke-linejoin="round" stroke-width="2"/>
        <path id="Trazado_240463" data-name="Trazado 240463" d="M470.686,210.494c4.86,10.952,14.606,25.766,31.621,25.1,21.732-.85,66.253-37.086,82.469-50.9" transform="translate(-397.407 -60.798)" fill="none" stroke="#31245c" stroke-linecap="round" stroke-linejoin="round" stroke-width="2" stroke-dasharray="12.009 12.009"/>
        <path id="Trazado_240464" data-name="Trazado 240464" d="M457.253,179.483c1.942-1.682,3.025-2.65,3.025-2.65s1.071,1.022,2.93,2.756" transform="translate(-266.828 -58.21)" fill="none" stroke="#31245c" stroke-linecap="round" stroke-linejoin="round" stroke-width="2"/>
        <path id="Trazado_240465" data-name="Trazado 240465" d="M363.355,188.571c9.938,9.047,26.558,23.622,38.5,31.237,8.527,5.438,14.742,9.13,18.932,11.515" transform="translate(-161.418 -62.074)" fill="none" stroke="#31245c" stroke-linecap="round" stroke-linejoin="round" stroke-width="2" stroke-dasharray="11.263 11.263"/>
        <path id="Trazado_240466" data-name="Trazado 240466" d="M353.127,255.048c2.426,1.325,3.562,1.868,3.562,1.868" transform="translate(-90.459 -83.957)" fill="none" stroke="#31245c" stroke-linecap="round" stroke-linejoin="round" stroke-width="2"/>
        <path id="Trazado_240467" data-name="Trazado 240467" d="M350,238.439a41.406,41.406,0,0,0,8.077-8.953c4.67,5.014,8.416,8.845,11.38,11.757l-10.72,9.794c-5.905-2.631-11.646-5.265-17.171-7.9A40.333,40.333,0,0,0,350,238.439" transform="translate(-95.48 -75.542)" fill="#31245c"/>
        <path id="Trazado_240468" data-name="Trazado 240468" d="M439.786,230.932c-21.627-10.574-39.517-21.233-50.078-32.056" transform="translate(-198.095 -65.466)" fill="none" stroke="#31245c" stroke-linecap="round" stroke-linejoin="round" stroke-width="2"/>
        <path id="Trazado_240469" data-name="Trazado 240469" d="M401.722,164.263l5.6,3.675,94.323-44.974s12.988,17.759,27.145,36.137" transform="translate(-295.158 -40.477)" fill="none" stroke="#31245c" stroke-linecap="round" stroke-linejoin="round" stroke-width="2"/>
        <path id="Trazado_240470" data-name="Trazado 240470" d="M266.891,251.249a53.337,53.337,0,0,0,7.5-7.039c8.494,8.515,11.573,10.539,11.573,10.539,11,5.3,25.038,8.3,39.959,10.625a4.479,4.479,0,0,1,3.789,4.425h-61.18a2.821,2.821,0,0,1-2.7-3.671,23.483,23.483,0,0,1,5.086-7.878q-4.555-2-8.991-4a26.485,26.485,0,0,0,4.966-3" transform="translate(-2.305 -80.389)" fill="#f2c4a5"/>
        <path id="Trazado_240471" data-name="Trazado 240471" d="M262.066,272.2a17.2,17.2,0,0,1,2.129-4.148,32.823,32.823,0,0,0,8.731.82c5.744-.264,11.137-4.262,13.44-6.21,10.282,4.178,22.7,6.742,35.795,8.786a4.48,4.48,0,0,1,3.789,4.425H264.77a2.821,2.821,0,0,1-2.7-3.671" transform="translate(1.46 -86.463)" fill="#662dba"/>
        <path id="Trazado_240472" data-name="Trazado 240472" d="M632.246,78.767c1.859,19.308,3.461,37.7,3.166,49.326a11.456,11.456,0,0,1-2.836,7.285,24.756,24.756,0,0,1-10.479,7.262l2.691,6.847c-10.96,23.574-25.613,46.5-52.005,57.4a40.087,40.087,0,0,1-8.259-22.291c-.757-13.122,5.25-48.955,11.374-70.48s12.6-40.6,29.925-43.574,26.424,8.225,26.424,8.225" transform="translate(-510.982 -23.056)" fill="#fecc6b"/>
        <path id="Trazado_240473" data-name="Trazado 240473" d="M606.973,219.661c13.928-11.289,25.521-31.62,28.916-37.918l1.774,4.516c-10.961,23.574-25.612,46.5-52.005,57.4a35.991,35.991,0,0,1-5.309-9.263,89.066,89.066,0,0,0,26.624-14.734" transform="translate(-523.858 -59.826)" fill="#5f9ed3"/>
        <path id="Trazado_240474" data-name="Trazado 240474" d="M564.673,107.27l36.869.774c1.051,12.318,1.759,23.41,1.619,31.478a46.322,46.322,0,0,1-20.244-7.243c-21.788-13.912-18.244-25.008-18.244-25.008" transform="translate(-478.714 -35.311)" fill="#febd55"/>
        <path id="Trazado_240475" data-name="Trazado 240475" d="M630.028,127.595l14.75-21.783,5.663,28.218s-5.328,12.206-14.449,18.506a28.226,28.226,0,0,1-12.485,4.386c1.883-10.35,4.181-20.814,6.521-29.328" transform="translate(-565.587 -34.831)" fill="#febd55"/>
        <path id="Trazado_240476" data-name="Trazado 240476" d="M537.557,55.123c9.866,4.843,15.837,20.037,9.8,31.849s-30.537,19.687-30.537,19.687-3.412-8.805-4.025-13.677-.127-5.429-.127-5.429l-12.21,8.256-2.8-21.215,12.162-4.246s8.487-24.675,27.737-15.225" transform="translate(-380.506 -17.436)" fill="#f2c4a5"/>
        <path id="Trazado_240477" data-name="Trazado 240477" d="M501.9,81.784l.715-.25c3.439,1.861,18.865,10.074,28.292,12.851a67.335,67.335,0,0,0,14.208,2.242c-6.255,11.672-30.4,19.436-30.4,19.436s-3.412-8.805-4.025-13.677-.126-5.43-.126-5.43l-9.083,6.142Z" transform="translate(-378.404 -26.839)" fill="#dbab8a"/>
        <path id="Trazado_240478" data-name="Trazado 240478" d="M509.572,85.694c5.775-21.189,23.449-30.434,43.574-34.985s42-29.224,57.049-25.024,13.3,18.144,13.3,18.144S608.97,60.509,596.72,67.334s-28.349-2.625-43.4,2.1-8.585,35.35-8.585,35.35a60.491,60.491,0,0,1-5.906,7.68c-2.184-6.052-2.98-15.156-3.358-25.179a162.517,162.517,0,0,0-1.729,30.065,26.636,26.636,0,0,1-6.717,4.128,63.333,63.333,0,0,1-1-18.847,47.724,47.724,0,0,0-1.988,19.74,13.267,13.267,0,0,1-2.738.264,32.55,32.55,0,0,1-6.248-.642,81.345,81.345,0,0,1,1.873-20.533,82.532,82.532,0,0,0-4.945,19.648c-4.209-1.606-5.2-3.9-5.2-3.9s-2.975-10.325,2.8-31.514" transform="translate(-459.881 -8.297)" fill="#31245c"/>
        <path id="Trazado_240479" data-name="Trazado 240479" d="M548.672,81.5s5-10.127-4.625-12.49-11.024,13.54-9.712,16.253,5.466,3.606,5.466,3.606Z" transform="translate(-405.018 -22.64)" fill="#f2c4a5"/>
        <path id="Trazado_240480" data-name="Trazado 240480" d="M542.4,72.844s2.559,3.811,1.772,7.319-1.772,4.51-1.772,4.51" transform="translate(-405.055 -23.979)" fill="none" stroke="#dbab8a" stroke-linecap="round" stroke-linejoin="round" stroke-width="2"/>
        <path id="Trazado_240481" data-name="Trazado 240481" d="M548,94.325s-4.153-.894-5.466-3.606a12.219,12.219,0,0,1-.274-5.381c2.869,1.481,6.571,3.335,10.41,5.108Z" transform="translate(-413.215 -28.092)" fill="#dbab8a"/>
        <path id="Trazado_240482" data-name="Trazado 240482" d="M454.021,97.546c4.069-12.053,39.9-4.572,60.505,1.86s17.062,5.25,17.062,5.25l-1.838-1.444,4.725-4.069s28.743,2.669,26.906,13.343-21.262,15.4-56.7,8.837-55.622-9.083-50.662-23.778" transform="translate(-362.418 -30)" fill="#f2c4a5"/>
        <path id="Trazado_240483" data-name="Trazado 240483" d="M541.94,91.141c7.784-.063,17.4,1.417,26.6,3.457.727,5.525,2.673,19.078,4.945,24.757.207.516.4,1,.588,1.472-12.268-2.254-22.591-4.056-30.532-6.121Z" transform="translate(-434.499 -30.001)" fill="#dbab8a"/>
        <path id="Trazado_240484" data-name="Trazado 240484" d="M477.1,109.192a52.411,52.411,0,0,1,9.5,2.848c3.281,1.59,5.774,3.1,5.774,3.1a24.569,24.569,0,0,0-6.037-6.365,37.232,37.232,0,0,0-7.594-3.533l-3.037,2.615Z" transform="translate(-308.376 -34.643)" fill="#dbab8a"/>
        <path id="Trazado_240485" data-name="Trazado 240485" d="M595.191,90.354l3.686,35.843s-52.105-7.482-50.137-27.168c2.479-24.786,46.451-8.675,46.451-8.675" transform="translate(-463.832 -28.049)" fill="#fecc6b"/>
        <path id="Trazado_240486" data-name="Trazado 240486" d="M548.841,115.069c-.278-7.227-.115-19.742-.036-24.592,3.1.9,5.056,1.611,5.056,1.611l3.686,35.843s-3.182-.458-7.94-1.442c-.322-3.71-.629-7.848-.766-11.421" transform="translate(-422.502 -29.783)" fill="#5f9ed3"/>
        <path id="Trazado_240487" data-name="Trazado 240487" d="M598.877,132.979s-52.105-7.481-50.136-27.168" transform="translate(-463.831 -34.831)" fill="none" stroke="#ffa031" stroke-linecap="round" stroke-linejoin="round" stroke-width="2"/>
        <path id="Trazado_240488" data-name="Trazado 240488" d="M494.969,64.71c-4.6,1.374-8.728,2.846-11.044,4.7-.092-.093-.184-.184-.277-.278L501.86,50.4s8.006-1.444,14.24,8.137,1.614,24.012-3.347,28.087-4.988,3.806-4.988,3.806c-1.906-1.4-3.808-2.876-5.705-4.413a23.021,23.021,0,0,0,6.1-7.715,30.775,30.775,0,0,1-7.967,6.172q-2.487-2.073-4.967-4.282a41.532,41.532,0,0,0,7.159-10.105,37.92,37.92,0,0,1-8.77,8.646q-4.326-3.944-8.631-8.272a54.537,54.537,0,0,1,9.986-5.756" transform="translate(-340.434 -16.567)" fill="#31245c"/>
      </g>
    </g>
  </g>
</svg>
