<svg xmlns="http://www.w3.org/2000/svg" xmlns:xlink="http://www.w3.org/1999/xlink" width="255.806" height="340.515" viewBox="0 0 255.806 340.515">
  <defs>
    <clipPath id="clip-path">
      <rect id="Rectángulo_217118" data-name="Rectángulo 217118" width="255.806" height="340.515" fill="none"/>
    </clipPath>
    <clipPath id="clip-path-3">
      <path id="Trazado_240810" data-name="Trazado 240810" d="M172.384,361.221a9.5,9.5,0,0,1,.563,3.562c-.187,1.5-1.557,2.643-1.125,3.938.375,1.124,2.457,1.415,5.124,1.249,2.529-.156,4.313-.812,4.687-1.937.537-1.61-1.375-3.062-1.562-4.374a30.35,30.35,0,0,1-.188-3.375Z" transform="translate(-171.738 -360.284)" fill="none"/>
    </clipPath>
    <linearGradient id="linear-gradient" x1="-14.378" y1="1.486" x2="-14.294" y2="1.486" gradientUnits="objectBoundingBox">
      <stop offset="0" stop-color="#ffb7a7"/>
      <stop offset="1" stop-color="#ff9595"/>
    </linearGradient>
    <clipPath id="clip-path-4">
      <path id="Trazado_240811" data-name="Trazado 240811" d="M126.362,359.316s.375,3-.749,4.312-9.765,4.04-9.765,4.04c.233,2.937,17.826,2.959,18.951-2.915a42.026,42.026,0,0,1,2.25-6.75Z" transform="translate(-115.848 -358.003)" fill="none"/>
    </clipPath>
    <linearGradient id="linear-gradient-2" x1="-4.942" y1="1.323" x2="-4.9" y2="1.323" xlink:href="#linear-gradient"/>
    <clipPath id="clip-path-6">
      <path id="Trazado_240820" data-name="Trazado 240820" d="M143.431,170.139c-8.249,2.5-19.241,5.815-29.34,7.438-9.843,3.562-17.6,2.44-17.475,4.439.073,1.181,3.067.937,5.534.694,1.71-.168,3.168-.337,3.22-.031.06.353-1.983.6-4.447.877-2.774.311-4.792.406-4.61,1.644.174,1.188,3.141.942,5.73.695,2.04-.194,3.845-.389,3.863.118.031.876-6.968.625-6.879,1.727.169,2.111,9.535.336,18.56-.608,9.687-1.014,13.972.006,29.72-2.993s25.122-5.75,35.372-10.374l3.25-22.623c-4.75,4.25-34.246,16.5-42.5,19" transform="translate(-96.299 -151.141)" fill="none"/>
    </clipPath>
    <linearGradient id="linear-gradient-3" x1="-0.868" y1="3.638" x2="-0.858" y2="3.638" xlink:href="#linear-gradient"/>
    <clipPath id="clip-path-8">
      <path id="Trazado_240824" data-name="Trazado 240824" d="M208.389,129.609c2.4,5.9-5.646,10.943-12.641,17.648,0,0,6.6,10.894,20.174,9.736s22.528-17.124,22.528-17.124c-8.339-4.8-15.891-6.194-18.1-11.93-1.824-4.727-1.433-9.964-.375-14.981,0,0-10.18,9.862-11.582,16.651" transform="translate(-195.748 -112.958)" fill="none"/>
    </clipPath>
    <linearGradient id="linear-gradient-4" x1="-3.777" y1="4.934" x2="-3.757" y2="4.934" xlink:href="#linear-gradient"/>
    <clipPath id="clip-path-10">
      <path id="Trazado_240826" data-name="Trazado 240826" d="M184.6,91.673c.024,27.35,13.683,36.689,17.781,36.43,6.2-.391,16.368-6.036,20.057-19.861a7.57,7.57,0,0,0,7.514-6.322c.678-3.4-.851-7.286-4.939-6.7-2.36.234-3.6,4.693-3.6,4.693-4.125,0-4.875-6.374-4.875-6.374-19.769-2.417-24.189-15.55-24.189-15.55A16.857,16.857,0,0,0,184.6,91.673" transform="translate(-184.602 -77.985)" fill="none"/>
    </clipPath>
    <linearGradient id="linear-gradient-5" x1="-3.223" y1="4.979" x2="-3.205" y2="4.979" gradientUnits="objectBoundingBox">
      <stop offset="0" stop-color="#ffb7a7"/>
      <stop offset="0.384" stop-color="#ffb7a7"/>
      <stop offset="0.553" stop-color="#f0aead"/>
      <stop offset="1" stop-color="#ce9bbe"/>
    </linearGradient>
    <clipPath id="clip-path-12">
      <rect id="Rectángulo_217094" data-name="Rectángulo 217094" width="12.235" height="2.334" fill="none"/>
    </clipPath>
    <clipPath id="clip-path-13">
      <path id="Trazado_240841" data-name="Trazado 240841" d="M229.657,201.282a237.609,237.609,0,0,0,6.749,51.368h20.623s.75-3.562-12.749-7.125c0,0,.375-19.122,1.5-42.37s9.749-55.493-2.625-56.993a5.423,5.423,0,0,0-.658-.041c-9.967,0-13.208,28.367-12.841,55.16" transform="translate(-229.629 -146.122)" fill="none"/>
    </clipPath>
    <linearGradient id="linear-gradient-6" x1="-7.278" y1="1.956" x2="-7.247" y2="1.956" xlink:href="#linear-gradient"/>
    <clipPath id="clip-path-15">
      <path id="Trazado_240854" data-name="Trazado 240854" d="M141.086,129.815c-1.385,2.025-19.13,17.068-23.817,16.131-3.611-.722-6.109-15.161-6.109-15.161l-16.576,4.6s6.674,25.778,20.748,26.5c17.123.875,29.681-25.491,30.274-26.26s5.308-.288,6.964-1.371c.837-.548,3.7-5.873,3.133-7.931s-8.006-3.1-8.006-3.1l1.192-2.917c-6.8,1.137-6.42,7.483-7.8,9.507" transform="translate(-94.585 -120.308)" fill="none"/>
    </clipPath>
    <linearGradient id="linear-gradient-7" x1="-1.387" y1="5.458" x2="-1.372" y2="5.458" xlink:href="#linear-gradient"/>
    <clipPath id="clip-path-17">
      <path id="Trazado_240869" data-name="Trazado 240869" d="M87.71,63.564c-4,4.67-11.581,3.467-21.045,5.215,0,0,5.516,12.386,17.928,18s19.872,3.194,19.872,3.194C100.1,81.321,94.2,73.883,98.427,69.123c.94-6.868-5.37-19.559-5.37-19.559-.677,5.082-2.052,10.15-5.347,14" transform="translate(-66.665 -49.564)" fill="none"/>
    </clipPath>
    <linearGradient id="linear-gradient-8" x1="-0.95" y1="5.764" x2="-0.934" y2="5.764" xlink:href="#linear-gradient"/>
    <clipPath id="clip-path-19">
      <path id="Trazado_240871" data-name="Trazado 240871" d="M101.5,32.191s-3.367,8.1-6.214,5.411c0,0,.9-4.862-1.245-5.868-3.66-1.909-6.4,1.245-6.891,4.675a7.57,7.57,0,0,0,4.977,8.465C91,59.138,98.7,67.847,104.422,70.283c3.779,1.609,19.768-2.644,28.9-28.423a16.854,16.854,0,0,0-2.75-15.488S120.946,36.5,101.5,32.191" transform="translate(-87.065 -26.371)" fill="none"/>
    </clipPath>
    <linearGradient id="linear-gradient-9" x1="-1.33" y1="5.446" x2="-1.314" y2="5.446" xlink:href="#linear-gradient"/>
    <clipPath id="clip-path-21">
      <rect id="Rectángulo_217103" data-name="Rectángulo 217103" width="11.091" height="5.362" fill="none"/>
    </clipPath>
    <clipPath id="clip-path-22">
      <path id="Trazado_240896" data-name="Trazado 240896" d="M51.948,124.27s8.943,20.205,22.628,32.767a94.146,94.146,0,0,0,29.246,18.123c1.625.75,1.875,2.75,3.625,6.375,2.013,4.17,2.927,4.67,4.124,4.5,1.749-.25-.312-2.687.156-2.969.232-.138.562.737,1.081,1.614.534.9,1.265,1.794,2.3,1.6,2-.374-.563-3.526-.095-3.682.213-.071.633.76,1.192,1.59.668.991,1.534,1.983,2.487,1.438,2.059-1.176-1.516-3.636-2.818-7.458-1.236-3.632-.735-4.761-.735-4.761l4.345-1.022c-1.908-3.472-8.533-2.1-8.533-2.1A241.514,241.514,0,0,1,86.2,147.038c-12-13.124-17.754-29.7-17.754-29.7Z" transform="translate(-51.948 -117.334)" fill="none"/>
    </clipPath>
    <linearGradient id="linear-gradient-10" x1="-0.683" y1="3.39" x2="-0.67" y2="3.39" xlink:href="#linear-gradient"/>
    <clipPath id="clip-path-24">
      <path id="Trazado_240909" data-name="Trazado 240909" d="M149.015,122.85c-1.656,1.974-1.874,4.687-2.749,6.5,3.25,1.5,5.186-1.688,4.917-4.094.374-1.125,3.568-3.688,2.334-5.171a.48.48,0,0,0-.39-.158c-1.006,0-3.186,1.822-4.112,2.923" transform="translate(-146.266 -119.927)" fill="none"/>
    </clipPath>
    <linearGradient id="linear-gradient-11" x1="-15.592" y1="21.242" x2="-15.485" y2="21.242" xlink:href="#linear-gradient"/>
  </defs>
  <g id="Grupo_174511" data-name="Grupo 174511" clip-path="url(#clip-path)">
    <g id="Grupo_174462" data-name="Grupo 174462">
      <g id="Grupo_174461" data-name="Grupo 174461" clip-path="url(#clip-path)">
        <path id="Trazado_240805" data-name="Trazado 240805" d="M176.844,75.041c-4.954,6.852-7.358,16.932-4.162,25.005,3.589,9.066,13.053,14.59,18.057,22.842a.477.477,0,0,0,.823-.482c-2.761-6.069-7.817-9.923-12.243-14.746-9.034-9.842-7.93-21.152-2-32.339a.278.278,0,0,0-.48-.28" transform="translate(-16.356 -7.156)" fill="#b97953"/>
        <rect id="Rectángulo_217083" data-name="Rectángulo 217083" width="104.612" height="97.738" transform="translate(145.481 238.443)" fill="#d4def1"/>
        <path id="Trazado_240806" data-name="Trazado 240806" d="M245.1,263.624H160.845v47.147c5.034,24.426,9,39.842,9,39.842a9.621,9.621,0,0,0,6.092,2.556,7.16,7.16,0,0,1,.22,2.381,3.551,3.551,0,0,1-.229.857c-.012.033-.028.066-.041.1-.1.248-.223.488-.341.723-.809,1.441-2.229,2.8-2.338,4.132h12.731a8.885,8.885,0,0,0-1.827-5.222,4.936,4.936,0,0,1-.83-1.714,24.59,24.59,0,0,1-.175-2.571,25.064,25.064,0,0,0,2.988-1.491s2.75-25.747.75-49.994-7-36.5-7-36.5h64.993s.093-.084.26-.25" transform="translate(-15.364 -25.181)" fill="#a5adbc"/>
        <path id="Trazado_240807" data-name="Trazado 240807" d="M264.4,281.122H161.034a4.749,4.749,0,0,1-4.749-4.749v-8a4.749,4.749,0,0,1,4.749-4.749H264.4a4.75,4.75,0,0,1,4.749,4.749v8a4.749,4.749,0,0,1-4.749,4.749" transform="translate(-14.928 -25.181)" fill="#626376"/>
        <rect id="Rectángulo_217084" data-name="Rectángulo 217084" width="104.612" height="7.499" transform="translate(145.481 255.941)" fill="#a5adbc"/>
        <path id="Trazado_240808" data-name="Trazado 240808" d="M172.527,366.135c-.611,1.767-2.627,3.408-2.721,5-.081,1.375-.28,3.516,6.015,3.516,4.815,0,6.339-1.422,6.641-2.937.609-3.063-2.059-6.258-2.059-6.258Z" transform="translate(-16.217 -34.908)" fill="#363344"/>
        <path id="Trazado_240809" data-name="Trazado 240809" d="M133.62,366.019c-.375,2.374.875,5.374-.125,7.125s-27.255,2.453-27.371-.671c-.079-2.094,10.5-4.454,10.5-4.454Z" transform="translate(-10.137 -34.961)" fill="#363344"/>
      </g>
    </g>
    <g id="Grupo_174464" data-name="Grupo 174464" transform="translate(155.334 325.87)">
      <g id="Grupo_174463" data-name="Grupo 174463" clip-path="url(#clip-path-3)">
        <rect id="Rectángulo_217086" data-name="Rectángulo 217086" width="10.78" height="9.852" transform="translate(-0.348)" fill="url(#linear-gradient)"/>
      </g>
    </g>
    <g id="Grupo_174466" data-name="Grupo 174466" transform="translate(104.782 323.807)">
      <g id="Grupo_174465" data-name="Grupo 174465" clip-path="url(#clip-path-4)">
        <rect id="Rectángulo_217087" data-name="Rectángulo 217087" width="21.201" height="12.625" transform="translate(0 0)" fill="url(#linear-gradient-2)"/>
      </g>
    </g>
    <g id="Grupo_174468" data-name="Grupo 174468">
      <g id="Grupo_174467" data-name="Grupo 174467" clip-path="url(#clip-path)">
        <path id="Trazado_240812" data-name="Trazado 240812" d="M190.868,222.445S143.249,232.569,138,241.568s-8.249,33.746-10.874,53.994-5.25,48.744-5.25,48.744,6.749,6.749,17.248,1.875c0,0,11.624-27.372,13.124-50.244s6-37.5,6-37.5l38.245-30.372Z" transform="translate(-11.641 -21.248)" fill="#e7c9ce"/>
        <path id="Trazado_240813" data-name="Trazado 240813" d="M191.791,222.445s-47.619,10.124-52.869,19.123a30.734,30.734,0,0,0-2.405,5.6c4.53,10.275,9.029,25.647,9.4,54.895.255,19.921-9.424,38.747-14.38,45.854a17.3,17.3,0,0,0,8.506-1.735s11.624-27.371,13.124-50.244,6-37.5,6-37.5l38.245-30.372Z" transform="translate(-12.565 -21.248)" fill="#d7b5bb"/>
        <path id="Trazado_240814" data-name="Trazado 240814" d="M195.586,226.079s-43.745,8.5-48.744,15,1.75,33.746,7.249,60.993,10,44.746,10,44.746,5.5,6,16.249-.251c0,0,2.75-25.747.75-49.994s-7-36.5-7-36.5H239.08a37.044,37.044,0,0,0,10.749-26.246c-.25-16.248-54.244-7.75-54.244-7.75" transform="translate(-13.859 -21.383)" fill="#f9e5e8"/>
        <path id="Trazado_240815" data-name="Trazado 240815" d="M198.03,226.079s-.746.145-2.052.412c4.008,13.985,33.3,15.087,33.3,15.087l1.5,12s-58.742-1-59.992,1.25,9.749,20.748,10.749,43.245c.862,19.407-3.3,44.392-4.456,50.892a21.858,21.858,0,0,0,5.706-2.4s2.75-25.747.75-49.994-7-36.5-7-36.5h64.992a37.041,37.041,0,0,0,10.749-26.247c-.25-16.247-54.244-7.749-54.244-7.749" transform="translate(-16.303 -21.383)" fill="#e7c9ce"/>
        <path id="Trazado_240816" data-name="Trazado 240816" d="M188.782,66.089S172.868,64.3,173.83,90.27c.5,13.5,10.749,18,16,32.247,3.17,8.6,0,20.061,6.375,28.5s24,5.062,24,5.062,24,9.749,40.495-3.75,6.749-34.121,6.749-34.121,6.374-6,1.312-17.436-13.4-6.488-21.27-11.55S232.947,55.587,207.45,55.587c-15.564,0-18.669,10.5-18.669,10.5" transform="translate(-16.6 -5.31)" fill="#b97953"/>
        <path id="Trazado_240817" data-name="Trazado 240817" d="M192.205,123.1c1.875,8.249,10.874,11.061,10.686,13.123s-6.95,7.618-9.121,9.038a31.437,31.437,0,0,0,1.4,6.695c4.821-2.227,15.224-7.483,15.224-7.483l1.687-16.873s-21.254-10.577-19.872-4.5" transform="translate(-18.353 -11.578)" fill="#985d3f"/>
        <path id="Trazado_240818" data-name="Trazado 240818" d="M191.91,77.986s-11.182,1.8-11.932,16.049c-.849,16.134,9.69,19,11.686,26.372,8.82-10.148,5.25-25.958.246-42.421" transform="translate(-17.187 -7.449)" fill="#985d3f"/>
        <path id="Trazado_240819" data-name="Trazado 240819" d="M249.11,139.967c-7.124-12.936-23.622-7.874-26.622-15.373-2.8-6.991,2.438-14.248,2.438-14.248s4.5-.187,6.936-7.312a7.249,7.249,0,0,0-4.125-9.561,8.8,8.8,0,0,0,5.25-6.749S229.612,91.6,216.3,89.911s-23.127-11.925-23.127-11.925l33.314,81.66c5.408,1.471,15,3.217,24.431.7,1.058-.282,2.277-12.956-1.81-20.378" transform="translate(-18.452 -7.449)" fill="#985d3f"/>
      </g>
    </g>
    <g id="Grupo_174470" data-name="Grupo 174470" transform="translate(87.101 136.704)">
      <g id="Grupo_174469" data-name="Grupo 174469" clip-path="url(#clip-path-6)">
        <rect id="Rectángulo_217089" data-name="Rectángulo 217089" width="96.389" height="58.776" transform="translate(-9.034 2.149) rotate(-13.627)" fill="url(#linear-gradient-3)"/>
      </g>
    </g>
    <g id="Grupo_174472" data-name="Grupo 174472">
      <g id="Grupo_174471" data-name="Grupo 174471" clip-path="url(#clip-path)">
        <path id="Trazado_240821" data-name="Trazado 240821" d="M162.1,164.343c-3.535,1.487-7,2.888-10.047,4.067-1.961,5.49,2.039,12.615,2.039,12.615s-3.874,1.749-12.873,3-16.844,1.988-18.123-.25a10.478,10.478,0,0,1-1.624-6.124l-2.125.374-5.75,9.5s-12.143,1.935-14.038,1.6c-.149-.026-.234-.067-.246-.123.169,2.11,9.536.336,18.56-.608,9.688-1.013,13.972.006,29.72-2.994,6.519-1.241,11.944-2.44,16.792-3.746Z" transform="translate(-9.486 -15.698)" fill="#d27a84"/>
        <path id="Trazado_240822" data-name="Trazado 240822" d="M159.986,164.981c-1.5,4.687,3.375,17.81,7.5,18.373,3.244.442,22.873-6.187,24-8.062s-2.813-9.749-3.937-13.873,0-8.062-1.875-8.624-9.561,4.124-13.5,6.187-11.444,3.679-12.186,6" transform="translate(-15.255 -14.59)" fill="#363344"/>
        <path id="Trazado_240823" data-name="Trazado 240823" d="M195.578,148.9c-1.194-1.047-2.358,1.584-2.358,1.584-3.836-1.881-3.667,2.328-3.667,2.328s-1.1,12.961,6.837,19.461Z" transform="translate(-18.101 -14.2)" fill="#6b80af"/>
      </g>
    </g>
    <g id="Grupo_174474" data-name="Grupo 174474" transform="translate(177.051 102.168)">
      <g id="Grupo_174473" data-name="Grupo 174473" clip-path="url(#clip-path-8)">
        <rect id="Rectángulo_217091" data-name="Rectángulo 217091" width="46.389" height="48.659" transform="translate(-3.827 0.327) rotate(-4.876)" fill="url(#linear-gradient-4)"/>
      </g>
    </g>
    <g id="Grupo_174476" data-name="Grupo 174476">
      <g id="Grupo_174475" data-name="Grupo 174475" clip-path="url(#clip-path)">
        <path id="Trazado_240825" data-name="Trazado 240825" d="M221.858,127.939c-2.063-6.612.925-8.879,2.344-15.242,0,0-14.888,8.508-16.29,15.3,1.366,1.34,1.922,5.478.2,8.467,5.968,8.259,22.354,9.281,30.433,2.6-7.119-4.353-14.948-5.535-16.691-11.121" transform="translate(-19.859 -10.765)" fill="#d27a84"/>
      </g>
    </g>
    <g id="Grupo_174478" data-name="Grupo 174478" transform="translate(166.969 70.536)">
      <g id="Grupo_174477" data-name="Grupo 174477" clip-path="url(#clip-path-10)">
        <rect id="Rectángulo_217093" data-name="Rectángulo 217093" width="50.995" height="54.654" transform="translate(-5.161 0.48) rotate(-5.599)" fill="url(#linear-gradient-5)"/>
      </g>
    </g>
    <g id="Grupo_174483" data-name="Grupo 174483">
      <g id="Grupo_174482" data-name="Grupo 174482" clip-path="url(#clip-path)">
        <path id="Trazado_240827" data-name="Trazado 240827" d="M231.841,104.137c-.343,1.643-1.631,2.764-2.877,2.5s-1.98-1.8-1.637-3.446,1.631-2.764,2.877-2.5,1.98,1.8,1.637,3.446" transform="translate(-21.706 -9.614)" fill="#d27a84"/>
        <path id="Trazado_240828" data-name="Trazado 240828" d="M198.4,103.814a9.244,9.244,0,0,0-2.5-7.7A8.287,8.287,0,0,1,198.9,99.5a8.189,8.189,0,0,1,.921,4.406,11.194,11.194,0,0,1-4.166,7.224,8.894,8.894,0,0,0,4.562,2.486c-3.15.159-5.133-.946-7.377-2.551,2.788-1.834,5.153-4.154,5.563-7.25" transform="translate(-18.419 -9.18)" fill="#d27a84"/>
        <path id="Trazado_240829" data-name="Trazado 240829" d="M202.259,93.395c-.231,1.217,3.252,1.97,6.658,2.069,2.855.084,5.927-.4,5.9-.885-.029-.554-2.731-.555-5.451-1.02-3.455-.59-6.894-1.294-7.108-.165" transform="translate(-19.318 -8.864)" fill="#985d3f"/>
        <path id="Trazado_240830" data-name="Trazado 240830" d="M191.691,95.293c.509,1.107-1.541,2.666-3.734,3.584-1.838.77-3.985,1.053-4.113.579-.145-.536,1.619-1.19,3.256-2.29,2.081-1.4,4.117-2.9,4.59-1.872" transform="translate(-17.56 -9.07)" fill="#985d3f"/>
        <path id="Trazado_240831" data-name="Trazado 240831" d="M207.925,120.228a32.518,32.518,0,0,0-7.242-.54,14.248,14.248,0,0,0-4.993,1.878,5.744,5.744,0,0,0,5.806,2.872c4.089-.516,6.429-4.209,6.429-4.209" transform="translate(-18.692 -11.426)" fill="#d87b7c"/>
        <g id="Grupo_174481" data-name="Grupo 174481" transform="translate(176.998 108.135)" opacity="0.3" style="mix-blend-mode: multiply;isolation: isolate">
          <g id="Grupo_174480" data-name="Grupo 174480">
            <g id="Grupo_174479" data-name="Grupo 174479" clip-path="url(#clip-path-12)">
              <path id="Trazado_240832" data-name="Trazado 240832" d="M201.159,121.77a17.768,17.768,0,0,1-5.451-.178l-.018-.033a11.637,11.637,0,0,1,5.2-1.9,22.163,22.163,0,0,1,7.032.568,42.716,42.716,0,0,1-6.766,1.548" transform="translate(-195.69 -119.555)" fill="#80689c"/>
            </g>
          </g>
        </g>
        <path id="Trazado_240833" data-name="Trazado 240833" d="M213.786,99.923a18.146,18.146,0,0,1-1.351,1.243,7.882,7.882,0,0,1-3.178,1.71,3.881,3.881,0,0,1-.431.092,4.023,4.023,0,0,1-.514.044,3.709,3.709,0,0,1-.813-.071,3.532,3.532,0,0,1-1.454-.668,6.574,6.574,0,0,1-1.273-1.264,3.463,3.463,0,0,0,.655,1.839A3.8,3.8,0,0,0,207.1,104.2a3.615,3.615,0,0,0,1.274.258,5.121,5.121,0,0,0,.575-.021,4.564,4.564,0,0,0,.651-.1,5.717,5.717,0,0,0,3.476-2.626,5.078,5.078,0,0,0,.71-1.787" transform="translate(-19.559 -9.544)" fill="#4e3a5e"/>
        <path id="Trazado_240834" data-name="Trazado 240834" d="M212.8,102.6s1.829.8,1.937.623-1.416-1.282-1.416-1.282Z" transform="translate(-20.327 -9.737)" fill="#4e3a5e"/>
        <path id="Trazado_240835" data-name="Trazado 240835" d="M213.523,101.688a10.58,10.58,0,0,0,2.124.189,9.4,9.4,0,0,0-1.783-.963Z" transform="translate(-20.395 -9.639)" fill="#4e3a5e"/>
        <path id="Trazado_240836" data-name="Trazado 240836" d="M186.723,103.993a2.655,2.655,0,0,0,.391,1.665,2.917,2.917,0,0,0,1.462,1.253,3.17,3.17,0,0,0,1.1.2,3.525,3.525,0,0,0,.582-.038,3.316,3.316,0,0,0,.5-.094,4.92,4.92,0,0,0,2.924-2.488,4.658,4.658,0,0,0,.537-1.582l-1.2,1.056a9.751,9.751,0,0,1-1.217.9,5.2,5.2,0,0,1-1.383.654,2.791,2.791,0,0,1-2.665-.4,4.837,4.837,0,0,1-1.037-1.129" transform="translate(-17.834 -9.83)" fill="#4e3a5e"/>
        <path id="Trazado_240837" data-name="Trazado 240837" d="M188.188,106.851s-1.8.842-1.914.666,1.367-1.312,1.367-1.312Z" transform="translate(-17.792 -10.144)" fill="#4e3a5e"/>
        <path id="Trazado_240838" data-name="Trazado 240838" d="M187.414,105.954a10.456,10.456,0,0,1-2.116.236,9.266,9.266,0,0,1,1.746-1Z" transform="translate(-17.699 -10.048)" fill="#4e3a5e"/>
        <path id="Trazado_240839" data-name="Trazado 240839" d="M202.28,143.482l-7.248,5.1s-5.847,26.643-3.6,31.893,6.027,5.554,11.276,10.429-2.249,13.124-5.25,24.623c0,0,1.75,9.749,22.5,12.749s34.245-2.5,34.245-2.5c1.5-10.749-3.4-18.025-4.5-36-1.75-28.5,2.249-42.5-15.686-50.244,0,0-11.311,18.747-25.559,16.5-10.738-1.7-6.182-12.55-6.182-12.55" transform="translate(-18.236 -13.328)" fill="#8a9ecb"/>
        <path id="Trazado_240840" data-name="Trazado 240840" d="M249.731,191.422c-.941-15.323-.22-26.452-2.14-34.674,0,0-10.108,29.175-40.6,29.925-11.02.27-14.7-4.074-15.813-5.542a5,5,0,0,0,.287.987c2.25,5.249,6.027,5.554,11.277,10.429s-2.25,13.124-5.25,24.623c0,0,1.749,9.749,22.5,12.749s34.246-2.5,34.246-2.5c1.5-10.749-3.4-18.025-4.5-36" transform="translate(-18.26 -14.972)" fill="#6b80af"/>
      </g>
    </g>
    <g id="Grupo_174485" data-name="Grupo 174485" transform="translate(207.696 132.165)">
      <g id="Grupo_174484" data-name="Grupo 174484" clip-path="url(#clip-path-13)">
        <rect id="Rectángulo_217096" data-name="Rectángulo 217096" width="28.489" height="106.53" transform="translate(-0.34 -0.002)" fill="url(#linear-gradient-6)"/>
      </g>
    </g>
    <g id="Grupo_174487" data-name="Grupo 174487">
      <g id="Grupo_174486" data-name="Grupo 174486" clip-path="url(#clip-path)">
        <path id="Trazado_240842" data-name="Trazado 240842" d="M188.241,67.387c4.126-16.1,31.755-17.574,36.793-1.473a.443.443,0,0,0,.854-.236c-2.452-18.065-36.976-15.487-38.376,1.611-.034.421.627.5.729.1" transform="translate(-17.911 -5.086)" fill="#b97953"/>
        <path id="Trazado_240843" data-name="Trazado 240843" d="M243.981,79.77a22.13,22.13,0,0,0,8.2,7.977c3.992,2.435,17.25,5.657,15.789,12.248a.583.583,0,0,0,1.122.309c1.724-4.588-2.313-7.2-6-8.842-7.211-3.2-13.65-5.479-18.548-12.021a.325.325,0,0,0-.561.328" transform="translate(-23.3 -7.574)" fill="#b97953"/>
        <path id="Trazado_240844" data-name="Trazado 240844" d="M278.015,119.79c1.138,3.885,2.939,7.205,3.121,11.351.2,4.632-1.3,8.626-3.281,12.736a.384.384,0,0,0,.663.388c5.409-7.07,4.776-17.48,0-24.687a.276.276,0,0,0-.5.212" transform="translate(-26.536 -11.41)" fill="#b97953"/>
        <path id="Trazado_240845" data-name="Trazado 240845" d="M167.274,103.793l-.189-.375.083-.042.189.375Z" transform="translate(-15.96 -9.874)" fill="#b97953"/>
        <path id="Trazado_240846" data-name="Trazado 240846" d="M244.339,248.152s.374-19.123,1.5-42.37c.467-9.646,2.224-20.841,3.238-30.746l-17.958-1.428c-.37,2.967-.662,6.1-.884,9.326a49.046,49.046,0,0,0,13.229,1.851c-2.928,31.649-2.213,61.8-1.312,64.8.563,1.875,7.312,3.187,7.312,5.687h7.624s.75-3.563-12.749-7.125" transform="translate(-21.992 -16.583)" fill="#d27a84"/>
        <path id="Trazado_240847" data-name="Trazado 240847" d="M228.831,174.091s11.624,4.5,21.373,1.5c0,0,4.874-22.5-4.125-30s-16.122,15-17.248,28.5" transform="translate(-21.858 -13.764)" fill="#8a9ecb"/>
        <path id="Trazado_240848" data-name="Trazado 240848" d="M186.627,170.47c1.027-1.523-1.7-7.92-2.365-11.27-.488-2.452,0-4.82-.291-6.094-3.106,1.032-8.611,4.285-11.751,5.91-3.092,1.6-7.92,2.9-10.484,4.5-.484,4.539,1.954,13.1,4.912,13.5,2.609.36,18.953-5.025,19.979-6.548" transform="translate(-15.443 -14.624)" fill="#474557"/>
        <path id="Trazado_240849" data-name="Trazado 240849" d="M84.358,25.516c-2.155-2.6-6.441-2.368-8.983-.492-2.157,1.593-4.063,5.242-1.617,7.426.48.428,1.188-.27.71-.71-2.254-2.072.175-5.383,2.247-6.476,2.626-1.386,4.919-.587,7.445.511a.165.165,0,0,0,.2-.259" transform="translate(-6.936 -2.253)" fill="#80545a"/>
        <path id="Trazado_240850" data-name="Trazado 240850" d="M70.984,45.814c-.517,5.6,3.222,9.745,8.219,11.754,3.646,1.465,11.051,2.53,12.591-2.45a.417.417,0,0,0-.691-.4c-7.08,6.33-19.482.716-19.5-8.9a.308.308,0,0,0-.616,0" transform="translate(-6.776 -4.348)" fill="#80545a"/>
        <path id="Trazado_240851" data-name="Trazado 240851" d="M136.309,13.625c7.074,2.294,11.068,8.954,10.86,16.25-.239,8.405-5.774,14.4-13.865,16.263-.581.134-.469,1.122.145,1.061,17.332-1.747,20.808-30.674,3.1-34.435a.447.447,0,0,0-.237.862" transform="translate(-12.697 -1.218)" fill="#926466"/>
        <path id="Trazado_240852" data-name="Trazado 240852" d="M84.487,228.584l1.448-.142-1.214-11.681L71.877,218.08l-.011-.1-10.053,1.138,1.279,11.566,1.83-.179,1.946,13.8a5.741,5.741,0,0,0,.936,2.726,5.809,5.809,0,0,0,.712.874c.066.066.134.131.2.194q.208.19.432.359a5.731,5.731,0,0,0,4.07,1.119l7.232-.778a5.7,5.7,0,0,0,5.206-6.156Z" transform="translate(-5.904 -20.705)" fill="#626376"/>
        <path id="Trazado_240853" data-name="Trazado 240853" d="M110.228,87.444a.75.75,0,0,1-.27-1.451c19.293-7.391,15.871-43.108,15.835-43.467a.75.75,0,0,1,.668-.822.722.722,0,0,1,.822.668c.157,1.516,3.576,37.219-16.786,45.022a.786.786,0,0,1-.27.049" transform="translate(-10.457 -3.983)" fill="#d4def1"/>
      </g>
    </g>
    <g id="Grupo_174489" data-name="Grupo 174489" transform="translate(85.55 108.816)">
      <g id="Grupo_174488" data-name="Grupo 174488" clip-path="url(#clip-path-15)">
        <rect id="Rectángulo_217098" data-name="Rectángulo 217098" width="61.689" height="42.449" transform="translate(0 0)" fill="url(#linear-gradient-7)"/>
      </g>
    </g>
    <g id="Grupo_174491" data-name="Grupo 174491">
      <g id="Grupo_174490" data-name="Grupo 174490" clip-path="url(#clip-path)">
        <path id="Trazado_240855" data-name="Trazado 240855" d="M145.637,136.7s-16.556,26.416-30.992,24.541c-8.9-1.155-12.749-20.809-12.749-20.809A40.984,40.984,0,0,0,112.29,137.1c-.723-2.853-1.13-5.2-1.13-5.2l-16.576,4.6s6.674,25.778,20.747,26.5c17.124.875,29.681-25.491,30.275-26.26a.324.324,0,0,1,.03-.032" transform="translate(-9.035 -12.598)" fill="#d27a84"/>
        <path id="Trazado_240856" data-name="Trazado 240856" d="M86.641,135.568,113.114,119.7s-2.75-19.247-6.975-26.84c-10.354,5.148-26,34.645-19.5,42.7" transform="translate(-8.129 -8.87)" fill="#474557"/>
        <path id="Trazado_240857" data-name="Trazado 240857" d="M80.754,129.359c11-3.11,22.055-5.51,33.07-7.826l1.777,8.556a129.177,129.177,0,0,1-32.482,7.749Z" transform="translate(-7.713 -11.609)" fill="#a5adbc"/>
        <path id="Trazado_240858" data-name="Trazado 240858" d="M22.8,363.139c-.563,3.75,3.187,6.375,3,9.561s-16.311,3.187-16.686-.187,6-5.25,6.188-9,7.5-.375,7.5-.375" transform="translate(-0.869 -34.553)" fill="#363344"/>
        <path id="Trazado_240859" data-name="Trazado 240859" d="M68.813,362.58c.106,3.75-2.322,6.621-1.317,9.746,1.157,3.6,25.728,3.125,26.478.5,1.25-4.375-14.817-4.73-16.61-8.346-.933-1.879.294-4.4.294-4.4Z" transform="translate(-6.424 -34.394)" fill="#363344"/>
        <path id="Trazado_240860" data-name="Trazado 240860" d="M76.279,169.5a39.613,39.613,0,0,0-1.159,8.877c0,8.936,6.81,77.182,7.5,83.24,1.875,16.5,2.25,63.367.751,70.492s-4.5,12.749-13.5,13.5-11.473-7.97-12.749-13.5C54.872,322.364,54.5,275.495,53,265s-12.374-63.742-12.374-63.742l8.624-31.872Z" transform="translate(-3.88 -16.179)" fill="#474557"/>
        <path id="Trazado_240861" data-name="Trazado 240861" d="M49.558,168.781l-2.75,25.747-6,3.749s-3.75,50.37-4.124,68.742-2.249,54.368-4.124,63.742-7.124,13.123-13.5,13.5S6.688,338.636,6.313,329.637s1.5-52.869,1.125-66.367-5.556-53.218-3.75-76.491c.959-12.342,9.561-31.309,10.832-31.537,2.666.042,35.038,13.54,35.038,13.54" transform="translate(-0.316 -14.828)" fill="#626376"/>
        <path id="Trazado_240862" data-name="Trazado 240862" d="M9.313,335.078c-2-14.5,2.593-54.223,2-70.242-.5-13.5-6.4-50.8-7.885-69.643-.91,23.59,3.66,59.248,4.01,71.894.375,13.5-1.5,57.368-1.124,66.367.284,6.823,3.8,11.92,8.263,13.823-2.253-1.934-4.262-4.933-5.264-12.2" transform="translate(-0.316 -18.644)" fill="#474557"/>
        <path id="Trazado_240863" data-name="Trazado 240863" d="M73.9,167.419c-18.789,5.433-45.573-.126-58.194-12.911l1.544-6.955c14.875,13.37,34.349,17.523,58.193,12.911Z" transform="translate(-1.5 -14.094)" fill="#363344"/>
        <path id="Trazado_240864" data-name="Trazado 240864" d="M88.467,51.916c-2.8,4.178-16.859,2.457-18.856-9.417C67.2,28.156,81.971,24.272,85.185,27.908c7.6,8.6,5.233,21.1,3.281,24.008" transform="translate(-6.624 -2.543)" fill="#80545a"/>
        <path id="Trazado_240865" data-name="Trazado 240865" d="M92.462,52.1A24.808,24.808,0,0,1,81.933,28.354C84.094,10.394,97.078-1.324,112.254.12c15.687,1.492,19.482,11.773,19.482,11.773s8.633,1.607,9.707,11.586c1.33,12.365-10.3,19.742-10.3,19.742Z" transform="translate(-7.807 0)" fill="#926466"/>
        <path id="Trazado_240866" data-name="Trazado 240866" d="M131.016,26.256C117.349,34.6,94.4,28.493,91.667,25.169a8.137,8.137,0,0,0,2.815,6.449l-1.751,9.19,8.053,5.9L127.719,33.8Z" transform="translate(-8.755 -2.404)" fill="#80545a"/>
        <path id="Trazado_240867" data-name="Trazado 240867" d="M135.172,26.371a7.924,7.924,0,0,1,6.863,6.943c1,6.374-5.79,12.427-5.79,12.427Z" transform="translate(-12.911 -2.519)" fill="#80545a"/>
        <path id="Trazado_240868" data-name="Trazado 240868" d="M95.883,54.423l-.2-9.048-3.807-13.71s-7.265-.31-6.316,8.662c.406,3.84,4.455,6.633,4.455,6.633a11.893,11.893,0,0,1-.62,5.27l3.318,3.195Z" transform="translate(-8.164 -3.024)" fill="#80545a"/>
      </g>
    </g>
    <g id="Grupo_174493" data-name="Grupo 174493" transform="translate(60.297 44.83)">
      <g id="Grupo_174492" data-name="Grupo 174492" clip-path="url(#clip-path-17)">
        <rect id="Rectángulo_217100" data-name="Rectángulo 217100" width="54.602" height="52.092" transform="translate(-16.082 35.556) rotate(-65.662)" fill="url(#linear-gradient-8)"/>
      </g>
    </g>
    <g id="Grupo_174495" data-name="Grupo 174495">
      <g id="Grupo_174494" data-name="Grupo 174494" clip-path="url(#clip-path)">
        <path id="Trazado_240870" data-name="Trazado 240870" d="M87.506,63.339c4.149-5.546,2.086-8.68,2.867-15.153,0,0,11.2,12.982,10.263,19.851-1.735.808-3.815,5.405-2.765,7.56-2.736,1.93-12.457,6.972-23.452-.742a21.777,21.777,0,0,1-6.357-6.593C76.226,66.53,84,68.025,87.506,63.339" transform="translate(-6.501 -4.603)" fill="#d27a84"/>
      </g>
    </g>
    <g id="Grupo_174497" data-name="Grupo 174497" transform="translate(78.749 23.852)">
      <g id="Grupo_174496" data-name="Grupo 174496" clip-path="url(#clip-path-19)">
        <rect id="Rectángulo_217102" data-name="Rectángulo 217102" width="56.389" height="59.438" transform="translate(-11.318 42.748) rotate(-75.712)" fill="url(#linear-gradient-9)"/>
      </g>
    </g>
    <g id="Grupo_174502" data-name="Grupo 174502">
      <g id="Grupo_174501" data-name="Grupo 174501" clip-path="url(#clip-path)">
        <path id="Trazado_240872" data-name="Trazado 240872" d="M89.418,38.042c-.224,1.663.616,3.15,1.878,3.32s2.467-1.04,2.691-2.7-.616-3.15-1.879-3.32-2.467,1.04-2.69,2.7" transform="translate(-8.538 -3.374)" fill="#d27a84"/>
        <path id="Trazado_240873" data-name="Trazado 240873" d="M120.722,49.125a9.241,9.241,0,0,1,4.92-6.43,8.292,8.292,0,0,0-3.952,2.2,8.19,8.19,0,0,0-2.335,3.848,11.2,11.2,0,0,0,1.52,8.2,8.9,8.9,0,0,1-5.13.823c2.918,1.2,5.156.819,7.807.054-2.018-2.658-3.475-5.634-2.83-8.69" transform="translate(-11.056 -4.078)" fill="#d27a84"/>
        <path id="Trazado_240874" data-name="Trazado 240874" d="M113.7,45.017a3.057,3.057,0,0,1-3.357.714,1.5,1.5,0,0,1-.562-2.484,3.054,3.054,0,0,1,3.356-.715,1.5,1.5,0,0,1,.563,2.485" transform="translate(-10.444 -4.041)" fill="#4e3a5e"/>
        <path id="Trazado_240875" data-name="Trazado 240875" d="M106.474,42.492a6.169,6.169,0,0,1,6.827-1.907c1.678.494,2.209,2.957,1.428,3.849a3.566,3.566,0,0,0-2.316-2.212c-1.772-.482-5.939.27-5.939.27" transform="translate(-10.17 -3.845)" fill="#4e3a5e"/>
        <path id="Trazado_240876" data-name="Trazado 240876" d="M109.7,40.656s-1.1-1.61-1.3-1.506.452,1.821.452,1.821Z" transform="translate(-10.35 -3.739)" fill="#4e3a5e"/>
        <path id="Trazado_240877" data-name="Trazado 240877" d="M108.486,41.113s-1.6-1.316-1.719-1.212.973,1.731.973,1.731Z" transform="translate(-10.197 -3.811)" fill="#4e3a5e"/>
        <path id="Trazado_240878" data-name="Trazado 240878" d="M130.735,53.206a2.834,2.834,0,0,1-3.065.768,1.37,1.37,0,0,1-.362-2.306,2.832,2.832,0,0,1,3.065-.766,1.369,1.369,0,0,1,.362,2.3" transform="translate(-12.115 -4.845)" fill="#4e3a5e"/>
        <path id="Trazado_240879" data-name="Trazado 240879" d="M124.949,51.433a4.783,4.783,0,0,1,5.72-2.24c1.7.622,1.87,3.278,1.136,4.159a3.256,3.256,0,0,0-1.986-2.58c-1.974-.681-4.87.662-4.87.662" transform="translate(-11.935 -4.671)" fill="#4e3a5e"/>
        <path id="Trazado_240880" data-name="Trazado 240880" d="M131.993,51.569s1.843-.281,1.889-.067-1.6.895-1.6.895Z" transform="translate(-12.608 -4.912)" fill="#4e3a5e"/>
        <path id="Trazado_240881" data-name="Trazado 240881" d="M132.393,52.718a8.494,8.494,0,0,1,1.926.431,8.05,8.05,0,0,1-1.852.458Z" transform="translate(-12.646 -5.036)" fill="#4e3a5e"/>
        <path id="Trazado_240882" data-name="Trazado 240882" d="M119.814,39.6c-.484,1.141-3.8-.166-6.687-1.974-2.421-1.514-4.711-3.619-4.418-4.011.331-.444,2.58,1.054,5.1,2.176,3.2,1.427,6.454,2.751,6,3.809" transform="translate(-10.381 -3.203)" fill="#80545a"/>
        <path id="Trazado_240883" data-name="Trazado 240883" d="M129.176,43.8c-.465,1.127,1.646,2.6,3.874,3.433,1.867.695,4.023.892,4.133.413.123-.541-1.665-1.124-3.346-2.158-2.134-1.313-4.229-2.733-4.661-1.688" transform="translate(-12.332 -4.149)" fill="#80545a"/>
        <path id="Trazado_240884" data-name="Trazado 240884" d="M105.95,60.915a32.513,32.513,0,0,1,7.008,1.9,14.235,14.235,0,0,1,4.082,3.433,5.743,5.743,0,0,1-6.43.773c-3.684-1.85-4.66-6.111-4.66-6.111" transform="translate(-10.12 -5.818)" fill="#d85d8e"/>
        <g id="Grupo_174500" data-name="Grupo 174500" transform="translate(95.83 55.097)" opacity="0.3" style="mix-blend-mode: multiply;isolation: isolate">
          <g id="Grupo_174499" data-name="Grupo 174499">
            <g id="Grupo_174498" data-name="Grupo 174498" clip-path="url(#clip-path-21)">
              <path id="Trazado_240885" data-name="Trazado 240885" d="M111.814,64.629a17.749,17.749,0,0,0,5.2,1.648l.028-.024a11.628,11.628,0,0,0-4.27-3.529,22.151,22.151,0,0,0-6.82-1.808,42.655,42.655,0,0,0,5.863,3.714" transform="translate(-105.95 -60.915)" fill="#65529c"/>
            </g>
          </g>
        </g>
        <path id="Trazado_240886" data-name="Trazado 240886" d="M71.282,69.191s-13.749-.875-23.372,3.749-15.5,14.374-22.5,28.872c-6.376,13.207-12,31.246-10.249,36.246s15.762,14.4,30.247,16.5c19,2.755,29.246-.25,32.746-3s7-17,11-26.246S101.2,99.058,100.37,93.32c-.715-4.944-4.715-9.818-4.715-9.818l-9.91-.8Z" transform="translate(-1.418 -6.603)" fill="#626376"/>
        <rect id="Rectángulo_217104" data-name="Rectángulo 217104" width="8.139" height="10.473" transform="translate(57.298 102.239) rotate(-70.947)" fill="#8e92a5"/>
        <path id="Trazado_240887" data-name="Trazado 240887" d="M42.635,78.752A48.809,48.809,0,0,0,34.5,89.088c-3.821,33.141,14.928,56.763,29.9,67.406,6.625-.308,11.156-1.556,13.86-2.94-16.051-19.5-32.529-65.836-35.628-74.8" transform="translate(-3.247 -7.522)" fill="#474557"/>
        <path id="Trazado_240888" data-name="Trazado 240888" d="M62.205,158.338l-.367-.657c5.336-2.963,15.409-29.39,19.71-40.675,5.9-15.493,6.16-24.719,6.16-24.809l.751.014c0,.093-.26,9.432-6.213,25.06-7.154,18.776-15.128,38.336-20.041,41.065" transform="translate(-5.907 -8.807)" fill="#474557"/>
        <path id="Trazado_240889" data-name="Trazado 240889" d="M76.981,69.147l-1.463-.009,7.4,22.266L87.6,88.095l1.377,2.763L91.7,89.223l1.951,6.54,7.8-12.259-.539-.652-9.371-.146Z" transform="translate(-7.213 -6.604)" fill="#474557"/>
        <path id="Trazado_240890" data-name="Trazado 240890" d="M83.289,65.746l8.383,16.636-7.7,5.467L76.905,68.272Z" transform="translate(-7.346 -6.28)" fill="#a5adbc"/>
        <path id="Trazado_240891" data-name="Trazado 240891" d="M93.232,83.46l3.163,10.13,6.7-10.41-2.261-6.146Z" transform="translate(-8.905 -7.358)" fill="#a5adbc"/>
        <path id="Trazado_240892" data-name="Trazado 240892" d="M42.67,115.483l24.678-11.093C64.98,98.172,63.23,69.2,49.326,74.094s-12.4,32.14-6.655,41.389" transform="translate(-3.677 -7.024)" fill="#626376"/>
        <path id="Trazado_240893" data-name="Trazado 240893" d="M57.944,95.636a8.281,8.281,0,1,1-8.281-8.405,8.344,8.344,0,0,1,8.281,8.405" transform="translate(-3.953 -8.332)" fill="#474557"/>
        <path id="Trazado_240894" data-name="Trazado 240894" d="M57.132,95.105a7.874,7.874,0,1,1-7.874-7.874,7.875,7.875,0,0,1,7.874,7.874" transform="translate(-3.953 -8.332)" fill="#8a9ecb"/>
        <path id="Trazado_240895" data-name="Trazado 240895" d="M49.331,102.364a7.187,7.187,0,1,1,7.187-7.187,7.194,7.194,0,0,1-7.187,7.187m0-13.622a6.435,6.435,0,1,0,6.435,6.435,6.442,6.442,0,0,0-6.435-6.435" transform="translate(-4.026 -8.405)" fill="#bfcee2"/>
        <rect id="Rectángulo_217105" data-name="Rectángulo 217105" width="1.349" height="7.071" transform="translate(44.631 83.238)" fill="#bfcee2"/>
        <rect id="Rectángulo_217106" data-name="Rectángulo 217106" width="7.241" height="1.351" transform="matrix(0.819, -0.574, 0.574, 0.819, 41.951, 88.298)" fill="#bfcee2"/>
        <rect id="Rectángulo_217107" data-name="Rectángulo 217107" width="1.351" height="7.241" transform="translate(41.951 85.249) rotate(-54.98)" fill="#bfcee2"/>
      </g>
    </g>
    <g id="Grupo_174504" data-name="Grupo 174504" transform="translate(46.986 106.126)">
      <g id="Grupo_174503" data-name="Grupo 174503" clip-path="url(#clip-path-22)">
        <rect id="Rectángulo_217109" data-name="Rectángulo 217109" width="68.799" height="69.138" transform="translate(0 0)" fill="url(#linear-gradient-10)"/>
      </g>
    </g>
    <g id="Grupo_174506" data-name="Grupo 174506">
      <g id="Grupo_174505" data-name="Grupo 174505" clip-path="url(#clip-path)">
        <path id="Trazado_240897" data-name="Trazado 240897" d="M154.308,131.556l-2.346-1.029a1.125,1.125,0,0,1-.579-1.482l1.029-2.346,4.407,1.933-1.029,2.346a1.124,1.124,0,0,1-1.482.578" transform="translate(-14.451 -12.102)" fill="#363344"/>
        <path id="Trazado_240898" data-name="Trazado 240898" d="M161.787,114.2l-2.976-1.305-1.385,3.156a12.313,12.313,0,0,0-2.954,6.737l-1.387,3.161,2.976,1.306c1.928.845,4.775-1.4,6.355-5s1.3-7.21-.63-8.055" transform="translate(-14.622 -10.783)" fill="#363344"/>
        <path id="Trazado_240899" data-name="Trazado 240899" d="M159.267,120.93c-1.58,3.6-4.425,5.838-6.352,4.993s-2.211-4.452-.63-8.055,4.424-5.838,6.352-4.993,2.21,4.452.63,8.055" transform="translate(-14.448 -10.765)" fill="#474557"/>
        <path id="Trazado_240900" data-name="Trazado 240900" d="M158.364,120.624c-1.289,2.94-3.546,4.791-5.041,4.135s-1.662-3.57-.372-6.51,3.546-4.79,5.041-4.134,1.661,3.569.372,6.509" transform="translate(-14.527 -10.887)" fill="#f9e5e8"/>
        <path id="Trazado_240901" data-name="Trazado 240901" d="M156.4,120.108c-.2.462-.557.753-.791.649s-.26-.56-.059-1.022.557-.753.791-.649.261.561.059,1.022" transform="translate(-14.845 -11.373)" fill="#474557"/>
        <path id="Trazado_240902" data-name="Trazado 240902" d="M158.327,115.334c-.119.271-.327.442-.465.382s-.154-.329-.034-.6.327-.442.465-.382.154.329.034.6" transform="translate(-15.068 -10.958)" fill="#474557"/>
        <path id="Trazado_240903" data-name="Trazado 240903" d="M154.174,124.8c-.119.271-.327.442-.465.382s-.154-.329-.034-.6.327-.442.465-.382.154.329.034.6" transform="translate(-14.671 -11.862)" fill="#474557"/>
        <path id="Trazado_240904" data-name="Trazado 240904" d="M153.821,119c-.119.271-.327.442-.465.382s-.154-.329-.035-.6.327-.442.466-.382.154.329.034.6" transform="translate(-14.637 -11.308)" fill="#474557"/>
        <path id="Trazado_240905" data-name="Trazado 240905" d="M158.787,121.181c-.119.271-.327.442-.465.382s-.154-.329-.034-.6.327-.442.465-.382.154.329.034.6" transform="translate(-15.112 -11.516)" fill="#474557"/>
        <path id="Trazado_240906" data-name="Trazado 240906" d="M155.887,121.33a.157.157,0,0,1-.152-.16l.154-5.31a.157.157,0,0,1,.313.009l-.154,5.309a.157.157,0,0,1-.161.152" transform="translate(-14.876 -11.052)" fill="#474557"/>
        <path id="Trazado_240907" data-name="Trazado 240907" d="M149.934,168.581a15.009,15.009,0,0,1-7.1-1.57,10.778,10.778,0,0,1-5.379-7.366c-1.861-7.728,4.291-16.036,9.23-22.713a56.016,56.016,0,0,0,4.377-6.44.9.9,0,1,1,1.6.831A57.073,57.073,0,0,1,148.133,138c-4.72,6.377-10.594,14.312-8.929,21.224a9.045,9.045,0,0,0,4.481,6.2c5.723,3.073,14.5-.054,14.584-.087a.9.9,0,0,1,.615,1.691,29.12,29.12,0,0,1-8.95,1.551" transform="translate(-13.097 -12.418)" fill="#363344"/>
        <path id="Trazado_240908" data-name="Trazado 240908" d="M158.262,134.513c-.386.261-1.633-.34-2.941-.8-1.792-.623-3.565-.982-3-1.906.943-1.541,5.417.352,5.575-.212.07-.244-1.169-1.147-2.576-1.694-1.839-.715-3.928-1.168-3.37-2.257.987-1.924,7.156,1.124,7.41.572.118-.255-.915-.791-2.135-1.244-1.426-.531-3.141-.671-2.893-1.694.393-1.631,5.455-.525,6.47.683,2.313,2.75-1.018,7.518-2.541,8.546" transform="translate(-14.505 -11.889)" fill="#ffb7a7"/>
      </g>
    </g>
    <g id="Grupo_174508" data-name="Grupo 174508" transform="translate(132.295 108.472)">
      <g id="Grupo_174507" data-name="Grupo 174507" clip-path="url(#clip-path-24)">
        <rect id="Rectángulo_217111" data-name="Rectángulo 217111" width="8.485" height="10.923" transform="translate(0 0)" fill="url(#linear-gradient-11)"/>
      </g>
    </g>
    <g id="Grupo_174510" data-name="Grupo 174510">
      <g id="Grupo_174509" data-name="Grupo 174509" clip-path="url(#clip-path)">
        <path id="Trazado_240910" data-name="Trazado 240910" d="M108.638,90a.786.786,0,0,1-.27-.049c-7.429-2.848-12.524-9.756-15.148-20.53a.749.749,0,1,1,1.455-.355c2.5,10.267,7.287,16.822,14.231,19.483A.75.75,0,0,1,108.638,90" transform="translate(-8.902 -6.543)" fill="#a5adbc"/>
        <path id="Trazado_240911" data-name="Trazado 240911" d="M110.212,90.154a.9.9,0,0,1-.323-1.74c6.859-2.628,11.6-9.1,14.105-19.233a.887.887,0,0,1,1.088-.658.9.9,0,0,1,.657,1.09c-2.65,10.739-7.764,17.63-15.205,20.481a.9.9,0,0,1-.322.061" transform="translate(-10.441 -6.542)" fill="#363344"/>
        <path id="Trazado_240912" data-name="Trazado 240912" d="M93.748,67.437a.749.749,0,0,1-.728-.573C90.134,55.012,91.368,42.5,91.382,42.372A.738.738,0,0,1,92.2,41.7a.749.749,0,0,1,.668.822c-.012.123-1.218,12.39,1.6,23.984a.748.748,0,0,1-.55.906.7.7,0,0,1-.177.021" transform="translate(-8.702 -3.983)" fill="#d4def1"/>
        <path id="Trazado_240913" data-name="Trazado 240913" d="M108.619,90.127a.907.907,0,0,1-.323-.061c-7.5-2.876-12.64-9.854-15.269-20.74a.9.9,0,0,1,1.751-.423c2.478,10.276,7.246,16.832,14.163,19.483a.9.9,0,0,1-.322,1.74" transform="translate(-8.883 -6.516)" fill="#363344"/>
        <path id="Trazado_240914" data-name="Trazado 240914" d="M110.285,97.805h-.656a1.64,1.64,0,0,1-1.641-1.64V91.947a1.641,1.641,0,0,1,1.641-1.641h.656a1.641,1.641,0,0,1,1.641,1.641v4.218a1.64,1.64,0,0,1-1.641,1.64" transform="translate(-10.315 -8.626)" fill="#363344"/>
        <path id="Trazado_240915" data-name="Trazado 240915" d="M145.749,168.956c-7.409,0-17.174-2.048-24.79-10.9-13.947-16.213-11.605-58.543-11.5-60.336a.9.9,0,0,1,1.8.107c-.026.431-2.408,43.4,11.067,59.055,13.3,15.46,33.662,8.911,33.869,8.843a.9.9,0,0,1,.571,1.707,38.882,38.882,0,0,1-11.017,1.521" transform="translate(-10.435 -9.253)" fill="#363344"/>
        <path id="Trazado_240916" data-name="Trazado 240916" d="M93.958,40.58c0,1.519-.866,2.75-1.932,2.75s-1.933-1.231-1.933-2.75.866-2.75,1.933-2.75,1.932,1.231,1.932,2.75" transform="translate(-8.606 -3.613)" fill="#d4def1"/>
        <path id="Trazado_240917" data-name="Trazado 240917" d="M79.451,158.349c-13.311-11.436-19.872-30-19.872-30a56.468,56.468,0,0,0,11.051-5.679c-1.463-3.263-2.183-5.339-2.183-5.339l-16.5,6.936s8.943,20.205,22.629,32.767a93.262,93.262,0,0,0,28.226,17.7,145.05,145.05,0,0,1-23.352-16.388" transform="translate(-4.962 -11.207)" fill="#d27a84"/>
        <path id="Trazado_240918" data-name="Trazado 240918" d="M42.153,118.515c9.16-4.431,19.554-8.893,27.342-12.095l3.375,8.062c-6.371,4.568-16.636,9.042-26.779,11.908Z" transform="translate(-4.026 -10.165)" fill="#a5adbc"/>
        <path id="Trazado_240919" data-name="Trazado 240919" d="M49.658,163.225l-1.318,8.6,13.382,1.117,1.318-8.6Zm10.3,7.813-9.322-.779.786-5.129,9.322.779Z" transform="translate(-4.617 -15.591)" fill="#a5adbc"/>
        <rect id="Rectángulo_217112" data-name="Rectángulo 217112" width="10.074" height="3.937" transform="matrix(0.23, -0.973, 0.973, 0.23, 32.181, 153.601)" fill="#626376"/>
        <rect id="Rectángulo_217113" data-name="Rectángulo 217113" width="10.075" height="3.937" transform="translate(63.065 157.289) rotate(-83.086)" fill="#474557"/>
        <rect id="Rectángulo_217114" data-name="Rectángulo 217114" width="10.074" height="3.937" transform="translate(16.764 145.781) rotate(-71.128)" fill="#626376"/>
        <path id="Trazado_240920" data-name="Trazado 240920" d="M2.345,230.722l19.676-.173-.014,14.36a5.7,5.7,0,0,1-5.705,5.7l-7.272.166a5.754,5.754,0,0,1-5.886-5.788Z" transform="translate(-0.224 -22.022)" fill="#8e92a5"/>
        <path id="Trazado_240921" data-name="Trazado 240921" d="M2.52,233.867l19.5-.26,0-3.059-19.678.174Z" transform="translate(-0.224 -22.021)" fill="#626376"/>
        <path id="Trazado_240922" data-name="Trazado 240922" d="M8.846,245.276,8.1,230.683l-5.753.051L3.142,245a5.754,5.754,0,0,0,5.887,5.787l3.6-.082a5.745,5.745,0,0,1-3.786-5.426" transform="translate(-0.224 -22.034)" fill="#626376"/>
        <path id="Trazado_240923" data-name="Trazado 240923" d="M0,218.252l23.025-.417.227,11.742L.3,229.883Z" transform="translate(0 -20.807)" fill="#8e92a5"/>
        <path id="Trazado_240924" data-name="Trazado 240924" d="M0,218.265l10.113-.289.227,11.743L.3,229.9Z" transform="translate(0 -20.821)" fill="#626376"/>
        <rect id="Rectángulo_217115" data-name="Rectángulo 217115" width="8.14" height="10.473" transform="translate(82.045 110.864) rotate(-70.947)" fill="#8e92a5"/>
        <rect id="Rectángulo_217116" data-name="Rectángulo 217116" width="3.021" height="6.232" transform="matrix(0.326, -0.945, 0.945, 0.326, 88.054, 102.874)" fill="#f9e5e8"/>
        <path id="Trazado_240925" data-name="Trazado 240925" d="M99.659,26.7c2.116,15.508,26.383,8.828,32.543-.135.317-.461-.388-.99-.769-.593-6.838,7.144-27.379,15.5-31.2.572-.1-.38-.62-.208-.57.156" transform="translate(-9.519 -2.468)" fill="#80545a"/>
        <path id="Trazado_240926" data-name="Trazado 240926" d="M71.669,74a76.5,76.5,0,0,0-19.324,3.759L50.861,72.29C56.2,69.755,62.7,68.565,70.183,68.531Z" transform="translate(-4.858 -6.546)" fill="#474557"/>
      </g>
    </g>
  </g>
</svg>
