<svg xmlns="http://www.w3.org/2000/svg" xmlns:xlink="http://www.w3.org/1999/xlink" width="610" height="549" viewBox="0 0 610 549">
  <defs>
    <clipPath id="clip-path">
      <rect id="Rectángulo_216912" data-name="Rectángulo 216912" width="520.24" height="511.383" fill="none"/>
    </clipPath>
    <clipPath id="clip-path-3">
      <rect id="Rectángulo_216905" data-name="Rectángulo 216905" width="3.955" height="3.877" fill="none"/>
    </clipPath>
    <clipPath id="clip-path-4">
      <rect id="Rectángulo_216906" data-name="Rectángulo 216906" width="47.345" height="21.517" fill="none"/>
    </clipPath>
    <clipPath id="clip-path-5">
      <rect id="Rectángulo_216907" data-name="Rectángulo 216907" width="47.385" height="35.528" fill="none"/>
    </clipPath>
    <clipPath id="clip-path-6">
      <rect id="Rectángulo_216908" data-name="Rectángulo 216908" width="18.989" height="15.574" fill="none"/>
    </clipPath>
    <clipPath id="clip-path-7">
      <rect id="Rectángulo_216909" data-name="Rectángulo 216909" width="3.822" height="3.747" fill="none"/>
    </clipPath>
    <clipPath id="clip-path-8">
      <rect id="Rectángulo_216910" data-name="Rectángulo 216910" width="45.76" height="20.797" fill="none"/>
    </clipPath>
    <clipPath id="clip-path-9">
      <rect id="Rectángulo_219034" data-name="Rectángulo 219034" width="16.128" height="10.878" fill="none"/>
    </clipPath>
    <clipPath id="clip-path-11">
      <rect id="Rectángulo_219031" data-name="Rectángulo 219031" width="7.783" height="2.05" fill="none"/>
    </clipPath>
    <clipPath id="clip-path-12">
      <rect id="Rectángulo_219032" data-name="Rectángulo 219032" width="8.615" height="2.3" fill="none"/>
    </clipPath>
  </defs>
  <g id="Grupo_176924" data-name="Grupo 176924" transform="translate(-809.805 -985)">
    <rect id="Rectángulo_216913" data-name="Rectángulo 216913" width="610" height="549" transform="translate(809.805 985)" fill="#896dbf"/>
    <g id="Grupo_174303" data-name="Grupo 174303" transform="translate(854.805 1018.056)">
      <g id="Grupo_174302" data-name="Grupo 174302" clip-path="url(#clip-path)">
        <g id="Grupo_174301" data-name="Grupo 174301">
          <g id="Grupo_174300" data-name="Grupo 174300" clip-path="url(#clip-path)">
            <path id="Trazado_239009" data-name="Trazado 239009" d="M519.246,403.009c0,.176-115.952.318-258.952.318-143.051,0-258.976-.142-258.976-.318s115.926-.319,258.976-.319c143,0,258.952.142,258.952.319" transform="translate(0.297 90.665)" fill="#263238"/>
            <path id="Trazado_239010" data-name="Trazado 239010" d="M33.454,300.646a45.088,45.088,0,0,0-19.29-6.64c-3.152-.323-6.6-.232-9.125,1.678a1.877,1.877,0,0,0-.94,1.666,2.037,2.037,0,0,0,.892,1.139c7.85,5.989,19.721,6.744,28.463,2.156" transform="translate(0.919 66.162)" fill="#e0e0e0"/>
            <path id="Trazado_239011" data-name="Trazado 239011" d="M31.42,304.512a94.2,94.2,0,0,1-12.46-10.963A31.533,31.533,0,0,1,11.149,279.1c-.334-1.647-.439-3.527.617-4.834C21.7,282.025,29.5,292.057,31.42,304.512" transform="translate(2.458 61.751)" fill="#e0e0e0"/>
            <path id="Trazado_239012" data-name="Trazado 239012" d="M28.088,304.825c-.747-5.434-1.017-11.018.23-16.358s4.153-10.452,8.714-13.5c1.716,4.011.978,8.632-.23,12.825a62.316,62.316,0,0,1-8.641,18.191" transform="translate(6.182 61.908)" fill="#e0e0e0"/>
            <path id="Trazado_239013" data-name="Trazado 239013" d="M40.388,313.577c-5.91.718-11.057,3.833-15.47,7.83A29.267,29.267,0,0,0,16.069,336.6c5.8-.358,10.715-4.446,14.282-9.031s6.039-9.612,9.957-13.9" transform="translate(3.618 70.601)" fill="#e0e0e0"/>
            <path id="Trazado_239014" data-name="Trazado 239014" d="M38.134,322.488A38.152,38.152,0,0,1,42.54,286.4c3.367,11.977,2.131,25.505-4.406,36.092" transform="translate(7.987 64.481)" fill="#e0e0e0"/>
            <path id="Trazado_239015" data-name="Trazado 239015" d="M53.067,328.367a27.587,27.587,0,0,0-26.381,15.186c-.327.653-.615,1.484-.178,2.068a1.964,1.964,0,0,0,1.75.516c5.2-.337,9.807-3.466,13.609-7.027s7.114-7.677,11.317-10.757" transform="translate(5.918 73.919)" fill="#e0e0e0"/>
            <path id="Trazado_239016" data-name="Trazado 239016" d="M48.216,334.393a49.129,49.129,0,0,1-.49-27.446c.967-3.532,2.59-7.253,5.856-8.908a1.152,1.152,0,0,1,.9-.157,1.175,1.175,0,0,1,.566.655,16.525,16.525,0,0,1,1.381,7.874,49.272,49.272,0,0,1-1.234,7.971c-1.028,4.872-1.576,10.107-4.248,14.309a28.986,28.986,0,0,0-1.7,3.144c-.506,1.068-.51,1.444-.973,2.293" transform="translate(10.358 67.058)" fill="#e0e0e0"/>
            <path id="Trazado_239017" data-name="Trazado 239017" d="M75.777,337.373c-2.523-9.6.156-21.229,6.2-29.1.446-.579,1.036-1.2,1.763-1.132,1.114.1,1.4,1.585,1.353,2.7a52.577,52.577,0,0,1-9.317,27.524" transform="translate(16.848 69.152)" fill="#e0e0e0"/>
            <path id="Trazado_239018" data-name="Trazado 239018" d="M78.109,335.379c11.659,3.033,25.033.085,34.73-7.064a28.124,28.124,0,0,0-18.8-2.307c-6.28,1.436-12.02,4.25-15.929,9.371" transform="translate(17.586 73.245)" fill="#e0e0e0"/>
            <path id="Trazado_239019" data-name="Trazado 239019" d="M80.222,331.665c6.53-10.645,19.047-17.594,31.521-18.227-1.437,5.073-5.606,9.016-10.31,11.4s-9.954,3.419-15.131,4.425c-2.013.391-4.776.821-6.08,2.4" transform="translate(18.062 70.57)" fill="#e0e0e0"/>
            <path id="Trazado_239020" data-name="Trazado 239020" d="M76.965,309.756C78.733,303.7,80.511,297.588,81,291.3s-.412-12.86-3.677-18.261c-6.1,11.8-6.716,25.592-.537,37.353" transform="translate(16.309 61.473)" fill="#e0e0e0"/>
            <path id="Trazado_239021" data-name="Trazado 239021" d="M92.894,299.089c7.133-12.963,21.685-23.318,36.409-24.77-5.68,14.143-21.171,25.074-36.409,24.77" transform="translate(20.915 61.762)" fill="#e0e0e0"/>
            <path id="Trazado_239022" data-name="Trazado 239022" d="M89.231,297c10.637,1.621,19.7,8.414,29.641,12.533a13.28,13.28,0,0,0,6.7,1.283c2.282-.3,4.533-1.829,5.045-4.074a5.851,5.851,0,0,0-1.761-5.206,14.335,14.335,0,0,0-4.868-2.953c-10.827-4.507-22.439-4.62-33.843-1.887" transform="translate(20.09 66.39)" fill="#e0e0e0"/>
            <path id="Trazado_239023" data-name="Trazado 239023" d="M84.207,302.795c2.409.69,3.231,1.937,5.138,3.56A55.433,55.433,0,0,0,111.822,317.9c.859.213,1.986.3,2.411-.478.371-.677-.1-1.5-.582-2.1-3.455-4.325-8.384-7.281-13.571-9.213s-9.681-4.26-15.873-3.761" transform="translate(18.959 68.058)" fill="#e0e0e0"/>
            <path id="Trazado_239024" data-name="Trazado 239024" d="M78.537,266.131a42.543,42.543,0,0,0,32.612,11.1,2.24,2.24,0,0,0,1.485-.533c.821-.893-.164-2.271-1.12-3.017-9.589-7.476-21.2-10.574-32.977-7.546" transform="translate(17.682 59.66)" fill="#e0e0e0"/>
            <path id="Trazado_239025" data-name="Trazado 239025" d="M85.259,265.088a45.455,45.455,0,0,1,40.694-6.715c-5.125,5.051-12.236,7.769-19.392,8.514a61.366,61.366,0,0,1-21.3-1.8" transform="translate(19.196 57.69)" fill="#e0e0e0"/>
            <path id="Trazado_239026" data-name="Trazado 239026" d="M83.6,251.848c-.942-9.571-.331-17.125-.995-26.74-.053-.768-.218-1.693-.937-1.969-1-.386-1.834.844-2.162,1.865a30.649,30.649,0,0,0,4.081,26.633" transform="translate(17.584 50.223)" fill="#e0e0e0"/>
            <path id="Trazado_239027" data-name="Trazado 239027" d="M82.025,252.951c6.487-4.011,11.353-9.25,15.853-15.407,3.131-4.286,5.77-9.418,5.06-14.676-4.4-.088-8.576,2.338-11.436,5.679s-4.561,7.518-5.83,11.728-2.157,8.538-3.647,12.677" transform="translate(18.468 50.177)" fill="#e0e0e0"/>
            <path id="Trazado_239028" data-name="Trazado 239028" d="M94.776,248.3a127.816,127.816,0,0,0,39.014-23c-4.659-1.877-10-.755-14.655,1.127-10.644,4.3-19.343,11.549-24.562,21.773" transform="translate(21.293 50.506)" fill="#e0e0e0"/>
            <path id="Trazado_239029" data-name="Trazado 239029" d="M85.6,253.77c7.2.788,14.518,1.3,21.663.105,7.024-1.174,13.662-3.957,20.225-6.72a2.375,2.375,0,0,0,1.375-1.043,1.582,1.582,0,0,0-.493-1.731,4.18,4.18,0,0,0-1.725-.809c-7.135-2-14.835-1.061-21.855,1.306A101.4,101.4,0,0,0,85.6,253.77" transform="translate(19.273 54.595)" fill="#e0e0e0"/>
            <path id="Trazado_239030" data-name="Trazado 239030" d="M52.7,272.015c-4.914-9.919-4.594-21.493-.35-31.715,2.988,4.553,3.353,10.35,2.807,15.769s-2.2,10.994-2.3,16.439" transform="translate(11.052 54.103)" fill="#e0e0e0"/>
            <path id="Trazado_239031" data-name="Trazado 239031" d="M42.052,258.107a44.241,44.241,0,0,0-32.871,14c6.123.962,12.429-.617,18-3.336S37.7,262.237,42.6,258.449" transform="translate(2.067 58.11)" fill="#e0e0e0"/>
            <path id="Trazado_239032" data-name="Trazado 239032" d="M30.921,254.61c-6-.486-11.776-1.23-17.547.539S2.352,260.931,0,266.489c5.614.632,11.306-.776,16.451-3.107a94.682,94.682,0,0,0,14.47-8.772" transform="translate(0 57.195)" fill="#e0e0e0"/>
            <path id="Trazado_239033" data-name="Trazado 239033" d="M47.654,256.362c-5.4-3.538-10.943-7.14-17.229-8.605s-13.572-.382-17.956,4.355c5.089,2.987,11.263,3.34,17.163,3.335s13.134-.072,18.7,1.9" transform="translate(2.807 55.645)" fill="#e0e0e0"/>
            <path id="Trazado_239034" data-name="Trazado 239034" d="M43.139,261.836c-9.23-9.064-12.729-25.346-9.016-37.738a57.506,57.506,0,0,1,9.016,37.738" transform="translate(7.354 50.455)" fill="#e0e0e0"/>
            <path id="Trazado_239035" data-name="Trazado 239035" d="M61.931,239.413c1.741-4.047,2.965-8.294,4.527-12.414a35.679,35.679,0,0,1,6.454-11.444c2.951-3.27,7.031-5.706,11.432-5.924a46.042,46.042,0,0,1-22.187,29.847" transform="translate(13.944 47.198)" fill="#e0e0e0"/>
            <path id="Trazado_239036" data-name="Trazado 239036" d="M62.57,241.3c-2.88-3.965-6.209-9.348-10.116-12.307s-8.993-4.751-13.761-3.614A32.054,32.054,0,0,0,62.57,241.3" transform="translate(8.712 50.665)" fill="#e0e0e0"/>
            <path id="Trazado_239037" data-name="Trazado 239037" d="M59.83,239.674c-1.888-4.8-3.791-9.647-4.554-14.746s-.3-10.546,2.308-14.995c5.067,9.578,6.7,19.858,2.5,29.849" transform="translate(12.37 47.266)" fill="#e0e0e0"/>
            <path id="Trazado_239038" data-name="Trazado 239038" d="M61.969,213.664c2.869-9.495,11.564-16.486,20.95-19.693a7.818,7.818,0,0,1,3.673-.551,3.188,3.188,0,0,1,2.708,2.26c.342,1.615-.992,3.062-2.247,4.135a71.326,71.326,0,0,1-25.084,13.849" transform="translate(13.952 43.536)" fill="#e0e0e0"/>
            <path id="Trazado_239039" data-name="Trazado 239039" d="M62.081,209.461c.365-6.122.746-12.332,2.738-18.132s5.828-11.242,11.411-13.78c.949,6.183-1.779,12.335-5.068,17.654s-7.254,10.343-9.231,16.277" transform="translate(13.943 39.974)" fill="#e0e0e0"/>
            <path id="Trazado_239040" data-name="Trazado 239040" d="M65.2,213.153c-2.372-6.92-2.617-15.709-6.76-21.737-2.9-4.215-7.535-7.085-10.03-11.548-1.658,4.169-1.15,8.972.583,13.109a37.94,37.94,0,0,0,7.666,10.974c3.065,3.275,5.691,5.739,8.542,9.2" transform="translate(10.672 40.497)" fill="#e0e0e0"/>
            <path id="Trazado_239041" data-name="Trazado 239041" d="M62.035,411.254c-.184,0-.344-46.16-.357-103.088-.013-56.949.126-103.1.31-103.1s.344,46.15.357,103.1c.013,56.928-.126,103.088-.31,103.088" transform="translate(13.886 46.171)" fill="#e0e0e0"/>
            <path id="Trazado_239042" data-name="Trazado 239042" d="M102.318,260.5a9.9,9.9,0,0,1-1.736.652l-4.776,1.611c-4.027,1.372-9.56,3.359-15.564,5.819-5.946,2.551-11.552,4.621-14.746,7.388a10.829,10.829,0,0,0-2.962,3.92c-.458,1.083-.54,1.746-.6,1.735-.023,0-.016-.169.02-.484a7.236,7.236,0,0,1,.339-1.345,10.4,10.4,0,0,1,2.891-4.179,25.945,25.945,0,0,1,6.4-3.974c2.559-1.194,5.4-2.44,8.408-3.678,6.022-2.467,11.6-4.391,15.67-5.65,2.036-.635,3.7-1.1,4.848-1.411a9.9,9.9,0,0,1,1.811-.4" transform="translate(13.941 58.65)" fill="#e0e0e0"/>
            <path id="Trazado_239043" data-name="Trazado 239043" d="M114.956,233.993a2.9,2.9,0,0,1-.486.519l-1.481,1.391-5.529,5.024L89.054,257.315c-7.184,6.394-13.393,12.505-17.7,17.106-2.154,2.3-3.851,4.2-5.008,5.53-.54.616-.983,1.121-1.337,1.527a2.872,2.872,0,0,1-.5.507,2.836,2.836,0,0,1,.395-.592c.281-.371.686-.924,1.244-1.609,1.1-1.383,2.744-3.338,4.86-5.683a233.189,233.189,0,0,1,17.6-17.284c7.209-6.381,13.769-12.111,18.536-16.243l5.67-4.865c.632-.523,1.149-.953,1.563-1.3a2.88,2.88,0,0,1,.576-.419" transform="translate(14.525 52.683)" fill="#e0e0e0"/>
            <path id="Trazado_239044" data-name="Trazado 239044" d="M78.217,261.273c-.189-.083,1.312-3.549,2.808-7.932s2.22-8.08,2.411-8.049c.174.018-.251,3.824-1.779,8.262a53.9,53.9,0,0,1-2.235,5.549,8.685,8.685,0,0,1-1.206,2.17" transform="translate(17.607 55.227)" fill="#e0e0e0"/>
            <path id="Trazado_239045" data-name="Trazado 239045" d="M66.92,287.335a8.263,8.263,0,0,1-1.108-1.285l-2.836-3.636c-2.382-3.08-5.675-7.33-9.366-11.982s-7.086-8.826-9.545-11.845L41.166,255a8.3,8.3,0,0,1-1-1.37,8.323,8.323,0,0,1,1.2,1.2c.739.8,1.785,1.981,3.062,3.454,2.553,2.943,6.007,7.074,9.706,11.732s6.934,8.959,9.222,12.113c1.144,1.578,2.056,2.864,2.668,3.766a8.323,8.323,0,0,1,.9,1.44" transform="translate(9.043 57.104)" fill="#e0e0e0"/>
            <path id="Trazado_239046" data-name="Trazado 239046" d="M55.628,274.436c-.109.116-2.469-2.682-3.706-6.936a19.812,19.812,0,0,1-.839-6.994l.294.023c-.131.535-.228.817-.281.809s-.055-.306-.012-.856l.3.026a31.877,31.877,0,0,0,1.183,6.8c1.193,4.121,3.244,7.014,3.065,7.125" transform="translate(11.491 58.647)" fill="#e0e0e0"/>
            <path id="Trazado_239047" data-name="Trazado 239047" d="M49.136,260.669a11.966,11.966,0,0,0-2.588-1.5,17.3,17.3,0,0,0-7.182-.571,44.36,44.36,0,0,0-7.233,1.168,22.051,22.051,0,0,1-2.976.714,10.371,10.371,0,0,1,2.848-1.169,33.064,33.064,0,0,1,7.31-1.378,15.686,15.686,0,0,1,7.41.8,4.583,4.583,0,0,1,2.41,1.941" transform="translate(6.565 58.051)" fill="#e0e0e0"/>
            <path id="Trazado_239048" data-name="Trazado 239048" d="M48.413,258.087c-.051.1-1.507-.6-3.963-1.443a39.909,39.909,0,0,0-19.974-1.523c-2.556.457-4.1.936-4.136.826a3.743,3.743,0,0,1,1.05-.448,24.8,24.8,0,0,1,2.994-.84A35.244,35.244,0,0,1,44.611,256.2a24.874,24.874,0,0,1,2.831,1.284,3.776,3.776,0,0,1,.97.6" transform="translate(4.579 57.152)" fill="#e0e0e0"/>
            <path id="Trazado_239049" data-name="Trazado 239049" d="M62.878,249.013c-.179.045-1.473-4.451-2.89-10.04s-2.423-10.16-2.244-10.205,1.473,4.45,2.891,10.041,2.422,10.159,2.243,10.2" transform="translate(12.996 51.506)" fill="#e0e0e0"/>
            <path id="Trazado_239050" data-name="Trazado 239050" d="M63.537,247.293c-.2.065-1.03-2.939-3.2-6.011a26.333,26.333,0,0,0-4.716-4.866,4.384,4.384,0,0,1,1.821.938,14.657,14.657,0,0,1,3.441,3.544c2.255,3.2,2.819,6.383,2.657,6.394" transform="translate(12.522 53.226)" fill="#e0e0e0"/>
            <path id="Trazado_239051" data-name="Trazado 239051" d="M69.74,365.659c-.072.011-.208-1.11-.728-3.07a43.755,43.755,0,0,0-3.085-7.992c-3.189-6.517-8.993-14.78-16.367-23.057-3.653-4.174-7.2-8.113-10.207-11.883a83.523,83.523,0,0,1-7.3-10.528,50.578,50.578,0,0,1-3.685-7.813c-.338-.963-.587-1.714-.723-2.235a3.686,3.686,0,0,1-.19-.8c.059-.02.394,1.056,1.155,2.938a57.089,57.089,0,0,0,3.849,7.667,88.193,88.193,0,0,0,7.372,10.381c3.02,3.732,6.57,7.649,10.231,11.83,7.393,8.3,13.183,16.667,16.288,23.291a39.859,39.859,0,0,1,2.911,8.134,22.594,22.594,0,0,1,.409,2.316,3.853,3.853,0,0,1,.067.817" transform="translate(6.181 67.158)" fill="#e0e0e0"/>
            <path id="Trazado_239052" data-name="Trazado 239052" d="M98.42,319.673a16.9,16.9,0,0,1-1.91,1.072,41.835,41.835,0,0,0-4.956,3.276,56.815,56.815,0,0,0-6.507,5.936c-2.285,2.412-4.637,5.214-7.038,8.217-4.8,6.024-9.292,11.355-11.981,15.61-1.365,2.11-2.357,3.89-3.008,5.138a16.508,16.508,0,0,1-1.051,1.922,1.824,1.824,0,0,1,.176-.542c.142-.343.336-.859.642-1.5a48.622,48.622,0,0,1,2.842-5.275c2.611-4.358,7.065-9.761,11.858-15.775,2.406-3.008,4.788-5.816,7.114-8.226a52.925,52.925,0,0,1,6.668-5.887,34.807,34.807,0,0,1,5.117-3.128c.633-.319,1.15-.513,1.491-.66a1.824,1.824,0,0,1,.54-.183" transform="translate(13.951 71.973)" fill="#e0e0e0"/>
            <path id="Trazado_239053" data-name="Trazado 239053" d="M96.933,330.583a27.763,27.763,0,0,1-4.038.587,53.289,53.289,0,0,0-9.576,1.886,28.783,28.783,0,0,0-8.575,4.5c-1.976,1.528-2.908,2.791-3,2.717a3.1,3.1,0,0,1,.6-.93,15.326,15.326,0,0,1,2.1-2.153,25.953,25.953,0,0,1,8.669-4.77,43.214,43.214,0,0,1,9.734-1.72,22.257,22.257,0,0,1,4.085-.118" transform="translate(16.152 74.419)" fill="#e0e0e0"/>
            <path id="Trazado_239054" data-name="Trazado 239054" d="M72.708,339.8c-.211-.12,1.609-2.9,3.02-6.638,1.326-3.772,1.636-7.08,1.873-7.042a6.424,6.424,0,0,1-.067,2.166,23.164,23.164,0,0,1-1.179,5.1,24.676,24.676,0,0,1-2.341,4.681,6.532,6.532,0,0,1-1.306,1.729" transform="translate(16.366 73.425)" fill="#e0e0e0"/>
            <path id="Trazado_239055" data-name="Trazado 239055" d="M110.223,290.4a2.959,2.959,0,0,1-.646.343l-1.9.863c-.832.356-1.84.809-2.977,1.408s-2.472,1.2-3.858,2.028l-2.2,1.252c-.763.44-1.519.962-2.324,1.464-1.623.985-3.25,2.2-4.986,3.438a85.565,85.565,0,0,0-19.207,19.874c-1.179,1.779-2.336,3.445-3.265,5.1-.475.821-.972,1.594-1.384,2.372s-.8,1.528-1.176,2.244c-.784,1.414-1.345,2.765-1.894,3.925s-.978,2.18-1.3,3.022l-.8,1.926a2.992,2.992,0,0,1-.321.658,2.92,2.92,0,0,1,.195-.7c.18-.521.406-1.174.681-1.974.292-.86.675-1.9,1.206-3.079s1.052-2.552,1.814-3.988l1.146-2.278c.4-.79.891-1.574,1.359-2.407.915-1.68,2.063-3.37,3.236-5.171a82.452,82.452,0,0,1,19.348-20.019c1.759-1.235,3.41-2.439,5.057-3.411.816-.5,1.583-1.011,2.358-1.441l2.237-1.223c1.409-.81,2.763-1.391,3.924-1.949s2.186-.99,3.035-1.311c.791-.3,1.436-.55,1.95-.749a2.935,2.935,0,0,1,.7-.218" transform="translate(13.954 65.383)" fill="#e0e0e0"/>
            <path id="Trazado_239056" data-name="Trazado 239056" d="M77.811,307.067A4.64,4.64,0,0,1,79.4,304.7a10.011,10.011,0,0,1,6.392-2.453,17.447,17.447,0,0,1,6.725,1.315,9.6,9.6,0,0,1,2.543,1.235,15.489,15.489,0,0,1-2.7-.79,20.3,20.3,0,0,0-6.55-1.092,10.4,10.4,0,0,0-6.1,2.142,18.757,18.757,0,0,0-1.894,2.006" transform="translate(17.518 68.05)" fill="#e0e0e0"/>
            <path id="Trazado_239057" data-name="Trazado 239057" d="M74.293,312.03c-.183-.1,1.444-2.487,1.814-5.9.426-3.412-.609-6.107-.407-6.164a3.9,3.9,0,0,1,.75,1.719,12.2,12.2,0,0,1-1.033,8.848c-.562,1.021-1.061,1.547-1.125,1.5" transform="translate(16.724 67.535)" fill="#e0e0e0"/>
            <path id="Trazado_239058" data-name="Trazado 239058" d="M35.947,358.676c.995,17.641,6.311,35.581,14.487,53.72H85.991c7.8-17.959,12.745-35.872,13.626-53.72Z" transform="translate(8.093 80.755)" fill="#e0e0e0"/>
            <path id="Trazado_239059" data-name="Trazado 239059" d="M92.822,382.037c0,.184-11.706.333-26.145.333s-26.147-.149-26.147-.333,11.7-.333,26.147-.333,26.145.149,26.145.333" transform="translate(9.125 85.94)" fill="#fafafa"/>
            <path id="Trazado_239060" data-name="Trazado 239060" d="M91.572,387.253c0,.184-10.975.333-24.51.333s-24.512-.149-24.512-.333,10.972-.333,24.512-.333,24.51.149,24.51.333" transform="translate(9.58 87.114)" fill="#fafafa"/>
            <path id="Trazado_239061" data-name="Trazado 239061" d="M48.3,368.13c.184,0,.333,3.667.333,8.19s-.149,8.19-.333,8.19-.333-3.667-.333-8.19.149-8.19.333-8.19" transform="translate(10.8 82.883)" fill="#fafafa"/>
            <path id="Trazado_239062" data-name="Trazado 239062" d="M63.85,368.13c.184,0,.333,3.8.333,8.482s-.149,8.482-.333,8.482-.333-3.8-.333-8.482.149-8.482.333-8.482" transform="translate(14.301 82.883)" fill="#fafafa"/>
            <path id="Trazado_239063" data-name="Trazado 239063" d="M78.448,368.013c.184,0,.333,3.874.333,8.651s-.149,8.651-.333,8.651-.333-3.873-.333-8.651.149-8.651.333-8.651" transform="translate(17.587 82.857)" fill="#fafafa"/>
            <path id="Trazado_239064" data-name="Trazado 239064" d="M98.265,368.191c0,.184-13.73.333-30.664.333s-30.668-.149-30.668-.333,13.728-.333,30.668-.333,30.664.149,30.664.333" transform="translate(8.315 82.822)" fill="#fafafa"/>
            <rect id="Rectángulo_216896" data-name="Rectángulo 216896" width="140.395" height="148.766" transform="translate(217.777 4.108)" fill="#fafafa"/>
            <path id="Trazado_239065" data-name="Trazado 239065" d="M318.209,152.178s-.011-.244-.016-.708-.009-1.161-.016-2.062c-.007-1.827-.018-4.512-.032-8.01-.017-7.009-.042-17.264-.074-30.3-.034-26.05-.083-63.207-.141-107.687l.278.278-140.381.04h-.013l.319-.319c-.016,54.645-.032,105.744-.045,148.766l-.273-.273,101.751.14,28.517.071,7.525.032c1.707.01,2.6.031,2.6.031s-.855.021-2.542.031l-7.473.032-28.454.071-101.925.14h-.273v-.273c-.013-43.022-.029-94.121-.045-148.766v-.32h.332l140.381.04h.279v.279c-.058,44.554-.107,81.771-.141,107.866-.032,13.009-.056,23.241-.073,30.235-.014,3.475-.025,6.143-.032,7.956-.007.888-.012,1.565-.016,2.033s-.016.676-.016.676" transform="translate(39.963 0.696)" fill="#e0e0e0"/>
            <path id="Trazado_239066" data-name="Trazado 239066" d="M206.409,56.909a13.033,13.033,0,0,0,14.471,3.574c8.892-3.312-2.252-16.729-10.549-12.727s-3.923,9.153-3.923,9.153" transform="translate(46.213 10.586)" fill="#ebebeb"/>
            <path id="Trazado_239067" data-name="Trazado 239067" d="M268.654,59.221a13.033,13.033,0,0,1-14.471,3.574c-8.892-3.312,2.252-16.729,10.549-12.727s3.923,9.153,3.923,9.153" transform="translate(56.491 11.106)" fill="#ebebeb"/>
            <path id="Trazado_239068" data-name="Trazado 239068" d="M235.5,47.246s-16.71-18.339-31.79-14.671-9.169,16.914-4.075,19.97,6.52,3.056,6.52,3.056-.611,4.282,4.076,7.134c0,0,5.321-7.346,5.234-12.663a12.9,12.9,0,0,0-7.672,1.654s-13.6-6.275-7.236-13.162,19.964,3.4,19.964,3.4,8.282,6.278,9.763,9.5Z" transform="translate(43.699 7.225)" fill="#e0e0e0"/>
            <path id="Trazado_239069" data-name="Trazado 239069" d="M243.7,49.558s16.71-18.34,31.79-14.672,9.169,16.914,4.075,19.971-6.52,3.057-6.52,3.057.611,4.279-4.076,7.132c0,0-5.321-7.346-5.234-12.663a12.9,12.9,0,0,1,7.672,1.656s13.6-6.278,7.236-13.164-19.964,3.4-19.964,3.4-8.282,6.276-9.763,9.5Z" transform="translate(54.869 7.745)" fill="#e0e0e0"/>
            <path id="Trazado_239070" data-name="Trazado 239070" d="M237.873,115.125h5.371s6.209-16.112,7.384-21.819-6.377-13.091-6.377-13.091S250.8,73,252.016,70.482s.925-21.358.925-21.358L250.963,44.6H226.293L223.73,48.65s-1.219,19.314,0,21.832,7.765,9.734,7.765,9.734-7.552,7.385-6.377,13.091,7.384,21.819,7.384,21.819Z" transform="translate(50.25 10.041)" fill="#e0e0e0"/>
            <path id="Trazado_239071" data-name="Trazado 239071" d="M231.641,47.043s-4.4.039-4.523,4.324,0,12.876,0,12.876,8.213,7.242,7.618,6.765l.031,11.309s-7.172,2.976-5.982,12.618a67.623,67.623,0,0,0,5.438,18.468l5.284.049s4.4-13.4,4.4-20.183a13.86,13.86,0,0,0-5.358-10.6V70.532l8.1-6.9V50.891s-.358-4.154-3.929-3.982-11.07.134-11.07.134" transform="translate(51.123 10.56)" fill="#ebebeb"/>
            <path id="Trazado_239072" data-name="Trazado 239072" d="M280.925,13.666c0,.176-20.094.319-44.875.319s-44.88-.142-44.88-.319,20.09-.319,44.88-.319,44.875.142,44.875.319" transform="translate(43.042 3.005)" fill="#e0e0e0"/>
            <path id="Trazado_239073" data-name="Trazado 239073" d="M227.242,19.633c0,.176-8,.319-17.869.319s-17.871-.142-17.871-.319,8-.319,17.871-.319,17.869.142,17.869.319" transform="translate(43.116 4.348)" fill="#e0e0e0"/>
            <path id="Trazado_239074" data-name="Trazado 239074" d="M264.108,74.479a12.242,12.242,0,0,1-2.795.225c-1.725.058-4.108.093-6.741.093s-5.019-.036-6.746-.093a12.229,12.229,0,0,1-2.792-.225,12.23,12.23,0,0,1,2.792-.225c1.726-.058,4.11-.093,6.746-.093s5.016.036,6.741.093a12.242,12.242,0,0,1,2.795.225" transform="translate(55.169 16.697)" fill="#e0e0e0"/>
            <path id="Trazado_239075" data-name="Trazado 239075" d="M284,80.443a4.343,4.343,0,0,1-.048-.673c-.015-.493-.033-1.1-.056-1.832-.029-1.648-.071-3.871-.121-6.578l.225.225c-5.622.059-13.4.094-21.985.094-.285.285.386-.388.317-.319v1.186q0,.592,0,1.176,0,1.169,0,2.309c0,1.518-.007,2.993-.01,4.409l-.305-.305c6.314.02,11.764.085,15.675.145l4.6.085a16.352,16.352,0,0,1,1.71.076,11.851,11.851,0,0,1-1.573.076L277.9,80.6c-3.893.06-9.437.125-15.882.145h-.305v-.306c0-1.416-.007-2.891-.011-4.409q0-1.139,0-2.309,0-.584,0-1.176V71.362c-.07.069.605-.605.321-.32,8.588,0,16.363.036,21.985.093l.229,0,0,.223c-.05,2.763-.092,5.033-.121,6.714-.023.714-.042,1.3-.056,1.781a2.567,2.567,0,0,1-.048.587" transform="translate(58.919 15.979)" fill="#e0e0e0"/>
            <path id="Trazado_239076" data-name="Trazado 239076" d="M218.137,78.957a4.336,4.336,0,0,1-.048-.673c-.015-.493-.033-1.1-.056-1.832-.029-1.648-.071-3.871-.121-6.578l.225.225c-5.622.059-13.4.094-21.985.094-.285.284.386-.39.317-.319v1.186c0,.395,0,.787,0,1.176q0,1.169,0,2.309c0,1.518-.007,2.993-.01,4.409l-.305-.305c6.314.02,11.764.085,15.675.145l4.6.085a16.354,16.354,0,0,1,1.71.076,11.847,11.847,0,0,1-1.573.076l-4.532.085c-3.894.06-9.437.125-15.882.145h-.305v-.306c0-1.416-.007-2.891-.011-4.409q0-1.139,0-2.309,0-.584,0-1.176V69.876c-.07.069.605-.605.321-.32,8.588,0,16.363.036,21.985.093l.229,0,0,.223c-.05,2.763-.092,5.032-.121,6.714-.023.714-.042,1.3-.056,1.781a2.566,2.566,0,0,1-.048.587" transform="translate(44.09 15.644)" fill="#e0e0e0"/>
            <path id="Trazado_239077" data-name="Trazado 239077" d="M219.781,111.079a4.344,4.344,0,0,1-.048-.673c-.015-.493-.033-1.1-.056-1.832-.031-1.648-.071-3.871-.121-6.578l.225.225c-5.622.059-13.4.094-21.985.094-.287.284.386-.388.317-.319v1.186c0,.393,0,.785,0,1.176q0,1.169,0,2.309c0,1.518-.007,2.993-.01,4.409l-.305-.305c6.314.02,11.764.085,15.675.145l4.6.085a16.345,16.345,0,0,1,1.71.076,11.849,11.849,0,0,1-1.573.076l-4.532.085c-3.894.06-9.437.125-15.882.145h-.305v-.306c0-1.416-.007-2.891-.011-4.409q0-1.139,0-2.309,0-.586,0-1.176V102c-.07.069.605-.605.321-.32,8.588,0,16.363.036,21.985.093l.229,0,0,.223c-.05,2.763-.092,5.033-.123,6.714-.022.714-.04,1.3-.055,1.781a2.564,2.564,0,0,1-.048.587" transform="translate(44.46 22.877)" fill="#e0e0e0"/>
            <path id="Trazado_239078" data-name="Trazado 239078" d="M227.787,93.68c.114.135-2.16,2.241-5.078,4.7s-5.378,4.351-5.491,4.216,2.16-2.24,5.079-4.7,5.376-4.349,5.49-4.215" transform="translate(48.905 21.09)" fill="#e0e0e0"/>
            <path id="Trazado_239079" data-name="Trazado 239079" d="M205.733,58.442c.176.009.176,2.882,0,6.416s-.459,6.394-.635,6.384-.176-2.88,0-6.416.459-6.393.637-6.384" transform="translate(46.147 13.158)" fill="#e0e0e0"/>
            <rect id="Rectángulo_216897" data-name="Rectángulo 216897" width="15.45" height="27.856" transform="translate(426.225 465.44)" fill="#e0e0e0"/>
            <rect id="Rectángulo_216898" data-name="Rectángulo 216898" width="15.45" height="27.856" transform="translate(494.499 465.44)" fill="#e0e0e0"/>
            <rect id="Rectángulo_216899" data-name="Rectángulo 216899" width="127.967" height="166.989" transform="translate(392.274 298.451)" fill="#e0e0e0"/>
            <rect id="Rectángulo_216900" data-name="Rectángulo 216900" width="124.648" height="166.989" transform="translate(368.832 298.451)" fill="#f5f5f5"/>
            <rect id="Rectángulo_216901" data-name="Rectángulo 216901" width="15.45" height="27.856" transform="translate(379.85 465.44)" fill="#f5f5f5"/>
            <rect id="Rectángulo_216902" data-name="Rectángulo 216902" width="15.45" height="27.856" transform="translate(468.689 465.44)" fill="#f5f5f5"/>
            <path id="Trazado_239080" data-name="Trazado 239080" d="M414.4,371.956s-.012-.256-.018-.738-.01-1.206-.018-2.134c-.01-1.882-.025-4.635-.043-8.184-.022-7.106-.054-17.387-.094-30.166l.174.174-106.97.078h-.007l.252-.252c0,14.406-.007,28.333-.01,41.221l-.243-.243,76.632.114,22.285.067,5.974.031,1.55.016c.35,0,.537.015.537.015s-.165.01-.506.015l-1.522.016-5.924.031c-5.2.015-12.75.038-22.229.067l-76.8.113h-.243v-.243c0-12.889-.006-26.815-.01-41.221v-.252h.26l106.97.078h.174v.174c-.04,12.822-.072,23.141-.094,30.271-.018,3.532-.033,6.272-.043,8.145-.009.915-.015,1.615-.02,2.1,0,.472-.017.7-.017.7" transform="translate(69.159 74.407)" fill="#e0e0e0"/>
            <path id="Trazado_239081" data-name="Trazado 239081" d="M354.909,348.144c-.044,0-.05-.288-.2-.764a3.227,3.227,0,0,0-1.188-1.661,3.062,3.062,0,0,0-2.868-.391,3,3,0,0,0,0,5.632,3.065,3.065,0,0,0,2.868-.39,3.224,3.224,0,0,0,1.188-1.661c.146-.478.152-.766.2-.765a1.5,1.5,0,0,1-.006.812,3.221,3.221,0,0,1-1.161,1.9,3.4,3.4,0,0,1-3.243.543,3.448,3.448,0,0,1,0-6.506,3.4,3.4,0,0,1,3.243.543,3.219,3.219,0,0,1,1.161,1.9,1.5,1.5,0,0,1,.006.814" transform="translate(78.395 77.608)" fill="#e0e0e0"/>
            <path id="Trazado_239082" data-name="Trazado 239082" d="M414.4,331.663s-.012-.256-.018-.738-.01-1.206-.018-2.134c-.01-1.882-.025-4.635-.043-8.184-.022-7.106-.054-17.387-.094-30.166l.174.174-106.97.078h-.007l.252-.252c0,14.408-.007,28.333-.01,41.221l-.243-.243,76.632.114,22.285.067,5.974.031,1.55.016c.35,0,.537.015.537.015s-.165.01-.506.015l-1.522.016-5.924.031-22.229.067-76.8.114h-.243v-.243c0-12.889-.006-26.814-.01-41.221v-.252h.26l106.97.078h.174v.174c-.04,12.822-.072,23.141-.094,30.271-.018,3.532-.033,6.272-.043,8.146q-.013,1.371-.02,2.1c0,.472-.017.7-.017.7" transform="translate(69.159 65.335)" fill="#e0e0e0"/>
            <path id="Trazado_239083" data-name="Trazado 239083" d="M354.909,307.851c-.044,0-.05-.288-.2-.764a3.226,3.226,0,0,0-1.188-1.661,3.059,3.059,0,0,0-2.868-.39,3,3,0,0,0,0,5.631,3.066,3.066,0,0,0,2.868-.39,3.224,3.224,0,0,0,1.188-1.661c.146-.478.152-.766.2-.765a1.5,1.5,0,0,1-.006.812,3.221,3.221,0,0,1-1.161,1.9,3.4,3.4,0,0,1-3.243.543,3.448,3.448,0,0,1,0-6.506,3.4,3.4,0,0,1,3.243.543,3.221,3.221,0,0,1,1.161,1.9,1.5,1.5,0,0,1,.006.812" transform="translate(78.395 68.536)" fill="#e0e0e0"/>
            <path id="Trazado_239084" data-name="Trazado 239084" d="M414.4,291.914s-.012-.256-.018-.738-.01-1.206-.018-2.134c-.01-1.882-.025-4.635-.043-8.184-.022-7.106-.054-17.387-.094-30.166l.174.174-106.97.078h-.007l.252-.252c0,14.408-.007,28.333-.01,41.221l-.243-.243,76.632.114,22.285.067,5.974.031,1.55.016c.35,0,.537.015.537.015s-.165.01-.506.015l-1.522.016-5.924.031-22.229.067-76.8.114h-.243v-.243c0-12.889-.006-26.814-.01-41.221v-.252h.26l106.97.078h.174v.174c-.04,12.822-.072,23.141-.094,30.27-.018,3.533-.033,6.273-.043,8.146-.009.915-.015,1.615-.02,2.1,0,.472-.017.7-.017.7" transform="translate(69.159 56.386)" fill="#e0e0e0"/>
            <path id="Trazado_239085" data-name="Trazado 239085" d="M354.909,268.1c-.044,0-.05-.288-.2-.764a3.226,3.226,0,0,0-1.188-1.661,3.062,3.062,0,0,0-2.868-.39,3,3,0,0,0,0,5.631,3.062,3.062,0,0,0,2.868-.39,3.219,3.219,0,0,0,1.188-1.661c.146-.478.152-.766.2-.764a1.5,1.5,0,0,1-.006.812,3.221,3.221,0,0,1-1.161,1.9,3.4,3.4,0,0,1-3.243.543,3.448,3.448,0,0,1,0-6.506,3.4,3.4,0,0,1,3.243.543,3.221,3.221,0,0,1,1.161,1.9,1.5,1.5,0,0,1,.006.812" transform="translate(78.395 59.587)" fill="#e0e0e0"/>
            <path id="Trazado_239086" data-name="Trazado 239086" d="M413.356,243.674c0,.209-19.408.379-43.343.379s-43.347-.169-43.347-.379,19.4-.379,43.347-.379,43.343.17,43.343.379" transform="translate(73.548 54.777)" fill="#e0e0e0"/>
            <path id="Trazado_239087" data-name="Trazado 239087" d="M115.432,80l-8.92-15.721A42.126,42.126,0,1,0,96.423,75.506l-.013.02Z" transform="translate(6.448 0.048)" fill="#fff"/>
            <path id="Trazado_239088" data-name="Trazado 239088" d="M115.483,80.052l-19.06-4.325a.158.158,0,0,1-.089-.251l.013-.02.224.223a42.028,42.028,0,0,1-20.2,8.527,37.932,37.932,0,0,1-6.666.339c-1.147-.065-2.316-.092-3.493-.19l-3.558-.537A42.486,42.486,0,0,1,36.337,66.931,42.028,42.028,0,0,1,29.215,50.66a42.958,42.958,0,0,1,.5-18.739A41.544,41.544,0,0,1,38.74,14.6,42.308,42.308,0,0,1,54.97,3.01,42.99,42.99,0,0,1,73.852.11,41.559,41.559,0,0,1,91.181,5.235a42.716,42.716,0,0,1,19.983,24.6,45.474,45.474,0,0,1,1.824,13.7,41.9,41.9,0,0,1-6.3,20.878l0-.156c5.573,10.019,8.261,14.852,8.787,15.8-.54-.935-3.31-5.72-9.053-15.645a.151.151,0,0,1,0-.156,41.808,41.808,0,0,0,6.115-20.729,45.166,45.166,0,0,0-1.859-13.537A42.263,42.263,0,0,0,90.9,5.747,41.026,41.026,0,0,0,73.807.723,42.407,42.407,0,0,0,55.206,3.6,41.714,41.714,0,0,0,39.221,15.016a40.963,40.963,0,0,0-8.9,17.061,42.343,42.343,0,0,0-.5,18.463,41.406,41.406,0,0,0,7,16.049A42.017,42.017,0,0,0,62.754,83.326l3.514.543c1.164.1,2.318.132,3.452.2a37.674,37.674,0,0,0,6.6-.308,41.917,41.917,0,0,0,20.061-8.333.158.158,0,0,1,.223.222l-.013.018-.089-.251,18.986,4.635" transform="translate(6.397 0)" fill="#263238"/>
            <path id="Trazado_239089" data-name="Trazado 239089" d="M154.871,369.636l-1.818,30.272,5.467,24.357a3.108,3.108,0,0,1-5.257,2.85c-4.461-4.608-20.5-21.49-20.433-23.379.086-2.447-.3-32.523-.3-32.523Z" transform="translate(29.84 83.223)" fill="#ff725e"/>
            <path id="Trazado_239090" data-name="Trazado 239090" d="M155.918,422.391,132.781,394.63l-.059,2.253c0,1.237-.07,1.9.617,2.771a261.2,261.2,0,0,0,19.525,22.3c.718.747,2.033.62,3.053.435" transform="translate(29.882 88.85)" fill="#263238"/>
            <path id="Trazado_239091" data-name="Trazado 239091" d="M138.646,387.69a1.88,1.88,0,0,1,.423,2.472,1.806,1.806,0,0,1-2.447.441,1.982,1.982,0,0,1-.435-2.621,1.876,1.876,0,0,1,2.6-.176" transform="translate(30.589 87.213)" fill="#fff"/>
            <path id="Trazado_239092" data-name="Trazado 239092" d="M146.408,406.879c.168.091.91-1.471,2.746-2.258,1.81-.842,3.468-.353,3.514-.539.028-.072-.347-.322-1.052-.448a4.952,4.952,0,0,0-4.841,2.162c-.376.61-.44,1.056-.366,1.083" transform="translate(32.957 90.863)" fill="#263238"/>
            <path id="Trazado_239093" data-name="Trazado 239093" d="M148.045,410.019c.14.136,1.148-.812,2.732-1.2,1.577-.426,2.918-.085,2.973-.272.093-.152-1.342-.849-3.141-.374-1.8.456-2.72,1.762-2.564,1.849" transform="translate(33.328 91.862)" fill="#263238"/>
            <path id="Trazado_239094" data-name="Trazado 239094" d="M143.283,402.512c.137.148,1.682-1.318,4.092-2.143,2.4-.861,4.521-.679,4.534-.881.055-.159-2.181-.664-4.755.252-2.583.891-4.015,2.681-3.871,2.771" transform="translate(32.258 89.88)" fill="#263238"/>
            <path id="Trazado_239095" data-name="Trazado 239095" d="M143.1,394.56c.075.185,1.774-.452,3.956-.45,2.182-.028,3.889.589,3.961.4.089-.145-1.621-1.094-3.965-1.07-2.345,0-4.043.972-3.952,1.116" transform="translate(32.219 88.583)" fill="#263238"/>
            <path id="Trazado_239096" data-name="Trazado 239096" d="M143.357,387.322c.087.179,1.808-.769,4.105-.578,2.3.14,3.869,1.322,3.98,1.158.053-.061-.265-.455-.948-.883a6.777,6.777,0,0,0-6.073-.436c-.738.328-1.108.671-1.065.74" transform="translate(32.276 86.921)" fill="#263238"/>
            <path id="Trazado_239097" data-name="Trazado 239097" d="M147.47,386.347a2.6,2.6,0,0,0,.085-1.144,7.988,7.988,0,0,0-.8-3.037,3.541,3.541,0,0,0-1.452-1.742,1.252,1.252,0,0,0-1.418.225,2.039,2.039,0,0,0-.529,1.351,4.391,4.391,0,0,0,3.7,4.2,5.1,5.1,0,0,0,5.1-2.477,1.766,1.766,0,0,0,.137-1.467,1.225,1.225,0,0,0-1.257-.7,4.35,4.35,0,0,0-2.035.964,8.85,8.85,0,0,0-2.155,2.278,2.694,2.694,0,0,0-.5,1.03,14.116,14.116,0,0,1,2.932-2.923,4.054,4.054,0,0,1,1.795-.8.654.654,0,0,1,.687.375,1.215,1.215,0,0,1-.147.959,4.547,4.547,0,0,1-4.446,2.1,3.813,3.813,0,0,1-3.189-3.522,1.472,1.472,0,0,1,.331-.959.677.677,0,0,1,.779-.136,3.191,3.191,0,0,1,1.257,1.453,11.778,11.778,0,0,1,1.134,3.966" transform="translate(32.276 85.623)" fill="#263238"/>
            <path id="Trazado_239098" data-name="Trazado 239098" d="M114.981,371.023l1.039,25.047s-25.111,9.468-25.369,14.115l48.637-.27-.017-39.092Z" transform="translate(20.41 83.49)" fill="#ff725e"/>
            <path id="Trazado_239099" data-name="Trazado 239099" d="M124.059,389.657a1.986,1.986,0,0,1,1.386,2.259,1.909,1.909,0,0,1-2.227,1.393,2.1,2.1,0,0,1-1.454-2.4,1.981,1.981,0,0,1,2.477-1.192" transform="translate(27.399 87.712)" fill="#fff"/>
            <path id="Trazado_239100" data-name="Trazado 239100" d="M139.288,403.384v-3.555L92.4,401.18s-1.652,1.117-1.747,2.472Z" transform="translate(20.41 90.02)" fill="#263238"/>
            <path id="Trazado_239101" data-name="Trazado 239101" d="M110.714,391.272c.007.238,1.2.338,2.368,1.1,1.193.725,1.8,1.752,2.019,1.656.219-.048-.143-1.465-1.578-2.357s-2.863-.614-2.809-.4" transform="translate(24.927 88.043)" fill="#263238"/>
            <path id="Trazado_239102" data-name="Trazado 239102" d="M106.559,392.994c-.053.23.978.629,1.79,1.628.842.976,1.051,2.062,1.288,2.05.223.037.38-1.355-.653-2.58s-2.421-1.324-2.425-1.1" transform="translate(23.991 88.46)" fill="#263238"/>
            <path id="Trazado_239103" data-name="Trazado 239103" d="M104.575,398.724c.216.049.54-1.139-.077-2.436s-1.731-1.809-1.83-1.611c-.132.2.592.891,1.082,1.963.516,1.061.589,2.062.826,2.084" transform="translate(23.112 88.851)" fill="#263238"/>
            <path id="Trazado_239104" data-name="Trazado 239104" d="M111.039,386.71c.1.216,1.188-.118,2.531-.034,1.345.056,2.391.5,2.515.3.136-.172-.888-1.045-2.472-1.122s-2.692.674-2.574.86" transform="translate(24.998 86.872)" fill="#263238"/>
            <path id="Trazado_239105" data-name="Trazado 239105" d="M95.853,275.545S108.43,389.861,112.64,408.1h50.044s14.448-100.167,16.786-127.761Z" transform="translate(21.581 62.038)" fill="#263238"/>
            <path id="Trazado_239106" data-name="Trazado 239106" d="M131.715,287.226c.176,0,.319,26.472.319,59.119s-.142,59.126-.319,59.126S131.4,379,131.4,346.345s.142-59.119.319-59.119" transform="translate(29.583 64.668)" fill="#455a64"/>
            <path id="Trazado_239107" data-name="Trazado 239107" d="M117.607,33.526,106.79,66.111c-2.322,6.993-4.673,14.051-8.477,20.361C96.6,89.3,94.573,92.061,93.9,95.3c-.665,3.194.055,6.6-.918,9.718-.994,3.18-3.585,5.56-5.389,8.362s-2.677,6.857-.342,9.233c0,0,23.933,4.217,24.558,4.634s5.8-93.72,5.8-93.72" transform="translate(19.325 7.548)" fill="#263238"/>
            <path id="Trazado_239108" data-name="Trazado 239108" d="M132.415,76.151l-10.58,12.294L97.247,97.216S87.24,197.35,84.954,210.088,74.489,324.013,74.489,324.013s71.935,14.606,102.241,9.746,30.879-16.3,30.879-16.3l-2.287-123.514-1.567-32.6s1.283-4.278,1.854-19.432,1.214-37.716-3.647-41.147-28.947-10.318-28.947-10.318L163.007,80.44Z" transform="translate(16.771 17.145)" fill="#fff"/>
            <path id="Trazado_239109" data-name="Trazado 239109" d="M132.476,76.151s.664.072,1.98.246l5.862.79c5.187.711,12.843,1.762,22.768,3.124l.043,0,.032.032,10.024,9.989-.066-.039c5.5,1.589,11.494,3.4,17.9,5.605a83.914,83.914,0,0,1,9.8,3.923c.408.208.8.47,1.2.7a4.83,4.83,0,0,1,.565.452c.16.179.316.364.466.551a9.5,9.5,0,0,1,1.229,2.563,31.176,31.176,0,0,1,1.2,5.623c.97,7.717.866,15.961.673,24.594-.125,4.319-.256,8.743-.516,13.268-.13,2.263-.3,4.548-.53,6.856a54.839,54.839,0,0,1-1.05,6.977l.01-.083q.535,10.969,1.105,22.675c.165,3.9.44,7.854.521,11.87s.154,8.09.233,12.216c.312,16.506.641,33.868.983,51.934s.691,36.838,1.054,56.161a7.515,7.515,0,0,1-.076,1.872,7.907,7.907,0,0,1-.682,1.758,13.493,13.493,0,0,1-2.175,3.018,23.978,23.978,0,0,1-5.925,4.413,56.919,56.919,0,0,1-13.91,5.126c-1.213.273-2.417.608-3.644.831l-3.685.679c-1.223.268-2.482.331-3.727.494-1.25.132-2.5.3-3.751.4-2.513.083-5.034.251-7.56.266-2.525-.038-5.06-.015-7.6-.1-14.084-.545-27.9-2.112-41.378-3.981-13.475-1.921-26.625-4.135-39.364-6.645l-.27-.054.022-.276c2.03-24.842,4.042-48.629,6.06-71.034,1.021-11.2,2.023-22.061,3.145-32.525q.415-3.924.924-7.77c.355-2.577.8-5.073,1.111-7.587.673-5.013,1.236-9.945,1.8-14.767,4.354-38.6,7.548-70.508,9.883-93.1l.01-.094.089-.032,24.607-8.716-.038.026L129.88,79.1c.87-1,1.517-1.736,1.952-2.235s.644-.717.644-.717-.2.257-.626.76l-1.927,2.275L121.967,88.5l-.016.02-.023.007L97.358,97.357l.1-.126c-2.257,22.6-5.381,54.517-9.681,93.131-.553,4.825-1.11,9.756-1.778,14.779-.308,2.512-.756,5.052-1.1,7.591s-.638,5.141-.911,7.755c-1.11,10.458-2.1,21.316-3.112,32.518-2,22.4-3.994,46.191-6.013,71.033l-.247-.33c12.719,2.5,25.868,4.711,39.328,6.627,13.464,1.863,27.266,3.427,41.311,3.97,2.529.088,5.054.066,7.57.1,2.515-.016,5.019-.183,7.52-.265,1.245-.1,2.481-.268,3.72-.4,1.235-.162,2.48-.222,3.7-.489l3.664-.675c1.22-.22,2.414-.554,3.619-.823A56.4,56.4,0,0,0,198.8,326.7a23.332,23.332,0,0,0,5.774-4.294,12.788,12.788,0,0,0,2.072-2.869,5.152,5.152,0,0,0,.691-3.354c-.353-19.318-.7-38.085-1.027-56.146s-.642-35.42-.94-51.923q-.112-6.188-.22-12.213c-.076-4.016-.347-7.97-.506-11.868q-.555-11.7-1.076-22.673v-.034l.012-.05a55.2,55.2,0,0,0,1.041-6.883q.345-3.448.538-6.834c.267-4.513.406-8.937.538-13.252.208-8.621.326-16.858-.624-24.526a30.868,30.868,0,0,0-1.174-5.549,9.126,9.126,0,0,0-1.168-2.459,5.589,5.589,0,0,0-2.091-1.6,83.7,83.7,0,0,0-9.733-3.925c-6.393-2.214-12.386-4.045-17.87-5.652l-.039-.011-.028-.028-9.989-10.024.074.037-22.7-3.25-5.872-.856c-1.322-.195-2-.311-2-.311" transform="translate(16.71 17.145)" fill="#263238"/>
            <path id="Trazado_239110" data-name="Trazado 239110" d="M103.883,112.308l.285,28.591-3.215,29.723,25.516,2.871L124.7,207.345s-32.841-.361-48.566-6.651-11.988-17.479-10.845-28.916,18.3-68.047,23.444-72.05,13.161-6.383,13.161-6.383Z" transform="translate(14.425 21.016)" fill="#fff"/>
            <path id="Trazado_239111" data-name="Trazado 239111" d="M188.178,110.683c-3.43-16.869-10.007-15.153-10.007-15.153l4.423,71.751-15.044,3.157-1.674,13.554c-.285,14.7,14.454,19.661,14.454,19.661s21.571-14.344,23-23.493-11.723-52.608-15.154-69.477" transform="translate(37.346 21.497)" fill="#fff"/>
            <path id="Trazado_239112" data-name="Trazado 239112" d="M124.173,76.151a12.22,12.22,0,0,0-2.859,9.435c.572,6,5.432,16.011,8.006,19.442s17.727,34.024,17.727,34.024l8.005-41.835.506-13.7-3.079-3.078Z" transform="translate(27.299 17.145)" fill="#ff725e"/>
            <path id="Trazado_239113" data-name="Trazado 239113" d="M145.533,135.988a4.1,4.1,0,0,1-.7-.451l-1.922-1.393-7-5.218-10.326-7.8-6.085-4.634a5.486,5.486,0,0,1-2.379-3.425,9.334,9.334,0,0,1,.825-4.2,53.173,53.173,0,0,1,4.206-7.881l.377.457-10.906,4.841-.445.2.055-.474c.68-5.881,1.247-10.8,1.655-14.328.212-1.67.381-3.01.507-4.005a9.058,9.058,0,0,1,.236-1.41,9.239,9.239,0,0,1-.07,1.429c-.088,1-.207,2.344-.357,4.02-.352,3.538-.842,8.463-1.429,14.354l-.388-.277,10.911-4.925.908-.409-.53.866a53.6,53.6,0,0,0-4.136,7.777,8.831,8.831,0,0,0-.791,3.884A4.9,4.9,0,0,0,119.9,116l6.052,4.656c3.842,2.966,7.309,5.645,10.243,7.912l6.872,5.378,1.849,1.487a4.088,4.088,0,0,1,.619.554" transform="translate(25.033 19.421)" fill="#263238"/>
            <path id="Trazado_239114" data-name="Trazado 239114" d="M142.306,136.425a3.378,3.378,0,0,1,.393-.649l1.225-1.791,4.561-6.542c1.925-2.764,4.216-6.055,6.7-9.742,1.237-1.849,2.542-3.787,3.83-5.832.652-1.018,1.293-2.069,1.9-3.147a7.044,7.044,0,0,0,1.24-3.362,5.934,5.934,0,0,0-2.349-4.03,17.732,17.732,0,0,0-3.971-2.589L154.331,98l1.667.157,11.828,1.11-.218.425c-2.982-3.538-5.453-6.471-7.237-8.59L158.4,88.7a5.836,5.836,0,0,1-.653-.878,5.869,5.869,0,0,1,.771.778l2.078,2.311c1.825,2.082,4.354,4.964,7.4,8.445l.421.48-.64-.055-11.836-1.012.153-.587a18.175,18.175,0,0,1,4.136,2.676,9.307,9.307,0,0,1,1.718,1.935,4.8,4.8,0,0,1,.85,2.554,3.016,3.016,0,0,1-.113,1.028l-.124.5-.2.447a16.867,16.867,0,0,1-.883,1.71c-.625,1.1-1.272,2.15-1.93,3.171-1.3,2.051-2.618,3.984-3.871,5.827-2.519,3.677-4.85,6.942-6.822,9.674s-3.595,4.923-4.729,6.427l-1.322,1.721a3.4,3.4,0,0,1-.5.573" transform="translate(32.04 19.772)" fill="#263238"/>
            <path id="Trazado_239115" data-name="Trazado 239115" d="M143.836,323.38c-.176,0-.828-43.98-1.455-98.226-.629-54.263-.995-98.24-.818-98.242s.828,43.972,1.455,98.235c.628,54.246.995,98.231.818,98.234" transform="translate(31.862 28.574)" fill="#263238"/>
            <path id="Trazado_239116" data-name="Trazado 239116" d="M179.236,154.836a6.15,6.15,0,0,1,2.086-1.794,12.3,12.3,0,0,1,12.8-.085,6.193,6.193,0,0,1,2.112,1.764c-.07.082-.859-.61-2.331-1.37a13.074,13.074,0,0,0-12.351.082c-1.463.78-2.243,1.482-2.312,1.4" transform="translate(40.354 34.043)" fill="#263238"/>
            <path id="Trazado_239117" data-name="Trazado 239117" d="M196.845,161.916c-.094.054-.648-.973-1.866-2.363a15.853,15.853,0,0,0-12.746-5.472c-1.846.074-2.971.38-3,.274a7.556,7.556,0,0,1,2.967-.725,14.819,14.819,0,0,1,13.125,5.636,7.548,7.548,0,0,1,1.518,2.65" transform="translate(40.354 34.573)" fill="#263238"/>
            <path id="Trazado_239118" data-name="Trazado 239118" d="M71.351,160.089c-.027-.036.285-.306.876-.769a19.453,19.453,0,0,1,2.665-1.734,26.117,26.117,0,0,1,4.321-1.906,27.625,27.625,0,0,1,11.44-1.323,26.148,26.148,0,0,1,4.643.87,19.622,19.622,0,0,1,2.989,1.079,4.06,4.06,0,0,1,1.028.55c-.047.111-1.56-.57-4.131-1.192a29.588,29.588,0,0,0-4.58-.722,29.519,29.519,0,0,0-11.208,1.3,29.62,29.62,0,0,0-4.293,1.747c-2.363,1.195-3.68,2.2-3.751,2.1" transform="translate(16.064 34.728)" fill="#263238"/>
            <path id="Trazado_239119" data-name="Trazado 239119" d="M78.785,148.258c0-.044.305-.1.872-.17a13.3,13.3,0,0,1,2.42-.05,19.436,19.436,0,0,1,13.845,7.176,13.491,13.491,0,0,1,1.353,2.006c.272.5.4.789.364.811-.1.059-.736-1.025-2.062-2.526a21.286,21.286,0,0,0-13.539-7.016c-1.99-.218-3.244-.114-3.253-.229" transform="translate(17.738 33.324)" fill="#263238"/>
            <path id="Trazado_239120" data-name="Trazado 239120" d="M116.258,165.686a9.861,9.861,0,0,1-1.671-.091l-4.611-.455L94.2,163.385l-.3-.033.026-.3c.2-2.265.431-4.676.719-7.154.923-8.063,1.987-15.328,2.806-20.579.41-2.626.763-4.746,1.025-6.21.126-.669.232-1.224.319-1.681a2.114,2.114,0,0,1,.156-.579,2.141,2.141,0,0,1-.028.6c-.055.462-.121,1.023-.2,1.7-.207,1.572-.486,3.678-.825,6.237-.7,5.264-1.7,12.536-2.618,20.586-.287,2.474-.524,4.877-.736,7.134l-.272-.333,15.75,1.977,4.589.636a9.791,9.791,0,0,1,1.647.3" transform="translate(21.142 28.56)" fill="#263238"/>
            <path id="Trazado_239121" data-name="Trazado 239121" d="M98.164,94.518a3.277,3.277,0,0,1-.5.165l-1.48.444a17.132,17.132,0,0,0-5.311,2.529c-2.08,1.528-3.776,4.273-5.235,7.617-1.408,3.365-2.668,7.364-4.094,11.753-2.815,8.8-6.025,19.321-9.47,31.039-3.108,11.753-8.375,24.5-7.393,38.721.012.407.025.813.036,1.207l-.006-.051a17.358,17.358,0,0,0,4.3,8.308,22.871,22.871,0,0,0,7.944,4.61,60.285,60.285,0,0,0,8.73,2.3c2.907.584,5.773,1.083,8.587,1.47s5.571.629,8.276.78l7.885.508,14.288.931-.249.218c.777-10.281,1.406-18.623,1.845-24.429.232-2.861.412-5.094.537-6.648.067-.736.119-1.31.157-1.729.039-.39.077-.588.077-.588s.009.2-.009.593c-.021.42-.051.995-.089,1.734-.1,1.555-.234,3.792-.412,6.656-.388,5.81-.947,14.157-1.636,24.445l-.016.233-.233-.015-14.291-.863q-3.828-.232-7.886-.48c-2.7-.142-5.5-.369-8.324-.761s-5.708-.876-8.628-1.457a60.528,60.528,0,0,1-8.825-2.311,23.363,23.363,0,0,1-8.18-4.751,17.95,17.95,0,0,1-4.474-8.621l-.006-.026v-.027c-.012-.4-.025-.809-.037-1.22-.11-7.036.189-14.065,2.2-20.462,1.734-6.425,3.536-12.579,5.266-18.438,3.477-11.715,6.732-22.228,9.605-31.013,1.457-4.387,2.742-8.365,4.2-11.76,1.495-3.345,3.255-6.134,5.41-7.668A16.585,16.585,0,0,1,96.145,95c.654-.189,1.16-.308,1.5-.385a3.277,3.277,0,0,1,.518-.1" transform="translate(14.414 21.28)" fill="#263238"/>
            <path id="Trazado_239122" data-name="Trazado 239122" d="M109.681,163.119c.374-.374,7.642-5.413,7.642-5.413s.418-3.484,2.285-4.107c0,0,1.37-3.112,5.849-3.112h10.828l9.333,10.454s-.372,2.613-2.862,2.365l2.563,4.812s-2.937,2.157-5.425.414-5.974-4.729-5.974-4.729l4.978,7.841s-.424,1.742-3.2.5-5.513-4.727-5.513-4.727l-8.337-.874,7.094,2.365,5.475,4.978s-.5,1.742-2.987,1.121a20.09,20.09,0,0,1-5.351-2.614l-3.733.25a5.674,5.674,0,0,1-3.112,4.107,13.8,13.8,0,0,1-6.346,1.244l-8.194,2.855c-.11-4.789,2.471-12.089,4.986-17.727" transform="translate(23.571 33.882)" fill="#ffbe9d"/>
            <path id="Trazado_239123" data-name="Trazado 239123" d="M138.92,162.494a19.864,19.864,0,0,1-1.93-2.248,26.858,26.858,0,0,0-2.175-2.316,7.889,7.889,0,0,0-3.218-1.963,31.435,31.435,0,0,0-6.922-1.4,19.234,19.234,0,0,1-2.944-.342,10.7,10.7,0,0,1,2.976-.108,25.279,25.279,0,0,1,7.1,1.246,7.612,7.612,0,0,1,1.912.893,10.743,10.743,0,0,1,1.5,1.245,20.9,20.9,0,0,1,2.123,2.461,10.492,10.492,0,0,1,1.577,2.529" transform="translate(27.407 34.694)" fill="#eb996e"/>
            <path id="Trazado_239124" data-name="Trazado 239124" d="M130.346,161.971c-.083.067-.486-.381-1.229-.958a8.534,8.534,0,0,0-3.294-1.492,20.694,20.694,0,0,0-3.688-.388c-.964-.04-1.568-.1-1.569-.19a3.92,3.92,0,0,1,1.563-.261,13.119,13.119,0,0,1,3.835.218,7.274,7.274,0,0,1,3.446,1.77c.713.706.991,1.261.936,1.3" transform="translate(27.145 35.716)" fill="#eb996e"/>
            <path id="Trazado_239125" data-name="Trazado 239125" d="M113.728,164.065c-.06.053-.388-.187-.681-.76a3.471,3.471,0,0,1,1.241-4.451c.546-.339.951-.374.975-.3.094.149-1.362.8-1.829,2.46s.451,2.971.294,3.049" transform="translate(25.373 35.691)" fill="#eb996e"/>
            <path id="Trazado_239126" data-name="Trazado 239126" d="M108.15,171.466c.115-.143.97.38,2.1.8s2.116.6,2.108.783-1.092.284-2.333-.186-1.992-1.269-1.878-1.394" transform="translate(24.347 38.6)" fill="#eb996e"/>
            <path id="Trazado_239127" data-name="Trazado 239127" d="M113.755,158.6c.02.059-.575.19-1.46.767a8.892,8.892,0,0,0-2.894,3.33,48.069,48.069,0,0,0-2.475,6.219,33.051,33.051,0,0,0-1.8,7.956,17.872,17.872,0,0,0,.674,6.7,12.231,12.231,0,0,0,2.9,4.969,10.785,10.785,0,0,0,3.691,2.513,9.664,9.664,0,0,0,2.722.665l.381.047-.35.125a3.408,3.408,0,0,1-.9.272,3.43,3.43,0,0,1,.831-.436l.029.172a8.368,8.368,0,0,1-2.842-.5,10.723,10.723,0,0,1-3.924-2.494,12.488,12.488,0,0,1-3.112-5.144,18.019,18.019,0,0,1-.734-6.933,32.037,32.037,0,0,1,1.878-8.1,43.29,43.29,0,0,1,2.637-6.247,8.612,8.612,0,0,1,3.16-3.321,5.055,5.055,0,0,1,1.157-.486,1,1,0,0,1,.432-.069" transform="translate(23.512 35.707)" fill="#263238"/>
            <path id="Trazado_239128" data-name="Trazado 239128" d="M95.5,113.869c.165-.06,1.066,2,2.01,4.61s1.577,4.768,1.41,4.828-1.065-2-2.01-4.61-1.576-4.768-1.41-4.828" transform="translate(21.495 25.637)" fill="#263238"/>
            <path id="Trazado_239129" data-name="Trazado 239129" d="M171.1,167.072a3.173,3.173,0,0,1,.7-.192l2.019-.431,7.45-1.469-.184.234c-.428-6.47-1.006-15.267-1.647-24.984-.568-9.728-1.082-18.529-1.46-25-.152-3.138-.277-5.708-.369-7.582-.028-.84-.05-1.522-.069-2.063a3.069,3.069,0,0,1,.02-.723,3.072,3.072,0,0,1,.109.714c.049.54.112,1.22.187,2.056.142,1.873.336,4.439.572,7.57.426,6.471,1.006,15.269,1.647,24.993.567,9.723,1.082,18.522,1.459,25l.012.2-.2.033-7.486,1.269-2.042.315a2.962,2.962,0,0,1-.719.065" transform="translate(38.522 23.608)" fill="#263238"/>
            <path id="Trazado_239130" data-name="Trazado 239130" d="M182.3,96.7a1.751,1.751,0,0,1,.255.3l.7.932a39.412,39.412,0,0,1,2.091,3.952c1.653,3.514,3.733,8.733,6.093,15.253s5,14.344,7.783,23.077q1.029,3.28,2.106,6.717a43.344,43.344,0,0,1,1.628,7.2,130.894,130.894,0,0,1,1.16,15.421c.049,2.65.053,5.269-.109,7.858-.036.648-.1,1.291-.2,1.946a9.625,9.625,0,0,1-.537,1.89,21.2,21.2,0,0,1-1.694,3.429,30.848,30.848,0,0,1-4.709,5.7c-1.7,1.7-3.44,3.292-5.168,4.805s-3.45,2.943-5.17,4.281q-1.283,1.009-2.6,1.911a12.1,12.1,0,0,1-1.387.826c-.455.191-.849.485-1.344.731a2.526,2.526,0,0,1-1.632.217,7.154,7.154,0,0,1-1.468-.457,20.1,20.1,0,0,1-2.648-1.245,21.7,21.7,0,0,1-4.419-3.247,21.294,21.294,0,0,1-3.2-3.82,15.765,15.765,0,0,1-1.137-2,12.887,12.887,0,0,1-.673-2.059,22.426,22.426,0,0,1-.282-7.075c.195-1.935.462-3.419.647-4.423.1-.473.17-.849.229-1.139a1.8,1.8,0,0,1,.1-.383,1.776,1.776,0,0,1-.037.4c-.042.293-.1.671-.165,1.148-.145,1.01-.371,2.5-.527,4.423a22.675,22.675,0,0,0,.381,6.971,11.181,11.181,0,0,0,1.8,3.923,21.056,21.056,0,0,0,3.168,3.716,21.311,21.311,0,0,0,4.347,3.144,19.567,19.567,0,0,0,2.594,1.2,3.2,3.2,0,0,0,2.684.241c.418-.208.856-.532,1.357-.747a11.891,11.891,0,0,0,1.3-.785c.855-.6,1.712-1.23,2.559-1.9,1.7-1.337,3.41-2.77,5.126-4.281s3.44-3.1,5.125-4.793a30.406,30.406,0,0,0,4.605-5.6c3-4.151,2.4-9.554,2.437-14.786a131.992,131.992,0,0,0-1.141-15.344,43.032,43.032,0,0,0-1.591-7.108q-1.066-3.435-2.084-6.717c-2.752-8.738-5.359-16.565-7.649-23.1s-4.315-11.768-5.893-15.3c-.773-1.775-1.487-3.1-1.975-3.988-.268-.4-.48-.714-.644-.959a1.883,1.883,0,0,1-.2-.343" transform="translate(37.285 21.772)" fill="#263238"/>
            <path id="Trazado_239131" data-name="Trazado 239131" d="M161.6,160.615l5.721-7.473s5.5-2.123,7.611,1.4c0,0,5.413.314,4.679,5.726a6.55,6.55,0,0,1,1.926,5.963l.156,14.665-5.707-2.78A5.578,5.578,0,0,1,170.969,177c-1.656-1.41-2.012-4.67-2.012-4.67s-2.856,2.134-4.12.513c-1.672-2.145,1.848-4.816,1.848-4.816s-3.4,1.485-4.5-.075a2.511,2.511,0,0,1-.1-2.907l1.377-1.927s-3.032.441-1.866-2.5" transform="translate(36.323 34.337)" fill="#ffbe9d"/>
            <path id="Trazado_239132" data-name="Trazado 239132" d="M170.129,156.19c.116.132-1.4,1.658-3.39,3.406s-3.7,3.059-3.811,2.926,1.4-1.656,3.39-3.4,3.7-3.059,3.811-2.927" transform="translate(36.681 35.164)" fill="#eb996e"/>
            <path id="Trazado_239133" data-name="Trazado 239133" d="M173.906,159.123c.119.13-1.789,2.079-4.26,4.353s-4.573,4.015-4.692,3.885,1.787-2.079,4.26-4.354,4.573-4.014,4.692-3.884" transform="translate(37.138 35.825)" fill="#eb996e"/>
            <path id="Trazado_239134" data-name="Trazado 239134" d="M177.262,163.353c.071.191-2.464,1.082-5.135,2.938s-4.4,3.914-4.55,3.781a15.663,15.663,0,0,1,9.685-6.719" transform="translate(37.728 36.774)" fill="#eb996e"/>
            <path id="Trazado_239135" data-name="Trazado 239135" d="M179.221,171.161c.06.049-.268.6-1.06,1.272a7.636,7.636,0,0,1-3.647,1.647,7.358,7.358,0,0,1-4-.265c-.954-.457-1.361-.964-1.318-1.016.059-.087.576.287,1.481.594a8.527,8.527,0,0,0,3.733.056c2.969-.463,4.694-2.445,4.809-2.289" transform="translate(38.094 38.534)" fill="#eb996e"/>
            <path id="Trazado_239136" data-name="Trazado 239136" d="M177.938,167.406c.032.018-.055.272-.379.615a5.673,5.673,0,0,1-1.625,1.078,5.416,5.416,0,0,0-2.162,1.53,6.92,6.92,0,0,0-.554,1.506,2.166,2.166,0,0,1-1.58,1.246,2.375,2.375,0,0,1-1.953-.428,2.854,2.854,0,0,1-1-1.541,2.965,2.965,0,0,1,.033-1.639,7.459,7.459,0,0,1,.524-1.255c.741-1.478,1.626-2.124,1.687-2.019a11.562,11.562,0,0,0-1.28,2.213,3.71,3.71,0,0,0-.4,2.543,1.948,1.948,0,0,0,2.251,1.5,1.554,1.554,0,0,0,1.138-.87,6.447,6.447,0,0,1,.646-1.593,5.444,5.444,0,0,1,2.458-1.6,7.109,7.109,0,0,0,2.191-1.283" transform="translate(37.958 37.484)" fill="#eb996e"/>
            <path id="Trazado_239137" data-name="Trazado 239137" d="M178.043,163.592a21.58,21.58,0,0,1,.238,3.542c.08,2.187.213,5.208.257,8.555a71.451,71.451,0,0,1-.334,8.575,15.139,15.139,0,0,1-.617,3.5,28.094,28.094,0,0,1,.168-3.541c.132-2.178.192-5.192.146-8.529s-.105-6.363-.07-8.556a17.929,17.929,0,0,1,.213-3.548" transform="translate(39.976 36.832)" fill="#263238"/>
            <path id="Trazado_239138" data-name="Trazado 239138" d="M176.215,134.612a2.539,2.539,0,0,1-.293.588c-.252.435-.565.97-.946,1.625-.827,1.406-2.079,3.408-3.674,5.851-3.185,4.888-7.837,11.487-13.44,18.413s-11.1,12.846-15.219,16.978c-2.058,2.068-3.756,3.709-4.961,4.81l-1.392,1.262a2.511,2.511,0,0,1-.515.408,2.621,2.621,0,0,1,.426-.5l1.307-1.348c1.149-1.154,2.8-2.842,4.81-4.946,4.03-4.206,9.448-10.16,15.046-17.065s10.285-13.445,13.561-18.261c1.64-2.407,2.948-4.369,3.84-5.734l1.046-1.56a2.578,2.578,0,0,1,.4-.521" transform="translate(30.569 30.307)" fill="#263238"/>
            <path id="Trazado_239139" data-name="Trazado 239139" d="M152.051,16.8c2.81.561,5.774.146,8.533.923,4,1.127,6.963,4.645,8.489,8.5s1.833,8.077,2.123,12.218q.391,5.566.782,11.134a34.633,34.633,0,0,0,.994,7.091c.73,2.565,2.723,9.391,2.855,12.726.424,10.857-.305,32.953-5.146,38.437-2.559,2.9-17.635-4.315-21.427-3.548-1.671-1.46-5.848-7.44-7.519-8.9-.285-.249,12.13-9.742,11.983-10.092a2.571,2.571,0,0,1,.165-1.8A88.756,88.756,0,0,0,150.139,17.4" transform="translate(31.91 3.782)" fill="#263238"/>
            <path id="Trazado_239140" data-name="Trazado 239140" d="M155.777,107.829c.206-14.482.519-17.354.524-17.272,0,0,12.444-2.094,14.987-18.342,1.264-8.08.829-21.321.124-32.145-.636-9.742-7.118-21.683-16.824-20.634l-30.3,7.729a5.712,5.712,0,0,0-5.1,5.8v74.757s8.461,7.668,20.053,6.2,16.533-6.1,16.533-6.1" transform="translate(26.835 4.361)" fill="#ffbe9d"/>
            <path id="Trazado_239141" data-name="Trazado 239141" d="M159.533,46.484a2.083,2.083,0,0,1-2,2.106,1.993,1.993,0,0,1-2.151-1.873,2.084,2.084,0,0,1,2-2.107,1.994,1.994,0,0,1,2.154,1.874" transform="translate(34.982 10.043)" fill="#263238"/>
            <path id="Trazado_239142" data-name="Trazado 239142" d="M160.236,42.295c-.257.272-1.838-.892-4.08-.881-2.238-.022-3.881,1.134-4.125.861-.12-.121.142-.613.858-1.136a5.717,5.717,0,0,1,3.3-1.025,5.486,5.486,0,0,1,3.248,1.04c.69.528.925,1.018.8,1.141" transform="translate(34.223 9.032)" fill="#263238"/>
            <path id="Trazado_239143" data-name="Trazado 239143" d="M142.072,47.186a2.083,2.083,0,0,1-2,2.106,1.991,1.991,0,0,1-2.15-1.873,2.082,2.082,0,0,1,2-2.107,1.994,1.994,0,0,1,2.153,1.874" transform="translate(31.051 10.201)" fill="#263238"/>
            <path id="Trazado_239144" data-name="Trazado 239144" d="M142.254,43.588c-.258.272-1.841-.892-4.081-.881-2.238-.022-3.881,1.136-4.125.861-.119-.121.14-.613.858-1.136a5.72,5.72,0,0,1,3.3-1.025,5.494,5.494,0,0,1,3.248,1.04c.689.528.924,1.018.8,1.141" transform="translate(30.174 9.323)" fill="#263238"/>
            <path id="Trazado_239145" data-name="Trazado 239145" d="M147.61,59.26a14.838,14.838,0,0,1,3.639-.665c.572-.06,1.114-.175,1.209-.566a2.91,2.91,0,0,0-.385-1.7q-.812-2.075-1.7-4.354c-2.365-6.2-4.077-11.3-3.826-11.391s2.369,4.856,4.734,11.057q.853,2.293,1.631,4.38a3.316,3.316,0,0,1,.3,2.247,1.437,1.437,0,0,1-.94.838,3.863,3.863,0,0,1-.972.137,14.584,14.584,0,0,1-3.69.013" transform="translate(32.989 9.138)" fill="#263238"/>
            <path id="Trazado_239146" data-name="Trazado 239146" d="M153.653,78.533a43.8,43.8,0,0,1-22.695-5.755s6.218,11.433,22.469,9.877Z" transform="translate(29.485 16.386)" fill="#eb996e"/>
            <path id="Trazado_239147" data-name="Trazado 239147" d="M143.441,38.149c-.219.611-2.459.327-5.087.651-2.637.268-4.755,1.044-5.105.5-.156-.262.212-.836,1.068-1.427A8.92,8.92,0,0,1,142.083,37c.965.387,1.453.865,1.359,1.153" transform="translate(29.993 8.213)" fill="#263238"/>
            <path id="Trazado_239148" data-name="Trazado 239148" d="M159.441,38.985c-.393.51-1.938-.015-3.8-.036-1.856-.086-3.428.349-3.792-.183-.158-.258.088-.768.774-1.252a5.5,5.5,0,0,1,6.112.175c.658.523.874,1.046.7,1.295" transform="translate(34.179 8.257)" fill="#263238"/>
            <path id="Trazado_239149" data-name="Trazado 239149" d="M140.789,58.473c-.031.006-.11-.2-.085-.557a2.3,2.3,0,0,1,1.694-1.979c.345-.08.565-.033.564,0s-.206.072-.5.191a2.615,2.615,0,0,0-1.558,1.818c-.071.314-.066.523-.111.528" transform="translate(31.678 12.584)" fill="#eb996e"/>
            <path id="Trazado_239150" data-name="Trazado 239150" d="M138.579,59.717a1.62,1.62,0,0,1-.232-.874,3.5,3.5,0,0,1,2.224-3.508,1.615,1.615,0,0,1,.888-.163c.009.045-.328.109-.809.345a3.689,3.689,0,0,0-2.1,3.319c-.009.537.077.867.033.88" transform="translate(31.146 12.418)" fill="#eb996e"/>
            <path id="Trazado_239151" data-name="Trazado 239151" d="M161.049,15.37S125.174,5.533,116.8,34.335c-4.241,14.582-27.456,89.6-27.456,89.6s9.058,14.241,21.27,15.273,22-20.7,22-20.7L138,45.873s6.269-4.634,14.344-10.089L167.012,20.3Z" transform="translate(20.115 3.096)" fill="#263238"/>
            <path id="Trazado_239152" data-name="Trazado 239152" d="M91,119.245a3.688,3.688,0,0,1-.165-.945,20.507,20.507,0,0,1-.165-2.746,30.244,30.244,0,0,1,1.838-9.935,47.374,47.374,0,0,1,7.38-13.04,117.579,117.579,0,0,1,12.7-13.217,146.712,146.712,0,0,0,12.822-12.935,51.321,51.321,0,0,0,7.861-12.5,33.58,33.58,0,0,0,2.559-9.613c.235-2.352.137-3.669.24-3.673a3.6,3.6,0,0,1,.11.952,21.023,21.023,0,0,1,.01,2.75,31.465,31.465,0,0,1-2.313,9.834,50.13,50.13,0,0,1-7.805,12.791,138.636,138.636,0,0,1-12.849,13.069A123.537,123.537,0,0,0,100.56,93.109a48.3,48.3,0,0,0-7.435,12.738,32.133,32.133,0,0,0-2.094,9.718c-.107,2.361.075,3.671-.031,3.68" transform="translate(20.414 9.151)" fill="#ebebeb"/>
            <path id="Trazado_239153" data-name="Trazado 239153" d="M96.792,124.4a4.08,4.08,0,0,1-.615-.8,14.636,14.636,0,0,1-1.351-2.569,20.206,20.206,0,0,1-1.115-10.549,29.175,29.175,0,0,1,6.6-14.269c3.727-4.695,8.817-8.886,14.117-13.162S124.669,74.5,128.1,69.733a42.314,42.314,0,0,0,6.661-13.984,44.514,44.514,0,0,0,1.519-10.4c.05-2.492-.074-3.874.016-3.881a4.071,4.071,0,0,1,.16,1c.091.657.142,1.629.185,2.886a40.963,40.963,0,0,1-1.245,10.562,41.9,41.9,0,0,1-6.6,14.321c-3.467,4.905-8.467,9.252-13.771,13.535s-10.348,8.406-14.038,12.98a28.973,28.973,0,0,0-6.622,13.828,20.626,20.626,0,0,0,.8,10.322c.866,2.324,1.718,3.446,1.628,3.5" transform="translate(21.044 9.337)" fill="#455a64"/>
            <path id="Trazado_239154" data-name="Trazado 239154" d="M110.032,46.236c-.032,0-.02-.217.033-.62a8.315,8.315,0,0,1,.436-1.724,13.643,13.643,0,0,1,3.663-5.393,21.723,21.723,0,0,1,8.433-4.725,109.292,109.292,0,0,1,11.486-2.586,80.985,80.985,0,0,0,19.944-7.027,12.625,12.625,0,0,0,4.93-3.869,10.5,10.5,0,0,0,.964-2.113c.029,0,.028.217-.027.624a5.488,5.488,0,0,1-.628,1.68,12.216,12.216,0,0,1-4.929,4.259A73.74,73.74,0,0,1,134.274,32.1c-4.1.847-8.012,1.421-11.417,2.492a21.8,21.8,0,0,0-8.25,4.4,14.288,14.288,0,0,0-3.769,5.039c-.589,1.384-.719,2.229-.806,2.211" transform="translate(24.77 4.093)" fill="#ebebeb"/>
            <path id="Trazado_239155" data-name="Trazado 239155" d="M245.755,346.712v-9.771a12.37,12.37,0,0,1,12.4-12.37l57.5.146L363.228,190.9l1.68-52.624,79.838-2.4-16.438,61.3-71.75,149.538Z" transform="translate(55.331 30.591)" fill="#455a64"/>
            <path id="Trazado_239156" data-name="Trazado 239156" d="M399.758,184.77c0,.176-12.575.319-28.084.319s-28.088-.142-28.088-.319,12.572-.319,28.088-.319,28.084.142,28.084.319" transform="translate(77.357 41.529)" fill="#263238"/>
            <path id="Trazado_239157" data-name="Trazado 239157" d="M321.965,287.63a10.1,10.1,0,0,1,2.244,1.6,34.064,34.064,0,0,1,8.4,10.248,10.115,10.115,0,0,1,1.128,2.515c-.195.109-2.075-3.666-5.317-7.647-3.265-3.961-6.6-6.548-6.452-6.717" transform="translate(72.489 64.758)" fill="#263238"/>
            <rect id="Rectángulo_216903" data-name="Rectángulo 216903" width="39.13" height="5.784" transform="translate(302.072 466.931)" fill="#263238"/>
            <path id="Trazado_239158" data-name="Trazado 239158" d="M242.79,339.972v21.156H363.281l82.133-163.453v-61.8h-19.2l-.118,60.177L353.453,339.972Z" transform="translate(54.664 30.591)" fill="#263238"/>
            <rect id="Rectángulo_216904" data-name="Rectángulo 216904" width="58.252" height="93.719" transform="translate(340.851 391.719)" fill="#263238"/>
            <path id="Trazado_239159" data-name="Trazado 239159" d="M363.163,319.774c0,.176-26.83.368-59.918.426s-59.926-.037-59.926-.213,26.823-.366,59.924-.425,59.92.036,59.92.212" transform="translate(54.783 71.945)" fill="#455a64"/>
            <path id="Trazado_239160" data-name="Trazado 239160" d="M342.946,323.62c-.159.075-2.49-4.6-5.2-10.443s-4.784-10.639-4.624-10.713,2.488,4.6,5.2,10.444,4.783,10.637,4.624,10.712" transform="translate(74.999 68.099)" fill="#455a64"/>
            <path id="Trazado_239161" data-name="Trazado 239161" d="M412.051,184.77c0,.176-4.462.319-9.964.319s-9.965-.142-9.965-.319,4.461-.319,9.965-.319,9.964.142,9.964.319" transform="translate(88.285 41.529)" fill="#455a64"/>
            <path id="Trazado_239162" data-name="Trazado 239162" d="M287.93,396.228l-52.876,8.407H392.944l-46.763-8.407Z" transform="translate(52.922 89.21)" fill="#263238"/>
            <path id="Trazado_239163" data-name="Trazado 239163" d="M341.431,396.578c0,.176-14.089.319-31.464.319s-31.468-.142-31.468-.319,14.086-.319,31.468-.319,31.464.142,31.464.319" transform="translate(62.703 89.217)" fill="#455a64"/>
            <path id="Trazado_239164" data-name="Trazado 239164" d="M316.1,59.511a11.021,11.021,0,0,1,17.664-9.789,9.624,9.624,0,0,0,2.622,1.756,8.962,8.962,0,0,0,3.77-.053,13.3,13.3,0,0,1,13.08,19.66,14.319,14.319,0,0,1,7.113,23.31,9.269,9.269,0,0,1-2.813,15.358,6.489,6.489,0,0,0-2.738,1.476c-1.87,2.251,1.294,5.868-.039,8.472-1.011,1.977-4.123,2.279-4.848,4.376-.522,1.507.5,3.079.7,4.662.436,3.437-3.037,6.149-6.387,7.036-6.63,1.756-13.916-.7-19.03-5.273s-8.264-11-10.067-17.619c-4.235-15.546-1.574-32.035,1.109-47.923" transform="translate(70.451 10.696)" fill="#263238"/>
            <path id="Trazado_239165" data-name="Trazado 239165" d="M311.8,62.851a4.309,4.309,0,1,1,5.516-6.6c.473.452.921,1.051,1.574,1.1.624.042,1.134-.445,1.651-.794a4.26,4.26,0,0,1,6.611,4.05c2.165-.927,5.168-.663,6.259,1.425.97,1.857-.151,4.283-1.953,5.351a9.354,9.354,0,0,1-6.113.771A24.384,24.384,0,0,1,312.1,61.7" transform="translate(69.82 12.414)" fill="#ff725e"/>
            <path id="Trazado_239166" data-name="Trazado 239166" d="M322.5,61.954c.055.118.767-.156,1.288-.9s.548-1.5.418-1.512-.358.594-.816,1.23-.96,1.057-.889,1.179" transform="translate(72.608 13.406)" fill="#fff"/>
            <path id="Trazado_239167" data-name="Trazado 239167" d="M316.264,61.892c.142-.021.053-1.073.385-2.3.314-1.226.913-2.1.8-2.186a4.177,4.177,0,0,0-1.184,4.482" transform="translate(71.149 12.924)" fill="#fff"/>
            <path id="Trazado_239168" data-name="Trazado 239168" d="M312.929,61.082c.137-.043-.137-1.083.105-2.338.218-1.258.845-2.134.731-2.222a3.73,3.73,0,0,0-.837,4.56" transform="translate(70.354 12.724)" fill="#fff"/>
            <path id="Trazado_239169" data-name="Trazado 239169" d="M325.007,64.428c.015.06.338.054.815-.145a3.584,3.584,0,0,0,2.149-3.178c.007-.516-.108-.818-.169-.81a7.919,7.919,0,0,1-.849,2.437c-.8,1.188-2,1.565-1.946,1.7" transform="translate(73.174 13.575)" fill="#fff"/>
            <path id="Trazado_239170" data-name="Trazado 239170" d="M290.509,110.523a6.818,6.818,0,0,1-4.558-7.847,8.2,8.2,0,0,1-1.741-11.81,5.77,5.77,0,0,1,3.424-10.142A7.8,7.8,0,0,1,296.2,70.236a7.142,7.142,0,0,1,11.078-7.016c3.5-4.74,11.553-5.028,15.385-.551a9.664,9.664,0,0,1,13.25,4.063c2.907-2.71,7.984-1.74,10.627,1.229s3.27,7.254,2.953,11.216a6.568,6.568,0,0,1,.97,11.394,11.3,11.3,0,0,1-2.058,15.581A13,13,0,0,1,342.01,119.1" transform="translate(63.54 13.392)" fill="#263238"/>
            <path id="Trazado_239171" data-name="Trazado 239171" d="M335.861,84.153l1.654-4.732-29.336-4.689c-9.022-.686-18.483,8.615-18.785,17.658-.337,10.049-.352,22.328,1.057,29.776,2.833,14.977,14.422,16.552,14.422,16.552l.9,23.629L338.439,148.6Z" transform="translate(65.114 16.818)" fill="#ba785d"/>
            <path id="Trazado_239172" data-name="Trazado 239172" d="M292.571,96.873a1.93,1.93,0,0,0,1.919,1.892,1.845,1.845,0,0,0,1.937-1.8,1.931,1.931,0,0,0-1.915-1.893,1.848,1.848,0,0,0-1.941,1.8" transform="translate(65.872 21.405)" fill="#263238"/>
            <path id="Trazado_239173" data-name="Trazado 239173" d="M292.115,94.674c.246.245,1.677-.881,3.754-.936,2.073-.086,3.629.937,3.846.676.108-.115-.148-.562-.827-1.025a5.3,5.3,0,0,0-3.089-.854,5.086,5.086,0,0,0-2.978,1.06c-.624.508-.827.97-.706,1.079" transform="translate(65.761 20.833)" fill="#263238"/>
            <path id="Trazado_239174" data-name="Trazado 239174" d="M308.8,96.873a1.929,1.929,0,0,0,1.917,1.892,1.846,1.846,0,0,0,1.938-1.8,1.931,1.931,0,0,0-1.916-1.893,1.848,1.848,0,0,0-1.939,1.8" transform="translate(69.524 21.405)" fill="#263238"/>
            <path id="Trazado_239175" data-name="Trazado 239175" d="M309.16,94.464c.247.245,1.68-.88,3.754-.936,2.074-.086,3.629.937,3.847.676.107-.115-.148-.562-.828-1.025a5.288,5.288,0,0,0-3.087-.854,5.09,5.09,0,0,0-2.98,1.06c-.622.508-.826.97-.706,1.079" transform="translate(69.599 20.786)" fill="#263238"/>
            <path id="Trazado_239176" data-name="Trazado 239176" d="M303.979,110.042a13.82,13.82,0,0,0-3.391-.508c-.532-.039-1.036-.13-1.136-.489a2.694,2.694,0,0,1,.307-1.583q.689-1.946,1.448-4.083c2.009-5.813,3.446-10.586,3.211-10.666s-2.053,4.57-4.061,10.383q-.724,2.148-1.383,4.105a3.072,3.072,0,0,0-.213,2.089,1.331,1.331,0,0,0,.894.75,3.6,3.6,0,0,0,.905.1,13.488,13.488,0,0,0,3.418-.1" transform="translate(67.239 20.874)" fill="#263238"/>
            <path id="Trazado_239177" data-name="Trazado 239177" d="M302,128.091a39.856,39.856,0,0,0,20.507-6.015s-4.772,10.686-20.386,9.767Z" transform="translate(67.994 27.485)" fill="#915641"/>
            <path id="Trazado_239178" data-name="Trazado 239178" d="M309.745,85.354c.111.592,2.2.659,4.561,1.339,2.372.633,4.2,1.65,4.6,1.2.181-.214-.072-.794-.769-1.463a4.872,4.872,0,0,0-3.266-1.772,7.885,7.885,0,0,0-3.712-.163c-.941.213-1.457.577-1.413.856" transform="translate(69.738 18.991)" fill="#263238"/>
            <path id="Trazado_239179" data-name="Trazado 239179" d="M292.166,89.391c.4.442,1.79-.157,3.5-.314,1.708-.216,3.193.07,3.489-.448.127-.25-.137-.7-.807-1.1a5.1,5.1,0,0,0-5.634.614c-.568.53-.73,1.03-.551,1.247" transform="translate(65.765 19.576)" fill="#263238"/>
            <path id="Trazado_239180" data-name="Trazado 239180" d="M321.018,76.183a7.407,7.407,0,0,1-1.763,3.247,2.548,2.548,0,0,1-3.378.2,3.351,3.351,0,0,1-5.189-.361,4.566,4.566,0,0,1-5.506.545L300.7,80.8c-1.625.354-3.646.573-4.643-.757-.23-.309-.4-.7-.751-.859a2.108,2.108,0,0,0-1.149.013,3.868,3.868,0,0,1-3.365-1.587,11.426,11.426,0,0,1-1.675-3.489c-.653-1.884-1.171-4.317.364-5.59a4.976,4.976,0,0,1,2.161-.853,11.225,11.225,0,0,1,4.73-.355,8.3,8.3,0,0,1,4.675,3.384,2.1,2.1,0,0,1,1.293-2.6,4.117,4.117,0,0,1,3.141.285,8.3,8.3,0,0,1,3.509,2.984,6.8,6.8,0,0,1,6.067,3.72,4.922,4.922,0,0,1,3.858-.693,1.743,1.743,0,0,1,1.166.729.789.789,0,0,1-.4,1.148" transform="translate(64.949 15.126)" fill="#263238"/>
            <path id="Trazado_239181" data-name="Trazado 239181" d="M308.021,76.014a4.971,4.971,0,0,1-7.6,5.8,4.586,4.586,0,0,1-5.148,2.958,7.2,7.2,0,0,1-3.684,6.323,5.571,5.571,0,0,1,.108,4.107,3.455,3.455,0,0,1-1.7,2.01,3.914,3.914,0,0,1-3.1-.219,5.521,5.521,0,0,1-3.163-3.07,3.2,3.2,0,0,1,1.422-3.887,12.018,12.018,0,0,1-3.014-4.308,3.875,3.875,0,0,1-.244-2.939,1.693,1.693,0,0,1,2.469-.822,4.426,4.426,0,0,1,4.7-6.453,3.675,3.675,0,0,1,6.091-2.714" transform="translate(63.423 16.189)" fill="#263238"/>
            <path id="Trazado_239182" data-name="Trazado 239182" d="M318.085,74.724c-.142-1.823,1.6-3.367,3.416-3.618a9.284,9.284,0,0,1,5.251,1.268,6.433,6.433,0,0,1,7.128-1.825c2.429.963,3.988,3.3,5.99,4.978a13.281,13.281,0,0,1,3.031,2.819c.734,1.177.714,2.994-.48,3.7a4.679,4.679,0,0,1,1.345,8.119c-.423.327-.931.621-1.105,1.127a2.028,2.028,0,0,0,.132,1.31c.708,2.018,1.816,3.906,2.246,6s-.018,4.591-1.807,5.763c-.473.31-1.055.555-1.268,1.079a1.743,1.743,0,0,0,.013,1.092,19.579,19.579,0,0,0,1.517,3.323,5.074,5.074,0,0,1,.557,3.535,2.317,2.317,0,0,1-2.795,1.676,7.5,7.5,0,0,1-.749,6.976c-1.5,1.926-6.439,2.8-9.369,1.017l-.267-6.893c.385-1.213-1.5-7.676-.715-8.991,0,0,2.067,4.485-2.586,3.737-1.513.414-4.426-4.031-4.625-5.587a4.166,4.166,0,0,1,2.127-3.906,7.061,7.061,0,0,1-1.818-8.876,3.776,3.776,0,0,1-.742-7.293,7.759,7.759,0,0,1-4.969-10.425" transform="translate(71.35 15.791)" fill="#263238"/>
            <path id="Trazado_239183" data-name="Trazado 239183" d="M326.385,97.8c.208-.116,8.491-3.484,9.1,5.257s-8.289,7.551-8.322,7.3-.78-12.559-.78-12.559" transform="translate(73.485 21.854)" fill="#ba785d"/>
            <path id="Trazado_239184" data-name="Trazado 239184" d="M329.013,106.35c.037-.031.16.1.426.2a1.529,1.529,0,0,0,1.139-.056c.9-.4,1.574-1.925,1.507-3.5a5.055,5.055,0,0,0-.579-2.15,1.757,1.757,0,0,0-1.226-1.088.777.777,0,0,0-.87.48c-.1.252-.032.423-.077.441-.023.023-.2-.134-.153-.5a.974.974,0,0,1,.305-.571,1.152,1.152,0,0,1,.827-.282A2.145,2.145,0,0,1,332,100.561a5.2,5.2,0,0,1,.7,2.4c.066,1.764-.719,3.476-1.958,3.929a1.628,1.628,0,0,1-1.409-.134c-.285-.2-.346-.39-.316-.407" transform="translate(74.075 22.361)" fill="#915641"/>
            <path id="Trazado_239185" data-name="Trazado 239185" d="M308.831,109.363a3.023,3.023,0,0,0-4.85.965,2.852,2.852,0,0,0-.009,2.308,2.638,2.638,0,0,0,4.991-.606c.206-1.092.553-2.385-.426-2.912" transform="translate(68.384 24.435)" fill="#915641"/>
            <path id="Trazado_239186" data-name="Trazado 239186" d="M305.089,98.715a21.019,21.019,0,0,1,.436-2.341,9.68,9.68,0,0,1,3.636-5.177,9.52,9.52,0,0,1,9.031-1.175,9.52,9.52,0,0,1,4.343,3.388,9.448,9.448,0,0,1-.19,11.205,9.531,9.531,0,0,1-4.457,3.237,9.508,9.508,0,0,1-8.986-1.481,9.7,9.7,0,0,1-3.457-5.3,21.024,21.024,0,0,1-.355-2.356,7.519,7.519,0,0,0,.17,2.4,9.684,9.684,0,0,0,3.429,5.527,9.8,9.8,0,0,0,4.121,1.954,9.95,9.95,0,0,0,5.225-.317,9.963,9.963,0,0,0,4.691-3.375,9.884,9.884,0,0,0,.2-11.771,9.93,9.93,0,0,0-4.572-3.531,9.923,9.923,0,0,0-5.212-.5,9.781,9.781,0,0,0-4.185,1.813,9.67,9.67,0,0,0-3.615,5.405,7.5,7.5,0,0,0-.252,2.391" transform="translate(68.683 20.03)" fill="#455a64"/>
            <path id="Trazado_239187" data-name="Trazado 239187" d="M285.193,98.376a21.03,21.03,0,0,1,.436-2.342,9.689,9.689,0,0,1,3.636-5.177,9.518,9.518,0,0,1,9.031-1.175,9.521,9.521,0,0,1,4.343,3.388,9.448,9.448,0,0,1-.19,11.205,9.523,9.523,0,0,1-4.457,3.238,9.517,9.517,0,0,1-8.986-1.481,9.7,9.7,0,0,1-3.457-5.3,21.1,21.1,0,0,1-.355-2.356,7.513,7.513,0,0,0,.17,2.4,9.807,9.807,0,0,0,7.551,7.481,9.937,9.937,0,0,0,5.225-.317,9.942,9.942,0,0,0,4.691-3.375,9.882,9.882,0,0,0,.2-11.77,9.943,9.943,0,0,0-4.572-3.532,9.922,9.922,0,0,0-5.212-.495,9.806,9.806,0,0,0-7.8,7.217,7.506,7.506,0,0,0-.252,2.393" transform="translate(64.204 19.953)" fill="#455a64"/>
            <path id="Trazado_239188" data-name="Trazado 239188" d="M320.825,95.624a19.339,19.339,0,0,0,7.295,2.336,69.246,69.246,0,0,0-7.295-2.336" transform="translate(72.233 21.525)" fill="#455a64"/>
            <path id="Trazado_239189" data-name="Trazado 239189" d="M300.233,94.783a9.761,9.761,0,0,1,6.307.758,5.456,5.456,0,0,0-6.307-.758" transform="translate(67.596 21.187)" fill="#455a64"/>
            <path id="Trazado_239190" data-name="Trazado 239190" d="M315.655,104.657a3.314,3.314,0,0,0,1.547-.571,7.539,7.539,0,0,0,3.786-6.7,3.316,3.316,0,0,0-.309-1.621c-.077.013.022.631-.037,1.614a8.22,8.22,0,0,1-3.624,6.412c-.811.557-1.392.79-1.364.864" transform="translate(71.069 21.562)" fill="#fff"/>
            <path id="Trazado_239191" data-name="Trazado 239191" d="M295.969,104a3.055,3.055,0,0,0,1.447-.562A7.35,7.35,0,0,0,301,97.124a3.064,3.064,0,0,0-.258-1.53,12.238,12.238,0,0,0-.086,1.516,8.141,8.141,0,0,1-3.426,6.036,12.922,12.922,0,0,0-1.257.851" transform="translate(66.636 21.523)" fill="#fff"/>
            <path id="Trazado_239192" data-name="Trazado 239192" d="M303.654,115.67c-.159.011-.393-.633-.209-1.7a5.4,5.4,0,0,1,6.339-4.282c1.055.225,1.566.682,1.5.827-.074.174-.673.044-1.584.071a5.737,5.737,0,0,0-5.385,3.637c-.364.836-.467,1.441-.657,1.442" transform="translate(68.305 24.673)" fill="#263238"/>
            <path id="Trazado_239193" data-name="Trazado 239193" d="M326.043,65.723a2.232,2.232,0,0,1,.458-.31,7.934,7.934,0,0,1,1.421-.746,8.111,8.111,0,0,1,5.943-.272,12.273,12.273,0,0,1,6.583,6.28,15.824,15.824,0,0,1,1.432,5.432,8.557,8.557,0,0,1-.3,3.047,5.769,5.769,0,0,1-1.74,2.717l-.1-.517a7.012,7.012,0,0,1,2.674,11.576c-.135.145-.289.271-.423.4l-.086-.538A5.539,5.539,0,0,1,344.9,96.05a9.411,9.411,0,0,1,.517,4.241c-.332,2.822-1.587,5.211-2.38,7.555a16.366,16.366,0,0,0-.859,3.49c-.148,1.161-.195,2.314-.327,3.434a10.586,10.586,0,0,1-2.331,5.784,11.579,11.579,0,0,1-7.8,4.216,9.685,9.685,0,0,1-2.449-.089,4.1,4.1,0,0,1-.827-.208,14.669,14.669,0,0,0,3.249.053,11.5,11.5,0,0,0,7.48-4.251,10.165,10.165,0,0,0,2.159-5.562c.119-1.094.154-2.248.3-3.444a16.874,16.874,0,0,1,.859-3.613c.8-2.389,2.018-4.779,2.313-7.423a8.815,8.815,0,0,0-.488-3.955,4.911,4.911,0,0,0-2.638-2.9l-.456-.184.37-.354c.119-.114.26-.227.381-.359a6.4,6.4,0,0,0-2.418-10.557l-.5-.176.406-.341a6.208,6.208,0,0,0,1.867-5.268,15.43,15.43,0,0,0-1.331-5.245,11.985,11.985,0,0,0-6.246-6.147,8.057,8.057,0,0,0-5.742.105,9.793,9.793,0,0,0-1.444.648,2.312,2.312,0,0,1-.51.221" transform="translate(73.408 14.399)" fill="#455a64"/>
            <path id="Trazado_239194" data-name="Trazado 239194" d="M330.789,63.893a2.562,2.562,0,0,1,.861.691,6.907,6.907,0,0,1,1.5,2.623,7.2,7.2,0,0,1-.02,4.49,7.422,7.422,0,0,1-7.412,4.85l.259-.109a9.135,9.135,0,0,1-6.566,3.138,7.84,7.84,0,0,1-2.135-.208c-.484-.129-.733-.238-.723-.27a19.366,19.366,0,0,0,2.834.089,9.117,9.117,0,0,0,6.118-3.143l.1-.119.159.009a6.753,6.753,0,0,0,3.421-.722,6.826,6.826,0,0,0,3.392-3.711,6.969,6.969,0,0,0,.141-4.169,9.174,9.174,0,0,0-1.926-3.44" transform="translate(71.271 14.385)" fill="#455a64"/>
            <path id="Trazado_239195" data-name="Trazado 239195" d="M337.681,64.965c.017-.013.1.078.252.265a6.144,6.144,0,0,1,.578.866,9.258,9.258,0,0,1,1.1,3.669,9.817,9.817,0,0,1-1.159,5.566,9.5,9.5,0,0,1-5.419,4.335,9.687,9.687,0,0,1-5.936.029l.359-.147a7.043,7.043,0,0,1-3.645,3.209,6.7,6.7,0,0,1-3.8.3,6.479,6.479,0,0,1-2.292-.965c-.477-.33-.685-.566-.666-.587a9.566,9.566,0,0,0,3.027,1.187,6.54,6.54,0,0,0,3.546-.4,6.635,6.635,0,0,0,3.3-3.015l.116-.225.243.078a9.249,9.249,0,0,0,5.556-.066,9.043,9.043,0,0,0,5.1-4.016,9.634,9.634,0,0,0,1.221-5.244,11.652,11.652,0,0,0-1.484-4.832" transform="translate(71.383 14.626)" fill="#455a64"/>
            <path id="Trazado_239196" data-name="Trazado 239196" d="M263.281,243.314s-45.192,8.772-55.129,11.519c-14.577,4.031-20.982,9.875-20.982,19.748s49.059,123.2,49.059,123.2l19.97-1.9-29.122-103.2,57.862-2.168Z" transform="translate(42.141 54.781)" fill="#ba785d"/>
            <path id="Trazado_239197" data-name="Trazado 239197" d="M263.038,257.082s-54.306,1.645-64.591,9.873-6.171,18.1-2.88,29.622,48.409,106.339,48.409,106.339l19.076-4.074s-8.806-65.11-12.92-77.041-16.325-27.153-16.325-27.153,43.631,5.631,51.859,3.574-22.627-41.14-22.627-41.14" transform="translate(43.207 57.881)" fill="#ba785d"/>
            <path id="Trazado_239198" data-name="Trazado 239198" d="M243.286,401.463a3.06,3.06,0,0,1-.243-.451l-.654-1.349-2.461-5.214c-2.126-4.57-5.176-11.132-8.941-19.226l-29.28-63.53c-2.886-6.294-5.705-12.434-8.422-18.354l-.009-.02-.006-.022a56.676,56.676,0,0,1-1.836-8.128,57.916,57.916,0,0,1-.532-8.02,22.716,22.716,0,0,1,1.274-7.627,13.587,13.587,0,0,1,4.2-6.052,16.147,16.147,0,0,1,6.351-2.879,58.392,58.392,0,0,1,6.431-1.024c4.139-.517,7.962-1.1,11.444-1.591a164.769,164.769,0,0,1,16.445-1.735c1.936-.089,3.433-.1,4.445-.091l1.149.022a2.026,2.026,0,0,1,.39.027,2.171,2.171,0,0,1-.39.031l-1.149.033c-1.01.025-2.5.072-4.433.2-3.86.219-9.451.843-16.4,1.917-3.477.522-7.3,1.127-11.442,1.669a58.961,58.961,0,0,0-6.371,1.046,15.678,15.678,0,0,0-6.133,2.806,13.052,13.052,0,0,0-4,5.822,22.184,22.184,0,0,0-1.217,7.433,57.33,57.33,0,0,0,.544,7.93,56.457,56.457,0,0,0,1.829,8.037l-.015-.042c2.72,5.917,5.541,12.058,8.434,18.349L231.4,375.035l8.756,19.31,2.352,5.264c.252.583.451,1.039.6,1.376a3.075,3.075,0,0,1,.184.478" transform="translate(42.981 57.671)" fill="#915641"/>
            <path id="Trazado_239199" data-name="Trazado 239199" d="M215.607,277.859a9.489,9.489,0,0,1,2.258,1.371,49.229,49.229,0,0,1,9.289,8.672,9.5,9.5,0,0,1,1.523,2.159c-.15.12-2.709-2.972-6.322-6.33-3.6-3.372-6.858-5.714-6.748-5.871" transform="translate(48.543 62.558)" fill="#915641"/>
            <path id="Trazado_239200" data-name="Trazado 239200" d="M230.167,369.868l.516,1.405s-20.232,18.4-18.807,23l47.136-17.8-6.564-15.444c-5.783,5.893-12.979,9.028-22.281,8.838" transform="translate(47.687 81.285)" fill="#ff725e"/>
            <g id="Grupo_174284" data-name="Grupo 174284" transform="translate(295.476 449.116)" opacity="0.6">
              <g id="Grupo_174283" data-name="Grupo 174283">
                <g id="Grupo_174282" data-name="Grupo 174282" clip-path="url(#clip-path-3)">
                  <path id="Trazado_239201" data-name="Trazado 239201" d="M242.955,366.6a2.056,2.056,0,0,1,2.16,1.694,1.977,1.977,0,0,1-1.66,2.156,2.17,2.17,0,0,1-2.279-1.806c-.023-1.011.974-2.183,1.976-2.052" transform="translate(-241.176 -366.581)" fill="#fff"/>
                </g>
              </g>
            </g>
            <g id="Grupo_174287" data-name="Grupo 174287" transform="translate(259.355 454.045)" opacity="0.6">
              <g id="Grupo_174286" data-name="Grupo 174286">
                <g id="Grupo_174285" data-name="Grupo 174285" clip-path="url(#clip-path-4)">
                  <path id="Trazado_239202" data-name="Trazado 239202" d="M259.037,374.319l-1.579-3.715-44.6,18.422s-1.754,1.705-.958,3.095Z" transform="translate(-211.693 -370.604)" fill="#fff"/>
                </g>
              </g>
            </g>
            <path id="Trazado_239203" data-name="Trazado 239203" d="M227.121,369.683c.094.228,1.285-.1,2.7.21,1.42.276,2.38,1.052,2.558.881.195-.125-.668-1.371-2.384-1.719-1.713-.364-3,.436-2.871.629" transform="translate(51.134 83.07)" fill="#263238"/>
            <path id="Trazado_239204" data-name="Trazado 239204" d="M223.715,372.8c.032.243,1.176.259,2.327.936,1.169.644,1.763,1.623,1.988,1.527.23-.045-.12-1.454-1.564-2.27s-2.829-.413-2.75-.192" transform="translate(50.368 83.867)" fill="#263238"/>
            <path id="Trazado_239205" data-name="Trazado 239205" d="M223.855,379.053c.228-.029.114-1.3-.953-2.338s-2.334-1.133-2.358-.9c-.059.239.9.651,1.759,1.516.883.844,1.315,1.79,1.552,1.726" transform="translate(49.654 84.59)" fill="#263238"/>
            <path id="Trazado_239206" data-name="Trazado 239206" d="M339.187,271.756c-1.047,2.659,1.491-2.836,0,0" transform="translate(76.308 60.997)" fill="#ff725e"/>
            <path id="Trazado_239207" data-name="Trazado 239207" d="M366.306,266.917s7.121-90.641,4.991-110.839c-1.475-14-18.617-24.906-18.617-24.906l-32.656,6.284S298,168.325,293.461,183.611c-1.219,4.105-1.915,18.358-2.244,23.115-1.278,18.5-5.816,36.8-6.775,48.274a9.564,9.564,0,0,1-8,8.6l-26.379,4.328c-9.387-6.57-24.661.219-26.1,5.818s14.195,11.681,14.195,11.681,8.228,7.406,13.988,24.685,26.331,16.456,26.331,16.456l47.933,0a43.71,43.71,0,0,0,38.69-23.356c5.348-13.577,1.213-36.3,1.213-36.3" transform="translate(50.402 29.533)" fill="#ff725e"/>
            <g id="Grupo_174290" data-name="Grupo 174290" transform="translate(367.152 267.787)" opacity="0.3">
              <g id="Grupo_174289" data-name="Grupo 174289">
                <g id="Grupo_174288" data-name="Grupo 174288" clip-path="url(#clip-path-5)">
                  <path id="Trazado_239208" data-name="Trazado 239208" d="M346.44,220.879c-.794-1.5-2.531-2.688-4.153-2.187-1.937.6-2.507,3.005-2.842,5-.853,5.073-2.3,10.192-5.42,14.285s-8.173,7-13.284,6.414c-2.2-.25-4.3-1.115-6.507-1.242a13.244,13.244,0,0,0-8.2,2.671,39.5,39.5,0,0,0-6.351,6.051l.194.556c3.141.279,6.474-1.147,9.608-.8,1.952.217,3.723,1.2,5.6,1.79a17.054,17.054,0,0,0,10.687-.4,27.488,27.488,0,0,0,9.171-5.72c5.506-4.981,9.145-9.312,11.161-16.459.719-2.547,1.58-7.627.343-9.967" transform="translate(-299.68 -218.575)"/>
                </g>
              </g>
            </g>
            <path id="Trazado_239209" data-name="Trazado 239209" d="M267.735,228.388a13.694,13.694,0,0,1-2.222-5.3c-.222-2.442,16.417-31.35,16.417-31.35s-2.742,32.46-1.7,33.127-3.977,4.431-3.977,4.431Z" transform="translate(59.779 43.169)" fill="#ff725e"/>
            <path id="Trazado_239210" data-name="Trazado 239210" d="M280.595,186.495a2.544,2.544,0,0,1,.051.657c.006.5.013,1.126.023,1.886.031,1.638-.076,4.007-.282,6.928a226.31,226.31,0,0,1-3.222,22.632c-.779,4.393-1.523,8.575-2.1,12.392-.551,3.819-1,7.268-1.2,10.177-.14,1.453-.2,2.771-.241,3.929-.064,1.158-.094,2.156-.081,2.972-.01.757-.017,1.378-.023,1.881a2.609,2.609,0,0,1-.053.659,2.536,2.536,0,0,1-.076-.654c-.026-.5-.058-1.125-.1-1.883-.051-.818-.056-1.821-.027-2.984.009-1.164.037-2.49.147-3.95.143-2.929.553-6.4,1.073-10.232.549-3.832,1.275-8.025,2.055-12.418,1.6-8.776,2.873-16.744,3.4-22.56.262-2.9.437-5.263.483-6.9.039-.757.071-1.378.1-1.881a2.594,2.594,0,0,1,.077-.655" transform="translate(61.52 41.989)" fill="#263238"/>
            <path id="Trazado_239211" data-name="Trazado 239211" d="M304.332,240.33s4.094,19.96,9.212,22.776c0,0,2.78,4.9,10.971,1.721a35.194,35.194,0,0,0,12.974-8.418c7.82-7.949,5.249-19.844,5.249-19.844a5.778,5.778,0,0,0,3.049-4.424,11.813,11.813,0,0,0,0-4.912s4.35-3.533,4.094-7.884-1.023-5.63-1.023-5.63l4.35-34.8s-.512-18.937-5.886-27.893-11.772-8.957-16.89-8.189-17.145,10.236-18.169,53.739l-1.535,33.522,1.279,4.863s-8.951.006-7.677,5.373" transform="translate(68.492 32.089)" fill="#ff725e"/>
            <path id="Trazado_239212" data-name="Trazado 239212" d="M351.738,173.591s-.006.314-.06.916q-.092.948-.255,2.666c-.229,2.366-.56,5.788-.979,10.134-.39,4.373-.869,9.692-1.147,15.817a69.345,69.345,0,0,0,.131,9.747,18.286,18.286,0,0,1-.187,5.358,7.5,7.5,0,0,1-3.033,4.738l.094-.352a7.27,7.27,0,0,1-3.462,9.653l.165-.339c1.9,6.888-.417,15.089-5.905,20.788a30.51,30.51,0,0,1-9.9,6.818,37.375,37.375,0,0,1-5.86,2.019,6.267,6.267,0,0,1-3.223.174,8.223,8.223,0,0,1-2.91-1.427c-.663-.478-1.28-1-1.884-1.514l-.059-.049-.028-.071c-3.052-7.307-6.02-14.416-8.863-21.224l-.017-.04,0-.043a7.8,7.8,0,0,1,.2-3.552,5.881,5.881,0,0,1,2.275-2.7,7.871,7.871,0,0,1,6.594-1.037l-.247.534c-2.274-1.519-3.146-4.25-3.287-6.672a60.913,60.913,0,0,1,.246-7.17c.342-4.646.773-9.06,1.2-13.224.871-8.326,1.765-15.639,2.6-21.686s1.6-10.827,2.2-14.086c.314-1.627.56-2.879.768-3.716.094-.4.169-.712.227-.951a1.713,1.713,0,0,1,.093-.319,1.688,1.688,0,0,1-.044.33c-.045.241-.1.556-.179.96-.175.842-.39,2.1-.674,3.729-.544,3.265-1.256,8.049-2.031,14.1s-1.628,13.365-2.46,21.689c-.407,4.163-.821,8.577-1.147,13.213a61.487,61.487,0,0,0-.224,7.089,10.245,10.245,0,0,0,.8,3.473,6.259,6.259,0,0,0,2.233,2.742l1.716,1.116-1.963-.582a7.276,7.276,0,0,0-6.08.969,5.3,5.3,0,0,0-2.041,2.4,7.254,7.254,0,0,0-.163,3.269l-.021-.083c2.847,6.806,5.822,13.913,8.879,21.218l-.087-.12c.6.515,1.207,1.024,1.843,1.481a7.632,7.632,0,0,0,2.681,1.324,5.628,5.628,0,0,0,2.922-.17,36.617,36.617,0,0,0,5.762-1.982,29.934,29.934,0,0,0,9.7-6.665c5.362-5.549,7.627-13.544,5.8-20.21l-.065-.24.23-.1a6.727,6.727,0,0,0,3.209-8.875l-.115-.218.21-.134a6.99,6.99,0,0,0,2.819-4.4,17.887,17.887,0,0,0,.2-5.206,69.124,69.124,0,0,1-.08-9.8c.317-6.138.839-11.455,1.274-15.826s.847-7.793,1.127-10.123q.215-1.711.335-2.657c.081-.6.143-.907.143-.907" transform="translate(68.501 36.651)" fill="#263238"/>
            <path id="Trazado_239213" data-name="Trazado 239213" d="M348.858,154.506c-.067,0-.061-.638-.33-1.741a15.022,15.022,0,0,0-2.02-4.332,16.81,16.81,0,0,0-4.95-4.99,13.812,13.812,0,0,0-8.373-1.315,19.574,19.574,0,0,0-4.319,1.214,15.872,15.872,0,0,0-3.664,1.982,20.61,20.61,0,0,0-4.712,5.282c-1.12,1.705-1.919,3.163-2.5,4.153a9.618,9.618,0,0,1-.948,1.514,9.509,9.509,0,0,1,.73-1.632c.512-1.027,1.251-2.52,2.336-4.278a20.2,20.2,0,0,1,4.736-5.508,16.213,16.213,0,0,1,3.783-2.093,19.78,19.78,0,0,1,4.461-1.266,14.151,14.151,0,0,1,8.765,1.438,16.717,16.717,0,0,1,5.033,5.253,13.891,13.891,0,0,1,1.882,4.522,7.257,7.257,0,0,1,.123,1.331c0,.306-.013.464-.036.464" transform="translate(71.381 31.821)" fill="#263238"/>
            <g id="Grupo_174293" data-name="Grupo 174293" transform="translate(381.842 267.009)" opacity="0.3">
              <g id="Grupo_174292" data-name="Grupo 174292">
                <g id="Grupo_174291" data-name="Grupo 174291" clip-path="url(#clip-path-6)">
                  <path id="Trazado_239214" data-name="Trazado 239214" d="M330.155,227.98c-1.391-4.11-4.006-5.783-7.155-7.156s-11.331-2.883-11.331-2.883,3.826,2.986,7.275,5.326c2.622,1.78,3.542,4.934,5.327,7.553,1.01,1.484,2.567,3.063,4.305,2.618a2.957,2.957,0,0,0,2.009-2.308,6.125,6.125,0,0,0-.43-3.15" transform="translate(-311.67 -217.94)"/>
                </g>
              </g>
            </g>
            <path id="Trazado_239215" data-name="Trazado 239215" d="M323.758,229.691c-.178.108-1.955-3.378-5.409-6.619-3.419-3.28-6.991-4.874-6.894-5.056a7.547,7.547,0,0,1,2.355.975,23.575,23.575,0,0,1,8.852,8.4,7.538,7.538,0,0,1,1.1,2.3" transform="translate(70.123 49.083)" fill="#263238"/>
            <path id="Trazado_239216" data-name="Trazado 239216" d="M328.965,225.42a10.179,10.179,0,0,0-1.874-2.226,18.793,18.793,0,0,0-6.437-2.868c-2.679-.811-5.155-1.364-6.958-1.72a18.407,18.407,0,0,1-2.918-.636,11.237,11.237,0,0,1,2.993.191,46.128,46.128,0,0,1,7.068,1.555c2.7.787,5.155,1.808,6.547,3.138a4.3,4.3,0,0,1,1.579,2.567" transform="translate(69.971 49.066)" fill="#263238"/>
            <path id="Trazado_239217" data-name="Trazado 239217" d="M341.084,211.511a5.126,5.126,0,0,1-1.659,1.117,13.574,13.574,0,0,1-4.614,1.452,35.836,35.836,0,0,1-4.8.146,7.116,7.116,0,0,1-1.981-.121,5.613,5.613,0,0,1,1.968-.331c1.222-.113,2.916-.1,4.732-.327,3.645-.456,6.248-2.16,6.354-1.936" transform="translate(73.855 47.617)" fill="#263238"/>
            <path id="Trazado_239218" data-name="Trazado 239218" d="M315.64,249.208a3.706,3.706,0,0,1-.779.118l-2.243.211-8.255.687c-6.972.555-16.6,1.441-27.261,2.033s-20.355.528-27.349.306c-3.5-.126-6.325-.247-8.278-.377l-2.248-.152a3.706,3.706,0,0,1-.782-.1,3.7,3.7,0,0,1,.788-.032l2.252.032,8.28.175c6.991.107,16.651.1,27.3-.493s20.279-1.405,27.262-1.845c3.49-.227,6.317-.4,8.271-.485l2.252-.092a3.6,3.6,0,0,1,.788.011" transform="translate(53.685 56.104)" fill="#263238"/>
            <path id="Trazado_239219" data-name="Trazado 239219" d="M270.953,219.579c-.349.567-13.828,35.61-13.828,35.61l7.841,3.166s11.863-8.38,12.033-13.588,1.544-27.626,1.544-27.626-4.038-3.334-7.59,2.438" transform="translate(57.891 48.673)" fill="#ba785d"/>
            <path id="Trazado_239220" data-name="Trazado 239220" d="M318.4,223.624l-48.517,24.231s-1.225-1.474-7.886-2.352c-7.3-.963-18.775,12.362-18.775,12.362s38.851,1.11,53.947-2,30.1-11.02,30.1-11.02Z" transform="translate(54.761 50.348)" fill="#ba785d"/>
            <path id="Trazado_239221" data-name="Trazado 239221" d="M318.227,224.043a4.3,4.3,0,0,1-.724.464c-.484.3-1.22.677-2.164,1.182-1.9.992-4.657,2.39-8.087,4.079-6.858,3.383-16.378,7.961-26.937,12.922-2.646,1.229-5.23,2.428-7.726,3.588q-.943.425-1.868.843a3.248,3.248,0,0,1-2.119.186,26.245,26.245,0,0,1-3.785-1.035,9.889,9.889,0,0,0-3.53-.575,12.252,12.252,0,0,0-3.342.606,20.487,20.487,0,0,0-5.44,2.873,49,49,0,0,0-6.735,5.976c-.733.775-1.28,1.4-1.653,1.818a4.52,4.52,0,0,1-.591.626,4.2,4.2,0,0,1,.491-.707c.342-.45.861-1.1,1.569-1.9a44.655,44.655,0,0,1,6.651-6.175,20.6,20.6,0,0,1,5.54-3.01,12.717,12.717,0,0,1,3.484-.665,10.431,10.431,0,0,1,3.724.573,26.086,26.086,0,0,0,3.7.995,2.657,2.657,0,0,0,1.784-.149l1.856-.845,7.716-3.6,38.183-18.068" transform="translate(54.829 50.443)" fill="#915641"/>
            <path id="Trazado_239222" data-name="Trazado 239222" d="M235.919,376.4l.5,1.359s-19.555,17.779-18.178,22.233l45.56-17.207-6.346-14.926c-5.588,5.694-12.544,8.725-21.534,8.542" transform="translate(49.12 82.822)" fill="#ff725e"/>
            <g id="Grupo_174296" data-name="Grupo 174296" transform="translate(302.072 457.249)" opacity="0.6">
              <g id="Grupo_174295" data-name="Grupo 174295">
                <g id="Grupo_174294" data-name="Grupo 174294" clip-path="url(#clip-path-7)">
                  <path id="Trazado_239223" data-name="Trazado 239223" d="M248.279,373.236a1.987,1.987,0,0,1,2.088,1.637,1.912,1.912,0,0,1-1.6,2.085,2.1,2.1,0,0,1-2.2-1.746c-.023-.976.941-2.11,1.909-1.984" transform="translate(-246.56 -373.22)" fill="#fff"/>
                </g>
              </g>
            </g>
            <g id="Grupo_174299" data-name="Grupo 174299" transform="translate(267.159 462.013)" opacity="0.6">
              <g id="Grupo_174298" data-name="Grupo 174298">
                <g id="Grupo_174297" data-name="Grupo 174297" clip-path="url(#clip-path-8)">
                  <path id="Trazado_239224" data-name="Trazado 239224" d="M263.823,380.7l-1.527-3.59L219.19,394.914s-1.7,1.648-.926,2.991Z" transform="translate(-218.063 -377.108)" fill="#fff"/>
                </g>
              </g>
            </g>
            <path id="Trazado_239225" data-name="Trazado 239225" d="M232.975,376.217c.092.219,1.242-.1,2.607.2,1.372.267,2.3,1.017,2.471.852.189-.12-.644-1.326-2.3-1.661-1.655-.352-2.9.421-2.775.608" transform="translate(52.452 84.547)" fill="#263238"/>
            <path id="Trazado_239226" data-name="Trazado 239226" d="M229.683,379.229c.031.235,1.137.25,2.248.905,1.13.622,1.705,1.568,1.922,1.475.223-.044-.115-1.405-1.512-2.194s-2.735-.4-2.659-.186" transform="translate(51.712 85.317)" fill="#263238"/>
            <path id="Trazado_239227" data-name="Trazado 239227" d="M229.819,385.274c.221-.028.11-1.257-.921-2.259s-2.255-1.1-2.28-.875c-.056.232.866.63,1.7,1.465.854.816,1.272,1.73,1.5,1.669" transform="translate(51.022 86.015)" fill="#263238"/>
            <path id="Trazado_239228" data-name="Trazado 239228" d="M245.966,254.721h0c.3,13.752,5.078,16.292,10.631,16.292h19.537a10.683,10.683,0,0,0,10.682-10.683v-5.609Z" transform="translate(55.379 57.35)" fill="#ebebeb"/>
            <path id="Trazado_239229" data-name="Trazado 239229" d="M247.5,254.721s-1.3,13.983,7.6,13.988c10.583.006,9.627-13.988,9.627-13.988Z" transform="translate(55.709 57.35)" fill="#e0e0e0"/>
            <path id="Trazado_239230" data-name="Trazado 239230" d="M259.915,267.526c0,.6,5.338,16.445,5.338,16.445h7.212l-4.905-15.842Z" transform="translate(58.519 60.233)" fill="#ebebeb"/>
            <path id="Trazado_239231" data-name="Trazado 239231" d="M258.075,274.238h16.047l25.8,54.708" transform="translate(58.105 61.744)" fill="none" stroke="#e0e0e0" stroke-linecap="round" stroke-linejoin="round" stroke-width="1"/>
            <path id="Trazado_239232" data-name="Trazado 239232" d="M276.1,268.149c0,.071-5.222.127-11.662.127s-11.663-.056-11.663-.127,5.22-.127,11.663-.127,11.662.058,11.662.127" transform="translate(56.912 60.344)" fill="#263238"/>
            <path id="Trazado_239233" data-name="Trazado 239233" d="M264.71,255.062a2.05,2.05,0,0,1,.025.371c0,.319.01.669.016,1.066a25.072,25.072,0,0,1-.256,3.918,11.162,11.162,0,0,1-2.23,5.353,8.4,8.4,0,0,1-6.319,3.013,7.315,7.315,0,0,1-3.608-.855,8.286,8.286,0,0,1-2.619-2.257,11.566,11.566,0,0,1-2.181-5.376,27.087,27.087,0,0,1-.278-3.916c0-.4,0-.747.006-1.066a1.9,1.9,0,0,1,.021-.371,2.1,2.1,0,0,1,.029.371c.013.319.027.668.044,1.065a30.206,30.206,0,0,0,.357,3.887,11.519,11.519,0,0,0,2.188,5.261,8.1,8.1,0,0,0,2.551,2.181,7.09,7.09,0,0,0,3.486.821,8.212,8.212,0,0,0,6.143-2.907,11.144,11.144,0,0,0,2.233-5.233,28.24,28.24,0,0,0,.334-3.89c.011-.4.022-.746.032-1.065a2.141,2.141,0,0,1,.027-.371" transform="translate(55.67 57.4)" fill="#263238"/>
          </g>
        </g>
      </g>
    </g>
    <g id="Grupo_176923" data-name="Grupo 176923" transform="translate(1030.352 1092.02)">
      <g id="Grupo_176922" data-name="Grupo 176922" clip-path="url(#clip-path-9)">
        <g id="Grupo_176921" data-name="Grupo 176921" transform="translate(0 0)">
          <g id="Grupo_176920" data-name="Grupo 176920" clip-path="url(#clip-path-9)">
            <path id="Trazado_250746" data-name="Trazado 250746" d="M7.978,8.661A9.342,9.342,0,0,1,3.872,7.574a5.088,5.088,0,0,0,1.987,1.41,4.272,4.272,0,0,0,4.153-.826,6.478,6.478,0,0,1-2.035.5" transform="translate(0.851 1.665)" fill="#9e4c0b"/>
            <path id="Trazado_250747" data-name="Trazado 250747" d="M15.927,5.467c.192-.421.342-.894-.016-1.214-.094-.084-.707-.582-.84-.539a.124.124,0,0,0,.006.122,2.343,2.343,0,0,0,.156.193.66.66,0,0,0-.083.243v0A9.819,9.819,0,0,1,13.1,3.927a10.411,10.411,0,0,0-1.791-.444,3.759,3.759,0,0,1,.373-.048.43.43,0,0,0,.263-.192c-1.531-.077-2.947.993-4.5.953a10.6,10.6,0,0,1-3.17-.89,2.118,2.118,0,0,1,.2.194,7.687,7.687,0,0,0-1,.477c-.687.371-2.025.887-2.836.516.051-.084.1-.168.151-.254h0c-.213.045-.573.078-.69.3A1.385,1.385,0,0,0,.2,5.716a.484.484,0,0,0,.128-.245,3.064,3.064,0,0,1,.073-.4,1.906,1.906,0,0,0,1.574.117A7.589,7.589,0,0,0,3.518,4.66a3.028,3.028,0,0,0,.274-.154A14.158,14.158,0,0,0,7.746,5.843a3.577,3.577,0,0,0,1.783-.434A18.918,18.918,0,0,1,11.3,4.342a14.632,14.632,0,0,0,2.718.773,1.588,1.588,0,0,0,1.625-.594,1.948,1.948,0,0,1,.184.755.391.391,0,0,0,.1.192" transform="translate(0 0.712)" fill="#9e4c0b"/>
            <path id="Trazado_250748" data-name="Trazado 250748" d="M6.136,5.343c-.712-.172-1.754-.92-2.447-1.143.448.007,2.727.355,3.162.267.549-.033,2.847-.683,3.178-.66C8.9,5,7.629,5.7,6.136,5.343" transform="translate(0.811 0.837)" fill="#fff"/>
            <path id="Trazado_250749" data-name="Trazado 250749" d="M8.216.325A5.635,5.635,0,0,0,6.809.262a6.936,6.936,0,0,0-3.72,1.761C4.38,1.568,5.565.682,6.981.663a10.373,10.373,0,0,1,3.96.884A8.254,8.254,0,0,0,8.216.325" transform="translate(0.679 0.053)" fill="#9e4c0b"/>
            <path id="Trazado_250750" data-name="Trazado 250750" d="M6.268,1.2A9.63,9.63,0,0,0,2.056,3.475c-.093.076-.131.31.051.224A24.125,24.125,0,0,0,6.281,1.385c.06-.045.124-.215-.013-.187" transform="translate(0.435 0.263)" fill="#faede6"/>
            <path id="Trazado_250751" data-name="Trazado 250751" d="M7.076,7.413a16.13,16.13,0,0,0-2.2-.727,14.176,14.176,0,0,1-1.648-.694c-.084-.044-.181.079-.181.154,0,.572.7.878,1.111,1.142a3.738,3.738,0,0,0,2.7.606c.174-.034.446-.351.211-.481" transform="translate(0.671 1.315)" fill="#faede6"/>
            <g id="Grupo_176916" data-name="Grupo 176916" transform="translate(4.348 8.808)" style="mix-blend-mode: multiply;isolation: isolate">
              <g id="Grupo_176915" data-name="Grupo 176915">
                <g id="Grupo_176914" data-name="Grupo 176914" clip-path="url(#clip-path-11)">
                  <path id="Trazado_250752" data-name="Trazado 250752" d="M9.024,8.046a4.627,4.627,0,0,1-1.9.131L7.089,8.17c-.173-.009-.344-.012-.52-.033a6.99,6.99,0,0,1-3.006-.771c1.188,2.95,6.347,2.135,7.784-.145a8.5,8.5,0,0,1-2.324.825" transform="translate(-3.565 -7.221)" fill="#fad6be"/>
                </g>
              </g>
            </g>
            <g id="Grupo_176919" data-name="Grupo 176919" transform="translate(3.569 0)" style="mix-blend-mode: multiply;isolation: isolate">
              <g id="Grupo_176918" data-name="Grupo 176918" transform="translate(0 0)">
                <g id="Grupo_176917" data-name="Grupo 176917" clip-path="url(#clip-path-12)">
                  <path id="Trazado_250753" data-name="Trazado 250753" d="M8.91.342A5.346,5.346,0,0,0,6.793,0a3.8,3.8,0,0,0-.923.16A14.01,14.01,0,0,0,2.926,2.3C4.409,1.677,5.716,1,7.412,1.163c1.445.143,2.674,1.023,4.119,1.1h.009A12.156,12.156,0,0,0,8.91.342" transform="translate(-2.926 0)" fill="#fad6be"/>
                </g>
              </g>
            </g>
          </g>
        </g>
      </g>
    </g>
  </g>
</svg>
