<svg xmlns="http://www.w3.org/2000/svg" xmlns:xlink="http://www.w3.org/1999/xlink" width="503" height="355" viewBox="0 0 503 355">
  <defs>
    <clipPath id="clip-path">
      <rect id="Rectángulo_217127" data-name="Rectángulo 217127" width="503" height="355" transform="translate(-0.199 0.136)"/>
    </clipPath>
  </defs>
  <g id="_1809_i121_027_s_Convertido_" data-name="1809_i121_027_s [Convertido]" transform="translate(0.199 -0.316)">
    <g id="Grupo_174515" data-name="Grupo 174515" transform="translate(0 0.179)" clip-path="url(#clip-path)">
      <rect id="Rectángulo_217126" data-name="Rectángulo 217126" width="503" height="355" transform="translate(-0.199 0.136)" fill="#7f514b"/>
      <g id="Grupo_174513" data-name="Grupo 174513" transform="translate(-47.919 40.045)" opacity="0.39">
        <path id="Trazado_240927" data-name="Trazado 240927" d="M-17.24,288.865l351.125-198.1L302.956,73.32-8.443,249.006Z" transform="translate(45.888 -33.473)" fill="#d3af97" opacity="0.4"/>
        <path id="Trazado_240928" data-name="Trazado 240928" d="M-42.87,380.595,407.043,126.754,376.115,109.31-21.141,333.44Z" transform="translate(42.87 -30.151)" fill="#d3af97" opacity="0.4"/>
        <path id="Trazado_240929" data-name="Trazado 240929" d="M81.986,380.092,468.924,161.784,438,144.34,39.5,369.169Z" transform="translate(52.571 -26.917)" fill="#d3af97" opacity="0.4"/>
        <path id="Trazado_240930" data-name="Trazado 240930" d="M-16.866,213.127,264.677,54.284,233.749,36.84-18.42,179.113Z" transform="translate(45.749 -36.84)" fill="#d3af97" opacity="0.4"/>
        <path id="Trazado_240931" data-name="Trazado 240931" d="M192.815,387.509l334-188.444L495.887,181.62,128.23,389.049Z" transform="translate(63.02 -23.476)" fill="#d3af97" opacity="0.4"/>
        <path id="Trazado_240932" data-name="Trazado 240932" d="M254.006,424.929,588,236.484,557.078,219.04,189.41,426.469Z" transform="translate(70.225 -20.022)" fill="#d3af97" opacity="0.4"/>
      </g>
      <g id="Grupo_174514" data-name="Grupo 174514" transform="translate(-121.345 -182.917)">
        <path id="Trazado_240933" data-name="Trazado 240933" d="M-108.56,31.618v222.9L243.984,55.6V-167.28Z" transform="translate(108.56 167.28)" fill="#ffd9a1"/>
        <path id="Trazado_240934" data-name="Trazado 240934" d="M206.31,55.6l426.082,239.9V36.315L206.31-167.28Z" transform="translate(145.642 167.28)" fill="#eabc7f"/>
      </g>
    </g>
    <g id="Grupo_174516" data-name="Grupo 174516" transform="translate(0 0.179)" clip-path="url(#clip-path)">
      <path id="Trazado_240935" data-name="Trazado 240935" d="M389.525,298.223c-2.515-2.1-13.838-7.963-17.035-10.093-5.578-3.7-10.82-7.985-17.079-10.573a40.676,40.676,0,0,0-22.713-2.381c-4.661.852-11.737,4.631-11.457,8.083.425,5.44,14.252,11.131,18,12.878a140.157,140.157,0,0,1,20.388,11.677c5.119,3.528,16.375,9.372,22.076,6.128C388.754,309.933,398.1,305.367,389.525,298.223Z" transform="translate(37.831 25.144)" fill="#5f3934" opacity="0.7"/>
      <path id="Trazado_240936" data-name="Trazado 240936" d="M392.2,207.119c2.515-2.1,13.838-7.963,17.035-10.093,5.578-3.7,10.82-7.985,17.079-10.574,7.12-2.949,9.345,2.37,16.286,5.691,11.547,5.527,6.74,11.426,1.8,14.812-6.449,4.435-11.636,6.892-18.085,11.338-5.119,3.528-11.524,5.6-17.929,4.052C397.114,219.626,383.623,214.274,392.2,207.119Z" transform="translate(45.869 16.935)" fill="#5f3934" opacity="0.7"/>
      <path id="Trazado_240937" data-name="Trazado 240937" d="M216.817,38.98l50.311,28.662L172.576,120.4,122.12,91.837Z" transform="translate(14.382 3.402)" fill="#5f3934" opacity="0.7"/>
      <path id="Trazado_240938" data-name="Trazado 240938" d="M114.923,94.27l64.54,36.854-84.023,48.2L30.71,142.6Z" transform="translate(3.617 8.506)" fill="#5f3934" opacity="0.7"/>
      <path id="Trazado_240939" data-name="Trazado 240939" d="M288.629,80.28,225.52,116.315l170.806,96.527,63.288-35.9Z" transform="translate(26.559 7.214)" fill="#5f3934" opacity="0.7"/>
      <path id="Trazado_240940" data-name="Trazado 240940" d="M6.58,167.74c0-10.257,16.006-18.58,35.746-18.58s35.746,8.323,35.746,18.58-16.006,18.58-35.746,18.58S6.58,178.008,6.58,167.74Z" transform="translate(0.775 13.572)" fill="#5f3934" opacity="0.7"/>
      <path id="Trazado_240941" data-name="Trazado 240941" d="M229.541,268.74c-1.911-2.228-5.79-3.31-8.383-4.577q-5.131-2.507-10.272-5.025c-2.571-1.256-5.22-2.72-7.97-3.976-.022-.022-.022-.055-.056-.076-1.733-.983-8.73-3.659-14.777-1.8-5.231,1.617-11.312,3.714-15.716,6.9-3.32,2.4-3.532,5.516-1.051,8.695,2.582,3.31,6.595,5.057,10.451,6.521,5.511,2.1,10.764,4.151,15.559,7.613,4.516,3.266,8.406,4.872,14.039,3.266,5.287-1.507,10.183-4.708,14.363-8.127C228.233,276.113,232.436,272.1,229.541,268.74Z" transform="translate(19.978 23.125)" fill="#5f3934" opacity="0.7"/>
      <path id="Trazado_240942" data-name="Trazado 240942" d="M285.757,244.682a8.408,8.408,0,0,0-5.913-3.659c-3.856-.666-7.8-.786-11.67-1.431a46.927,46.927,0,0,1-12.72-3.834c-3-1.442-5.9-3.168-9.1-4.162-5.745-1.78-9.412-.262-20,7.613a6.713,6.713,0,0,0-1.956,7.81c2.191,5.505,10.675,4.85,15.47,5.964a60.781,60.781,0,0,1,20.075,8.738c2.895,1.955,5.242,4.511,8.07,6.543,8.8,6.281,15.481.044,17.124-4.467C287.054,258.577,289.133,249.915,285.757,244.682Z" transform="translate(26.369 21.12)" fill="#5f3934" opacity="0.7"/>
      <path id="Trazado_240943" data-name="Trazado 240943" d="M126.742,227.327c-3.409-3.8-6.461-6.172-9.3-7.351-4.471-1.846-8.07-3.889-12.743-2.086a77.688,77.688,0,0,0-12.474,6.106c-1.855,1.07-5.757,1.977-4.125,6.215.648,1.682,4.482,3.6,5.846,4.675,7.422,5.822,12.251,6.477,16.118,4.773,2.291-1.016,4.471-2.338,6.684-3.517S128.978,229.817,126.742,227.327Z" transform="translate(10.33 19.852)" fill="#5f3934" opacity="0.7"/>
    </g>
    <g id="Grupo_174522" data-name="Grupo 174522" transform="translate(0 0.179)" clip-path="url(#clip-path)">
      <g id="Grupo_174517" data-name="Grupo 174517" transform="translate(187.409 91.328)">
        <path id="Trazado_240944" data-name="Trazado 240944" d="M167.67,105.108c0,.961,1.509,1.748,3.364,1.748s3.364-.786,3.364-1.748-1.509-1.748-3.364-1.748S167.67,104.136,167.67,105.108Z" transform="translate(-167.663 -81.984)" fill="#f7ebd1"/>
        <rect id="Rectángulo_217129" data-name="Rectángulo 217129" width="6.729" height="21.628" transform="translate(6.729 23.118) rotate(180)" fill="#f7ebd1"/>
        <path id="Trazado_240945" data-name="Trazado 240945" d="M167.67,85.538c0,.961,1.509,1.748,3.364,1.748s3.364-.786,3.364-1.748-1.509-1.748-3.364-1.748S167.67,84.576,167.67,85.538Z" transform="translate(-167.663 -83.79)" fill="#443236"/>
      </g>
      <g id="Grupo_174518" data-name="Grupo 174518" transform="translate(149.869 70.28)">
        <path id="Trazado_240946" data-name="Trazado 240946" d="M134.08,85.838c0,.961,1.509,1.748,3.364,1.748s3.364-.786,3.364-1.748-1.509-1.748-3.364-1.748S134.08,84.866,134.08,85.838Z" transform="translate(-134.078 -62.714)" fill="#f7ebd1"/>
        <rect id="Rectángulo_217130" data-name="Rectángulo 217130" width="6.729" height="21.628" transform="translate(6.729 23.123) rotate(180)" fill="#f7ebd1"/>
        <path id="Trazado_240947" data-name="Trazado 240947" d="M134.08,66.268c0,.961,1.509,1.748,3.364,1.748s3.364-.786,3.364-1.748-1.509-1.748-3.364-1.748S134.08,65.306,134.08,66.268Z" transform="translate(-134.078 -64.52)" fill="#443236"/>
      </g>
      <g id="Grupo_174519" data-name="Grupo 174519" transform="translate(264.889 47.56)">
        <path id="Trazado_240948" data-name="Trazado 240948" d="M236.98,65.028c0,.961,1.509,1.748,3.364,1.748s3.364-.786,3.364-1.748-1.509-1.748-3.364-1.748S236.98,64.066,236.98,65.028Z" transform="translate(-236.98 -41.915)" fill="#f7ebd1"/>
        <rect id="Rectángulo_217131" data-name="Rectángulo 217131" width="6.729" height="21.628" transform="translate(6.734 23.113) rotate(180)" fill="#f7ebd1"/>
        <path id="Trazado_240949" data-name="Trazado 240949" d="M236.98,45.468c0,.961,1.509,1.748,3.364,1.748s3.364-.786,3.364-1.748-1.509-1.748-3.364-1.748S236.98,44.5,236.98,45.468Z" transform="translate(-236.98 -43.72)" fill="#443236"/>
      </g>
      <g id="Grupo_174520" data-name="Grupo 174520" transform="translate(227.343 26.5)">
        <path id="Trazado_240950" data-name="Trazado 240950" d="M203.39,45.758c0,.961,1.509,1.748,3.364,1.748s3.364-.786,3.364-1.748-1.509-1.748-3.364-1.748S203.39,44.786,203.39,45.758Z" transform="translate(-203.39 -22.634)" fill="#352019"/>
        <rect id="Rectángulo_217132" data-name="Rectángulo 217132" width="6.729" height="21.628" transform="translate(6.739 23.118) rotate(180)" fill="#352019"/>
        <path id="Trazado_240951" data-name="Trazado 240951" d="M203.39,26.188c0,.961,1.509,1.748,3.364,1.748s3.364-.786,3.364-1.748-1.509-1.748-3.364-1.748S203.39,25.226,203.39,26.188Z" transform="translate(-203.39 -24.44)" fill="#443236"/>
      </g>
      <g id="Grupo_174521" data-name="Grupo 174521" transform="translate(142.627 20.951)">
        <path id="Trazado_240952" data-name="Trazado 240952" d="M216.34,19.36,264.314,46.8,175.753,96.914,127.6,69.6Z" transform="translate(-127.6 -19.36)" fill="#5e4242"/>
        <path id="Trazado_240953" data-name="Trazado 240953" d="M215.187,23.53l39.4,22.534L174.847,91.1,135.3,68.675Z" transform="translate(-126.693 -18.975)" fill="#f7ebd1"/>
        <path id="Trazado_240954" data-name="Trazado 240954" d="M259.241,44.48V48.6L170.68,98.7V94.595Z" transform="translate(-122.526 -17.041)" fill="#3f2828"/>
        <path id="Trazado_240955" data-name="Trazado 240955" d="M175.753,92.669v4.107L127.6,69.468V65.35Z" transform="translate(-127.6 -15.115)" fill="#492e2e"/>
      </g>
    </g>
    <g id="Grupo_174530" data-name="Grupo 174530" transform="translate(0 0.179)" clip-path="url(#clip-path)">
      <g id="Grupo_174523" data-name="Grupo 174523" transform="translate(259.032 41.802)">
        <path id="Trazado_240956" data-name="Trazado 240956" d="M290.311,87.167V49c0-8.848-5.555-12.944-12.34-9.121L244.08,59.007c-6.785,3.834-12.34,14.2-12.34,23.037v38.165Z" transform="translate(-231.74 -38.449)" fill="#c19e7c"/>
        <path id="Trazado_240957" data-name="Trazado 240957" d="M239.978,119.044l-8.238-4.883s3.1-10.421,4.113-10.071,14.408,5.1,14.408,5.1Z" transform="translate(-231.74 -32.39)" fill="#c19e7c"/>
        <path id="Trazado_240958" data-name="Trazado 240958" d="M280.469,39.02l8.976,5.309-2.258,5.429L275.54,44.329Z" transform="translate(-226.582 -38.396)" fill="#c19e7c"/>
        <path id="Trazado_240959" data-name="Trazado 240959" d="M297.681,91.636V53.482c0-8.848-5.555-12.944-12.34-9.121L251.45,63.487c-6.785,3.834-12.34,14.2-12.34,23.037v38.165Z" transform="translate(-230.872 -38.035)" fill="#af8661"/>
      </g>
      <g id="Grupo_174524" data-name="Grupo 174524" transform="translate(312.594 20.141)">
        <path id="Trazado_240960" data-name="Trazado 240960" d="M424.946,94.656l-30.6-17.269c-.022-.011-.045-.011-.067-.033l-97.8-57.685c-5.052-2.851-9.244.306-9.311,7l-.369,34.91c-.067,6.707,4,14.517,9.054,17.368l117.779,69.471c.537.306,1.028-.142,1.464-1.114l9.859,5.56c5.052,2.851,9.188-.208,9.188-6.783V111.794C434.123,105.229,429.987,97.506,424.946,94.656Z" transform="translate(-278.82 -18.618)" fill="#c19e7c"/>
        <path id="Trazado_240961" data-name="Trazado 240961" d="M283.03,23.5l8.1-4.4,4.661,4.915-9.646,6.226Z" transform="translate(-279.262 -18.574)" fill="#c19e7c"/>
        <path id="Trazado_240962" data-name="Trazado 240962" d="M417.108,142.608c-.19.109-7.936,4.315-7.936,4.315l-5.432-8.99,5.555-2.873Z" transform="translate(-265.046 -7.87)" fill="#622c2a"/>
        <path id="Trazado_240963" data-name="Trazado 240963" d="M417.816,98.626l-30.6-17.269c-.022-.011-.045-.011-.067-.033l-97.8-57.685c-5.052-2.851-9.244.306-9.311,7l-.369,34.91c-.067,6.707,4,14.517,9.054,17.368l117.779,69.471c.537.306,1.028-.142,1.464-1.114l9.859,5.56c5.052,2.851,9.188-.208,9.188-6.783V115.775C426.993,109.188,422.869,101.476,417.816,98.626Z" transform="translate(-279.659 -18.252)" fill="#d3b798"/>
      </g>
      <g id="Grupo_174528" data-name="Grupo 174528" transform="translate(259.032 65.779)">
        <path id="Trazado_240964" data-name="Trazado 240964" d="M377.5,188.063,233.5,106.817c-2.6-1.464-2.269-4.063.738-5.756l49.551-27.952c3.007-1.693,7.6-1.879,10.205-.415l143.991,81.246c2.6,1.464,2.269,4.063-.738,5.756L387.7,187.648C384.683,189.352,380.1,189.537,377.5,188.063Z" transform="translate(-231.739 -59.356)" fill="#c19e7c"/>
        <rect id="Rectángulo_217134" data-name="Rectángulo 217134" width="19.606" height="13.228" transform="translate(0 32.059)" fill="#c19e7c"/>
        <rect id="Rectángulo_217135" data-name="Rectángulo 217135" width="19.606" height="13.228" transform="translate(188.389 84.162)" fill="#622c2a"/>
        <path id="Trazado_240965" data-name="Trazado 240965" d="M377.5,176.337l-144-81.235c-2.6-1.475-2.269-4.063.738-5.756L285.315,60.4s154.252,86.259,151.245,87.952l-48.869,27.57C384.684,177.626,380.1,177.812,377.5,176.337Z" transform="translate(-231.74 -60.4)" fill="#d3b798"/>
        <path id="Trazado_240966" data-name="Trazado 240966" d="M377.486,173.378,236.4,93.781c-2.549-1.442-2.224-3.976.715-5.636l48.545-27.4,150.373,84.839-48.545,27.4C384.539,174.634,380.034,174.819,377.486,173.378Z" transform="translate(-231.393 -60.368)" fill="#e0c5aa"/>
        <g id="Grupo_174525" data-name="Grupo 174525" transform="translate(36.428 17.925)">
          <path id="Trazado_240967" data-name="Trazado 240967" d="M283.915,87.268c0,.841-1.308,1.518-2.917,1.518s-2.917-.677-2.917-1.518S279.388,85.75,281,85.75,283.915,86.438,283.915,87.268Z" transform="translate(-262.711 -75.985)" fill="#c19e7c"/>
          <path id="Trazado_240968" data-name="Trazado 240968" d="M279.342,89.92s-2.493.35-7.265,2.96c-3.677,2.01-7.746,6.554-7.746,6.554s5.041-2.862,8.8-5.363C277.3,91.307,279.342,89.92,279.342,89.92Z" transform="translate(-264.33 -75.6)" fill="#c19e7c"/>
          <path id="Trazado_240969" data-name="Trazado 240969" d="M299.432,76.81s-2.493.35-7.266,2.96c-3.677,2.01-7.746,6.554-7.746,6.554s5.041-2.862,8.8-5.363C297.386,78.208,299.432,76.81,299.432,76.81Z" transform="translate(-261.964 -76.81)" fill="#c19e7c"/>
          <path id="Trazado_240970" data-name="Trazado 240970" d="M264.33,76.81s2.493.35,7.266,2.96c3.677,2.01,7.746,6.554,7.746,6.554s-5.041-2.862-8.8-5.363C266.376,78.208,264.33,76.81,264.33,76.81Z" transform="translate(-264.33 -76.81)" fill="#c19e7c"/>
          <path id="Trazado_240971" data-name="Trazado 240971" d="M285.21,89.46s2.493.35,7.266,2.96c3.677,2.01,7.746,6.554,7.746,6.554s-5.041-2.862-8.8-5.363C287.255,90.847,285.21,89.46,285.21,89.46Z" transform="translate(-261.871 -75.642)" fill="#c19e7c"/>
        </g>
        <g id="Grupo_174526" data-name="Grupo 174526" transform="translate(82.726 45.003)">
          <path id="Trazado_240972" data-name="Trazado 240972" d="M325.335,112.058c0,.841-1.308,1.518-2.917,1.518s-2.917-.677-2.917-1.518,1.308-1.518,2.917-1.518S325.335,111.228,325.335,112.058Z" transform="translate(-304.131 -100.775)" fill="#c19e7c"/>
          <path id="Trazado_240973" data-name="Trazado 240973" d="M320.762,114.71s-2.493.35-7.266,2.96c-3.677,2.01-7.746,6.554-7.746,6.554s5.041-2.862,8.8-5.363C318.716,116.108,320.762,114.71,320.762,114.71Z" transform="translate(-305.75 -100.39)" fill="#c19e7c"/>
          <path id="Trazado_240974" data-name="Trazado 240974" d="M340.852,101.6s-2.493.35-7.266,2.96c-3.677,2.01-7.746,6.554-7.746,6.554s5.041-2.862,8.8-5.363C338.806,103,340.852,101.6,340.852,101.6Z" transform="translate(-303.384 -101.6)" fill="#c19e7c"/>
          <path id="Trazado_240975" data-name="Trazado 240975" d="M305.75,101.6s2.493.35,7.265,2.96c3.677,2.01,7.746,6.554,7.746,6.554s-5.041-2.862-8.8-5.363C307.8,103,305.75,101.6,305.75,101.6Z" transform="translate(-305.75 -101.6)" fill="#c19e7c"/>
          <path id="Trazado_240976" data-name="Trazado 240976" d="M326.63,114.25s2.493.35,7.265,2.96c3.677,2.01,7.746,6.554,7.746,6.554s-5.041-2.862-8.8-5.363C328.675,115.637,326.63,114.25,326.63,114.25Z" transform="translate(-303.291 -100.432)" fill="#c19e7c"/>
        </g>
        <g id="Grupo_174527" data-name="Grupo 174527" transform="translate(133.216 73.447)">
          <path id="Trazado_240977" data-name="Trazado 240977" d="M370.5,138.1c0,.841-1.308,1.518-2.917,1.518s-2.917-.677-2.917-1.518,1.308-1.518,2.917-1.518S370.5,137.257,370.5,138.1Z" transform="translate(-349.301 -126.815)" fill="#c19e7c"/>
          <path id="Trazado_240978" data-name="Trazado 240978" d="M365.932,140.74s-2.493.35-7.266,2.96c-3.677,2.01-7.746,6.554-7.746,6.554s5.041-2.862,8.8-5.363C363.886,142.138,365.932,140.74,365.932,140.74Z" transform="translate(-350.92 -126.431)" fill="#c19e7c"/>
          <path id="Trazado_240979" data-name="Trazado 240979" d="M386.022,127.64s-2.493.35-7.266,2.96c-3.677,2.01-7.746,6.554-7.746,6.554s5.041-2.862,8.8-5.363C383.976,129.027,386.022,127.64,386.022,127.64Z" transform="translate(-348.554 -127.64)" fill="#c19e7c"/>
          <path id="Trazado_240980" data-name="Trazado 240980" d="M350.92,127.64s2.493.35,7.265,2.96c3.677,2.01,7.746,6.554,7.746,6.554s-5.041-2.862-8.8-5.363C352.965,129.027,350.92,127.64,350.92,127.64Z" transform="translate(-350.92 -127.64)" fill="#c19e7c"/>
          <path id="Trazado_240981" data-name="Trazado 240981" d="M371.8,140.28s2.493.35,7.266,2.96c3.677,2.01,7.746,6.554,7.746,6.554s-5.041-2.862-8.8-5.363C373.845,141.678,371.8,140.28,371.8,140.28Z" transform="translate(-348.461 -126.473)" fill="#c19e7c"/>
        </g>
      </g>
      <g id="Grupo_174529" data-name="Grupo 174529" transform="translate(413.764 127.417)">
        <path id="Trazado_240982" data-name="Trazado 240982" d="M428.741,165.547V127.382c0-8.848-5.555-12.944-12.34-9.121L382.51,137.387c-6.785,3.834-12.34,14.2-12.34,23.037v38.165Z" transform="translate(-370.17 -116.829)" fill="#c19e7c"/>
        <path id="Trazado_240983" data-name="Trazado 240983" d="M378.408,197.414l-8.238-4.883s3.1-10.421,4.113-10.071,14.408,5.1,14.408,5.1Z" transform="translate(-370.17 -110.771)" fill="#c19e7c"/>
        <path id="Trazado_240984" data-name="Trazado 240984" d="M418.9,117.4l8.976,5.309-2.269,5.429-11.647-5.429Z" transform="translate(-365.013 -116.776)" fill="#c19e7c"/>
        <path id="Trazado_240985" data-name="Trazado 240985" d="M436.111,170.017V131.852c0-8.848-5.555-12.944-12.34-9.121L389.88,141.857c-6.785,3.834-12.34,14.2-12.34,23.037v38.165Z" transform="translate(-369.302 -116.416)" fill="#af8661"/>
      </g>
      <path id="Trazado_240986" data-name="Trazado 240986" d="M310.794,44.26a157.124,157.124,0,0,0-2.28,15.554c-.347,5.713,2.28,15.554,2.28,15.554s.056-8.771,0-15.554S310.794,44.26,310.794,44.26Z" transform="translate(36.33 3.889)" fill="#c19e7c"/>
      <path id="Trazado_240987" data-name="Trazado 240987" d="M375.474,81.68a157.134,157.134,0,0,0-2.28,15.554c-.347,5.713,2.28,15.554,2.28,15.554s.056-8.771,0-15.554S375.474,81.68,375.474,81.68Z" transform="translate(43.947 7.344)" fill="#c19e7c"/>
      <path id="Trazado_240988" data-name="Trazado 240988" d="M340.814,61.85a157.14,157.14,0,0,0-2.28,15.554c-.346,5.713,2.28,15.554,2.28,15.554s.056-8.771,0-15.554S340.814,61.85,340.814,61.85Z" transform="translate(39.865 5.513)" fill="#c19e7c"/>
    </g>
    <g id="Grupo_174536" data-name="Grupo 174536" transform="translate(0 0.179)" clip-path="url(#clip-path)">
      <g id="Grupo_174531" data-name="Grupo 174531" transform="translate(108.882 56.755)">
        <path id="Trazado_240989" data-name="Trazado 240989" d="M104.78,100.857V62.692c0-8.848,5.555-12.944,12.34-9.121L151.011,72.7c6.785,3.834,12.34,14.2,12.34,23.037V133.9Z" transform="translate(-96.542 -52.139)" fill="#c19e7c"/>
        <path id="Trazado_240990" data-name="Trazado 240990" d="M150.9,132.724l8.238-4.883s-3.1-10.421-4.113-10.071-14.408,5.1-14.408,5.1Z" transform="translate(-92.321 -46.081)" fill="#c19e7c"/>
        <path id="Trazado_240991" data-name="Trazado 240991" d="M109.927,52.71l-8.987,5.309,2.269,5.429,11.647-5.429Z" transform="translate(-96.994 -52.086)" fill="#c19e7c"/>
        <path id="Trazado_240992" data-name="Trazado 240992" d="M97.41,105.327V67.162c0-8.848,5.555-12.944,12.34-9.121l33.891,19.126c6.785,3.834,12.34,14.2,12.34,23.037v38.165Z" transform="translate(-97.41 -51.726)" fill="#af8661"/>
      </g>
      <g id="Grupo_174532" data-name="Grupo 174532" transform="translate(45.035 35.106)">
        <path id="Trazado_240993" data-name="Trazado 240993" d="M49.467,62.031,99.744,33.369c5.052-2.851,9.244.306,9.311,7l.369,34.91c.067,6.707-4,14.517-9.054,17.368L58.431,117.389v-2.2l-8.953,5.057c-5.052,2.851-9.188-.208-9.188-6.783V79.18C40.29,72.593,44.415,64.882,49.467,62.031Z" transform="translate(-40.29 -32.318)" fill="#c19e7c"/>
        <path id="Trazado_240994" data-name="Trazado 240994" d="M107.245,37.182l-8.1-4.4L94.48,37.706l9.646,6.226Z" transform="translate(-33.908 -32.276)" fill="#c19e7c"/>
        <path id="Trazado_240995" data-name="Trazado 240995" d="M56.6,66l50.277-28.662c5.052-2.851,9.244.306,9.311,7l.369,34.91c.067,6.707-4,14.517-9.054,17.368l-49.92,29.438v-2.4l-.995.557c-5.052,2.851-9.188-.208-9.188-6.783V83.139C47.422,76.563,51.547,68.841,56.6,66Z" transform="translate(-39.453 -31.952)" fill="#d3b798"/>
      </g>
      <g id="Grupo_174534" data-name="Grupo 174534" transform="translate(46.097 80.733)">
        <path id="Trazado_240996" data-name="Trazado 240996" d="M46.53,121.054l61.444-34.67c2.6-1.475,7.2-1.278,10.205.415l49.551,27.952c3.007,1.693,3.331,4.282.738,5.756l-80.289,45.3C76.553,148.918,62.134,134.412,46.53,121.054Z" transform="translate(-40.617 -73.047)" fill="#c19e7c"/>
        <rect id="Rectángulo_217137" data-name="Rectángulo 217137" width="19.606" height="13.228" transform="translate(110 32.048)" fill="#c19e7c"/>
        <path id="Trazado_240997" data-name="Trazado 240997" d="M52.45,120.873c-1.967-2.436-3.957-4.839-5.98-7.176C82.384,93.26,116.655,74.09,116.655,74.09l51.082,28.946c3.007,1.693,3.331,4.282.738,5.756L81.434,157.9C72.313,145.166,62.309,133.085,52.45,120.873Z" transform="translate(-40.624 -74.09)" fill="#d3b798"/>
        <path id="Trazado_240998" data-name="Trazado 240998" d="M52.228,125.483c-3.555-2.982-7.243-5.8-10.988-8.542l75.338-42.5,48.545,27.4c2.951,1.66,3.264,4.194.715,5.636l-83.3,46.991A355.9,355.9,0,0,0,52.228,125.483Z" transform="translate(-41.24 -74.058)" fill="#e0c5aa"/>
        <g id="Grupo_174533" data-name="Grupo 174533" transform="translate(51.54 20.317)">
          <path id="Trazado_240999" data-name="Trazado 240999" d="M102.69,103.158c0,.841,1.308,1.518,2.917,1.518s2.917-.677,2.917-1.518-1.308-1.518-2.917-1.518S102.69,102.317,102.69,103.158Z" transform="translate(-85.543 -91.864)" fill="#c19e7c"/>
          <path id="Trazado_241000" data-name="Trazado 241000" d="M108.24,105.8s2.493.35,7.265,2.96c3.677,2.01,7.746,6.554,7.746,6.554s-5.041-2.862-8.8-5.363C110.286,107.2,108.24,105.8,108.24,105.8Z" transform="translate(-84.89 -91.48)" fill="#c19e7c"/>
          <path id="Trazado_241001" data-name="Trazado 241001" d="M88.15,92.69s2.493.35,7.265,2.96c3.677,2.01,7.746,6.554,7.746,6.554s-5.041-2.862-8.8-5.363C90.2,94.088,88.15,92.69,88.15,92.69Z" transform="translate(-87.256 -92.69)" fill="#c19e7c"/>
          <path id="Trazado_241002" data-name="Trazado 241002" d="M123.252,92.69s-2.493.35-7.266,2.96c-3.677,2.01-7.746,6.554-7.746,6.554s5.041-2.862,8.8-5.363C121.206,94.088,123.252,92.69,123.252,92.69Z" transform="translate(-84.89 -92.69)" fill="#c19e7c"/>
          <path id="Trazado_241003" data-name="Trazado 241003" d="M102.362,105.34s-2.493.35-7.265,2.96c-3.677,2.01-7.746,6.554-7.746,6.554s5.041-2.862,8.8-5.363C100.316,106.738,102.362,105.34,102.362,105.34Z" transform="translate(-87.35 -91.522)" fill="#c19e7c"/>
        </g>
      </g>
      <g id="Grupo_174535" data-name="Grupo 174535" transform="translate(41.279 94.582)">
        <path id="Trazado_241004" data-name="Trazado 241004" d="M44.3,135.487V97.322c0-8.848,5.555-12.944,12.34-9.121l33.891,19.126c6.785,3.834,12.34,14.2,12.34,23.037v38.165Z" transform="translate(-36.062 -86.769)" fill="#c19e7c"/>
        <path id="Trazado_241005" data-name="Trazado 241005" d="M90.413,167.364l8.238-4.883s-3.1-10.421-4.113-10.071-14.408,5.1-14.408,5.1Z" transform="translate(-31.842 -80.71)" fill="#c19e7c"/>
        <path id="Trazado_241006" data-name="Trazado 241006" d="M49.447,87.34,40.46,92.649l2.269,5.429,11.647-5.429Z" transform="translate(-36.514 -86.716)" fill="#c19e7c"/>
        <path id="Trazado_241007" data-name="Trazado 241007" d="M36.93,139.957V101.792c0-8.848,5.555-12.944,12.34-9.121L83.161,111.8c6.785,3.834,12.34,14.2,12.34,23.037V173Z" transform="translate(-36.93 -86.356)" fill="#af8661"/>
      </g>
      <path id="Trazado_241008" data-name="Trazado 241008" d="M79.563,57.87a157.136,157.136,0,0,1,2.28,15.554c.347,5.713-2.28,15.554-2.28,15.554s-.056-8.771,0-15.554S79.563,57.87,79.563,57.87Z" transform="translate(9.367 5.146)" fill="#c19e7c"/>
    </g>
    <g id="Grupo_174537" data-name="Grupo 174537" transform="translate(0 0.179)" clip-path="url(#clip-path)">
      <path id="Trazado_241009" data-name="Trazado 241009" d="M10.32,141.54v23.419c0,9.066,14.14,16.406,31.566,16.406s31.566-7.351,31.566-16.406V141.54Z" transform="translate(1.215 12.869)" fill="#f4a337"/>
      <path id="Trazado_241010" data-name="Trazado 241010" d="M10.32,144c0,9.066,14.14,16.406,31.566,16.406S73.452,153.052,73.452,144,59.312,127.59,41.886,127.59,10.32,134.941,10.32,144Z" transform="translate(1.215 11.581)" fill="#fdbc52"/>
      <path id="Trazado_241011" data-name="Trazado 241011" d="M15.48,141.793c0,7.406,11.547,13.414,25.8,13.414s25.8-6.008,25.8-13.414-11.547-13.4-25.8-13.4S15.48,134.387,15.48,141.793Z" transform="translate(1.823 11.655)" fill="#ffc878"/>
      <path id="Trazado_241012" data-name="Trazado 241012" d="M24.23,148.264s5.9-3.19,7.578-4.347c2.47-1.682,6.092-3.583,6.092-3.583a16.558,16.558,0,0,0-7.914,1.322C26.89,143.163,24.23,148.264,24.23,148.264Z" transform="translate(2.854 12.753)" fill="#f4a337"/>
      <path id="Trazado_241013" data-name="Trazado 241013" d="M39.28,139.094s5.9-3.19,7.578-4.347c2.47-1.682,6.092-3.583,6.092-3.583a16.558,16.558,0,0,0-7.914,1.322C41.94,133.993,39.28,139.094,39.28,139.094Z" transform="translate(4.626 11.907)" fill="#f4a337"/>
      <path id="Trazado_241014" data-name="Trazado 241014" d="M53.64,149.183s-5.9-3.943-7.578-5.09c-2.47-1.682-6.092-3.583-6.092-3.583,1.464.8,3.935-.426,7.914,1.322C51.047,143.219,53.64,149.183,53.64,149.183Z" transform="translate(4.707 12.774)" fill="#f4a337"/>
      <path id="Trazado_241015" data-name="Trazado 241015" d="M38.67,139.238s-5.9-3.19-7.578-4.347a26.43,26.43,0,0,0-6.852-2.774s5.03-1.256,8.685.524C36.021,134.137,38.67,139.238,38.67,139.238Z" transform="translate(2.855 11.959)" fill="#f4a337"/>
    </g>
    <g id="Grupo_174543" data-name="Grupo 174543" transform="translate(0 0.179)" clip-path="url(#clip-path)">
      <g id="Grupo_174541" data-name="Grupo 174541" transform="translate(217.926 78.45)">
        <path id="Trazado_241016" data-name="Trazado 241016" d="M241.174,107.759c-8.629-2.884-15.336-4.959-15.336-4.959l-4.538,8.891a139.526,139.526,0,0,0,25.15,13.927c7.288,2.971,17.1,2.84,17.1,2.84l-4.5-15.849C259.058,112.6,249.814,110.643,241.174,107.759Z" transform="translate(-191.864 -69.157)" fill="#d13c34"/>
        <g id="Grupo_174538" data-name="Grupo 174538" transform="translate(35.847 171.177)">
          <path id="Trazado_241017" data-name="Trazado 241017" d="M242.18,228.863a12.682,12.682,0,0,1-3.51,5.451c-2.683,2.425-5.3,3.834-7.947,6.161-2.4,2.108-2.224,4.369-.022,5.877,1.9,1.3,3.04.4,6.528-1.638,3.1-1.813,6.718-4.446,9.836-5.877,2.336-1.07,4.013-2.3,3.074-6.74S242.18,228.863,242.18,228.863Z" transform="translate(-226.806 -228.712)" fill="#ffc5b3"/>
          <path id="Trazado_241018" data-name="Trazado 241018" d="M233.646,237.917a17.4,17.4,0,0,0-5.868,4.1c-2.068,2.523.279,6.3,5.857,5.483,2.94-.437,6.885-3.528,8.473-4.675,2.224-1.606,6.114-3.441,7.858-4.9s.671-5.167.671-5.167a7.943,7.943,0,0,1-2.75,3.714,34.2,34.2,0,0,1-6.818,3.932c-3.454,1.18-5.891,2.021-7.232.426A2.3,2.3,0,0,1,233.646,237.917Z" transform="translate(-227.036 -228.339)" fill="#dd4f41"/>
        </g>
        <g id="Grupo_174539" data-name="Grupo 174539" transform="translate(78.561 181.243)">
          <path id="Trazado_241019" data-name="Trazado 241019" d="M268.518,239.711a79.288,79.288,0,0,1-1.274,8.236,45.309,45.309,0,0,0-1.084,10.093c-.022,2.1,5.153,5.243,8.327,2.01,2.381-2.425,3.029-10.89,2.906-12.551-.279-3.878,1.2-5.669-1.587-8.487C273.034,236.215,268.518,239.711,268.518,239.711Z" transform="translate(-265.142 -237.927)" fill="#ffc5b3"/>
          <path id="Trazado_241020" data-name="Trazado 241020" d="M266.848,249.88s-.067,4.194,1.308,6.073,5.153,2.731,6.841-1.344a34.71,34.71,0,0,0,2.213-9.656,13.841,13.841,0,0,0-.771-4.664,3.731,3.731,0,0,1,1.721,4.14c-.659,2.873.179,7.1.034,9.263-.346,5.145-1.71,8.946-5.5,10.606-3.052,1.333-7.511.36-7.444-4.631A36.57,36.57,0,0,1,266.848,249.88Z" transform="translate(-265.249 -237.709)" fill="#dd4f41"/>
        </g>
        <path id="Trazado_241021" data-name="Trazado 241021" d="M262.33,153.676s-19.963-4.719-23.618,1.442-3.946,18.209-1.811,31.076c.6,3.616,1.263,11.578,1.811,16.658.369,3.441-.011,17.968-.011,24.424s.011,11.5.011,11.5A8.119,8.119,0,0,0,244.9,241.4c4.035,0,5.578-1.912,5.578-1.912s5.309-16.45,5.958-22.108a35.285,35.285,0,0,0,0-9.285l2.481-6.062C259.513,202.1,262.33,153.676,262.33,153.676Z" transform="translate(-190.184 -64.62)" fill="#3f2828"/>
        <path id="Trazado_241022" data-name="Trazado 241022" d="M279.55,155.57s5.757,7.744,6.505,22.414c.671,13.086-4.594,24.009-5.712,32.07,3.812,13.14,1.207,39.88,1.207,39.88s-9.2,6.685-13.972-.24c-.581-7.209-4.583-27.144-6.807-35.707-1.867-7.187-6.517-21.486-7.377-28.782-7.456-6.379-2.973-24.511-2.973-24.511Z" transform="translate(-188.592 -64.286)" fill="#492e2e"/>
        <path id="Trazado_241023" data-name="Trazado 241023" d="M259.462,113.873a3.679,3.679,0,0,0-5.052-.579c-4.851,3.255-5.7,6.729-10.809,12.354-4.1,4.511-4.672,10.4-3.141,12.911a12.379,12.379,0,0,0,4.639,4.227s.425,5.221-2.1,8.684a78.268,78.268,0,0,0-4.628,7.275,18.563,18.563,0,0,0,14.419,13.261c9.4,1.966,28.347-.076,30.772-7.231-2.135-5.877-7.355-10.191-6.092-16.09s8.909-18.711,6.9-22.327c-2.347-4.205-8.082-6.543-10.127-7.723a28.641,28.641,0,0,0-5.611-2.381A72.26,72.26,0,0,0,259.462,113.873Z" transform="translate(-189.854 -68.258)" fill="#dd4f41"/>
        <path id="Trazado_241024" data-name="Trazado 241024" d="M256.57,113.36s-2.269,3.7-3.923,6.193-2.75,4.642-2.2,7.067,5.622,5.254,11.77,1.551a38.914,38.914,0,0,0,10.641-9.59,20.951,20.951,0,0,0-5.131-2.654C265.792,115.49,256.57,113.36,256.57,113.36Z" transform="translate(-188.448 -68.182)" fill="#d13c34"/>
        <path id="Trazado_241025" data-name="Trazado 241025" d="M250.448,101.05a28.041,28.041,0,0,0-.358,6.04c.257,2.043-1.8,2.294-2.917,3.9a3.182,3.182,0,0,0,.57,4.238,2.4,2.4,0,0,1,3.152-1.857c2.694.677,6.215-1.376,6.215-1.376S253.847,101.705,250.448,101.05Z" transform="translate(-188.888 -69.319)" fill="#492e2e"/>
        <path id="Trazado_241026" data-name="Trazado 241026" d="M268.265,114.715a43.1,43.1,0,0,1-1.2-12.714c-.179-.885-.279-1.431-.279-1.431l-10.63,6.805a10.334,10.334,0,0,1,1.185,5.33c-.1,5-7.947,12.671-5.119,15.227,2.47,2.239,5.544,2.414,9.7-.47a53.032,53.032,0,0,0,9.322-8.64A5.921,5.921,0,0,1,268.265,114.715Z" transform="translate(-188.295 -69.363)" fill="#f4b19f"/>
        <path id="Trazado_241027" data-name="Trazado 241027" d="M252.248,125.909a5.978,5.978,0,0,0,1.688,1.081c.212-.208.637-.513.85-.7a22.069,22.069,0,0,1,3.566-2.6,9.565,9.565,0,0,0-6.181,2.119A.342.342,0,0,0,252.248,125.909Z" transform="translate(-188.229 -67.23)" fill="#e89989"/>
        <path id="Trazado_241028" data-name="Trazado 241028" d="M265.873,95.023c-3.063-2.534-10.574-3.681-13.737,3.8-3.32,7.854,1.531,16.5,5.846,16.843,5.075.393,8.6-3,10.127-7.155C269.83,103.848,268.254,96.989,265.873,95.023Z" transform="translate(-188.362 -70.052)" fill="#ffc5b3"/>
        <path id="Trazado_241029" data-name="Trazado 241029" d="M279.541,103.356c-1.52-2.49-3.376-1.977-3.376-4.042,0-1.431-.347-2.96-2.616-4.948a6.681,6.681,0,0,0-2.984-1.4,5.659,5.659,0,0,0-.324-1.18,5.3,5.3,0,0,0-7.3-2.895c-2.392,1.038-3.588.961-5.03,0a4.08,4.08,0,0,0-5.779,2.49c-.492,1.529-.481,3.091-3.722,5.516s-1.1,5.243,0,7.635a3.153,3.153,0,0,1-.414,3.736s2.146.076,2.75-1.278c.782-1.737,1.174-2.152,2.66-2.152,1.677,0,2.124-1.409,2.3-3.626.134-1.748,2.549-2.086,2.549-2.086a7.384,7.384,0,0,0,2.6,1.595,12.345,12.345,0,0,0,1.52,4.129c1.084,1.486,2.962.535,3.923,2.84.514,1.234-.57,3.474-.2,4.566.313.95,1.677,2.316,1.855,3.233a4.319,4.319,0,0,1-1.654,3.965s4.683,1.409,6.606-1.518c1.274-1.933,2.4-2.392,4.057-2.141a3.867,3.867,0,0,0,4.549-3.463C279.362,110.609,281.486,106.556,279.541,103.356Z" transform="translate(-188.873 -70.488)" fill="#492e2e"/>
        <path id="Trazado_241030" data-name="Trazado 241030" d="M258.52,99.405a10.3,10.3,0,0,1,1.889-1.42c.984-.524,1.755.164.928,1.18a5.154,5.154,0,0,1-1.7,1.344Z" transform="translate(-187.481 -69.618)" fill="#dd4f41"/>
        <path id="Trazado_241031" data-name="Trazado 241031" d="M247.54,140.854s2.113,1.289,4.873,2.8c2.057,1.136,4.3,2.949,6.651,3.353,4.27.732,7.847-.164,10.183-3.353a16.453,16.453,0,0,0,2.392-6.281s-3.856,6.281-10.239,6.608C256.516,144.23,251.016,141.051,247.54,140.854Z" transform="translate(-188.774 -65.966)" fill="#d13c34"/>
        <path id="Trazado_241032" data-name="Trazado 241032" d="M224.413,112.6a14.146,14.146,0,0,0,3.04-3.965,10.212,10.212,0,0,0,1.5-4.926L214.1,98.155s-2.258-1.638-3.622-2.862c-1.565-1.409-2.906-3.069-3.32-2.141-.961,2.141,1.386,3.747.972,4.435s-7.1-.59-10.842,1.245c-4.348,2.13-1.755,7.1,1.062,7.176,3.465.1,11.938-1.486,11.938-1.486S221.752,111.351,224.413,112.6Z" transform="translate(-194.965 -70.072)" fill="#ffc5b3"/>
        <g id="Grupo_174540" data-name="Grupo 174540" transform="translate(84.878 52.366)">
          <path id="Trazado_241033" data-name="Trazado 241033" d="M295.133,146.3c-.246-3.965-2.694-8.913-5.924-14.342-4.9-8.236-10.965-13.217-14.665-11.764-2.772,3.135-5.757,10.246-1.554,15.751a52.191,52.191,0,0,0,9.523,9.372s-.771,1.136-1.867,3.015a13.012,13.012,0,0,1,8.618,6.4c1.174-1.136,2.314-2.228,3.309-3.146C294.518,149.793,295.267,148.34,295.133,146.3Z" transform="translate(-270.9 -119.94)" fill="#d13c34"/>
          <path id="Trazado_241034" data-name="Trazado 241034" d="M280.394,145.92a73.454,73.454,0,0,0-4.482,9.022,56.311,56.311,0,0,0-2.336,6.663c-.872,3.277-.4,5.811,1.107,7.592a7.2,7.2,0,0,0,6.83,2.1c2.046-.524,3.476-2.37,3.309-3-.313-1.158-1.654-.109-3.309-.284,2.548-2.2-.2-8.072-.2-8.072s3.979-4.009,7.7-7.613A12.988,12.988,0,0,0,280.394,145.92Z" transform="translate(-270.637 -117.542)" fill="#ffc5b3"/>
        </g>
        <path id="Trazado_241035" data-name="Trazado 241035" d="M247.329,96.12,231.7,82.8l-.715,6.281L214.12,81.21l20.042,15.653,1.062-5.6Z" transform="translate(-192.71 -71.15)" fill="#fff"/>
        <path id="Trazado_241036" data-name="Trazado 241036" d="M246.259,86.37l-8.439-5.057,2.616-3.222Z" transform="translate(-189.919 -71.438)" fill="#fff"/>
        <path id="Trazado_241037" data-name="Trazado 241037" d="M246.807,81.94l-5.287-8.17L245.332,72Z" transform="translate(-189.483 -72)" fill="#fff"/>
        <path id="Trazado_241038" data-name="Trazado 241038" d="M281.67,104.9l9.825,1.223-1.04,4Z" transform="translate(-184.754 -68.963)" fill="#fff"/>
        <path id="Trazado_241039" data-name="Trazado 241039" d="M280.07,100.695l10.865-7.155,2.537,4.861Z" transform="translate(-184.943 -70.012)" fill="#fff"/>
      </g>
      <g id="Grupo_174542" data-name="Grupo 174542" transform="translate(193.429 117.682)">
        <path id="Trazado_241040" data-name="Trazado 241040" d="M209.56,123.385c2.146-2,3.331,2.119,3.6,5.112s-1.364,6.368-1.118,6.849c.592,1.158,2.47-1.223,3.42-1.223,1.543,0,1.978.9-.391,2.381-2.191,1.365-3.4,3.2-4.471,3.692-1.844.852-5.086,1.191-8.707,4.861-2.057,2.086-4.941,11.928-8.361,8.891s-4.225-10.475-1.062-12.1,9.6-4,12.709-6.062C208.286,133.74,207.548,125.263,209.56,123.385Z" transform="translate(-170.996 -106.538)" fill="#ffc2b0"/>
        <path id="Trazado_241041" data-name="Trazado 241041" d="M205.965,270.91s8.819-3.845,13.178-4.02,4.784,4.828,0,8.706-8.45,4.4-12.363,5.975c-3.532,1.42-4.8,1.529-7.612-.251-3.756-2.381-.749-8.673-.749-8.673Z" transform="translate(-170.196 -93.243)" fill="#3f2828"/>
        <path id="Trazado_241042" data-name="Trazado 241042" d="M181.8,257.308s7.008-2.862,11.368-3.048,5.924,3.5,1.14,7.384-7.78,4.741-11.692,6.314c-3.532,1.42-4.773,1.5-7.612-.251-3.856-2.392-.838-8.684-.749-8.673Z" transform="translate(-173.049 -94.409)" fill="#3f2828"/>
        <path id="Trazado_241043" data-name="Trazado 241043" d="M205.625,177.18s7.131,16.352,9.434,31.349c1.5,9.722,5.242,17.6,4.136,25-3.32,22.261-2.37,45.582-2.37,45.582s-5.432,5.287-9.143,5.287c-6.382,0-8.953-3.845-8.953-3.845s-.872-30.017,3.465-46.729c-2.09-6.969-3.946-14.287-7.433-24.129-.045,5.057,1.073,13.228.648,18.733-.626,8.127-5.812,30.617-6.818,37.837-2.649,3.124-11.111,3.8-15.28-.776.324-3.594,2.94-24.446,5.3-39.716-.168-7.034-2.515-16.352-3.5-37.215C174.662,178.644,205.625,177.18,205.625,177.18Z" transform="translate(-173.019 -101.523)" fill="#492e2e"/>
        <path id="Trazado_241044" data-name="Trazado 241044" d="M197.333,112.573c-3.063-2.075-8.965-1.431-11.524,3.856-1.42,2.927.168,6.772.492,12.3.257,4.457-2.09,9.6-2.09,9.6s1.23,1.431,5.142,3a12.058,12.058,0,0,0,7.981,0l-.123-6.794s4.2-.612,4.941-1.267c1.777-1.584,2.716-6.314,1.889-12.409C202.821,111.8,198.462,113.337,197.333,112.573Z" transform="translate(-171.735 -107.588)" fill="#ffc2b0"/>
        <path id="Trazado_241045" data-name="Trazado 241045" d="M210.145,158.484c0-7.843-1.3-12.4-2.772-15.533s-8.819-5.156-8.819-5.156-8.562-.229-12.016-1.933c.123-1.18,1.4-2.217,1.408-5a6.9,6.9,0,0,0-3.778,1.158c-4.851,2.938-10.619,7.209-10.418,39.323.045,6.466,0,13.556.861,23.648,5,5.036,18.164,5.658,24.546,3.987,3.823-1,9.49-2.338,12.061-5.418-.592-2.764-3.32-10.2-3.443-16.92S210.145,163.913,210.145,158.484Z" transform="translate(-172.967 -105.799)" fill="#fdbc52"/>
        <path id="Trazado_241046" data-name="Trazado 241046" d="M197.4,135.707s-7.735,1.136-10.8-3.069c-3.521-.776-3.521,3.626-3.521,3.626a12.487,12.487,0,0,0,5.98,3.965,14.722,14.722,0,0,0,11.468-.885C200.551,136.832,197.4,135.707,197.4,135.707Z" transform="translate(-171.868 -105.643)" fill="#f4a337"/>
        <path id="Trazado_241047" data-name="Trazado 241047" d="M198.994,124.108a3.367,3.367,0,0,0,1.9-.579,23.046,23.046,0,0,0,1.084-5.418c2.247-1.344,4.572-4.839,3.7-7.69-5.768-.492-16.5-5.756-19.852.634-3.342,0-7.713,5.079-5.019,13.523,2.459,7.712,5.019,5.986,7.165,11.185a18.58,18.58,0,0,0,1.878-1.07,14.023,14.023,0,0,0,5.756-6.707s-2.135-4.129-.481-5.6S198.458,123.005,198.994,124.108Z" transform="translate(-172.234 -107.917)" fill="#492e2e"/>
        <path id="Trazado_241048" data-name="Trazado 241048" d="M220.857,129.772c-.928,1.125-1.431,2.72-1.677,5.32-.279,2.971-.2,6.958.548,8.05,1.554,2.272,1.241,5.09.905,9.722-.168,2.338-.648,7.9-.648,7.9l-6.315-6.117s-8.182,6.827-7.344,8.127,3.007,3.758,7.344,7.592,8.439,5.156,10.429,4.62,3.007-1.431,4.583-6.576-1.665-15.915-2.593-21.9c-.224-1.431.727-4.26.626-6.084-.212-3.954-.1-7.548-2.5-10.868A2.07,2.07,0,0,0,220.857,129.772Z" transform="translate(-169.138 -105.989)" fill="#ffc2b0"/>
        <path id="Trazado_241049" data-name="Trazado 241049" d="M201.439,142.525c-3.733,4.02-5.086,8.749-1.52,14.255a104.837,104.837,0,0,0,8.271,10.989,16.071,16.071,0,0,0,8.439-6.226c2.951-4.7,2.7-7.635,2.7-7.635s-5.79-6.543-8.663-9.2C207.229,141.52,203.731,140.067,201.439,142.525Z" transform="translate(-170.13 -104.837)" fill="#f4a337"/>
        <path id="Trazado_241050" data-name="Trazado 241050" d="M218.957,138.84a13.482,13.482,0,0,1-1.733-2.862c-.5-1.322-1.431-1.169-1.364-.721.212,1.289-.212,2.622.715,4.205a34.724,34.724,0,0,1,2.493,3.976c1.04,2.13,1.7-.1,1.7-.1Z" transform="translate(-168.008 -105.423)" fill="#ffc2b0"/>
      </g>
    </g>
    <g id="Grupo_174546" data-name="Grupo 174546" transform="translate(0 0.179)" clip-path="url(#clip-path)">
      <path id="Trazado_241051" data-name="Trazado 241051" d="M345.246,245.214s7.277-9.328,9.87-12.409c2.9-3.441,5.376-6.587,6.036-9.7.257-1.2-1.23-3.5-3.264-4.358-2.794-1.191-5.466-1.322-7.4-2.032-3.465-1.278-2.761.087-2.761.087l.3,1.933s3.454,4.566,5.343,5.232c-.078.306-5.265,3.954-8.8,6.51a15.223,15.223,0,0,0-4.8,5.276Z" transform="translate(40.016 19.758)" fill="#ffc5b3"/>
      <path id="Trazado_241052" data-name="Trazado 241052" d="M343.07,234.111s2.426-2.949,2.694-4.533,3.644-3.758,3.487-3.637a14.523,14.523,0,0,1-.559,4.61c-.861,2.556-4.046,6.237-4.046,6.237Z" transform="translate(40.403 20.659)" fill="#f4b19f"/>
      <path id="Trazado_241053" data-name="Trazado 241053" d="M325.776,279.089c.861,6.03,5,10.617,9.825,10.945,5.924.415,15.425-5.658,18.432-8.083,6.93-5.582,5.254-9.317,5.254-9.317l2.984-18.1a7.6,7.6,0,0,0-6.371.721c-1.531,1.027-2.772,2.272-4.56,3.659-.626.481-.626-.066-1.42-.011-7.02.524-14.184,6.248-16.163,8C329.1,270.995,325.184,274.949,325.776,279.089Z" transform="translate(38.359 23.262)" fill="#3f2828"/>
      <path id="Trazado_241054" data-name="Trazado 241054" d="M327.176,284.174c3.845-1.344,8.327-4.544,9.546-8.422,1.99-6.314,4.818-12.474,13.279-14.626-1.3-7.329.537-14.408-.156-18.438-.682-4-5.589-11.109-5.589-11.109s-7.914-3.037-11.4-.208c0,0-9.121,4.62-10.6,8.269-3.04,7.537.939,12.9,2.448,21.649S323.353,279.313,327.176,284.174Z" transform="translate(37.821 21.05)" fill="#c19e7c"/>
      <path id="Trazado_241055" data-name="Trazado 241055" d="M329.32,232.874s1.408,1.879,3.018,4.129,6.572,6.543,9.177,4.511,1.352-6.63.179-8.389-3.007-4.02-3.353-3.845A28.719,28.719,0,0,0,329.32,232.874Z" transform="translate(38.784 20.967)" fill="#fff"/>
      <g id="Grupo_174544" data-name="Grupo 174544" transform="translate(370.015 233.926)">
        <path id="Trazado_241056" data-name="Trazado 241056" d="M339.905,230.576l1.408,6.652s-.715,5.909-5.142,1.649a43.53,43.53,0,0,1-5.142-5.866s.682-.579,1.61-3.5c.425-1.322,2.884-3.386,2.884-3.386Z" transform="translate(-331.03 -213.248)" fill="#f4b19f"/>
        <path id="Trazado_241057" data-name="Trazado 241057" d="M336.923,215.64c3.208-2.108,10.518-2.436,12.743,5.057,2.325,7.854-5.376,17.073-9.076,15.227a23.342,23.342,0,0,1-6.17-5.265c-.95-1.234-.85-1.922-1.207-3.4C332.06,222.62,334.43,217.289,336.923,215.64Z" transform="translate(-330.808 -214.337)" fill="#ffc5b3"/>
      </g>
      <path id="Trazado_241058" data-name="Trazado 241058" d="M345.96,214.51s2.37-2.906,5.03-3.43a20.408,20.408,0,0,1,3.845-.481s.537,2.895-.76,4.478c-2.146,2.611-6.237,2.228-6.237,2.228Z" transform="translate(40.743 19.244)" fill="#492e2e"/>
      <path id="Trazado_241059" data-name="Trazado 241059" d="M348.762,214.845a2.4,2.4,0,0,0-4.08-.109l-.022.655,3.957,4.38A3.7,3.7,0,0,0,348.762,214.845Z" transform="translate(40.59 19.521)" fill="#dd4f41"/>
      <path id="Trazado_241060" data-name="Trazado 241060" d="M351.488,218.934c-2.459-3.561-6.438-8.815-12.4-6.838-11.625,3.845-8.64,14.4-6.282,18.2,1.431-.776,2.694-3.976,4.594-4.926,5.745,4.009,14.486.4,14.486.4S353.388,221.687,351.488,218.934Z" transform="translate(38.938 19.342)" fill="#492e2e"/>
      <path id="Trazado_241061" data-name="Trazado 241061" d="M337.378,226.272s-1.453-3.768-3.264-1.846c-2.157,2.3.268,5.352.268,5.352Z" transform="translate(39.243 20.469)" fill="#ffc5b3"/>
      <path id="Trazado_241062" data-name="Trazado 241062" d="M330.12,218.806a7.751,7.751,0,0,0,2.079,1.354c2.135.852,4.382-1.977,3.242-3.7a4.364,4.364,0,0,0-3.074-1.868Z" transform="translate(38.878 19.612)" fill="#dd4f41"/>
      <path id="Trazado_241063" data-name="Trazado 241063" d="M333.809,214.648c-.782-1.038-1.118-1.584-4.918-1.9a51.184,51.184,0,0,0-6.382-.175s-1.341,4.194,1.1,6.521,9.2.262,9.2.262S335.587,217,333.809,214.648Z" transform="translate(37.938 19.423)" fill="#492e2e"/>
      <path id="Trazado_241064" data-name="Trazado 241064" d="M351.424,258.97c4.035,1.715,6.181,13.84,7.947,21.06,1.733,7.111,3.353,14.833,4.482,17.007s4.449,4.926,8.462,8.345c4.247,3.637,4.538,5.9-1.4,6.608-2.828.339-8.093-3.779-10.1-5.735-1.978-1.922-3.733-1.638-4.27-3.4-.559-1.846.995-4.151,0-5.986-3.186-5.9-8.171-15.008-9.658-17.837a31.73,31.73,0,0,1-4.035-13.206C342.605,261.143,347.009,257.091,351.424,258.97Z" transform="translate(40.376 23.665)" fill="#ffc5b3"/>
      <path id="Trazado_241065" data-name="Trazado 241065" d="M360.224,254.893c3.867,2.043,5.891,12.769,7.657,19.989,1.733,7.111,3.007,14.823,4.136,16.985s5.265,4.784,8.3,6.991c2.247,1.628,3.521,2.534,3.566,3.736.067,1.813-1.878,5.232-4.493,4.533-2.75-.743-6.684-4.7-8.7-6.652-1.978-1.922-3.465-1.628-4-3.4-.559-1.846.291-3.943-.7-5.778-3.186-5.9-8.171-15.008-9.658-17.837-2.269-4.336-3.935-7.974-4.2-12.747C351.874,256.04,356.926,253.146,360.224,254.893Z" transform="translate(41.469 23.285)" fill="#ffc5b3"/>
      <path id="Trazado_241066" data-name="Trazado 241066" d="M338.843,214.946c-3.432.579-4.27,1.9-4.851,4.708-.626,3.037-.291,4.959-1.028,5.549-3.275,1.147-8.651,1.8-14.129,4.8-4.382,2.4-4,2.774-4.2,4.435-.224,1.824,1.185,3.441,3.856,8.837,2.3,4.653,3.879,10.53,4.751,10.956,1.364.655,4.516,1.933,5.913-2.13a17.263,17.263,0,0,0-.257-11.862,47.26,47.26,0,0,0-3.219-4.981s10.54-4.817,12.228-6.619.335-5.844,1.677-7.952C340.945,218.584,343.035,214.247,338.843,214.946Z" transform="translate(37.051 19.638)" fill="#ffc5b3"/>
      <path id="Trazado_241067" data-name="Trazado 241067" d="M346.016,215.193a2.655,2.655,0,0,1,3.532.36c1.554,1.442,2.593,3.561,2.2,4.118a4.247,4.247,0,0,1-1.241,1.027s-1.431-1.147-3.364-2.458S345.155,215.685,346.016,215.193Z" transform="translate(40.687 19.62)" fill="#ffc5b3"/>
      <path id="Trazado_241068" data-name="Trazado 241068" d="M337.029,224.21l-.425.131a5.983,5.983,0,0,1-.548,2.84,4.867,4.867,0,0,1-2.146,1.955s.984.59,2.291-.688a7.325,7.325,0,0,0,1.6-3.768Z" transform="translate(39.324 20.5)" fill="#f4b19f"/>
      <path id="Trazado_241069" data-name="Trazado 241069" d="M352.14,260.436s1.632,2.064,2.839,6.98a58.813,58.813,0,0,0,2.146,7.231,43.342,43.342,0,0,0-1.073-10.552,16.76,16.76,0,0,0-3.331-6.576A9.29,9.29,0,0,0,352.14,260.436Z" transform="translate(41.471 23.575)" fill="#f4b19f"/>
      <g id="Grupo_174545" data-name="Grupo 174545" transform="translate(363.721 207.335)">
        <path id="Trazado_241070" data-name="Trazado 241070" d="M336.913,206.437a12.542,12.542,0,0,1-3.376-1.824c-3.521-.382-8.07-1.212-8.137-3.375-.123-3.7,9.032-4.446,11.323-4.555,5.969-.273,13.1,1.06,17.985,4.62,3.141,2.283,1.688,4.8-1.509,6.248a11.383,11.383,0,0,1-1.744.612,4.563,4.563,0,0,1-.492,3.779c-3.342,5.4-13.044,2.873-17.728,1.4a.244.244,0,0,1,.134-.47,47.767,47.767,0,0,0,7.523,1.518c2.347.2,7.254.087,8.83-2.01a5.236,5.236,0,0,0,1.151-3.954C346.492,209.146,340.892,207.846,336.913,206.437Zm2.75.12a36.582,36.582,0,0,0,6.137,1.256,34.86,34.86,0,0,0,4.873-.109,8,8,0,0,0-1.61-2.447c-4.024.634-8.9.011-11.871-.306-.425-.044-1.162-.1-2.068-.175C335.359,205.2,338.657,206.284,339.663,206.557Zm-6.4-3.015c1.252.186,4.225.776,5.488.885a53.057,53.057,0,0,0,9.769.208,14.346,14.346,0,0,0-1.833-1.562,13.781,13.781,0,0,0-5.175-2.348c-1.252-.284-5.689-.71-6.885.153C332.777,202.21,332.945,202.953,333.258,203.543Zm16.241-4.38a47.193,47.193,0,0,0-5.9-1.387,30.063,30.063,0,0,0-13.3.492c-3.823,1.1-4.672,2.6-3.879,3.364,1.084,1.027,3.387,1.365,3.935,1.5.727.175,1.464.284,2.191.426a1.79,1.79,0,0,1,.38-2.425c2.638-2.6,9.043-1.311,11.871.033a15.463,15.463,0,0,1,4.493,3.386,14.293,14.293,0,0,0,5.511-2.458A15.512,15.512,0,0,0,349.5,199.162Zm5.656,3.386a15.714,15.714,0,0,1-5.354,2.567,9.281,9.281,0,0,1,1.52,2.578C355.647,206.492,356.441,204.209,355.155,202.549Z" transform="translate(-325.399 -189.38)" fill="#3f2828"/>
        <path id="Trazado_241071" data-name="Trazado 241071" d="M327.537,200.2c2.3-4.959,6.975-6.882,11.994-7.482,3.443-2.283,9.345-4.784,10.887.011a1.761,1.761,0,0,1,.112.535c3.711,1.409,6.472,4.555,4.236,9.066-2.56,5.178-10.786,9.285-16.543,8.684-2.727-.284-4.594-1.42-5.578-2.993C328.365,207.751,325.112,205.424,327.537,200.2Zm20.444-9.645a6.3,6.3,0,0,0-3.745.186,17.654,17.654,0,0,0-4.247,1.912,39.984,39.984,0,0,1,5.477-.142,24.518,24.518,0,0,1,4.672.612A3.9,3.9,0,0,0,347.981,190.558Zm-9.635,19.836a13.4,13.4,0,0,0,4.225-.306c4.773-1.081,13.883-6.248,12.3-12.136a6.192,6.192,0,0,0-4.281-4.194,5.905,5.905,0,0,1-.235,1.737,2.379,2.379,0,0,1,.224.131c1.911,1.518,1.252,4.577.212,6.379-1.766,3.113-5.757,4.992-9.277,5.341a5.12,5.12,0,0,1-2.627-.284c-.492.175-.995.339-1.5.47a27.8,27.8,0,0,1-4.125.6C334.356,209.553,337.15,210.372,338.346,210.394Zm-5.309-2.829a19.589,19.589,0,0,0,5.376-.841,1.981,1.981,0,0,1-.492-1.857c.492-3.058,5.22-5.374,7.836-5.964a.232.232,0,0,1,.123.448,14.758,14.758,0,0,0-4.471,2.086,9.926,9.926,0,0,0-2.537,2.676,1.888,1.888,0,0,0,.335,2.261,23.539,23.539,0,0,0,6.449-4.391,40.628,40.628,0,0,0,4.147-6.237,10.352,10.352,0,0,0-4.739-.306,17.551,17.551,0,0,0-7.456,2.217c-1.978,1.18-4.639,3.572-5.019,6.073A7.57,7.57,0,0,0,333.037,207.565Zm14.207-6.685a23.065,23.065,0,0,1-7.456,5.888,10.458,10.458,0,0,0,4.717-.644,11.583,11.583,0,0,0,4.415-2.589,7.74,7.74,0,0,0,2.2-3.364c.537-1.464.123-3.441-.939-4.042A38.28,38.28,0,0,1,347.244,200.88ZM332.4,207.6c-1.107-2.2-.626-5.1,1.576-7.832,2.1-2.6,5.3-3.91,8.551-4.489,2.023-.36,5.421-.983,7.5.033a7.081,7.081,0,0,0,.123-1.8,43.023,43.023,0,0,0-10.06-.415c-.268.022-.537.055-.816.1-.481.36-.905.71-1.252,1-.145.12-.347-.076-.2-.2.257-.218.57-.459.905-.71-4.907.83-11.1,3.867-11.535,9.274C326.889,206.254,329.471,207.456,332.4,207.6Z" transform="translate(-325.245 -189.994)" fill="#3f2828"/>
        <path id="Trazado_241072" data-name="Trazado 241072" d="M327.648,200.472c5.2-5.1,15.19-2.851,20.12,1.278.324.273-.145.732-.469.459a17.529,17.529,0,0,0-14.274-3.714c-3.443.786-4.773,1.682-6.2,4.762-1.1,2.37.939,4.981,4.035,6.63a20.463,20.463,0,0,0,7.176,2.1c5.008.655,11.58.557,15.973-2.206,4.46-2.807,5.8-7.81.894-11.142a13.628,13.628,0,0,0-9.043-2.261c-.112.011-.134-.175-.022-.186,5.745-.863,15.582,3.015,12.452,10.1-3.152,7.155-15.425,7.3-21.864,6.128C331.326,211.482,321.456,206.545,327.648,200.472Z" transform="translate(-325.367 -189.433)" fill="#3f2828"/>
      </g>
    </g>
    <g id="Grupo_174548" data-name="Grupo 174548" transform="translate(0 0.179)" clip-path="url(#clip-path)">
      <path id="Trazado_241073" data-name="Trazado 241073" d="M402.249,142.67s-1.006,1.7-3.32,6.51c-2.236,4.642-3.588,8.2-3.264,10.519.984,6.969,3.275,14.211,6.293,12.212s3.465-5.167,3.834-6.2,2.873-6.5,1.408-11.513A74.9,74.9,0,0,0,402.249,142.67Z" transform="translate(46.591 12.973)" fill="#f4b19f"/>
      <path id="Trazado_241074" data-name="Trazado 241074" d="M395.02,161.347c0-.208,2.37-4.063,5.723-4.107a10.857,10.857,0,0,1,5.287,1.1l1.7,8.236s-2.593,4.817-5.41,6.368-4.628,2.622-4.628,2.622S395.042,167.016,395.02,161.347Z" transform="translate(46.521 14.318)" fill="#f4a337"/>
      <path id="Trazado_241075" data-name="Trazado 241075" d="M426.859,169.266s-2.671-3.572-5.3-4.959-6.595-.076-9.143,2.731,4.706,9.132,4.706,9.132Z" transform="translate(48.506 14.919)" fill="#f4b19f"/>
      <path id="Trazado_241076" data-name="Trazado 241076" d="M430.09,167.172c6.092,2.392,4.628,5.167,4.862,9.2.2,3.353-2.716,24.173-2.716,24.173s2.727-2.654,4.885-3.255c1.3-.36,2.929,1.016,3.588,2.611,1.051,2.567-1.017,4.653-4.348,6.368s-5.958,3.31-8.428,2.228c-2.046-.9-1.028-7.668-1.319-9.208s-1.945-16.112-1.945-16.112-6.628.131-6.137-3.747C419.1,175.037,426.48,165.752,430.09,167.172Z" transform="translate(49.287 15.222)" fill="#ffc5b3"/>
      <path id="Trazado_241077" data-name="Trazado 241077" d="M425.21,186.014l3.722,3.408s3.275-8.5,3.923-13.512C430.531,181.033,428.384,183.84,425.21,186.014Z" transform="translate(50.077 16.042)" fill="#f4b19f"/>
      <path id="Trazado_241078" data-name="Trazado 241078" d="M419.581,146.86c-4.426-8.433-13.737-7.788-16.386-2.316-1.464,3.026.6,11.174.939,16.9l-1.319,7.275,4.046,1.628a6.09,6.09,0,0,0,6.651-1.147l-.134-7.034a38.326,38.326,0,0,0,4.382-1C419.492,160.448,422.577,152.584,419.581,146.86Z" transform="translate(47.423 12.77)" fill="#ffc5b3"/>
      <path id="Trazado_241079" data-name="Trazado 241079" d="M396.416,192c-1.431,7.93-1.923,6.816-1.956,12.944-.034,5.866,2.012,9.186,11.044,12.267,5.6,1.912,13.111,1.4,17.761-1.933,4.057-2.927,5.656-6.63,7.623-14.255,1.766-6.794,3.275-13.1,3.275-13.1s-1.867-4.577-3.6-6.019c-6.26-5.2-10.183-3.692-10.183-3.692l-4.929,15.74Z" transform="translate(46.455 16.236)" fill="#3f2828"/>
      <path id="Trazado_241080" data-name="Trazado 241080" d="M392.68,203.717c2.034,2.447,9.1,5.833,17.147,7.078,4.773.743,12.184-1.693,14.263-7.013,0-13.643,3.689-25.287.626-31.535-1.721-3.517-3.4-4.741-5.041-5.309-1.274-.437-2.549-.492-3.823-.939-3.1-1.07-14.062-.8-14.062-.8s-3.923,1.562-4.247,11.152C396.939,193.843,393.608,195.372,392.68,203.717Z" transform="translate(46.246 15.05)" fill="#fdbc52"/>
      <path id="Trazado_241081" data-name="Trazado 241081" d="M405.313,166.156a23.425,23.425,0,0,0-.872-4.959,30.05,30.05,0,0,0-2.951-5.778c-3.521-6.193-1.174-13.381,3.1-16.264,4.84-3.266,8.395-.055,8.395-.055s2.895-1.409,7.154,1.966c2.437,1.933,3.3,5.964,3.3,5.964s-1.107,2.359-2.694,3.037a18.57,18.57,0,0,0-4.214,2.643s-1.062-2.01-2.392-.437.268,4.577.268,4.577a23.025,23.025,0,0,1-5.142,6.215C407.6,164.386,405.313,166.156,405.313,166.156Z" transform="translate(47.082 12.513)" fill="#492e2e"/>
      <path id="Trazado_241082" data-name="Trazado 241082" d="M401.3,165.791s3.443,4.151,7.981,2.971a51.735,51.735,0,0,0,7.053-2.283,4.182,4.182,0,0,0-3.655-2.392,79.176,79.176,0,0,1-10.507-2.1Z" transform="translate(47.261 14.757)" fill="#f4a337"/>
      <path id="Trazado_241083" data-name="Trazado 241083" d="M410.449,141.936c-2.381,1.791.324,2.7,1.71,4.533,1.274,1.682.592,4.02,2.448,7.559,1.3,2.458,3.756,2.469,7.008,3.08,4.125,3.681,12.8,6.346,12.8,6.346l-11.1,4.926s2.347,9.23,2.046,9.864c2.336-.7,9.881-1.857,15.1-6.75,3.767-3.539,5.376-7.351,4.885-9.558-.19-.852-1.744-2.163-2.28-2.971-1.956-2.927-12.485-4.238-16.621-6.106a17.032,17.032,0,0,1-6.8-4.97C417.827,145.049,413.445,139.675,410.449,141.936Z" transform="translate(48.227 12.856)" fill="#ffc5b3"/>
      <path id="Trazado_241084" data-name="Trazado 241084" d="M419.417,165.426c-2.861.71-4.337,2-4.672,4.642-.246,1.955.447,8.028,4.672,9.372,5.947,1.89,14.453-3.157,14.453-3.157s2.929-4.468.112-8.848-4.639-4.806-4.639-4.806S421.9,164.8,419.417,165.426Z" transform="translate(48.839 14.816)" fill="#f4a337"/>
      <path id="Trazado_241085" data-name="Trazado 241085" d="M413.133,150.25s-.738.448-.581,1.944a5.311,5.311,0,0,0,2.459,3.6,6.959,6.959,0,0,0,3.778.907l.268-.808a6.889,6.889,0,0,1-4.046-2.174A9.194,9.194,0,0,1,413.133,150.25Z" transform="translate(48.583 13.673)" fill="#f4b19f"/>
      <path id="Trazado_241086" data-name="Trazado 241086" d="M402.8,139.01s2.414-1.06,3.7,0,1.252,2.119-.827,3.015a5.713,5.713,0,0,1-4.125,0A7.532,7.532,0,0,1,402.8,139.01Z" transform="translate(47.29 12.592)" fill="#ffc5b3"/>
      <g id="Grupo_174547" data-name="Grupo 174547" transform="translate(442.427 126.297)">
        <path id="Trazado_241087" data-name="Trazado 241087" d="M417.559,132.247a12.543,12.543,0,0,0,3.376-1.824c3.521-.382,8.07-1.212,8.137-3.375.123-3.7-9.032-4.446-11.323-4.555-5.969-.273-13.1,1.06-17.985,4.62-3.141,2.283-1.688,4.8,1.509,6.248a11.383,11.383,0,0,0,1.744.612,4.563,4.563,0,0,0,.492,3.779c3.342,5.4,13.044,2.873,17.728,1.387a.244.244,0,0,0-.134-.47,47.771,47.771,0,0,1-7.523,1.518c-2.347.2-7.254.087-8.83-2.01a5.236,5.236,0,0,1-1.151-3.954C407.98,134.967,413.58,133.667,417.559,132.247Zm-2.75.12a36.583,36.583,0,0,1-6.137,1.256,34.857,34.857,0,0,1-4.873-.109,8,8,0,0,1,1.61-2.447c4.024.634,8.9.011,11.871-.306.425-.044,1.162-.1,2.068-.175C419.113,131.024,415.815,132.094,414.809,132.367Zm6.4-3.015c-1.252.186-4.225.776-5.488.885a53.058,53.058,0,0,1-9.769.208,14.352,14.352,0,0,1,1.833-1.562,13.781,13.781,0,0,1,5.175-2.348c1.252-.284,5.689-.71,6.885.153C421.684,128.02,421.527,128.774,421.214,129.353Zm-16.252-4.369a47.186,47.186,0,0,1,5.9-1.387,30.063,30.063,0,0,1,13.3.492c3.823,1.1,4.672,2.6,3.879,3.364-1.084,1.027-3.387,1.365-3.935,1.5-.727.175-1.464.284-2.191.426a1.79,1.79,0,0,0-.38-2.425c-2.638-2.6-9.043-1.311-11.871.033a15.463,15.463,0,0,0-4.493,3.386,14.293,14.293,0,0,1-5.511-2.458A15.567,15.567,0,0,1,404.962,124.983Zm-5.645,3.375a15.715,15.715,0,0,0,5.354,2.567,9.281,9.281,0,0,0-1.52,2.578C398.825,132.313,398.032,130.019,399.317,128.359Z" transform="translate(-395.553 -115.19)" fill="#3f2828"/>
        <path id="Trazado_241088" data-name="Trazado 241088" d="M426.7,126.013c-2.3-4.959-6.975-6.882-11.994-7.482-3.443-2.283-9.345-4.784-10.887.011a1.761,1.761,0,0,0-.112.535c-3.711,1.409-6.472,4.555-4.236,9.066,2.56,5.178,10.786,9.285,16.543,8.684,2.727-.284,4.594-1.42,5.578-2.993C425.865,133.571,429.129,131.245,426.7,126.013Zm-20.444-9.634a6.3,6.3,0,0,1,3.745.186,17.653,17.653,0,0,1,4.248,1.912,39.98,39.98,0,0,0-5.477-.142,24.517,24.517,0,0,0-4.672.612A3.844,3.844,0,0,1,406.259,116.379Zm9.635,19.825a13.4,13.4,0,0,1-4.225-.306c-4.773-1.081-13.883-6.248-12.3-12.136a6.192,6.192,0,0,1,4.281-4.194,5.9,5.9,0,0,0,.235,1.737,2.373,2.373,0,0,0-.224.131c-1.911,1.518-1.252,4.577-.212,6.379,1.766,3.113,5.757,4.992,9.277,5.341a5.12,5.12,0,0,0,2.627-.284c.492.175.995.339,1.5.47a27.8,27.8,0,0,0,4.125.6C419.874,135.374,417.079,136.182,415.895,136.2Zm5.309-2.829a19.588,19.588,0,0,1-5.376-.841,1.981,1.981,0,0,0,.492-1.857c-.492-3.058-5.22-5.374-7.836-5.964a.232.232,0,0,0-.123.448,14.5,14.5,0,0,1,4.471,2.086,9.926,9.926,0,0,1,2.537,2.676,1.888,1.888,0,0,1-.335,2.261,23.316,23.316,0,0,1-6.438-4.391,40.628,40.628,0,0,1-4.147-6.237,10.351,10.351,0,0,1,4.739-.306,17.551,17.551,0,0,1,7.456,2.217c1.978,1.18,4.639,3.572,5.019,6.073A7.751,7.751,0,0,1,421.2,133.375ZM407,126.7a23.064,23.064,0,0,0,7.456,5.888,10.457,10.457,0,0,1-4.717-.644,11.584,11.584,0,0,1-4.415-2.589,7.74,7.74,0,0,1-2.2-3.364c-.537-1.464-.123-3.441.939-4.042A36.992,36.992,0,0,0,407,126.7Zm14.844,6.707c1.107-2.2.626-5.1-1.576-7.832-2.1-2.6-5.3-3.91-8.551-4.489-2.023-.36-5.421-.983-7.5.033a7.083,7.083,0,0,1-.123-1.8,43.022,43.022,0,0,1,10.06-.415c.268.022.537.055.816.1.481.36.905.71,1.252,1,.145.12.347-.076.2-.2-.257-.218-.57-.459-.905-.71,4.907.83,11.1,3.867,11.535,9.274C427.352,132.075,424.759,133.277,421.841,133.408Z" transform="translate(-395.476 -115.804)" fill="#3f2828"/>
        <path id="Trazado_241089" data-name="Trazado 241089" d="M427.051,126.292c-5.2-5.1-15.19-2.851-20.12,1.278-.324.273.145.732.469.459a17.529,17.529,0,0,1,14.274-3.714c3.443.786,4.773,1.682,6.2,4.762,1.1,2.37-.939,4.981-4.035,6.63a20.464,20.464,0,0,1-7.176,2.1c-5.008.655-11.58.557-15.973-2.206-4.46-2.807-5.8-7.81-.894-11.142a13.629,13.629,0,0,1,9.043-2.261c.112.011.134-.175.022-.186-5.745-.863-15.582,3.015-12.452,10.1,3.152,7.155,15.425,7.3,21.864,6.128C423.374,137.291,433.233,132.365,427.051,126.292Z" transform="translate(-395.812 -115.242)" fill="#3f2828"/>
      </g>
    </g>
    <g id="Grupo_174552" data-name="Grupo 174552" transform="translate(0 0.179)" clip-path="url(#clip-path)">
      <path id="Trazado_241090" data-name="Trazado 241090" d="M87.523,160.38l-6.1,3.626s2.481,5.942,6.1,6.925,5.444-.59,5.444-.59Z" transform="translate(9.589 14.608)" fill="#bc2f2b"/>
      <path id="Trazado_241091" data-name="Trazado 241091" d="M92.619,153.828s-7.064-2.261-7.992,1.42S85.5,164,87.175,165.669s5.444,0,5.444,0Z" transform="translate(9.937 13.94)" fill="#d13c34"/>
      <g id="Grupo_174549" data-name="Grupo 174549" transform="translate(100.063 195.261)">
        <path id="Trazado_241092" data-name="Trazado 241092" d="M101.212,195.958C101,199.967,99.591,218.066,99,225.669c-.335,4.326-4.728,4.336-5.723,2.469l-1.509.415a145.152,145.152,0,0,0-.794-15.194,47.723,47.723,0,0,1,.347-14.539c1.811-7.515-1.8-19.552-1.8-19.552l10.6-.328C100.105,178.929,101.48,191.01,101.212,195.958Z" transform="translate(-89.52 -178.94)" fill="#ffc5b3"/>
      </g>
      <path id="Trazado_241093" data-name="Trazado 241093" d="M91.458,222.168c-.1,2.906-1.766,4.653.682,6.805s5.511,5.385,9.065,6.346,7.59-.36,7.59-2.272-3.689-4.522-5.8-6.4a30.268,30.268,0,0,1-4.147-4.894s-.626-1-3.074-.186a6.044,6.044,0,0,0-2.18,1.562S92.3,221.436,91.458,222.168Z" transform="translate(10.695 20.226)" fill="#d13c34"/>
      <path id="Trazado_241094" data-name="Trazado 241094" d="M99.638,222.98a23.81,23.81,0,0,0-4.326,1.606,5.542,5.542,0,0,0-2.012,2.152l1.028,1.158a13.937,13.937,0,0,1,3.364-2.447c1.531-.644,3.018-1.081,3.018-1.081Z" transform="translate(10.988 20.386)" fill="#492e2e"/>
      <path id="Trazado_241095" data-name="Trazado 241095" d="M121.54,145.657c.883-2.545-6.4-9.23-9.143-12.747s-7.567-4.489-7.567-4.489c-6.863,2.37,2.258,14.473,2.258,14.473s6.539,6.532,8.819,8.018c1.565,1.027,2.414.24,3.342-.928A11.384,11.384,0,0,0,121.54,145.657Z" transform="translate(12.044 11.658)" fill="#ffc5b3"/>
      <g id="Grupo_174550" data-name="Grupo 174550" transform="translate(114.214 189.439)">
        <path id="Trazado_241096" data-name="Trazado 241096" d="M113.872,190.639c-.212,4.009-1.621,22.108-2.213,29.711-.335,4.326-4.728,4.336-5.723,2.469l-1.509.415a145.152,145.152,0,0,0-.794-15.194,47.723,47.723,0,0,1,.347-14.539c1.811-7.515-1.8-19.552-1.8-19.552l10.6-.339S114.14,185.691,113.872,190.639Z" transform="translate(-102.18 -173.61)" fill="#ffc5b3"/>
      </g>
      <path id="Trazado_241097" data-name="Trazado 241097" d="M106.362,128.06s6.964,7.526,7.366,15.118c.235,4.544-.257,14.386,2.258,21.7,2.269,6.587,4.695,28.717,4.695,28.717a23.2,23.2,0,0,1-19.125,9.044c-13.156-.087-16.945-7.155-16.945-7.155s1.621-17.095,3.152-22.578c1.453-5.167,3.9-9.3,3.409-14.178-1.118-11.12-2.56-23.048-2.56-23.048s5.242-4.129,7.265-5.036C98.325,129.556,106.362,128.06,106.362,128.06Z" transform="translate(9.964 11.625)" fill="#dd4f41"/>
      <g id="Grupo_174551" data-name="Grupo 174551" transform="translate(104.31 120.326)">
        <path id="Trazado_241098" data-name="Trazado 241098" d="M103.637,129.22l1.006,6.969s-1.8,3.856-6.595.36c-3.733-2.72-4.728-4.653-4.728-4.653a25.346,25.346,0,0,0,2.973-7.821C98.439,123.387,103.637,129.22,103.637,129.22Z" transform="translate(-93.32 -109.074)" fill="#f4b19f"/>
        <path id="Trazado_241099" data-name="Trazado 241099" d="M98.525,111.815c3.219-2.261,10.719-2.8,13.212,4.817,2.627,7.985-5,17.663-8.842,15.871-2.157-1-6.651-4.468-7.824-8.673C93.752,119.1,96.021,113.563,98.525,111.815Z" transform="translate(-93.159 -110.337)" fill="#ffc5b3"/>
      </g>
      <path id="Trazado_241100" data-name="Trazado 241100" d="M104.128,216.858c-.1,2.906-1.766,4.653.682,6.805s5.511,5.385,9.065,6.346,7.59-.36,7.59-2.272-3.689-4.522-5.8-6.4a30.932,30.932,0,0,1-4.147-4.894s-.626-1-3.074-.186a6.044,6.044,0,0,0-2.18,1.562S104.966,216.115,104.128,216.858Z" transform="translate(12.187 19.736)" fill="#d13c34"/>
      <path id="Trazado_241101" data-name="Trazado 241101" d="M112.3,217.67a23.809,23.809,0,0,0-4.326,1.606,5.621,5.621,0,0,0-2.012,2.152l1.028,1.158a13.937,13.937,0,0,1,3.364-2.447c1.531-.644,3.018-1.081,3.018-1.081Z" transform="translate(12.479 19.896)" fill="#492e2e"/>
      <path id="Trazado_241102" data-name="Trazado 241102" d="M90.48,156.25a23.172,23.172,0,0,0,10.418,2.6c5.7.066,12.81-3.779,12.81-3.779l.469,3.015s-10.485,4.555-14.743,4.042a18.757,18.757,0,0,1-8.953-3.266V156.25Z" transform="translate(10.656 14.118)" fill="#d13c34"/>
      <path id="Trazado_241103" data-name="Trazado 241103" d="M101.32,107.554a4.97,4.97,0,0,0-5.712-3.1c-4.225.928-5.511,5.407-5.231,7.788s.6,4.817-.537,6.4-2.951.328-2.951.328,1.263,5.21,6.729,1.06S101.32,107.554,101.32,107.554Z" transform="translate(10.233 9.433)" fill="#3a2323"/>
      <path id="Trazado_241104" data-name="Trazado 241104" d="M103.312,108.323a3.856,3.856,0,0,0-4.851-1.191c-3.23,1.322-2.09,4.883-2.09,4.883Z" transform="translate(11.326 9.658)" fill="#dd4f41"/>
      <path id="Trazado_241105" data-name="Trazado 241105" d="M113.821,114.683c-2.2-3.845-3.275-9.208-12.206-6.3-11.67.328-8.406,15.631-5.868,19.465,1.274-2.84,4.292-3.55,6.215-4.566,1.8.994,2.616,1.387,4.259,1.387a3.4,3.4,0,0,0,2.772-1.912,2.914,2.914,0,0,1,.6,1.912c3.331-.841,4.639-1.442,5.388-2.884A5.914,5.914,0,0,0,113.821,114.683Z" transform="translate(10.989 9.732)" fill="#492e2e"/>
      <path id="Trazado_241106" data-name="Trazado 241106" d="M100.174,124.258s-.57-4.3-2.716-2.261c-2.157,2.064.559,4,.559,4Z" transform="translate(11.379 11.014)" fill="#ffc5b3"/>
      <path id="Trazado_241107" data-name="Trazado 241107" d="M97.25,120.636s1.688-4.883,8.819-6.9c5.254-1.5,7.243-1.4,8.048,1.169a19.761,19.761,0,0,0-8.428,1.18C102.6,117.141,97.25,120.636,97.25,120.636Z" transform="translate(11.453 10.212)" fill="#dd4f41"/>
      <path id="Trazado_241108" data-name="Trazado 241108" d="M104.026,149.866a61.056,61.056,0,0,0-7.768-10.584c-2.783-2.906-6.651-5.4-7.88-4.205-3.264,3.179-1.7,8.465,2.068,13.643,1.99,2.742,5.444,4.839,8.059,6.554,1.755,1.158,3.007.076,3.9-1.649C103.02,152.454,104.026,151.6,104.026,149.866Z" transform="translate(10.199 12.244)" fill="#ffc5b3"/>
      <path id="Trazado_241109" data-name="Trazado 241109" d="M94.91,147.951s3.174-17.608,5.22-20.645,5.131-3.452,6.539-1.977a5.655,5.655,0,0,1,1.285,4.129c.034.786-1.487,2.512-2.269,2.72s-1.721.524-1.721.524a53.873,53.873,0,0,0-.514,11.8c.212,2.7.559,5.7-.961,8.367-1.207,2.1-3.163,1.475-4.281,2.064C95.67,156.264,94.91,147.951,94.91,147.951Z" transform="translate(11.177 11.297)" fill="#ffc5b3"/>
      <path id="Trazado_241110" data-name="Trazado 241110" d="M107.318,125.978s2.493-2.643,5.287-1.2c2.113,1.092,5.2,8.083,6.807,12.026,1.911,4.686,2.224,8,1.42,10.158s-2.4,3.441-4,2.294c-2.3-1.638-3.4-7.176-3.644-10.486a47.3,47.3,0,0,0-1.6-8.061s-5.6,1.638-5.667-.743A6.118,6.118,0,0,1,107.318,125.978Z" transform="translate(12.474 11.282)" fill="#ffc5b3"/>
      <path id="Trazado_241111" data-name="Trazado 241111" d="M99.58,127.35a6.227,6.227,0,0,1,3.286-2.971,3.1,3.1,0,0,1,1.811-.142,4.548,4.548,0,0,1,2.347,1.5,6.271,6.271,0,0,1,2.459-1.562,4.135,4.135,0,0,1,3.208.382,6.926,6.926,0,0,0-3.778.8,4.5,4.5,0,0,0-1.7,2.043,3.865,3.865,0,0,0-2.917-2.25C101.626,124.707,99.58,127.35,99.58,127.35Z" transform="translate(11.727 11.253)" fill="#f4b19f"/>
      <path id="Trazado_241112" data-name="Trazado 241112" d="M112.93,123.665s2.873-.382,4,.743.347,2.327-.436,1.638A41.239,41.239,0,0,0,112.93,123.665Z" transform="translate(13.3 11.213)" fill="#fff"/>
      <path id="Trazado_241113" data-name="Trazado 241113" d="M99.778,124.949a4.8,4.8,0,0,0-3.32.492c-1.308.928-.391,2,.615,1.453A14.136,14.136,0,0,0,99.778,124.949Z" transform="translate(11.284 11.328)" fill="#fff"/>
      <path id="Trazado_241114" data-name="Trazado 241114" d="M97.775,127.51a9.439,9.439,0,0,0-2.414,2.064c-.469.863.8,1.9,1.464.885A9.3,9.3,0,0,0,97.775,127.51Z" transform="translate(11.219 11.574)" fill="#fff"/>
      <path id="Trazado_241115" data-name="Trazado 241115" d="M114.98,127.17s1.073,1.562,1.889,2.753,2.135-.153.816-1.376A5.128,5.128,0,0,0,114.98,127.17Z" transform="translate(13.541 11.543)" fill="#fff"/>
    </g>
    <g id="Grupo_174554" data-name="Grupo 174554" transform="translate(0 0.179)" clip-path="url(#clip-path)">
      <path id="Trazado_241116" data-name="Trazado 241116" d="M170.309,66.663c-.615-1.507-3.2-2.643-6.282-2.643s-5.667,1.136-6.282,2.643H157.6v.7c0,1.846,2.873,3.342,6.427,3.342s6.427-1.5,6.427-3.342v-.7Z" transform="translate(18.56 5.713)" fill="#c19e7c"/>
      <path id="Trazado_241117" data-name="Trazado 241117" d="M157.6,66.722c0-1.846,2.873-3.342,6.427-3.342s6.427,1.5,6.427,3.342-2.873,3.342-6.427,3.342S157.6,68.558,157.6,66.722Z" transform="translate(18.56 5.654)" fill="#d3b798"/>
      <path id="Trazado_241118" data-name="Trazado 241118" d="M165.674,45.69H161.46s.984,9.711.984,11.546c0,2.643-.984,10.716-.984,10.716,0,.6.939,1.092,2.113,1.092s2.113-.492,2.113-1.092c0,0-.984-8.083-.984-10.716C164.7,55.4,165.674,45.69,165.674,45.69Z" transform="translate(19.015 4.021)" fill="#c19e7c"/>
      <path id="Trazado_241119" data-name="Trazado 241119" d="M171.647,55.939V40.33h-.57V55.939a.833.833,0,1,0,.57,0Z" transform="translate(20.084 3.527)" fill="#c19e7c"/>
      <g id="Grupo_174553" data-name="Grupo 174553" transform="translate(168.683 19.04)">
        <path id="Trazado_241120" data-name="Trazado 241120" d="M150.91,24.23V46.382c0,3.987,6.226,7.231,13.905,7.231s13.905-3.233,13.905-7.231V24.23Z" transform="translate(-150.91 -16.999)" fill="#d13c34"/>
        <path id="Trazado_241121" data-name="Trazado 241121" d="M150.91,24.841c0-3.987,6.226-7.231,13.905-7.231s13.905,3.233,13.905,7.231-6.226,7.231-13.905,7.231S150.91,28.839,150.91,24.841Z" transform="translate(-150.91 -17.61)" fill="#dd4f41"/>
      </g>
    </g>
  </g>
</svg>
