<svg id="Grupo_174085" data-name="Grupo 174085" xmlns="http://www.w3.org/2000/svg" xmlns:xlink="http://www.w3.org/1999/xlink" width="142.5" height="193.787" viewBox="0 0 142.5 193.787">
  <defs>
    <clipPath id="clip-path">
      <rect id="Rectángulo_216781" data-name="Rectángulo 216781" width="142.5" height="193.787" fill="none"/>
    </clipPath>
  </defs>
  <g id="Grupo_174084" data-name="Grupo 174084" clip-path="url(#clip-path)">
    <path id="Trazado_238472" data-name="Trazado 238472" d="M130.98,135.635,128.04,142h5.83Zm-4.092,8.8-1.2,2.516c-.089.213-.151.37-.186.469a.937.937,0,0,0-.054.334.627.627,0,0,0,.226.507,1.661,1.661,0,0,0,.631.3v.427h-5.885v-.427a1.451,1.451,0,0,0,.828-.4,4.15,4.15,0,0,0,.588-.963l6.554-13.722a3.362,3.362,0,0,0,.228-.5,1.417,1.417,0,0,0,.094-.494.921.921,0,0,0-.75-.909v-.427h6.312v.427a2.133,2.133,0,0,0-.52.241.578.578,0,0,0-.254.534,1.269,1.269,0,0,0,.053.349,4.5,4.5,0,0,0,.187.508l6.822,13.748a5.512,5.512,0,0,0,.682,1.137,1.5,1.5,0,0,0,.923.469v.427h-6.554v-.427a1.429,1.429,0,0,0,.628-.214.582.582,0,0,0,.228-.509,1.691,1.691,0,0,0-.24-.883l-1.231-2.516Zm-8.613,4.549h-5.564v-.427a1.344,1.344,0,0,0,.616-.321.84.84,0,0,0,.215-.616V132.506a.863.863,0,0,0-.2-.616,1.261,1.261,0,0,0-.628-.321v-.427h5.564v.427q-.856.213-.856.937v15.113q0,.723.856.937Zm-9.067-2.944q.721,0,.938-.855h.426v4.628h-.426a1.357,1.357,0,0,0-.322-.616.833.833,0,0,0-.616-.214h-15.7v-.427a1.35,1.35,0,0,0,.616-.321.839.839,0,0,0,.213-.616V132.506a1.036,1.036,0,0,0-.133-.561,1.206,1.206,0,0,0-.7-.375v-.427H99.07v.427q-.856.213-.856.937v13.533Zm-29.02-10.4L77.242,142h5.833Zm-4.094,8.8-1.2,2.516c-.089.213-.153.37-.187.469a.938.938,0,0,0-.053.334.627.627,0,0,0,.226.507,1.664,1.664,0,0,0,.63.3v.427H69.62v-.427a1.454,1.454,0,0,0,.829-.4,4.149,4.149,0,0,0,.588-.963l6.554-13.722a3.62,3.62,0,0,0,.228-.5,1.415,1.415,0,0,0,.092-.494.92.92,0,0,0-.749-.909v-.427h6.313v.427a2.083,2.083,0,0,0-.521.241.578.578,0,0,0-.254.534,1.31,1.31,0,0,0,.052.349c.038.125.1.295.187.508l6.822,13.748a5.507,5.507,0,0,0,.683,1.137,1.5,1.5,0,0,0,.922.469v.427H84.813v-.427a1.439,1.439,0,0,0,.628-.214.581.581,0,0,0,.226-.509,1.69,1.69,0,0,0-.239-.883l-1.23-2.516Zm-8.612,2.142-.32.24c-.09-.07-.183-.147-.282-.228a.515.515,0,0,0-.334-.12.8.8,0,0,0-.295.066q-.161.068-1.325.75a17.829,17.829,0,0,1-3.075,1.352,11.972,11.972,0,0,1-3.972.669,11.675,11.675,0,0,1-7.517-2.434,9.125,9.125,0,0,1-.014-13.6,11.7,11.7,0,0,1,7.531-2.42,13.3,13.3,0,0,1,3.532.469,12.521,12.521,0,0,1,2.74,1.033c.686.374,1.185.647,1.5.808a6.594,6.594,0,0,0,.764.34,1.324,1.324,0,0,0,.441-.072c.133-.045.235-.085.307-.116l.32.24-2.461,3.877-.349-.254a2.394,2.394,0,0,0-.08-.727,3.292,3.292,0,0,0-.789-.842,7.067,7.067,0,0,0-2.261-1.159,9.638,9.638,0,0,0-3.235-.549,7.687,7.687,0,0,0-4.989,1.632,6.1,6.1,0,0,0,.013,9.08,7.655,7.655,0,0,0,4.977,1.646,10.455,10.455,0,0,0,4.239-.936q2.126-.937,2.126-1.873V143.1l.349-.216Zm-24.421-9.818-.374-.2a1.016,1.016,0,0,0-.174-.622A9.6,9.6,0,0,0,41,134.8a7.5,7.5,0,0,0-4.145-.9,11.169,11.169,0,0,0-3.088.375,1.839,1.839,0,0,0-1.432,1.711,1.316,1.316,0,0,0,.67,1.27,14.166,14.166,0,0,0,3.8.683,25.342,25.342,0,0,1,5.737,1.23q2.61.911,2.609,4.388a4.64,4.64,0,0,1-2.5,4.374,11.747,11.747,0,0,1-5.765,1.378,15.966,15.966,0,0,1-3.422-.362,11,11,0,0,1-2.622-.856q-.963-.494-1.257-.655a1.142,1.142,0,0,0-.536-.162.981.981,0,0,0-.616.269l-.374-.187,1.926-4.361.4.161q0,1.5,2.247,2.3a12.37,12.37,0,0,0,4.12.8,9.063,9.063,0,0,0,3.2-.536,1.955,1.955,0,0,0,1.43-1.95q0-1.421-4.159-1.9a30.193,30.193,0,0,1-6.326-1.257q-2.168-.778-2.167-4.093a4.6,4.6,0,0,1,2.354-4.333,11.122,11.122,0,0,1,5.59-1.338,12.421,12.421,0,0,1,3.023.379,15.091,15.091,0,0,1,2.461.8c.624.277,1.051.469,1.283.566a2.755,2.755,0,0,0,.7.207.737.737,0,0,0,.307-.082,1.573,1.573,0,0,0,.363-.24l.347.187ZM25.914,148.983H20.351v-.427a1.347,1.347,0,0,0,.613-.321.83.83,0,0,0,.214-.616V132.506a.868.868,0,0,0-.2-.616,1.272,1.272,0,0,0-.628-.321v-.427h5.564v.427q-.856.213-.856.937v15.113q0,.723.856.937ZM5.773,147.619q0,.723.856.937v.427H1.064v-.427a1.346,1.346,0,0,0,.615-.321.835.835,0,0,0,.214-.616V132.506a.863.863,0,0,0-.2-.616,1.272,1.272,0,0,0-.628-.321v-.427H16.846a.865.865,0,0,0,.616-.2,1.276,1.276,0,0,0,.321-.63h.427v4.6h-.427a1.351,1.351,0,0,0-.321-.616.83.83,0,0,0-.616-.214H5.773v4.252h7.249a1.047,1.047,0,0,0,.56-.134,1.2,1.2,0,0,0,.374-.694h.429v4.52h-.429c-.143-.572-.454-.856-.935-.856H5.773Z" transform="translate(0.165 20.228)" fill="#d90018"/>
    <rect id="Rectángulo_216777" data-name="Rectángulo 216777" width="142.175" height="15.797" transform="translate(0.161 177.94)" fill="#d90018"/>
    <rect id="Rectángulo_216778" data-name="Rectángulo 216778" width="142.175" height="15.797" transform="translate(0.161 177.94)" fill="none" stroke="#d90018" stroke-miterlimit="22.926" stroke-width="0.087"/>
    <path id="Trazado_238473" data-name="Trazado 238473" d="M131.395,165.217v-7.634h1.093l4.229,5.993v-5.993h1.021v7.634h-1.093l-4.228-6v6Zm-7.96-3.7a2.962,2.962,0,0,0,.781,2.173,2.832,2.832,0,0,0,3.943-.008,3.135,3.135,0,0,0,.779-2.276,3.75,3.75,0,0,0-.334-1.625,2.482,2.482,0,0,0-.972-1.079,2.752,2.752,0,0,0-1.436-.381,2.8,2.8,0,0,0-1.945.737,3.179,3.179,0,0,0-.816,2.459m-1.1-.016a4.015,4.015,0,0,1,1.076-2.974,3.762,3.762,0,0,1,2.779-1.077,4.011,4.011,0,0,1,2.009.506,3.374,3.374,0,0,1,1.364,1.408,4.37,4.37,0,0,1,.468,2.047,4.275,4.275,0,0,1-.493,2.077,3.272,3.272,0,0,1-1.4,1.389,4.167,4.167,0,0,1-1.955.471,3.956,3.956,0,0,1-2.032-.521A3.427,3.427,0,0,1,122.8,163.4a4.153,4.153,0,0,1-.46-1.906m-2.618-3.915h1.064v7.631h-1.064Zm-2.561,4.957,1.067.255a3.387,3.387,0,0,1-1.206,1.9,3.453,3.453,0,0,1-2.128.652,4,4,0,0,1-2.116-.5,3.174,3.174,0,0,1-1.241-1.457,4.979,4.979,0,0,1-.425-2.047,4.275,4.275,0,0,1,.481-2.078,3.18,3.18,0,0,1,1.369-1.348,4.138,4.138,0,0,1,1.949-.461,3.426,3.426,0,0,1,2.032.582,3.007,3.007,0,0,1,1.145,1.642l-1.044.233a2.357,2.357,0,0,0-.816-1.213,2.237,2.237,0,0,0-1.339-.38,2.717,2.717,0,0,0-1.55.419,2.238,2.238,0,0,0-.874,1.136,4.319,4.319,0,0,0-.254,1.463,4.5,4.5,0,0,0,.3,1.7,2.165,2.165,0,0,0,.932,1.084,2.71,2.71,0,0,0,1.369.36,2.369,2.369,0,0,0,1.513-.489,2.469,2.469,0,0,0,.84-1.453m-11.8-.46h2.73l-.841-2.113c-.254-.641-.446-1.169-.57-1.581a9.541,9.541,0,0,1-.436,1.458Zm-2.323,3.136,3.093-7.634h1.148l3.295,7.634h-1.216l-.938-2.312h-3.365l-.883,2.312Zm-7.247,0v-7.634h1.093l4.228,5.993v-5.993h1.022v7.634h-1.093l-4.228-6v6Zm-8.556-3.136h2.731l-.84-2.113c-.256-.641-.448-1.169-.57-1.581a9.543,9.543,0,0,1-.437,1.458Zm-2.321,3.136L88,157.583h1.146l3.294,7.634H91.227l-.939-2.312H86.921l-.883,2.312Zm-5.415,0v-7.634H80.56v6.73h3.964v.9Zm-10.555,0v-7.634h5.819v.9H70v2.338h4.453v.894H70v2.6h4.942v.9Zm-7.08-.9h1.718a4.355,4.355,0,0,0,1.25-.139,1.811,1.811,0,0,0,.723-.4,2.4,2.4,0,0,0,.59-.966,4.491,4.491,0,0,0,.21-1.472,3.39,3.39,0,0,0-.414-1.837,2.043,2.043,0,0,0-1.007-.863,4.3,4.3,0,0,0-1.377-.158H61.857Zm-1.064.9v-7.634h2.773a6.993,6.993,0,0,1,1.432.111,2.77,2.77,0,0,1,1.181.544,3.151,3.151,0,0,1,.953,1.3,4.873,4.873,0,0,1,.318,1.816,4.952,4.952,0,0,1-.218,1.54,3.58,3.58,0,0,1-.549,1.114,2.79,2.79,0,0,1-.731.691,3.053,3.053,0,0,1-.961.384,5.781,5.781,0,0,1-1.293.131Zm-9,0v-7.634h1.065v6.73h3.964v.9ZM45.77,162.08H48.5l-.842-2.113q-.383-.962-.568-1.581a9.545,9.545,0,0,1-.437,1.458Zm-2.321,3.136,3.09-7.634h1.148l3.294,7.634H49.768l-.939-2.312H45.463l-.883,2.312Zm-6.155-4.264h2.29a3.6,3.6,0,0,0,1.143-.144,1.208,1.208,0,0,0,.625-.459,1.192,1.192,0,0,0,.214-.684,1.107,1.107,0,0,0-.415-.889,2.007,2.007,0,0,0-1.31-.35H37.295Zm-1.065,4.264v-7.634H39.8a5.031,5.031,0,0,1,1.636.206,1.78,1.78,0,0,1,.9.727,2.076,2.076,0,0,1,.334,1.151,1.858,1.858,0,0,1-.555,1.368,2.887,2.887,0,0,1-1.712.709,2.711,2.711,0,0,1,.642.381,5.346,5.346,0,0,1,.884,1.014l1.4,2.078H41.984l-1.066-1.59q-.466-.686-.769-1.051a2.278,2.278,0,0,0-.541-.509,1.676,1.676,0,0,0-.483-.2,3.557,3.557,0,0,0-.595-.036H37.295v3.391Zm-7.494,0v-7.634h5.819v.9H29.8v2.338h4.452v.894H29.8v2.6h4.942v.9Zm-8.156,0v-7.634h1.093l4.229,5.993v-5.993h1.021v7.634H25.83l-4.229-6v6Zm-7.465,0v-7.634h5.819v.9H14.178v2.338h4.453v.894H14.178v2.6h4.942v.9Zm-5-2.994v-.9l3.408,0v2.831a6.114,6.114,0,0,1-1.618.893,5.061,5.061,0,0,1-1.713.3,4.759,4.759,0,0,1-2.156-.483,3.266,3.266,0,0,1-1.463-1.39,4.2,4.2,0,0,1-.494-2.038,4.524,4.524,0,0,1,.492-2.081,3.173,3.173,0,0,1,1.414-1.435,4.642,4.642,0,0,1,2.124-.467,4.372,4.372,0,0,1,1.577.269,2.586,2.586,0,0,1,1.108.746,3.291,3.291,0,0,1,.611,1.248l-.962.251a2.793,2.793,0,0,0-.451-.917,1.852,1.852,0,0,0-.769-.533,2.988,2.988,0,0,0-1.108-.2,3.436,3.436,0,0,0-1.263.21,2.364,2.364,0,0,0-.861.555,2.7,2.7,0,0,0-.509.756,3.855,3.855,0,0,0-.306,1.535,3.561,3.561,0,0,0,.371,1.709,2.323,2.323,0,0,0,1.08,1.02,3.491,3.491,0,0,0,1.5.333,3.738,3.738,0,0,0,1.352-.253,3.454,3.454,0,0,0,1-.538v-1.421Z" transform="translate(0.633 24.44)" fill="#fff"/>
    <rect id="Rectángulo_216779" data-name="Rectángulo 216779" width="142.17" height="142.169" transform="translate(0.164 0.164)" fill="#004190"/>
    <rect id="Rectángulo_216780" data-name="Rectángulo 216780" width="142.17" height="142.169" transform="translate(0.164 0.164)" fill="none" stroke="#004190" stroke-miterlimit="22.926" stroke-width="0.285"/>
    <path id="Trazado_238474" data-name="Trazado 238474" d="M30.86,34.078l24.393.1s3.061.352,3.965-2.361S56.96,26.6,56.96,26.6s-3.041-3.223-2.285-7.3a9.753,9.753,0,0,1,3.188-5.879,12.763,12.763,0,0,1,5.292-2.686c3.616-1.011,8.4.587,8.4.587a13.825,13.825,0,0,1,3.424,2,8.682,8.682,0,0,1,3.026,4.769,10.06,10.06,0,0,1-.307,5.584,14.808,14.808,0,0,1-3.03,4.473l-.553.706s-.68.753-.68,1.2a2.7,2.7,0,0,0,.06,1.874c.419,1.4,2.3,2.027,2.3,2.027l1.058.052L102,34l-.15,25.956a2.763,2.763,0,0,1-1.667,2.441c-1.967.62-3.2.692-5.569-1.721a10.3,10.3,0,0,0-7.2-2.712,10.464,10.464,0,0,0-5.792,2.67,11.958,11.958,0,0,0-2.851,4.621,12.769,12.769,0,0,0-.533,7.091,12.479,12.479,0,0,0,3.751,6.7,10.423,10.423,0,0,0,4.82,2.3,9.643,9.643,0,0,0,5.955-1.211l2.731-2a4.156,4.156,0,0,1,3.839-1.32,3.19,3.19,0,0,1,2.567,2.938l-.079,25.713-26.108-.154a3.418,3.418,0,0,0-2.483,2.448c-.594,2.092,2.017,4.229,2.017,4.229a15.622,15.622,0,0,1,1.5,2.113,8.948,8.948,0,0,1-.295,10.157s-3.257,3.662-5.341,4.077-3.116.491-3.116.491l-1.464.024a14.614,14.614,0,0,1-5.516-.787c-2.226-.963-4.731-2.856-5.415-4.631a9.295,9.295,0,0,1,1.441-10.785l1.695-2.228s1.006-2.093.029-3.523a3.543,3.543,0,0,0-1.986-1.616l-.851-.076-.605.023-24.435.043L30.9,78.755a3.558,3.558,0,0,1,2.174-2.074c1.8-.72,3.663,1.011,3.663,1.011l2.187,1.889a9.724,9.724,0,0,0,6.333,1.845,10.266,10.266,0,0,0,6.309-3.381,18.907,18.907,0,0,0,2.189-3.708,16.147,16.147,0,0,0,.756-5.61,12.8,12.8,0,0,0-1.591-5.278,9.857,9.857,0,0,0-3.984-4.163,8.073,8.073,0,0,0-5.226-1.215s-2.749-.163-6.383,3.075-5.766.348-5.766.348-.63-.352-.693-1.7-.006-25.713-.006-25.713" transform="translate(4.786 1.614)" fill="#ffb500" fill-rule="evenodd"/>
    <path id="Trazado_238475" data-name="Trazado 238475" d="M30.86,34.078l24.393.1s3.061.352,3.965-2.361S56.96,26.6,56.96,26.6s-3.041-3.223-2.285-7.3a9.753,9.753,0,0,1,3.188-5.879,12.763,12.763,0,0,1,5.292-2.686c3.616-1.011,8.4.587,8.4.587a13.825,13.825,0,0,1,3.424,2,8.682,8.682,0,0,1,3.026,4.769,10.06,10.06,0,0,1-.307,5.584,14.808,14.808,0,0,1-3.03,4.473l-.553.706s-.68.753-.68,1.2a2.7,2.7,0,0,0,.06,1.874c.419,1.4,2.3,2.027,2.3,2.027l1.058.052L102,34l-.15,25.956a2.763,2.763,0,0,1-1.667,2.441c-1.967.62-3.2.692-5.569-1.721a10.3,10.3,0,0,0-7.2-2.712,10.464,10.464,0,0,0-5.792,2.67,11.958,11.958,0,0,0-2.851,4.621,12.769,12.769,0,0,0-.533,7.091,12.479,12.479,0,0,0,3.751,6.7,10.423,10.423,0,0,0,4.82,2.3,9.643,9.643,0,0,0,5.955-1.211l2.731-2a4.156,4.156,0,0,1,3.839-1.32,3.19,3.19,0,0,1,2.567,2.938l-.079,25.713-26.108-.154a3.418,3.418,0,0,0-2.483,2.448c-.594,2.092,2.017,4.229,2.017,4.229a15.622,15.622,0,0,1,1.5,2.113,8.948,8.948,0,0,1-.295,10.157s-3.257,3.662-5.341,4.077-3.116.491-3.116.491l-1.464.024a14.614,14.614,0,0,1-5.516-.787c-2.226-.963-4.731-2.856-5.415-4.631a9.295,9.295,0,0,1,1.441-10.785l1.695-2.228s1.006-2.093.029-3.523a3.543,3.543,0,0,0-1.986-1.616l-.851-.076-.605.023-24.435.043L30.9,78.755a3.558,3.558,0,0,1,2.174-2.074c1.8-.72,3.663,1.011,3.663,1.011l2.187,1.889a9.724,9.724,0,0,0,6.333,1.845,10.266,10.266,0,0,0,6.309-3.381,18.907,18.907,0,0,0,2.189-3.708,16.147,16.147,0,0,0,.756-5.61,12.8,12.8,0,0,0-1.591-5.278,9.857,9.857,0,0,0-3.984-4.163,8.073,8.073,0,0,0-5.226-1.215s-2.749-.163-6.383,3.075-5.766.348-5.766.348-.63-.352-.693-1.7S30.86,34.078,30.86,34.078Z" transform="translate(4.786 1.614)" fill="none" stroke="#ffb500" stroke-miterlimit="22.926" stroke-width="0.285"/>
  </g>
</svg>
