<svg xmlns="http://www.w3.org/2000/svg" xmlns:xlink="http://www.w3.org/1999/xlink" width="503.177" height="208.502" viewBox="0 0 503.177 208.502">
  <defs>
    <clipPath id="clip-path">
      <path id="Trazado_232852" data-name="Trazado 232852" d="M0,0H503.177V208.5H0Z" transform="translate(-62.771)" fill="none"/>
    </clipPath>
    <clipPath id="clip-path-2">
      <rect id="Rectángulo_215688" data-name="Rectángulo 215688" width="503.177" height="208.502" transform="translate(-62.771)" fill="none"/>
    </clipPath>
    <clipPath id="clip-path-3">
      <rect id="Rectángulo_215685" data-name="Rectángulo 215685" width="33.977" height="25.828" fill="none"/>
    </clipPath>
    <clipPath id="clip-path-4">
      <rect id="Rectángulo_215686" data-name="Rectángulo 215686" width="19.169" height="26.81" fill="none"/>
    </clipPath>
    <clipPath id="clip-path-5">
      <rect id="Rectángulo_215687" data-name="Rectángulo 215687" width="31.251" height="32.853" fill="none"/>
    </clipPath>
  </defs>
  <g id="Grupo_172453" data-name="Grupo 172453" transform="translate(0.063 -1.688)">
    <g id="Enmascarar_grupo_80012" data-name="Enmascarar grupo 80012" transform="translate(62.708 1.688)" clip-path="url(#clip-path)">
      <g id="Grupo_172442" data-name="Grupo 172442">
        <g id="Grupo_172441" data-name="Grupo 172441" clip-path="url(#clip-path-2)">
          <path id="Trazado_221205" data-name="Trazado 221205" d="M172.715,82.188a462.551,462.551,0,0,1,51.128,18.954,46.124,46.124,0,0,1-1.919,10.518,3.156,3.156,0,0,1-1.253,1.987,3.232,3.232,0,0,1-1.585.259q-24.558-.18-49.022-2.728c-2.513-.262-5.118-.574-7.267-1.9-4.295-2.654-5.38-8.34-5.792-13.371a146.364,146.364,0,0,1-.405-16.84c.043-1.261,1.075-3.021,2.048-2.216" transform="translate(-64.685 -31.676)" fill="#b54139"/>
          <path id="Trazado_221206" data-name="Trazado 221206" d="M180.576,89.454c-5.615-7.388-12.03-12.094-19.146-17.784-7.772-6.214-16.5-10.925-24.771-16.395-9.912-6.55-21.873-12.345-33.937-13.191-14.912-1.046-29.161,5.563-42.8,11.7s-28.38,12.065-43.125,9.6c-5.757-.964-74.8-20.459-80.563-21.292V78.521c5.437.491,74.382,16.886,79.759,17.831,10.012,1.761,19.888,4.3,29.962,5.657a128.389,128.389,0,0,0,30.314.454c7.935-.825,16.122-2.613,23.022-6.8a35.3,35.3,0,0,0,8.6-7.829c.869-1.017,7.469-9.5,7.964-9.314,11.5,4.406,23.729,6.668,35.077,11.51,4.938,2.107,10.261,4.4,13.317,8.946a42.406,42.406,0,0,0,11.64,11.654c4.066,2.812,9.5,5.5,14.541,5.284a8.124,8.124,0,0,0,6.6-3.419c.745-1.194-14.793-20.86-16.453-23.043" transform="translate(1 -17.347)" fill="#c95041"/>
          <path id="Trazado_221207" data-name="Trazado 221207" d="M195.571,65.2c.09-.048,1.018,1.658,1.453,4.714a22.84,22.84,0,0,1,.092,5.385,32.446,32.446,0,0,1-1.365,6.433,31.2,31.2,0,0,1-5.162,10.717,11.3,11.3,0,0,1-2.7,2.447c-.746.439-1.2.586-1.227.533-.038-.073.352-.339,1-.855A14.115,14.115,0,0,0,190.022,92a35.727,35.727,0,0,0,4.755-10.566,36,36,0,0,0,1.408-6.243,25.8,25.8,0,0,0,.124-5.205c-.237-2.97-.906-4.736-.738-4.792" transform="translate(-77.141 -26.944)" fill="#853b2c"/>
          <path id="Trazado_221208" data-name="Trazado 221208" d="M235.732,107.1c.384.086,1.375-3.206,3.175-6.994,1.774-3.8,3.681-6.66,3.37-6.9-.269-.231-2.743,2.362-4.6,6.324-1.874,3.952-2.3,7.511-1.949,7.571" transform="translate(-97.376 -38.515)" fill="#853b2c"/>
          <path id="Trazado_221209" data-name="Trazado 221209" d="M199.608,93.631c-.194-.242,2.553-2.39,4.716-5.989,2.208-3.571,2.861-7,3.164-6.936.127.02.133.91-.177,2.308a17.768,17.768,0,0,1-5.733,9.4c-1.1.915-1.9,1.317-1.97,1.213" transform="translate(-82.489 -33.354)" fill="#853b2c"/>
          <path id="Trazado_221210" data-name="Trazado 221210" d="M282.653,108.483c-.164-.09.424-1.477,1.313-3.1s1.743-2.863,1.906-2.773-.423,1.477-1.312,3.1-1.743,2.863-1.907,2.773" transform="translate(-116.802 -42.405)" fill="#853b2c"/>
          <path id="Trazado_221211" data-name="Trazado 221211" d="M287.2,107.413c-.155-.1-.018-.582.307-1.067s.715-.794.871-.69.018.582-.307,1.067-.715.794-.871.69" transform="translate(-118.667 -43.657)" fill="#853b2c"/>
          <path id="Trazado_221212" data-name="Trazado 221212" d="M250.767,91.745c-.164-.055.63-2.513,2.452-5.09s3.85-4.168,3.957-4.032c.137.148-1.649,1.908-3.4,4.422-1.771,2.5-2.821,4.779-3.006,4.7" transform="translate(-103.627 -34.142)" fill="#853b2c"/>
          <path id="Trazado_221213" data-name="Trazado 221213" d="M241.155,147.427a125.747,125.747,0,0,1,18.41,7.57c1.948.988,3.969,2.12,5.058,4.014,1.145,1.992,1.039,4.444.784,6.727-2.322,20.782-13,40.983-20.961,60.118-.652,1.57-1.425,3.269-2.955,4.013-2.718,1.324-5.756-1.176-7.356-3.742-3.784-6.071-4.775-13.6-3.824-20.687s3.716-13.82,6.991-20.181c2.63-5.107,5.58-9.056,3.225-14.736-2.333-5.624-7.652-10.179-12.474-13.69" transform="translate(-94.248 -60.928)" fill="#a53a37"/>
          <path id="Trazado_221214" data-name="Trazado 221214" d="M264.45,239.972c-3.425,8.2-7.159,16.256-10.434,24.13-.127.306-.262.616-.4.924a13,13,0,0,1-1.985-4.3,16.417,16.417,0,0,1,3.185-13.7,22.886,22.886,0,0,1,9.638-7.06" transform="translate(-103.819 -99.174)" fill="#f766b5"/>
          <path id="Trazado_221215" data-name="Trazado 221215" d="M209.2,134.1a144.7,144.7,0,0,1,35.811,7.06c3.452,1.149,6.949,2.48,9.665,4.9,7.538,6.715,3.342,14.859-1.359,21.425-4.464,6.236-11.194,10.6-16.634,15.927-5.993,5.867-11.94,11.793-17.435,18.136-.869,1-2.048,2.108-3.327,1.754-4.28-1.188-5.7-6.827-5.951-10.681-.346-5.318,2.936-11.793,4.959-16.654A45.561,45.561,0,0,1,225.4,160.5c.4-.379.836-.877.677-1.4a1.475,1.475,0,0,0-.53-.652q-8.737-7.265-18.152-13.657" transform="translate(-85.713 -55.419)" fill="#b54139"/>
          <path id="Trazado_221216" data-name="Trazado 221216" d="M234.608,221.216a15.4,15.4,0,0,1,7.239-.163c-5.346,5.258-10.6,10.573-15.551,16.283a6.4,6.4,0,0,1-1.814,1.556c-.134-3.932.037-7.948,1.923-11.352a13.525,13.525,0,0,1,8.2-6.324" transform="translate(-92.759 -91.21)" fill="#f766b5"/>
          <path id="Trazado_221217" data-name="Trazado 221217" d="M271.229,224.078c.049-.181.811-.13,1.7.113s1.574.586,1.524.767-.811.13-1.7-.113-1.574-.586-1.524-.767" transform="translate(-112.091 -92.561)" fill="#853b2c"/>
          <path id="Trazado_221218" data-name="Trazado 221218" d="M304.29,133.208l-7.146-6.66a39.954,39.954,0,1,1,1.074-54.608l6.53-1.088,2.01-8.506,3.979-1.594a57.1,57.1,0,0,0-9.292-8.287L313.735,35.86l.295,6.824a5.041,5.041,0,0,0,5.254,4.819l.885-.038a5.041,5.041,0,0,0,4.819-5.254L324,19.4c0-.126-.006-.249-.016-.376l-.023-.524a5.008,5.008,0,0,0-1.844-3.66c-.091-.082-.2-.146-.293-.221s-.192-.152-.3-.216a5.01,5.01,0,0,0-4.039-.694l-.508.131c-.124.026-.244.059-.364.094l-22.1,5.721A5.041,5.041,0,0,0,290.9,25.8l.222.858a5.041,5.041,0,0,0,6.144,3.617l6.612-1.712L290.668,46.418a56.753,56.753,0,1,0,25.843,82.549Z" transform="translate(-87.518 -5.602)" fill="#4569a6"/>
          <g id="Grupo_172434" data-name="Grupo 172434" transform="translate(193.984 120.946)" opacity="0.15" style="mix-blend-mode: multiply;isolation: isolate">
            <g id="Grupo_172433" data-name="Grupo 172433">
              <g id="Grupo_172432" data-name="Grupo 172432" clip-path="url(#clip-path-3)">
                <path id="Trazado_221219" data-name="Trazado 221219" d="M364.6,210.126c-.015-.4-.035-.8-.052-1.193L353.409,212.8l-7.146-6.66a39.751,39.751,0,0,1-15.643,9.915A74.646,74.646,0,0,0,336,231.966a56.645,56.645,0,0,0,28.594-21.84" transform="translate(-330.621 -206.138)" fill="#4569a6"/>
              </g>
            </g>
          </g>
          <path id="Trazado_221220" data-name="Trazado 221220" d="M384.106,149.342v9.112l-13.171,6.731a40.023,40.023,0,0,1-4.5,10.269l4.261,7.446,12.048-2.158a56.472,56.472,0,0,0,6.141-32.186Z" transform="translate(-151.437 -61.394)" fill="#4569a6"/>
          <path id="Trazado_221221" data-name="Trazado 221221" d="M483.219,210.351a125.729,125.729,0,0,0-18.41,7.57c-1.948.988-3.969,2.12-5.058,4.014-1.145,1.992-1.039,4.444-.784,6.727,2.323,20.782,13,40.983,20.961,60.118.653,1.57,1.426,3.269,2.955,4.013,2.718,1.324,5.756-1.176,7.356-3.742,3.784-6.071,4.775-13.6,3.824-20.687s-3.716-13.82-6.991-20.181c-2.63-5.107-5.58-9.056-3.225-14.736,2.333-5.624,7.651-10.179,12.473-13.69" transform="translate(-189.611 -86.933)" fill="#a53a37"/>
          <path id="Trazado_221222" data-name="Trazado 221222" d="M530.664,145.112a462.547,462.547,0,0,0-51.128,18.954,46.124,46.124,0,0,0,1.919,10.518,3.156,3.156,0,0,0,1.253,1.987,3.232,3.232,0,0,0,1.585.259q24.558-.18,49.022-2.728c2.513-.262,5.118-.574,7.267-1.9,4.295-2.654,5.38-8.34,5.792-13.371a146.385,146.385,0,0,0,.405-16.84c-.043-1.261-1.075-3.021-2.048-2.216" transform="translate(-198.18 -57.681)" fill="#b54139"/>
          <path id="Trazado_221223" data-name="Trazado 221223" d="M611.188,122.3c-5.745.845-11.25,3.046-16.993,4-14.8,2.469-29.594-3.463-43.29-9.6s-28-12.741-42.969-11.7c-12.11.845-24.117,6.641-34.066,13.191-8.308,5.47-17.065,10.181-24.867,16.4-7.143,5.689-13.583,10.4-19.219,17.783-1.666,2.183-17.264,21.85-16.516,23.043a8.165,8.165,0,0,0,6.626,3.42c5.061.22,10.515-2.472,14.6-5.285A42.48,42.48,0,0,0,446.176,161.9c3.069-4.55,8.411-6.839,13.369-8.946,11.391-4.842,23.664-7.1,35.211-11.51.5-.189,7.122,8.3,7.994,9.314a35.393,35.393,0,0,0,8.635,7.83c6.926,4.185,15.146,5.973,23.111,6.8a129.371,129.371,0,0,0,30.43-.454c10.113-1.352,20.027-3.9,30.077-5.657q8.042-1.409,16.185-2.132Z" transform="translate(-170.783 -43.352)" fill="#c95041"/>
          <g id="Grupo_172437" data-name="Grupo 172437" transform="translate(124.25 83.976)" opacity="0.15" style="mix-blend-mode: multiply;isolation: isolate">
            <g id="Grupo_172436" data-name="Grupo 172436">
              <g id="Grupo_172435" data-name="Grupo 172435" clip-path="url(#clip-path-4)">
                <path id="Trazado_221224" data-name="Trazado 221224" d="M229.006,158.123a39.887,39.887,0,0,1,.218-13.1,30.625,30.625,0,0,0-4.342-1.078,51.621,51.621,0,0,0-12.4-.712,57.036,57.036,0,0,0,2.125,26.708c1.423-.536,2.879-1,4.334-1.415a109.974,109.974,0,0,1,12-2.735,40.1,40.1,0,0,1-1.931-7.664" transform="translate(-211.769 -143.126)" fill="#4569a6"/>
              </g>
            </g>
          </g>
          <path id="Trazado_221225" data-name="Trazado 221225" d="M372.313,124.522l3.016.692A39.972,39.972,0,0,1,424.9,113.142l.657-6.344,8.031-2.409,1.6-4.807a56.773,56.773,0,0,0-76.71,20.68l3.628,5.35Z" transform="translate(-148.152 -38.15)" fill="#f766b5"/>
          <path id="Trazado_221226" data-name="Trazado 221226" d="M350.661,176.689,362.1,169.64a39.737,39.737,0,0,1,6.2-17.8l-1.356-.38-9.1,6.135-10.169-.995a56.748,56.748,0,0,0-2.56,16.9c0,.277.016.552.02.828,2.647,1.123,5.528,2.354,5.528,2.354" transform="translate(-142.627 -62.595)" fill="#f766b5"/>
          <path id="Trazado_221227" data-name="Trazado 221227" d="M477.026,302.9c3.425,8.2,7.159,16.256,10.434,24.13.127.306.262.616.4.924a13,13,0,0,0,1.986-4.3,16.417,16.417,0,0,0-3.185-13.7,22.887,22.887,0,0,0-9.638-7.06" transform="translate(-197.143 -125.179)" fill="#fff"/>
          <path id="Trazado_221228" data-name="Trazado 221228" d="M505.385,197.022a144.7,144.7,0,0,0-35.811,7.06c-3.452,1.149-6.949,2.48-9.665,4.9-7.538,6.715-3.342,14.859,1.359,21.425,4.464,6.236,11.194,10.6,16.634,15.927,5.993,5.867,11.94,11.793,17.435,18.136.869,1,2.048,2.108,3.327,1.754,4.28-1.188,5.7-6.827,5.951-10.681.346-5.317-2.936-11.793-4.959-16.654a45.563,45.563,0,0,0-10.472-15.465c-.4-.379-.836-.877-.677-1.4a1.476,1.476,0,0,1,.53-.652q8.737-7.265,18.152-13.657" transform="translate(-188.361 -81.424)" fill="#b54139"/>
          <path id="Trazado_221229" data-name="Trazado 221229" d="M503.936,284.139a15.4,15.4,0,0,0-7.239-.163c5.346,5.258,10.6,10.573,15.551,16.283a6.4,6.4,0,0,0,1.814,1.556c.134-3.932-.037-7.948-1.923-11.352a13.525,13.525,0,0,0-8.2-6.324" transform="translate(-205.272 -117.214)" fill="#fff"/>
          <path id="Trazado_221230" data-name="Trazado 221230" d="M422.2,206.87a13.433,13.433,0,0,0,6.356-16.245c-3.536,4.537-10.125,13.047-12.973,17.462a10.436,10.436,0,0,0,6.617-1.217" transform="translate(-171.751 -78.78)" fill="#fff"/>
          <path id="Trazado_221231" data-name="Trazado 221231" d="M547.782,128.12c-.09-.048-1.018,1.658-1.453,4.714a22.836,22.836,0,0,0-.092,5.384,32.438,32.438,0,0,0,1.365,6.433,31.2,31.2,0,0,0,5.162,10.717,11.3,11.3,0,0,0,2.7,2.447c.746.439,1.2.586,1.227.534.038-.073-.352-.339-1-.855a14.153,14.153,0,0,1-2.365-2.567,35.723,35.723,0,0,1-4.755-10.567,35.988,35.988,0,0,1-1.408-6.243,25.8,25.8,0,0,1-.124-5.205c.237-2.969.906-4.736.738-4.792" transform="translate(-225.698 -52.948)" fill="#853b2c"/>
          <path id="Trazado_221232" data-name="Trazado 221232" d="M510.356,170.028c.35-.06-.075-3.62-1.949-7.571-1.853-3.962-4.327-6.555-4.6-6.324-.311.241,1.6,3.1,3.37,6.9,1.8,3.788,2.791,7.08,3.175,6.994" transform="translate(-208.198 -64.52)" fill="#853b2c"/>
          <path id="Trazado_221233" data-name="Trazado 221233" d="M458.968,157.547a56.65,56.65,0,0,0-21.787-44.7l-3.473,6.132H423.423l-.488,4.4a39.96,39.96,0,1,1-60.674,34.174c0-.552.014-1.1.036-1.648l-7.851,8.33-8.477.813a56.766,56.766,0,0,0,50.139,48.923v16.244h-9.959a2.96,2.96,0,0,0-2.96,2.959v6.3a2.96,2.96,0,0,0,2.96,2.959h9.959v9.748a2.96,2.96,0,0,0,2.959,2.959h6.3a2.96,2.96,0,0,0,2.959-2.959v-9.748h9.958a2.96,2.96,0,0,0,2.96-2.959v-6.3a2.96,2.96,0,0,0-2.96-2.959h-9.958V213.965a56.754,56.754,0,0,0,50.64-56.418" transform="translate(-142.98 -46.636)" fill="#f766b5"/>
          <path id="Trazado_221234" data-name="Trazado 221234" d="M372.776,128.346a40.436,40.436,0,0,1,.411,4.583l6.277.64,3.6-7.1,6.418.111c-.032-.239-.062-.478-.1-.718a56.43,56.43,0,0,0-11.05-26.092c-2.4-.047-4.373-.145-4.373-.145l.638,10.56-6.2,5.027a39.883,39.883,0,0,1,4.375,13.13" transform="translate(-152.251 -41.174)" fill="#4569a6"/>
          <g id="Grupo_172440" data-name="Grupo 172440" transform="translate(283.753 113.071)" opacity="0.29" style="mix-blend-mode: multiply;isolation: isolate">
            <g id="Grupo_172439" data-name="Grupo 172439">
              <g id="Grupo_172438" data-name="Grupo 172438" clip-path="url(#clip-path-5)">
                <path id="Trazado_221235" data-name="Trazado 221235" d="M514.873,201.114c-1.083-.779-2.2-1.5-3.316-2.177A86.341,86.341,0,0,0,499,192.716a39.88,39.88,0,0,1-15.381,29.38,150,150,0,0,1,20.128,3.472,56.467,56.467,0,0,0,11.123-24.455" transform="translate(-483.622 -192.716)" fill="#ffb2e5"/>
              </g>
            </g>
          </g>
          <path id="Trazado_221236" data-name="Trazado 221236" d="M345.417,137.88l-11.12-6.832-1.436,5.349Z" transform="translate(-137.563 -54.159)" fill="#fff"/>
          <path id="Trazado_221237" data-name="Trazado 221237" d="M347.312,147.438l-9.09.806,1.056,3.915Z" transform="translate(-139.779 -60.932)" fill="#f766b5"/>
          <path id="Trazado_221238" data-name="Trazado 221238" d="M386.367,85.283l2.372-6.228,2.091,1.133Z" transform="translate(-159.676 -32.671)" fill="#4569a6"/>
          <path id="Trazado_221239" data-name="Trazado 221239" d="M390.171,87.234,401.092,82.1l.675,2.346Z" transform="translate(-161.248 -33.928)" fill="#fff"/>
          <path id="Trazado_221240" data-name="Trazado 221240" d="M412.747,142.581l7.02-3.973.239,2.989Z" transform="translate(-170.578 -57.283)" fill="#fff"/>
          <path id="Trazado_221241" data-name="Trazado 221241" d="M410.627,149.9l6.874.721-.906,2.74Z" transform="translate(-169.702 -61.948)" fill="#4569a6"/>
          <path id="Trazado_221242" data-name="Trazado 221242" d="M394.959,205.771l5.675-.684-.56,2.6Z" transform="translate(-163.226 -84.757)" fill="#4569a6"/>
          <path id="Trazado_221243" data-name="Trazado 221243" d="M394.7,209.525l2.333,8.924.658-1.5Z" transform="translate(-163.118 -86.591)" fill="#fff"/>
          <path id="Trazado_221244" data-name="Trazado 221244" d="M337.158,193.281l-9.091-1.815v3.077Z" transform="translate(-135.581 -79.128)" fill="#fff"/>
          <path id="Trazado_221245" data-name="Trazado 221245" d="M338.647,200.539l-6.976,5.273,3.488,2.708Z" transform="translate(-137.071 -82.877)" fill="#f766b5"/>
          <path id="Trazado_221246" data-name="Trazado 221246" d="M628.793,170.948a174.374,174.374,0,0,1-23.028,1.005c-7.365-.011-14.768-.025-22.038-1.206-7.254-1.179-14.283-3.506-21.53-4.722s-15-1.239-21.6,1.993a35.257,35.257,0,0,1-5.836,2.746c-2.336.651-3.866-.55-6.039-.548-2.539,0-5.637,1.451-8.158,1.958-5.955,1.2-12,1.895-18.036,2.494-12.1,1.2-24.337,1.927-36.105,5.185-4.207,1.165-8.847,3.15-10.218,7.295-1.135,3.431.51,7.312,3.193,9.731s6.22,3.644,9.709,4.581c13.9,3.735,28.318,2.7,42.162,6.827,10.239,3.053,18.621,9.014,28.1,13.464,9.975,4.683,21.143,6.452,32.1,6.429,14.087-.028,27.948-2.746,41.79-5.054,1.712-.286,8.38-1.58,15.537-2.642Z" transform="translate(-188.387 -68.301)" fill="#c95041"/>
          <path id="Trazado_221247" data-name="Trazado 221247" d="M483.983,208.2c2.54-3.265,2.291-10.418-2.475-11.221-4.168-.7-12.5-.3-13.817,4.838-1.693,6.6,6.243,8.033,11.026,8.4a6.85,6.85,0,0,0,3.23-.343,5.3,5.3,0,0,0,2.036-1.67" transform="translate(-193.188 -81.295)" fill="#fff"/>
          <path id="Trazado_221248" data-name="Trazado 221248" d="M553.991,157.743a32.915,32.915,0,0,0-3.83,1.8,108.275,108.275,0,0,1-10.573,4.491,100.6,100.6,0,0,1-16.411,4.42c-6.3,1.178-13.325,1.943-20.718,2.693l-5.474.573c-1.775.177-3.553.273-5.3.373-3.5.191-6.885.383-10.106.719a70.841,70.841,0,0,0-9.1,1.471,33.054,33.054,0,0,0-7.6,2.737,16.053,16.053,0,0,0-5.2,4.223,11.494,11.494,0,0,0-2.135,4.585l-.187.966c-.033.305-.045.593-.065.858l-.046.734c0,.224.021.427.031.608a3.391,3.391,0,0,0,.14,1.1,3.448,3.448,0,0,0,.134-1.091c.011-.191.022-.389.034-.594q.053-.341.109-.709c.04-.255.072-.532.124-.823q.115-.442.239-.915a11.425,11.425,0,0,1,2.215-4.241,15.663,15.663,0,0,1,5.051-3.844,33.159,33.159,0,0,1,7.411-2.494,73.422,73.422,0,0,1,8.965-1.323c3.189-.3,6.553-.462,10.056-.635,1.752-.092,3.537-.18,5.364-.357l5.477-.566c7.393-.75,14.46-1.557,20.813-2.815a93.885,93.885,0,0,0,16.515-4.75,84.093,84.093,0,0,0,10.479-4.92c1.191-.67,2.1-1.216,2.7-1.612s.908-.618.884-.658" transform="translate(-188.97 -65.188)" fill="#853b2c"/>
          <path id="Trazado_221249" data-name="Trazado 221249" d="M545.577,156.555c.193-.242-2.554-2.39-4.717-5.989-2.208-3.571-2.861-7-3.164-6.936-.127.02-.133.91.177,2.308a17.768,17.768,0,0,0,5.734,9.4c1.1.915,1.9,1.317,1.971,1.213" transform="translate(-222.182 -59.358)" fill="#853b2c"/>
          <path id="Trazado_221250" data-name="Trazado 221250" d="M510.949,207.538c.172.031.837-3.3.829-7.475.008-4.174-.658-7.5-.83-7.474-.2.027.16,3.358.152,7.474.009,4.116-.349,7.448-.151,7.475" transform="translate(-211.137 -79.592)" fill="#853b2c"/>
          <path id="Trazado_221251" data-name="Trazado 221251" d="M465.842,171.407c.164-.09-.424-1.477-1.312-3.1s-1.743-2.863-1.906-2.773.423,1.477,1.312,3.1,1.743,2.863,1.907,2.773" transform="translate(-191.179 -68.41)" fill="#853b2c"/>
          <path id="Trazado_221252" data-name="Trazado 221252" d="M462.679,170.337c.155-.1.018-.582-.307-1.067s-.715-.794-.871-.69-.018.582.307,1.067.715.794.871.69" transform="translate(-190.7 -69.661)" fill="#853b2c"/>
          <path id="Trazado_221253" data-name="Trazado 221253" d="M495.5,154.669c.164-.055-.63-2.513-2.452-5.09s-3.85-4.168-3.957-4.032c-.137.148,1.649,1.908,3.4,4.422,1.771,2.5,2.821,4.779,3.006,4.7" transform="translate(-202.125 -60.147)" fill="#853b2c"/>
          <path id="Trazado_221254" data-name="Trazado 221254" d="M477.294,287c-.049-.181-.811-.13-1.7.113s-1.574.586-1.524.767.811.13,1.7-.113,1.574-.586,1.524-.767" transform="translate(-195.919 -118.566)" fill="#853b2c"/>
          <path id="Trazado_221255" data-name="Trazado 221255" d="M595.928,156.991a17.181,17.181,0,0,0-2.526,1.764c-1.527,1.123-3.667,2.628-6.128,4.137s-4.776,2.728-6.47,3.577a17.188,17.188,0,0,0-2.72,1.447,11.781,11.781,0,0,0,2.921-1.013,52.485,52.485,0,0,0,12.692-7.771,11.788,11.788,0,0,0,2.231-2.142" transform="translate(-238.907 -64.878)" fill="#853b2c"/>
          <path id="Trazado_221256" data-name="Trazado 221256" d="M318.94,143.946a13.433,13.433,0,0,1-6.356-16.245c3.536,4.537,10.125,13.047,12.973,17.462a10.436,10.436,0,0,1-6.617-1.217" transform="translate(-128.878 -52.776)" fill="#f766b5"/>
          <path id="Trazado_221257" data-name="Trazado 221257" d="M172.7,124.225c-1.372-4.145-6.011-6.13-10.219-7.3-11.769-3.257-24.01-3.983-36.1-5.184-6.04-.6-12.082-1.3-18.037-2.494-2.522-.508-5.618-1.956-8.158-1.958-2.174,0-3.7,1.2-6.039.548a35.329,35.329,0,0,1-5.836-2.746c-6.6-3.232-14.35-3.209-21.6-1.993s-14.277,3.543-21.53,4.721C37.9,109,30.5,109.018,23.136,109.03c-7.7.012-78.319-20.192-85.932-21.209v49.535c7.2,1.065,76.72,22.561,78.44,22.848,13.841,2.308,27.7,5.027,41.789,5.055,10.955.022,22.122-1.747,32.1-6.429,9.478-4.45,17.861-10.411,28.1-13.464,13.844-4.129,28.261-3.093,42.162-6.827,3.489-.938,7.026-2.161,9.709-4.581s4.328-6.3,3.194-9.731" transform="translate(0 -42.297)" fill="#c95041"/>
          <path id="Trazado_221258" data-name="Trazado 221258" d="M254.051,145.272c-2.541-3.265-2.292-10.418,2.475-11.221,4.167-.7,12.5-.3,13.817,4.838,1.693,6.6-6.243,8.033-11.026,8.4a6.852,6.852,0,0,1-3.23-.343,5.3,5.3,0,0,1-2.035-1.67" transform="translate(-104.332 -55.29)" fill="#f766b5"/>
          <path id="Trazado_221259" data-name="Trazado 221259" d="M128.667,94.819a32.915,32.915,0,0,1,3.83,1.8,108.274,108.274,0,0,0,10.573,4.491,100.6,100.6,0,0,0,16.411,4.42c6.3,1.178,13.325,1.943,20.718,2.693l5.474.573c1.775.177,3.553.273,5.3.373,3.5.191,6.885.383,10.106.719a70.841,70.841,0,0,1,9.1,1.471,33.064,33.064,0,0,1,7.6,2.737,16.053,16.053,0,0,1,5.2,4.223,11.494,11.494,0,0,1,2.135,4.585q.1.5.187.966c.033.305.046.593.066.858l.046.734c0,.224-.021.427-.031.608a3.389,3.389,0,0,1-.14,1.1,3.449,3.449,0,0,1-.134-1.091c-.011-.191-.022-.389-.034-.594q-.053-.341-.109-.709c-.04-.255-.072-.532-.124-.823q-.115-.442-.239-.915a11.425,11.425,0,0,0-2.215-4.241,15.663,15.663,0,0,0-5.051-3.844,33.16,33.16,0,0,0-7.411-2.494,73.422,73.422,0,0,0-8.965-1.323c-3.189-.3-6.553-.462-10.056-.635-1.752-.092-3.537-.18-5.364-.357l-5.476-.566c-7.393-.75-14.46-1.557-20.813-2.815a93.884,93.884,0,0,1-16.515-4.75,84.088,84.088,0,0,1-10.479-4.92c-1.191-.67-2.1-1.216-2.7-1.612s-.908-.618-.884-.658" transform="translate(-53.174 -39.183)" fill="#853b2c"/>
          <path id="Trazado_221260" data-name="Trazado 221260" d="M239.225,144.614c-.172.031-.837-3.3-.829-7.475-.008-4.174.658-7.5.83-7.474.2.027-.16,3.358-.152,7.474-.009,4.116.349,7.448.151,7.475" transform="translate(-98.523 -53.587)" fill="#853b2c"/>
          <path id="Trazado_221261" data-name="Trazado 221261" d="M142.3,94.067a17.182,17.182,0,0,1,2.526,1.764c1.527,1.123,3.666,2.628,6.128,4.137s4.776,2.728,6.47,3.577a17.192,17.192,0,0,1,2.72,1.447,11.781,11.781,0,0,1-2.921-1.013,52.487,52.487,0,0,1-12.692-7.771,11.79,11.79,0,0,1-2.231-2.142" transform="translate(-58.808 -38.873)" fill="#853b2c"/>
          <path id="Trazado_221262" data-name="Trazado 221262" d="M494.568,97.852l2.945-10,6.257,2.618Z" transform="translate(-204.392 -36.305)" fill="#fff"/>
          <path id="Trazado_221263" data-name="Trazado 221263" d="M502.411,104.555,513.1,99.629v7.754Z" transform="translate(-207.633 -41.174)" fill="#f766b5"/>
          <path id="Trazado_221264" data-name="Trazado 221264" d="M448.051,23.631c-.418-.374-4.913,3.969-10.038,9.7s-8.941,10.683-8.522,11.057,4.913-3.969,10.038-9.7,8.941-10.683,8.523-11.057" transform="translate(-177.485 -9.757)" fill="#fff"/>
          <path id="Trazado_221265" data-name="Trazado 221265" d="M429.175,30.537c-.479-.292-2.387,1.961-4.26,5.033s-3,5.8-2.525,6.092,2.387-1.961,4.26-5.033,3-5.8,2.525-6.092" transform="translate(-174.518 -12.61)" fill="#fff"/>
          <path id="Trazado_221266" data-name="Trazado 221266" d="M416.949,7.571c-.54-.152-2.57,5.367-4.535,12.329s-3.118,12.728-2.578,12.88,2.571-5.367,4.535-12.329,3.118-12.728,2.578-12.88" transform="translate(-169.32 -3.128)" fill="#fff"/>
          <path id="Trazado_221267" data-name="Trazado 221267" d="M445.892,58.423c-.274-.493-3.64.855-7.592,2.871s-7.017,3.953-6.778,4.464,3.717-.617,7.7-2.654,6.94-4.194,6.668-4.681" transform="translate(-178.331 -24.103)" fill="#fff"/>
          <path id="Trazado_221268" data-name="Trazado 221268" d="M471.941,71.621c-.092-.554-8.794.41-19.44,2.152s-19.2,3.6-19.11,4.158,8.793-.409,19.438-2.152,19.2-3.6,19.111-4.158" transform="translate(-179.109 -29.534)" fill="#fff"/>
          <path id="Trazado_221269" data-name="Trazado 221269" d="M287.112,0c-.544.137.539,6.293,2.42,13.749S293.38,27.14,293.924,27s-.539-6.293-2.42-13.749S287.656-.135,287.112,0" transform="translate(-118.598 0)" fill="#fff"/>
          <path id="Trazado_221270" data-name="Trazado 221270" d="M307.552,18.7c-.56.036-.824,2.977-.59,6.568s.879,6.472,1.439,6.435.824-2.977.59-6.568-.879-6.472-1.439-6.435" transform="translate(-126.824 -7.729)" fill="#fff"/>
          <path id="Trazado_221271" data-name="Trazado 221271" d="M325.376,3.9c-.549-.116-2.2,5.529-3.692,12.606s-2.252,12.91-1.7,13.025,2.2-5.529,3.692-12.606,2.251-12.91,1.7-13.025" transform="translate(-132.167 -1.611)" fill="#fff"/>
          <path id="Trazado_221272" data-name="Trazado 221272" d="M268.729,27.68c-.467.306,1.146,3.589,3.735,7.241s5.148,6.263,5.592,5.924-1.37-3.479-3.933-7.1-4.922-6.375-5.394-6.065" transform="translate(-111.026 -11.43)" fill="#fff"/>
          <path id="Trazado_221273" data-name="Trazado 221273" d="M222.517,18.892c-.337.449,6.379,6.067,15,12.549S253.4,42.814,253.741,42.366s-6.379-6.067-15-12.549-15.885-11.373-16.222-10.924" transform="translate(-91.956 -7.796)" fill="#fff"/>
        </g>
      </g>
    </g>
  </g>
</svg>
