<svg xmlns="http://www.w3.org/2000/svg" xmlns:xlink="http://www.w3.org/1999/xlink" width="503.114" height="355.674" viewBox="0 0 503.114 355.674">
  <defs>
    <clipPath id="clip-path">
      <rect id="Rectángulo_218326" data-name="Rectángulo 218326" width="368.364" height="340.97" fill="none"/>
    </clipPath>
    <clipPath id="clip-path-3">
      <rect id="Rectángulo_218314" data-name="Rectángulo 218314" width="138.517" height="78.427" fill="none"/>
    </clipPath>
    <clipPath id="clip-path-4">
      <rect id="Rectángulo_218315" data-name="Rectángulo 218315" width="322.454" height="119.476" fill="none"/>
    </clipPath>
    <clipPath id="clip-path-5">
      <rect id="Rectángulo_218316" data-name="Rectángulo 218316" width="29.884" height="45.256" fill="none"/>
    </clipPath>
    <clipPath id="clip-path-6">
      <rect id="Rectángulo_218317" data-name="Rectángulo 218317" width="12.231" height="11.848" fill="none"/>
    </clipPath>
    <clipPath id="clip-path-7">
      <rect id="Rectángulo_218318" data-name="Rectángulo 218318" width="68.135" height="24.64" fill="none"/>
    </clipPath>
    <clipPath id="clip-path-8">
      <rect id="Rectángulo_218319" data-name="Rectángulo 218319" width="11.224" height="11.477" fill="none"/>
    </clipPath>
    <clipPath id="clip-path-9">
      <rect id="Rectángulo_218320" data-name="Rectángulo 218320" width="23.267" height="21.167" fill="none"/>
    </clipPath>
    <clipPath id="clip-path-10">
      <rect id="Rectángulo_218321" data-name="Rectángulo 218321" width="10.76" height="11.078" fill="none"/>
    </clipPath>
    <clipPath id="clip-path-11">
      <rect id="Rectángulo_218322" data-name="Rectángulo 218322" width="11.249" height="10.318" fill="none"/>
    </clipPath>
    <clipPath id="clip-path-12">
      <rect id="Rectángulo_218323" data-name="Rectángulo 218323" width="57.472" height="25.101" fill="none"/>
    </clipPath>
    <clipPath id="clip-path-13">
      <rect id="Rectángulo_218324" data-name="Rectángulo 218324" width="15.959" height="8.295" fill="none"/>
    </clipPath>
  </defs>
  <g id="Grupo_176912" data-name="Grupo 176912" transform="translate(-811.886 -399.863)">
    <g id="Grupo_175369" data-name="Grupo 175369" transform="translate(0 -151)">
      <rect id="BG" width="503.114" height="355.674" transform="translate(811.886 550.863)" fill="#ffdd9d" opacity="0.949"/>
    </g>
    <g id="Grupo_175368" data-name="Grupo 175368" transform="translate(938.15 408.379)">
      <g id="Grupo_175367" data-name="Grupo 175367" clip-path="url(#clip-path)">
        <g id="Grupo_175366" data-name="Grupo 175366">
          <g id="Grupo_175365" data-name="Grupo 175365" clip-path="url(#clip-path)">
            <path id="Trazado_244579" data-name="Trazado 244579" d="M232.439,3.726c-37.2-7.3-73.507-4.966-92.988,16.906-14.23,15.974-14.23,37.655-31,59.82C96.373,96.424,78.266,103.6,64.785,117.645c-18.864,18.726-33.957,35.892-39.347,61.9-7.011,31.211,5.928,60.341,32.877,79.068,11.321,7.8,24.8,13.524,35.047,22.888,7,6.763,11.6,15.511,17.249,23.408,28.668,40.134,110.507,46.3,135.84,2.6,9.171-15.085,15.639-29.13,32.346-37.973,14.013-7.8,29.653-11.444,42.592-21.848,32.34-26.529,46.359-83.75,19.938-119.122-7.542-10.4-18.322-16.646-27.494-25.489C299.822,89.556,295.513,70.829,288.5,53.663c-11.32-27.569-23.776-43.735-56.063-49.937" transform="translate(-5.176 0)" fill="#fdf0d7"/>
            <path id="Trazado_244580" data-name="Trazado 244580" d="M91.745,57.086C77.7,58.126,64.176,66.449,62.616,81.015c-1.041,12.484,2.6,28.091,18.205,26.53,14.045-1.561,24.449-14.566,27.57-27.571,1.561-9.883-4.682-22.888-16.646-22.888" transform="translate(-13.722 -12.543)" fill="#fdf0d7"/>
            <path id="Trazado_244581" data-name="Trazado 244581" d="M380.986,347.087c-10.91-.059-29.65,6.762-31.73,20.287s8.844,21.848,20.287,22.888c14.045,1.04,25.488-2.6,29.131-17.166,2.6-9.884.457-26.068-17.687-26.009" transform="translate(-76.685 -76.265)" fill="#fdf0d7"/>
            <path id="Trazado_244582" data-name="Trazado 244582" d="M409.072,108.4c-9.884,8.843,4.682,27.05,15.605,18.206,11.963-9.363-7.336-27.131-15.605-18.206" transform="translate(-89.164 -23.284)" fill="#fdf0d7"/>
            <path id="Trazado_244583" data-name="Trazado 244583" d="M87.137,368.224c-5.957,11.407,11.154,26.607,20.049,15.027,7.513-10.025-11.951-30.141-20.049-15.027" transform="translate(-18.876 -79.714)" fill="#fdf0d7"/>
            <path id="Trazado_244584" data-name="Trazado 244584" d="M129.24,29.089c-14.369,0-10.855,13.372-2.6,14.565,11.407,1.649,12.484-13.525,2.6-14.565" transform="translate(-26.247 -6.392)" fill="#fdf0d7"/>
            <path id="Trazado_244585" data-name="Trazado 244585" d="M427.3,325.742c-12.667.26-12.484,18.727-1.041,16.645,8.844-1.561,10.924-17.686,1.041-16.645" transform="translate(-91.789 -71.565)" fill="#fdf0d7"/>
            <path id="Trazado_244586" data-name="Trazado 244586" d="M227.1,60.956c.211-.662.449-1.31.7-1.959.362-.954-.524,1.175-.049.119q.253-.562.533-1.112a25.548,25.548,0,0,1,1.94-3.156c.664-.938-.831.989-.092.123.179-.209.353-.421.537-.627q.6-.672,1.252-1.288c.407-.382.841-.727,1.263-1.091-1.518,1.308.058-.018.534-.325q.644-.416,1.318-.779.372-.2.752-.385c.25-.122,1.319-.585.325-.166s-.051.027.184-.061q.391-.147.789-.279.792-.262,1.605-.46.73-.178,1.472-.305c.47-.08,1.628-.133-.331.03.277-.023.553-.065.831-.089a23.656,23.656,0,0,1,3.35-.056c.5.027,1.007.076,1.509.127,1.109.112-1.418-.23-.319-.042.277.048.555.091.832.144a26.006,26.006,0,0,1,3.273.847q.723.239,1.433.52c.1.041.208.085.314.126.731.285-1.275-.57-.565-.236.255.12.514.233.769.354a25.583,25.583,0,0,1,2.871,1.615c.448.292.878.605,1.312.916.538.385-.656-.527-.605-.471a2.77,2.77,0,0,0,.329.262q.359.29.707.595a22.728,22.728,0,0,1,2.3,2.321c.164.191.319.389.481.581.376.448-.909-1.228-.169-.208q.493.679.93,1.4.394.646.74,1.321.192.377.369.761c.048.1.091.207.139.309.329.7-.493-1.252-.238-.562a23.28,23.28,0,0,1,.994,3.3q.081.387.145.779a1.958,1.958,0,0,0,.069.439c.025.055-.171-1.473-.108-.79.055.6.113,1.2.13,1.811s.007,1.184-.026,1.776c-.016.287-.037.573-.065.859-.015.162-.034.321-.052.482-.1,1.014.2-1.29.059-.446a28.212,28.212,0,0,1-.91,3.818c-.208.648-.446,1.284-.691,1.919-.361.943.547-1.227.075-.186q-.22.486-.463.961a23.32,23.32,0,0,1-1.907,3.091c-.638.882.783-.952.169-.222-.172.2-.341.412-.518.613q-.582.66-1.216,1.271c-.418.4-.856.776-1.3,1.148-.78.655.906-.659.328-.25-.279.2-.552.4-.836.594a21.772,21.772,0,0,1-2.8,1.6c-.254.122-.514.23-.769.35,1.669-.782.753-.314.329-.151q-.826.318-1.675.574a24.691,24.691,0,0,1-3.12.722c-.466.077-1.645.137.32-.032-.252.021-.5.059-.755.083q-.84.081-1.685.107a27.352,27.352,0,0,1-3.287-.1c-.28-.025-.559-.06-.838-.088-.728-.075,1.51.231.489.064-.581-.1-1.158-.2-1.733-.321a26.816,26.816,0,0,1-3.127-.885c-.47-.164-.927-.356-1.391-.532,1.912.726.059.006-.455-.252a23.519,23.519,0,0,1-2.795-1.656c-.2-.137-.393-.281-.59-.422-.737-.531,1.1.886.308.238-.412-.338-.817-.684-1.2-1.049q-.55-.517-1.06-1.075-.241-.265-.472-.536c-.085-.1-.168-.2-.253-.306-.574-.684.779,1.061.339.445a20.77,20.77,0,0,1-1.6-2.554c-.123-.238-.236-.479-.351-.72-.439-.922.476,1.222.152.375-.194-.509-.378-1.017-.532-1.539q-.224-.757-.378-1.532c-.05-.249-.09-.5-.133-.749-.073-.422-.012-.95.1.73-.011-.171-.04-.344-.056-.514a19.8,19.8,0,0,1-.012-3.5c.023-.281.073-.564.087-.845-.094,1.87-.092.66-.007.174q.173-.991.429-1.966a29.58,29.58,0,0,1,1.335-3.911,4.972,4.972,0,0,0-.5-3.833,4.973,4.973,0,0,0-6.806-1.784,5.882,5.882,0,0,0-2.286,2.973c-2.286,5.5-3.073,11.877-1.289,17.638a24.5,24.5,0,0,0,9.77,12.855c8.844,6.116,21.116,6.7,30.686,2.04,11.016-5.364,16.862-18.786,14.3-30.6-2.314-10.65-12.122-18.732-22.626-20.584a28.606,28.606,0,0,0-16.816,1.87,25,25,0,0,0-12.02,11.813,36.765,36.765,0,0,0-2,4.965,5.018,5.018,0,0,0,3.475,6.119,5.084,5.084,0,0,0,6.119-3.475" transform="translate(-47.295 -8.607)" fill="#e4508e"/>
            <path id="Trazado_244587" data-name="Trazado 244587" d="M217.381,54.253q-13.224-5.5-26.449-11a4.98,4.98,0,0,0-3.833.5,4.973,4.973,0,0,0-1.784,6.806,5.874,5.874,0,0,0,2.973,2.286l26.45,11a4.978,4.978,0,0,0,3.833-.5,4.973,4.973,0,0,0,1.784-6.806,5.874,5.874,0,0,0-2.973-2.286" transform="translate(-40.573 -9.459)" fill="#e4508e"/>
            <path id="Trazado_244588" data-name="Trazado 244588" d="M201.825,40.315q-4,9.606-7.991,19.211a4.975,4.975,0,0,0,.5,3.833,4.974,4.974,0,0,0,6.806,1.784,5.871,5.871,0,0,0,2.285-2.972q4-9.607,7.992-19.212a4.979,4.979,0,0,0-.5-3.833,4.973,4.973,0,0,0-6.806-1.784,5.873,5.873,0,0,0-2.286,2.973" transform="translate(-42.546 -8.06)" fill="#e4508e"/>
            <path id="Trazado_244589" data-name="Trazado 244589" d="M239.593,80.69c.276.3.539.605.782.919s.5.621.716.944c.451.638.9,1.279,1.306,1.935a43.421,43.421,0,0,1,2.211,4.022A54.369,54.369,0,0,1,247.863,97l.7,2.411-2.267.245-3.406.366c-1.135.124-2.272.229-3.409.336l1.42-2.126c.939,4.288,1.838,8.585,2.665,12.9.395,2.162.809,4.32,1.185,6.487s.741,4.338,1.049,6.524c-.787-2.062-1.513-4.139-2.232-6.219s-1.4-4.169-2.094-6.254c-1.359-4.178-2.647-8.375-3.9-12.583l-.521-1.757,1.943-.369c1.122-.214,2.245-.428,3.368-.625l3.374-.593-1.571,2.655A54.419,54.419,0,0,1,241,89.875a43.458,43.458,0,0,1-1-4.481c-.129-.76-.215-1.537-.3-2.315-.051-.386-.057-.788-.087-1.182s-.029-.8-.02-1.206" transform="translate(-52.087 -17.73)" fill="#fdf0d7"/>
            <path id="Trazado_244590" data-name="Trazado 244590" d="M255.97,17.125q.611,1.533,1.175,3.079c.369,1.032.753,2.061,1.111,3.1.707,2.072,1.426,4.141,2.1,6.223q2.024,6.239,3.807,12.54L264.711,44l-2.106.392c-2.129.4-4.264.751-6.4,1.124l1.617-2.756c.6,1.393,1.181,2.793,1.679,4.224.513,1.425.974,2.87,1.369,4.34s.74,2.959,1,4.481c.136.758.218,1.536.319,2.308.074.782.14,1.567.137,2.377a23.675,23.675,0,0,1-1.469-1.874c-.436-.645-.887-1.284-1.287-1.943-.814-1.312-1.542-2.656-2.214-4.022s-1.286-2.752-1.842-4.161-1.059-2.838-1.532-4.279l-.8-2.454,2.418-.3c2.149-.268,4.295-.556,6.447-.8l-1.553,2.328q-1.381-6.4-2.548-12.856c-.392-2.151-.731-4.315-1.083-6.475-.172-1.081-.318-2.169-.478-3.254s-.293-2.176-.414-3.269" transform="translate(-55.631 -3.763)" fill="#fdf0d7"/>
            <path id="Trazado_244591" data-name="Trazado 244591" d="M261.177,29.258l-3.121-13H264.3Z" transform="translate(-56.702 -3.571)" fill="#e4508e"/>
            <path id="Trazado_244592" data-name="Trazado 244592" d="M268.724,31.736l9.306-16.043,4.8,4Z" transform="translate(-59.047 -3.448)" fill="#e4508e"/>
            <path id="Trazado_244593" data-name="Trazado 244593" d="M235.865,113.587l-7.246,17.275-5.273-3.34Z" transform="translate(-49.075 -24.958)" fill="#e4508e"/>
            <path id="Trazado_244594" data-name="Trazado 244594" d="M245.774,116.92l5.164,12.512-6.164.986Z" transform="translate(-53.784 -25.691)" fill="#e4508e"/>
            <path id="Trazado_244595" data-name="Trazado 244595" d="M192.413,380.96c3.775,5.289,8.836,9.512,15.2,11.244a26.423,26.423,0,0,0,16.25-.877c10.676-4.15,19.009-14.109,18.922-25.928-.051-6.781-2.9-12.97-7.051-18.206a26.365,26.365,0,0,0-14.207-9.362c-10.25-2.456-21.373,1.891-28.1,9.827a28.371,28.371,0,0,0-6.762,14.944,23.757,23.757,0,0,0,3.5,15.324,33.1,33.1,0,0,0,3.024,4.043,5,5,0,0,0,7.034,0,5.1,5.1,0,0,0,0-7.034c-.2-.233-.392-.471-.589-.707-.486-.579.371.482.36.474a2.009,2.009,0,0,1-.267-.357q-.576-.788-1.085-1.621-.433-.712-.811-1.456-.183-.362-.353-.732c-.483-1.057.453,1.16.037.086a18.972,18.972,0,0,1-.912-3.135c-.048-.245-.084-.493-.131-.738-.144-.755.158,1.492.057.4-.051-.55-.091-1.1-.1-1.651q-.012-.728.034-1.456c.044-.715.323-2.125.005-.388a25,25,0,0,1,.694-2.989q.215-.692.478-1.368c.044-.112.091-.224.134-.337.2-.52-.524,1.191-.289.687.115-.247.223-.5.342-.744a23.651,23.651,0,0,1,1.529-2.706c.269-.411.553-.811.843-1.208.647-.889-.774.947-.156.2.177-.214.352-.43.533-.64a26.189,26.189,0,0,1,2.2-2.266q.55-.5,1.127-.975c.1-.079.2-.154.29-.234.538-.447-.61.48-.565.435a5.452,5.452,0,0,1,.751-.552,26.294,26.294,0,0,1,2.688-1.671q.654-.353,1.327-.669a3.57,3.57,0,0,1,.677-.305c.069-.016-1.333.538-.675.286.144-.055.286-.115.43-.17a23.905,23.905,0,0,1,3-.936q.715-.172,1.442-.3c.225-.039,1.241-.182.157-.036-1.1.148.1,0,.343-.023a20.645,20.645,0,0,1,3.036-.042q.37.022.737.058c.123.013.246.029.369.04.662.059-.776-.112-.77-.105.138.183,1.388.251,1.653.313q.736.173,1.459.4c.52.166,2.395,1,.615.172a24.234,24.234,0,0,1,2.991,1.6c.117.075,1.365.961,1.365.96-.015.016-1.052-.846-.5-.382.109.093.222.182.332.275q.42.352.822.724a28.171,28.171,0,0,1,2.6,2.789c.668.808-.74-1.007.045.063q.3.406.584.823.617.9,1.169,1.845.5.856.932,1.746c.14.288.267.581.4.871.272.576-.5-1.264-.182-.428.069.181.142.361.209.542a22.25,22.25,0,0,1,1,3.544c.055.282.1.565.146.848.124.726-.087-.7-.091-.69a1.836,1.836,0,0,0,.056.524q.083.881.091,1.767.006.818-.055,1.634c-.019.269-.05.537-.076.805-.068.725.114-.763.1-.724a4.528,4.528,0,0,0-.1.594,20.629,20.629,0,0,1-.851,3.26q-.13.371-.274.739c-.4,1.018.385-.843.121-.281-.251.534-.5,1.066-.784,1.584a24.507,24.507,0,0,1-1.751,2.725c-.587.8.832-1.034.112-.154q-.249.3-.509.6-.551.63-1.145,1.221-.558.556-1.152,1.077-.334.293-.677.573c-.878.718.9-.657.152-.109a27.449,27.449,0,0,1-2.724,1.777q-.73.411-1.486.773c-.236.113-.478.218-.716.329-.514.239,1.173-.478.645-.27-.152.06-.3.123-.456.183a23.743,23.743,0,0,1-3.184.989q-.762.179-1.536.306c-1.113.183,1.131-.123.353-.041-.325.035-.648.07-.975.094a21.2,21.2,0,0,1-3.332-.014,6.184,6.184,0,0,0-.784-.081c-.048,0,1.45.219.735.1-.13-.023-.261-.041-.391-.063q-.884-.153-1.751-.384-.78-.207-1.54-.478c-.256-.091-.509-.19-.762-.289-.336-.129-.759-.409.62.263-.155-.075-.315-.14-.471-.213a20.723,20.723,0,0,1-3.119-1.814c-.16-.112-1.079-.806-.293-.2s-.132-.119-.281-.246q-.747-.634-1.439-1.33-.721-.724-1.38-1.505c-.118-.14-.886-1.123-.314-.367s-.263-.368-.371-.52a5.366,5.366,0,0,0-2.973-2.286,5.084,5.084,0,0,0-3.833.5c-2.1,1.351-3.4,4.54-1.784,6.806" transform="translate(-40.978 -74.081)" fill="#7aa5ff"/>
            <path id="Trazado_244596" data-name="Trazado 244596" d="M268.285,330.412q-11.96,7.879-23.922,15.759c-2.17,1.429-3.294,4.465-1.784,6.806,1.4,2.166,4.481,3.315,6.806,1.784q11.962-7.878,23.922-15.759c2.17-1.429,3.294-4.464,1.785-6.806-1.4-2.165-4.481-3.315-6.806-1.784" transform="translate(-53.15 -72.447)" fill="#7aa5ff"/>
            <path id="Trazado_244597" data-name="Trazado 244597" d="M279.016,351.795q1.244-6.973,2.489-13.947.179-1.007.359-2.014a5.365,5.365,0,0,0-.5-3.833,5.068,5.068,0,0,0-2.973-2.286c-2.427-.553-5.63.735-6.119,3.474q-1.244,6.973-2.489,13.947-.179,1.008-.36,2.015a5.37,5.37,0,0,0,.5,3.833,5.074,5.074,0,0,0,2.973,2.286c2.427.552,5.63-.736,6.119-3.475" transform="translate(-59.17 -72.42)" fill="#7aa5ff"/>
            <path id="Trazado_244598" data-name="Trazado 244598" d="M256.316,334.587l13.841,3.228,1.945.454c2.529.59,5.506-.784,6.119-3.475a5.052,5.052,0,0,0-3.474-6.119l-13.841-3.228-1.946-.454c-2.529-.589-5.506.784-6.119,3.474a5.052,5.052,0,0,0,3.475,6.119" transform="translate(-55.527 -71.381)" fill="#7aa5ff"/>
            <path id="Trazado_244599" data-name="Trazado 244599" d="M206.953,376.361c.276.3.539.606.783.919s.5.622.716.945c.451.638.9,1.278,1.306,1.935a43.7,43.7,0,0,1,2.211,4.022,54.392,54.392,0,0,1,3.255,8.487l.7,2.409-2.268.246-3.406.365c-1.135.124-2.273.23-3.411.337l1.421-2.127c.938,4.287,1.837,8.585,2.665,12.9.4,2.161.811,4.319,1.187,6.486s.741,4.339,1.049,6.525c-.787-2.062-1.512-4.139-2.232-6.218s-1.4-4.17-2.094-6.255c-1.36-4.178-2.648-8.375-3.9-12.582L204.412,393l1.942-.368c1.123-.214,2.245-.428,3.37-.625l3.374-.593-1.571,2.654a54.332,54.332,0,0,1-3.167-8.519,43.39,43.39,0,0,1-1-4.48c-.129-.76-.215-1.537-.3-2.316-.05-.386-.057-.788-.087-1.181s-.029-.8-.02-1.207" transform="translate(-44.915 -82.697)" fill="#fdf0d7"/>
            <path id="Trazado_244600" data-name="Trazado 244600" d="M223.33,312.8c.408,1.023.8,2.05,1.175,3.08s.754,2.061,1.111,3.1c.707,2.071,1.427,4.141,2.1,6.223q2.024,6.241,3.808,12.54l.552,1.934-2.105.393c-2.129.4-4.265.75-6.4,1.124l1.617-2.757c.6,1.393,1.181,2.793,1.679,4.224.514,1.425.974,2.869,1.369,4.34s.74,2.96,1,4.482c.136.758.219,1.536.319,2.307a23.778,23.778,0,0,1,.137,2.378c-.538-.606-1.007-1.239-1.468-1.874-.436-.645-.888-1.284-1.287-1.943-.813-1.312-1.541-2.657-2.214-4.022s-1.286-2.752-1.842-4.162-1.06-2.837-1.532-4.279l-.8-2.454,2.419-.3c2.149-.268,4.295-.555,6.447-.8l-1.553,2.328c-.921-4.269-1.779-8.551-2.549-12.857-.391-2.15-.73-4.314-1.082-6.475-.173-1.081-.318-2.17-.478-3.254s-.293-2.176-.414-3.27" transform="translate(-48.459 -68.73)" fill="#fdf0d7"/>
            <path id="Trazado_244601" data-name="Trazado 244601" d="M221.348,328.153l-8.436-16.219,5.948-1.893Z" transform="translate(-46.783 -68.125)" fill="#7aa5ff"/>
            <path id="Trazado_244602" data-name="Trazado 244602" d="M232.057,328.882l.628-14.337,6.027,1.623Z" transform="translate(-50.99 -69.115)" fill="#7aa5ff"/>
            <path id="Trazado_244603" data-name="Trazado 244603" d="M205.23,411.92l-6.465,12.426-4.757-4.043Z" transform="translate(-42.629 -90.511)" fill="#7aa5ff"/>
            <path id="Trazado_244604" data-name="Trazado 244604" d="M215.7,413.586l4.925,17.632-6.209.629Z" transform="translate(-47.112 -90.877)" fill="#7aa5ff"/>
            <path id="Trazado_244605" data-name="Trazado 244605" d="M423,227.578c16.645-20.092,6.5-73.931-5.531-80.334-26.9,9.744-94.064,16.259-122.379,10.8l1.445,75.552c24.234-3.572,101.653-8.129,125.912-5.928" transform="translate(-64.84 -32.354)" fill="#7aa5ff"/>
            <path id="Trazado_244606" data-name="Trazado 244606" d="M423.622,228.223c4.064-4.944,6.327-11.1,7.609-17.306a86.088,86.088,0,0,0,1.419-21.766A111.369,111.369,0,0,0,429.5,167.78a59.734,59.734,0,0,0-6.213-16.252,18.609,18.609,0,0,0-3.876-4.81c-.971-.806-1.9-1.571-3.213-1.106-1.329.471-2.67.907-4.018,1.317a185.672,185.672,0,0,1-19.725,4.662A395.988,395.988,0,0,1,343.1,157.5c-8.049.485-16.115.751-24.178.656a159.056,159.056,0,0,1-19.893-1.261q-1.989-.277-3.962-.652a1.483,1.483,0,0,0-1.852,1.411q.071,3.75.143,7.5.173,9.007.345,18.016l.419,21.9q.18,9.423.36,18.847c.059,3.046.006,6.117.176,9.16,0,.043,0,.086,0,.129a1.49,1.49,0,0,0,1.852,1.411c1.461-.215,2.2-.311,3.653-.493q2.3-.286,4.6-.535c3.675-.4,7.356-.755,11.038-1.084,8.924-.8,17.86-1.446,26.8-2.015q14.767-.941,29.553-1.558c9.113-.376,18.232-.66,27.353-.744,6.883-.064,13.794-.076,20.664.406q.93.066,1.86.148c1.875.169,1.864-2.758,0-2.926-6.5-.584-13.064-.6-19.587-.574-8.973.033-17.945.286-26.911.63q-14.785.566-29.553,1.481c-9.194.563-18.383,1.21-27.561,2-6.955.6-13.911,1.247-20.83,2.184q-.929.126-1.858.262l1.852,1.411q-.071-3.75-.144-7.5-.172-9.009-.344-18.016l-.419-21.9q-.18-9.423-.361-18.847l-.119-6.191a26.008,26.008,0,0,0-.056-2.97,1.01,1.01,0,0,1,0-.129l-1.852,1.411a129.374,129.374,0,0,0,20.615,1.938c8.638.246,17.288.027,25.915-.446q13.849-.757,27.633-2.409c8.773-1.046,17.523-2.331,26.2-4.011a165.343,165.343,0,0,0,20.712-5.154q1.048-.348,2.084-.722l-1.127-.147a9.071,9.071,0,0,1,.829.517c.322.223-.1-.1.2.151.166.141.332.283.491.432.282.264.551.542.808.829.137.152.27.307.4.464.08.1.16.2.238.294.194.243-.119-.163.087.114a30.741,30.741,0,0,1,3.126,5.361,72.63,72.63,0,0,1,4.925,15.444c2.641,12.2,3.525,25.349,1.14,37.668-1.148,5.927-3.14,12.059-7.007,16.762a1.507,1.507,0,0,0,0,2.069,1.474,1.474,0,0,0,2.069,0" transform="translate(-64.428 -31.964)" fill="#5c77c9"/>
            <g id="Grupo_175334" data-name="Grupo 175334" transform="translate(228.786 124.252)" opacity="0.2">
              <g id="Grupo_175333" data-name="Grupo 175333">
                <g id="Grupo_175332" data-name="Grupo 175332" clip-path="url(#clip-path-3)">
                  <path id="Trazado_244607" data-name="Trazado 244607" d="M397.763,209c-5.185-1.981-9.561-5.059-14.264-7.892-3.188-1.92-6.4-3.8-9.577-5.737-5.555-3.382-36.07-21.2-35.6-32.7-17.051.806-32.789.425-43.238-1.588l1.445,75.552c24.234-3.572,101.653-8.129,125.912-5.928l.553-.093c4-4.834,6.454-11.623,7.705-19.231-11.084,1.681-22.4,1.642-32.941-2.385" transform="translate(-293.626 -159.648)" fill="#5c77c9"/>
                  <path id="Trazado_244608" data-name="Trazado 244608" d="M397.741,207.188a62.138,62.138,0,0,1-10.211-5.458c-3.521-2.19-7.088-4.3-10.644-6.432-3.083-1.848-6.163-3.7-9.2-5.618-8.026-5.059-16.177-10.5-22.745-17.408a28.309,28.309,0,0,1-4.135-5.322,10.659,10.659,0,0,1-1.1-2.437,5.371,5.371,0,0,1-.323-2.242,1.476,1.476,0,0,0-1.463-1.463,238.876,238.876,0,0,1-35.264-.455c-2.542-.259-5.075-.6-7.586-1.081a1.482,1.482,0,0,0-1.852,1.411q.071,3.75.144,7.5.172,9.007.344,18.016l.419,21.9q.18,9.423.36,18.847c.058,3.046.006,6.117.175,9.16,0,.043,0,.086,0,.129a1.49,1.49,0,0,0,1.852,1.411c1.612-.237,2.566-.36,4.249-.566q2.687-.328,5.38-.61c4.266-.453,8.539-.847,12.814-1.21,10.429-.888,20.873-1.6,31.322-2.208q16.486-.956,32.994-1.493c9.368-.29,18.748-.486,28.12-.3,3.343.068,6.69.179,10.023.456a4.354,4.354,0,0,0,1.2-.031,2.6,2.6,0,0,0,1.647-1.245,29.6,29.6,0,0,0,2.626-4.045,43.281,43.281,0,0,0,3.706-9.728c.451-1.747.809-3.516,1.106-5.295a1.489,1.489,0,0,0-1.8-1.8c-10.758,1.613-21.881,1.5-32.163-2.385-1.763-.666-2.526,2.161-.778,2.821,10.785,4.075,22.453,4.075,33.719,2.385l-1.8-1.8a53.917,53.917,0,0,1-2.708,10.364,33.509,33.509,0,0,1-2.1,4.48q-.572,1.017-1.223,1.987-.28.417-.575.822a5.041,5.041,0,0,0-.313.419c-.428.744.14-.021.175.148.025.123-.8-.046-.229.02-.165-.019-.332-.029-.5-.043q-.552-.046-1.106-.085-1.122-.08-2.246-.139c-1.728-.091-3.457-.153-5.186-.2-9.064-.234-18.141-.066-27.2.191-10.872.308-21.739.8-32.6,1.406q-15.714.88-31.4,2.14c-7.971.654-15.947,1.361-23.875,2.429q-1.031.139-2.061.289l1.852,1.411q-.071-3.75-.144-7.5-.172-9.009-.344-18.016l-.419-21.9q-.18-9.423-.361-18.847l-.118-6.191a26.184,26.184,0,0,0-.057-2.97,1.174,1.174,0,0,1,0-.129l-1.852,1.411c10.659,2.033,21.7,2.168,32.518,2q5.557-.088,11.11-.357l-1.463-1.463c-.122,3.872,2.376,7.4,4.757,10.225a70.934,70.934,0,0,0,11.14,10.152,222.4,222.4,0,0,0,20.392,13.566c4.085,2.481,8.224,4.874,12.282,7.4a72.266,72.266,0,0,0,11.94,6.4,1.476,1.476,0,0,0,1.8-1.022,1.5,1.5,0,0,0-1.022-1.8" transform="translate(-293.214 -159.242)" fill="#5c77c9"/>
                </g>
              </g>
            </g>
            <path id="Trazado_244609" data-name="Trazado 244609" d="M163.57,156.476c-8.793-26.576-76.676-27.1-66.843-1.561,2.508,6.513,7.282,9.883,2.6,17.166C96.207,177.8,88.4,180.923,83.2,183.525c-13,7.8-26.529,17.687-33.291,31.211-3.121,5.2-6.763,13.525-.52,17.687,6.242,4.682,14.045-1.561,17.686-6.242,1.04,4.16-1.561,8.842,2.6,11.963,3.121,3.121,9.363,1.561,11.964-.52C78,252.71,95.687,256.87,106.091,249.589c1.04,14.045,15.605,15.084,26.009,10.924,11.964-4.682,33.031-13.006,42.394-20.808,15.086-13,18.467-26.008,20.026-46.816" transform="translate(-10.103 -29.915)" fill="#7aa5ff"/>
            <path id="Trazado_244610" data-name="Trazado 244610" d="M6.414,215.188c-10.4-24.611-1.821-57.335,15.345-75.661l.348-.372c50.46,11.94,105.345,23.341,157.126,12.928,11.962-2.406,23.584-6.209,35.518-8.716,11.652-2.449,30.391-4.254,41.752.254,38.94,15.452,1.383,9-3.405,22.624,15.541,6.969,43.226,25.133,54.962,37.321,5.364,5.57,21.3,16.2,14.032,26.487-8.318,11.774-26.459.777-34.054-4.229,6.815,11.094-4.694,23.267-18.4,17.849,6.489,11.112-8.141,26.624-20.563,14.091,2.4,21.074-21,29.313-66-7.665-16.385-13.464-25.128-18.116-48.569-22.638-42.561-8.212-86.354-3.347-127.539-12.053" transform="translate(-0.416 -30.576)" fill="#ff8eb9"/>
            <path id="Trazado_244611" data-name="Trazado 244611" d="M7.408,214.389c-8.222-19.691-4.565-43.245,5.718-61.475a68.336,68.336,0,0,1,9.6-13.135l-1.423.376C44.461,145.633,67.735,150.8,91.335,154c23.433,3.174,47.253,4.451,70.8,1.753a243.576,243.576,0,0,0,34.837-6.987c10.223-2.714,20.438-5.4,31-6.383,9.1-.844,19.061-1.124,27.724,2.242a112,112,0,0,1,12.516,5.542A19.474,19.474,0,0,1,271.178,152a7.55,7.55,0,0,1,.835.8c-.179-.194.02.079.078.14.156.16-.084.088.036.1-.062-.006.022-.286.036-.282a.961.961,0,0,1-.2.228,16.754,16.754,0,0,1-1.494.785c-1.847.754-3.791,1.273-5.684,1.895-4.246,1.392-8.957,3.1-11.82,6.725a10.911,10.911,0,0,0-1.7,3.059,1.463,1.463,0,0,0,.673,1.653,187.128,187.128,0,0,1,23.982,13.468,221.927,221.927,0,0,1,24.33,17.716c2.9,2.476,5.508,5.224,8.317,7.789a108.016,108.016,0,0,1,8.91,8.544c2.467,2.833,5.144,6.628,4.519,10.607-.64,4.071-4.323,7.177-8.215,7.97-4.59.934-9.565-.684-13.736-2.5a78.249,78.249,0,0,1-11.69-6.543c-1.245-.819-2.728.782-2,2,2.633,4.426,2.371,9.776-1.405,13.47-4.123,4.032-10.211,4.188-15.343,2.23-1.248-.476-2.233,1.118-1.652,2.15a11.29,11.29,0,0,1-2.833,14.029c-4.927,4.217-11.157,2.5-15.432-1.71-.827-.815-2.642-.283-2.5,1.035.42,3.821.112,7.856-2.019,11.12a12.518,12.518,0,0,1-8.926,5.165c-5.376.768-10.962-.625-16-2.41-8.212-2.911-15.84-7.437-23-12.34-8.375-5.732-15.87-12.591-24.163-18.422A77.621,77.621,0,0,0,152.9,230.206c-9.64-3.209-19.8-5.041-29.839-6.471-11.948-1.7-23.989-2.6-36.037-3.218-23.8-1.223-47.781-1.354-71.347-5.284q-4.387-.732-8.738-1.646c-1.838-.385-2.623,2.434-.778,2.821,23.8,4.992,48.188,5.57,72.4,6.635,23.408,1.03,47.377,2.314,70.008,8.879a75.5,75.5,0,0,1,21.1,9.734c8.415,5.624,15.864,12.547,24.131,18.382a112.433,112.433,0,0,0,23.847,13.33c5.509,2.139,11.591,3.791,17.555,3.31,4.125-.332,8.26-1.76,11.1-4.9a16.865,16.865,0,0,0,3.993-11.124,25.561,25.561,0,0,0-.164-3.305l-2.5,1.035c2.791,2.75,6.237,4.826,10.223,5.067a13.154,13.154,0,0,0,9.089-3.139,14.236,14.236,0,0,0,3.549-17.793l-1.653,2.149c6.212,2.37,13.646,1.718,18.445-3.238,4.479-4.626,4.836-11.335,1.608-16.76l-2,2c7.082,4.658,15.513,9.693,24.26,9.679a13.983,13.983,0,0,0,11.323-5.343,11.471,11.471,0,0,0,1.427-11.921c-1.781-4.164-5.076-7.573-8.331-10.633-2.928-2.752-5.888-5.451-8.786-8.234-7.313-7.022-15.665-13.033-24.056-18.687-9.328-6.285-19.027-12.336-29.3-16.966l.672,1.652c1.515-4.139,6.464-6.027,10.279-7.342,2.015-.694,4.072-1.266,6.076-1.992,1.426-.516,3.206-1.113,4.1-2.439,2.6-3.865-5.191-7.045-7.5-8.144a87.612,87.612,0,0,0-13.487-5.486A55.682,55.682,0,0,0,239.739,139a117.882,117.882,0,0,0-28.772,3.194c-12.058,2.743-23.857,6.518-36.036,8.733-23.892,4.346-48.418,4.083-72.493,1.5-24.217-2.6-48.109-7.592-71.814-13.089q-4.274-.991-8.545-2a1.478,1.478,0,0,0-1.424.376C6.085,153.3-1.6,175.988.281,197.236a60.267,60.267,0,0,0,4.306,17.931c.715,1.712,3.547.961,2.821-.778" transform="translate(0 -30.166)" fill="#e4508e"/>
            <g id="Grupo_175337" data-name="Grupo 175337" transform="translate(1.375 124.434)" opacity="0.28">
              <g id="Grupo_175336" data-name="Grupo 175336">
                <g id="Grupo_175335" data-name="Grupo 175335" clip-path="url(#clip-path-4)">
                  <path id="Trazado_244612" data-name="Trazado 244612" d="M193.383,260.436c-14.615-13.594-25.618-14.819-28.126-27.666-2.112-10.817-.163-16.638-10.055-17.668-10.18-1.059-16.782,19.7-25.548,9.363-19.025-22.425-41.7-28.841-59.393-21.376-9.909,4.183-15.8,5.638-25.289,8.6-13.216,4.12-30.126,7.128-42.774-1.036,1.09,13.256,1.017,17.666,13.7,19.759a337.813,337.813,0,0,0,36.086,3.657c24.5,1.38,49.136,1.437,73.452,5.1,16.929,2.551,33.479,6.354,47.671,16.334,16.178,11.379,30.626,25.694,50.1,31.432-7.673-4.52-10.967-8.42-18.509-15.442-3.406-3.171-5.38-5.988-11.314-11.053" transform="translate(-1.858 -168.406)" fill="#e4508e"/>
                  <path id="Trazado_244613" data-name="Trazado 244613" d="M194,258.99a110.24,110.24,0,0,0-11.863-9.438c-3.084-2.152-6.31-4.16-9.185-6.595a19.308,19.308,0,0,1-5.569-7.129c-1.436-3.416-1.709-7.26-2.185-10.9-.35-2.679-.644-5.668-2.279-7.925-1.841-2.544-4.853-3.4-7.842-3.745-5.9-.672-10.318,4.449-14.17,8.119-1.64,1.562-3.566,3.439-5.686,3.982a3.518,3.518,0,0,1-2.467-.241,12.389,12.389,0,0,1-3.539-3.325,76.243,76.243,0,0,0-21.907-17.684A49.581,49.581,0,0,0,84.8,198.244a40.267,40.267,0,0,0-10.585,1.383c-4.256,1.155-8.253,3.144-12.395,4.639-4.208,1.518-8.489,2.808-12.77,4.1-4.422,1.338-8.813,2.762-13.323,3.783-8.858,2-18.46,2.838-27.181-.221a29.208,29.208,0,0,1-6.023-2.956,1.472,1.472,0,0,0-2.2,1.263c.247,3.02.442,6.053.911,9.049a16.156,16.156,0,0,0,2,6.111c2.822,4.5,8.51,5.484,13.35,6.251,19.015,3.012,38.285,3.7,57.49,4.5,18.932.8,37.9,1.742,56.6,4.989a132.147,132.147,0,0,1,24.331,6.309,89.046,89.046,0,0,1,21.61,12.285c12.818,9.542,25.049,20.276,40.089,26.23q2.805,1.11,5.7,1.967a1.47,1.47,0,0,0,1.127-2.674c-5.91-3.5-10.725-8.112-15.672-12.82C203.2,268,198.9,263.182,194,258.99c-1.422-1.22-3.5.841-2.069,2.069a98.19,98.19,0,0,1,7.427,7.1c2.164,2.286,4.428,4.439,6.706,6.611,5.027,4.792,9.977,9.451,15.985,13.012q.563-1.338,1.127-2.674c-15.324-4.562-27.864-14.735-40.342-24.306-6.447-4.945-12.923-9.8-20.294-13.3a107.973,107.973,0,0,0-23.612-7.736c-17.879-3.862-36.233-5.2-54.464-6.078-18.941-.912-37.939-1.275-56.793-3.457-4.428-.513-8.888-1.05-13.265-1.909A17.818,17.818,0,0,1,7.655,225.9a7.624,7.624,0,0,1-2.818-3.972,31.493,31.493,0,0,1-1.2-7.021c-.143-1.555-.263-3.113-.39-4.669l-2.2,1.263c16.348,10.412,36.542,3.484,53.381-1.709,4.425-1.364,8.8-2.86,13.1-4.586a53.352,53.352,0,0,1,11.1-3.553,42.043,42.043,0,0,1,21.592,2.472c8.338,3.127,15.762,8.446,22.1,14.635q2.8,2.738,5.363,5.713a12.484,12.484,0,0,0,3.521,3.133,7.149,7.149,0,0,0,6.985-.331c4.767-2.661,7.672-7.786,12.551-10.293a8.943,8.943,0,0,1,7.6-.005c2.239.951,3.02,2.872,3.5,5.175.723,3.5.9,7.089,1.6,10.6a20.482,20.482,0,0,0,4.212,9.034,37.55,37.55,0,0,0,7.771,6.677c3.507,2.461,7.092,4.807,10.47,7.446q3.134,2.448,6.049,5.155c1.38,1.277,3.455-.786,2.069-2.069" transform="translate(-1.445 -167.994)" fill="#e4508e"/>
                  <path id="Trazado_244614" data-name="Trazado 244614" d="M341.457,159.913c-.037,0-2.838.211-2.875.211-4.98-.057-6.848-.371-11.83-.244-2.52.064-5.446.186-7.648,1.573-2.721,1.711-4.353,6.225-2.853,9.079,3.034,5.778,8.225,5.711,13.911,7.192,3.126.814,6.229,1.712,9.316,2.664a172,172,0,0,0-17.433-9.327c2.384-6.739,14.734-9.014,19.412-11.148" transform="translate(-70.739 -159.557)" fill="#e4508e"/>
                  <path id="Trazado_244615" data-name="Trazado 244615" d="M341.042,158.036c-1.021.06-2.041.194-3.063.208-2.171.03-4.35-.142-6.52-.218-2.326-.081-4.668-.094-6.991.049a13.189,13.189,0,0,0-6.715,1.83c-3.156,2.181-4.958,6.9-3.379,10.523,1.61,3.7,5.033,5.843,8.792,6.866,2.164.588,4.382.953,6.551,1.522,3,.787,5.987,1.657,8.955,2.569a1.47,1.47,0,0,0,1.128-2.674,166.8,166.8,0,0,0-17.433-9.327l.673,1.653c1.247-3.376,5.282-5.244,8.372-6.507,3.4-1.39,7.015-2.259,10.368-3.767a1.475,1.475,0,0,0,.525-2,1.5,1.5,0,0,0-2-.525c-.461.207-1.287.513-1.973.753-.9.314-1.806.611-2.709.914-2.1.7-4.181,1.441-6.213,2.32-3.782,1.637-7.693,3.983-9.191,8.036a1.462,1.462,0,0,0,.673,1.652,166.946,166.946,0,0,1,17.433,9.327q.563-1.337,1.127-2.674c-4.3-1.323-8.617-2.555-13.015-3.5-3.136-.676-6.391-1.473-8.413-4.182a5.266,5.266,0,0,1-1.173-4.459,6.612,6.612,0,0,1,2.379-3.986c1.659-1.2,3.9-1.377,5.872-1.464,2.073-.091,4.152-.091,6.226-.021,2.155.073,4.307.194,6.464.22,1.085.014,2.169-.141,3.251-.205,1.871-.11,1.884-3.037,0-2.926" transform="translate(-70.325 -159.143)" fill="#e4508e"/>
                  <path id="Trazado_244616" data-name="Trazado 244616" d="M344.662,270.279c8.539,2.487,14.522-1.024,17.788-7.224-2.307,2.266-5.346,4.249-9.373,3.794-2.91-.328-6.32.008-8.353-2.007-2.207-2.187-3.385-7.079-6.774-6.113-1.423.407-2.621,1.183-2.573,2.975.041,1.572,7.09,7.1,9.285,8.574" transform="translate(-75.067 -181.257)" fill="#e4508e"/>
                  <path id="Trazado_244617" data-name="Trazado 244617" d="M343.86,271.279a17.335,17.335,0,0,0,11.889-.453,16.416,16.416,0,0,0,7.551-7.442,1.47,1.47,0,0,0-2.3-1.774,12.1,12.1,0,0,1-4.6,3.014c-1.96.631-3.9.311-5.911.187-1.716-.1-3.83-.135-5.145-1.414a21.674,21.674,0,0,1-2.459-3.575,6.6,6.6,0,0,0-3.376-2.931,5.272,5.272,0,0,0-4.682,1.212,3.788,3.788,0,0,0-1.014,4.331,10.529,10.529,0,0,0,2.2,2.636,55.988,55.988,0,0,0,7.494,6.062c1.565,1.056,3.031-1.478,1.477-2.526a54.837,54.837,0,0,1-5.936-4.707c-.478-.431-.95-.87-1.4-1.328-.305-.309-.844-.894-.957-1.049s-.186-.339-.3-.471c-.078-.086,0,.285.039.1a1.388,1.388,0,0,1,.943-1.234c1.138-.5,1.812-.129,2.565.8.876,1.078,1.476,2.361,2.294,3.483a7.531,7.531,0,0,0,4.026,2.964,25.1,25.1,0,0,0,5.406.652,13.428,13.428,0,0,0,6.33-.667,16.056,16.056,0,0,0,5.08-3.466l-2.3-1.773a13.782,13.782,0,0,1-6.284,6.294c-3.117,1.418-6.635,1.17-9.852.257a1.464,1.464,0,0,0-.778,2.821" transform="translate(-74.654 -180.846)" fill="#e4508e"/>
                  <path id="Trazado_244618" data-name="Trazado 244618" d="M328.455,289.332c-5.017-.6-5.276-1.639-7.779-4.8-1.359-1.717-1.248-3.586-3.457-3.557-1.157.016-2.972.19-3.057,1.71-.2,3.589,1.9,4.833,3.676,7.908-.025-.651-.073-1.316-.153-2,7.256,7.271,15.255,5.034,19.369-.279-2.373.336-6.286,1.288-8.6,1.014" transform="translate(-70.403 -186.173)" fill="#e4508e"/>
                  <path id="Trazado_244619" data-name="Trazado 244619" d="M328.039,287.456c-1.6-.2-3.35-.507-4.417-1.533a16.558,16.558,0,0,1-3.142-4.3,4.519,4.519,0,0,0-1.882-2.134,5.341,5.341,0,0,0-3.3-.252,3.689,3.689,0,0,0-2.558,1.507,5.067,5.067,0,0,0-.329,3.536c.451,2.587,2.457,4.459,3.744,6.641a1.474,1.474,0,0,0,2.726-.739q-.044-1-.153-2l-2.5,1.034c3.151,3.1,7.345,5.427,11.9,5.009a13.835,13.835,0,0,0,9.541-5.287,1.478,1.478,0,0,0-1.423-2.445c-2.7.395-5.466,1.234-8.211.961a1.474,1.474,0,0,0-1.463,1.463,1.5,1.5,0,0,0,1.463,1.463c2.993.3,6.048-.635,8.989-1.066l-1.423-2.445a11.131,11.131,0,0,1-7.473,4.43c-3.806.382-7.2-1.56-9.828-4.151-.827-.815-2.641-.283-2.5,1.035q.109,1,.153,2l2.726-.738c-1.167-1.978-3.3-3.84-3.477-6.246a2.228,2.228,0,0,1,.03-.971c-.158.279-.033.055.1.019a4.788,4.788,0,0,1,1.085-.206c1.121-.055,1.2.43,1.694,1.376a19.6,19.6,0,0,0,2.059,2.957,12.53,12.53,0,0,0,1.684,1.893c1.745,1.494,3.973,1.844,6.184,2.117a1.471,1.471,0,0,0,1.463-1.463,1.5,1.5,0,0,0-1.463-1.463" transform="translate(-69.987 -185.76)" fill="#e4508e"/>
                  <path id="Trazado_244620" data-name="Trazado 244620" d="M364.249,244.723c7.6,4.974,25.736,15.9,34.055,4.2a9.261,9.261,0,0,0,1.438-8.357c-2.019,2.669-5.006,5.545-8.232,6.375-3.923,1.009-9.1,2.341-18.579-5.335-2.688-2.178-5.052-8.714-7.214-11.419-.69-.862-1.992-4.148-3.179-4.455-.988-.254-.584,2.373-1.02,3.226-1.609,3.158-4.731,3.548-7.937,3.369-1.641-.091-5.049-.942-4.835.978.19,1.711,14.206,10.369,15.5,11.416" transform="translate(-78.003 -174.03)" fill="#e4508e"/>
                  <path id="Trazado_244621" data-name="Trazado 244621" d="M363.093,245.572a68.374,68.374,0,0,0,15.928,8.136c5.852,1.915,12.674,2.46,17.686-1.743a11.729,11.729,0,0,0,4.029-12.2,1.484,1.484,0,0,0-2.674-.35,18.921,18.921,0,0,1-4.676,4.479,12.4,12.4,0,0,1-4.116,1.576,13.326,13.326,0,0,1-6.574-.119,19.96,19.96,0,0,1-4.707-2.086,22.091,22.091,0,0,1-5.166-3.8c-2.387-2.625-3.56-6.245-5.425-9.225-.782-1.248-1.456-2.291-2.239-3.638-.716-1.232-1.944-3.178-3.665-2.693s-1.418,2.491-1.667,3.813c-.254,1.342-2.108,2.37-3.588,2.635a17.231,17.231,0,0,1-4.82-.088c-1.416-.147-3.334-.232-4.2,1.16-1.292,2.083.995,3.761,2.425,4.885,2.523,1.983,5.2,3.769,7.874,5.542,1.175.779,2.354,1.55,3.531,2.327.425.281.85.561,1.273.847.148.1.295.2.443.305.122.083.5.386.03.012a1.511,1.511,0,0,0,2.068,0,1.472,1.472,0,0,0,0-2.069c-1.359-1.077-2.874-1.973-4.32-2.924-2.3-1.518-4.607-3.042-6.852-4.647-.95-.678-1.8-1.3-2.647-2-.318-.264-.633-.532-.929-.821-.122-.119-.232-.248-.354-.367-.279-.272.1.234-.072-.1-.1-.2.1.218.089.3-.017.151-.261.378-.25.447.016.1-.4-.1.085-.014s1.317-.008,1.909.055a19.735,19.735,0,0,0,4.98.052,7.665,7.665,0,0,0,5.02-2.7,5.105,5.105,0,0,0,1.178-2.425c.07-.47.087-.942.143-1.412.045-.394.025-.263.017-.2.074-.689.172.1-.481.189h-.778c.289.04.024.019-.006-.061.024.062.2.193.258.256a6.267,6.267,0,0,1,.593.861c.43.7.79,1.448,1.208,2.161.762,1.3,1.663,2.494,2.381,3.83,1.78,3.308,3.3,6.819,6.334,9.175,3.067,2.382,6.509,4.579,10.349,5.441a16.542,16.542,0,0,0,7.324-.085,14.617,14.617,0,0,0,5.078-2.044,23.538,23.538,0,0,0,5.463-5.356l-2.674-.35c.99,3.586-.421,6.912-3.188,9.28a11.024,11.024,0,0,1-6.923,2.437c-5.644.15-11.212-2.313-16.087-4.924-2.45-1.313-4.821-2.767-7.146-4.288-1.581-1.034-3.049,1.5-1.477,2.527" transform="translate(-77.586 -173.616)" fill="#e4508e"/>
                </g>
              </g>
            </g>
            <path id="Trazado_244622" data-name="Trazado 244622" d="M121.75,239.153c3.056-5.4,11.47-17.374,8.174-22.938-5.835-13.448-21.931,2.408-25.753,8.2-5.741,7.725-11.014,18.726-14.31,27.971-5.468,15.332,15.9,25.72,24.889,13.938" transform="translate(-19.551 -46.351)" fill="#7aa5ff"/>
            <path id="Trazado_244623" data-name="Trazado 244623" d="M122.6,239.488c2.288-4.026,4.87-7.876,6.792-12.1a24.868,24.868,0,0,0,2.182-6.691,10.967,10.967,0,0,0,.021-3.3,10.171,10.171,0,0,0-1.027-2.776c-1.829-3.847-5.338-6.038-9.605-5.4-4.076.611-7.747,3.2-10.833,5.786C102.409,221.48,97.247,230.6,93.008,239.6q-2.1,4.455-3.877,9.054a24.547,24.547,0,0,0-2.007,7.491,14.768,14.768,0,0,0,4.308,11.042c5.622,5.749,15.316,7.267,21.761,2.025a13.741,13.741,0,0,0,2.18-2.256,1.515,1.515,0,0,0,0-2.069,1.471,1.471,0,0,0-2.069,0,11.642,11.642,0,0,1-8.789,4.643,14.827,14.827,0,0,1-9.5-3.06A12.379,12.379,0,0,1,90.1,258.2a13.063,13.063,0,0,1,.723-5.716c.955-2.769,2.066-5.495,3.244-8.176a111.062,111.062,0,0,1,8.569-16.119,49.218,49.218,0,0,1,6.83-8.614A30.632,30.632,0,0,1,118.7,212.9c2.878-1.214,5.865-1.434,7.99,1.018a8.541,8.541,0,0,1,2.093,4.413,13.613,13.613,0,0,1-1.107,5.621c-1.561,4.2-4,8.04-6.3,11.859-.439.728-.876,1.457-1.3,2.2a1.464,1.464,0,0,0,2.527,1.477" transform="translate(-19.139 -45.948)" fill="#5c77c9"/>
            <g id="Grupo_175340" data-name="Grupo 175340" transform="translate(67.965 181.237)" opacity="0.2">
              <g id="Grupo_175339" data-name="Grupo 175339">
                <g id="Grupo_175338" data-name="Grupo 175338" clip-path="url(#clip-path-5)">
                  <path id="Trazado_244624" data-name="Trazado 244624" d="M115.436,266.755c-2.654,2.458-6.317,3.837-9.854,2.413a11.763,11.763,0,0,1-6.855-7.5c-1.268-4.338-.112-8.825,1.173-13.019,1.489-4.86,2.775-9.572,1.129-14.534a124.667,124.667,0,0,0-11.168,23.358c-5.468,15.332,15.9,25.719,24.889,13.938l1.188-4.608c-.168-.012-.335-.029-.5-.048" transform="translate(-87.516 -232.679)" fill="#5c77c9"/>
                  <path id="Trazado_244625" data-name="Trazado 244625" d="M113.99,265.316c-2.061,1.863-4.86,3.107-7.649,2.3A10.067,10.067,0,0,1,100.647,263c-3.4-5.861.044-12.7,1.439-18.611a20.594,20.594,0,0,0-.058-11.073,1.482,1.482,0,0,0-2.674-.35,121.5,121.5,0,0,0-9.828,19.756,27.8,27.8,0,0,0-2.4,8.4,14.274,14.274,0,0,0,1.2,6.591c3.449,7.923,13.712,12.043,21.64,8.579a13.94,13.94,0,0,0,3.147-1.934,8.284,8.284,0,0,0,2.637-2.969,47.479,47.479,0,0,0,1.185-4.6,1.486,1.486,0,0,0-1.411-1.852q-.25-.019-.5-.048a1.472,1.472,0,0,0-1.463,1.463,1.5,1.5,0,0,0,1.463,1.463q.25.029.5.048l-1.411-1.852-1.075,4.174a2,2,0,0,0-.073.282c-.04.4-.207-.325.2-.323-.162,0-.9,1.037-1.059,1.191a11.1,11.1,0,0,1-2.239,1.735,12.724,12.724,0,0,1-10.346.843,14.171,14.171,0,0,1-8.219-6.721,11.262,11.262,0,0,1-1.277-5.231,19.462,19.462,0,0,1,1.72-6.916,118.055,118.055,0,0,1,10.131-20.6l-2.674-.35c2.363,7.441-2.254,14.367-2.843,21.7a14.554,14.554,0,0,0,2.29,9.524,12.9,12.9,0,0,0,7.222,5.206c3.745.913,7.42-.643,10.183-3.14,1.4-1.266-.675-3.329-2.069-2.069" transform="translate(-87.104 -232.274)" fill="#5c77c9"/>
                </g>
              </g>
            </g>
            <g id="Grupo_175343" data-name="Grupo 175343" transform="translate(95.525 169.195)" opacity="0.2">
              <g id="Grupo_175342" data-name="Grupo 175342">
                <g id="Grupo_175341" data-name="Grupo 175341" clip-path="url(#clip-path-6)">
                  <path id="Trazado_244626" data-name="Trazado 244626" d="M133.021,218.866c-1.33-.836-5.346-3.118-6.759-1.4-.017.055.049-.05,0,0-1.434,1.465-3.127,3.313-3.638,5.361-.438,1.751-.249,4.251,1.6,5.19a6.8,6.8,0,0,0,7.74-1.4,10.575,10.575,0,0,0,2.66-5.162c.2-1.446-.5-1.9-1.6-2.589" transform="translate(-122.426 -216.841)" fill="#fffefa"/>
                </g>
              </g>
            </g>
            <path id="Trazado_244627" data-name="Trazado 244627" d="M125.005,218.756c-2.018,2.975-4.476,8.618.436,9.83,4.267.9,7.673-2.97,8.927-6.709-.136,4.665-4.274,9.291-9.273,8.23-6.162-1.728-3.883-8.339-.091-11.351" transform="translate(-26.647 -48.067)" fill="#5c77c9"/>
            <path id="Trazado_244628" data-name="Trazado 244628" d="M190.514,258.782c-10.528,12.245-45.729,27.212-61.34,22.086-15.035-4.936-9.754-25.414-4.024-35.062,3.624-7.136,18.959-25.676,28.428-17.441,10.623,8.613-4.712,22.153-10.271,27.377" transform="translate(-26.229 -49.724)" fill="#7aa5ff"/>
            <path id="Trazado_244629" data-name="Trazado 244629" d="M189.064,257.346c-3.566,4.118-8.262,7.224-12.935,9.94a105.952,105.952,0,0,1-18.386,8.413,72.6,72.6,0,0,1-18.715,4.239c-4.944.34-10.629.048-14.494-3.5-3.936-3.611-4.482-9.287-3.943-14.31a40.613,40.613,0,0,1,4.968-15.23,54.185,54.185,0,0,1,9.153-12.155c3.506-3.476,8.45-7.732,13.659-7.365a8.342,8.342,0,0,1,5.881,3.894,7.881,7.881,0,0,1,.538,6.922c-1.809,5.47-6.429,9.942-10.5,13.818-.807.769-1.624,1.526-2.438,2.289-1.376,1.291.7,3.358,2.069,2.069,4.359-4.092,8.877-8.267,11.9-13.492,1.488-2.57,2.679-5.589,2.424-8.613a11.119,11.119,0,0,0-4.814-7.947c-4.938-3.683-11.163-1.257-15.632,1.957a51.475,51.475,0,0,0-12.636,13.514,48.528,48.528,0,0,0-6.467,14.583c-1.466,5.751-1.994,12.239.576,17.761,5.673,12.189,22.679,9.17,32.963,6.344a109.018,109.018,0,0,0,20.428-7.986,71.991,71.991,0,0,0,15.856-10.431,31.041,31.041,0,0,0,2.608-2.648c1.227-1.418-.834-3.5-2.069-2.069" transform="translate(-25.813 -49.323)" fill="#5c77c9"/>
            <g id="Grupo_175346" data-name="Grupo 175346" transform="translate(91.686 208.999)" opacity="0.2">
              <g id="Grupo_175345" data-name="Grupo 175345">
                <g id="Grupo_175344" data-name="Grupo 175344" clip-path="url(#clip-path-7)">
                  <path id="Trazado_244630" data-name="Trazado 244630" d="M172.591,274.341c-4.489,1.06-8.492,3.4-12.709,5.192a45.225,45.225,0,0,1-20.214,3.348c-5.218-.271-11.267-1.032-15.538-4.331a10.621,10.621,0,0,1-4.242-8.851c-1.529,8.688.006,17.657,9.287,20.7,13.644,4.48,41.5-6.582,55.467-16.925a49.586,49.586,0,0,0-12.051.862" transform="translate(-117.915 -268.259)" fill="#5c77c9"/>
                  <path id="Trazado_244631" data-name="Trazado 244631" d="M171.791,272.525c-4.025.983-7.7,2.92-11.446,4.627a43.376,43.376,0,0,1-11.7,3.478,51.069,51.069,0,0,1-11.8.219,26.365,26.365,0,0,1-10.342-2.64,9.888,9.888,0,0,1-5.564-8.915c-.007-1.592-2.585-2.061-2.874-.389-.939,5.453-.986,11.617,2.141,16.429,3.034,4.67,8.3,6.686,13.664,7.073a51.6,51.6,0,0,0,16.305-1.945,107.385,107.385,0,0,0,17.758-6.38,94.329,94.329,0,0,0,17.035-9.745,1.476,1.476,0,0,0-.738-2.726,52.594,52.594,0,0,0-12.441.914c-1.835.419-1.058,3.241.778,2.822a49.32,49.32,0,0,1,11.663-.81q-.37-1.363-.739-2.726a100.525,100.525,0,0,1-30.477,14.821,61.144,61.144,0,0,1-15.916,2.914c-4.533.12-9.507-.552-12.883-3.881-4.151-4.093-4.256-10.6-3.329-15.982l-2.874-.389a12.362,12.362,0,0,0,4.544,9.785,22.517,22.517,0,0,0,10.809,4.282,49.416,49.416,0,0,0,25.494-2.413c4.6-1.814,8.873-4.421,13.709-5.6,1.828-.446,1.054-3.269-.778-2.822" transform="translate(-117.505 -267.854)" fill="#5c77c9"/>
                </g>
              </g>
            </g>
            <g id="Grupo_175349" data-name="Grupo 175349" transform="translate(112.712 178.936)" opacity="0.2">
              <g id="Grupo_175348" data-name="Grupo 175348">
                <g id="Grupo_175347" data-name="Grupo 175347" clip-path="url(#clip-path-8)">
                  <path id="Trazado_244632" data-name="Trazado 244632" d="M144.467,237.573c.353,3.9,4.321,3.943,7.1,1.845,1.749-1.316,5.619-4.572,3.472-6.933a10.6,10.6,0,0,0-5.591-3.16c-1.838,2.026-5.264,5.172-4.985,8.247" transform="translate(-144.452 -229.326)" fill="#fffefa"/>
                </g>
              </g>
            </g>
            <path id="Trazado_244633" data-name="Trazado 244633" d="M144.056,238.7c4.833,4.981,10.818,1.328,11.184-4.942a6.213,6.213,0,0,1-.073,4.552c-2.044,5.241-8.884,5.737-11.11.39" transform="translate(-31.653 -51.363)" fill="#5c77c9"/>
            <path id="Trazado_244634" data-name="Trazado 244634" d="M82.186,253.666c11.689-13.316,22.613-45.5,5.394-41.789-8,1.727-17.711,22.778-20.775,29.434-7.457,16.2,6.2,24.4,15.381,12.355" transform="translate(-14.208 -46.49)" fill="#7aa5ff"/>
            <path id="Trazado_244635" data-name="Trazado 244635" d="M82.808,254.28a66.239,66.239,0,0,0,13.081-24.695c1.1-3.754,1.991-7.846,1.607-11.777-.293-2.985-1.431-6.1-4.356-7.413a10.259,10.259,0,0,0-10,1.454c-3.729,2.794-6.467,6.878-8.894,10.791a137.663,137.663,0,0,0-6.969,12.934C65.23,239.825,63,244.139,62.8,248.947c-.177,4.133,1.422,8.688,5.359,10.595,4.1,1.986,8.636.422,11.931-2.366a18.888,18.888,0,0,0,2.719-2.9,1.515,1.515,0,0,0,0-2.069,1.471,1.471,0,0,0-2.069,0,15.055,15.055,0,0,1-5.161,4.486,7.587,7.587,0,0,1-4.508.755,5.845,5.845,0,0,1-3.7-2.25,8.812,8.812,0,0,1-1.625-4.657c-.3-4.385,1.621-8.35,3.446-12.205,1.877-3.965,3.86-7.883,6.06-11.679a52.123,52.123,0,0,1,7.708-10.779,16.6,16.6,0,0,1,1.939-1.712,11.18,11.18,0,0,1,.97-.628c.158-.091.318-.176.481-.257.183-.093.326-.151.333-.153a8.324,8.324,0,0,1,2.058-.46,10.22,10.22,0,0,1,1.1-.047c.172,0,.343.011.514.023.094.006.189.016.283.027.252.03-.334-.066.087.016a8.159,8.159,0,0,1,.882.225c.1.031.35.133.112.03a4.919,4.919,0,0,1,.484.243c.12.068.235.143.35.218.219.143.128.1.122.09a6.17,6.17,0,0,1,.617.62c.164.19-.1-.169.094.128.078.117.156.233.229.354.117.2.36.7.37.719a11.715,11.715,0,0,1,.486,1.779,13.167,13.167,0,0,1,.174,2.051,22.669,22.669,0,0,1-.1,2.479,34.989,34.989,0,0,1-.975,5.348A65.573,65.573,0,0,1,82.432,250.14c-.539.71-1.107,1.4-1.694,2.07-1.234,1.413.828,3.491,2.069,2.069" transform="translate(-13.796 -46.07)" fill="#5c77c9"/>
            <g id="Grupo_175352" data-name="Grupo 175352" transform="translate(48.988 193.159)" opacity="0.2">
              <g id="Grupo_175351" data-name="Grupo 175351">
                <g id="Grupo_175350" data-name="Grupo 175350" clip-path="url(#clip-path-9)">
                  <path id="Trazado_244636" data-name="Trazado 244636" d="M70.649,258.491a12.805,12.805,0,0,1-3.755-9.057c-.03.062-.062.133-.091.2-7.456,16.2,6.2,24.4,15.381,12.355a44.808,44.808,0,0,0,2.776-3.532c-4.912,1.247-9.994,4.3-14.312.038" transform="translate(-63.195 -247.967)" fill="#5c77c9"/>
                  <path id="Trazado_244637" data-name="Trazado 244637" d="M71.272,257.043a11.433,11.433,0,0,1-3.326-8.023c0-1.363-2.1-2.108-2.726-.738-2.409,5.226-3.963,12.175-.069,17.125,3.091,3.93,8.441,4.152,12.573,1.786,3.387-1.939,5.857-5.3,8.09-8.415.777-1.083-.5-2.448-1.652-2.149-4.156,1.081-9.167,3.962-12.889.414-1.363-1.3-3.435.766-2.069,2.069a9.144,9.144,0,0,0,7.767,2.506c2.747-.358,5.3-1.475,7.968-2.168L83.285,257.3c-2.726,3.8-6.436,8.736-11.45,8.552a5.869,5.869,0,0,1-4.11-1.912,8.3,8.3,0,0,1-1.976-4.96,18.863,18.863,0,0,1,2-9.221l-2.726-.739A14.446,14.446,0,0,0,69.2,259.112a1.464,1.464,0,0,0,2.069-2.069" transform="translate(-62.783 -247.554)" fill="#5c77c9"/>
                </g>
              </g>
            </g>
            <g id="Grupo_175355" data-name="Grupo 175355" transform="translate(67.475 171.972)" opacity="0.2">
              <g id="Grupo_175354" data-name="Grupo 175354">
                <g id="Grupo_175353" data-name="Grupo 175353" clip-path="url(#clip-path-10)">
                  <path id="Trazado_244638" data-name="Trazado 244638" d="M95.824,222.458c-1.3-.684-3.938-2.03-5.411-2.034-.026.076.069-.08,0,0-1.983,2.25-3.468,3.35-3.83,5.579-.295,1.815-.093,4.7,2.085,5.313,3.115.875,6.977-1.9,7.9-4.817.7-2.218,1.317-2.949-.747-4.04" transform="translate(-86.476 -220.4)" fill="#fffefa"/>
                </g>
              </g>
            </g>
            <path id="Trazado_244639" data-name="Trazado 244639" d="M89.03,222.09c-1.895,2.635-4.023,7.408-.211,9.135,3.659,1.231,6.517-2.729,8.014-5.755-.4,3.971-4.05,8.83-8.574,7.211-4.956-2.2-2.7-8.229.771-10.591" transform="translate(-18.762 -48.8)" fill="#5c77c9"/>
            <path id="Trazado_244640" data-name="Trazado 244640" d="M61.3,242.711c-6.164,21.557-28.055,13.887-20.4-5.289,6.472-15.811,26.289-12.636,20.4,5.289" transform="translate(-8.635 -49.926)" fill="#7aa5ff"/>
            <path id="Trazado_244641" data-name="Trazado 244641" d="M59.476,241.911c-1.448,4.982-4.5,10.54-9.738,11.746a7.509,7.509,0,0,1-8.534-4.515c-2.122-4.967-.226-11.424,2.9-15.641a13.608,13.608,0,0,1,5.657-4.508,8.87,8.87,0,0,1,5.893-.393,6.615,6.615,0,0,1,4.246,4.016c1.1,3,.545,6.3-.422,9.3-.58,1.8,2.245,2.566,2.821.778,1.775-5.5,1.859-12.882-3.9-16.082-4.987-2.771-11.1-.642-14.9,3.144-4.6,4.581-7.264,12.275-5.611,18.672,1.244,4.81,5.442,8.566,10.559,8.34,7.5-.332,11.971-7.6,13.851-14.073a1.464,1.464,0,0,0-2.821-.778" transform="translate(-8.216 -49.515)" fill="#5c77c9"/>
            <g id="Grupo_175358" data-name="Grupo 175358" transform="translate(38.114 182.189)" opacity="0.2">
              <g id="Grupo_175357" data-name="Grupo 175357">
                <g id="Grupo_175356" data-name="Grupo 175356" clip-path="url(#clip-path-11)">
                  <path id="Trazado_244642" data-name="Trazado 244642" d="M56.282,235.484c-1.863-.721-2.485-1.608-4.445-1.99-2.534,2.526-4.853,6.525-.758,8.961,2.711,1.614,6.352,2.247,7.837-.737.789-1.585,1.482-2.953,1.045-4.29a40.931,40.931,0,0,0-3.678-1.944" transform="translate(-48.847 -233.494)" fill="#fffefa"/>
                </g>
              </g>
            </g>
            <path id="Trazado_244643" data-name="Trazado 244643" d="M48.353,238.756c1.657,5.4,4.966,6.866,10.144,4.682a6.387,6.387,0,0,1-3.091,2.118c-4.37,1.447-7.9-2.574-7.053-6.8" transform="translate(-10.597 -52.462)" fill="#5c77c9"/>
            <path id="Trazado_244644" data-name="Trazado 244644" d="M175.759,153.4c-8.743-18.245-41.507-22.284-58.6-13.161-24.769,13.006,22.662,32.423,33.926,11.78" transform="translate(-24.192 -29.782)" fill="#7aa5ff"/>
            <path id="Trazado_244645" data-name="Trazado 244645" d="M176.62,152.23c-4.611-9.508-14.925-14.766-24.8-17.047-10.382-2.4-22.077-2.3-32.077,1.663-3.79,1.5-7.965,3.585-10.241,7.128a7.679,7.679,0,0,0-.115,8.137c1.624,2.8,4.482,4.807,7.315,6.241a35.516,35.516,0,0,0,11.472,3.433c7.761,1.014,16.845-.431,22.028-6.865a18.114,18.114,0,0,0,1.756-2.594c.911-1.649-1.614-3.127-2.527-1.477-3.606,6.525-11.159,8.6-18.278,8.277a33.773,33.773,0,0,1-10.775-2.31A19.767,19.767,0,0,1,112.9,152c-.108-.122-.214-.246-.318-.371-.214-.254.044.073-.1-.127a9.613,9.613,0,0,1-.57-.865c-.139-.239-.264-.485-.378-.736.022.048.037.136-.054-.149-.049-.151-.1-.3-.146-.452s-.175-.94-.13-.527a6.184,6.184,0,0,1-.038-.824c0-.139.016-.276.027-.414.014-.186-.065.222.025-.131.077-.3.151-.594.249-.888.113-.339-.089.155.069-.173.067-.142.137-.282.211-.419a8.329,8.329,0,0,1,.567-.89c.126-.173-.059.055.182-.225.106-.123.212-.245.322-.364a12.48,12.48,0,0,1,.9-.879,22.057,22.057,0,0,1,4.958-3.088c8.8-4.224,19.555-4.733,29.054-3.13,9.2,1.553,19.263,5.429,24.7,13.462a23.423,23.423,0,0,1,1.666,2.9c.822,1.694,3.346.211,2.527-1.477" transform="translate(-23.791 -29.352)" fill="#5c77c9"/>
            <g id="Grupo_175361" data-name="Grupo 175361" transform="translate(94.743 107.702)" opacity="0.2">
              <g id="Grupo_175360" data-name="Grupo 175360">
                <g id="Grupo_175359" data-name="Grupo 175359" clip-path="url(#clip-path-12)">
                  <path id="Trazado_244646" data-name="Trazado 244646" d="M161.5,139.941c.143,3.379-.548,6.675-3.343,9.039a9.563,9.563,0,0,1-7.477,2.19,7.4,7.4,0,0,0-6.194,2.054c-.987.948-1.855,2.051-2.914,2.924-4.908,4.038-12.246,4.593-18.339,3.457,10.179,4.011,25.063,3.794,30.745-6.62l23.889.6c-3.02-6.3-9.5-10.811-16.367-13.644" transform="translate(-121.82 -138.451)" fill="#5c77c9"/>
                  <path id="Trazado_244647" data-name="Trazado 244647" d="M159.637,139.522c.1,2.9-.437,5.766-2.673,7.793a7.789,7.789,0,0,1-3.8,1.89,35.453,35.453,0,0,1-4.4.061,8.71,8.71,0,0,0-4.213,1.319A25.286,25.286,0,0,0,140.9,154a15.473,15.473,0,0,1-7.811,3.8,26.36,26.36,0,0,1-9.867-.027,1.464,1.464,0,0,0-.778,2.821c8.347,3.255,19.429,3.968,27.089-1.419a17.621,17.621,0,0,0,5.308-5.874l-1.263.725,20.925.526,2.963.074a1.48,1.48,0,0,0,1.263-2.2c-3.405-6.967-10.292-11.425-17.242-14.316a1.473,1.473,0,0,0-1.8,1.022,1.5,1.5,0,0,0,1.022,1.8c6.268,2.608,12.433,6.712,15.492,12.972q.631-1.1,1.263-2.2l-20.925-.526-2.963-.074a1.457,1.457,0,0,0-1.263.724c-4.288,7.717-14.025,9.22-22.038,7.885a35.469,35.469,0,0,1-7.054-1.937q-.39,1.412-.778,2.821c6.291,1.142,13.57.782,18.889-3.155,1.512-1.119,2.626-2.584,4.023-3.819a5.882,5.882,0,0,1,4-1.448,20.56,20.56,0,0,0,5-.24,10.84,10.84,0,0,0,4.434-2.339c2.959-2.506,3.9-6.337,3.771-10.073-.066-1.877-2.992-1.887-2.926,0" transform="translate(-121.423 -138.032)" fill="#5c77c9"/>
                </g>
              </g>
            </g>
            <g id="Grupo_175364" data-name="Grupo 175364" transform="translate(92.831 107.347)" opacity="0.2">
              <g id="Grupo_175363" data-name="Grupo 175363">
                <g id="Grupo_175362" data-name="Grupo 175362" clip-path="url(#clip-path-13)">
                  <path id="Trazado_244648" data-name="Trazado 244648" d="M126.971,139.112a41.77,41.77,0,0,0-8,3.18c.929,1.541,2.406,3.487,2.406,3.487s4.87.318,7.111-.233c2.328-.574,4.874-1.353,6.009-3.7a7.1,7.1,0,0,0,.2-4.267,43.95,43.95,0,0,0-7.732,1.536" transform="translate(-118.973 -137.576)" fill="#fffefa"/>
                </g>
              </g>
            </g>
            <path id="Trazado_244649" data-name="Trazado 244649" d="M122.056,146.039c2.949-.61,6.011-.631,8.878-1.358a6.659,6.659,0,0,0,3.522-1.884,6.363,6.363,0,0,0,1.124-4.041,6.187,6.187,0,0,1,.513,2.307c-.346,6.534-9.437,5.925-14.038,4.976" transform="translate(-26.819 -30.489)" fill="#5c77c9"/>
            <line id="Línea_248" data-name="Línea 248" x2="46.816" transform="translate(160.78 154.821)" fill="none" stroke="#fff" stroke-miterlimit="10" stroke-width="10"/>
            <line id="Línea_249" data-name="Línea 249" x2="46.816" transform="translate(160.78 170.427)" fill="none" stroke="#fff" stroke-miterlimit="10" stroke-width="10"/>
          </g>
        </g>
      </g>
    </g>
  </g>
</svg>
