<svg id="Grupo_174192" data-name="Grupo 174192" xmlns="http://www.w3.org/2000/svg" xmlns:xlink="http://www.w3.org/1999/xlink" width="140.181" height="129.167" viewBox="0 0 140.181 129.167">
  <defs>
    <clipPath id="clip-path">
      <rect id="Rectángulo_216840" data-name="Rectángulo 216840" width="140.181" height="129.167" fill="none"/>
    </clipPath>
  </defs>
  <g id="Grupo_174191" data-name="Grupo 174191" clip-path="url(#clip-path)">
    <path id="Trazado_238747" data-name="Trazado 238747" d="M137.454,53.685c.374.412.956.172,1.391.47a2.712,2.712,0,0,1,1.329,2.529,2.4,2.4,0,0,1-1.656,2.308c-7.828,2.335-15.646,4.728-23.959,2.36-8.1-2.307-14.411-6.651-17.426-14.876a2.307,2.307,0,0,0-1.173-1.233C92.567,43.3,89.27,41.156,85.77,39.427c-6.574-3.248-7.744-11.3-2.07-16.063-3.681-2.128-7.444-4.075-10.945-6.414-1.994-1.332-3.352-1.32-5.342.022-3.461,2.333-7.2,4.255-10.915,6.4a9.719,9.719,0,0,1,3.522,5.963,9.025,9.025,0,0,1-4.479,9.378c-3.754,2.23-7.553,4.385-11.335,6.568A2.112,2.112,0,0,0,43.1,46.4c-3.025,8.271-9.329,12.727-17.514,14.956-5.989,1.631-11.908,1.1-17.786-.631-1.657-.487-3.327-.939-5.008-1.334A3.765,3.765,0,0,1,0,57.231V55.588a2.789,2.789,0,0,1,2.764-2.161,43.152,43.152,0,0,1,5.442,1.34c2.949.826,5.911,1.769,8.969,1.735,7.635-.086,14.4-2.239,18.954-8.94A15.1,15.1,0,0,0,37.853,43.7a5.073,5.073,0,0,1,2.492-2.94c4.09-2.311,8.169-4.643,12.2-7.064a3.267,3.267,0,0,0-.418-5.967,3.5,3.5,0,0,0-3.256.456C45.8,29.9,42.8,31.719,39.734,33.438c-1.83,1.026-3.6,2.151-5.45,3.149a3.191,3.191,0,0,1-3.5-.1A2.926,2.926,0,0,1,29.538,33.5a3.233,3.233,0,0,1,1.891-2.358c3.994-2.387,8.05-4.668,12.077-7q10.66-6.166,21.322-12.33c.119-.069.236-.139.351-.213,1.685-1.071,2.239-2.565,1.5-4.034a3.041,3.041,0,0,0-4.344-1.214C57.143,8.93,51.9,11.386,46.713,13.977,35.207,19.727,23.608,25.29,12.086,31.01c-2.409,1.2-4.855,2.322-7.26,3.53a4.511,4.511,0,0,1-2.634.555A2.428,2.428,0,0,1,0,32.858V31.215a5.937,5.937,0,0,1,2.568-2.057q28.524-13.973,57.023-28c3.464-1.7,6.763-1.575,9.877.778a.845.845,0,0,0,1.261,0,8.7,8.7,0,0,1,9.749-.833q8.442,4.15,16.89,8.285c1.842.906,2.267,1.912,1.761,4.009-.2,1.257-1.223,1.472-2.206,1.673a3.541,3.541,0,0,1-2.356-.536c-5.143-2.67-10.422-5.062-15.6-7.664a15.291,15.291,0,0,0-1.488-.693,3.04,3.04,0,0,0-3.963,1.4,2.888,2.888,0,0,0,1.178,3.8c1.361.921,2.825,1.673,4.247,2.494,9.836,5.678,19.681,11.339,29.486,17.071,2.135,1.248,2.811,2.972,1.872,4.589-.976,1.68-2.835,1.933-5.028.678-4.631-2.651-9.237-5.348-13.873-7.99a3.586,3.586,0,0,0-3.249-.539,3.267,3.267,0,0,0-.579,5.952c2.286,1.422,4.631,2.742,6.977,4.06,1.909,1.072,3.774,2.221,5.685,3.289a4.02,4.02,0,0,1,2.012,2.491c2.25,8.222,10.629,12.115,17.538,12.9,5.415.613,10.339-1.245,15.409-2.463a3.568,3.568,0,0,1,2.259-.229" transform="translate(0 0)"/>
    <path id="Trazado_238748" data-name="Trazado 238748" d="M140.36,209.086c.305,1.172.588,2.169.822,3.177.515,2.213-.52,3.616-2.852,3.79a21.278,21.278,0,0,1-10.893-2.023,21.731,21.731,0,0,1-10.023-9.757c-6.652,11.81-16.521,18.589-30.15,18.6-13.608.006-23.481-6.7-30.13-18.45-.408.056-.423.49-.594.77q-6.887,11.252-20.069,10.882c-2.78-.082-3.812-1.572-3.1-4.269.221-.834.453-1.665.735-2.7-1.193.3-2.26.577-3.332.834a2.711,2.711,0,0,1-3.59-2.48c-1.421-10.286,6.175-20.8,16.675-23.109a20.478,20.478,0,0,1,8.687-.161c.987.208,1.157-.01,1.133-.927a36.447,36.447,0,0,1,1.788-12.793,33.557,33.557,0,0,1,64.669,4.412,41.156,41.156,0,0,1,.628,8.442c-.012.852.133,1.049,1.06.88a21.517,21.517,0,0,1,25.447,23.045c-.208,2.245-1.615,3.173-3.792,2.629-.995-.249-1.989-.5-3.126-.787" transform="translate(-17.131 -93.702)"/>
    <path id="Trazado_238749" data-name="Trazado 238749" d="M263.637,63.229c-4.561,1.047-8.959,2.867-13.692,3.1-6.643.326-12.633-1.4-17.583-6.032a15.539,15.539,0,0,1-4.223-7.079,3.821,3.821,0,0,0-1.889-2.372c-4.112-2.347-8.2-4.737-12.308-7.09a3.731,3.731,0,0,1-2.194-3.9,3.613,3.613,0,0,1,5.484-2.667c2.681,1.452,5.3,3.027,7.938,4.55,2.328,1.341,4.648,2.695,6.984,4.021,1.657.941,3.232.631,4.063-.757.859-1.434.341-3-1.378-4q-16.549-9.576-33.109-19.133c-.315-.182-.637-.356-.945-.55a3.34,3.34,0,1,1,3.174-5.878c5.69,2.758,11.358,5.563,17.039,8.341,1.951.954,2.88.762,4.314-.841q2.342,1.1,4.685,2.21a3.57,3.57,0,0,0,1.523.556c.33.318.093.676.066,1.015a2.4,2.4,0,0,0,1.321,2.465,2.15,2.15,0,0,0,2.713-.483c.245-.244.431-.6.865-.565a38.075,38.075,0,0,0,6.039,3.04.879.879,0,0,1,.138.649c-.164,1.59.631,2.5,2.008,3.184,5.039,2.519,10.115,4.961,15.172,7.442,1.416.695,2.859,1.311,4.313,1.912-.639.368-.514.989-.514,1.565q0,8.646,0,17.292" transform="translate(-126.183 -9.543)" fill="#f2c8a5"/>
    <path id="Trazado_238750" data-name="Trazado 238750" d="M339.118,69.859a4.7,4.7,0,0,1-2.473-.6q-8.663-4.282-17.345-8.528c-1.983-.976-2.416-1.966-1.814-4.065,1.322-1.508,2.3-1.784,3.94-.984,6.005,2.93,12,5.892,18,8.824a2.822,2.822,0,0,1,1.894,2.734,2.685,2.685,0,0,1-2.2,2.614" transform="translate(-201.146 -35.031)"/>
    <path id="Trazado_238751" data-name="Trazado 238751" d="M292.338,44.219c-1.1,1.589-2.377,2.058-3.762,1.385-1.408-.684-1.815-1.976-1.2-3.817,1.188-1.358,2.25-1.692,3.522-1.107s1.69,1.623,1.443,3.54" transform="translate(-182.037 -25.618)" fill="#010101"/>
    <path id="Trazado_238752" data-name="Trazado 238752" d="M6.612,63.223q0-8.642,0-17.284c0-.576.121-1.194-.5-1.571a4.755,4.755,0,0,0,2.479-.605q28.293-13.906,56.6-27.791c.49-.24.975-.5,1.483-.692a3.31,3.31,0,0,1,4.125,1.448,3.236,3.236,0,0,1-.994,4.355c-1.2.815-2.5,1.494-3.76,2.222q-15.2,8.777-30.4,17.547a3.287,3.287,0,0,0-1.892,2.033,2.722,2.722,0,0,0,3.991,3.064c2.307-1.284,4.583-2.623,6.871-3.942,2.682-1.546,5.358-3.1,8.047-4.638,2.116-1.208,4.284-.766,5.37,1.067,1.127,1.9.457,4.034-1.718,5.3Q50.168,47.316,44,50.846a3.4,3.4,0,0,0-1.776,1.972C39.906,60.653,34.067,64.3,26.562,65.932c-5.019,1.09-9.868.151-14.673-1.309-1.74-.529-3.517-.937-5.276-1.4" transform="translate(-3.871 -9.538)" fill="#f2c8a5"/>
    <path id="Trazado_238753" data-name="Trazado 238753" d="M114.736,233.419c0-1.227-.456-2.782.126-3.592.6-.842,2.283-.38,3.487-.533a40.531,40.531,0,0,0,23.726-11.306c.7-.681,1.038-.755,1.813-.042a42.931,42.931,0,0,0,25.728,11.413c.56.052,1.18-.1,1.222.854.32,7.366-1.137,14.212-5.672,20.22a28.066,28.066,0,0,1-50.3-13.463c-.142-1.175-.154-2.365-.227-3.549l.1,0" transform="translate(-72.642 -137.872)" fill="#fedbd4"/>
    <path id="Trazado_238754" data-name="Trazado 238754" d="M143.35,162.636l3.6.273c.909.069,1.171.38.861,1.373a35.464,35.464,0,0,1-31.616,25c-1.059.08-1.115-.351-1.039-1.159a27.157,27.157,0,0,1,6.517-15.478c5.626-6.561,12.834-9.831,21.681-10.009" transform="translate(-72.999 -103.121)" fill="#6d91ab"/>
    <path id="Trazado_238755" data-name="Trazado 238755" d="M225.989,193.009a38.43,38.43,0,0,1-21.188-9.052c-2.107-1.805-2.087-1.829-.589-4.185a37.633,37.633,0,0,0,4.616-10.142c.24-.867.5-1.191,1.457-.73q14.262,6.877,16.512,22.527c.115.81.408,1.9-.809,1.582" transform="translate(-128.807 -106.959)" fill="#6d91ab"/>
    <path id="Trazado_238756" data-name="Trazado 238756" d="M42.415,275.6a15.6,15.6,0,0,1,5.518-10.522A15.99,15.99,0,0,1,61.6,261.474a1.892,1.892,0,0,1,1.752,1.828,16.138,16.138,0,0,1-12.41,18.874c-1.759.4-1.791.368-1.327-1.4.255-.968.566-1.924.773-2.9a2.745,2.745,0,0,0-3.537-3.378c-1.28.321-2.554.664-3.832.994-.131.034-.266.049-.6.11" transform="translate(-26.894 -165.608)" fill="#6d91ab"/>
    <path id="Trazado_238757" data-name="Trazado 238757" d="M303.777,275.56c-1.477-.385-2.875-.758-4.277-1.114a2.742,2.742,0,0,0-3.546,3.459c.235,1.02.536,2.024.8,3.036.392,1.48.358,1.561-1.071,1.233a15.9,15.9,0,0,1-12.366-11.317,16.168,16.168,0,0,1-.295-7.982,1.57,1.57,0,0,1,1.387-1.392c8.74-2.045,17.964,4.09,19.359,12.917a8.055,8.055,0,0,1,.007,1.16" transform="translate(-179.227 -165.546)" fill="#6d91ab"/>
    <path id="Trazado_238758" data-name="Trazado 238758" d="M176.79,299.768a10.992,10.992,0,0,1-7.316-2.932,2.716,2.716,0,0,1-.4-3.995c1.075-1.211,2.6-1.251,4.015-.109,2.577,2.075,4.925,2.078,7.528.008,1.442-1.146,2.945-1.111,4.015.094,1.091,1.229.914,2.837-.486,4.1a11.022,11.022,0,0,1-7.357,2.834" transform="translate(-106.758 -185.084)"/>
    <path id="Trazado_238759" data-name="Trazado 238759" d="M162.1,268.376a2.662,2.662,0,0,1-2.747-2.734,2.729,2.729,0,0,1,2.68-2.7,2.8,2.8,0,0,1,2.776,2.768,2.72,2.72,0,0,1-2.71,2.665" transform="translate(-101.042 -166.722)" fill="#010101"/>
    <path id="Trazado_238760" data-name="Trazado 238760" d="M211.559,268.376a2.721,2.721,0,0,1-2.717-2.656,2.792,2.792,0,0,1,2.765-2.776,2.733,2.733,0,0,1,2.69,2.69,2.66,2.66,0,0,1-2.739,2.743" transform="translate(-132.418 -166.722)" fill="#010101"/>
  </g>
</svg>
