<svg id="Grupo_174194" data-name="Grupo 174194" xmlns="http://www.w3.org/2000/svg" xmlns:xlink="http://www.w3.org/1999/xlink" width="156.535" height="129.167" viewBox="0 0 156.535 129.167">
  <defs>
    <clipPath id="clip-path">
      <rect id="Rectángulo_216841" data-name="Rectángulo 216841" width="156.535" height="129.167" fill="none" stroke="#000" stroke-width="2"/>
    </clipPath>
  </defs>
  <g id="Grupo_174193" data-name="Grupo 174193" clip-path="url(#clip-path)">
    <path id="Trazado_238761" data-name="Trazado 238761" d="M44.165.043C56.782.326,67.4,5.026,75.9,14.436c.243.27.474.551.721.818,1.23,1.333,2.133,1.346,3.338-.059A42.926,42.926,0,0,1,90.832,5.989C111.689-6.255,136.094.809,147.114,22.3a3.168,3.168,0,0,0,1.948,1.763,7.774,7.774,0,0,1,5.025,7.8,2.814,2.814,0,0,0,.411,1.742,9.807,9.807,0,0,1,1.389,6.557,3.794,3.794,0,0,0,.2,1.521,14.89,14.89,0,0,1,.048,7.086c-1.072,4.648-2.2,9.25-5.219,13.153-.651.84-.726,2.132-1.048,3.221a89.407,89.407,0,0,1-3.831,10.66,1.35,1.35,0,0,0,.278,1.847,4.622,4.622,0,0,1,1.139,5.154c-4.267,12.421-12.423,20.977-25.034,25.053a10.261,10.261,0,0,0-3.26,1.713c-8.776,6.885-18.174,12.743-28.718,16.5-11.737,4.183-12.856,4.175-25.183-.324-10.215-3.728-19.323-9.475-27.854-16.156a10.216,10.216,0,0,0-3.254-1.729c-12.627-4.045-20.782-12.6-25.071-25.009a4.714,4.714,0,0,1,1.2-5.283,1.18,1.18,0,0,0,.316-1.581A85.832,85.832,0,0,1,6.055,62.95a4.877,4.877,0,0,0-.72-1.531,22.029,22.029,0,0,1-4.2-10.068C.927,49.582-.1,47.908.008,46.064A60.7,60.7,0,0,1,.85,36.691c.546-2.511,1.515-4.92,1.959-7.515a6.624,6.624,0,0,1,4.716-5.151,2.989,2.989,0,0,0,1.852-1.65C14.661,12.222,22.465,4.979,33.57,1.6A35.723,35.723,0,0,1,44.165.043" transform="translate(0 0)" stroke="#000" stroke-width="2"/>
    <path id="Trazado_238762" data-name="Trazado 238762" d="M169.565,52.1c.845,2.465.005,4.532-1.606,6.372a18.193,18.193,0,0,1-6.749,4.615,1.958,1.958,0,0,0-1.419,2.422c.287,1.145,1.471,1.584,2.79,1.055a24.3,24.3,0,0,0,7.78-5.137,10.914,10.914,0,0,1-5.717,8.333c-.451.253-.952.419-1.392.687a1.7,1.7,0,0,0-.837,2.364,1.744,1.744,0,0,0,2.319.994c.43-.14.855-.3,1.584-.554a38.3,38.3,0,0,1-5.128,6.318c-7.478,7.738-16.15,13.962-25.131,19.794A144.184,144.184,0,0,1,94.167,118.3a94.77,94.77,0,0,1-23.93,3.485c-9.8.027-19.217-1.627-27.423-7.512-6.119-4.388-10.03-10.388-12.532-17.393a1.442,1.442,0,0,1,.266-1.718c.564-.518,1.132-.311,1.727-.042C41.791,99.429,51.815,99.841,62,98.944a84.889,84.889,0,0,0,28.12-7.376c17.123-7.848,28.116-21.114,34.087-38.79,2.575-7.624,4.2-15.483,5.952-23.315.619-2.774,1.57-3.8,3.522-3.848,2.7-.062,4.458,2.188,4.112,5.211a35.735,35.735,0,0,0,.783,12.354,12.361,12.361,0,0,0,1.454,3.589c1.82,3,4.234,4.073,7.645,3.227,5.045-1.252,9.512-3.78,13.866-6.518,2.4-1.507,4.1-1.445,5.511.287,1.477,1.812,1.249,3.908-.629,5.836a21.853,21.853,0,0,1-6.874,4.737c-.758.335-1.522.664-2.249,1.059a1.767,1.767,0,0,0-.87,2.5,1.739,1.739,0,0,0,2.5.833,30.317,30.317,0,0,0,9.82-6.162c.207-.21.373-.52.822-.476" transform="translate(-17.608 -14.973)" fill="#fe8b82" stroke="#000" stroke-width="2"/>
    <path id="Trazado_238763" data-name="Trazado 238763" d="M62.453,9.122c11.649.315,21.406,4.741,29.1,13.553,1.74,1.994,3.665,3.19,6.389,2.406a5.691,5.691,0,0,0,2.781-1.9A37.8,37.8,0,0,1,126.2,9.414c13.11-1.417,23.609,3.468,31.741,13.695a35.364,35.364,0,0,1,3.536,5.483c.246.465.547.841-.14,1.278-4.293,2.734-8.662,5.313-13.594,6.747-2.269.66-3.365.16-4.342-2.018a24.1,24.1,0,0,1-1.582-8.2c-.192-2.49.464-4.966.082-7.448a7.567,7.567,0,0,0-7.348-6.737c-3.784-.11-6.453,2.148-7.389,6.182-2.07,8.923-3.808,17.928-7.065,26.544A59.442,59.442,0,0,1,97.515,73.9a1.723,1.723,0,0,1-2.306.012,59.546,59.546,0,0,1-22.6-28.947c-3.236-8.567-4.964-17.521-7.03-26.391-1.074-4.613-4.376-7.02-8.639-6.259a8.009,8.009,0,0,0-6.251,8.921,31.585,31.585,0,0,1-.722,11.424,11.029,11.029,0,0,1-.87,2.314c-.963,1.844-1.927,2.256-3.954,1.689-5-1.4-9.405-4.026-13.749-6.774-.657-.416-.456-.774-.185-1.267,5.114-9.292,12.514-15.756,22.913-18.483a30.167,30.167,0,0,1,8.327-1.014" transform="translate(-18.097 -5.329)" fill="#fec8ba" stroke="#000" stroke-width="2"/>
    <path id="Trazado_238764" data-name="Trazado 238764" d="M79.922,86.352a59.931,59.931,0,0,1-8.248,3.816A81.618,81.618,0,0,1,45.31,95.532c-1.866.063-3.722.069-5.588.042A7.319,7.319,0,0,1,35.33,94,117.731,117.731,0,0,1,16.621,77.89a29.369,29.369,0,0,1-3.541-4.616c.7.24,1.17.432,1.653.556a1.743,1.743,0,0,0,2.179-1.024,1.676,1.676,0,0,0-.689-2.288,10.856,10.856,0,0,0-1.245-.63A11.133,11.133,0,0,1,8.953,61.4a25.975,25.975,0,0,0,5.991,4.314c.6.3,1.217.578,1.835.846,1.179.512,2.217.309,2.722-.916a1.807,1.807,0,0,0-1.2-2.49,19.061,19.061,0,0,1-6.786-4.561,6.364,6.364,0,0,1-1.687-6.668c.977.84,1.859,1.613,2.758,2.368a32.972,32.972,0,0,0,7.97,4.476,1.686,1.686,0,0,0,2.365-.848,1.72,1.72,0,0,0-.71-2.424,22.22,22.22,0,0,0-2.373-1.153,21.724,21.724,0,0,1-7.093-4.949c-1.749-1.845-1.874-3.949-.364-5.716,1.412-1.652,3.02-1.722,5.253-.319C22.16,46.2,26.8,48.83,32.068,50.093a6.168,6.168,0,0,0,6.792-2.617,16.913,16.913,0,0,0,2.584-7.889,36.079,36.079,0,0,0,.09-9.149,4.515,4.515,0,0,1,.765-3.107,3.717,3.717,0,0,1,3.909-1.669,3.161,3.161,0,0,1,2.7,2.651c1.256,5.339,2.4,10.7,3.752,16.019,2.751,10.843,6.814,21.093,13.989,29.875a59.2,59.2,0,0,0,6.069,6.457,59.849,59.849,0,0,0,7.2,5.687" transform="translate(-5.234 -14.967)" fill="#fe7171" stroke="#000" stroke-width="2"/>
    <path id="Trazado_238765" data-name="Trazado 238765" d="M174.729,260.6a3.593,3.593,0,0,1-.476.525c-9.394,6.5-19.343,11.8-30.587,14.381a14.024,14.024,0,0,1-6.9-.425c-10.487-2.808-19.91-7.811-28.765-13.98a3.593,3.593,0,0,1-.428-.484,86.427,86.427,0,0,0,10.1.245,99.989,99.989,0,0,0,21.767-3.3,6.372,6.372,0,0,1,3.329-.026,95.971,95.971,0,0,0,29.695,3.257c.71-.041,1.418-.119,2.266-.192" transform="translate(-62.885 -150.426)" fill="#fec8ba" stroke="#000" stroke-width="2"/>
    <path id="Trazado_238766" data-name="Trazado 238766" d="M205.609,217c4.066-1.5,7.858-2.855,11.572-4.417a154.537,154.537,0,0,0,26.194-14.522c2.132-1.434,4.362-1.728,6.693-2.07a42.576,42.576,0,0,0,11.748-3.379c.66-.3,1.33-.693,2-.014.634.645.336,1.321.083,2.018-5.032,13.87-15.148,21.442-29.475,23.768-9.589,1.557-19.067.646-28.811-1.384" transform="translate(-120.193 -112.367)" fill="#fe7171" stroke="#000" stroke-width="2"/>
    <path id="Trazado_238767" data-name="Trazado 238767" d="M28.679,166.977c3.834,3.359,7.712,6.545,11.662,9.7a30.969,30.969,0,0,1-6.214-1.771,5.45,5.45,0,0,1-3.926-3.919,40.951,40.951,0,0,0-1.522-4.009" transform="translate(-16.765 -97.61)" fill="#fdc7b9" stroke="#000" stroke-width="2"/>
    <path id="Trazado_238768" data-name="Trazado 238768" d="M319.027,176.932c4.285-3.321,8.22-6.482,12.094-9.838-.841,2.044-1.673,4.091-2.535,6.126a1.342,1.342,0,0,1-.575.689,37.208,37.208,0,0,1-8.984,3.024" transform="translate(-186.493 -97.678)" fill="#fdc7b9" stroke="#000" stroke-width="2"/>
  </g>
</svg>
