<svg id="Grupo_174196" data-name="Grupo 174196" xmlns="http://www.w3.org/2000/svg" xmlns:xlink="http://www.w3.org/1999/xlink" width="154.379" height="129.167" viewBox="0 0 154.379 129.167">
  <defs>
    <clipPath id="clip-path">
      <rect id="Rectángulo_216842" data-name="Rectángulo 216842" width="154.379" height="129.167" fill="none" stroke="rgba(0,0,0,0)" stroke-width="4"/>
    </clipPath>
  </defs>
  <g id="Grupo_174195" data-name="Grupo 174195" clip-path="url(#clip-path)">
    <path id="Trazado_238769" data-name="Trazado 238769" d="M142.148,120.126c3.52,0,6.944-.014,10.367.011.741.006,1.828-.311,1.832.931,0,1.206-1.053.979-1.818.98q-16.23.015-32.46.007-58.815,0-117.629,0a10.5,10.5,0,0,1-1.757-.082.927.927,0,0,1,.1-1.808c.479-.039.963-.035,1.445-.035q15.986,0,31.939,0c.351-.358.031-.628-.04-.9a4.043,4.043,0,0,1,2.484-5.211,1.287,1.287,0,0,0,.939-1.4q-.028-31.095,0-62.189a1.917,1.917,0,0,0-.888-1.723,8.569,8.569,0,0,1-3.442-5.6c-.158-.96-.559-1.073-1.357-1.062-2.517.035-5.038.079-7.552-.016-1.185-.045-1.524.256-1.513,1.483.033,3.708-2.383,6.119-5.81,5.99A5.41,5.41,0,0,1,11.932,45.3a6.743,6.743,0,0,1-.179-1.431c-.008-12.749-.028-25.5.014-38.245a5.5,5.5,0,1,1,11.008-.019c0,1.582.441,1.9,1.956,1.9q22.5-.091,44.994-.012c1.224,0,1.783-.134,1.752-1.595A5.517,5.517,0,0,1,76.931,0c3.207-.022,5.531,2.433,5.539,5.983.025,10.659.01,21.319.011,31.978,0,2.163,0,2.163,2.24,2.163h16.616c-4.207-6.358-5.409-13.092-3.19-20.268a21.95,21.95,0,0,1,8.688-11.8,22.883,22.883,0,0,1,28.215,1.712c7.258,6.478,10.921,18.837,3.446,30.224,3.262.883,4.147,2.038,4.15,5.462.006,6.053,0,12.106,0,18.159a4.97,4.97,0,0,1-1.011,3.613c-.387.423-.3.693.028,1.08a4.844,4.844,0,0,1,.983,3.308c-.007,6.321-.018,12.641.007,18.962.006,1.453-1.092,2.679-1.138,3.827-.044,1.113,1.151,2.368,1.143,3.839-.036,6.32-.024,12.641-.006,18.962a11.721,11.721,0,0,1-.51,2.922" transform="translate(0 0)" stroke="#000" stroke-width="4"/>
    <path id="Trazado_238770" data-name="Trazado 238770" d="M101.235,295.98q28.437,0,56.873.02c.8,0,2.16-.51,2.185.86.027,1.446-1.364,1.037-2.241,1.037q-56.792.025-113.585.014c-.214,0-.428,0-.643,0-.767-.006-1.673.016-1.655-1.027.019-1.107.995-.9,1.711-.9q28.678-.01,57.355-.005" transform="translate(-24.053 -168.784)" fill="#40377a" stroke="rgba(0,0,0,0)" stroke-width="4"/>
    <path id="Trazado_238771" data-name="Trazado 238771" d="M6.7,296.071c1.816,0,3.632.008,5.449,0,.662,0,1.221.165,1.239.915.018.732-.522,1.01-1.178,1.012q-5.529.014-11.058,0c-.652,0-1.171-.265-1.145-1.031.027-.806.611-.889,1.245-.888q2.725.006,5.449,0" transform="translate(-0.006 -168.874)" fill="#41397a" stroke="rgba(0,0,0,0)" stroke-width="4"/>
    <path id="Trazado_238772" data-name="Trazado 238772" d="M334.945,298c-1.763,0-3.525,0-5.288,0-.758,0-1.486-.146-1.433-1.079.049-.858.785-.858,1.454-.857q5.289.01,10.577,0c.678,0,1.358.03,1.34.948-.018.874-.679.979-1.36.982-1.763.006-3.526,0-5.288,0" transform="translate(-187.215 -168.874)" fill="#41397a" stroke="rgba(0,0,0,0)" stroke-width="4"/>
    <path id="Trazado_238773" data-name="Trazado 238773" d="M224.752,246.563c-.5.463-1.119.285-1.688.285q-35.028-.01-70.055-.04c-2.391,0-3.153-.77-3.155-3.182q-.01-9.319,0-18.639c0-2.064.8-2.909,2.735-2.91q33.5-.011,67,0c.213,0,.427.03.64.046a1.9,1.9,0,0,1,1.113,1.463A7.208,7.208,0,0,1,221.6,225c.059,6.507.255,13.017-.118,19.518-.068,1.175.237,1.548,1.345,1.518a2.165,2.165,0,0,1,1.929.528" transform="translate(-85.472 -126.669)" fill="#9d9d9d" stroke="rgba(0,0,0,0)" stroke-width="4"/>
    <path id="Trazado_238774" data-name="Trazado 238774" d="M220.249,184.674c-.374.019-.747.056-1.121.056q-33.082,0-66.164,0c-2.31,0-3.112-.783-3.115-3.056q-.014-9.394,0-18.789c0-2.037.819-2.892,2.777-2.892q33.564-.01,67.127,0c.16,0,.32.026.48.04,1.2.695,1.338,1.934,1.361,3.083.12,6.1.144,12.2-.015,18.295-.031,1.176-.059,2.517-1.332,3.262" transform="translate(-85.468 -91.257)" fill="#9c9c9d" stroke="rgba(0,0,0,0)" stroke-width="4"/>
    <path id="Trazado_238775" data-name="Trazado 238775" d="M220.246,122.469c-2.837.018-5.674.05-8.511.051q-29.237.006-58.474,0c-2.731,0-3.406-.674-3.407-3.407q0-9.077,0-18.153c0-2.427.751-3.177,3.14-3.189.107,0,.214,0,.321,0,1.069.02,2.3-.284,3.166.146.988.491.256,1.848.481,2.809a5.594,5.594,0,0,0,6.15,4.449,5.192,5.192,0,0,0,4.721-5.487c-.039-1.54.385-1.982,1.947-1.956,5.674.1,11.352.067,17.027.015a3.6,3.6,0,0,1,2.821,1.126,22.6,22.6,0,0,0,30,1.29c.37-.3.777-.564,1.167-.845a2.176,2.176,0,0,1,.856,2.12c.039,5.877.075,11.756-.021,17.633-.021,1.254-.085,2.609-1.386,3.4" transform="translate(-85.474 -55.72)" fill="#9d9d9d" stroke="rgba(0,0,0,0)" stroke-width="4"/>
    <path id="Trazado_238776" data-name="Trazado 238776" d="M85.638,52.537c-5.517,0-11.034-.031-16.551.025-1.129.012-1.437-.319-1.432-1.437q.063-13.9,0-27.8c-.006-1.177.295-1.567,1.523-1.562q16.47.068,32.941,0c1.3-.006,1.6.416,1.59,1.648q-.072,13.819,0,27.638c.007,1.208-.319,1.53-1.52,1.517-5.516-.064-11.034-.028-16.551-.028" transform="translate(-38.59 -12.413)" fill="#f7ae23" stroke="rgba(0,0,0,0)" stroke-width="4"/>
    <path id="Trazado_238777" data-name="Trazado 238777" d="M252.412,55.456a20.755,20.755,0,1,1,.306-41.427c5.565,1.68,9.409,5.368,12.114,10.383.255.473.534.94.183,1.487-.7.223-.905-.427-1.261-.76-1.959-1.835-4.026-1.89-5.97-.005-3,2.908-5.917,5.9-8.875,8.847-1.889,1.883-1.891,1.881-3.847.115-2.638-2.383-6.23-1.506-7.172,1.731a3.66,3.66,0,0,0,.894,3.579,42.368,42.368,0,0,0,6.01,5.533c1.815,1.419,3.766,1.025,5.766-.9,2.355-2.264,4.63-4.609,6.942-6.917,1.668-1.665,3.311-3.355,5.006-4.991,1.352-1.305,2.434-2.709,2.392-4.714a.869.869,0,0,1,.483-.935,7.215,7.215,0,0,1,1.788,4.657c.7,6.088-.251,11.869-4.14,16.811-2.771,3.521-6.007,6.522-10.619,7.5" transform="translate(-131.488 -7.968)" fill="#f36275" stroke="rgba(0,0,0,0)" stroke-width="4"/>
    <path id="Trazado_238778" data-name="Trazado 238778" d="M103.41,117.731c3.09-.229,6.206.29,9.284-.317.451-.089.726.094.737.581q.014.642.013,1.285c0,19.807-.021,39.615.04,59.423.005,1.642-.418,2.106-2.039,2.014-2.668-.153-5.35-.068-8.026-.083a2.7,2.7,0,0,1-.523-2.119q-.02-29.328,0-58.656a2.8,2.8,0,0,1,.514-2.127" transform="translate(-58.686 -66.96)" fill="#63bbe6" stroke="rgba(0,0,0,0)" stroke-width="4"/>
    <path id="Trazado_238779" data-name="Trazado 238779" d="M138.307,97.985a7.89,7.89,0,0,0-.551,3.193c.018,6.048.034,12.1-.009,18.145-.011,1.562.9,2.862,1.113,4.2.173,1.082-1.129,2.455-1.117,3.981q.078,9.393,0,18.787c-.013,1.524,1.194,2.8,1.137,3.976s-1.138,2.386-1.129,3.851c.035,6.262.021,12.525.008,18.788a6.959,6.959,0,0,0,.575,2.931h-3.142c.518-1.532.756-3.092-.311-4.516-.284-.38-.61-.9-1.006-1-2.12-.528-1.885-2.106-1.883-3.714q.037-29.787,0-59.573a3.007,3.007,0,0,1,1.261-2.849,7.554,7.554,0,0,0,3.008-4.963c.222-1.316.778-1.574,2.051-1.239" transform="translate(-75.282 -55.814)" fill="#fefefe" stroke="rgba(0,0,0,0)" stroke-width="4"/>
    <path id="Trazado_238780" data-name="Trazado 238780" d="M96.918,117.833q.005,31.451.01,62.9c-1.648.034-3.709.7-4.824-.231-1.092-.908-.357-3.018-.359-4.593-.028-18.882-.009-37.764-.038-56.646,0-1.285.045-2.009,1.7-1.559a14.9,14.9,0,0,0,3.513.127" transform="translate(-52.194 -67.062)" fill="#6377e6" stroke="rgba(0,0,0,0)" stroke-width="4"/>
    <path id="Trazado_238781" data-name="Trazado 238781" d="M177.925,27.337q0,9.156,0,18.312a5.716,5.716,0,0,1-.282,2.372A3.5,3.5,0,0,1,174,50.1a3.361,3.361,0,0,1-3.074-2.632,5.043,5.043,0,0,1-.159-1.424q-.012-18.714-.012-37.429A3.8,3.8,0,0,1,172.791,4.9a3.343,3.343,0,0,1,3.641.281,3.858,3.858,0,0,1,1.5,3.524c-.019,6.211-.008,12.423-.008,18.634" transform="translate(-97.396 -2.559)" fill="#f7ae23" stroke="rgba(0,0,0,0)" stroke-width="4"/>
    <path id="Trazado_238782" data-name="Trazado 238782" d="M37.771,49.127a3.45,3.45,0,0,1-5.865-1.946,10.042,10.042,0,0,1-.148-1.912q-.012-17.9,0-35.794c0-.481.011-.964.057-1.442a3.564,3.564,0,0,1,2.4-3.293,3.266,3.266,0,0,1,3.767.964,25.179,25.179,0,0,0-.683,7c.026,10.231.05,20.462-.024,30.692-.014,1.944.525,3.8.5,5.725" transform="translate(-18.112 -2.567)" fill="#f76f23" stroke="rgba(0,0,0,0)" stroke-width="4"/>
    <path id="Trazado_238783" data-name="Trazado 238783" d="M294,26a7.53,7.53,0,0,0-1.637-3.375,20.211,20.211,0,0,0-8.8-7.5,4.745,4.745,0,0,1-1.779-1.016c8.23-.017,16.24,6.5,18.708,15.226a20.907,20.907,0,0,1-17.733,26.2,11.909,11.909,0,0,1-1.281,0c.565-.646,1.431-.67,2.139-1.027,6.8-3.434,11.015-8.916,12.186-16.392a18.558,18.558,0,0,0-1.116-10.857c-.116-.248-.183-.5-.482-.577-.367-.138-.455-.361-.207-.685" transform="translate(-160.552 -8.046)" fill="#f38775" stroke="rgba(0,0,0,0)" stroke-width="4"/>
    <path id="Trazado_238784" data-name="Trazado 238784" d="M160.334,37.153c0,4.6-.034,9.195.024,13.791.015,1.139-.206,1.594-1.475,1.567-2.984-.064-2.986.007-2.986-2.932,0-8.66.027-17.32-.027-25.979-.009-1.4.269-2.011,1.837-1.938,2.622.122,2.627.023,2.627,2.662V37.153" transform="translate(-88.907 -12.353)" fill="#62bbe6" stroke="rgba(0,0,0,0)" stroke-width="4"/>
    <path id="Trazado_238785" data-name="Trazado 238785" d="M57.407,37.2c0,4.547-.036,9.094.024,13.641.015,1.2-.232,1.694-1.568,1.654-2.744-.082-2.746,0-2.746-2.681,0-8.773.038-17.546-.037-26.319-.013-1.51.441-2.037,1.885-1.819a4.241,4.241,0,0,0,1.121,0c1.09-.131,1.349.386,1.34,1.4-.043,4.707-.019,9.415-.019,14.122" transform="translate(-30.276 -12.338)" fill="#63bbe6" stroke="rgba(0,0,0,0)" stroke-width="4"/>
    <path id="Trazado_238786" data-name="Trazado 238786" d="M313.711,184.675a7.851,7.851,0,0,0,.884-4c.02-5.655.006-11.311.009-16.966a7.332,7.332,0,0,0-.907-3.672c1.068-.016,2.136-.054,3.2-.043,1.929.019,2.726.764,2.751,2.726.044,3.42.015,6.841.015,10.262,0,2.94.021,5.88-.009,8.819-.021,2.151-.792,2.9-2.9,2.917-1.015.007-2.03-.027-3.045-.042" transform="translate(-178.931 -91.258)" fill="#cdcdcd" stroke="rgba(0,0,0,0)" stroke-width="4"/>
    <path id="Trazado_238787" data-name="Trazado 238787" d="M313.709,122.552a7.6,7.6,0,0,0,.906-3.833q-.015-8.481,0-16.962a6.724,6.724,0,0,0-.36-2.353c.629-.684,1.059-1.554,2.236-1.571,2.249-.031,3.16.73,3.171,2.985.025,4.855.009,9.711.009,14.566,0,1.494.032,2.989-.012,4.482-.056,1.94-.848,2.71-2.758,2.731-1.066.012-2.132-.029-3.2-.046" transform="translate(-178.937 -55.803)" fill="#cdcdcd" stroke="rgba(0,0,0,0)" stroke-width="4"/>
    <path id="Trazado_238788" data-name="Trazado 238788" d="M318.207,246.557c-1.282-.03-2.894.4-3.753-.219s.2-2.188.186-3.389c-.087-5.673-.03-11.347-.045-17.021a6.315,6.315,0,0,0-.9-3.814c1.173-.019,2.346-.05,3.519-.052a2.132,2.132,0,0,1,2.4,2.228c.055,6.776.039,13.554,0,20.331a1.9,1.9,0,0,1-1.4,1.937" transform="translate(-178.927 -126.662)" fill="#cdcdcd" stroke="rgba(0,0,0,0)" stroke-width="4"/>
    <path id="Trazado_238789" data-name="Trazado 238789" d="M93.176,97.915c6-.017,11.995-.015,17.992-.069,1.12-.009,1.067.491.848,1.287a7.5,7.5,0,0,1-6.811,5.455c-2.621.078-5.246-.01-7.869-.025a7.305,7.305,0,0,1-4.439-5.3,1.317,1.317,0,0,1,.281-1.349" transform="translate(-52.948 -55.811)" fill="#f7ae23" stroke="rgba(0,0,0,0)" stroke-width="4"/>
    <path id="Trazado_238790" data-name="Trazado 238790" d="M44.485,50.728a7.785,7.785,0,0,1-.962-3.994c.009-11.833-.014-23.666.03-35.5.005-1.368-.224-2.908,1.14-3.928a3.594,3.594,0,0,1,1.034,2.765q0,18.848,0,37.7a3.3,3.3,0,0,1-1.241,2.962" transform="translate(-24.825 -4.167)" fill="#f6ac23" stroke="rgba(0,0,0,0)" stroke-width="4"/>
    <path id="Trazado_238791" data-name="Trazado 238791" d="M95.633,269.254c4.7-.018,9.4-.054,14.1-.044a2.278,2.278,0,0,1,2.517,2.138,2.311,2.311,0,0,1-2.521,2.321c-4.7.011-9.4-.033-14.1-.055-1.733-1.188-1.733-3.055,0-4.36" transform="translate(-53.806 -153.555)" fill="#f7ae23" stroke="rgba(0,0,0,0)" stroke-width="4"/>
    <path id="Trazado_238792" data-name="Trazado 238792" d="M86.742,97.943c-.07,3.127,2.011,4.908,4.159,6.648-4.786.24-7.776-1.412-9.017-4.981-.577-1.66-.546-1.716,1.175-1.715,1.228,0,2.456.031,3.683.048" transform="translate(-46.514 -55.839)" fill="#f77023" stroke="rgba(0,0,0,0)" stroke-width="4"/>
    <path id="Trazado_238793" data-name="Trazado 238793" d="M89.37,269.256c-1.228,1.837-1.229,2.615,0,4.36-1.224.023-2.45.1-3.671.053a2.253,2.253,0,0,1-2.333-2.318,2.177,2.177,0,0,1,2.332-2.14c1.225,0,2.449.028,3.674.044" transform="translate(-47.543 -153.556)" fill="#f66f23" stroke="rgba(0,0,0,0)" stroke-width="4"/>
    <path id="Trazado_238794" data-name="Trazado 238794" d="M185.938,249.359q-9.317,0-18.634,0c-2.3,0-3.05-.727-3.189-3.041-.019-.32-.008-.642-.006-.964.013-2.759.909-3.682,3.643-3.686q10.682-.014,21.365,0c4.98,0,9.96-.007,14.94,0,2.685.006,3.438.763,3.449,3.4q0,.4,0,.8c0,2.954-.521,3.485-3.415,3.486q-9.076,0-18.152,0" transform="translate(-93.604 -137.841)" fill="#403678" stroke="rgba(0,0,0,0)" stroke-width="4"/>
    <path id="Trazado_238795" data-name="Trazado 238795" d="M297.073,245.69c-.043,1.1.344,2.646-1.176,3.209a7.514,7.514,0,0,1-5.311-.051,1.555,1.555,0,0,1-.948-1.4c-.058-1.334-.023-2.672-.014-4.008a1.2,1.2,0,0,1,.123-.461c.566-1.254,2.706-1.838,5.091-1.383a2.418,2.418,0,0,1,2.236,2.654c-.009.428,0,.856,0,1.443" transform="translate(-165.188 -137.716)" fill="#403778" stroke="rgba(0,0,0,0)" stroke-width="4"/>
    <path id="Trazado_238796" data-name="Trazado 238796" d="M166.18,187.219a2.473,2.473,0,0,1-2.217-2.67c-.022-.589,0-1.178,0-1.767,0-2.231,1.083-3.33,3.347-3.334q10.443-.017,20.887,0,8.034,0,16.067,0c2.361,0,3.4,1.063,3.4,3.451a7.466,7.466,0,0,1-.2,2.545,2.21,2.21,0,0,1-2.011,1.773,3,3,0,0,1-1.111.094q-18.528,0-37.056,0a3.044,3.044,0,0,1-1.112-.093" transform="translate(-93.517 -102.352)" fill="#6c678a" stroke="rgba(0,0,0,0)" stroke-width="4"/>
    <path id="Trazado_238797" data-name="Trazado 238797" d="M293.17,187.316c-3.3,0-3.611-.409-3.7-3.846-.082-3.08.448-3.805,3.994-3.823,3.033-.015,3.663.879,3.554,4.12-.106,3.125-.481,3.55-3.845,3.549" transform="translate(-165.105 -102.469)" fill="#403778" stroke="rgba(0,0,0,0)" stroke-width="4"/>
    <path id="Trazado_238798" data-name="Trazado 238798" d="M169.137,197.543l39.279,0c-.461.391-1.018.256-1.538.256q-18.1.01-36.2,0c-.521,0-1.077.134-1.539-.254" transform="translate(-96.475 -112.676)" fill="#7e7b90" stroke="rgba(0,0,0,0)" stroke-width="4"/>
    <path id="Trazado_238799" data-name="Trazado 238799" d="M185.9,125.444q-9.392,0-18.785,0c-2.027,0-2.711-.585-2.961-2.551a9.5,9.5,0,0,1,.053-2.716,2.334,2.334,0,0,1,2.6-2.242q19.106.024,38.212.019c1.736,0,2.4.722,2.472,2.441.188,4.836-.022,5.052-4.889,5.053H185.9" transform="translate(-93.592 -67.267)" fill="#403778" stroke="rgba(0,0,0,0)" stroke-width="4"/>
    <path id="Trazado_238800" data-name="Trazado 238800" d="M289.521,121.671c0-3.476.259-3.732,3.76-3.731,3.35,0,3.75.405,3.749,3.786s-.385,3.726-3.965,3.723c-3.255,0-3.545-.311-3.545-3.778" transform="translate(-165.141 -67.272)" fill="#403778" stroke="rgba(0,0,0,0)" stroke-width="4"/>
    <path id="Trazado_238801" data-name="Trazado 238801" d="M273.961,38.3q.1.342.207.685a5.176,5.176,0,0,1-1.68,5.07c-4.223,4.181-8.4,8.4-12.617,12.6-2.5,2.49-4.861,2.523-7.435.134-1.53-1.419-3.088-2.812-4.56-4.29a4.378,4.378,0,0,1-.214-6.444,4.571,4.571,0,0,1,6.491-.118c1.9,1.658,1.9,1.658,3.7-.143q4.033-4.031,8.066-8.062c2.928-2.914,5.529-2.725,8.04.571" transform="translate(-140.516 -20.348)" fill="#3f3679" stroke="rgba(0,0,0,0)" stroke-width="4"/>
    <path id="Trazado_238802" data-name="Trazado 238802" d="M188.418,250.015c-6.051,0-12.1-.052-18.153.036-1.537.022-1.6-.705-1.59-1.857.011-1.169-.009-2.038,1.638-2.03q18.153.084,36.307-.006c1.835-.011,1.556,1.026,1.64,2.163.1,1.318-.323,1.742-1.687,1.726-6.05-.072-12.1-.031-18.153-.031" transform="translate(-96.21 -140.407)" fill="#f6ae23" stroke="rgba(0,0,0,0)" stroke-width="4"/>
    <path id="Trazado_238803" data-name="Trazado 238803" d="M297.5,248.182c.514,1.723-.511,1.781-1.9,1.86-1.592.092-1.8-.563-1.84-1.935-.049-1.583.5-1.977,2.014-1.99,1.584-.013,2.022.593,1.721,2.066" transform="translate(-167.558 -140.383)" fill="#f4ad24" stroke="rgba(0,0,0,0)" stroke-width="4"/>
    <path id="Trazado_238804" data-name="Trazado 238804" d="M208.323,187.82a2.087,2.087,0,0,0-.062.215c-.341.4-.8.227-1.206.227q-18.386.014-36.773,0c-.409,0-.865.157-1.215-.218-.31-3.545-.31-3.545,3.248-3.545q16.989,0,33.978,0c.639,0,1.277.061,1.916.093a6.726,6.726,0,0,1,.114,3.222" transform="translate(-96.364 -105.238)" fill="#f7ae23" stroke="rgba(0,0,0,0)" stroke-width="4"/>
    <path id="Trazado_238805" data-name="Trazado 238805" d="M169.234,192.739c8.032.023,16.064.06,24.1.064,5.032,0,10.065-.047,15.1-.074-.406.65-1.059.393-1.608.394q-17.985.022-35.97,0c-.55,0-1.2.252-1.616-.383" transform="translate(-96.53 -109.931)" fill="#7c5e5d" stroke="rgba(0,0,0,0)" stroke-width="4"/>
    <path id="Trazado_238806" data-name="Trazado 238806" d="M260.458,187.95q-.057-1.611-.114-3.222a3.6,3.6,0,0,1,.114,3.222" transform="translate(-148.498 -105.368)" fill="#936d51" stroke="rgba(0,0,0,0)" stroke-width="4"/>
    <path id="Trazado_238807" data-name="Trazado 238807" d="M297.425,186.076c.52,1.763-.482,1.8-1.85,1.933-1.915.18-1.822-.925-1.9-2.193-.094-1.489.649-1.7,1.928-1.721,1.5-.023,2.278.36,1.824,1.981" transform="translate(-167.504 -105.006)" fill="#f4ac24" stroke="rgba(0,0,0,0)" stroke-width="4"/>
    <path id="Trazado_238808" data-name="Trazado 238808" d="M188.676,122.27c5.99,0,11.98.06,17.968-.038,1.688-.027,1.554.873,1.6,2,.048,1.208-.144,1.813-1.614,1.806q-18.128-.089-36.257,0c-1.544.008-1.723-.623-1.727-1.9,0-1.3.215-1.922,1.742-1.9,6.1.084,12.192.035,18.289.035" transform="translate(-96.194 -69.72)" fill="#f7ae23" stroke="rgba(0,0,0,0)" stroke-width="4"/>
    <path id="Trazado_238809" data-name="Trazado 238809" d="M297.492,124.24c.436,1.693-.568,1.7-1.844,1.791-1.651.113-1.845-.6-1.895-2.019-.057-1.614.64-1.749,1.964-1.8,1.626-.067,2.122.544,1.774,2.032" transform="translate(-167.553 -69.704)" fill="#f7ae23" stroke="rgba(0,0,0,0)" stroke-width="4"/>
    <path id="Trazado_238810" data-name="Trazado 238810" d="M258.691,59.2a2.921,2.921,0,0,1-1.927-.848c-1.675-1.575-3.385-3.115-5.021-4.73a2.44,2.44,0,0,1-.221-3.584,2.7,2.7,0,0,1,3.637-.3,14.325,14.325,0,0,1,1.995,1.855c.961,1.076,1.742,1.069,2.778,0,3.431-3.528,6.94-6.979,10.427-10.453a2.615,2.615,0,0,1,4.522,2.268,3.006,3.006,0,0,1-.99,1.611q-6.532,6.518-13.049,13.051a3.19,3.19,0,0,1-2.15,1.129" transform="translate(-143.078 -22.941)" fill="#63bbe6" stroke="rgba(0,0,0,0)" stroke-width="4"/>
  </g>
</svg>
