<svg id="Grupo_174221" data-name="Grupo 174221" xmlns="http://www.w3.org/2000/svg" xmlns:xlink="http://www.w3.org/1999/xlink" width="407.493" height="391.405" viewBox="0 0 407.493 391.405">
  <defs>
    <clipPath id="clip-path">
      <rect id="Rectángulo_216859" data-name="Rectángulo 216859" width="407.493" height="391.405" fill="none"/>
    </clipPath>
    <clipPath id="clip-path-3">
      <rect id="Rectángulo_216846" data-name="Rectángulo 216846" width="12.79" height="26.415" fill="none"/>
    </clipPath>
    <clipPath id="clip-path-4">
      <rect id="Rectángulo_216849" data-name="Rectángulo 216849" width="27.141" height="16.884" fill="none"/>
    </clipPath>
    <clipPath id="clip-path-5">
      <rect id="Rectángulo_216852" data-name="Rectángulo 216852" width="53.546" height="256.133" fill="none"/>
    </clipPath>
    <clipPath id="clip-path-6">
      <rect id="Rectángulo_216854" data-name="Rectángulo 216854" width="71.513" height="77.289" fill="none"/>
    </clipPath>
    <clipPath id="clip-path-7">
      <rect id="Rectángulo_216855" data-name="Rectángulo 216855" width="6.545" height="4.632" fill="none"/>
    </clipPath>
    <clipPath id="clip-path-8">
      <rect id="Rectángulo_216856" data-name="Rectángulo 216856" width="29.84" height="3.151" fill="none"/>
    </clipPath>
    <clipPath id="clip-path-9">
      <rect id="Rectángulo_216857" data-name="Rectángulo 216857" width="17.961" height="2.122" fill="none"/>
    </clipPath>
  </defs>
  <g id="Grupo_174220" data-name="Grupo 174220" clip-path="url(#clip-path)">
    <g id="Grupo_174219" data-name="Grupo 174219">
      <g id="Grupo_174218" data-name="Grupo 174218" clip-path="url(#clip-path)">
        <path id="Trazado_238811" data-name="Trazado 238811" d="M6.943,188.109l62.985-6.677-6.874-61.181L0,126.32l.857,4.748L2.74,130.4c1.245-.06,1.8.74,1.977,1.974,0,.027.008.053.01.081.14,1.248-.15,2.416-1.377,2.679l-2.377-.145.484,4.305s4.182-.961,4.375,1.7c0,0-.183,2.465-3.938,2.191l.4,3.589s4.177-1.141,4.41,1.617c.2,2.343-2.234,2.514-3.938,2.584l.425,3.787s4.159-.855,4.1,1.968-3.621,2.3-3.621,2.3l.542,4.822s3.845-1.686,4.168,1.189-2.771,2.663-3.761,2.434l.412,3.666s3.923-1.679,4.105,2.014c.137,2.771-3.7,1.642-3.7,1.642l.573,5.1s3.85-1.642,4.159,1.108c.22,1.956-2.139,2.891-3.815,1.952Z" transform="translate(0 -6.341)" fill="#f5f5f5"/>
        <rect id="Rectángulo_216843" data-name="Rectángulo 216843" width="37.785" height="10.343" transform="translate(16.458 110.832) rotate(-2.082)" fill="#e0e0e0"/>
        <path id="Trazado_238812" data-name="Trazado 238812" d="M56.2,137.233a9.5,9.5,0,0,1-1.551.192l-4.239.341c-3.581.266-8.529.6-14,.939s-10.422.618-14.008.8l-4.248.184a9.387,9.387,0,0,1-1.561,0,9.453,9.453,0,0,1,1.55-.192l4.239-.341c3.581-.266,8.529-.6,14-.939s10.42-.618,14.006-.8l4.248-.184a9.4,9.4,0,0,1,1.562,0" transform="translate(-0.875 -7.235)" fill="#e0e0e0"/>
        <path id="Trazado_238813" data-name="Trazado 238813" d="M57.794,145.331a9.5,9.5,0,0,1-1.551.192L52,145.864c-3.581.266-8.529.6-14,.939s-10.422.618-14.008.8l-4.248.184a9.411,9.411,0,0,1-1.562,0,9.5,9.5,0,0,1,1.551-.192l4.239-.341c3.581-.266,8.529-.6,14-.939s10.42-.618,14.006-.8l4.248-.184a9.4,9.4,0,0,1,1.562,0" transform="translate(-0.959 -7.662)" fill="#e0e0e0"/>
        <path id="Trazado_238814" data-name="Trazado 238814" d="M58.372,153.645a9.5,9.5,0,0,1-1.551.192l-4.239.341c-3.581.266-8.529.6-14,.939s-10.422.619-14.008.8l-4.248.185a9.46,9.46,0,0,1-1.562,0,9.5,9.5,0,0,1,1.551-.192l4.238-.341c3.582-.266,8.53-.6,14-.939s10.42-.618,14.006-.8l4.248-.184a9.4,9.4,0,0,1,1.562,0" transform="translate(-0.99 -8.101)" fill="#e0e0e0"/>
        <path id="Trazado_238815" data-name="Trazado 238815" d="M59.385,161.96a9.548,9.548,0,0,1-1.552.192l-4.239.341c-3.581.266-8.529.6-14,.939s-10.421.618-14.007.8l-4.248.185a9.43,9.43,0,0,1-1.561,0,9.457,9.457,0,0,1,1.55-.192l4.238-.341c3.582-.266,8.53-.6,14-.939s10.42-.618,14.006-.8l4.248-.184a9.42,9.42,0,0,1,1.563,0" transform="translate(-1.043 -8.539)" fill="#e0e0e0"/>
        <path id="Trazado_238816" data-name="Trazado 238816" d="M61.7,170.918a9.5,9.5,0,0,1-1.551.192l-4.239.341c-3.581.266-8.529.6-14,.939s-10.422.618-14.008.8l-4.248.184a9.407,9.407,0,0,1-1.562,0,9.5,9.5,0,0,1,1.551-.192l4.239-.341c3.581-.266,8.529-.6,14-.939s10.42-.618,14.006-.8l4.248-.184a9.392,9.392,0,0,1,1.562,0" transform="translate(-1.165 -9.012)" fill="#e0e0e0"/>
        <path id="Trazado_238817" data-name="Trazado 238817" d="M51.471,17.991l-.4,63.336H112.64l1.009-63.336-4.813.322.454,1.946c-.079,1.243-.937,1.709-2.182,1.744l-.081,0c-1.256,0-2.383-.419-2.508-1.668l.409-2.345H100.6s.487,4.264-2.183,4.158c0,0-2.429-.456-1.736-4.158H93.063s.668,4.279-2.1,4.2c-2.349-.065-2.249-2.5-2.128-4.2H85.024s.386,4.229-2.415,3.855-1.878-3.855-1.878-3.855H75.879S77.126,22,74.233,22s-2.337-3.05-2-4.009h-3.69s1.23,4.086-2.459,3.855c-2.769-.173-1.218-3.855-1.218-3.855H59.734S60.936,22,58.169,22c-1.968,0-2.634-2.449-1.515-4.009Z" transform="translate(-2.693 -0.949)" fill="#fafafa"/>
        <rect id="Rectángulo_216844" data-name="Rectángulo 216844" width="30.085" height="8.236" transform="translate(38.011 25.488) rotate(-35.566)" fill="#ebebeb"/>
        <rect id="Rectángulo_216845" data-name="Rectángulo 216845" width="30.085" height="8.236" transform="translate(92.884 83.467) rotate(-35.566)" fill="#ebebeb"/>
        <path id="Trazado_238818" data-name="Trazado 238818" d="M107.6,35.636a1.762,1.762,0,0,1-.481.049l-1.378.046-5.072.079c-4.282.045-10.2.072-16.731.072s-12.452-.027-16.733-.072l-5.072-.079-1.378-.046a1.75,1.75,0,0,1-.48-.049,1.8,1.8,0,0,1,.48-.049l1.378-.046,5.072-.079c4.282-.045,10.2-.072,16.733-.072s12.449.027,16.731.072l5.072.079,1.378.046a1.811,1.811,0,0,1,.481.049" transform="translate(-3.179 -1.866)" fill="#e0e0e0"/>
        <path id="Trazado_238819" data-name="Trazado 238819" d="M106.571,47.666a1.668,1.668,0,0,1-.458.05l-1.317.045-4.839.079c-4.087.045-9.732.072-15.967.072s-11.883-.027-15.969-.072l-4.84-.079-1.316-.045a1.668,1.668,0,0,1-.458-.05,1.651,1.651,0,0,1,.458-.049l1.316-.046,4.84-.079c4.087-.045,9.732-.072,15.969-.072s11.881.027,15.967.072l4.839.079,1.317.046a1.651,1.651,0,0,1,.458.049" transform="translate(-3.238 -2.501)" fill="#e0e0e0"/>
        <path id="Trazado_238820" data-name="Trazado 238820" d="M85.13,59.278a21.986,21.986,0,0,1-3.309.174c-2.044.045-4.868.072-7.987.072s-5.944-.027-7.989-.072a21.965,21.965,0,0,1-3.308-.174,21.964,21.964,0,0,1,3.308-.174c2.045-.045,4.869-.072,7.989-.072s5.943.027,7.987.072a21.985,21.985,0,0,1,3.309.174" transform="translate(-3.298 -3.113)" fill="#e0e0e0"/>
        <path id="Trazado_238821" data-name="Trazado 238821" d="M408.343,412.5c0,.136-87.81.246-196.1.246-108.331,0-196.122-.11-196.122-.246s87.791-.246,196.122-.246c108.294,0,196.1.11,196.1.246" transform="translate(-0.85 -21.739)" fill="#263238"/>
        <path id="Trazado_238822" data-name="Trazado 238822" d="M343.717,372.343c-1.678,2.4-4.939,1.6-6.451.14s-2.151-3.583-2.733-5.6c-1.329-4.619-2.668-9.465-1.68-14.168a7.87,7.87,0,0,1,1.809-3.852,4.113,4.113,0,0,1,3.9-1.3c1.644.435,2.666,2.045,3.4,3.577a33.775,33.775,0,0,1,3.337,14.494,11.715,11.715,0,0,1-1.584,6.71" transform="translate(-17.534 -18.322)" fill="#e8505b"/>
        <g id="Grupo_174199" data-name="Grupo 174199" transform="translate(314.977 329.134)" opacity="0.2">
          <g id="Grupo_174198" data-name="Grupo 174198">
            <g id="Grupo_174197" data-name="Grupo 174197" clip-path="url(#clip-path-3)">
              <path id="Trazado_238823" data-name="Trazado 238823" d="M343.717,372.343c-1.678,2.4-4.939,1.6-6.451.14s-2.151-3.583-2.733-5.6c-1.329-4.619-2.668-9.465-1.68-14.168a7.87,7.87,0,0,1,1.809-3.852,4.113,4.113,0,0,1,3.9-1.3c1.644.435,2.666,2.045,3.4,3.577a33.775,33.775,0,0,1,3.337,14.494,11.715,11.715,0,0,1-1.584,6.71" transform="translate(-332.511 -347.456)"/>
            </g>
          </g>
        </g>
        <path id="Trazado_238824" data-name="Trazado 238824" d="M336.9,386.464a14.541,14.541,0,0,0-9.021-1.1,7.492,7.492,0,0,0-4.457,1.989c-1.113,1.23-1.324,3.392-.045,4.448a4.267,4.267,0,0,0,2.81.713c2.385-.027,5.031-.448,6.936.987,1.087.818,1.81,2.18,3.11,2.582a3.073,3.073,0,0,0,3.381-1.5,5.254,5.254,0,0,0,.382-3.875,5.916,5.916,0,0,0-3.095-4.245" transform="translate(-17.006 -20.308)" fill="#e8505b"/>
        <path id="Trazado_238825" data-name="Trazado 238825" d="M349.106,376.21a8.72,8.72,0,0,1-1.356-8.024,15.461,15.461,0,0,1,4.752-6.893,25.578,25.578,0,0,1,8.51-5.021,9.081,9.081,0,0,1,3.827-.651,4.018,4.018,0,0,1,3.212,1.944c.9,1.708.037,3.78-.892,5.47a64.877,64.877,0,0,1-5.589,8.512c-1.676,2.16-3.595,4.29-6.149,5.266s-5.205.862-6.559-.909" transform="translate(-18.316 -18.751)" fill="#e8505b"/>
        <path id="Trazado_238826" data-name="Trazado 238826" d="M343.764,410.662a5.229,5.229,0,0,1-.152-1.089c-.078-.792-.174-1.788-.289-2.971a43.333,43.333,0,0,0-.669-4.359,33.68,33.68,0,0,0-1.585-5.145,18.983,18.983,0,0,0-2.627-4.655,9.827,9.827,0,0,0-3.321-2.761,9.282,9.282,0,0,0-2.8-.871,5.15,5.15,0,0,1-1.084-.157,5.091,5.091,0,0,1,1.1-.017,8.463,8.463,0,0,1,2.916.76,9.785,9.785,0,0,1,3.5,2.785,18.526,18.526,0,0,1,2.722,4.748,31.414,31.414,0,0,1,1.573,5.229,37.042,37.042,0,0,1,.58,4.414c.094,1.262.13,2.284.147,2.99a5.11,5.11,0,0,1-.023,1.1" transform="translate(-17.467 -20.493)" fill="#263238"/>
        <path id="Trazado_238827" data-name="Trazado 238827" d="M343.935,406.741a2.157,2.157,0,0,1-.029-.506c0-.379,0-.857,0-1.445,0-1.253,0-3.068-.064-5.308-.111-4.482-.5-10.668-1.242-17.468s-1.746-12.92-2.652-17.309c-.214-1.1-.43-2.091-.634-2.957s-.359-1.618-.519-2.224c-.137-.57-.249-1.035-.337-1.4a2.2,2.2,0,0,1-.089-.5,2.164,2.164,0,0,1,.176.474c.11.364.249.822.42,1.385.186.6.376,1.345.594,2.21s.465,1.852.7,2.95a164.212,164.212,0,0,1,2.789,17.326c.746,6.814,1.083,13.018,1.113,17.51.027,2.247-.022,4.065-.079,5.32-.036.586-.065,1.065-.088,1.444a2.183,2.183,0,0,1-.062.5" transform="translate(-17.843 -18.858)" fill="#263238"/>
        <path id="Trazado_238828" data-name="Trazado 238828" d="M344.212,394.978a9.63,9.63,0,0,1,.01-1.509c.056-.97.189-2.372.462-4.089a54.006,54.006,0,0,1,1.33-5.958,52.776,52.776,0,0,1,2.491-7.05,37.552,37.552,0,0,1,7.317-11.392,18.444,18.444,0,0,1,1.721-1.6c.264-.224.5-.446.735-.622l.668-.46a9.773,9.773,0,0,1,1.27-.814,45.206,45.206,0,0,0-4.165,3.716,39.548,39.548,0,0,0-7.133,11.351,56.012,56.012,0,0,0-2.506,6.985,60.485,60.485,0,0,0-1.415,5.9c-.312,1.7-.493,3.088-.6,4.05a9.594,9.594,0,0,1-.185,1.495" transform="translate(-18.15 -19.062)" fill="#263238"/>
        <path id="Trazado_238829" data-name="Trazado 238829" d="M334.468,306.765,129.528,280.7,165.225,0,375.251,26.709a4.191,4.191,0,0,1,3.63,4.687L344.888,298.7a9.32,9.32,0,0,1-10.421,8.07" transform="translate(-6.83)" fill="#455a64"/>
        <rect id="Rectángulo_216847" data-name="Rectángulo 216847" width="13.763" height="25.609" transform="translate(353.127 87.404) rotate(-82.752)" fill="#e8505b"/>
        <g id="Grupo_174202" data-name="Grupo 174202" transform="translate(353.127 73.751)" opacity="0.3">
          <g id="Grupo_174201" data-name="Grupo 174201">
            <g id="Grupo_174200" data-name="Grupo 174200" clip-path="url(#clip-path-4)">
              <rect id="Rectángulo_216848" data-name="Rectángulo 216848" width="13.763" height="25.609" transform="translate(0 13.653) rotate(-82.752)"/>
            </g>
          </g>
        </g>
        <rect id="Rectángulo_216850" data-name="Rectángulo 216850" width="269.076" height="199.783" transform="translate(132.323 275.628) rotate(-82.752)" fill="#e0e0e0"/>
        <rect id="Rectángulo_216851" data-name="Rectángulo 216851" width="269.076" height="199.783" transform="translate(123.9 271.248) rotate(-82.752)" fill="#fafafa"/>
        <line id="Línea_197" data-name="Línea 197" x2="197.491" y2="25.115" transform="translate(160.855 30.74)" fill="none" stroke="#e0e0e0" stroke-miterlimit="10" stroke-width="1"/>
        <line id="Línea_198" data-name="Línea 198" x2="197.491" y2="25.115" transform="translate(160.415 44.171)" fill="none" stroke="#e0e0e0" stroke-miterlimit="10" stroke-width="1"/>
        <line id="Línea_199" data-name="Línea 199" x2="197.491" y2="25.115" transform="translate(158.727 57.444)" fill="none" stroke="#e0e0e0" stroke-miterlimit="10" stroke-width="1"/>
        <line id="Línea_200" data-name="Línea 200" x2="197.491" y2="25.115" transform="translate(157.039 70.717)" fill="none" stroke="#e0e0e0" stroke-miterlimit="10" stroke-width="1"/>
        <line id="Línea_201" data-name="Línea 201" x2="197.491" y2="25.115" transform="translate(155.351 83.99)" fill="none" stroke="#e0e0e0" stroke-miterlimit="10" stroke-width="1"/>
        <line id="Línea_202" data-name="Línea 202" x2="197.491" y2="25.115" transform="translate(153.663 97.262)" fill="none" stroke="#e0e0e0" stroke-miterlimit="10" stroke-width="1"/>
        <line id="Línea_203" data-name="Línea 203" x2="197.491" y2="25.115" transform="translate(151.975 110.535)" fill="none" stroke="#e0e0e0" stroke-miterlimit="10" stroke-width="1"/>
        <line id="Línea_204" data-name="Línea 204" x2="197.491" y2="25.115" transform="translate(150.287 123.808)" fill="none" stroke="#e0e0e0" stroke-miterlimit="10" stroke-width="1"/>
        <line id="Línea_205" data-name="Línea 205" x2="197.491" y2="25.115" transform="translate(148.599 137.081)" fill="none" stroke="#e0e0e0" stroke-miterlimit="10" stroke-width="1"/>
        <line id="Línea_206" data-name="Línea 206" x2="197.491" y2="25.115" transform="translate(146.911 150.354)" fill="none" stroke="#e0e0e0" stroke-miterlimit="10" stroke-width="1"/>
        <line id="Línea_207" data-name="Línea 207" x2="197.491" y2="25.115" transform="translate(145.223 163.626)" fill="none" stroke="#e0e0e0" stroke-miterlimit="10" stroke-width="1"/>
        <line id="Línea_208" data-name="Línea 208" x2="197.491" y2="25.115" transform="translate(143.536 176.899)" fill="none" stroke="#e0e0e0" stroke-miterlimit="10" stroke-width="1"/>
        <line id="Línea_209" data-name="Línea 209" x2="197.491" y2="25.115" transform="translate(141.848 190.172)" fill="none" stroke="#e0e0e0" stroke-miterlimit="10" stroke-width="1"/>
        <line id="Línea_210" data-name="Línea 210" x2="197.491" y2="25.115" transform="translate(140.16 203.445)" fill="#455a64"/>
        <line id="Línea_211" data-name="Línea 211" x2="197.491" y2="25.115" transform="translate(138.472 216.717)" fill="none" stroke="#e0e0e0" stroke-miterlimit="10" stroke-width="1"/>
        <line id="Línea_212" data-name="Línea 212" x2="197.491" y2="25.115" transform="translate(136.784 229.99)" fill="none" stroke="#e0e0e0" stroke-miterlimit="10" stroke-width="1"/>
        <line id="Línea_213" data-name="Línea 213" x2="197.491" y2="25.115" transform="translate(135.096 243.263)" fill="none" stroke="#e0e0e0" stroke-miterlimit="10" stroke-width="1"/>
        <line id="Línea_214" data-name="Línea 214" x2="197.491" y2="25.115" transform="translate(133.408 256.536)" fill="none" stroke="#e0e0e0" stroke-miterlimit="10" stroke-width="1"/>
        <line id="Línea_215" data-name="Línea 215" x1="33.828" y2="266.006" transform="translate(155.455 9.742)" fill="none" stroke="#e8505b" stroke-miterlimit="10" stroke-width="1"/>
        <path id="Trazado_238830" data-name="Trazado 238830" d="M184.4,21.691a4.062,4.062,0,1,1-3.517-4.542,4.063,4.063,0,0,1,3.517,4.542" transform="translate(-9.297 -0.903)" fill="#455a64"/>
        <path id="Trazado_238831" data-name="Trazado 238831" d="M180.422,52.957a4.062,4.062,0,1,1-3.517-4.542,4.062,4.062,0,0,1,3.517,4.542" transform="translate(-9.087 -2.551)" fill="#455a64"/>
        <path id="Trazado_238832" data-name="Trazado 238832" d="M176.446,84.223a4.062,4.062,0,1,1-3.517-4.542,4.062,4.062,0,0,1,3.517,4.542" transform="translate(-8.878 -4.2)" fill="#455a64"/>
        <path id="Trazado_238833" data-name="Trazado 238833" d="M172.47,115.488a4.062,4.062,0,1,1-3.517-4.541,4.063,4.063,0,0,1,3.517,4.541" transform="translate(-8.668 -5.849)" fill="#455a64"/>
        <path id="Trazado_238834" data-name="Trazado 238834" d="M168.494,146.754a4.062,4.062,0,1,1-3.517-4.542,4.062,4.062,0,0,1,3.517,4.542" transform="translate(-8.458 -7.497)" fill="#455a64"/>
        <path id="Trazado_238835" data-name="Trazado 238835" d="M164.518,178.02A4.062,4.062,0,1,1,161,173.478a4.062,4.062,0,0,1,3.517,4.542" transform="translate(-8.249 -9.146)" fill="#455a64"/>
        <path id="Trazado_238836" data-name="Trazado 238836" d="M160.541,209.286a4.063,4.063,0,1,1-3.518-4.542,4.064,4.064,0,0,1,3.518,4.542" transform="translate(-8.039 -10.795)" fill="#455a64"/>
        <path id="Trazado_238837" data-name="Trazado 238837" d="M156.565,240.552a4.062,4.062,0,1,1-3.517-4.542,4.062,4.062,0,0,1,3.517,4.542" transform="translate(-7.829 -12.444)" fill="#455a64"/>
        <path id="Trazado_238838" data-name="Trazado 238838" d="M152.589,271.817a4.062,4.062,0,1,1-3.517-4.542,4.062,4.062,0,0,1,3.517,4.542" transform="translate(-7.62 -14.092)" fill="#455a64"/>
        <path id="Trazado_238839" data-name="Trazado 238839" d="M163.192,33.291c-.014.049-.168.047-.451,0a7.212,7.212,0,0,1-1.221-.328,8.786,8.786,0,0,1-1.794-.929,8.7,8.7,0,0,1-1.991-1.839,9.82,9.82,0,0,1-1.554-2.913,12.128,12.128,0,0,1-.615-3.725,9.008,9.008,0,0,1,.848-4.178,9.28,9.28,0,0,1,3.067-3.393,10.676,10.676,0,0,1,4.212-1.682,12.809,12.809,0,0,1,4.177,0,16.962,16.962,0,0,1,6.428,2.55,23.2,23.2,0,0,1,3.6,2.859c.772.758,1.142,1.231,1.077,1.305s-.571-.249-1.445-.861a40.65,40.65,0,0,0-3.765-2.405,17.537,17.537,0,0,0-6.091-2.1,12.069,12.069,0,0,0-3.727.074,9.56,9.56,0,0,0-3.635,1.481,8.065,8.065,0,0,0-2.614,2.84,7.935,7.935,0,0,0-.768,3.515,11.48,11.48,0,0,0,.422,3.348,9.3,9.3,0,0,0,1.226,2.662,8.776,8.776,0,0,0,1.644,1.8,10.956,10.956,0,0,0,1.542,1.069c.447.269.832.414,1.072.567s.37.239.356.287" transform="translate(-8.203 -0.745)" fill="#e8505b"/>
        <path id="Trazado_238840" data-name="Trazado 238840" d="M159.215,64.557c-.014.049-.168.046-.451-.006a7.121,7.121,0,0,1-1.221-.328,8.864,8.864,0,0,1-3.785-2.768,9.8,9.8,0,0,1-1.554-2.912,12.139,12.139,0,0,1-.615-3.726,9,9,0,0,1,.848-4.177,9.291,9.291,0,0,1,3.067-3.394,10.69,10.69,0,0,1,4.213-1.682,12.861,12.861,0,0,1,4.176,0,16.962,16.962,0,0,1,6.428,2.55,23.192,23.192,0,0,1,3.6,2.86c.772.757,1.142,1.231,1.077,1.3s-.57-.249-1.444-.86a40.618,40.618,0,0,0-3.766-2.405,17.511,17.511,0,0,0-6.091-2.1,12.07,12.07,0,0,0-3.727.075,9.558,9.558,0,0,0-3.635,1.48,8.068,8.068,0,0,0-2.614,2.841,7.931,7.931,0,0,0-.768,3.514,11.519,11.519,0,0,0,.422,3.349,9.315,9.315,0,0,0,1.226,2.661,8.751,8.751,0,0,0,1.644,1.8,10.956,10.956,0,0,0,1.542,1.069c.447.269.832.415,1.072.567s.37.239.356.288" transform="translate(-7.994 -2.394)" fill="#e8505b"/>
        <path id="Trazado_238841" data-name="Trazado 238841" d="M155.238,95.823c-.014.049-.168.046-.451-.006a7.122,7.122,0,0,1-1.221-.328,8.857,8.857,0,0,1-3.785-2.769,9.785,9.785,0,0,1-1.554-2.911,12.139,12.139,0,0,1-.615-3.726,9.01,9.01,0,0,1,.848-4.178,9.3,9.3,0,0,1,3.067-3.393,10.69,10.69,0,0,1,4.212-1.682,12.862,12.862,0,0,1,4.177,0,16.962,16.962,0,0,1,6.428,2.55,23.192,23.192,0,0,1,3.6,2.86c.772.757,1.142,1.23,1.077,1.3s-.57-.249-1.444-.86a40.617,40.617,0,0,0-3.766-2.405,17.511,17.511,0,0,0-6.091-2.1,12.07,12.07,0,0,0-3.727.075,9.558,9.558,0,0,0-3.635,1.48,8.068,8.068,0,0,0-2.614,2.841,7.931,7.931,0,0,0-.768,3.514,11.519,11.519,0,0,0,.422,3.349,9.315,9.315,0,0,0,1.226,2.661,8.751,8.751,0,0,0,1.643,1.8,10.956,10.956,0,0,0,1.542,1.069c.448.269.832.415,1.072.567s.37.239.356.288" transform="translate(-7.784 -4.043)" fill="#e8505b"/>
        <path id="Trazado_238842" data-name="Trazado 238842" d="M151.263,127.089c-.014.049-.168.046-.451-.006a7.122,7.122,0,0,1-1.221-.328,8.865,8.865,0,0,1-3.785-2.768,9.8,9.8,0,0,1-1.554-2.912,12.139,12.139,0,0,1-.615-3.726,9.01,9.01,0,0,1,.848-4.178,9.3,9.3,0,0,1,3.067-3.393,10.69,10.69,0,0,1,4.212-1.682,12.861,12.861,0,0,1,4.177,0,16.962,16.962,0,0,1,6.428,2.55,23.193,23.193,0,0,1,3.6,2.86c.772.757,1.142,1.231,1.077,1.3s-.57-.249-1.444-.86a40.622,40.622,0,0,0-3.766-2.405,17.511,17.511,0,0,0-6.091-2.1,12.07,12.07,0,0,0-3.727.075,9.558,9.558,0,0,0-3.635,1.48,8.076,8.076,0,0,0-2.614,2.841,7.931,7.931,0,0,0-.768,3.514,11.52,11.52,0,0,0,.422,3.349,9.316,9.316,0,0,0,1.226,2.661,8.751,8.751,0,0,0,1.644,1.8,10.877,10.877,0,0,0,1.542,1.069c.448.269.832.415,1.072.567s.37.239.356.288" transform="translate(-7.574 -5.691)" fill="#e8505b"/>
        <path id="Trazado_238843" data-name="Trazado 238843" d="M147.286,158.354c-.014.049-.168.046-.451-.006a7.12,7.12,0,0,1-1.221-.328,8.865,8.865,0,0,1-3.785-2.768,9.791,9.791,0,0,1-1.554-2.912,12.138,12.138,0,0,1-.615-3.726,9.01,9.01,0,0,1,.848-4.178,9.3,9.3,0,0,1,3.067-3.393,10.69,10.69,0,0,1,4.212-1.682,12.862,12.862,0,0,1,4.176,0,16.962,16.962,0,0,1,6.428,2.55,23.194,23.194,0,0,1,3.6,2.86c.772.757,1.142,1.23,1.077,1.3s-.57-.249-1.444-.86a40.648,40.648,0,0,0-3.766-2.4,17.492,17.492,0,0,0-6.091-2.1,12.07,12.07,0,0,0-3.727.075,9.558,9.558,0,0,0-3.635,1.48,8.068,8.068,0,0,0-2.614,2.841,7.934,7.934,0,0,0-.768,3.514,11.52,11.52,0,0,0,.422,3.349,9.315,9.315,0,0,0,1.226,2.661,8.751,8.751,0,0,0,1.644,1.8,10.956,10.956,0,0,0,1.542,1.069c.448.269.832.415,1.072.567s.37.239.356.288" transform="translate(-7.365 -7.34)" fill="#e8505b"/>
        <path id="Trazado_238844" data-name="Trazado 238844" d="M143.311,189.62c-.014.049-.168.046-.451-.006a7.123,7.123,0,0,1-1.221-.328,8.857,8.857,0,0,1-3.785-2.769,9.786,9.786,0,0,1-1.554-2.911,12.139,12.139,0,0,1-.615-3.726,9.01,9.01,0,0,1,.848-4.178,9.3,9.3,0,0,1,3.067-3.393,10.69,10.69,0,0,1,4.213-1.682,12.861,12.861,0,0,1,4.176,0,16.961,16.961,0,0,1,6.428,2.55,23.192,23.192,0,0,1,3.6,2.86c.772.757,1.142,1.23,1.077,1.3s-.57-.249-1.444-.86a40.617,40.617,0,0,0-3.766-2.405,17.511,17.511,0,0,0-6.091-2.1,12.069,12.069,0,0,0-3.727.075,9.558,9.558,0,0,0-3.635,1.48,8.068,8.068,0,0,0-2.614,2.841,7.931,7.931,0,0,0-.768,3.514,11.52,11.52,0,0,0,.422,3.349A9.315,9.315,0,0,0,138.7,185.9a8.751,8.751,0,0,0,1.644,1.8,10.954,10.954,0,0,0,1.542,1.069c.448.269.832.415,1.072.567s.37.239.356.288" transform="translate(-7.155 -8.989)" fill="#e8505b"/>
        <path id="Trazado_238845" data-name="Trazado 238845" d="M139.335,220.886c-.014.049-.168.046-.451-.006a7.122,7.122,0,0,1-1.221-.328,8.864,8.864,0,0,1-3.785-2.768,9.8,9.8,0,0,1-1.554-2.912,12.138,12.138,0,0,1-.615-3.726,9,9,0,0,1,.848-4.177,9.291,9.291,0,0,1,3.067-3.394,10.691,10.691,0,0,1,4.213-1.682,12.861,12.861,0,0,1,4.176,0,16.962,16.962,0,0,1,6.428,2.55,23.2,23.2,0,0,1,3.6,2.86c.772.757,1.142,1.231,1.077,1.3s-.57-.249-1.444-.86a40.644,40.644,0,0,0-3.766-2.4,17.492,17.492,0,0,0-6.091-2.1,12.07,12.07,0,0,0-3.727.075,9.558,9.558,0,0,0-3.635,1.48,8.076,8.076,0,0,0-2.613,2.841,7.931,7.931,0,0,0-.768,3.514,11.519,11.519,0,0,0,.422,3.349,9.315,9.315,0,0,0,1.226,2.661,8.75,8.75,0,0,0,1.644,1.8,10.877,10.877,0,0,0,1.542,1.069c.448.269.832.415,1.072.567s.37.239.356.288" transform="translate(-6.945 -10.637)" fill="#e8505b"/>
        <path id="Trazado_238846" data-name="Trazado 238846" d="M135.359,252.152c-.014.049-.168.046-.451-.006a7.121,7.121,0,0,1-1.221-.328,8.857,8.857,0,0,1-3.785-2.769,9.785,9.785,0,0,1-1.554-2.911,12.139,12.139,0,0,1-.615-3.726,9.01,9.01,0,0,1,.848-4.178,9.3,9.3,0,0,1,3.067-3.393,10.69,10.69,0,0,1,4.213-1.682,12.861,12.861,0,0,1,4.176,0,16.962,16.962,0,0,1,6.428,2.55,23.192,23.192,0,0,1,3.6,2.86c.772.757,1.142,1.23,1.077,1.3s-.57-.249-1.444-.86a40.62,40.62,0,0,0-3.766-2.405,17.511,17.511,0,0,0-6.091-2.1,12.069,12.069,0,0,0-3.727.075,9.558,9.558,0,0,0-3.635,1.48,8.068,8.068,0,0,0-2.614,2.841,7.931,7.931,0,0,0-.768,3.514,11.519,11.519,0,0,0,.422,3.349,9.315,9.315,0,0,0,1.226,2.661,8.75,8.75,0,0,0,1.644,1.8,10.954,10.954,0,0,0,1.542,1.069c.447.269.832.415,1.072.567s.37.239.356.288" transform="translate(-6.736 -12.286)" fill="#e8505b"/>
        <path id="Trazado_238847" data-name="Trazado 238847" d="M131.383,283.417c-.014.049-.168.046-.451-.006a7.124,7.124,0,0,1-1.221-.328,8.857,8.857,0,0,1-3.785-2.769,9.786,9.786,0,0,1-1.554-2.911,12.138,12.138,0,0,1-.615-3.726,9.01,9.01,0,0,1,.848-4.178,9.3,9.3,0,0,1,3.067-3.393,10.691,10.691,0,0,1,4.213-1.682,12.862,12.862,0,0,1,4.176,0,16.962,16.962,0,0,1,6.428,2.55,23.194,23.194,0,0,1,3.6,2.86c.772.757,1.142,1.231,1.077,1.3s-.57-.249-1.444-.86a40.6,40.6,0,0,0-3.766-2.405,17.511,17.511,0,0,0-6.091-2.1,12.07,12.07,0,0,0-3.727.075,9.558,9.558,0,0,0-3.635,1.48,8.076,8.076,0,0,0-2.614,2.841,7.931,7.931,0,0,0-.768,3.514,11.52,11.52,0,0,0,.422,3.349,9.316,9.316,0,0,0,1.226,2.661,8.75,8.75,0,0,0,1.644,1.8,10.955,10.955,0,0,0,1.542,1.069c.448.269.832.415,1.072.567s.37.239.356.288" transform="translate(-6.526 -13.935)" fill="#e8505b"/>
        <g id="Grupo_174205" data-name="Grupo 174205" transform="translate(117.231 13.385)" opacity="0.2">
          <g id="Grupo_174204" data-name="Grupo 174204">
            <g id="Grupo_174203" data-name="Grupo 174203" clip-path="url(#clip-path-5)">
              <path id="Trazado_238848" data-name="Trazado 238848" d="M163.192,33.291c-.014.049-.168.047-.451,0a7.212,7.212,0,0,1-1.221-.328,8.786,8.786,0,0,1-1.794-.929,8.7,8.7,0,0,1-1.991-1.839,9.82,9.82,0,0,1-1.554-2.913,12.128,12.128,0,0,1-.615-3.725,9.008,9.008,0,0,1,.848-4.178,9.28,9.28,0,0,1,3.067-3.393,10.676,10.676,0,0,1,4.212-1.682,12.809,12.809,0,0,1,4.177,0,16.962,16.962,0,0,1,6.428,2.55,23.2,23.2,0,0,1,3.6,2.859c.772.758,1.142,1.231,1.077,1.305s-.571-.249-1.445-.861a40.65,40.65,0,0,0-3.765-2.405,17.537,17.537,0,0,0-6.091-2.1,12.069,12.069,0,0,0-3.727.074,9.56,9.56,0,0,0-3.635,1.481,8.065,8.065,0,0,0-2.614,2.84,7.935,7.935,0,0,0-.768,3.515,11.48,11.48,0,0,0,.422,3.348,9.3,9.3,0,0,0,1.226,2.662,8.776,8.776,0,0,0,1.644,1.8,10.956,10.956,0,0,0,1.542,1.069c.447.269.832.414,1.072.567s.37.239.356.287" transform="translate(-125.434 -14.13)"/>
              <path id="Trazado_238849" data-name="Trazado 238849" d="M159.215,64.557c-.014.049-.168.046-.451-.006a7.121,7.121,0,0,1-1.221-.328,8.864,8.864,0,0,1-3.785-2.768,9.8,9.8,0,0,1-1.554-2.912,12.139,12.139,0,0,1-.615-3.726,9,9,0,0,1,.848-4.177,9.291,9.291,0,0,1,3.067-3.394,10.69,10.69,0,0,1,4.213-1.682,12.861,12.861,0,0,1,4.176,0,16.962,16.962,0,0,1,6.428,2.55,23.192,23.192,0,0,1,3.6,2.86c.772.757,1.142,1.231,1.077,1.3s-.57-.249-1.444-.86a40.618,40.618,0,0,0-3.766-2.405,17.511,17.511,0,0,0-6.091-2.1,12.07,12.07,0,0,0-3.727.075,9.558,9.558,0,0,0-3.635,1.48,8.068,8.068,0,0,0-2.614,2.841,7.931,7.931,0,0,0-.768,3.514,11.519,11.519,0,0,0,.422,3.349,9.315,9.315,0,0,0,1.226,2.661,8.751,8.751,0,0,0,1.644,1.8,10.956,10.956,0,0,0,1.542,1.069c.447.269.832.415,1.072.567s.37.239.356.288" transform="translate(-125.225 -15.779)"/>
              <path id="Trazado_238850" data-name="Trazado 238850" d="M155.238,95.823c-.014.049-.168.046-.451-.006a7.122,7.122,0,0,1-1.221-.328,8.857,8.857,0,0,1-3.785-2.769,9.785,9.785,0,0,1-1.554-2.911,12.139,12.139,0,0,1-.615-3.726,9.01,9.01,0,0,1,.848-4.178,9.3,9.3,0,0,1,3.067-3.393,10.69,10.69,0,0,1,4.212-1.682,12.862,12.862,0,0,1,4.177,0,16.962,16.962,0,0,1,6.428,2.55,23.192,23.192,0,0,1,3.6,2.86c.772.757,1.142,1.23,1.077,1.3s-.57-.249-1.444-.86a40.617,40.617,0,0,0-3.766-2.405,17.511,17.511,0,0,0-6.091-2.1,12.07,12.07,0,0,0-3.727.075,9.558,9.558,0,0,0-3.635,1.48,8.068,8.068,0,0,0-2.614,2.841,7.931,7.931,0,0,0-.768,3.514,11.519,11.519,0,0,0,.422,3.349,9.315,9.315,0,0,0,1.226,2.661,8.751,8.751,0,0,0,1.643,1.8,10.956,10.956,0,0,0,1.542,1.069c.448.269.832.415,1.072.567s.37.239.356.288" transform="translate(-125.015 -17.427)"/>
              <path id="Trazado_238851" data-name="Trazado 238851" d="M151.263,127.089c-.014.049-.168.046-.451-.006a7.122,7.122,0,0,1-1.221-.328,8.865,8.865,0,0,1-3.785-2.768,9.8,9.8,0,0,1-1.554-2.912,12.139,12.139,0,0,1-.615-3.726,9.01,9.01,0,0,1,.848-4.178,9.3,9.3,0,0,1,3.067-3.393,10.69,10.69,0,0,1,4.212-1.682,12.861,12.861,0,0,1,4.177,0,16.962,16.962,0,0,1,6.428,2.55,23.193,23.193,0,0,1,3.6,2.86c.772.757,1.142,1.231,1.077,1.3s-.57-.249-1.444-.86a40.622,40.622,0,0,0-3.766-2.405,17.511,17.511,0,0,0-6.091-2.1,12.07,12.07,0,0,0-3.727.075,9.558,9.558,0,0,0-3.635,1.48,8.076,8.076,0,0,0-2.614,2.841,7.931,7.931,0,0,0-.768,3.514,11.52,11.52,0,0,0,.422,3.349,9.316,9.316,0,0,0,1.226,2.661,8.751,8.751,0,0,0,1.644,1.8,10.877,10.877,0,0,0,1.542,1.069c.448.269.832.415,1.072.567s.37.239.356.288" transform="translate(-124.805 -19.076)"/>
              <path id="Trazado_238852" data-name="Trazado 238852" d="M147.286,158.354c-.014.049-.168.046-.451-.006a7.12,7.12,0,0,1-1.221-.328,8.865,8.865,0,0,1-3.785-2.768,9.791,9.791,0,0,1-1.554-2.912,12.138,12.138,0,0,1-.615-3.726,9.01,9.01,0,0,1,.848-4.178,9.3,9.3,0,0,1,3.067-3.393,10.69,10.69,0,0,1,4.212-1.682,12.862,12.862,0,0,1,4.176,0,16.962,16.962,0,0,1,6.428,2.55,23.194,23.194,0,0,1,3.6,2.86c.772.757,1.142,1.23,1.077,1.3s-.57-.249-1.444-.86a40.648,40.648,0,0,0-3.766-2.4,17.492,17.492,0,0,0-6.091-2.1,12.07,12.07,0,0,0-3.727.075,9.558,9.558,0,0,0-3.635,1.48,8.068,8.068,0,0,0-2.614,2.841,7.934,7.934,0,0,0-.768,3.514,11.52,11.52,0,0,0,.422,3.349,9.315,9.315,0,0,0,1.226,2.661,8.751,8.751,0,0,0,1.644,1.8,10.956,10.956,0,0,0,1.542,1.069c.448.269.832.415,1.072.567s.37.239.356.288" transform="translate(-124.596 -20.725)"/>
              <path id="Trazado_238853" data-name="Trazado 238853" d="M143.311,189.62c-.014.049-.168.046-.451-.006a7.123,7.123,0,0,1-1.221-.328,8.857,8.857,0,0,1-3.785-2.769,9.786,9.786,0,0,1-1.554-2.911,12.139,12.139,0,0,1-.615-3.726,9.01,9.01,0,0,1,.848-4.178,9.3,9.3,0,0,1,3.067-3.393,10.69,10.69,0,0,1,4.213-1.682,12.861,12.861,0,0,1,4.176,0,16.961,16.961,0,0,1,6.428,2.55,23.192,23.192,0,0,1,3.6,2.86c.772.757,1.142,1.23,1.077,1.3s-.57-.249-1.444-.86a40.617,40.617,0,0,0-3.766-2.405,17.511,17.511,0,0,0-6.091-2.1,12.069,12.069,0,0,0-3.727.075,9.558,9.558,0,0,0-3.635,1.48,8.068,8.068,0,0,0-2.614,2.841,7.931,7.931,0,0,0-.768,3.514,11.52,11.52,0,0,0,.422,3.349A9.315,9.315,0,0,0,138.7,185.9a8.751,8.751,0,0,0,1.644,1.8,10.954,10.954,0,0,0,1.542,1.069c.448.269.832.415,1.072.567s.37.239.356.288" transform="translate(-124.386 -22.374)"/>
              <path id="Trazado_238854" data-name="Trazado 238854" d="M139.335,220.886c-.014.049-.168.046-.451-.006a7.122,7.122,0,0,1-1.221-.328,8.864,8.864,0,0,1-3.785-2.768,9.8,9.8,0,0,1-1.554-2.912,12.138,12.138,0,0,1-.615-3.726,9,9,0,0,1,.848-4.177,9.291,9.291,0,0,1,3.067-3.394,10.691,10.691,0,0,1,4.213-1.682,12.861,12.861,0,0,1,4.176,0,16.962,16.962,0,0,1,6.428,2.55,23.2,23.2,0,0,1,3.6,2.86c.772.757,1.142,1.231,1.077,1.3s-.57-.249-1.444-.86a40.644,40.644,0,0,0-3.766-2.4,17.492,17.492,0,0,0-6.091-2.1,12.07,12.07,0,0,0-3.727.075,9.558,9.558,0,0,0-3.635,1.48,8.076,8.076,0,0,0-2.613,2.841,7.931,7.931,0,0,0-.768,3.514,11.519,11.519,0,0,0,.422,3.349,9.315,9.315,0,0,0,1.226,2.661,8.75,8.75,0,0,0,1.644,1.8,10.877,10.877,0,0,0,1.542,1.069c.448.269.832.415,1.072.567s.37.239.356.288" transform="translate(-124.176 -24.022)"/>
              <path id="Trazado_238855" data-name="Trazado 238855" d="M135.359,252.152c-.014.049-.168.046-.451-.006a7.121,7.121,0,0,1-1.221-.328,8.857,8.857,0,0,1-3.785-2.769,9.785,9.785,0,0,1-1.554-2.911,12.139,12.139,0,0,1-.615-3.726,9.01,9.01,0,0,1,.848-4.178,9.3,9.3,0,0,1,3.067-3.393,10.69,10.69,0,0,1,4.213-1.682,12.861,12.861,0,0,1,4.176,0,16.962,16.962,0,0,1,6.428,2.55,23.192,23.192,0,0,1,3.6,2.86c.772.757,1.142,1.23,1.077,1.3s-.57-.249-1.444-.86a40.62,40.62,0,0,0-3.766-2.405,17.511,17.511,0,0,0-6.091-2.1,12.069,12.069,0,0,0-3.727.075,9.558,9.558,0,0,0-3.635,1.48,8.068,8.068,0,0,0-2.614,2.841,7.931,7.931,0,0,0-.768,3.514,11.519,11.519,0,0,0,.422,3.349,9.315,9.315,0,0,0,1.226,2.661,8.75,8.75,0,0,0,1.644,1.8,10.954,10.954,0,0,0,1.542,1.069c.447.269.832.415,1.072.567s.37.239.356.288" transform="translate(-123.967 -25.671)"/>
              <path id="Trazado_238856" data-name="Trazado 238856" d="M131.383,283.417c-.014.049-.168.046-.451-.006a7.124,7.124,0,0,1-1.221-.328,8.857,8.857,0,0,1-3.785-2.769,9.786,9.786,0,0,1-1.554-2.911,12.138,12.138,0,0,1-.615-3.726,9.01,9.01,0,0,1,.848-4.178,9.3,9.3,0,0,1,3.067-3.393,10.691,10.691,0,0,1,4.213-1.682,12.862,12.862,0,0,1,4.176,0,16.962,16.962,0,0,1,6.428,2.55,23.194,23.194,0,0,1,3.6,2.86c.772.757,1.142,1.231,1.077,1.3s-.57-.249-1.444-.86a40.6,40.6,0,0,0-3.766-2.405,17.511,17.511,0,0,0-6.091-2.1,12.07,12.07,0,0,0-3.727.075,9.558,9.558,0,0,0-3.635,1.48,8.076,8.076,0,0,0-2.614,2.841,7.931,7.931,0,0,0-.768,3.514,11.52,11.52,0,0,0,.422,3.349,9.316,9.316,0,0,0,1.226,2.661,8.75,8.75,0,0,0,1.644,1.8,10.955,10.955,0,0,0,1.542,1.069c.448.269.832.415,1.072.567s.37.239.356.288" transform="translate(-123.757 -27.32)"/>
            </g>
          </g>
        </g>
        <rect id="Rectángulo_216853" data-name="Rectángulo 216853" width="13.763" height="23.046" transform="translate(354.448 77.022) rotate(-82.753)" fill="#e8505b"/>
        <path id="Trazado_238857" data-name="Trazado 238857" d="M349.065,76.735a2.146,2.146,0,0,1-.379-.025l-1.107-.122-4.248-.516-15.613-1.991-51.485-6.754-14.674-1.95c-4.74-.62-9.312-1.27-13.665-1.8a47.873,47.873,0,0,0-12.386-.131c-3.841.538-7.47,1.36-10.839.958a12.829,12.829,0,0,1-4.557-1.412c-1.339-.7-2.5-1.507-3.621-2.2a18.668,18.668,0,0,0-3.226-1.7,8.967,8.967,0,0,0-2.988-.558,5.751,5.751,0,0,0-3.931,1.271,6.425,6.425,0,0,0-.954,1.127,2.115,2.115,0,0,1,.179-.336,2.068,2.068,0,0,1,.268-.386,2.931,2.931,0,0,1,.44-.48,5.784,5.784,0,0,1,4-1.389,9.1,9.1,0,0,1,3.068.53,18.671,18.671,0,0,1,3.291,1.686c1.13.688,2.3,1.481,3.62,2.158a12.546,12.546,0,0,0,4.453,1.344c3.29.373,6.876-.455,10.743-1.016a48.02,48.02,0,0,1,12.493.084c4.372.516,8.934,1.157,13.678,1.769L276.3,66.838l51.466,6.9,15.592,2.147,4.236.608,1.1.171a2.22,2.22,0,0,1,.372.075" transform="translate(-10.831 -3.076)" fill="#263238"/>
        <path id="Trazado_238858" data-name="Trazado 238858" d="M345.257,91.343a1.856,1.856,0,0,1-.355-.02l-1.034-.107-3.973-.458-14.6-1.778-48.149-6.05-48.138-6.194L214.425,74.8l-3.961-.55-1.029-.155a1.888,1.888,0,0,1-.349-.07,1.856,1.856,0,0,1,.355.02l1.034.107,3.973.458,14.6,1.778,48.156,6.051,48.131,6.193,14.581,1.933,3.961.55,1.029.155a1.888,1.888,0,0,1,.349.07" transform="translate(-11.026 -3.903)" fill="#263238"/>
        <path id="Trazado_238859" data-name="Trazado 238859" d="M328.552,175.349a1.673,1.673,0,0,1-.337-.017l-.984-.1-3.777-.434-13.879-1.686-45.766-5.747-45.756-5.892-13.859-1.841-3.765-.526-.978-.149a1.688,1.688,0,0,1-.331-.067,1.673,1.673,0,0,1,.337.017l.984.1,3.776.434,13.878,1.686,45.775,5.748,45.748,5.891,13.859,1.841,3.765.525.978.15a1.684,1.684,0,0,1,.331.067" transform="translate(-10.5 -8.378)" fill="#263238"/>
        <path id="Trazado_238860" data-name="Trazado 238860" d="M324.939,203.755a1.676,1.676,0,0,1-.337-.017l-.984-.1-3.777-.434-13.879-1.686-45.766-5.747-45.756-5.892-13.859-1.841-3.765-.526-.978-.149a1.685,1.685,0,0,1-.331-.067,1.674,1.674,0,0,1,.337.017l.984.1,3.776.434,13.878,1.686,45.775,5.748,45.748,5.891,13.859,1.841,3.765.525.978.15a1.685,1.685,0,0,1,.331.067" transform="translate(-10.31 -9.876)" fill="#263238"/>
        <path id="Trazado_238861" data-name="Trazado 238861" d="M324.085,188.922a1.609,1.609,0,0,1-.331-.017l-.963-.1-3.7-.423-13.59-1.649-44.813-5.626-44.8-5.771-13.571-1.8-3.686-.515-.957-.147a1.687,1.687,0,0,1-.324-.066,1.634,1.634,0,0,1,.33.016l.963.1,3.7.424,13.589,1.649,44.821,5.627,44.8,5.77,13.571,1.8,3.686.515.958.147a1.6,1.6,0,0,1,.324.066" transform="translate(-10.407 -9.112)" fill="#263238"/>
        <path id="Trazado_238862" data-name="Trazado 238862" d="M252.021,207.35a2.7,2.7,0,0,1-.6-.026l-1.7-.17-6.238-.714L222.93,203.9l-20.543-2.686-6.218-.87-1.687-.261a2.738,2.738,0,0,1-.584-.124,2.707,2.707,0,0,1,.6.026l1.7.17,6.238.714,20.56,2.542,20.54,2.686,6.219.87,1.687.261a2.74,2.74,0,0,1,.584.124" transform="translate(-10.225 -10.544)" fill="#263238"/>
        <path id="Trazado_238863" data-name="Trazado 238863" d="M226.259,88.92c-.017.135-4.892-.373-10.885-1.136s-10.841-1.49-10.824-1.626,4.89.374,10.886,1.137,10.841,1.489,10.823,1.625" transform="translate(-10.786 -4.542)" fill="#263238"/>
        <path id="Trazado_238864" data-name="Trazado 238864" d="M330.775,159.914a1.625,1.625,0,0,1-.326-.015l-.95-.094c-.834-.1-2.063-.224-3.651-.357s-3.529-.289-5.788-.42-4.832-.262-7.678-.387c-5.691-.254-12.475-.43-20-.869-3.763-.228-7.714-.515-11.789-1.042-4.07-.552-8.256-1.223-12.559-1.859l-44.025-6.736-13.332-2.1-3.62-.6-.94-.167a1.608,1.608,0,0,1-.318-.074,1.617,1.617,0,0,1,.326.024l.946.119,3.635.5,13.356,1.949,44.046,6.593c4.3.635,8.5,1.311,12.548,1.867,4.055.531,8,.828,11.754,1.068,7.515.463,14.3.675,19.99.974,2.847.147,5.421.291,7.68.46s4.2.335,5.789.5,2.814.321,3.644.449l.944.142a1.6,1.6,0,0,1,.319.065" transform="translate(-10.852 -7.656)" fill="#263238"/>
        <path id="Trazado_238865" data-name="Trazado 238865" d="M81.78,238.294S197.7,123.677,210.882,105.517l-7.934-7.3-130.719,130Z" transform="translate(-3.809 -5.179)" fill="#e0e0e0"/>
        <path id="Trazado_238866" data-name="Trazado 238866" d="M44.836,267.317c5.217.1,19.309-1.913,39.16-22.39l17.517-15.805-13.4-12.9s26.713-24.745,25.435-26.1-15.47,11.821-26.69,21.53c-10.207,8.832-44.26,39.98-45.049,52.348a3.108,3.108,0,0,0,3.03,3.311" transform="translate(-2.204 -10.021)" fill="#e8505b"/>
        <g id="Grupo_174208" data-name="Grupo 174208" transform="translate(39.873 180.01)" opacity="0.2">
          <g id="Grupo_174207" data-name="Grupo 174207">
            <g id="Grupo_174206" data-name="Grupo 174206" clip-path="url(#clip-path-6)">
              <path id="Trazado_238867" data-name="Trazado 238867" d="M113.561,190.128c-1.278-1.353-15.471,11.821-26.69,21.53-.885.764-1.958,1.707-3.163,2.781L97.016,227.19,79.533,243.033c-17.976,18.62-31.242,22.024-37.441,22.428a3.086,3.086,0,0,0,2.759,1.857c5.216.1,19.309-1.913,39.16-22.39l17.516-15.805-13.4-12.9s26.713-24.746,25.435-26.1" transform="translate(-42.092 -190.031)"/>
            </g>
          </g>
        </g>
        <path id="Trazado_238868" data-name="Trazado 238868" d="M106.591,208.979l91.361-91.826-3.869-3.559-91.207,91.466Z" transform="translate(-5.425 -5.99)" fill="#263238"/>
        <path id="Trazado_238869" data-name="Trazado 238869" d="M217.463,105.247s8.666-13.654,6.245-14.37-14.1,6.951-14.1,6.951l2.232,2.307L198.628,112.9,203,115.953l12.068-12.746Z" transform="translate(-10.474 -4.79)" fill="#455a64"/>
        <path id="Trazado_238870" data-name="Trazado 238870" d="M124.049,168.809h0a8.522,8.522,0,0,0,9.167-8.17c.178-4.639.333-9.328.333-9.328s7.03-.658,7.539-7.615.277-23.016.277-23.016a24.241,24.241,0,0,0-24.5,1.575l-1.08.731.394,37.417a8.52,8.52,0,0,0,7.867,8.405" transform="translate(-6.106 -6.227)" fill="#ffbe9d"/>
        <path id="Trazado_238871" data-name="Trazado 238871" d="M123.463,111.28c-4.233-.127-8.074,2.638-10.037,6.042s-2.392,7.352-2.575,11.191a212.445,212.445,0,0,0,.535,22.6,2.445,2.445,0,0,0,.483,1.592,3.03,3.03,0,0,0,1.834.689,143.049,143.049,0,0,0,38.751.059c.847-1.532-.341-3.351-1.713-4.529s-3.068-2.247-3.563-3.9c-.78-2.6,1.806-5.39.8-7.926-.758-1.9-3.263-2.843-4.144-4.7-1.48-3.126,2.338-6.9.644-9.94-.883-1.583-2.948-2.283-4.253-3.6-1.154-1.166-1.649-2.75-2.65-4.029a10.274,10.274,0,0,0-6.945-3.39,25.487,25.487,0,0,0-7.165-.148" transform="translate(-5.839 -5.858)" fill="#e8505b"/>
        <path id="Trazado_238872" data-name="Trazado 238872" d="M112.962,119.687c-1.8.876-2.574,3.022-2.834,5s-.19,4.06-1.015,5.882c-.88,1.945-2.714,3.428-3.2,5.507-.629,2.7,1.153,5.889-.457,8.15-1.036,1.457-3.071,1.822-4.348,3.074-1.764,1.732-1.608,4.569-1.326,7.025l23.226-.207" transform="translate(-5.253 -6.311)" fill="#e8505b"/>
        <path id="Trazado_238873" data-name="Trazado 238873" d="M117.826,115.472a7.072,7.072,0,0,0-10.669-4.733c-3.711,2.291-5.022,7.763-9.2,9.031-1.087.331-2.425.428-3,1.409a2.243,2.243,0,0,0,1.212,2.917,6.505,6.505,0,0,0,3.492.281,2.219,2.219,0,0,0-2.423,2.572,2.833,2.833,0,0,0,3.194,2.038,3.943,3.943,0,0,0,2.939-2.691q-.754,2.19-1.51,4.38c2.888.507,5.35-2.094,6.815-4.635s2.792-5.51,5.5-6.643c1.2-.5,2.6-.595,3.632-1.389s1.237-2.783-.008-3.169" transform="translate(-4.996 -5.785)" fill="#e8505b"/>
        <path id="Trazado_238874" data-name="Trazado 238874" d="M120.237,115.88c.025-.045.542.21,1.017.971a3.759,3.759,0,0,1-2.2,5.639,1.967,1.967,0,0,1-1.407.026c0-.083.537-.057,1.295-.356a3.651,3.651,0,0,0,2.006-5.141c-.355-.733-.768-1.077-.712-1.139" transform="translate(-6.204 -6.11)" fill="#263238"/>
        <path id="Trazado_238875" data-name="Trazado 238875" d="M146.972,348.639l11.906,54.916,15.708-.367-6.959-59.406Z" transform="translate(-7.75 -18.128)" fill="#ffbe9d"/>
        <path id="Trazado_238876" data-name="Trazado 238876" d="M87.473,187.374s-.267.383-.7,1.07c-2.524,4.008-9.626,18.381-3.642,28l15.021-13.2,2.539-5.933" transform="translate(-4.26 -9.881)" fill="#ffbe9d"/>
        <path id="Trazado_238877" data-name="Trazado 238877" d="M96.7,302.093l-5.058,93.762,15.459,3.735L118.7,304.069Z" transform="translate(-4.833 -15.93)" fill="#ffbe9d"/>
        <path id="Trazado_238878" data-name="Trazado 238878" d="M164.608,176.493l-21.793,5.258-1.259,16.81,3.035,9.586c-.037.348,4.9,16.469,4.9,16.469l1.529,5.331-49.807.518c-.166-5.821,3.706-11.56,3.706-11.56,2.834-4.806,2.1-12.062.781-17.57-.416-1.743-.971-4.616-1.192-6.4l-.038-.306-2.85,5.014L84.327,187.164c5.616-10.831,13.855-21.784,14.847-22.6a20.361,20.361,0,0,1,12.834-4.705l21.5.183s16.928-2.12,26.8-3.786Z" transform="translate(-4.447 -8.24)" fill="#455a64"/>
        <path id="Trazado_238879" data-name="Trazado 238879" d="M161.358,158.807a14.209,14.209,0,0,0-2.25,1.6c-.671.586-1.419,1.382-2.284,2.315a22.168,22.168,0,0,1-3.185,2.953,20.3,20.3,0,0,1-10.512,3.912,19.713,19.713,0,0,1-6.661-.628c-2.251-.61-4.433-1.612-6.76-2.271a14.486,14.486,0,0,0-3.5-.583,13.571,13.571,0,0,0-3.415.4,32.322,32.322,0,0,0-6.114,2.44,48.357,48.357,0,0,1-5.525,2.424,16.09,16.09,0,0,1-12.58-.762,14.293,14.293,0,0,1-1.78-1.057,4.039,4.039,0,0,1-.566-.447c.031-.049.813.579,2.43,1.331a16.445,16.445,0,0,0,7.3,1.517,16.109,16.109,0,0,0,5.064-.968,49.392,49.392,0,0,0,5.46-2.446,32.24,32.24,0,0,1,6.2-2.5,13.935,13.935,0,0,1,3.545-.422,14.882,14.882,0,0,1,3.621.6c2.378.674,4.554,1.678,6.755,2.279a19.417,19.417,0,0,0,6.5.641,20.186,20.186,0,0,0,10.338-3.74,22.714,22.714,0,0,0,3.191-2.863,29.816,29.816,0,0,1,2.359-2.27,9.651,9.651,0,0,1,1.712-1.169,4.773,4.773,0,0,1,.488-.229c.113-.046.171-.066.175-.059" transform="translate(-5.074 -8.374)" fill="#263238"/>
        <path id="Trazado_238880" data-name="Trazado 238880" d="M142.052,188.11a2,2,0,0,1-.434.418,3.816,3.816,0,0,1-1.589.687,6.184,6.184,0,0,1-2.737-.14,11.05,11.05,0,0,1-3.259-1.586,28.142,28.142,0,0,0-3.683-2.248,10.651,10.651,0,0,0-4.774-.871c-3.492.108-7.122,1.577-10.835,3.183a38.471,38.471,0,0,1-5.629,1.958,14.84,14.84,0,0,1-5.56.4,11.725,11.725,0,0,1-4.732-1.759,16.837,16.837,0,0,1-3.36-2.824,31.788,31.788,0,0,1-3.721-5.11c-.386-.638-.674-1.139-.866-1.481a2.732,2.732,0,0,1-.27-.536,2.734,2.734,0,0,1,.355.484l.943,1.429a35.193,35.193,0,0,0,3.812,4.973,16.8,16.8,0,0,0,3.322,2.716,11.4,11.4,0,0,0,4.575,1.656,14.5,14.5,0,0,0,5.385-.416,38.791,38.791,0,0,0,5.554-1.944c3.7-1.6,7.406-3.094,11.011-3.181a10.978,10.978,0,0,1,4.957.952,27.44,27.44,0,0,1,3.707,2.33,11.014,11.014,0,0,0,3.138,1.609,6.144,6.144,0,0,0,2.63.217,4.524,4.524,0,0,0,2.057-.915" transform="translate(-4.778 -9.397)" fill="#263238"/>
        <path id="Trazado_238881" data-name="Trazado 238881" d="M143.709,205.473c.012.011-.072.116-.246.306a5.527,5.527,0,0,1-.849.743,8.159,8.159,0,0,1-3.894,1.373,14.16,14.16,0,0,1-6.072-.822c-2.194-.748-4.434-1.938-6.865-2.927a16.461,16.461,0,0,0-7.159-1.389,16.105,16.105,0,0,0-5.809,1.4,19.861,19.861,0,0,0-4.615,3.081c-.012-.011.071-.117.243-.308a8.6,8.6,0,0,1,.793-.794,14.6,14.6,0,0,1,3.432-2.3A15.915,15.915,0,0,1,118.6,202.3a16.547,16.547,0,0,1,7.367,1.385c2.468,1.005,4.689,2.2,6.833,2.956a14.223,14.223,0,0,0,5.889.9,8.42,8.42,0,0,0,3.818-1.185c.8-.518,1.164-.927,1.2-.889" transform="translate(-5.706 -10.666)" fill="#263238"/>
        <path id="Trazado_238882" data-name="Trazado 238882" d="M148.986,221.848c-.031.042-.506-.35-1.48-.847a12.092,12.092,0,0,0-4.435-1.179,19.979,19.979,0,0,0-6.784.741c-2.506.661-5.165,1.734-8.049,2.643a25.624,25.624,0,0,1-8.417,1.325,24.055,24.055,0,0,1-6.871-1.124,22.41,22.41,0,0,1-4.3-1.863c-.487-.266-.844-.507-1.086-.67a1.573,1.573,0,0,1-.354-.269c.025-.04.546.28,1.53.769a25.7,25.7,0,0,0,4.315,1.7,24.684,24.684,0,0,0,6.776,1,25.848,25.848,0,0,0,8.264-1.342c2.856-.9,5.533-1.964,8.08-2.611a19.645,19.645,0,0,1,6.932-.648,11.515,11.515,0,0,1,4.493,1.356,7.539,7.539,0,0,1,1.06.716c.227.185.34.287.33.3" transform="translate(-5.653 -11.569)" fill="#263238"/>
        <path id="Trazado_238883" data-name="Trazado 238883" d="M101.7,232.618,92.156,342.11l23.59.14L127.4,254.5l15.218,88.547,23.6-4.356L151.759,233.54Z" transform="translate(-4.86 -12.266)" fill="#263238"/>
        <path id="Trazado_238884" data-name="Trazado 238884" d="M145.19,252.693c.016.135-8.072,1.2-18.062,2.39s-18.107,2.035-18.123,1.9,8.071-1.206,18.064-2.39,18.105-2.036,18.121-1.9" transform="translate(-5.748 -13.324)" fill="#455a64"/>
        <path id="Trazado_238885" data-name="Trazado 238885" d="M177.392,408.1l-.066-1.756-17.786.514.154,5.79,1.1.036c4.894.121,24.891.295,28.129-.713,3.611-1.125-11.531-3.871-11.531-3.871" transform="translate(-8.413 -21.427)" fill="#e8505b"/>
        <g id="Grupo_174211" data-name="Grupo 174211" transform="translate(151.153 386.35)" opacity="0.6">
          <g id="Grupo_174210" data-name="Grupo 174210">
            <g id="Grupo_174209" data-name="Grupo 174209" clip-path="url(#clip-path-7)">
              <path id="Trazado_238886" data-name="Trazado 238886" d="M166.112,412.423a5.688,5.688,0,0,0-2.368-3.449,6.3,6.3,0,0,0-4.176-1.086l.139,4.6Z" transform="translate(-159.567 -407.857)" fill="#fff"/>
            </g>
          </g>
        </g>
        <g id="Grupo_174214" data-name="Grupo 174214" transform="translate(151.282 388.254)" opacity="0.6">
          <g id="Grupo_174213" data-name="Grupo 174213">
            <g id="Grupo_174212" data-name="Grupo 174212" clip-path="url(#clip-path-8)">
              <path id="Trazado_238887" data-name="Trazado 238887" d="M184.806,409.867s5.317,1.272,4.684,2.1-20.849,1.357-29.789.866l.018-.368,23.586-.433s.471-2.094,1.5-2.162" transform="translate(-159.703 -409.867)" fill="#fff"/>
            </g>
          </g>
        </g>
        <path id="Trazado_238888" data-name="Trazado 238888" d="M159.427,412.56a1.83,1.83,0,0,0,.305.023l.876.026,3.222.045c2.721.02,6.48,0,10.631-.106s7.907-.279,10.622-.438l3.215-.209.872-.07a1.657,1.657,0,0,0,.3-.039,1.882,1.882,0,0,0-.306,0l-.875.034-3.217.145c-2.717.123-6.471.273-10.621.38s-7.9.148-10.625.164l-3.221.019-.876.012a1.83,1.83,0,0,0-.306.017" transform="translate(-8.407 -21.714)" fill="#263238"/>
        <path id="Trazado_238889" data-name="Trazado 238889" d="M184.622,412.273a6.428,6.428,0,0,1,.558-1.444,6.935,6.935,0,0,1,1.062-1.175,2.351,2.351,0,0,0-1.248,1.075,2.08,2.08,0,0,0-.371,1.543" transform="translate(-9.734 -21.602)" fill="#263238"/>
        <path id="Trazado_238890" data-name="Trazado 238890" d="M179.028,409.884c.051.028.293-.261.539-.646s.405-.721.354-.748-.292.261-.539.646-.405.72-.354.748" transform="translate(-9.44 -21.54)" fill="#263238"/>
        <path id="Trazado_238891" data-name="Trazado 238891" d="M177.493,409.2c.041.04.315-.141.612-.4s.506-.509.465-.548-.315.141-.613.4-.5.509-.464.548" transform="translate(-9.359 -21.528)" fill="#263238"/>
        <path id="Trazado_238892" data-name="Trazado 238892" d="M176.486,407.637a4.338,4.338,0,0,0,1.851-.029,4.335,4.335,0,0,0-1.851.029" transform="translate(-9.306 -21.489)" fill="#263238"/>
        <path id="Trazado_238893" data-name="Trazado 238893" d="M176.123,406.494a1.886,1.886,0,0,0,1.039.252,1.916,1.916,0,0,0,1.061-.16,89.615,89.615,0,0,1-2.1-.092" transform="translate(-9.287 -21.434)" fill="#263238"/>
        <path id="Trazado_238894" data-name="Trazado 238894" d="M179.617,408.344a3.537,3.537,0,0,0,1.138-.037,7.121,7.121,0,0,0,1.2-.279,3.466,3.466,0,0,0,.685-.284.58.58,0,0,0,.272-.336.4.4,0,0,0-.186-.418,2.178,2.178,0,0,0-2.562.635,1.819,1.819,0,0,0-.35.716c-.04.182-.033.285-.021.286a2.9,2.9,0,0,1,.492-.916,2.063,2.063,0,0,1,.954-.613,1.889,1.889,0,0,1,1.358.05c.185.12.12.319-.078.436a3.479,3.479,0,0,1-.632.271,8.227,8.227,0,0,1-1.163.315c-.677.13-1.111.143-1.11.175" transform="translate(-9.472 -21.452)" fill="#263238"/>
        <path id="Trazado_238895" data-name="Trazado 238895" d="M179.845,408.365a.985.985,0,0,0,.109-.738,1.667,1.667,0,0,0-.334-.764,1.16,1.16,0,0,0-.963-.514.42.42,0,0,0-.336.5,1.116,1.116,0,0,0,.208.468,3.264,3.264,0,0,0,.556.625,1.656,1.656,0,0,0,.664.411c.02-.026-.232-.184-.556-.51a3.729,3.729,0,0,1-.5-.622c-.163-.22-.282-.619,0-.674a1.038,1.038,0,0,1,.763.43,1.683,1.683,0,0,1,.342.679,3.552,3.552,0,0,1,.041.712" transform="translate(-9.403 -21.427)" fill="#263238"/>
        <path id="Trazado_238896" data-name="Trazado 238896" d="M159.664,407.83c0,.037.506-.059,1.309.008a5.988,5.988,0,0,1,2.887,1.018,5.363,5.363,0,0,1,1.855,2.3c.291.7.332,1.173.371,1.167a.879.879,0,0,0-.009-.333,4.1,4.1,0,0,0-.22-.883,5.113,5.113,0,0,0-1.868-2.407,5.757,5.757,0,0,0-3.007-1,4.981,4.981,0,0,0-.973.049,1.063,1.063,0,0,0-.346.083" transform="translate(-8.419 -21.499)" fill="#263238"/>
        <path id="Trazado_238897" data-name="Trazado 238897" d="M168.777,410.914a15.649,15.649,0,0,0,5.176-.09c-.008-.058-1.162.038-2.588.062s-2.583-.029-2.588.028" transform="translate(-8.9 -21.663)" fill="#263238"/>
        <path id="Trazado_238898" data-name="Trazado 238898" d="M165.113,411.012c-.042.042.1.225.227.469s.2.46.258.456.083-.262-.065-.543-.383-.422-.42-.382" transform="translate(-8.706 -21.673)" fill="#263238"/>
        <path id="Trazado_238899" data-name="Trazado 238899" d="M163.684,409.451c-.041.04.079.208.267.376s.374.272.415.231-.078-.207-.266-.375-.375-.272-.416-.232" transform="translate(-8.631 -21.591)" fill="#263238"/>
        <path id="Trazado_238900" data-name="Trazado 238900" d="M161.686,408.767c.014.056.249.047.512.126s.455.2.5.163-.11-.261-.437-.354-.595.015-.575.065" transform="translate(-8.526 -21.55)" fill="#263238"/>
        <path id="Trazado_238901" data-name="Trazado 238901" d="M160.269,408.463c-.02.052.084.134.233.183s.285.047.305,0-.084-.134-.233-.183-.285-.047-.305,0" transform="translate(-8.451 -21.537)" fill="#263238"/>
        <path id="Trazado_238902" data-name="Trazado 238902" d="M91.014,400.227l-2.632,11.581h17.791l.762-7.539Z" transform="translate(-4.661 -21.105)" fill="#e8505b"/>
        <path id="Trazado_238903" data-name="Trazado 238903" d="M106.562,410.645a12.5,12.5,0,0,1-2.592.149c-1.6.017-3.814-.026-6.253-.116l-6.242-.265a14.618,14.618,0,0,1-2.585-.207,12.589,12.589,0,0,1,2.593-.141c1.6-.013,3.813.031,6.253.121l6.241.26a14.731,14.731,0,0,1,2.586.2" transform="translate(-4.687 -21.623)" fill="#263238"/>
        <path id="Trazado_238904" data-name="Trazado 238904" d="M99.555,402.61a28.541,28.541,0,0,1-.5,7.467,28.543,28.543,0,0,1,.5-7.467" transform="translate(-5.218 -21.23)" fill="#263238"/>
        <g id="Grupo_174217" data-name="Grupo 174217" transform="translate(83.721 388.582)" opacity="0.6">
          <g id="Grupo_174216" data-name="Grupo 174216">
            <g id="Grupo_174215" data-name="Grupo 174215" clip-path="url(#clip-path-9)">
              <path id="Trazado_238905" data-name="Trazado 238905" d="M88.381,412.335h17.791l.17-1.682-17.639-.44-.321,1.921" transform="translate(-88.381 -410.213)" fill="#fff"/>
            </g>
          </g>
        </g>
        <path id="Trazado_238906" data-name="Trazado 238906" d="M206.287,117.518l-6.488,2.341c-.093-2.6-1.859-5.306-1.859-4s-.614,8.006-.614,8.006L183.792,147.4c-1.882,3.75-5.273,5.936-7.708,6.323l-11.1,2.377,3.119,14.672,15.467-3.819a13.043,13.043,0,0,0,8.911-7.641l12.868-30.847a49.217,49.217,0,0,0,2.167-6.106,6.034,6.034,0,0,0-1.23-4.846" transform="translate(-8.7 -6.091)" fill="#ffbe9d"/>
      </g>
    </g>
  </g>
</svg>
