<svg xmlns="http://www.w3.org/2000/svg" xmlns:xlink="http://www.w3.org/1999/xlink" width="619.917" height="315.556" viewBox="0 0 619.917 315.556">
  <defs>
    <clipPath id="clip-path">
      <rect id="Rectángulo_218354" data-name="Rectángulo 218354" width="619.917" height="315.556" fill="none"/>
    </clipPath>
    <clipPath id="clip-path-2">
      <rect id="Rectángulo_218353" data-name="Rectángulo 218353" width="618.887" height="315.556" fill="none"/>
    </clipPath>
    <clipPath id="clip-path-3">
      <rect id="Rectángulo_218352" data-name="Rectángulo 218352" width="91.297" height="81.32" fill="none"/>
    </clipPath>
  </defs>
  <g id="Grupo_175455" data-name="Grupo 175455" transform="translate(-38 0)">
    <g id="Enmascarar_grupo_175454" data-name="Enmascarar grupo 175454" transform="translate(38 0)" clip-path="url(#clip-path)">
      <g id="Grupo_175453" data-name="Grupo 175453" transform="translate(1.031 0.001)">
        <g id="Grupo_175452" data-name="Grupo 175452" clip-path="url(#clip-path-2)">
          <path id="Trazado_247014" data-name="Trazado 247014" d="M49.729,404.418a65.966,65.966,0,0,0,4.764,10.472q.814,1.444,1.712,2.847H633.321s52.562-120.369-19.046-178.644q-1.343-1.091-2.695-2.141-1.245-.963-2.5-1.891-1.221-.906-2.455-1.775c-21.584-15.245-45.218-22.784-70.008-27.458q-1.309-.25-2.625-.482c-.832-.153-1.665-.3-2.5-.442-20.1-3.467-40.908-5.291-61.962-8-7.329-.945-14.688-2-22.057-3.263-29.486-5.06-59.134-13.555-87.678-32.321-35.215-23.152-71.525-29.015-102.38-24.42q-3.154.468-6.224,1.079-4.517.9-8.843,2.089c-37.057,10.171-63.29,35.713-64.8,62.128-1.014,17.8-3.126,34.91-7.8,49.751a90.2,90.2,0,0,1-8.3,19.008q-1.394,2.349-2.944,4.549c-10.207,14.455-25.717,23.98-49.351,25.564-16.429,1.1-30.269,8.462-40.8,19.356l-.294.305c-20.356,21.3-28.212,55.854-18.332,83.689" transform="translate(-43.616 -103.929)" fill="#fcecdb"/>
          <path id="Trazado_247015" data-name="Trazado 247015" d="M1771.552,412.753a65.971,65.971,0,0,0,4.764,10.472h196.7V146.316q-4.517.9-8.843,2.089c-37.057,10.171-63.29,35.713-64.8,62.127-1.015,17.8-3.126,34.91-7.8,49.751a90.208,90.208,0,0,1-8.3,19.008q-1.394,2.349-2.944,4.549c-10.207,14.455-25.716,23.98-49.351,25.564-16.429,1.1-30.269,8.462-40.8,19.356l-.293.305c-20.357,21.3-28.212,55.854-18.333,83.689" transform="translate(-1765.44 -112.264)" fill="#fff4eb"/>
          <path id="Trazado_247016" data-name="Trazado 247016" d="M629.814,533.489c1.01-.649,3.35-3.512,4.975-5.6-.233-.141-.364-.227-.364-.227,4.726-12.988,8.623-23.623,11.837-32.336a10.164,10.164,0,0,1-1.034-3.148c-1.163-5.989,4.676-8.262,4.676-8.262.029-.016.063-.029.094-.045-3.48-26.177,4.892-27.956,4.892-27.956a18.122,18.122,0,0,1,6.646-.5c1.234-2.659,3.707-4.293,7.786-4.5a10.532,10.532,0,0,1,3.994.684c-.19-.3-.377-.6-.563-.9-.855-.527-8.006-5.132-7.389-10.663a6.772,6.772,0,0,1,.725-2.547,9.64,9.64,0,0,1,.37-1.261c-.635-2.782-.673-5.042.051-6.334a13.784,13.784,0,0,1,5.639-4.981,4,4,0,0,0-1.8.238c1-.81,4.2-1.31,4.2-1.31,11.426-14.533,29.047,4.29,32.256,9.2a23.246,23.246,0,0,0,6.588,7.238,15.84,15.84,0,0,0,3.388-2.132c4.263-4.23,9.386-18.424,14.2-27.792a.1.1,0,0,0,.007-.016.445.445,0,0,0-.047,0c.59-1.584,4.535-7.737,4.535-7.737h0c.018-.016,2.511-2.058,9.436-4.488,0,0,.552-.211,1.476-.545.431-.691-.083-3.157-.8-5.708-.2-.707-.413-1.42-.626-2.1-.177-.566-.352-1.109-.521-1.614-1.463.447-2.462.653-2.462.653-1.4.209-2.982-1.2-4.483-3.321,7.369,1.266,14.728,2.318,22.057,3.263a11.43,11.43,0,0,0,3.909,4.207c.991-.11,2.194-.215,3.346-.271,0,0,7.411-.9,11.814.538.113.027.207.056.3.083,0,0,2.464.613,4.153,3.958a16.855,16.855,0,0,1,1.57,7.566l-.014-.014v.024a13.791,13.791,0,0,1-.04,1.782,33.629,33.629,0,0,1-1.046,6.285,131.772,131.772,0,0,0,.624,16.4,12.02,12.02,0,0,0,2.076,5.417,13.354,13.354,0,0,0,1.535,1.846c4.578,4.589,12.7,13.739,10.912,19.434-.011.446-.375.9-1.027,1.366,2.447,3.812,5.181,10.4,4.49,20.316-.586,8.414-1.658,44.168-2.776,54.748-.4,3.835-.759,6.563-.9,7.654a.029.029,0,0,0,0,.011,1.387,1.387,0,0,0,.274.936,47.63,47.63,0,0,1,4.131,7.766c7.055,16.806,4.347,36.112,1.508,47.771.038-.036.079-.07.115-.105-.487,3.123,1.553,4.3,2.854,6.879a11.491,11.491,0,0,1,.736,6.236H782.068c.525-4.4,8.109-4.014,9.81-5.107,1.539-.99,4.054-4.564,4.515-5.233.034,0,.067.007.1.009-2.388-11.159-7.384-33.388-11.663-44.951A29.588,29.588,0,0,0,782,548.229c-2.547-3.676-4.912-9.682-7.059-16.827-.307-1.026-.61-2.08-.911-3.15-.289,1.479-.555,2.836-.79,4.045-.249,1.277-.469,2.388-.646,3.312-.384,1.979-.6,3.1-.6,3.1a33.311,33.311,0,0,1,.739,12.516c-2.01,17.821-14.448,37.409-21.07,46.753a5.718,5.718,0,0,0-1.1,2.883,4.406,4.406,0,0,0,.913,2.473c1.708,2.525.736,6.236.736,6.236H726.187c.522-4.4,8.107-4.014,9.808-5.107,1.5-.963,6.3-5.823,7.416-6.965a.209.209,0,0,0,.034.018c2.273-9.224,7.389-31.34,8.262-46.82a44.486,44.486,0,0,0-.429-10.988c-.808-3.817-1.457-7.531-1.973-11.13a158.6,158.6,0,0,1-1.066-36.258c.283-3.247.658-6.242,1.07-8.957a174.025,174.025,0,0,1,2.888-18.918c-2.172-.334-3.4-.954-3.22-1.925,0,0-.545-2.345-1.42-5.93q-1.326.323-2.657.631a25.13,25.13,0,0,1-1.647,14.074c-.061.137-10.533,16.714-10.533,16.714a8.517,8.517,0,0,0-.965-1.214c.718,6.918,1.059,12.588,2.246,14.179,3.025,4.054,19.753,32.571-5.969,36.691a61.1,61.1,0,0,1-12.041.931c-.864-.007-1.694-.04-2.493-.094q-2.228.115-4.752.094c-13.118-.114-21.148-5.5-24.745-10.338-.956-1.29-4.479-7.171-8.791-15.047.128,7.909.182,13.643.182,13.643a2.662,2.662,0,0,1-1.117,2.562c.491,1.01,1.1,1.991,1.587,2.944a11.488,11.488,0,0,1,.736,6.236H650.572c.522-4.4,8.208-3.9,9.808-5.107a8.361,8.361,0,0,0,2.28-2.5c-.431-.034-.68-.061-.68-.061-1.833-5.477-3.424-10.553-4.8-15.26-5.26,7.9-9.611,13.741-9.611,13.741a3.205,3.205,0,0,1-2.647,1.887,4.156,4.156,0,0,0,.377,1.064,11.5,11.5,0,0,1,.734,6.236L620,540.42c.525-4.4,8.109-5.838,9.81-6.931m110.9-85.065c1.423-.756,2.839-1.526,4.2-2.291-1.369-5.246-2.926-10.909-4.407-15.61a82.137,82.137,0,0,1-10.6,12.7,17.307,17.307,0,0,1,10.806,5.2" transform="translate(-333.647 -295.763)" fill="#fae7d4"/>
          <path id="Trazado_247017" data-name="Trazado 247017" d="M1753.735,628.778a65.384,65.384,0,0,0,6.475,13.32h186.143v.02h12.99V474.035h-22.25V427.868h-22.25v62.37h-18.011v-13.93h-23.076a90.2,90.2,0,0,1-8.3,19.008v4.549h-2.944c-10.207,14.455-25.717,23.98-49.351,25.564-16.429,1.1-30.269,8.462-40.8,19.356l-.294.305c-20.356,21.3-28.212,55.854-18.332,83.689" transform="translate(-1747.623 -328.289)" fill="#f7dfc8"/>
          <path id="Trazado_247018" data-name="Trazado 247018" d="M1740.559,144.847V422.535h15.068V141.679a127.77,127.77,0,0,0-15.068,3.168" transform="translate(-1541.828 -108.706)" fill="#efcbab"/>
          <path id="Trazado_247019" data-name="Trazado 247019" d="M1932.119,1304.462h-12.99v-.02H1732.986a65.356,65.356,0,0,1-6.475-13.32h210.955v13.32Z" transform="translate(-1720.399 -990.633)" fill="#efcbab"/>
          <path id="Trazado_247020" data-name="Trazado 247020" d="M122.829,824.3c3-11.584,21.659-7.964,21.659-7.964s12.672,20.272,16.359,20.754-7.6-19.548-7.6-19.548c7.143-.724,25.345,8.447,25.345,8.447s-1.152,23.65,2.535,23.168,0-21,0-21c6.912,2.172,13.364,10.619,13.364,10.619,8.064,13.756-9.217,23.892-9.217,23.892a39.994,39.994,0,0,0,4.608,17.617,35.073,35.073,0,0,1,4.132,22.19h5.351a26.666,26.666,0,0,1,3.269-15.838,30.337,30.337,0,0,0,3.5-13.365s-13.11-7.689-6.992-18.125c0,0,4.894-6.407,10.138-8.055,0,0-2.8,15.562,0,15.928s1.923-17.576,1.923-17.576,13.809-6.957,19.227-6.408c0,0-8.565,15.2-5.768,14.829s12.41-15.745,12.41-15.745,14.158-2.746,16.431,6.041-1.4,13.182-3.5,13.731-15.557.366-15.207,2.2,9.439,4.76,14.508,3.112c0,0-5.593,14.463-12.934,13.731s-9.614-5.493-14.158-5.859-7.866.915-5.593,2.2,9.963.42,13.634,3.689,6.642,5.282-.175,6.747-19.053.55-21.5-4.943l-.306-.686a2.949,2.949,0,0,0,.306.686c-1.257.768-3.144,4.433-4.452,7.244-.186.479-.482,1.14-.92,2.039-.178.406-.32.739-.418.971-1.51,3.957-1.569,9.718-1.4,13.456h19.436v1.087h-1.131c-.415,14.419-9.049,26.672-21.162,31.8h17.471a4.279,4.279,0,0,1,4.176,4.374H151.534a4.279,4.279,0,0,1,4.176-4.374h17.471c-12.113-5.125-20.747-17.378-21.162-31.8h-.787v-1.087h36.079a20.677,20.677,0,0,0-2.989-5.1c-.142-.154-.348-.375-.6-.643-.594-.576-1.011-1.009-1.29-1.331-1.815-1.827-4.323-4.153-5.532-4.378a2.567,2.567,0,0,0,.052-.637c-.017.2-.034.414-.052.637-.414,5.09-9.841,9.534-15.641,10.448s-4.007-1.583-2.009-5.285,8.323-5.359,9.765-7.064-1.54-1.709-5.034-.038-3.973,6.129-9.578,8.941-14.04-6.931-14.04-6.931c4.467-.238,10.847-5.319,10.616-6.874s-10.829,2.682-12.641,2.886-5.934-2.157-6.572-9.8,11.326-9.776,11.326-9.776,2.758,2.148,5.874,4.311a20.3,20.3,0,0,1,2.781-2.791c-1.029-.954-1.953-1.774-2.529-2.279a21.559,21.559,0,0,1-3.807.721c-9.678.966-17.051-18.1-17.051-18.1,6.682,2.172,18.663-1.69,19.124-4.1s-17.281-2.172-20.046-2.9-7.6-6.516-4.608-18.1m49.152,54.485c.55-.3.513-1.3.159-2.608-.763.181-1.548.338-2.346.471.806,1.516,1.585,2.462,2.187,2.137m11.8,16.667a21.355,21.355,0,0,1,5.387,7.027h2.289c.283-4.794.394-13.346-1.783-19.051-.129-.306-.317-.744-.551-1.28-.578-1.185-.967-2.058-1.213-2.688-1.725-3.706-4.211-8.536-5.869-9.549a3.915,3.915,0,0,0,.4-.905l-.4.905a7.657,7.657,0,0,1-1.822,2.48c3.15,6.143-2.91,13.549-2.91,13.549a24.73,24.73,0,0,0,6.47,9.511m-25.451-30.385c4.954-1.431,10.93-1.164,13.113-2.4,3-1.689-1.383-3.379-7.373-2.9-4.03.324-6.706,3.268-10.971,5.456a51.039,51.039,0,0,1,5.231-.165" transform="translate(336.308 -625.936)" fill="#f6dbc3"/>
          <path id="Trazado_247021" data-name="Trazado 247021" d="M594.232,1015.821s9.567-11.162.59-18.251c0,0-6.557-3.97-11.9-3.648,0,0,7.576,12.7,5.125,13.969s-7.421-14.765-7.421-14.765-14.923-1.447-19.723.861c0,0,12.757,10.439,10.07,11.061s-16.466-9.625-16.466-9.625-13.889,2.363-13.148,10.836,5.526,11.089,7.63,10.863,14.407-4.922,14.675-3.2-7.138,7.355-12.324,7.619c0,0,9.792,10.8,16.3,7.682s7.063-8.057,11.12-9.909,7.519-1.848,5.844.041-9.016,3.726-11.336,7.83-4.4,6.871,2.332,5.858,17.677-5.939,18.157-11.581Z" transform="translate(-105.763 -761.648)" fill="#599dad"/>
          <path id="Trazado_247022" data-name="Trazado 247022" d="M524.3,1051.795s37.722-1.453,46.053,9.334a27.278,27.278,0,0,0,7.512,10.542l.883,2.408s-6.536-6.892-8.876-7.309c0,0,3.658-13.366-45.572-14.976" transform="translate(-81.884 -806.956)" fill="#599dad"/>
          <path id="Trazado_247023" data-name="Trazado 247023" d="M493.019,1134.287a23.689,23.689,0,0,1,8.659,16.687l-1.469.132s-2.586-11.063-7.26-15.389.071-1.43.071-1.43" transform="translate(2.962 -869.571)" fill="#599dad"/>
          <path id="Trazado_247024" data-name="Trazado 247024" d="M186.789,901.879s-15.219-8.523-8.117-20.089c0,0,5.682-7.1,11.77-8.929,0,0-3.247,17.248,0,17.654s2.232-19.48,2.232-19.48,16.031-7.711,22.321-7.1c0,0-9.943,16.842-6.7,16.437s14.407-17.451,14.407-17.451,16.436-3.044,19.074,6.7-1.623,14.61-4.058,15.219-18.06.406-17.654,2.435,10.958,5.276,16.842,3.45c0,0-6.493,16.031-15.016,15.219s-11.161-6.088-16.436-6.493-9.132,1.015-6.493,2.435,11.566.466,15.828,4.088,7.711,5.855-.2,7.478-22.118.609-24.959-5.479Z" transform="translate(335.13 -661.742)" fill="#6bb7bf"/>
          <path id="Trazado_247025" data-name="Trazado 247025" d="M264.162,906.254s-42.613,13.8-47.483,29.221a32.369,32.369,0,0,1-4.059,14.813v3.044s4.465-10.349,6.9-11.769c0,0-9.537-13.393,44.643-35.308" transform="translate(305.241 -695.337)" fill="#6bb7bf"/>
          <path id="Trazado_247026" data-name="Trazado 247026" d="M429.312,1089.21s-6.571,9.98-2.825,22.127l1.691-.454s-1.641-13.38,1.8-20.109-.663-1.564-.663-1.564" transform="translate(88.548 -834.26)" fill="#6bb7bf"/>
          <path id="Trazado_247027" data-name="Trazado 247027" d="M537.594,810.035s20.061-11.234,10.7-26.481c0,0-7.49-9.362-15.514-11.77,0,0,4.28,22.736,0,23.272s-2.942-25.679-2.942-25.679-21.132-10.165-29.424-9.362c0,0,13.107,22.2,8.827,21.666s-18.992-23-18.992-23-21.666-4.012-25.144,8.827,2.14,19.259,5.349,20.062,23.806.535,23.272,3.21-14.444,6.955-22.2,4.547c0,0,8.56,21.132,19.794,20.061s14.712-8.024,21.666-8.559,12.037,1.337,8.56,3.21-15.247.614-20.864,5.389-10.164,7.718.267,9.858,29.156.8,32.9-7.222Z" transform="translate(-39.887 -581.651)" fill="#86d1cd"/>
          <path id="Trazado_247028" data-name="Trazado 247028" d="M497.691,815.8s56.172,18.189,62.592,38.518a42.671,42.671,0,0,0,5.35,19.526v4.012s-5.885-13.642-9.095-15.514c0,0,12.572-17.654-58.847-46.543" transform="translate(-62.576 -625.937)" fill="#6bb7bf"/>
          <path id="Trazado_247029" data-name="Trazado 247029" d="M477.834,1056.971s8.663,13.155,3.724,29.168l-2.229-.6s2.163-17.637-2.369-26.508.873-2.061.873-2.061" transform="translate(25.222 -809.062)" fill="#6bb7bf"/>
          <path id="Trazado_247030" data-name="Trazado 247030" d="M388.22,1210.179a39.3,39.3,0,0,1-39.3-39.3h78.595a39.3,39.3,0,0,1-39.3,39.3" transform="translate(110.163 -898.377)" fill="#e0b594"/>
          <path id="Trazado_247031" data-name="Trazado 247031" d="M369.5,1209.878a39.325,39.325,0,0,0,44.178-39h-9.763a39.3,39.3,0,0,1-34.415,39" transform="translate(119.211 -898.376)" fill="#ffebdc"/>
          <path id="Trazado_247032" data-name="Trazado 247032" d="M346.592,1332.342h79.68a4.848,4.848,0,0,0-4.848-4.848H351.44a4.848,4.848,0,0,0-4.848,4.848" transform="translate(111.951 -1018.54)" fill="#e0b594"/>
          <rect id="Rectángulo_218349" data-name="Rectángulo 218349" width="80.78" height="1.206" transform="translate(458.192 272.505)" fill="#e0b594"/>
          <path id="Trazado_247034" data-name="Trazado 247034" d="M1112.035,9.207c.027-.746.6-8.783,12.847-9.2,0,0-6.02.718-7.06,3.364,0,0,4.1-3.27,7.438-2.218s5.3,6.9,5.318,8.824-1.835,8.125-3.953,8.652a6.465,6.465,0,0,1-2.566,0,28.868,28.868,0,0,1,1.644,2.935c4.885,10.027-.153,19.827-4.288,18.745-2.653-.694-3.4,3.832-3.4,3.832l-25.767-20.861s9.464-19.584,19.792-14.072" transform="translate(-765.893 -0.004)" fill="#2c3a64"/>
          <path id="Trazado_247035" data-name="Trazado 247035" d="M1191.364,347.327c1.243-1.242,8.74-.953,8.74-.953s4.142-1.656,9.237-3.893c7.083-3.148,15.988-7.373,17.935-9.527,4.515-5.012,9.941-21.829,15.036-32.929q.683-1.554,1.367-2.982a1.059,1.059,0,0,1,.166-.29c.249-.455.456-.869.663-1.242,0-.041.041-.083.083-.124a19,19,0,0,1,2.858-4.225v-.042c1.118-1.2,2.2-1.7,3.189-1.284a14.3,14.3,0,0,1,3.935,3.355,3.105,3.105,0,0,1,.58.7,17.322,17.322,0,0,1,3.065,6.13,21.4,21.4,0,0,1,.7,6.793c-.166,4.266-2.278,9.609-5.3,14.994a6.6,6.6,0,0,1-.414.745c-5.8,10.148-14.7,20.3-20.13,23.61-3.562,2.195-12.509,3.521-20.048,4.266-5.012.539-9.444.787-11.266.912-.787.87-6.5,7.414-8.657,5.509-2.361-2.03-2.982-8.284-1.74-9.527" transform="translate(-917.189 -222.271)" fill="#ed985f"/>
          <path id="Trazado_247036" data-name="Trazado 247036" d="M1641.857,935.418l27.567-2.162s.661-4.2-.779-7.389c-1.38-3.059.518-5.271,2.407-8.914-1.751,1.8-7.785,1.538-11.77,1-.488.792-5.4,8.079-7.036,9.25-1.8,1.294-9.834,3-10.389,8.213" transform="translate(-1434.282 -703.546)" fill="#233862"/>
          <path id="Trazado_247037" data-name="Trazado 247037" d="M1509.092,929.729h27.567s.661-4.2-.779-7.389c-1.38-3.059-3.784-6.341-1.9-9.984-1.751,1.8-7.285,1.606-11.27,1.07-.488.792,1.844,5.965-3.233,10.252-1.7,1.431-9.835.833-10.389,6.051" transform="translate(-1269.141 -700.019)" fill="#233862"/>
          <path id="Trazado_247038" data-name="Trazado 247038" d="M1263.238,564.443s9.156-3.668,21.676,9.056c24.041,19.473,54.912,69.012,57.814,72.489,5.812,6.963,1.321,16.655-22.446,16.423-13.894-.135-22.4-6.514-26.208-12.25-1.015-1.528-4.744-8.5-9.312-17.828.136,9.372.193,16.165.193,16.165.713,6.643-14.209,4.827-14.209,4.827-25.308-84.654-7.508-88.882-7.508-88.882" transform="translate(-1018.713 -432.701)" fill="#163560"/>
          <path id="Trazado_247039" data-name="Trazado 247039" d="M1197.8,388.821a15.238,15.238,0,0,1,5.974-5.9,3.856,3.856,0,0,0-1.905.283c1.056-.96,4.454-1.551,4.454-1.551,12.1-17.222,30.767,5.083,34.165,10.895s7.664,12.261,19.164,11.808c22.626-.891,24.066,21.867,19.436,33.519-.065.164-11.157,19.806-11.157,19.806-2.611-4.786-26.1-25.1-41.733-24.949-5.251-2.12-10.8-8.364-11.23-8.858,4.109,5.144,7.09,7.577,9.077,8.74-14.865-2.3-29.949-36.382-26.245-43.789" transform="translate(-940.969 -287.91)" fill="#b5453c"/>
          <path id="Trazado_247040" data-name="Trazado 247040" d="M1371.852,540.556c-.042.058,2.044,7.775,8.311,4.391,4.115-2.222,10.717-11.7,8.173-14.913-1.21-1.527-6.537-4.427-12.084-14.251l-.666.575-11.2,9.685s2.549,3.808,4.688,7.544c1.8,3.136,3.3,6.224,2.775,6.969" transform="translate(-1087.557 -395.742)" fill="#f4a269"/>
          <path id="Trazado_247041" data-name="Trazado 247041" d="M1452.1,433.707s-.208-7.96-2.563-13.309c-1.681-3.818-11.9-15.3-23.385-4.963a20.79,20.79,0,0,0-5.347,7.507c-1.51,3.714-2.8,10.407,9.054,18.46l3.655,2.953Z" transform="translate(-1163.659 -315.519)" fill="#b5453c"/>
          <path id="Trazado_247042" data-name="Trazado 247042" d="M1381.191,536.417s-4.114.784-5.853-1.547-5.526-7.261-6.41-4.432-9.236,11.055-11.168,11.271-3.285.756-2.193,1.758.638,5.009,1.73,5.373,21.376-12.645,23.893-12.425" transform="translate(-1077.701 -406.334)" fill="#6bb7bf"/>
          <path id="Trazado_247043" data-name="Trazado 247043" d="M1438.149,469.828s16.148-10.44,9.492-20.4-9.055-18.009-19.647-11.764-10.035,11.37-8.621,15.234,14.4,19.387,18.777,16.927" transform="translate(-1160.522 -334.121)" fill="#ffb27d"/>
          <path id="Trazado_247044" data-name="Trazado 247044" d="M1211.459,570.754s27.346-20.151,36.917-12.561c14.116,11.2,11.293,48.989,14.571,53.907s21.753,40.183-8.294,43.77-36.969-15.355-38.335-29.563-4.859-55.553-4.859-55.553" transform="translate(-934.627 -426.971)" fill="#6bb7bf"/>
          <path id="Trazado_247045" data-name="Trazado 247045" d="M1327.994,616.647s7.874,43.531-7.731,55.423-23.46-56.769,7.731-55.423" transform="translate(-1015.18 -473.117)" fill="#599dad"/>
          <path id="Trazado_247046" data-name="Trazado 247046" d="M1404.1,575.005s-.3-5.086-4.787-3.141-12.79,4.862-16.006,3.665,5.173,14.884,12.834,9.5,7.96-10.023,7.96-10.023" transform="translate(-1106.991 -438.432)" fill="#599dad"/>
          <path id="Trazado_247047" data-name="Trazado 247047" d="M1414.565,439.712s12.2,8.741,20.063,5.969,9.574-6.521,9.574-6.521a22.878,22.878,0,0,1-13.741-7.062s-16.321-.152-15.9,7.613" transform="translate(-1154.532 -331.534)" fill="#b5453c"/>
          <path id="Trazado_247048" data-name="Trazado 247048" d="M1636.344,708.622a8.945,8.945,0,0,0-4.954,9.788c1.229,7.1,3.689,4.719,3.689,4.719Z" transform="translate(-1397.101 -543.701)" fill="#ffb27d"/>
          <path id="Trazado_247049" data-name="Trazado 247049" d="M1531.026,463.969s-1.519,4.795-.617,7.862,4.039,8.523,2.4,9.364c0,0-8.612-5.726-7.917-12.695.737-7.39,6.134-4.531,6.134-4.531" transform="translate(-1269.274 -355.57)" fill="#b5453c"/>
          <path id="Trazado_247050" data-name="Trazado 247050" d="M1305.335,628.04c-3.651-4.375-51.838-88.6-71.881-87.468-30.167,1.706,22.555,85.8,26.253,91.368,3.809,5.736,9.289,12.388,23.183,12.523,23.766.232,28.257-9.46,22.445-16.423" transform="translate(-973.644 -414.754)" fill="#1c468a"/>
          <path id="Trazado_247051" data-name="Trazado 247051" d="M1543.884,566.06s-1.2,1.118-28.487,85.015c0,0,11.386,8.25,13.921,2.069,0,0,36.773-55.191,28.111-64.909s-13.545-22.175-13.545-22.175" transform="translate(-1292.549 -434.319)" fill="#1c468a"/>
          <path id="Trazado_247052" data-name="Trazado 247052" d="M1378.3,568.618s7.2,11.126-15.2,21.335-25.038,12.7-29.407,13.612c-6.806,1.42-32.949,1.22-32.949,1.22s-.686-4.146,1.721-5.546c3.855-2.242,26.123-5.883,29.126-7.083s35-35.593,46.707-23.537" transform="translate(-1063.223 -434.318)" fill="#ed985f"/>
          <path id="Trazado_247053" data-name="Trazado 247053" d="M1017.1,748.175l5.474,2.038s23.773-32.972,26.7-61.982a44.068,44.068,0,0,0-.782-14.831s.232-1.327.639-3.673c.188-1.095.42-2.413.684-3.923.773-4.428,1.837-10.488,3.052-17.387,2.8-15.877,6.421-36.173,9.236-51.093l-1.475-.473L1044.67,591.7l-3.3-10.474L1029.49,578.1s-2.654,5.193-5.027,29.72c-.438,3.217-.835,6.765-1.135,10.612a210.024,210.024,0,0,0,1.131,42.965q.818,6.394,2.087,13.187a58.81,58.81,0,0,1,.456,13.021c-1.2,23.714-9.9,60.569-9.9,60.569" transform="translate(-679.929 -443.556)" fill="#2b478b"/>
          <path id="Trazado_247054" data-name="Trazado 247054" d="M1017.1,618.433l25.8,51.294c.188-1.095.42-2.413.684-3.923.773-4.428,1.836-10.488,3.052-17.387,2.8-15.877,6.421-36.173,9.236-51.093l-1.475-.473-15.957-5.148-3.3-10.474-11.882-3.128s-2.655,5.193-5.027,29.72c-.438,3.218-.836,6.765-1.135,10.613" transform="translate(-673.7 -443.556)" fill="#233862"/>
          <path id="Trazado_247055" data-name="Trazado 247055" d="M914.635,565.014l.6-5.122c10.007,2.658,36.743-7.427,36.743-7.427s9.694,8.521,8.422,28.947c-.621,9.97-1.756,52.335-2.941,64.871-.428,4.544-.8,7.777-.957,9.069a.022.022,0,0,0,0,.013,1.792,1.792,0,0,0,.291,1.11,58.923,58.923,0,0,1,4.375,9.2c11.633,31-1.792,69.174-1.792,69.174l-3.484-1.4s-7.64-42.485-13.847-61.254a37.167,37.167,0,0,0-2.989-7.18c-2.7-4.356-5.2-11.473-7.477-19.938-4.3-16-7.755-36.824-10.057-52.894-.317.015-6.881-27.166-6.881-27.166" transform="translate(-559.885 -423.888)" fill="#2b478b"/>
          <path id="Trazado_247056" data-name="Trazado 247056" d="M1073.8,216.656a31.162,31.162,0,0,0,11.525,2.7c17.2.943,21.109-14.139,21.82-24.148a14.424,14.424,0,0,0-5.9-.746c-1.22.067-2.493.192-3.543.322-2.1-1.1-5.885-6.439-8.07-15.372l-.742.344-12.414,5.836s1.318,4.039,2.292,7.9c.76,3.025,1.3,5.948.849,6.766-.979.4-1.564.648-1.564.648a.034.034,0,0,1,0,.013,85.16,85.16,0,0,0-4.245,15.734" transform="translate(-738.163 -137.656)" fill="#ffb27d"/>
          <path id="Trazado_247057" data-name="Trazado 247057" d="M1152.244,186.737s1.32,4.036,2.292,7.9c7.256-2.025,9.459-9.652,10.122-13.74Z" transform="translate(-813.939 -138.8)" fill="#ed985f"/>
          <path id="Trazado_247058" data-name="Trazado 247058" d="M1158.867,120.251s17.36-4.018,14.691-14.79-2.225-18.546-13.421-16.436-12.324,6.751-12.307,10.564,6.453,21.43,11.037,20.662" transform="translate(-822.09 -68.041)" fill="#ffb27d"/>
          <path id="Trazado_247059" data-name="Trazado 247059" d="M1343.867,556.556s-11.442.462-35.311,22.452c0,0-3.653,4.435-5.469,4.731s-6.739,1.589-6.848,2.842,6.062,16.96,13.916,17.409,44.653-26.59,42.072-35.677-8.36-11.756-8.36-11.756" transform="translate(-1035.15 -427.027)" fill="#6bb7bf"/>
          <path id="Trazado_247060" data-name="Trazado 247060" d="M1129.853,87c1.866-3.9,4.063-3.7,5.436-3a12.452,12.452,0,0,1,16.157-1.381,21.2,21.2,0,0,0,9.754,10.479s-2.667,2.731-10.4,2.67a12.718,12.718,0,0,1-6.895-2.6,41.566,41.566,0,0,0,9.052,6.751c-9.676-1.852-16.164-13.053-16.829-14.243-.82,1.211-2.387,3.788-2.52,5.963-.179,2.957.838,8.7-.855,8.916,0,0-5.7-7.7-2.9-13.555" transform="translate(-805.089 -61.567)" fill="#2c3a64"/>
          <path id="Trazado_247061" data-name="Trazado 247061" d="M952.918,263.923c.626-1.876,4.805-9.168,4.805-9.168h0c.021-.019,2.66-2.437,10-5.317a.033.033,0,0,1,0,.014c-.116.429-3.248,11.775-2.1,14.2,1.161,2.462,23.151-5.487,24.354-7.3.96-1.457.987-9.156.96-12.154,0-.746-.013-1.2-.013-1.2s8.209-1.113,12.825.755a35.492,35.492,0,0,0-2.493,8.325c-.063.415-.116.831-.156,1.247a16.589,16.589,0,0,0-.067,2.618,5,5,0,0,0,1.586,3.124,24.276,24.276,0,0,0,3.307,2.744c.853.617,1.77,1.264,2.717,1.966h0c.08,5.141-.282,13.594.67,22.615a15.265,15.265,0,0,0,2.2,6.417,15.44,15.44,0,0,0,1.626,2.19c4.848,5.438,13.446,16.279,11.556,23.026-.139,6.363-53.81,14.724-52.662,7.735,0,0-8.066-38.872-12.422-48.256-.156-.344-.3-.679-.429-1.023-1.4-3.7-1.161-7.512-.689-10.921a10.05,10.05,0,0,0-5.562-1.631" transform="translate(-627.838 -186.187)" fill="#f99746"/>
          <path id="Trazado_247062" data-name="Trazado 247062" d="M1015.471,366.751c10.586-.111,19.55-11.1,25.028-19.89a15.269,15.269,0,0,1-2.2-6.417c-.952-9.02-.59-17.474-.67-22.615h0c-.947-.7-1.864-1.349-2.717-1.966a24.286,24.286,0,0,1-3.307-2.744c-8.669,14.652-30.489,53.783-16.136,53.631" transform="translate(-656.839 -240.247)" fill="#ed7d2b"/>
          <path id="Trazado_247063" data-name="Trazado 247063" d="M1018.073,323.961s6.876-4.929,10.976-3.976c3.645.828,11.432-.829,12.965-1.16,1.822-.994,4.018-2.2,6.337-3.521a185.514,185.514,0,0,0,16.4-10.189c2.527-1.823,4.432-3.438,5.095-4.6a57.119,57.119,0,0,0,3.479-8.077c.662-1.823,1.367-3.811,2.071-5.923,1.243-3.479,2.485-7.249,3.769-11.017,2.319-6.876,4.8-13.793,7.166-19.137a37.637,37.637,0,0,1,4.432-7.828c1.118-1.367,2.2-2.071,3.231-1.9.165.041.29.082.414.124,0,0,5.965,1.657,6.047,13.668a18.331,18.331,0,0,1-.041,2.112,44.512,44.512,0,0,1-1.118,7.5,113.363,113.363,0,0,1-4.722,15.74c-.58,1.491-1.16,3.023-1.781,4.556-4.473,11.1-10.23,21.456-15.077,24.976a4.955,4.955,0,0,1-.58.414,43.551,43.551,0,0,1-8.45,3.769c-4.888,1.658-10.687,3.148-15.864,4.391h-.041c-3.024.663-5.8,1.284-8.119,1.74,0,0-.5.124-1.366.29a92.583,92.583,0,0,0-10.977,3.355c-5.964,2.361-9.693-1.533-12.343-2.651-2.651-1.077-1.905-2.651-1.905-2.651" transform="translate(-718.508 -189.212)" fill="#ffb27d"/>
          <path id="Trazado_247064" data-name="Trazado 247064" d="M1017.985,256.45c7.974-2.2,14.125,4.028,14.125,4.028-.1-11.993-6.069-13.634-6.069-13.634-2.4-.995-5.185,3.165-8.056,9.606" transform="translate(-650.144 -189.282)" fill="#f99746"/>
          <path id="Trazado_247065" data-name="Trazado 247065" d="M910.641,1297.122h27.567s.661-4.2-.779-7.389c-1.379-3.059-3.541-4.448-3.023-8.149a9.927,9.927,0,0,1-8.592,3.287c-.488.792-3.152,5.028-4.783,6.2-1.8,1.295-9.834.833-10.389,6.051" transform="translate(-531.41 -983.315)" fill="#233862"/>
          <path id="Trazado_247066" data-name="Trazado 247066" d="M1164.358,1301.2h27.567s1.031-4.4-.779-7.389c-1.6-2.647-.988-4.155.2-6.346a10.7,10.7,0,0,1-4.643.875,9.708,9.708,0,0,1-4.1-1.442c-1.187,1.352-6.267,7.111-7.854,8.251-1.8,1.295-9.835.833-10.389,6.051" transform="translate(-844.317 -987.391)" fill="#233862"/>
          <rect id="Rectángulo_218350" data-name="Rectángulo 218350" width="100.906" height="81.322" transform="translate(253.785 232.485)" fill="#c6601a"/>
          <rect id="Rectángulo_218351" data-name="Rectángulo 218351" width="91.297" height="81.32" transform="translate(203.331 232.487)" fill="#f1a34f"/>
          <path id="Trazado_247067" data-name="Trazado 247067" d="M1460.252,1059.185a1.619,1.619,0,1,1-1.673,1.618,1.646,1.646,0,0,1,1.673-1.618" transform="translate(-1182.501 -812.676)" fill="#d3671e"/>
          <path id="Trazado_247068" data-name="Trazado 247068" d="M1725.764,1060.8a1.674,1.674,0,1,0-1.673,1.618,1.646,1.646,0,0,0,1.673-1.618" transform="translate(-1507.743 -812.676)" fill="#d3671e"/>
          <path id="Trazado_247069" data-name="Trazado 247069" d="M1460.252,1279.3a1.619,1.619,0,1,1-1.673,1.618,1.646,1.646,0,0,1,1.673-1.618" transform="translate(-1182.501 -981.559)" fill="#d3671e"/>
          <path id="Trazado_247070" data-name="Trazado 247070" d="M1725.764,1280.914a1.674,1.674,0,1,0-1.673,1.618,1.646,1.646,0,0,0,1.673-1.618" transform="translate(-1507.743 -981.559)" fill="#d3671e"/>
          <path id="Trazado_247071" data-name="Trazado 247071" d="M1178.079,1060.8c0-.894-.464-1.618-1.036-1.618s-1.037.724-1.037,1.618.464,1.618,1.037,1.618,1.036-.724,1.036-1.618" transform="translate(-832.89 -812.676)" fill="#b25618"/>
          <path id="Trazado_247072" data-name="Trazado 247072" d="M1341.5,1060.8c0-.894-.464-1.618-1.037-1.618s-1.036.724-1.036,1.618.464,1.618,1.036,1.618,1.037-.724,1.037-1.618" transform="translate(-1034.341 -812.676)" fill="#b25618"/>
          <path id="Trazado_247073" data-name="Trazado 247073" d="M1178.079,1280.914c0-.894-.464-1.618-1.036-1.618s-1.037.724-1.037,1.618.464,1.618,1.037,1.618,1.036-.725,1.036-1.618" transform="translate(-832.89 -981.559)" fill="#b25618"/>
          <path id="Trazado_247074" data-name="Trazado 247074" d="M1341.5,1280.914c0-.894-.464-1.618-1.037-1.618s-1.036.724-1.036,1.618.464,1.618,1.036,1.618,1.037-.725,1.037-1.618" transform="translate(-1034.341 -981.559)" fill="#b25618"/>
          <path id="Trazado_247075" data-name="Trazado 247075" d="M1286.539,968.062s-13.713-12.665-22.758-8.8c-11.907,5.084-40.063,3.668-47.167,2.356s-62.594,2.606-81.435,6.316Z" transform="translate(-931.848 -735.444)" fill="#d3671e"/>
          <g id="Grupo_175451" data-name="Grupo 175451" transform="translate(203.332 232.487)" opacity="0.4">
            <g id="Grupo_175450" data-name="Grupo 175450">
              <g id="Grupo_175449" data-name="Grupo 175449" clip-path="url(#clip-path-3)">
                <path id="Trazado_247076" data-name="Trazado 247076" d="M1393.254,1058.923v21.332h91.3v-81.32h-15.316l-.3.13s-8.2,55.161-75.68,59.858" transform="translate(-1393.255 -998.935)" fill="#d86713"/>
              </g>
            </g>
          </g>
          <path id="Trazado_247077" data-name="Trazado 247077" d="M1785.421,1011.669s18.557-2.63,19.635-5.625c0,0-1.288-2.708.748-3.415.547-.19,1.465-.539,1.874-.021l-.026,5.524a32.974,32.974,0,0,0-3.122,3.522c-.619.867-12.61,5.888-12.61,5.888Z" transform="translate(-1604.32 -769.059)" fill="#163560"/>
          <path id="Trazado_247078" data-name="Trazado 247078" d="M1950.426,1163.536c-1.759-2.542.069-20.5,12.737-15.049,2.69.813,5.928,2.76,9.8,6.311,0,0,5.566,13.113-16.381,21.786a4.4,4.4,0,0,0-2.484,2.939c-.309,2-.656,11.023.089,11.3s1.847-.762,2.65.377a4.868,4.868,0,0,1,.521,3.018h-7.975s-3.811-20.252-3.6-21.863,6.722-5.8,4.635-8.816" transform="translate(-1807.563 -880.408)" fill="#163560"/>
          <path id="Trazado_247079" data-name="Trazado 247079" d="M1893.451,901.127s-4.22,8.851-1.89,11.506l6.558-5.267s.032-2.607-4.668-6.239" transform="translate(-1719.301 -691.404)" fill="#233862"/>
          <path id="Trazado_247080" data-name="Trazado 247080" d="M1786.113,952.606c1.722-3.122,4.3-8.341.9-10.471a3.926,3.926,0,0,1-.112-6.507c3.534-1.907,7.124.5,8.807,2.861,3.2,4.483-1.051,11.49-1.051,11.49-4.021,8.657,4.256,13.164,8.248,14.772a46.6,46.6,0,0,1,6.722-7.92c1.375-1.3,2.637-2.366,3.7-3.27,11.235-9.6,8.514-13.117,11.182-17.435.524-.855,2.591-3.18,3.14-3.925s.741-3.365.806-5.679a3.9,3.9,0,0,1-1.4-2.281,2.278,2.278,0,0,0,.01.989c-1.309-1.062-1.013-3.508-1.013-3.508a2.892,2.892,0,0,0-.4,1.112,9.811,9.811,0,0,1,1.7-6.937c-.413-3.576,2.553-9.8,2.553-9.8a14.9,14.9,0,0,1,3.956,4.225,6.507,6.507,0,0,1,6.937,1.885,6.718,6.718,0,0,0,4.124,1.228c.593-.077,1.942,2.892,1.995,3.3.589,4.49-.837,6.711-3.4,9.009-.359,1.012-.635,2.372,0,3.286,0,0-.541-.22-.607-.395a4.381,4.381,0,0,0,1.11,2.284,2.242,2.242,0,0,1-.521-.122,14.942,14.942,0,0,1,3.2,8.745c5.382.045,10.5-.285,11-1.663,0,0-1.161-2.272.748-3.415a4.23,4.23,0,0,1,2.093-.484l.093,6.2a19.329,19.329,0,0,0-3.46,3.306c-.385.539-7.916,3.939-13.549,6.429-3.28,14.216-13.812,22.434-17.3,24.817-.5,4.343-3.082,9.993-10.477,16.575a4.4,4.4,0,0,0-1.322,3.614c.4,1.983,3.173,10.577,3.966,10.577s3.438-1.146,4.583-.352-.441,3.878-.441,3.878h-8.067s-9.96-16.395-10.312-17.981,4.319-7.756,1.322-9.872c-1.285-.907-3.068-5.881-2.7-10.449-3.932-1.373-22.133-8.346-16.742-18.12" transform="translate(-1657.181 -695.22)" fill="#2b478b"/>
          <path id="Trazado_247081" data-name="Trazado 247081" d="M1849.025,937.3a.787.787,0,0,0-.754-.058,1.694,1.694,0,0,0,1.562,1.585s-.421-1.295-.809-1.526" transform="translate(-1661.104 -719.059)" fill="#163560"/>
          <path id="Trazado_247082" data-name="Trazado 247082" d="M1872.716,951.542a26.038,26.038,0,0,0-9.447,6.558,27.276,27.276,0,0,1,9.388-6.737Z" transform="translate(-1687.476 -729.948)" fill="#163560"/>
          <path id="Trazado_247083" data-name="Trazado 247083" d="M1870.119,953.166a30.919,30.919,0,0,0-9.042,10.239A32.394,32.394,0,0,1,1870,952.976Z" transform="translate(-1684.37 -731.186)" fill="#163560"/>
          <path id="Trazado_247084" data-name="Trazado 247084" d="M1864.181,955.348a26.042,26.042,0,0,0-5.636,10.024,27.281,27.281,0,0,1,5.505-10.159Z" transform="translate(-1677.843 -732.902)" fill="#163560"/>
          <path id="Trazado_247085" data-name="Trazado 247085" d="M1919.683,906.1s-.313,6.842-.985,8.109a3.917,3.917,0,0,1-1.567,1.689c-.413-3.576,2.553-9.8,2.553-9.8" transform="translate(-1746.97 -695.219)" fill="#233862"/>
          <path id="Trazado_247086" data-name="Trazado 247086" d="M221.3,434.307v60.2h75.088V464.022q1.255.929,2.5,1.891v31.093H218.8V433.865q1.252.215,2.5.442" transform="translate(269.074 -332.89)" fill="#f6dbc3"/>
          <path id="Trazado_247087" data-name="Trazado 247087" d="M240.1,437.838v57.076h70.008V465.3c-21.584-15.245-45.218-22.784-70.008-27.458" transform="translate(252.902 -335.938)" fill="#f6dbc3"/>
        </g>
      </g>
    </g>
  </g>
</svg>
