<svg xmlns="http://www.w3.org/2000/svg" xmlns:xlink="http://www.w3.org/1999/xlink" width="333.128" height="196.88" viewBox="0 0 333.128 196.88">
  <defs>
    <clipPath id="clip-path">
      <rect id="Rectángulo_216055" data-name="Rectángulo 216055" width="333.128" height="196.88" fill="none"/>
    </clipPath>
  </defs>
  <g id="Grupo_173494" data-name="Grupo 173494" transform="translate(0 -0.001)">
    <g id="Grupo_173493" data-name="Grupo 173493" transform="translate(0 0.001)" clip-path="url(#clip-path)">
      <path id="Trazado_236898" data-name="Trazado 236898" d="M38.769,590.894H142.1c-2.439-4.594-2.994-8.488-1.349-14.243.315-1.094.655-2.3,1.006-3.64a62.615,62.615,0,0,0,1.277-9.033c.311-3.531.552-7.53.732-11.426.446-9.472.552-18.323.552-18.323l-5.137-29.5-.45-2.583L136.148,487.3l-.329-1.888-1.207-6.93-1.632-9.381-3.157-.988-7.7-2.415L83.953,453.737s-5.488,6.22-11.342,8.781S41.069,474.5,41.069,474.5s-20.778,22.044-20.046,39.24,15,60,16.83,67.686a32.919,32.919,0,0,1,.916,9.469" transform="translate(-18.249 -394.216)" fill="#6c4e4e"/>
      <path id="Trazado_236899" data-name="Trazado 236899" d="M530.825,33.1s4.632-23.206,9.388-26.133a39.627,39.627,0,0,1,8.415-4.025s-3.871-1.063-1.676-2.526,6.137,1.427,6.137,1.427,2.047-2.15,3.14-1.713c1.427.571-.571,1.57-.571,1.57a24.1,24.1,0,0,1,6.535-.121,15.73,15.73,0,0,1,5.132,1.379,11.479,11.479,0,0,1,4.269,3.5,12.246,12.246,0,0,0,4.6,3.957,16.584,16.584,0,0,0,3.115.873c3.55.767,7.142,1.736,10.145,3.778a9,9,0,0,1,2.814,2.832,4.808,4.808,0,0,1,.518,3.872c-.5,1.492-1.932,2.8-1.616,4.338a4.938,4.938,0,0,0,.6,1.336,10.726,10.726,0,0,1,1,8.649c-1.829,5.488-13,7.146-13,7.146L538.055,48Z" transform="translate(-461.192 0)" fill="#1e2128"/>
      <path id="Trazado_236900" data-name="Trazado 236900" d="M431.818,266.193s7.229-4.983,9.424-9.373a26.257,26.257,0,0,0,2.561-8.415s-5.854-.366-5.122-11.342,8.049-9.147,11.342-2.561a49.155,49.155,0,0,0,6.22,9.878s1.463-3.659,4.025-3.659,2.927,2.561,4.024,0,.366-9.878,2.927-10.244,2.927,6.586,8.415,4.39,5.854-6.586,8.049-4.756,6.586,6.586,9.513,7.317,4.025,2.2,4.025,4.39-5.122,15-5.122,15l-26.708,31.1-5.741-4.314s-8.194,4.49-15.557-3.854c-5.488-6.22-12.274-13.559-12.274-13.559" transform="translate(-375.172 -199.129)" fill="#e9946b"/>
      <path id="Trazado_236901" data-name="Trazado 236901" d="M560.345,193.42s-2.561.732-5.122,6.22-3.659,10.61-1.829,14.269,2.874,21.746,2.874,21.746a24.476,24.476,0,0,1-9.524-15.952c-1.829-10.976,3.722-17.136,3.722-24.453a27.25,27.25,0,0,0-2.927-12.439l8.415-6.586Z" transform="translate(-474.702 -153.107)" fill="#1e2128"/>
      <path id="Trazado_236902" data-name="Trazado 236902" d="M694.446,351.867c-3.12-1.262-6.38-.5-9.5.364-1.041.29-.432,2.409.636,2.166,2.712-.617,5.506-1.264,8.219-.316,1.253.438,1.906-1.7.64-2.214" transform="translate(-594.632 -305.129)" fill="#1e2128"/>
      <path id="Trazado_236903" data-name="Trazado 236903" d="M685.465,383.3c-.185-.158-.374-.314-.568-.465a4.442,4.442,0,0,0-1.657-1.057,3.8,3.8,0,0,0-3.532-.06,1.141,1.141,0,0,0-.624.73.364.364,0,0,0,.017.2.455.455,0,0,0,.3.213,7.961,7.961,0,0,0,.972.2,3.965,3.965,0,0,1,1.941.842c.5.46,1.093.787,1.559,1.287a1.1,1.1,0,0,0,1.843-.742.9.9,0,0,0-.249-1.151" transform="translate(-589.996 -331.285)" fill="#1a1a1a"/>
      <path id="Trazado_236904" data-name="Trazado 236904" d="M770.505,1004.476l-2.217,10.606c-.786-.915-1.573-1.855-2.36-2.81a62.6,62.6,0,0,1-1.277,9.033c-.351,1.343-.692,2.547-1.006,3.64L745.626,987.28l-7.683-17.562,28.717,31.128Z" transform="translate(-641.14 -842.511)" fill="#302020"/>
      <path id="Trazado_236905" data-name="Trazado 236905" d="M798.041,649.184c0,5.854-4.8,18.143-20.489,19.757-6.655.684-15.293-6.578-23.8-16.468-.787-.915-1.573-1.855-2.36-2.81a286.556,286.556,0,0,1-19.731-27.945c-6.282-9.966-10.449-17.536-10.449-17.536l4.127-12.253,1.335-3.966,1.976-5.868,9.527-28.293.487-1.442s2.565,1.379,6,3.3c5.616,3.139,13.563,7.727,16.427,10.105a21.8,21.8,0,0,1,3.959,4.731v0c.4.6.8,1.24,1.2,1.91,7.16,11.993,14.251,33.752,16.607,39.638,2.927,7.318,14.086,17.379,15.549,21.769s-.366,9.513-.366,15.367" transform="translate(-626.6 -479.902)" fill="#6c4e4e"/>
      <path id="Trazado_236906" data-name="Trazado 236906" d="M944.238,755.176c-1.966-5.784-6.319-10.15-10.566-14.354-4.753-4.7-9.39-9.524-13.793-14.56a182.529,182.529,0,0,1-11.656-14.793,1.417,1.417,0,0,0,.016-.16,69.314,69.314,0,0,1,1.583-14.7c.428-1.683-1.385-.583-1.829,1.1-.874,3.31-2.218,6.666-2.292,10.1-3.1-4.63-6.419-8.82-9.05-13.754-.642-1.369-2.2-.766-1.582.594,5.394,11.805,13.064,22.415,21.5,32.231,4.229,4.923,8.683,9.648,13.271,14.237,4.456,4.457,11.346,10.563,13.645,16.6.641,1.682,1.354-.777.756-2.535" transform="translate(-777.53 -602.332)" fill="#4a3333"/>
      <path id="Trazado_236907" data-name="Trazado 236907" d="M1028.61,692.552a45.466,45.466,0,0,1-4.292,17.1c-.293.611-1.357.165-1.1-.461a52.113,52.113,0,0,0,4.185-18.55c.4.6.8,1.24,1.2,1.91" transform="translate(-888.961 -600.044)" fill="#4a3333"/>
      <path id="Trazado_236908" data-name="Trazado 236908" d="M835.605,766.16a69.541,69.541,0,0,1-14.84,28.485c-.5.59.322,1.443.861.861a64.845,64.845,0,0,0,15.192-29.011c.187-.786-1.02-1.122-1.213-.334" transform="translate(-712.962 -665.266)" fill="#4a3333"/>
      <path id="Trazado_236909" data-name="Trazado 236909" d="M691.9,671.466s-6.809,8.309-10.1,8.309-2.2-24.879-2.2-24.879l13.9-7.318Z" transform="translate(-590.3 -562.629)" fill="#4a3333"/>
      <path id="Trazado_236910" data-name="Trazado 236910" d="M737.748,420.133s-3.252-10.074-4.35-15.562,14.763-38.8,14.763-38.8,1.7-5.108,4.263-4.742c0,0,2.561-4.756,4.756-4.025s1.1,3.659,1.1,3.659a2.661,2.661,0,0,1,1.829,1.829c.366,1.463-4.39,15.366-4.39,18.659s-1.829,12.074-2.927,16.1-4.765,12.6-15.041,22.88" transform="translate(-637.144 -310.109)" fill="#e9946b"/>
      <path id="Trazado_236911" data-name="Trazado 236911" d="M868.741,354.451c-1.726-.735-3.255.11-4.434,1.408-.322.355-.632.734-.917,1.119-.211.285-.437.964-.674,1.14-.03.022-.787.123-.869.154a3.089,3.089,0,0,0-.867.551c-.52.422.167,1.319.721.934.533-.371,1.1-.187,1.637-.439.435-.2.476-.527.709-.932.81-1.411,2.388-3.22,4.171-2.692.719.213,1.246-.936.524-1.243" transform="translate(-747.876 -307.718)" fill="#de835c"/>
      <path id="Trazado_236912" data-name="Trazado 236912" d="M611.94,352.686a4.561,4.561,0,0,0-.419-2.033,7.053,7.053,0,0,0-1.331-1.5,2.618,2.618,0,0,1-.929-2.275,4.282,4.282,0,0,0-.067-2.435c-.294-.711-.935-.828-1.317-1.389-.439-.646-.16-1.7-.331-2.453a3.221,3.221,0,0,0-1.25-2.019c-.91-.6-1.9-.043-2.71.522a13.572,13.572,0,0,0-1.345,1.075,2.417,2.417,0,0,1-1.116.711c-.789.141-1.648-.5-2.5-.478a4.457,4.457,0,0,0-2.373.782,13.268,13.268,0,0,0-2.126,2.368c-.683.731-1.39,1.394-2.031,2.183-1.593,1.962-3.122,3.975-4.672,5.972q-1.791,2.307-3.571,4.622c-.484.629-.945,1.286-1.455,1.894-.736.877-1.352.573-1.377-.435a29.39,29.39,0,0,1,.286-3.428,9.393,9.393,0,0,0-.288-3.948c-.339-.977-1.359-2.6-2.552-2.661s-1.864,1.465-2.2,2.355q-1.292,3.436-2.506,6.9a8.623,8.623,0,0,0-.736,4.054,27.844,27.844,0,0,0,1.539,6.407,33.215,33.215,0,0,1,1.789,9.479,13.25,13.25,0,0,1-.393,4.447,16.636,16.636,0,0,0-.8,2.345l17.271,19.472s4.205-7.243,8.458-15.259c.964-1.96,1.936-3.917,2.824-5.914,1.6-3.6,2.737-7.395,4.4-10.971a90.145,90.145,0,0,0,3.416-12.351,35.836,35.836,0,0,0,.414-6.042" transform="translate(-497.824 -293.945)" fill="#e9946b"/>
      <path id="Trazado_236913" data-name="Trazado 236913" d="M100.827,630.876c.073,1.716-1.116,5.4-3.168,10.252C89.192,661.1,65.985,700.812,55.093,704.05c-13.537,4.025-19.757-1.1-24.147-10.244s-10.976-10.244-14.269-16.83-7.317-19.391-10.244-27.44c-.765-2.107-1.771-4.379-2.759-6.867-2.781-7.006-5.422-15.729-2.181-27.341a20.618,20.618,0,0,1,3.183-6.5q.6-.845,1.288-1.643c4.665-5.506,11.591-9.231,16.783-11.445.362-.154.713-.3,1.057-.439,0,0,.007,0,.011,0,1.632-.662,3.04-1.163,4.087-1.507.015,0,.029-.011.044-.015,1.193-.391,1.9-.582,1.9-.582s4.207,7.866,5.671,10.061,12.44,46.1,16.464,41.709S77.625,603.85,77.625,603.85s22.836,18.245,23.2,27.026" transform="translate(0 -515.377)" fill="#6c4e4e"/>
      <path id="Trazado_236914" data-name="Trazado 236914" d="M262.461,697.049a170.765,170.765,0,0,1-23.887,34.479q-.432.487-.869.973a1.387,1.387,0,0,0-.111-.128c-2.729-2.6-2.81-6.368-4.019-9.748-1.343-3.755-5.617-10.4-8.308-13.34-1.181-1.289-1.625,1.466-.49,2.764,2.9,3.313,5.745,9.676,6.816,13.945.764,3.047,1.366,6.757,4.317,8.491-7.972,8.767-16.5,17.737-19.907,29.3-.5,1.706,2.053,2.365,2.635.727,4.612-12.973,14.518-22.323,23.351-32.465,9.147-10.5,15.886-21.639,21.866-34.175.679-1.424-.638-2.249-1.393-.823" transform="translate(-187.61 -604.966)" fill="#4a3333"/>
      <path id="Trazado_236915" data-name="Trazado 236915" d="M62.452,711.977c-4.317-3.7-8.624-7.471-13.87-9.812a28,28,0,0,0-5.122-1.738,15.943,15.943,0,0,0-7.808-.066q.6-.845,1.288-1.643a19.1,19.1,0,0,1,7.35.479,28.137,28.137,0,0,1,3.337,1.046c6,2.294,11.166,6.4,15.718,10.841.589.574-.285,1.416-.893.893" transform="translate(-30.975 -606.912)" fill="#4a3333"/>
      <path id="Trazado_236916" data-name="Trazado 236916" d="M543.409,813.674c-4.6-10.981-10.382-22.353-21.265-28.259-.747-.405-1.315.774-.577,1.182,10.547,5.838,15.919,16.944,20.523,27.549.356.82,1.67.365,1.319-.472" transform="translate(-452.849 -682.313)" fill="#4a3333"/>
      <path id="Trazado_236917" data-name="Trazado 236917" d="M100.249,955.277C96.733,964,96.2,964.8,91.559,973.61c-4.059,7.7-7.257,11.235-13.075,17.758-5.99,6.716-13.847,13-23.412,12.019a16.3,16.3,0,0,1-11.351-6.218c-2.564-3.409-4-7.5-6.824-10.743-3.266-3.741-7.222-6.467-9.82-10.813-2.523-4.22-13.518-34.915-15.347-39.672-.532-1.384-.426,3.984-.052,5.429,1.138,4.4,10.1,29.99,12.141,34.072,2.134,4.267,5.164,7.379,8.609,10.6a25.371,25.371,0,0,1,4.5,5.388c1.27,2.1,2.309,4.328,3.676,6.367a19.04,19.04,0,0,0,10.075,7.619c9.331,3.016,18.692-1.293,25.529-7.576,6.92-6.359,12.232-14.29,16.635-22.538,5.324-9.973,4.669-8.784,8.893-19.259.7-1.74-.8-2.49-1.49-.769" transform="translate(-9.873 -812.969)" fill="#fddcb4"/>
      <path id="Trazado_236918" data-name="Trazado 236918" d="M772.042,420.817a2.179,2.179,0,0,0-2.1-2.122,4.177,4.177,0,0,0-2.257-1.848c-.3-.088-1.109-.171-.749.419a4.783,4.783,0,0,0,.643.7,2.5,2.5,0,0,1,.583,1c.073.268.059.247-.159.416a4.76,4.76,0,0,0-.49.426.7.7,0,0,0-.12.168c-2.043,2.272-1.224,5.161-1.621,7.981-.536,3.8-2.793,7.521-4.338,11-2.79,6.276-6.505,13-5.326,20.077-.386.739-1.405,3.577-1.8,4.309-.379.695,1.267-.81,1.676-1.489.294-.488.5-1.131.829-1.573a3.825,3.825,0,0,1,.342.706c.127.278.254.557.4.823a1.138,1.138,0,0,0,.64.608.158.158,0,0,0,.148-.019.173.173,0,0,0,.04-.108,9.5,9.5,0,0,0-.24-2.528,20.158,20.158,0,0,1,.044-6.258,26.394,26.394,0,0,1,.856-3.246c1.186-4,3.151-7.7,4.839-11.512a68.622,68.622,0,0,0,3.55-8.465,13.732,13.732,0,0,0,.526-4.065c-.025-1.74-.61-5.749,2.063-5.916a.909.909,0,0,1,.543.105,1.17,1.17,0,0,1,.385.974c.186,3.292-.037,6.595.044,9.891,0,.18.112,1.712.515,1.116.135-.2.058-.837.076-1.083q.037-.523.077-1.045c.107-1.418.222-2.835.288-4.256a26.784,26.784,0,0,0,.093-5.184" transform="translate(-655.306 -362.112)" fill="#de835c"/>
      <path id="Trazado_236919" data-name="Trazado 236919" d="M633.705,335.234c-.125-1.716-.368-3.222-2.451-3.4a4.125,4.125,0,0,0-2.585.8c-1.552,1.01-2.457,2.326-4.511,1.856-2.585-.592-3.834.808-5.428,2.751-1.909,2.327-3.809,4.66-5.639,7.05-.964,1.259-1.908,2.533-2.82,3.83-.37.526-2.256,3.742-2.63,3.577-.522-.231-.154-3.631-.158-4.286a9.111,9.111,0,0,0-.432-3.27,3.527,3.527,0,0,0-4.2-2.395.615.615,0,0,0,.327,1.185c3.573-.542,2.852,5.32,2.84,7.365-.006,1.129-.432,3.255,1.195,3.435,1.658.183,2.61-2.4,3.341-3.481,1.551-2.295,3.213-4.514,4.925-6.691,1.61-2.047,3.229-4.1,4.923-6.079a7.114,7.114,0,0,1,1.417-1.406c.9-.587,1.58-.135,2.535.034a3.762,3.762,0,0,0,2.259-.252c1.866-.782,5.1-4.8,5.633-.62a4.717,4.717,0,0,0,.411,2.2c.7,1.139,1.553,1.667,1.188,3.234a.7.7,0,0,0,1.356.374c.835-2.52-1.333-3.547-1.5-5.81" transform="translate(-523.389 -288.294)" fill="#de835c"/>
      <path id="Trazado_236920" data-name="Trazado 236920" d="M1261.655,865.891c0,1.01-3.59,2.356-3.59,2.356l-.151.857c-.3,1.71-1.788,2.282-3.525,2.279l-60.612-.112-118.6-.219s-3.815-3.7-2.244-4.713,63.617,0,63.617,0,1.234-85.048,3.815-87.628c2.393-2.393,106.839-2.953,122.57-1.77.227.017.435.035.624.052.843.079,1.308.166,1.349.259.673,1.571-3.254,87.628-3.254,88.638" transform="translate(-931.858 -674.503)" fill="#b0c1d3"/>
      <path id="Trazado_236921" data-name="Trazado 236921" d="M2052.08,781.494a.788.788,0,1,1-.785-.851.82.82,0,0,1,.785.851" transform="translate(-1781.525 -678.239)" fill="#7994a5"/>
      <path id="Trazado_236922" data-name="Trazado 236922" d="M1583.5,883.1h118.035s3.7-86.843,2.917-87.179-116.351-.224-117.81,1.234S1583.5,883.1,1583.5,883.1" transform="translate(-1375.782 -691.376)" fill="#2f385b"/>
      <path id="Trazado_236923" data-name="Trazado 236923" d="M1515.95,1461.977a5.272,5.272,0,0,0,2.221,1.857c1.15.314,28.533,0,28.533,0s2.811-.783,3.165-1.857Z" transform="translate(-1317.089 -1270.196)" fill="#7994a5"/>
      <path id="Trazado_236924" data-name="Trazado 236924" d="M1541.09,385.679c-.432.354-4.492.655-10.972.9-1.99,4.736-8.514,20.172-9.115,20.373s2.54-14.938,3.642-20.2c-6.071.165-13.475.291-21.6.373-16.566.165-36.147.149-53.634-.087-25.38-.345-39.732-1.151-40.653-2.536-4.632-6.95-4.254-101.616.236-101.616,0,0,17.364-.782,45.4-1.316l4.01-.073q1.531-.028,3.075-.052.8-.014,1.6-.026,4.158-.071,8.354-.128l1.3-.017q3.148-.043,6.286-.076l2.8-.028.759-.007q2.382-.021,4.738-.038c2.971-.021,5.9-.033,8.767-.038h.505c.534,0,1.064,0,1.593,0,23.769,0,42.714.6,43.149,2.51,1.182,5.2,2.363,99.961-.236,102.088" transform="translate(-1221.082 -244.209)" fill="#e5eaec"/>
      <path id="Trazado_236925" data-name="Trazado 236925" d="M1761.172,179.218c.953-2,2.782-3.257,3.818-5.155,1.1-2.019-1.079-4.461-.883-6.689.156-1.768.943-3.363,1.164-5.079-1.011-1.195-3.128-3.944-2.975-5.879.2-2.535,5.671-7.205,6.091-7.9a14.594,14.594,0,0,0,1.907-5.68c.2-2.535,4.8-5.451,7.425-6.338a4.735,4.735,0,0,1,1.256-.218,42.994,42.994,0,0,1-.009,10.514c-.981-.1-1.75-.132-2.049-.155-1.086-.086,0,0-.562,2.507s-.982,3.2-4.08,5.509-2.459,3.45-2.459,3.45l11.855,20.617,1.768,9.064s-3.861,9.222-10.151,5.81-9.1-10.31-8.281-13.122a25.556,25.556,0,0,1,3.758-7.107,14.63,14.63,0,0,1-2.352-2.658,4.841,4.841,0,0,1,.462,2.428c-.2,1.786-1.608,3.046-2.714,4.33a10.754,10.754,0,0,0-2.634,7.678c.038.965-1.435.954-1.494,0a11.889,11.889,0,0,1,1.138-5.926" transform="translate(-1529.133 -118.402)" fill="#4a3333"/>
      <path id="Trazado_236926" data-name="Trazado 236926" d="M1794.193,939.024c-16.566.165-36.147.149-53.634-.087.678-3.623,1.179-6.336,1.484-8,.227-1.248.345-1.9.345-1.9l36.1-11.622,3.417-1.1s.979,1.571,2.42,4.008c1.465,2.479,3.415,5.851,5.3,9.37,1.706,3.178,3.363,6.473,4.566,9.332" transform="translate(-1512.234 -796.113)" fill="#db7142"/>
      <path id="Trazado_236927" data-name="Trazado 236927" d="M2321.058,976.122c.139-.717-.992-.807-1.13-.1-.878,4.533-2.838,9.563-7.879,10.643-.713.153-.522,1.271.193,1.118,5.588-1.2,7.834-6.589,8.816-11.664" transform="translate(-2008.366 -847.566)" fill="#7197c7"/>
      <path id="Trazado_236928" data-name="Trazado 236928" d="M1527.625,559.181c2.286,3.429,8.381,5.714,12.571,7.238,4.118,1.5,14.126-9.886,14.469-10.274-.133.225-2.278,3.844-2.278,5.322a8,8,0,0,0,.655,2.945s-.274.484,4.3,1.246,11.428-.762,22.1-3.048,21.5.9,21.5.9a11.089,11.089,0,0,1,.972-1.657,1.7,1.7,0,0,0,.179-.937c5.87,8.469,16.061,9.524,21.535,5.509a13.131,13.131,0,0,0,5.318-10.724c.034-.872.015-1.634.015-2.229a6.3,6.3,0,0,1,.358-2.114c.564-1.6,1.722-3.074,3.071-5.5,1.9-3.429-3.81-11.048-6.1-12.952s-10.667-14.476-12.571-18.286a56.614,56.614,0,0,0-5.353-7.985c-.061-.084-.122-.164-.179-.248a27.83,27.83,0,0,0-8.4-7.337,29.038,29.038,0,0,0-5.509-2.85,26.43,26.43,0,0,0-6.949-1.185q-3.5-.24-7.017-.225a22.838,22.838,0,0,0-4.331.32c-1.943.381-2.754-.114-4.362,1.032-1.756,1.253-6.5,4.32-8.381,5.333-4.952,2.667-7.158,4.011-10.286,6.857-2.933,2.67-4.1,4.91-6.286,8.19-4.572,6.857-9.9,8.381-12.953,11.047s-3.81,6.857-5.333,11.048-3.048,6.476-4.571,9.524,1.524,7.619,3.81,11.048" transform="translate(-1323.566 -429.876)" fill="#fc9081"/>
      <path id="Trazado_236929" data-name="Trazado 236929" d="M2088.834,817.256c.4-3.2,2.179-6.144,4.061-8.819a.709.709,0,0,1,.12-.434c1.318-2.094,3.034-4.436,5.507-5.211,3.1-.969,6.093,1.121,9.263.536,2.906-.536,5.382-.7,8.005.933,2.558,1.591,4.24,4.158,5.617,6.767.4.764-.736,1.437-1.162.679-1.322-2.353-2.845-4.732-5.2-6.17-2.725-1.662-4.969-.941-7.9-.569-2.406.306-4.422-.9-6.769-.929-2.875-.032-4.61,2.63-6.084,4.711a.832.832,0,0,1-.122.136c-1.229,2.359-2.916,4.5-3.594,7.127a11.676,11.676,0,0,0,2.451,10.253c.582.724-.392,1.76-1.044,1.044a12.728,12.728,0,0,1-3.153-10.055" transform="translate(-1814.739 -697.256)" fill="#e86f64"/>
      <path id="Trazado_236930" data-name="Trazado 236930" d="M2076.069,752.466a52.384,52.384,0,0,1,4.127,7.687c.34.772-.783,1.456-1.151.673a70.44,70.44,0,0,0-4.23-7.627c-.5-.8.743-1.51,1.254-.733" transform="translate(-1802.541 -653.468)" fill="#e86f64"/>
      <path id="Trazado_236931" data-name="Trazado 236931" d="M1561.865,781.332a.739.739,0,0,1-1.275-.745,9.117,9.117,0,0,1,4.177-3.974c.939-.437,1.96-.559,2.915-.924,1.445-.553,1.643-1.677,2.616-2.667,2.976-3.028,7.263-1.281,10.157.864,7.2,4,11.482,12.628,8.211,20.622-.31.758-1.552.452-1.257-.346,2.992-8.1-1.621-15.829-8.818-19.585a.635.635,0,0,1-.366-.5,7.749,7.749,0,0,0-3.61-1.175,4.4,4.4,0,0,0-3.248,1.185c-.527.544-.794,1.288-1.3,1.848a3.523,3.523,0,0,1-.45.415c-1.006,2.028-2.887,3.5-4.535,5.041a8.97,8.97,0,0,0-2.924,4.259c-.464,1.922.045,3.922.431,5.811a.316.316,0,0,1-.609.168,13.923,13.923,0,0,1-.683-5.261,7.6,7.6,0,0,1,2.034-4.233c1.593-1.787,3.744-3.2,5.125-5.153-.658.25-1.368.4-2.075.629a8.135,8.135,0,0,0-4.513,3.717" transform="translate(-1355.788 -670.207)" fill="#e86f64"/>
      <path id="Trazado_236932" data-name="Trazado 236932" d="M1805.659,613.572c1.3-4.537,2.763-8.983,3.143-13.716.068-.843,1.33-.629,1.289.2a51.063,51.063,0,0,1-3.066,13.915c-.26.758-1.591.39-1.367-.4" transform="translate(-1568.772 -520.701)" fill="#e86f64"/>
      <path id="Trazado_236933" data-name="Trazado 236933" d="M2100.875,617.352a44.764,44.764,0,0,1,8.785-17.277c.271-.339.806.066.537.409a49.285,49.285,0,0,0-5.231,8.2,62.972,62.972,0,0,0-3.458,8.841c-.115.351-.718.2-.633-.171" transform="translate(-1825.277 -521.246)" fill="#e86f64"/>
      <path id="Trazado_236934" data-name="Trazado 236934" d="M1879.982,341.231c-2.831,2.3-9,6.552-12.793,6.575-4.957.03-9.143-2.667-11.048-8,1.327-.959,6.5-4.36,6.917-4.781a4.743,4.743,0,0,0,.862-2.446c.014-.095.028-.193.042-.291a18.274,18.274,0,0,0-.738-6.041c-.022-.08-.033-.123-.033-.123l2.516-2.946,9.573-11.835,11.768,23.446a48.552,48.552,0,0,1-7.066,6.442" transform="translate(-1612.655 -270.501)" fill="#db7142"/>
      <path id="Trazado_236935" data-name="Trazado 236935" d="M1908.257,387.349c.011-.095.022-.193.032-.292a18.289,18.289,0,0,0-.935-6.014l2.381-3.148,7.662-3.483s1.9,10.286-9.141,12.938" transform="translate(-1657.149 -325.296)" fill="#1a1a1a"/>
      <path id="Trazado_236936" data-name="Trazado 236936" d="M2005.679,298.267m.019-.431h0Zm-.015.431h0" transform="translate(-1742.575 -258.766)" fill="#f1404c"/>
      <path id="Trazado_236937" data-name="Trazado 236937" d="M1832.49,211.107c.38,2.146-2.156,18.052,8.841,19.81,4.691.75,10.263-3.112,12.841-8.256.859-1.715.906-6.853.906-6.853s5.254.113,3.695-5.255c-.764-2.629-3.449-3.547-4.786-2.037a9.971,9.971,0,0,0-1.692,3s1.271-5.8-.17-9.063c-.226-.512-1.8-2.7-2.339-2.854-4.618-1.341-12.834-3.448-17.281,4.992a25.113,25.113,0,0,0-.014,6.515" transform="translate(-1591.915 -172.325)" fill="#db7142"/>
      <path id="Trazado_236938" data-name="Trazado 236938" d="M1924.26,308.9a.716.716,0,0,1,.663-.283c.03,0,.06,0,.089,0a.146.146,0,0,1,.032,0c.011,0,.02.006.03.008.912.111,1.307,1.425.957,2.147a.67.67,0,0,1-.24.43.732.732,0,0,1-.483.124.154.154,0,0,1-.045.019.889.889,0,0,1-.936-.568,1.531,1.531,0,0,1-.068-1.877" transform="translate(-1671.585 -268.124)" fill="#1a1a1a"/>
      <path id="Trazado_236939" data-name="Trazado 236939" d="M1838.938,318.985a.991.991,0,0,1,1.536-.146,1.1,1.1,0,0,1,.126.132.928.928,0,0,1,.236.543c0,.024,0,.047,0,.071,0,.007,0,.014,0,.022a2.173,2.173,0,0,1-.2,1.012c-.324.571-1.112.458-1.558-.071a1.384,1.384,0,0,1-.148-1.563" transform="translate(-1597.554 -276.759)" fill="#1a1a1a"/>
      <path id="Trazado_236940" data-name="Trazado 236940" d="M1880.9,356.34a.5.5,0,0,1,.614-.477l.919.207a.724.724,0,0,1,.535.725.5.5,0,0,1-.614.477l-.919-.207a.723.723,0,0,1-.535-.725" transform="translate(-1634.163 -309.17)" fill="#c1562b"/>
      <path id="Trazado_236941" data-name="Trazado 236941" d="M1908.448,260.368c.659-.556.556-.549,1.247-1.076s1.472-1,2.194-1.507c.651-.462,1.459.342.8.807-.722.511-1.5.97-2.194,1.507s-.589.519-1.248,1.076c-.606.512-1.408-.295-.8-.807" transform="translate(-1657.911 -223.85)" fill="#4a3333"/>
      <path id="Trazado_236942" data-name="Trazado 236942" d="M1838.26,292.993a2.866,2.866,0,0,1,1.688.84c.536.454-.208,1.49-.75,1.031a2.047,2.047,0,0,0-1.125-.657c-.73-.059-.546-1.274.187-1.214" transform="translate(-1596.552 -254.557)" fill="#4a3333"/>
      <path id="Trazado_236943" data-name="Trazado 236943" d="M1803.993,153.889c.2-2.535,2.183-4.565,2.6-5.261a33.406,33.406,0,0,0,1.906-5.68c1.039-3.927,4.8-5.451,7.425-6.338s7.714,1.4,9.664,2.222c4.871,2.063,10.8,2.792,14.194,7.256.03.039.054.08.083.12a15.715,15.715,0,0,1,3.041,4.188,15.948,15.948,0,0,1,1.365,3.926c.4,1.959.169,4.106,1.344,5.819,1,1.459,2.626,2.374,4.006,3.433a23.09,23.09,0,0,1,3.526,3.24,11.791,11.791,0,0,1,3.154,8.635c-.077.894-1.441.925-1.417,0,.1-3.725-1.727-6.756-4.408-9.212-1.993-1.827-4.8-3.138-6.286-5.475s-1.016-5.4-1.88-7.959c-.076-.225-.158-.446-.244-.666.37,2.634.278,5.408.45,7.97a10.109,10.109,0,0,0,.369,2.452,7.676,7.676,0,0,0,1.169,2.136c1.885,2.57,4.487,4.507,6.747,6.754,2.789,2.772,4.991,6.448,4.627,10.509-.349,3.9-2.74,8.1-4.986,11.2,0,.006-2.458-1.8-2.681-1.953a16.521,16.521,0,0,0-1.8-1.073c-.473-.239-1.471-.879-2.006-.6-.182.094-2.781,2.125-3.462,2.594a10.5,10.5,0,0,1-1.557.943,6.4,6.4,0,0,1-6.81-1.384,9.015,9.015,0,0,1-2.306-3.7,20.578,20.578,0,0,1,.354-13.471,18.707,18.707,0,0,0,.887-2.326c.084-.416-.194-.543-.474-.841a8.292,8.292,0,0,1-1.885-3,11.7,11.7,0,0,1,.155-6.589s-3.209-.684-3.752-7.652c-.3-3.9-9.988-7.349-10.551-4.843s-.982,3.2-4.08,5.509-2.459,3.45-2.459,3.45-4.232-1.792-4.031-4.327" transform="translate(-1567.341 -118.515)" fill="#4a3333"/>
      <path id="Trazado_236944" data-name="Trazado 236944" d="M1883.978,383.889a.24.24,0,0,1,0-.048c0-.327.729-.709.972-.852a9.236,9.236,0,0,1,1.657-.762,3.591,3.591,0,0,1,1.507-.354.35.35,0,0,1,.307.048,1.105,1.105,0,0,1,.377.715,9.176,9.176,0,0,1,.188,1.71c.007.146-.048.322-.189.359a.419.419,0,0,1-.278-.061,7.835,7.835,0,0,0-3.1-.628c-.273-.009-.546-.012-.819-.011-.2,0-.573.1-.617-.116" transform="translate(-1636.835 -331.765)" fill="#fff"/>
      <path id="Trazado_236945" data-name="Trazado 236945" d="M1649.424,875.437s-1.9,9.143-7.619,10.667-8.683-9.717-7.58-15.335,15.2,4.668,15.2,4.668" transform="translate(-1419.651 -755.084)" fill="#7c2e13"/>
      <path id="Trazado_236946" data-name="Trazado 236946" d="M1633.326,609.731c5.287-.339,14.331-8.008,16.663-11.006.606-.777,1.257-1.528,1.943-2.255,1.813-1.943,3.84-3.73,5.764-5.516.465-.434.937-.865,1.41-1.291q1.72-1.56,3.516-3.055c1.779-1.482,3.611-2.9,5.5-4.2a74.134,74.134,0,0,0,7.1-4.88c1.52-1.322,2.956-2.735,4.56-3.947a22.918,22.918,0,0,1,3.318-2.091,11.852,11.852,0,0,0,2.389-1.421,3,3,0,0,0,1.154-2.419,1.751,1.751,0,0,0-1.866-1.63,2.248,2.248,0,0,0-1.048.568c-.994.857-1.741,2.088-2.983,2.529-.968.347-2.008,1.162-2.747.446-.248-1.787-.7-3.943.411-5.356.583-.739,1.569-1,2.35-1.52a4.621,4.621,0,0,0,1.676-2.735,7.422,7.422,0,0,0,2.347-1.368c.651-.636.724-1.947.888-2.842.091-.491.149-1.086-.229-1.413a1,1,0,0,0-.575-.213,2.91,2.91,0,0,0-1.657.56c-1.783,1.067-3.356,2.758-5.044,3.973q-3.588,2.577-7.177,5.162a14.535,14.535,0,0,0-3.41,3.04c-1.592,2.179-2.419,4.377-4.255,6.354-2.168,2.332-7.741,5.63-13.562,8.785-1.025.556-2.065,1.112-3.094,1.657-6.438,3.406-12.491,6.4-13.821,7.463-5.714,4.571-.274,18.674.48,18.625" transform="translate(-1416.406 -481.42)" fill="#db7142"/>
      <path id="Trazado_236947" data-name="Trazado 236947" d="M1939.054,657.739a14.069,14.069,0,0,0,2.7-8.266.628.628,0,0,1,1.256,0,12.809,12.809,0,0,1-2.877,9.1c-.5.586-1.508-.183-1.075-.83" transform="translate(-1684.599 -563.75)" fill="#c1562b"/>
      <path id="Trazado_236948" data-name="Trazado 236948" d="M1990.543,674.917a3.875,3.875,0,0,0,.013-.72.658.658,0,0,1,.652-.652.665.665,0,0,1,.652.652,3,3,0,0,1-.3,1.86.615.615,0,0,1-1.137-.308,6.44,6.44,0,0,1,.122-.832" transform="translate(-1729.319 -585.19)" fill="#c1562b"/>
      <path id="Trazado_236949" data-name="Trazado 236949" d="M1961.223,593.677c.907-.7,1.838-1.321,2.7-2.089.747-.669,1.476-1.357,2.268-1.974.828-.646,2.942-2.236,3.537-.469a.315.315,0,0,1-.574.242c-.669-1.277-3.769,1.89-4.358,2.424a12.455,12.455,0,0,1-3.311,2.476c-.381.158-.526-.4-.257-.609" transform="translate(-1703.831 -511.16)" fill="#c1562b"/>
      <path id="Trazado_236950" data-name="Trazado 236950" d="M2012.56,564.613c.62-.526,1.267-1.023,1.9-1.53a11.671,11.671,0,0,1,1.519-1.2c.593-.323,1.087.066,1.48.524a.338.338,0,0,1,.008.432l0,.005a.337.337,0,0,1-.508.011.687.687,0,0,0-.895-.135,5.9,5.9,0,0,0-1.088.873c-.659.529-1.31,1.068-1.984,1.576-.321.241-.738-.3-.431-.559" transform="translate(-1748.46 -488.073)" fill="#c1562b"/>
      <path id="Trazado_236951" data-name="Trazado 236951" d="M1772.021,773.541c-.792-2.091-1.695-4.152-2.489-6.246.41-.22.821-.441,1.228-.662l9.345,7.676c-.472.427-.945.857-1.41,1.291-1.412,1.312-2.879,2.625-4.278,4-.838-2-1.628-4.027-2.4-6.058" transform="translate(-1537.406 -666.067)" fill="#7c2e13"/>
      <path id="Trazado_236952" data-name="Trazado 236952" d="M2143.328,923.979s-.762,10.667,3.809,11.81,7.435-13.019,7.435-13.019Z" transform="translate(-1862.126 -801.721)" fill="#7c2e13"/>
      <path id="Trazado_236953" data-name="Trazado 236953" d="M1722.171,650.5a.976.976,0,0,1,1,.127,3.359,3.359,0,0,1,.706.785c.252.339.876,1.055,1.371.952.361-.076.225-.7.306-1.03a1.773,1.773,0,0,1,.529-.937,1.1,1.1,0,0,1,1.018-.248c.5.155.7.662.944,1.067a15.665,15.665,0,0,0,.981,1.414c.342.444.707.87,1.088,1.281.2.218,1.158.928,1.18,1.189-.058-.693-.028-1.556.6-1.866a1.2,1.2,0,0,1,1.245.22,3.648,3.648,0,0,1,.8,1.062,35.337,35.337,0,0,0,4.857,7.18.374.374,0,0,1,.1.051,21.733,21.733,0,0,0,7.459,3.383.346.346,0,0,1,0,.659c12.317,4.44,38.469,11.2,38.469,11.2.762.381,5.615,2.643,3.238,11.238-2.476,8.952-3.809,8-3.809,8-4.191-.381-40.116-19.44-42.46-20.266-2.489-.877-5.236-1.343-7.233-3.067a14.4,14.4,0,0,1-2.688-3.524c-.947-1.419-2.5-3.354-4.1-3.932-.746-.269-1.663-.429-2.006-1.144a1.589,1.589,0,0,1,1.009-1.991,2.816,2.816,0,0,1,1.019-.175c.148,0,.717.18.727-.043a.373.373,0,0,0-.113-.238c-1-1.217-2.25-2.2-3.357-3.319a7.234,7.234,0,0,1-1.164-1.452,3.287,3.287,0,0,1-.365-1.685,1.766,1.766,0,0,0-.6-1.051,5.173,5.173,0,0,1-.709-1.031c-.394-.686-1.008-2.276-.023-2.81" transform="translate(-1495.797 -564.824)" fill="#db7142"/>
      <path id="Trazado_236954" data-name="Trazado 236954" d="M1796.4,692.025a22.962,22.962,0,0,0,2.042,4.556.347.347,0,0,1-.6.35,18.209,18.209,0,0,1-2.12-4.719c-.131-.434.544-.618.677-.187" transform="translate(-1560.147 -601.033)" fill="#c1562b"/>
      <path id="Trazado_236955" data-name="Trazado 236955" d="M1751.022,668.366a33.118,33.118,0,0,0,3.928,6.89c.228.307-.28.7-.531.409a26.123,26.123,0,0,1-4.046-7.121c-.155-.406.493-.577.649-.179" transform="translate(-1520.74 -580.494)" fill="#c1562b"/>
      <path id="Trazado_236956" data-name="Trazado 236956" d="M1829.493,758.3a12.307,12.307,0,0,0,2.823,7.019.617.617,0,0,1-.943.794,11.294,11.294,0,0,1-3.221-7.928c-.029-.866,1.305-.737,1.34.115" transform="translate(-1588.337 -658.215)" fill="#c1562b"/>
      <path id="Trazado_236957" data-name="Trazado 236957" d="M1774.309,741.139a3.7,3.7,0,0,1,1.443,1.983,9.451,9.451,0,0,0,1.818,2.582.688.688,0,0,1-.972.972,8.222,8.222,0,0,1-1.746-2.185c-.437-.791-.592-1.762-1.314-2.353-.58-.474.16-1.326.772-1" transform="translate(-1540.703 -643.855)" fill="#c1562b"/>
      <path id="Trazado_236958" data-name="Trazado 236958" d="M1847.678,731.624a26.571,26.571,0,0,0,3.4,2.578,22,22,0,0,0,3.891,1.758.334.334,0,0,1-.177.643,16.272,16.272,0,0,1-7.595-4.5.338.338,0,0,1,.478-.478" transform="translate(-1604.802 -635.573)" fill="#c1562b"/>
      <path id="Trazado_236959" data-name="Trazado 236959" d="M2319.049,898.841a24.5,24.5,0,0,1,1.15,7.562c.034-.872.015-1.634.015-2.229a6.3,6.3,0,0,1,.358-2.114,24.543,24.543,0,0,0-.891-3.394c-.134-.4-.762-.228-.632.175" transform="translate(-2014.822 -780.583)" fill="#e86f64"/>
      <path id="Trazado_236960" data-name="Trazado 236960" d="M1747.62,130.533c-1.529-1.2-3.221-2.119-4.7-3.395-.8-.688-1.968.458-1.168,1.168a18.706,18.706,0,0,0,5.1,3.559c.722.289,1.392-.85.776-1.332" transform="translate(-1513.034 -110.277)" fill="#ffe9d2"/>
      <path id="Trazado_236961" data-name="Trazado 236961" d="M1845.085,27.36q-1.333-4.054-2.694-8.1c-.344-1.028-1.972-.593-1.635.45q1.312,4.059,2.638,8.114c.351,1.067,2.044.61,1.69-.466" transform="translate(-1599.248 -16.225)" fill="#ffe9d2"/>
      <path id="Trazado_236962" data-name="Trazado 236962" d="M2049.851,107.484c-.706,1.583-1.414,3.159-2.057,4.769-.329.824,1.046,1.4,1.437.606.733-1.491,1.4-3.008,2.071-4.526.434-.979-1.011-1.836-1.451-.848" transform="translate(-1779.122 -93.003)" fill="#ffe9d2"/>
      <path id="Trazado_236963" data-name="Trazado 236963" d="M2132.286,183.52c-2.25,1.347-4.5,2.687-6.748,4.045a.812.812,0,0,0,.819,1.4c2.254-1.341,4.5-2.7,6.745-4.051a.809.809,0,0,0-.816-1.4" transform="translate(-1846.375 -159.341)" fill="#ffe9d2"/>
    </g>
  </g>
</svg>
