<svg id="Grupo_173563" data-name="Grupo 173563" xmlns="http://www.w3.org/2000/svg" xmlns:xlink="http://www.w3.org/1999/xlink" width="329.64" height="224.911" viewBox="0 0 329.64 224.911">
  <defs>
    <clipPath id="clip-path">
      <rect id="Rectángulo_216575" data-name="Rectángulo 216575" width="329.64" height="224.911" fill="none"/>
    </clipPath>
  </defs>
  <g id="Grupo_173562" data-name="Grupo 173562" clip-path="url(#clip-path)">
    <path id="Trazado_237485" data-name="Trazado 237485" d="M74.8,215.542C54.712,189.511-.189,169.554,23.549,143.368c19.557-21.573,26.993-20.732,37.563-66.222,5.235-22.531,11.148-40.6,53.859-54.975,49.223-16.564,102.45.694,88.9,26.146s87.344,69.707,68.656,104.38-76.094,64.671-90.381,62.795-107.344.05-107.344.05" transform="translate(-12.876 -11.38)" fill="#f1f2f4"/>
    <path id="Trazado_237486" data-name="Trazado 237486" d="M415.824,720.076c0,4.68-66.532,8.473-148.6,8.473s-148.6-3.793-148.6-8.473,66.532-8.473,148.6-8.473,148.6,3.794,148.6,8.473" transform="translate(-86.273 -517.571)" fill="#c2c5ce"/>
    <path id="Trazado_237487" data-name="Trazado 237487" d="M42.21,625.637c1.111-2.116-.656,10.14-13,21.332-9.388,8.514-10.857,3.123-17.557,10.676-1.386,1.563-5.8,7.42-2.506,9.542,4.443,2.859,12.347,2.06,19.954-2.628,9.208-5.674,12.632-4.292,14.865-4.689,2.841-.505,4.984-3.065,4.942-7.513-.053-5.57-1.209-8.681,5.769-18.27l.307-1.691Z" transform="translate(-5.785 -454.871)" fill="#ff9d76"/>
    <path id="Trazado_237488" data-name="Trazado 237488" d="M.081,724.082c-.587,2.745,2.035,6.553,6.566,7.361a19.822,19.822,0,0,0,13.58-2.5c3.123-1.653,6.828-4.124,10.908-4.89s7.9-.6,9.437-2.007c3.547-3.253,2.955-8.17,2.622-9.854-.075-.378-.136-.592-.136-.592s-8.024,4.688-12.921,7.956-9.994,5.542-14.716,4.2.753-7.739-3.276-7.947c-2.87-.151-7.4,2.359-10.031,5.064a7.267,7.267,0,0,0-2.033,3.21" transform="translate(0 -517.571)" fill="#464f6a"/>
    <path id="Trazado_237489" data-name="Trazado 237489" d="M7.756,720.873a7.064,7.064,0,0,0,.744,1.617c4.058,6.482,18.125,4.973,31.415-3.37a55.01,55.01,0,0,0,8.921-6.926c-.075-.378-.136-.592-.136-.592s-8.024,4.688-12.921,7.956-8.476,4.8-13.16,3.334c-3.21-1.008-.8-6.875-4.832-7.083-2.87-.151-7.4,2.359-10.031,5.064" transform="translate(-5.641 -517.571)" fill="#646b82"/>
    <path id="Trazado_237490" data-name="Trazado 237490" d="M125.22,635.829s-1.226,22.558-18.655,34.059c-13.262,8.752-17.979,3.244-18.526,8.805-.221,2.248,4.134,4.064,7.787,5.352,7.251,2.558,12.039,2.853,18.159-.1,10.652-5.139,12.659-3.814,16.27-6.19,3.825-2.517,4.084-5.03,3.664-10.8-.736-10.113-.671-8.652,5.988-21.009l.72-.6Z" transform="translate(-64.028 -462.458)" fill="#ff9d76"/>
    <path id="Trazado_237491" data-name="Trazado 237491" d="M99.017,764.447c9.578,1.23,18.17-4.389,21.926-5.35,5.1-1.3,10.758-2.589,12.136-4.9,1.151-1.935,1.274-4.585,1.059-6.916a27.2,27.2,0,0,0-1.027-5.234c-.507.9-2.567,4.095-9.663,7.461-9.8,4.65-8.531,2.808-13.051,6.134-1.4,1.03-4.014,1.235-6.765-.092-2.727-1.316-2.644-5.544-5.833-4.892-1.531.315-6.09.32-8.768,2.11a4.478,4.478,0,0,0-1.677,1.905c-1.642,3.714,4.858,8.907,11.665,9.778" transform="translate(-63.347 -539.711)" fill="#464f6a"/>
    <path id="Trazado_237492" data-name="Trazado 237492" d="M94.189,752.762c1.451,5.685,12.631,8.155,25.192,5.514,9.6-2.017,17.265-6.441,19.916-11a27.2,27.2,0,0,0-1.027-5.234c-.507.9-2.567,4.095-9.663,7.461-9.8,4.65-8.531,2.808-13.051,6.134-1.4,1.03-4.014,1.235-6.765-.092-2.727-1.316-2.644-5.544-5.833-4.891-1.531.315-6.09.32-8.768,2.11" transform="translate(-68.507 -539.71)" fill="#646b82"/>
    <path id="Trazado_237493" data-name="Trazado 237493" d="M375.62,135.621c-3.255-4.056-16.494-14.689.242-31.444,9.481-9.491,40.117-18.164,47.406,24.362,1.068,6.233,9.329,5.846,23.4,12.606,0,0,39.247,10.758,14.138,77.12,0,0-58.454-25.728-62.523-41.612C395.731,143,387.506,150.431,375.62,135.621Z" transform="translate(-267.346 -70.102)" fill="none" stroke="#2e3656" stroke-miterlimit="10" stroke-width="3.858"/>
    <path id="Trazado_237494" data-name="Trazado 237494" d="M381.956,142.606c.324-10.427-16.74-28.416-.512-38.731C395.881,94.7,415.385,87.3,428.257,128.79c3.531,11.384,65.211,2.321,37.47,90.669,0,0-18.359-6.842-65.112-28.018a66.464,66.464,0,0,1-18.659-48.835" transform="translate(-272.335 -70.354)" fill="#2e3656"/>
    <path id="Trazado_237495" data-name="Trazado 237495" d="M308.309,321.148s-50.062,13.162-56.739,9.524c-10.939-5.959-9.472-4.145-4.244-7.005s51.369-18.9,51.369-18.9Z" transform="translate(-176.989 -221.667)" fill="#ff9d76"/>
    <path id="Trazado_237496" data-name="Trazado 237496" d="M245.552,281.654l28.467-35.745c2.306-2.98,3.283-8.992-1.769-8.844-1.954.057,1.507,4.467-.367,2.657,0,0-4.836,1.193-5.621,1.815.316-.431-42.967,28.413-38.875,37.4,2.239,4.916,14.063,5.159,18.164,2.72" transform="translate(-165.188 -172.423)" fill="#ff9d76"/>
    <path id="Trazado_237497" data-name="Trazado 237497" d="M168.986,419.065c1.694-5.016,20.019,52.3,42.262,59.37,25.688,8.161,63.477-16.828,63.477-16.828-16.465-9.178-28.99-15.779-41.261-24.732,0,0-43.039-57.874-71.212-47.169-12.615,4.793-37.14,67.665-37.14,67.665l13.949,7.4s23.812-27.606,29.924-45.709" transform="translate(-90.998 -282.484)" fill="#191e3f"/>
    <path id="Trazado_237498" data-name="Trazado 237498" d="M209.564,467.657l16.2,5.465s13.158-28.09,16.914-44.73c7.27-32.2,18.7,45.208,51.532,53.507,45.2,10.545,46.273-31.58,46.273-31.58s-24.346,1.392-40.243-10.708c-24.451-18.613-43.586-63.692-72.99-49.735-6.9,1.967-17.683,77.782-17.683,77.782" transform="translate(-152.423 -281.65)" fill="#2e3656"/>
    <path id="Trazado_237499" data-name="Trazado 237499" d="M457.766,273.138c-11.213-5.609-17.5-5.591-17.5-5.591-7.5,5.039-6.979,9.079-16.587,7.175l-9.736-2.236c-17.581,6.5-29.093,10.8-29.093,10.8l7.723,16.9,13.006-1.5s.706,16.532,14.329,17.881c3.385.335-1.3,26.321-.543,28.534,4.513,13.147,48.607,26.243,48.607,26.243,12.751-36.131,1.752-92.224-10.2-98.2" transform="translate(-279.91 -194.595)" fill="#a781e2"/>
    <path id="Trazado_237500" data-name="Trazado 237500" d="M498.215,209.3l.008,0c3.414-1.7,6.971-7.782,5.53-10.384,0,0-11.914-13.112-14.933-21.375-.258-.708-9.384,12.094-9.384,12.094l1.683,4.353s6.888,7.988,6.721,10.7S494.8,211,498.215,209.3" transform="translate(-348.709 -129.109)" fill="#ff9d76"/>
    <path id="Trazado_237501" data-name="Trazado 237501" d="M511.393,204.421c-.041-.062,4.548,11.682-4.368,16.978-1.2.711,14.349-1.815,4.368-16.978" transform="translate(-368.727 -148.682)" fill="#e77b5b"/>
    <path id="Trazado_237502" data-name="Trazado 237502" d="M426.569,171.682s2.265-18.854,1.564-20.236l-5.447-8.046a18.014,18.014,0,0,0-24.157-1.806c-7.58,5.836-3.625,18.11,2.445,24.672,0,0,14.139,16.45,25.6,5.416" transform="translate(-286.834 -100.216)" fill="#ff9d76"/>
    <path id="Trazado_237503" data-name="Trazado 237503" d="M477.5,234.479c-.221-.433-3.046-1.123-6.146.591A3.322,3.322,0,0,0,470.1,239.7c.635,1.2-.34-1.754,5.3-4.09.785-.325,2.254-.815,2.092-1.133" transform="translate(-341.586 -170.173)" fill="#e77b5b"/>
    <path id="Trazado_237504" data-name="Trazado 237504" d="M456.063,225.622a6.621,6.621,0,0,0,2.034-1.379l-.954-.829a3.481,3.481,0,0,1-2.374,1.227c-.649-.049-1.279-.547-1.925-1.524l-1.175.67a3.942,3.942,0,0,0,2.92,2.079,3.3,3.3,0,0,0,1.475-.243" transform="translate(-328.512 -162.279)" fill="#e77b5b"/>
    <path id="Trazado_237505" data-name="Trazado 237505" d="M496.557,156.019c-1.712.85-1.987,3.505-.614,5.931s3.874,3.7,5.586,2.854,1.987-3.506.615-5.932-3.874-3.7-5.586-2.854" transform="translate(-360.079 -113.287)" fill="#ff9d76"/>
    <path id="Trazado_237506" data-name="Trazado 237506" d="M507.143,166.208c.52,1.143.3,2.332-.49,2.657s-1.854-.339-2.374-1.482-.3-2.332.49-2.657,1.854.339,2.374,1.482" transform="translate(-366.573 -119.75)" fill="#e77b5b"/>
    <path id="Trazado_237507" data-name="Trazado 237507" d="M375.812,151.454c8.681,6.958,22.064-8.59,30.327-8.518,1.675.153-3.758-7.658-10.455-7.466-9.559.273-31.231,6.879-19.872,15.984" transform="translate(-271.003 -98.529)" fill="#e77b5b"/>
    <path id="Trazado_237508" data-name="Trazado 237508" d="M367.327,145.053c3.713,13.259,17.835-4.782,28-6.591,3.221-.573,5.584,2.666,7.161,1.423,1.382-1.09.233-9.308-10.7-9.968-10.341-.625-26.4,8.2-24.462,15.137" transform="translate(-267.051 -94.469)" fill="#2e3656"/>
    <path id="Trazado_237509" data-name="Trazado 237509" d="M453.466,189.393,449.2,191.45a.916.916,0,0,1-1.194-.318.79.79,0,0,1,.4-1.09l4.263-2.058a.915.915,0,0,1,1.194.318.789.789,0,0,1-.4,1.09" transform="translate(-325.783 -136.656)" fill="#874b2b"/>
    <path id="Trazado_237510" data-name="Trazado 237510" d="M417.551,215.284l-1.612,3.233a.866.866,0,0,1-1.071.362l-.064-.024a.672.672,0,0,1-.431-.923l1.611-3.233a.866.866,0,0,1,1.071-.362l.064.024a.672.672,0,0,1,.431.923" transform="translate(-301.339 -155.852)" fill="#874b2b"/>
    <path id="Trazado_237511" data-name="Trazado 237511" d="M491.543,255a51.539,51.539,0,0,0,6.1-2.585l11-8.911c6.378,6.935,13.894,6.933,11.727,6.947-5.425.036-8.568,5.369-10.677,8.458C498.021,276,492,264.912,491.543,255" transform="translate(-357.515 -177.104)" fill="#ff9d76"/>
    <path id="Trazado_237512" data-name="Trazado 237512" d="M355.6,145.753c1.53-1.646,4.9-6.149,5.063-6.226.218-.1.723-.119.768,1.087,1.161-1.253,2.076-2.133,2.275-2.035.687.342,1.291,2.281-.46,4.175a20.418,20.418,0,0,0-3.833,5.685,16.816,16.816,0,0,0,1.333-1.374s5.105-5.014,5.344-5.126,1.064-.239,1.008,1.355-2.606,4.313-3.235,5.179c-.864,1.19-3.216,4.647-3.015,5.6.109.517,5.807,9.132,6.169,11.207,1.434,8.234-1.771,6.683-5.265,11.334-.9,1.2-5.81,4.481-7.788,3.6,0,0,8.018-10.04-2.04-23.719-.294-.4.325-1.9.953-3.462a44.57,44.57,0,0,1,2.724-7.278" transform="translate(-255.907 -100.787)" fill="#ff9d76"/>
    <path id="Trazado_237513" data-name="Trazado 237513" d="M395.163,84.207c-1.141,5.057,2.371,9.793,7.843,10.577s10.834-2.679,11.974-7.736-2.371-9.792-7.843-10.577S396.3,79.15,395.163,84.207" transform="translate(-287.258 -55.539)" fill="#2e3656"/>
    <path id="Trazado_237514" data-name="Trazado 237514" d="M390.605,84.207c-1.141,5.057,2.371,9.793,7.843,10.577s10.834-2.679,11.975-7.736-2.371-9.792-7.843-10.577S391.746,79.15,390.605,84.207Z" transform="translate(-283.943 -55.539)" fill="none" stroke="#2e3656" stroke-miterlimit="10" stroke-width="3.858"/>
    <path id="Trazado_237515" data-name="Trazado 237515" d="M416.389,424.849l-50.532-19.524c-2.319-1.118-4.985-1.995-6.958-.058l-1.24,4.442a3.157,3.157,0,0,0,2.265,3.236,10.307,10.307,0,0,0,1.791.957c6.15,4.148,43.3,30.114,49.737,27.075,7.9-3.727,6.181-15.528,4.936-16.128" transform="translate(-260.137 -293.933)" fill="#ff9d76"/>
    <path id="Trazado_237516" data-name="Trazado 237516" d="M280.155,402.194c2.241-.563.386-7.252-.789-7.64,0,0,3.552.824-17.008-3.752a9.419,9.419,0,0,0-3.179.406,72.992,72.992,0,0,0-8.09.823c-3.165.7-4.627.558-4.917,1.626-.137.507.7.773,1.893.924-1.709,1.315-3.757,2.907-3.83,3.042-.115.212-.152.732,1.112.935-1.357,1.036-2.314,1.867-2.218,2.085.334.755,2.347,1.631,4.4.069a19.158,19.158,0,0,1,6.105-3.22,15.386,15.386,0,0,1-1.491,1.2s-4.245,3.737-4.455,3.881c-.689.47.011,1.345,1.686,1.494s3.2-1.434,4.133-1.97c1.28-.737,4.994-2.717,5.985-2.386a32.638,32.638,0,0,1,3.159,1.388c7.158,3.592,11.9,2.506,17.5,1.1" transform="translate(-176.831 -284.218)" fill="#ff9d76"/>
    <path id="Trazado_237517" data-name="Trazado 237517" d="M546.914,388.211c-.368,1.49-16.847,26.916-22.543,33.324-5.749,6.469-15.753-2.949-15.753-2.949s20.248-38.1,20.555-37.978c11.875,4.907,17.741,7.6,17.741,7.6" transform="translate(-369.934 -276.828)" fill="#ff9d76"/>
    <path id="Trazado_237518" data-name="Trazado 237518" d="M431.618,230.684s2.757-.31,2.55-3.94" transform="translate(-313.929 -164.918)" fill="none" stroke="#874b2b" stroke-linecap="round" stroke-linejoin="round" stroke-width="2.804"/>
    <path id="Trazado_237519" data-name="Trazado 237519" d="M460.728,203.644s3.76,1.2,5.306-2.322" transform="translate(-335.102 -146.428)" fill="none" stroke="#874b2b" stroke-linecap="round" stroke-linejoin="round" stroke-width="2.804"/>
    <path id="Trazado_237520" data-name="Trazado 237520" d="M317.275,337.241l-9.13,11.2L322.369,335.2Z" transform="translate(-224.124 -243.802)" fill="#e77b5b"/>
    <path id="Trazado_237521" data-name="Trazado 237521" d="M637.633,351.412a36.45,36.45,0,0,0,5.84-13.364c1.531-6.67,1.531-8.034,1.531-8.034-.765,2.819-6.935,14.228-11.658,19.494Z" transform="translate(-460.652 -240.03)" fill="#6d45a1"/>
    <path id="Trazado_237522" data-name="Trazado 237522" d="M411.437,372.129l13.006-1.5v-4.164l-13.655,4.244Z" transform="translate(-298.779 -266.541)" fill="#6d45a1"/>
    <path id="Trazado_237523" data-name="Trazado 237523" d="M969.208,266.13c0,13.772,14.633,24.936,32.684,24.936,16.86,0,30.739-9.74,32.5-22.247a19.32,19.32,0,0,0,.188-2.689c0-13.772-14.633-24.936-32.684-24.936s-32.684,11.164-32.684,24.936" transform="translate(-704.936 -175.428)" fill="#c2c5ce"/>
    <path id="Trazado_237524" data-name="Trazado 237524" d="M1177.17,364.041l.821-31.4-11.6,13.131Z" transform="translate(-848.35 -241.943)" fill="#c2c5ce"/>
    <path id="Trazado_237525" data-name="Trazado 237525" d="M654.723,33.452c0,18.475,20.192,33.452,45.1,33.452,23.265,0,42.416-13.066,44.841-29.844a25.2,25.2,0,0,0,.259-3.607C744.925,14.977,724.732,0,699.824,0s-45.1,14.977-45.1,33.452" transform="translate(-476.201)" fill="#c2c5ce"/>
    <path id="Trazado_237526" data-name="Trazado 237526" d="M941.692,164.8l1.132-42.117L926.813,140.3Z" transform="translate(-674.101 -89.23)" fill="#c2c5ce"/>
    <path id="Trazado_237527" data-name="Trazado 237527" d="M775.715,429.616c0,15.2,15.3,27.515,34.175,27.515,17.629,0,32.141-10.747,33.979-24.548a22.467,22.467,0,0,0,.2-2.967c0-15.2-15.3-27.515-34.175-27.515s-34.175,12.319-34.175,27.515" transform="translate(-564.202 -292.461)" fill="#c2c5ce"/>
    <path id="Trazado_237528" data-name="Trazado 237528" d="M993.166,537.655l.858-34.643L981.892,517.5Z" transform="translate(-714.161 -365.857)" fill="#c2c5ce"/>
    <path id="Trazado_237529" data-name="Trazado 237529" d="M1058.423,565.1l18.857-68.542h15.24a2.376,2.376,0,0,1,2.262,3.1l-17.557,54.072a8.676,8.676,0,0,1-4.819,5.291c-5.48,2.36-13.983,6.079-13.983,6.079" transform="translate(-769.824 -361.16)" fill="#a781e2"/>
    <path id="Trazado_237530" data-name="Trazado 237530" d="M876.393,707.855l-75.557-.958,8.527-4.417c3.216-1.789,4.17-2.532,10.051-2.776h62.5Z" transform="translate(-582.473 -508.917)" fill="#a781e2"/>
    <path id="Trazado_237531" data-name="Trazado 237531" d="M869.213,727.287v0a3.42,3.42,0,0,0-3.42-3.42H799.118a3.42,3.42,0,0,0-3.42,3.42v0a3.42,3.42,0,0,0,3.42,3.42h66.675a3.42,3.42,0,0,0,3.42-3.42" transform="translate(-578.736 -526.488)" fill="#e9e4f1"/>
    <path id="Trazado_237532" data-name="Trazado 237532" d="M1043.143,564.915h0a3.522,3.522,0,0,0,4.376-2.276l19.39-62.1a3.408,3.408,0,0,0-2.331-4.271,3.521,3.521,0,0,0-4.375,2.275l-19.39,62.1a3.408,3.408,0,0,0,2.331,4.271" transform="translate(-756.904 -360.847)" fill="#e9e4f1"/>
    <path id="Trazado_237533" data-name="Trazado 237533" d="M752.7,96.8s4.19.15,8.306-3.966a26.039,26.039,0,0,0,6.36-11.6c.224-1.5.449-1.571.673-1.571s1.87.15,1.87.524-1.721,1.2-3.442,6.51-2.918,11-2.918,11v7.034a73.844,73.844,0,0,1-7.333-3.816A8.148,8.148,0,0,1,752.7,96.8" transform="translate(-547.462 -57.941)" fill="#ffaebe"/>
    <path id="Trazado_237534" data-name="Trazado 237534" d="M750.346,33.031c-5.612-3.816-16.163-5.013-16.462-5.238s.9-5.088,2.918-9.054a34.557,34.557,0,0,1,4.34-6.585c-5.687,5.163-8.83,14.591-8.979,15.414s.058,1.335,1.347,1.646l.193.045a2.8,2.8,0,0,1,.63,1.451c.15,1.422-2.02,9.578-6.285,13.244s-8.605,2.1-9.952,1.122a8.1,8.1,0,0,1-1.162-1.063,66.756,66.756,0,0,1-4.075-10.535,53.278,53.278,0,0,1-1.945-14.516,50.152,50.152,0,0,0,1.122,15.489c1.945,7.707,4.115,12.2,3.891,12.5a45.127,45.127,0,0,0-4.115,6.585,40.69,40.69,0,0,0-2.469,6.66,35.648,35.648,0,0,1,3.816-6.66,41.449,41.449,0,0,1,5.238-6.211c.005,0,.007-.014.01-.022,1.587,1.354,5.361,4.517,8.3,6.532a43.177,43.177,0,0,0,5.481,3.258,7.79,7.79,0,0,0,.58,1.082c.149.23.3.458.461.684a.656.656,0,0,1-.087.363c-.449.673-6.211,6.585-6.211,6.585.2-.133,5.985-4.147,7.347-5.525a49.594,49.594,0,0,0,5.6,5.974S733.959,59,732.837,53.832,734.557,37,737.027,33.7c1.594-2.125,3.062-2.69,4.467-2.624a30.517,30.517,0,0,1,3.989,1.5c3.973,1.854,7.558,4.789,8.979,9.353s-1.2,9.054-1.2,9.054a25.662,25.662,0,0,1,1.721,7.033c.224,3.442.6,7.408.6,7.408a25.088,25.088,0,0,0,.449-5.462,60.907,60.907,0,0,0-.823-8.53,19.63,19.63,0,0,0,1.721-5.313c.6-3.592-.727-9.111-6.585-13.095m-11.6-2.32a4.489,4.489,0,0,0-2.1,1.871,59.247,59.247,0,0,0-4.864,12.646,27.1,27.1,0,0,0-.528,8.2,1.089,1.089,0,0,1-.22.181c-1.347.823-5.911-1.721-7.557-3.292s-2.395-2.694-1.871-2.544,4.115-.6,7.183-3.442,6.061-10.1,6.435-12.421a9.943,9.943,0,0,0,.149-2.3c.952.191,2.083.421,3.306.714.116.153.175.3.062.388" transform="translate(-515.926 -8.84)" fill="#6c4057"/>
    <path id="Trazado_237535" data-name="Trazado 237535" d="M746.187,96.325c-.075-.748-3.367-3.891-4.19-8.979a31.309,31.309,0,0,0,1.422,7.108c1.122,3.068,2.843,2.619,2.769,1.871" transform="translate(-539.678 -63.53)" fill="#6c4057"/>
    <path id="Trazado_237536" data-name="Trazado 237536" d="M884.11,479s-.2-.654.9-3.168a14.472,14.472,0,0,1,4.023-5.18,2.716,2.716,0,0,1,2.112-.6,8.367,8.367,0,0,1,2.565.453c.905.4,1.006.553,1.006.553a4.741,4.741,0,0,1,.855-1.911c.6-.654,1.509-1.207,1.911-.905a3.472,3.472,0,0,1,.5,3.118,4.505,4.505,0,0,1-1.66,2.464,43.914,43.914,0,0,1-.251,4.878c-.2.4-5.531,7.493-6.739,9.807a54.034,54.034,0,0,0-2.263,5.129s-.553.956-.553.8-1.056-4.627-2.917-6.89-2.766-2.766-4.626-3.017.2-1.308,2.263-1.76a33.177,33.177,0,0,1,3.822-.6Z" transform="translate(-638.781 -340.5)" fill="#fa7ca0"/>
    <path id="Trazado_237537" data-name="Trazado 237537" d="M875.368,420.52c-.032-.095-.66.089-1.3.476a3.43,3.43,0,0,0-1.519-1.029,9.234,9.234,0,0,0-2.962-.239,7.067,7.067,0,0,1-.408-2.728,11.017,11.017,0,0,1,.654-3.772,10.626,10.626,0,0,0-1.056,4.979c0,.245-.232.192-.319.163-.194-.291-.335-.515-.335-.515a13.606,13.606,0,0,0,1.157,2.464,4.674,4.674,0,0,1,2.012,0c1.207.251,1.71,1.006,1.559,1.458-.059.177-.149.493-.237.812a11.174,11.174,0,0,0-.719,1.753l-.052-.025a4.975,4.975,0,0,0-3.469-2.339,5.574,5.574,0,0,0-4.074,1.006,8.707,8.707,0,0,1,3.017-.7c1.609-.05,2.565.905,2.213,1.006a1.006,1.006,0,0,1-.142.028,4.543,4.543,0,0,0-2.322-.33c-1.257.4-3.068,2.263-4.275,4.878s-1.408,4.425-1.71,4.425-1.379-1.409-1.379-1.409c-2.119-2.653-5.081-6.6-5.666-11.648a37.3,37.3,0,0,1,1.538-13.848,35.21,35.21,0,0,0-2.188,6.94c-.528,3.168-1,10.381,2.414,14.86,3.847,5.054,5.464,5.99,6.135,8.675.075.3-.5.377-2.012.3s-6.16,0-9.253,2.414a9.322,9.322,0,0,0-3.093,9.655,24.86,24.86,0,0,0,4,6.638,20.957,20.957,0,0,1-2.188-4c-.716-1.823-1.768-5.442.136-9.017a7.7,7.7,0,0,1,6.5-2.6c4.375.226,6.185,4.6,7.016,7.242a27.456,27.456,0,0,1,.905,6.336,24.4,24.4,0,0,0,.4-3.445c.03-.608,1.333-3.721,2.162-3.8s4.979,5.431,4.979,5.431-1.509-2.741-3.47-5.557c-1.294-1.858-.3-3.646.528-4.853s4.979-6.412,5.431-7.468.3-4.677.3-4.677,1.484-.7,2.137-3.319a5.609,5.609,0,0,0-1.056-4.627m.251,5.129a5.53,5.53,0,0,1-1.861,2.515,35.217,35.217,0,0,1-.352,4.526c-.251.754-4.727,6.035-5.934,8.3s-2.515,5.532-2.967,6.337-.553.453-.6.251a16.962,16.962,0,0,0-3.369-6.839,8.206,8.206,0,0,0-7.041-2.313c-.426.118-.5.025-.45-.106,3.115-1.956,9.258-1.564,9.5-1.5.267.067.315-.834-.5-2.587a6.121,6.121,0,0,1-.107-1.135,14.9,14.9,0,0,1,1.961-6.236,6.411,6.411,0,0,1,3.721-3.118,7.143,7.143,0,0,1,3.168.855,13.722,13.722,0,0,1,1.408.905,5.306,5.306,0,0,1,.7-2.263c.6-.855,1.659-1.609,2.062-1.307a4.114,4.114,0,0,1,.654,3.721" transform="translate(-616.21 -294.848)" fill="#6c4057"/>
    <path id="Trazado_237538" data-name="Trazado 237538" d="M917.8,490.071a4.993,4.993,0,0,1-4.425-.151s2.313,1.861,4.425,1.006,2.062-4.023,2.062-4.023a3.878,3.878,0,0,1-2.062,3.168" transform="translate(-664.329 -354.14)" fill="#6c4057"/>
    <path id="Trazado_237539" data-name="Trazado 237539" d="M889.816,451.489s-2.867-3.068-3.369-6.085a6.993,6.993,0,0,0,1.307,4.275c1.408,1.609,2.062,1.811,2.062,1.811" transform="translate(-644.74 -323.956)" fill="#6c4057"/>
    <path id="Trazado_237540" data-name="Trazado 237540" d="M1037.188,312.473c.519-1.187,2.523-2.746,3.265-2.524s4.676,3.34,11.208,4.6,10.465.594,11.727.742,1.485,2.969,1.485,2.969a19.477,19.477,0,0,0-8.462.965,26.95,26.95,0,0,0-6.309,3.192s-4.75-7.645-7.645-9.278a6.415,6.415,0,0,0-5.27-.668" transform="translate(-754.38 -225.421)" fill="#ffaebe"/>
    <path id="Trazado_237541" data-name="Trazado 237541" d="M1093.786,291.3c.148.594,1.633.742,1.93-1.484s-1.114-5.122-1.114-5.122c.965,3.043-.965,6.012-.816,6.606" transform="translate(-795.539 -207.064)" fill="#6c4057"/>
    <path id="Trazado_237542" data-name="Trazado 237542" d="M1055.56,267.391c-.223-2.524,2.227-5.938,2.227-5.938a14.706,14.706,0,0,0-2.969,4.9c-.594,2.3-.074,3.192,1.188,6.012.161.36.352.76.561,1.2a7.683,7.683,0,0,1,.329,1.774c0,1.262-3.934,1.707-10.466.668s-11.431-4.6-11.134-5.418a2.553,2.553,0,0,1,.23-.457,21.607,21.607,0,0,0,3.7-3.7c1.039-1.707-2.895-7.868-2.895-7.868s2.672,5.2,2.227,6.977-7.571,5.418-9.5,10.466.074,10.02,1.336,12.544a40.713,40.713,0,0,0,4.082,5.938s-3.785-6.086-4.676-10.614a13.508,13.508,0,0,1,.846-7.452c1.716-1.276,5.373-.977,8.209,2.256a16.929,16.929,0,0,1,3.54,8.165,46.331,46.331,0,0,0-1.525,8.166c.154-.772,1.873-7.085,4-9.28,2.227-2.3,7.274-3.934,10.763-3.785,2.649.113,3.756,1.723,3.746,3.727-.012.069-.021.138-.035.207-1.039,5.418-7.051,11.653-7.051,11.653a30.407,30.407,0,0,0,2.895-2.227c1.336-1.188,6.161-6.458,6.235-12.4s-5.641-12.989-5.864-15.513m-1.781,12.767c-4.514.591-7.665,1.844-9.54,3.673-.185.037-.334.035-.406-.037a41.3,41.3,0,0,0-4.973-6.383c-2.186-2.186-5.256-3.283-7.346-2.823a11.025,11.025,0,0,1,1.334-1.928c.668-.668,1.113-.891,1.781-.594a25.008,25.008,0,0,0,10.317,4.6c6.457,1.484,12.247.445,12.766.668a1.1,1.1,0,0,1,.765.635,19.177,19.177,0,0,1,.949,3.81c-.927-1.186-2.661-2.015-5.648-1.624" transform="translate(-747.887 -188.057)" fill="#6c4057"/>
    <path id="Trazado_237543" data-name="Trazado 237543" d="M1074.492,392.222a.556.556,0,0,0-.012.072c0,.019,0-.008.012-.072" transform="translate(-781.503 -285.275)" fill="#6c4057"/>
  </g>
</svg>
