<svg xmlns="http://www.w3.org/2000/svg" xmlns:xlink="http://www.w3.org/1999/xlink" width="610" height="457" viewBox="0 0 610 457">
  <defs>
    <clipPath id="clip-path">
      <rect id="Rectángulo_216960" data-name="Rectángulo 216960" width="556.378" height="341.41" fill="none"/>
    </clipPath>
    <clipPath id="clip-path-3">
      <rect id="Rectángulo_216915" data-name="Rectángulo 216915" width="57.034" height="12.592" fill="none"/>
    </clipPath>
    <clipPath id="clip-path-4">
      <rect id="Rectángulo_216916" data-name="Rectángulo 216916" width="9.532" height="5.69" fill="none"/>
    </clipPath>
    <clipPath id="clip-path-6">
      <rect id="Rectángulo_216922" data-name="Rectángulo 216922" width="9.864" height="19.193" fill="none"/>
    </clipPath>
    <clipPath id="clip-path-8">
      <rect id="Rectángulo_216924" data-name="Rectángulo 216924" width="68.141" height="15.044" fill="none"/>
    </clipPath>
    <clipPath id="clip-path-9">
      <rect id="Rectángulo_216929" data-name="Rectángulo 216929" width="68.142" height="15.044" fill="none"/>
    </clipPath>
    <clipPath id="clip-path-10">
      <rect id="Rectángulo_216934" data-name="Rectángulo 216934" width="83.477" height="18.43" fill="none"/>
    </clipPath>
    <clipPath id="clip-path-11">
      <rect id="Rectángulo_216939" data-name="Rectángulo 216939" width="110.744" height="24.45" fill="none"/>
    </clipPath>
    <clipPath id="clip-path-13">
      <rect id="Rectángulo_216941" data-name="Rectángulo 216941" width="83.475" height="18.43" fill="none"/>
    </clipPath>
    <clipPath id="clip-path-14">
      <rect id="Rectángulo_216946" data-name="Rectángulo 216946" width="16.069" height="13.774" fill="none"/>
    </clipPath>
    <clipPath id="clip-path-15">
      <rect id="Rectángulo_216948" data-name="Rectángulo 216948" width="11.016" height="21.434" fill="none"/>
    </clipPath>
    <clipPath id="clip-path-16">
      <rect id="Rectángulo_216953" data-name="Rectángulo 216953" width="13.232" height="7.373" fill="none"/>
    </clipPath>
  </defs>
  <g id="Grupo_176913" data-name="Grupo 176913" transform="translate(-179.805 -1612)">
    <rect id="Rectángulo_216914" data-name="Rectángulo 216914" width="610" height="457" transform="translate(179.805 1612)" fill="#76abe0"/>
    <g id="Grupo_174352" data-name="Grupo 174352" transform="translate(206.512 1669.866)">
      <g id="Grupo_174351" data-name="Grupo 174351" clip-path="url(#clip-path)">
        <g id="Grupo_174350" data-name="Grupo 174350">
          <g id="Grupo_174349" data-name="Grupo 174349" clip-path="url(#clip-path)">
            <g id="Grupo_174306" data-name="Grupo 174306" transform="translate(10.326 289.593)" opacity="0.3">
              <g id="Grupo_174305" data-name="Grupo 174305">
                <g id="Grupo_174304" data-name="Grupo 174304" clip-path="url(#clip-path-3)">
                  <path id="Trazado_239234" data-name="Trazado 239234" d="M66.384,268.519c0-3.477-12.768-6.3-28.517-6.3s-28.516,2.819-28.516,6.3,12.767,6.3,28.516,6.3,28.517-2.818,28.517-6.3" transform="translate(-9.35 -262.223)"/>
                </g>
              </g>
            </g>
            <path id="Trazado_239235" data-name="Trazado 239235" d="M42.476,79.67A4.366,4.366,0,0,0,46.843,75.3c0-.135-.007-.267-.019-.4a3.109,3.109,0,0,0,5.44-2.061l0-.028a4.366,4.366,0,0,0,5.553-6.6,3.095,3.095,0,0,0,2.935-3.627,4.366,4.366,0,0,0,1.438-6.969,3.711,3.711,0,0,0,.065-6.465,4.366,4.366,0,0,0-1.611-7.163,3.107,3.107,0,0,0-2.827-4.073,4.367,4.367,0,0,0-5.553-6.605l0-.028a3.109,3.109,0,0,0-5.44-2.06c.012-.133.019-.265.019-.4a4.367,4.367,0,0,0-8.445-1.56,3.108,3.108,0,0,0-5.426.42,4.366,4.366,0,0,0-7.913,2.547v.055a3.107,3.107,0,0,0-4.218,2.906,3.013,3.013,0,0,0,.028.39,4.45,4.45,0,0,0-.881-.088,4.366,4.366,0,0,0-3.9,6.34,3.107,3.107,0,0,0-1,5.505A3.339,3.339,0,0,0,12.806,49.7a3.1,3.1,0,0,0,.591,4.317c-1.543,0-2.288,4.869,1.562,4.869a3.109,3.109,0,0,0,1.135,5.4,4.366,4.366,0,0,0,3.9,6.34,4.451,4.451,0,0,0,.881-.088,3.027,3.027,0,0,0-.028.39,3.1,3.1,0,0,0,4.218,2.906V73.9a4.366,4.366,0,0,0,7.913,2.547,3.109,3.109,0,0,0,5.426.421,4.367,4.367,0,0,0,4.078,2.805" transform="translate(1.267 2.553)" fill="#4d0100"/>
            <path id="Trazado_239236" data-name="Trazado 239236" d="M37.419,34.536c-9.628,0-17.433,6.922-17.433,18.235,0,14.11,4.319,21.133,9.134,24.41a4.363,4.363,0,0,0,3.033-1.789,3.108,3.108,0,0,0,5.426.42,4.367,4.367,0,0,0,8.445-1.56c0-.135-.007-.268-.019-.4A3.1,3.1,0,0,0,48.333,74.9l.028,0c3.646-3.9,6.492-10.68,6.492-22.13,0-11.313-7.806-18.235-17.434-18.235" transform="translate(2.086 3.605)" fill="#3d0000"/>
            <path id="Trazado_239237" data-name="Trazado 239237" d="M61.629,83.627a8.624,8.624,0,0,0-2.943-2.183L44.579,75.485V52.544H31.338V75.485L17.232,81.443a8.628,8.628,0,0,0-2.944,2.183Z" transform="translate(1.491 5.484)" fill="#a25742"/>
            <path id="Trazado_239238" data-name="Trazado 239238" d="M29.728,71.132a9.938,9.938,0,0,0,7.649,3.8,9.55,9.55,0,0,0,5.59-1.864V52.544H29.728Z" transform="translate(3.103 5.484)" fill="#893d30"/>
            <path id="Trazado_239239" data-name="Trazado 239239" d="M50.713,52.565c0,18.018-8.56,21.622-13.608,21.622S23.5,70.583,23.5,52.565c0-9.067,6.093-14.614,13.608-14.614S50.713,43.5,50.713,52.565" transform="translate(2.453 3.961)" fill="#ad5d4b"/>
            <path id="Trazado_239240" data-name="Trazado 239240" d="M48.982,51.073a.464.464,0,0,0-.463-.4H39.962c-.722,0-1.816.506-2.786.506s-2.065-.506-2.787-.506H25.832a.464.464,0,0,0-.463.4H23v.835h2.359c.276,1.913,1.219,5.374,1.693,5.374h6.623c.773,0,1.9-1.673,2.318-2.737a1.212,1.212,0,0,1,2.364,0c.416,1.064,1.545,2.737,2.318,2.737H47.3c.474,0,1.418-3.461,1.693-5.374H51.35v-.835ZM33.7,57.025l-6.308.01c-.52,0-2.162-5.69-.791-5.69h7.18c3.818,0,.533,5.68-.081,5.68m13.262.01-6.308-.01c-.614,0-3.9-5.68-.081-5.68h7.18c1.372,0-.271,5.69-.791,5.69" transform="translate(2.401 5.289)" fill="#003e4d"/>
            <g id="Grupo_174309" data-name="Grupo 174309" transform="translate(28.466 56.634)" opacity="0.3">
              <g id="Grupo_174308" data-name="Grupo 174308">
                <g id="Grupo_174307" data-name="Grupo 174307" clip-path="url(#clip-path-4)">
                  <path id="Trazado_239241" data-name="Trazado 239241" d="M33.408,56.961l-6.308.01c-.52,0-2.162-5.69-.791-5.69h7.18c3.818,0,.533,5.68-.081,5.68" transform="translate(-25.775 -51.281)" fill="#e7eae1"/>
                </g>
              </g>
            </g>
            <g id="Grupo_174312" data-name="Grupo 174312" transform="translate(41.154 56.634)" opacity="0.3">
              <g id="Grupo_174311" data-name="Grupo 174311">
                <g id="Grupo_174310" data-name="Grupo 174310" clip-path="url(#clip-path-4)">
                  <path id="Trazado_239242" data-name="Trazado 239242" d="M45.472,56.971l-6.308-.01c-.614,0-3.9-5.68-.081-5.68h7.18c1.372,0-.271,5.69-.791,5.69" transform="translate(-37.264 -51.281)" fill="#e7eae1"/>
                </g>
              </g>
            </g>
            <path id="Trazado_239243" data-name="Trazado 239243" d="M37.105,37.951C29.59,37.951,23.5,43.5,23.5,52.565q0,.837.024,1.632a3.358,3.358,0,0,0,.349-.99,3.42,3.42,0,0,0,.009-1.087,3.412,3.412,0,0,0,2.657-2.452c.061.012.12.03.183.041a4.94,4.94,0,0,0,4.162-1.221,3.4,3.4,0,0,0,4.5.452,4.689,4.689,0,0,0,7.082,1.113,3.407,3.407,0,0,0,4.556,1.128,4.687,4.687,0,0,0,3.555,2.863l.054.006a3.426,3.426,0,0,0,.043.5c.024-.644.041-1.3.041-1.986,0-9.066-6.093-14.614-13.608-14.614" transform="translate(2.453 3.961)" fill="#3d0000"/>
            <path id="Trazado_239244" data-name="Trazado 239244" d="M59.411,54.835C58.638,46,51.659,33.149,43.786,31.8c-5.446-.929-11.808-1.3-16.531,2.078C22.393,37.357,21.861,40.849,20.3,46.2a12.263,12.263,0,0,1-.762,2.826c-.476.922-1.574,1.1-1.8,2.413a3.415,3.415,0,1,0,6.741.062,3.412,3.412,0,0,0,2.657-2.452c.062.012.12.03.183.041a4.94,4.94,0,0,0,4.162-1.221,3.4,3.4,0,0,0,4.5.452A4.689,4.689,0,0,0,43.07,49.43a3.407,3.407,0,0,0,4.556,1.128,4.687,4.687,0,0,0,3.555,2.861c.019,0,.036,0,.055.007a3.411,3.411,0,0,0,1.7,2.93,3.414,3.414,0,1,0,6.381,2.171,14.7,14.7,0,0,0,.095-3.691" transform="translate(1.847 3.253)" fill="#4d0100"/>
            <path id="Trazado_239245" data-name="Trazado 239245" d="M37.908,21.6a24.829,24.829,0,0,0-17.35,7.042l4.252,15c1.875-3.468,7.024-5.961,13.1-5.961,5.8,0,10.759,2.271,12.83,5.493l4.2-14.83A24.822,24.822,0,0,0,37.908,21.6" transform="translate(2.146 2.255)" fill="#ddd"/>
            <path id="Trazado_239246" data-name="Trazado 239246" d="M40.744,28.58H37.607V25.443H35.7V28.58H32.565v1.9H35.7v3.138h1.9V30.484h3.138Z" transform="translate(3.399 2.656)" fill="#16c4b3"/>
            <path id="Trazado_239247" data-name="Trazado 239247" d="M36.646,23.188c-2.839-.335-12.008,1.96-14.662,5.851a23.627,23.627,0,0,0,1.6,5.483c5.261-4.436,13.058-11.334,13.058-11.334" transform="translate(2.295 2.417)" fill="#f4f4f4"/>
            <path id="Trazado_239248" data-name="Trazado 239248" d="M30.466,40.473c-1.724,2.023,7.334,3.819,12.72,4.308,4.317.392,8.017.655,4.943-3.055-5.515-6.656-16.042-3.156-17.663-1.253" transform="translate(3.158 3.949)" fill="#5b0909"/>
            <path id="Trazado_239249" data-name="Trazado 239249" d="M21.159,135.976l16.025,6.418L52.86,136.76s4.16,12.13,4.16,24.228c0,6.045-6.077,54.067-6.077,54.434l-7.31,57.1-4.878,3.212.318-33.894.226-34.12s-.6-28.913-.32-36.465c.092-2.472.837-9.859.837-9.859l-1.675-.051-3.04-.012s.822,7.305.923,9.752c.314,7.563-.35,36.51-.35,36.51l.35,33.905-.213,34.078-4.858-2.039-7.128-57.27c0-2.493-5.972-51.075-6.263-55.417-.4-6.019,3.6-24.878,3.6-24.878" transform="translate(1.83 14.193)" fill="#a25742"/>
            <path id="Trazado_239250" data-name="Trazado 239250" d="M55.335,136.889l-.263-6.947h-35.6l-.17,6.351c-.2.676-5.153,17.191-4.97,22.932.07,2.173,2.265,15.794,4.5,29.689,1.016,6.3,3,14.874,3,18.782,0,7.971,31.487,7.961,31.887,0,.7-13.844,7.413-44.005,7.206-48.4-.529-11.323-5.543-22.3-5.593-22.41" transform="translate(1.496 13.563)" fill="#16c4b3"/>
            <path id="Trazado_239251" data-name="Trazado 239251" d="M25.062,195.7c-2.953-11.86-6.509-26.14-6.918-28.723-.812-5.131-.275-19.687.13-28.061-1.484,5.3-4.074,15.212-3.94,19.372.07,2.173,1.634,15.634,3.874,29.53,1.016,6.3,2.112,12.982,2.972,18.715.6,4.022,7.047,5.14,7.047,5.14-.8-3.241-2.192-12.064-3.165-15.973" transform="translate(1.496 14.5)" fill="#0eaf9c"/>
            <path id="Trazado_239252" data-name="Trazado 239252" d="M53.538,138.927c.7,6.46,1.6,17.979.548,28.138C53.5,172.7,46.193,200.327,43.2,211.879c0,0,4.932-.879,6.814-3.322,2.611-3.389,8.105-45.8,7.9-50.2a66.692,66.692,0,0,0-4.376-19.435" transform="translate(4.509 14.501)" fill="#0eaf9c"/>
            <path id="Trazado_239253" data-name="Trazado 239253" d="M28.628,257.819s-2.948,4.845-3.187,6.469-.764,6.19.574,6.764,6.932.669,7.7.191,2.39-3.7,2.533-5.521-.951-9.088-.951-9.088Z" transform="translate(2.624 26.787)" fill="#0eaf9c"/>
            <path id="Trazado_239254" data-name="Trazado 239254" d="M28.582,257.55s-3.038,6.066-1.062,8.465c.794.964,7.891-.875,7.59-9s-6.528.536-6.528.536" transform="translate(2.803 26.463)" fill="#a25742"/>
            <path id="Trazado_239255" data-name="Trazado 239255" d="M43.265,257.819s2.948,4.845,3.187,6.469.765,6.19-.574,6.764-6.932.669-7.7.191-2.391-3.7-2.535-5.521.952-9.088.952-9.088Z" transform="translate(3.719 26.787)" fill="#0eaf9c"/>
            <path id="Trazado_239256" data-name="Trazado 239256" d="M43.043,257.55s3.038,6.066,1.062,8.465c-.794.964-7.891-.875-7.589-9s6.527.536,6.527.536" transform="translate(3.81 26.463)" fill="#a25742"/>
            <path id="Trazado_239257" data-name="Trazado 239257" d="M55.28,138.2l10.136-50.23c0-3.9-2.7-8.2-6.039-9.6l-14.2-5.965a26.17,26.17,0,0,1-6.912,8.19,28.087,28.087,0,0,1-6.8-8.19l-14.2,5.965c-3.335,1.4-6.039,5.7-6.039,9.6L22.2,138.2Z" transform="translate(1.173 7.558)" fill="#16c4b3"/>
            <path id="Trazado_239258" data-name="Trazado 239258" d="M64.969,179.5c-1.367-12.758-9.143-38.925-9.239-48.943-.107-11.148,8.014-43.239,8.014-43.239,0-3.733-3.377-8.584-6.861-9.926L45.8,73.125l-9.177,46.389.335,72.441s28.978-3.44,28.011-12.455" transform="translate(3.823 7.633)" fill="#ddd"/>
            <path id="Trazado_239259" data-name="Trazado 239259" d="M49.077,79.461l-.743-4.585,7.912,3.173c3.389,1.306-7.169,1.412-7.169,1.412" transform="translate(5.045 7.815)" fill="#f4f4f4"/>
            <path id="Trazado_239260" data-name="Trazado 239260" d="M51.094,92.022,48.7,88.334,50,84.549,48.488,74.174l-2.726-1.049L37,117.438Z" transform="translate(3.861 7.633)" fill="#f4f4f4"/>
            <rect id="Rectángulo_216918" data-name="Rectángulo 216918" width="11.588" height="5.808" transform="translate(51.346 105.159)" fill="#003e4d"/>
            <rect id="Rectángulo_216919" data-name="Rectángulo 216919" width="10.964" height="5.184" transform="translate(51.658 105.471)" fill="#f4f4f4"/>
            <rect id="Rectángulo_216920" data-name="Rectángulo 216920" width="1.52" height="1.278" transform="translate(56.381 104.54)" fill="#b7bdbd"/>
            <rect id="Rectángulo_216921" data-name="Rectángulo 216921" width="3.473" height="4.271" transform="translate(52.392 105.978)" fill="#b7bdbd"/>
            <g id="Grupo_174315" data-name="Grupo 174315" transform="translate(55.84 157.842)" opacity="0.2">
              <g id="Grupo_174314" data-name="Grupo 174314">
                <g id="Grupo_174313" data-name="Grupo 174313" clip-path="url(#clip-path-6)">
                  <path id="Trazado_239261" data-name="Trazado 239261" d="M57.539,142.924a126.63,126.63,0,0,1-6.371,11.888c-2.4,1.594,2.98,8.3,4.739,7.18,1.662-2.1,3.155-4.187,4.519-6.267-.935-4.213-1.953-8.594-2.887-12.8" transform="translate(-50.563 -142.924)" fill="#48545b"/>
                </g>
              </g>
            </g>
            <path id="Trazado_239262" data-name="Trazado 239262" d="M53.59,151.147c-1.957.948-5.958,3.034-5.349,3.983.8,1.249-1.756,3.555-2.806,4.873s7.8,6.668,9.883,4.12c1.064-1.3,2.29-4.878,3.238-8.071-1.358-.231-3.715-2.653-4.966-4.906" transform="translate(4.733 15.776)" fill="#a25742"/>
            <path id="Trazado_239263" data-name="Trazado 239263" d="M45.493,152.828s-1.368,24.47.886,24.147,11.589-2.912,13.522-6.761-1.932-12.557-1.932-12.557Z" transform="translate(4.705 15.952)" fill="#f4f4f4"/>
            <path id="Trazado_239264" data-name="Trazado 239264" d="M58.468,163.623c-1.759,1.12-8.285-6.838-5.885-8.431,17.3-28.921,12.463-32.061,5.827-52.439,1.327-7.874-4.069-19.3-1.549-20.027l-.019-4.754c9.174,5.315,9.334,11.173,12.8,20.287,5.263,13.859,9.056,39.844-11.169,65.364" transform="translate(5.434 8.139)" fill="#ddd"/>
            <path id="Trazado_239265" data-name="Trazado 239265" d="M9.475,179.5c1.367-12.758,9.143-38.925,9.239-48.943.107-11.148-8.014-43.239-8.014-43.239,0-3.733,3.377-8.584,6.861-9.926l11.082-4.267L41.05,122.093l-1.256,69.862S8.509,188.515,9.475,179.5" transform="translate(0.987 7.633)" fill="#ddd"/>
            <path id="Trazado_239266" data-name="Trazado 239266" d="M23.5,79.461l.742-4.585-7.912,3.173c-3.388,1.306,7.17,1.412,7.17,1.412" transform="translate(1.634 7.815)" fill="#f4f4f4"/>
            <path id="Trazado_239267" data-name="Trazado 239267" d="M22,92.022l2.39-3.687-1.3-3.785,1.515-10.376,2.726-1.049L39.74,122.093Z" transform="translate(2.296 7.633)" fill="#f4f4f4"/>
            <g id="Grupo_174318" data-name="Grupo 174318" transform="translate(13.549 157.842)" opacity="0.2">
              <g id="Grupo_174317" data-name="Grupo 174317">
                <g id="Grupo_174316" data-name="Grupo 174316" clip-path="url(#clip-path-6)">
                  <path id="Trazado_239268" data-name="Trazado 239268" d="M15.156,142.924a126.629,126.629,0,0,0,6.371,11.888c2.4,1.594-2.98,8.3-4.739,7.18-1.662-2.1-3.155-4.187-4.519-6.267.935-4.213,1.953-8.594,2.887-12.8" transform="translate(-12.269 -142.924)" fill="#48545b"/>
                </g>
              </g>
            </g>
            <path id="Trazado_239269" data-name="Trazado 239269" d="M19.421,151.147c1.957.948,5.958,3.034,5.349,3.983-.8,1.249,1.756,3.555,2.806,4.873s-7.8,6.668-9.883,4.12c-1.064-1.3-2.29-4.878-3.238-8.071,1.358-.231,3.715-2.653,4.966-4.906" transform="translate(1.509 15.776)" fill="#a25742"/>
            <path id="Trazado_239270" data-name="Trazado 239270" d="M27.722,152.828s1.368,24.47-.886,24.147-11.589-2.912-13.522-6.761,1.932-12.557,1.932-12.557Z" transform="translate(1.333 15.952)" fill="#f4f4f4"/>
            <path id="Trazado_239271" data-name="Trazado 239271" d="M15.352,163.623c1.759,1.12,8.285-6.838,5.885-8.431-17.3-28.921-12.463-32.061-5.827-52.439-1.327-7.874,4.069-19.3,1.549-20.027l.019-4.754C7.8,83.287,7.644,89.145,4.183,98.259-1.08,112.118-4.873,138.1,15.352,163.623" transform="translate(0 8.139)" fill="#ddd"/>
            <g id="Grupo_174321" data-name="Grupo 174321" transform="translate(476.191 288.367)" opacity="0.3">
              <g id="Grupo_174320" data-name="Grupo 174320">
                <g id="Grupo_174319" data-name="Grupo 174319" clip-path="url(#clip-path-8)">
                  <path id="Trazado_239272" data-name="Trazado 239272" d="M499.326,268.635c0-4.155-15.254-7.522-34.071-7.522s-34.071,3.367-34.071,7.522,15.255,7.522,34.071,7.522,34.071-3.367,34.071-7.522" transform="translate(-431.185 -261.112)"/>
                </g>
              </g>
            </g>
            <path id="Trazado_239273" data-name="Trazado 239273" d="M500.733,118.193V82.711c0-4.176-3.508-8.778-7.833-10.277l-17.906-5.852V41.973h-18.8V66.582l-17.906,5.852c-4.326,1.5-7.833,6.1-7.833,10.277v35.481Z" transform="translate(44.93 4.381)" fill="#994d3c"/>
            <path id="Trazado_239274" data-name="Trazado 239274" d="M479.393,39.064c0,21.25-9.776,25.5-15.541,25.5s-15.541-4.251-15.541-25.5c0-10.694,6.958-17.237,15.541-17.237s15.541,6.543,15.541,17.237" transform="translate(46.793 2.278)" fill="#ad5d4b"/>
            <path id="Trazado_239275" data-name="Trazado 239275" d="M451.425,41.722c.632,3.363-.113,6.324-1.663,6.615s-3.318-2.2-3.948-5.562.113-6.324,1.662-6.615,3.318,2.2,3.949,5.562" transform="translate(46.509 3.772)" fill="#ad5d4b"/>
            <path id="Trazado_239276" data-name="Trazado 239276" d="M473.7,41.722c-.632,3.363.113,6.324,1.663,6.615s3.318-2.2,3.948-5.562-.113-6.324-1.662-6.615-3.318,2.2-3.949,5.562" transform="translate(49.42 3.772)" fill="#ad5d4b"/>
            <path id="Trazado_239277" data-name="Trazado 239277" d="M484.134,154.462l16.7-74.066c0-4.2-3.541-8.848-7.893-10.358L475.06,64.154l-9.236,5.781-9.678-5.781-17.884,5.884c-4.355,1.509-7.9,6.156-7.9,10.357l13.27,76.695Z" transform="translate(44.92 6.696)" fill="#e7eae1"/>
            <path id="Trazado_239278" data-name="Trazado 239278" d="M453.76,44.833V58.481c2.871,4.8,6.744,6.818,9.4,7.292a9.515,9.515,0,0,0,9.4-3.458V48.191l-9.4-4.044Z" transform="translate(47.362 4.608)" fill="#893d30"/>
            <path id="Trazado_239279" data-name="Trazado 239279" d="M477.658,43.719,463.6,40.577l-14.055,3.142c.475,4.537,1.776,11.087,1.776,11.087,3.35,6.172,8.749,7.971,12.281,7.971a13.781,13.781,0,0,0,12.281-7.41s1.308-7.172,1.777-11.648" transform="translate(46.922 4.235)" fill="#e7eae1"/>
            <path id="Trazado_239280" data-name="Trazado 239280" d="M463.523,41.182v6.1s-11.45,2.762-13.245-3Z" transform="translate(46.999 4.298)" fill="#f6f7f5"/>
            <path id="Trazado_239281" data-name="Trazado 239281" d="M466.145,69.428H459.5v4.138l1.646,1.545-1.221,35.371,2.89,2.205,2.889-2.205L464.486,75.1l1.659-1.533Z" transform="translate(47.962 7.247)" fill="#003e4d"/>
            <path id="Trazado_239282" data-name="Trazado 239282" d="M463.711,70.129,458.442,77,450.6,65.678l3.49-3.374Z" transform="translate(47.032 6.503)" fill="#f6f7f5"/>
            <path id="Trazado_239283" data-name="Trazado 239283" d="M462.472,70.129,467.949,77l7.2-11.323-3.51-3.376Z" transform="translate(48.272 6.503)" fill="#f6f7f5"/>
            <path id="Trazado_239284" data-name="Trazado 239284" d="M477.478,33.249a4.263,4.263,0,0,1,1-.235,15.011,15.011,0,0,0-14.654-10.985c-7.826,0-14.283,5.428-15.389,14.455.052.521.084,1.057.084,1.61a18.121,18.121,0,0,0,1.745-7.144c-.039-1.792,4.917-5.556,13.392-1.068,8.985-2.065,13.086,1.643,13.822,3.367" transform="translate(46.806 2.299)" fill="#994d3c"/>
            <path id="Trazado_239285" data-name="Trazado 239285" d="M450.98,21.943c-5.751,7.582-2.376,10.981-2.376,16.721a19.513,19.513,0,0,0,1.746-7.319c-.039-1.788,4.916-6.043,13.391-2.4,9.99-3.288,13.957,1.17,13.957,2.483,0,2.624-.816,1.879,1.347,7.71,1.852-7.352,2.6-11.832-2.646-18.168-5.193-6.275-18.415-8.266-25.419.969" transform="translate(46.721 1.632)" fill="#3a3a3a"/>
            <path id="Trazado_239286" data-name="Trazado 239286" d="M448.506,35.086l-.706,1.277,2.109,9.5.467-1.589Z" transform="translate(46.74 3.662)" fill="#e7eae1"/>
            <path id="Trazado_239287" data-name="Trazado 239287" d="M476.229,35.086l.706,1.277-2.109,9.5-.467-1.589Z" transform="translate(49.512 3.662)" fill="#e7eae1"/>
            <path id="Trazado_239288" data-name="Trazado 239288" d="M469.288,20.55c-13.014.571-17.809,7.324-17.809,3.661s4.677-7.121,10.446-7.722,11.023,3.9,7.363,4.061" transform="translate(47.124 1.715)" fill="#494949"/>
            <path id="Trazado_239289" data-name="Trazado 239289" d="M485.624,138.46l-21.055.634-20.6.226s-1.4,13.308-1.4,26.579c0,6.631,6.123,107.077,6.123,107.077l10.325-.259,4.235-106.369.06-.055,2.159-.014,4.949,107.773,10.938.182s5.711-104.815,6.092-109.579c.528-6.6-1.823-26.195-1.823-26.195" transform="translate(46.194 14.452)" fill="#0269af"/>
            <path id="Trazado_239290" data-name="Trazado 239290" d="M491.3,189.581c0-35.954,4.687-108.7,4.687-108.7a13.238,13.238,0,0,0-7.873-11.469l-14.964-5.8s-6.871,83.647,6.858,91.7c1.484,40.544,11.292,40.266,11.292,34.271" transform="translate(49.207 6.639)" fill="#ddd"/>
            <path id="Trazado_239291" data-name="Trazado 239291" d="M479.927,86.278l-2.459-7.659,1.934-1.237-1.288-12.119s-4.7-3.215-4.908-1.914c-4.209,26.939-1.32,59.962-1.32,59.962Z" transform="translate(49.153 6.58)" fill="#f4f4f4"/>
            <path id="Trazado_239292" data-name="Trazado 239292" d="M487.68,69.7l-9.351-3.324,1,5.258c4.683-.326,10.773-.929,8.354-1.934" transform="translate(49.927 6.928)" fill="#f6f7f5"/>
            <rect id="Rectángulo_216925" data-name="Rectángulo 216925" width="11.543" height="5.785" transform="translate(526.708 96.654)" fill="#003e4d"/>
            <rect id="Rectángulo_216926" data-name="Rectángulo 216926" width="10.921" height="5.164" transform="translate(527.019 96.963)" fill="#f4f4f4"/>
            <rect id="Rectángulo_216927" data-name="Rectángulo 216927" width="1.514" height="1.272" transform="translate(531.722 96.038)" fill="#b7bdbd"/>
            <rect id="Rectángulo_216928" data-name="Rectángulo 216928" width="3.459" height="4.254" transform="translate(527.75 97.469)" fill="#b7bdbd"/>
            <path id="Trazado_239293" data-name="Trazado 239293" d="M459.244,268.051c0,1.852-2.135,3.353-4.769,3.353H451.3c-2.634,0-4.769-1.5-4.769-3.353V260.9c0-1.852,2.135-2.154,4.769-2.154h3.179c2.634,0,4.769.3,4.769,2.154Z" transform="translate(46.607 27.007)" fill="#003e61"/>
            <path id="Trazado_239294" data-name="Trazado 239294" d="M459.244,266.343c0,1.387-2.135,2.511-4.769,2.511H451.3c-2.634,0-4.769-1.124-4.769-2.511v-5.358c0-1.387,2.135-4.369,4.769-4.369h3.179c2.634,0,4.769,2.982,4.769,4.369Z" transform="translate(46.607 26.785)" fill="#3f5e77"/>
            <path id="Trazado_239295" data-name="Trazado 239295" d="M479.682,268.051c0,1.852-2.135,3.353-4.769,3.353h-3.18c-2.634,0-4.769-1.5-4.769-3.353V260.9c0-1.852,2.135-2.154,4.769-2.154h3.18c2.634,0,4.769.3,4.769,2.154Z" transform="translate(48.741 27.007)" fill="#003e61"/>
            <path id="Trazado_239296" data-name="Trazado 239296" d="M479.682,266.343c0,1.387-2.135,2.511-4.769,2.511h-3.18c-2.634,0-4.769-1.124-4.769-2.511v-5.358c0-1.387,2.135-4.369,4.769-4.369h3.18c2.634,0,4.769,2.982,4.769,4.369Z" transform="translate(48.741 26.785)" fill="#3f5e77"/>
            <path id="Trazado_239297" data-name="Trazado 239297" d="M487.621,97.212c2.409,20.052-1.156,24.537-9.591,52.8a1.264,1.264,0,0,0-.327.339,6.515,6.515,0,0,0,1.653,1.451c.229,6.234.654,11.5,1.209,15.93a109.474,109.474,0,0,0,10.783-12.91c.737-20.2,1.909-42.228,2.793-57.609Z" transform="translate(49.861 10.147)" fill="#b7bdbd"/>
            <path id="Trazado_239298" data-name="Trazado 239298" d="M487.052,160.474c-1.982,1.242-9.981-9.146-7.273-10.909,11.616-28.215,13.717-28.895,7.631-49.916,1.892-8.282-1.659-25.116,1.13-25.974l.208-4.172c9.705,5.18,9.59,10.5,12.849,19.88,4.958,14.266,12.138,37.775-14.545,71.091" transform="translate(50.02 7.255)" fill="#ddd"/>
            <path id="Trazado_239299" data-name="Trazado 239299" d="M471.986,154.45c2.9,1.852,5.795,3.735,8.855,5.362.969-1.812,4.33-6.265,5.2-8.673-1.469-.186-3.9-2.62-5.14-4.923-2.187,1.07-6.18,2.244-6.765,3.227-1.155,1.943-1.491,4.143-2.146,5.007" transform="translate(49.265 15.262)" fill="#eab794"/>
            <path id="Trazado_239300" data-name="Trazado 239300" d="M434.9,189.581c0-35.954-4.687-108.7-4.687-108.7a13.238,13.238,0,0,1,7.873-11.469l14.964-5.8s6.871,83.647-6.858,91.7c-1.484,40.544-11.292,40.266-11.292,34.271" transform="translate(44.905 6.639)" fill="#ddd"/>
            <path id="Trazado_239301" data-name="Trazado 239301" d="M444.81,86.278l2.459-7.659-1.934-1.237,1.288-12.119s4.7-3.215,4.908-1.914c4.209,26.939,1.32,59.962,1.32,59.962Z" transform="translate(46.428 6.58)" fill="#f4f4f4"/>
            <path id="Trazado_239302" data-name="Trazado 239302" d="M437.142,69.7l9.351-3.324-1,5.258c-4.683-.326-10.773-.929-8.354-1.934" transform="translate(45.57 6.928)" fill="#f6f7f5"/>
            <path id="Trazado_239303" data-name="Trazado 239303" d="M437.818,97.212c-2.409,20.052,1.156,24.537,9.592,52.8a1.265,1.265,0,0,1,.327.339,6.515,6.515,0,0,1-1.653,1.451c-.229,6.234-.654,11.5-1.209,15.93a109.477,109.477,0,0,1-10.783-12.91c-.737-20.2-1.909-42.228-2.793-57.609Z" transform="translate(45.018 10.147)" fill="#b7bdbd"/>
            <path id="Trazado_239304" data-name="Trazado 239304" d="M439.4,160.474c1.982,1.242,9.981-9.146,7.273-10.909-11.616-28.215-13.717-28.895-7.631-49.916-1.892-8.282,1.659-25.116-1.13-25.974L437.7,69.5c-9.705,5.18-9.59,10.5-12.849,19.88-4.958,14.266-12.138,37.775,14.545,71.091" transform="translate(43.848 7.255)" fill="#ddd"/>
            <path id="Trazado_239305" data-name="Trazado 239305" d="M453.228,154.45c-2.9,1.852-5.795,3.735-8.855,5.362-.969-1.812-4.33-6.265-5.2-8.673,1.469-.186,3.9-2.62,5.14-4.923,2.187,1.07,6.18,2.244,6.765,3.227,1.155,1.943,1.491,4.143,2.146,5.007" transform="translate(45.84 15.262)" fill="#eab794"/>
            <g id="Grupo_174324" data-name="Grupo 174324" transform="translate(408.961 296.494)" opacity="0.3">
              <g id="Grupo_174323" data-name="Grupo 174323">
                <g id="Grupo_174322" data-name="Grupo 174322" clip-path="url(#clip-path-9)">
                  <path id="Trazado_239306" data-name="Trazado 239306" d="M438.451,275.994c0-4.155-15.254-7.522-34.071-7.522s-34.071,3.367-34.071,7.522,15.255,7.522,34.071,7.522,34.071-3.367,34.071-7.522" transform="translate(-370.309 -268.472)"/>
                </g>
              </g>
            </g>
            <path id="Trazado_239307" data-name="Trazado 239307" d="M420.207,42.42l-32.853,1.4c0,8.1.226,16.343-1.362,22.043,5.6,6.384,26.1,6.605,35.906-.091-3.123-10.331-1.691-23.354-1.691-23.354" transform="translate(40.289 4.428)" fill="#494949"/>
            <path id="Trazado_239308" data-name="Trazado 239308" d="M414.354,69.075c2.766-3.765,4.8-9.78,4.8-19.226a19.506,19.506,0,0,0-1.357-7.343l-29.237,1.248a20.048,20.048,0,0,0-.917,6.1c0,9.88,2.224,16.012,5.185,19.735a43.137,43.137,0,0,0,21.525-.509" transform="translate(40.461 4.437)" fill="#3a3a3a"/>
            <path id="Trazado_239309" data-name="Trazado 239309" d="M404.424,95.942l20.268-20.268-13.837-5.329V50.091H396.116V70.346l-12.482,4.806Z" transform="translate(40.043 5.228)" fill="#e29a59"/>
            <path id="Trazado_239310" data-name="Trazado 239310" d="M410.133,102.18l23.352-18.567a10.9,10.9,0,0,0-6.492-9.457L416.451,70.1c-3.41,5.523-8.3,6.987-11.756,6.987-3.5,0-8.465-1.5-11.88-7.2l-11.083,4.268a10.9,10.9,0,0,0-6.493,9.457l22.792,17.259Z" transform="translate(39.166 7.295)" fill="#ddd"/>
            <path id="Trazado_239311" data-name="Trazado 239311" d="M427.977,179.741s5.673-30.141.385-42.972C417.416,110.207,434,83.684,434,83.684a11.417,11.417,0,0,0-6.791-9.892L415.29,69.2,404.676,98.165,393.521,69.2l-11.914,4.589a11.417,11.417,0,0,0-6.791,9.892s16.714,29.748,6.5,54.339c-5.736,13.8-.776,42.438-.776,42.438Z" transform="translate(39.122 7.223)" fill="#017de1"/>
            <path id="Trazado_239312" data-name="Trazado 239312" d="M410.069,77.867l2.538-7.3L424,75.136c3.643,1.4-13.93,2.731-13.93,2.731" transform="translate(42.802 7.366)" fill="#31acff"/>
            <path id="Trazado_239313" data-name="Trazado 239313" d="M394.936,64.583a12.161,12.161,0,0,0,9.309,4.529,11.692,11.692,0,0,0,5.43-1.369V53.053H394.936Z" transform="translate(41.222 5.538)" fill="#d67f43"/>
            <path id="Trazado_239314" data-name="Trazado 239314" d="M419.155,43.352c0,20.862-9.911,25.034-15.756,25.034s-15.755-4.172-15.755-25.034c0-10.5,7.054-16.921,15.755-16.921s15.756,6.424,15.756,16.921" transform="translate(40.461 2.759)" fill="#efaf6a"/>
            <path id="Trazado_239315" data-name="Trazado 239315" d="M403.4,26.431c-8.41,0-15.261,6.012-15.712,15.892,11.881-.918,17.3-3.09,19.688-7.318,2.574,3.839,6.431,5.762,11.67,6.213-.891-9.225-7.552-14.788-15.646-14.788" transform="translate(40.465 2.759)" fill="#e29a59"/>
            <path id="Trazado_239316" data-name="Trazado 239316" d="M423.121,42.3c1.968-13.6-6.413-25.531-16.3-22.852-7.172-5.167-24.247-4.748-22.988,24.133,14.908-.716,21.291-6.06,23.95-10.765,3.144,4.686,8.192,9.7,15.341,9.484" transform="translate(40.056 1.766)" fill="#494949"/>
            <path id="Trazado_239317" data-name="Trazado 239317" d="M389.847,45.11c.681,3.629-.123,6.826-1.795,7.14s-3.58-2.373-4.262-6,.121-6.826,1.795-7.14,3.58,2.373,4.262,6" transform="translate(40.034 4.079)" fill="#efaf6a"/>
            <path id="Trazado_239318" data-name="Trazado 239318" d="M413.888,45.11c-.681,3.629.123,6.826,1.795,7.14s3.58-2.373,4.262-6-.121-6.826-1.795-7.14-3.58,2.373-4.262,6" transform="translate(43.175 4.079)" fill="#efaf6a"/>
            <path id="Trazado_239319" data-name="Trazado 239319" d="M390.394,21.87a21.054,21.054,0,0,0-3.686,8.606c-.186,1.587,20.463-9.151,17.7-10.475-1.639-.785-8.835-3.7-14.012,1.869" transform="translate(40.363 1.935)" fill="#606060"/>
            <rect id="Rectángulo_216930" data-name="Rectángulo 216930" width="12.458" height="6.244" transform="translate(449.946 102.661)" fill="#003e4d"/>
            <rect id="Rectángulo_216931" data-name="Rectángulo 216931" width="11.787" height="5.574" transform="translate(450.282 102.995)" fill="#f4f4f4"/>
            <rect id="Rectángulo_216932" data-name="Rectángulo 216932" width="1.634" height="1.373" transform="translate(455.358 101.997)" fill="#b7bdbd"/>
            <rect id="Rectángulo_216933" data-name="Rectángulo 216933" width="3.734" height="4.592" transform="translate(451.07 103.541)" fill="#b7bdbd"/>
            <path id="Trazado_239320" data-name="Trazado 239320" d="M430.181,148.56a70.032,70.032,0,0,1-25.925,4.547,75.637,75.637,0,0,1-26.061-4.35,156.6,156.6,0,0,0,1.988,23.421l14.565,113.072h8.265l-.44-113.41,2.57-.04-.44,113.449h8.265l16.209-122.154a89.891,89.891,0,0,0,1-14.535" transform="translate(39.475 15.506)" fill="#0269af"/>
            <path id="Trazado_239321" data-name="Trazado 239321" d="M402.122,275.2c0,1.466-1.69,2.654-3.775,2.654h-2.517c-2.084,0-3.774-1.188-3.774-2.654v-5.661c0-1.465,1.69-1.7,3.774-1.7h2.517c2.085,0,3.775.239,3.775,1.7Z" transform="translate(40.922 27.955)" fill="#003e61"/>
            <path id="Trazado_239322" data-name="Trazado 239322" d="M402.122,273.844c0,1.1-1.69,1.988-3.775,1.988h-2.517c-2.084,0-3.774-.89-3.774-1.988V269.6a4.311,4.311,0,0,1,3.774-3.458h2.517a4.311,4.311,0,0,1,3.775,3.458Z" transform="translate(40.922 27.779)" fill="#ddd"/>
            <path id="Trazado_239323" data-name="Trazado 239323" d="M411.815,275.2c0,1.466-1.69,2.654-3.775,2.654h-2.516c-2.085,0-3.775-1.188-3.775-2.654v-5.661c0-1.465,1.69-1.7,3.775-1.7h2.516c2.085,0,3.775.239,3.775,1.7Z" transform="translate(41.934 27.955)" fill="#003e61"/>
            <path id="Trazado_239324" data-name="Trazado 239324" d="M411.815,273.844c0,1.1-1.69,1.988-3.775,1.988h-2.516c-2.085,0-3.775-.89-3.775-1.988V269.6a4.311,4.311,0,0,1,3.775-3.458h2.516a4.311,4.311,0,0,1,3.775,3.458Z" transform="translate(41.934 27.779)" fill="#ddd"/>
            <path id="Trazado_239325" data-name="Trazado 239325" d="M415.911,146.613l-24.554.01L387.765,105.1l31.707-.012Z" transform="translate(40.474 10.969)" fill="#f4f4f4"/>
            <path id="Trazado_239326" data-name="Trazado 239326" d="M395.4,119.813c-1.574.068-4.546.067-5.276-1.058s-8.773,1.964-8.773,1.964l-.106,5.716s6.4,1.538,9.474,1.5c11.219-.159,19.846-8.78,4.68-8.117" transform="translate(39.794 12.37)" fill="#eab794"/>
            <path id="Trazado_239327" data-name="Trazado 239327" d="M382.625,131.99c2.349-.117,4.609-9.16,1.362-9.057-5.922-2.138-9.6-4.313-10.567-7.088-1.335-3.852,6.855-14.6,11.78-20.555,4.283-10.336-4.252-20.094-4.252-20.094-6.857,4.353-22.928,37.741-20.292,47.794,1.089,4.154,10.991,6.214,21.968,9" transform="translate(37.614 7.849)" fill="#017de1"/>
            <path id="Trazado_239328" data-name="Trazado 239328" d="M411.08,119.813c1.575.068,4.549.067,5.279-1.058s8.779,1.964,8.779,1.964l.106,5.716s-6.4,1.538-9.48,1.5c-11.227-.159-19.859-8.78-4.684-8.117" transform="translate(42.057 12.37)" fill="#eab794"/>
            <path id="Trazado_239329" data-name="Trazado 239329" d="M424.237,132.007c-2.35-.117-4.611-9.16-1.362-9.057,5.924-2.138,9.609-4.313,10.572-7.088,1.337-3.852-6.858-14.6-11.788-20.555-4.285-10.336,2.677-20.28,2.677-20.28,6.86,4.353,24.521,37.927,21.883,47.98-1.09,4.154-11,6.214-21.983,9" transform="translate(43.866 7.831)" fill="#017de1"/>
            <path id="Trazado_239330" data-name="Trazado 239330" d="M380.284,75.083l11.632-4.511,3.806,8.676s-25.407,1.084-15.438-4.165" transform="translate(39.451 7.366)" fill="#31acff"/>
            <path id="Trazado_239331" data-name="Trazado 239331" d="M419.318,106.89l.155-1.8-31.708.013.156,1.789Z" transform="translate(40.474 10.969)" fill="#b7bdbd"/>
            <g id="Grupo_174327" data-name="Grupo 174327" transform="translate(74.097 294.802)" opacity="0.3">
              <g id="Grupo_174326" data-name="Grupo 174326">
                <g id="Grupo_174325" data-name="Grupo 174325" clip-path="url(#clip-path-10)">
                  <path id="Trazado_239332" data-name="Trazado 239332" d="M150.571,276.154c0-5.089-18.687-9.215-41.738-9.215s-41.739,4.126-41.739,9.215,18.687,9.215,41.739,9.215,41.738-4.126,41.738-9.215" transform="translate(-67.094 -266.939)"/>
                </g>
              </g>
            </g>
            <path id="Trazado_239333" data-name="Trazado 239333" d="M139.662,88.937V83.286A12.026,12.026,0,0,0,132.5,72.852l-15.427-5.942V41.924H97.983V66.911l-15.427,5.94a12.029,12.029,0,0,0-7.163,10.435v5.651Z" transform="translate(7.869 4.376)" fill="#e29a59"/>
            <path id="Trazado_239334" data-name="Trazado 239334" d="M95.848,44.829V58.685c2.916,4.874,6.848,6.922,9.544,7.4a9.661,9.661,0,0,0,9.544-3.511V48.239l-9.545-4.106Z" transform="translate(10.004 4.606)" fill="#d67f43"/>
            <path id="Trazado_239335" data-name="Trazado 239335" d="M121.8,39.127c0,21.576-9.947,25.891-15.812,25.891S90.172,60.7,90.172,39.127c0-10.857,7.079-17.5,15.812-17.5S121.8,28.27,121.8,39.127" transform="translate(9.412 2.257)" fill="#efaf6a"/>
            <path id="Trazado_239336" data-name="Trazado 239336" d="M93.477,41.671c.641,3.414-.115,6.421-1.689,6.716s-3.368-2.232-4.009-5.646.115-6.421,1.689-6.717,3.368,2.233,4.009,5.647" transform="translate(9.138 3.758)" fill="#efaf6a"/>
            <path id="Trazado_239337" data-name="Trazado 239337" d="M116.092,41.671c-.641,3.414.115,6.421,1.689,6.716s3.368-2.232,4.009-5.646-.115-6.421-1.689-6.717-3.368,2.233-4.009,5.647" transform="translate(12.094 3.758)" fill="#efaf6a"/>
            <path id="Trazado_239338" data-name="Trazado 239338" d="M121.716,36.482c-6.26-8.43-24.769-10.176-31.48.115,0,.011,0,.023,0,.034s12.865-11.716,31.481-.149" transform="translate(9.418 3.08)" fill="#e29a59"/>
            <path id="Trazado_239339" data-name="Trazado 239339" d="M120.741,31.378c-.716,19.827-4.673,29.664-14.756,29.664-10.128,0-14.042-9.837-14.757-29.664a21.112,21.112,0,0,0-1.056,6.731C90.173,59.685,100.118,65,105.985,65S121.8,59.685,121.8,38.109a21.143,21.143,0,0,0-1.056-6.731" transform="translate(9.412 3.275)" fill="#474747"/>
            <path id="Trazado_239340" data-name="Trazado 239340" d="M90.178,24.556V38.407c6.665-10.4,25.3-8.659,31.562-.184V24.1c-3.207-4.35-9.656-11.044-16.081-11.056-6.125-.012-12.229,6.43-15.481,11.508" transform="translate(9.413 1.362)" fill="#017de1"/>
            <path id="Trazado_239341" data-name="Trazado 239341" d="M105.6,13.85c-4.042-.044-11.4,5.739-14.432,11.188v5.143C102.8,23.451,105.6,13.85,105.6,13.85" transform="translate(9.516 1.446)" fill="#31acff"/>
            <path id="Trazado_239342" data-name="Trazado 239342" d="M103.068,55.95l-2.416,2.416,2.306,2.307h4.086l2.307-2.307-2.416-2.416Z" transform="translate(10.506 5.84)" fill="#474747"/>
            <path id="Trazado_239343" data-name="Trazado 239343" d="M99.468,50.424c-1.651,1.65,0,9.336,0,9.336h1.151s-1.321-6.149,0-7.469c1.606-1.607,7.48-1.607,9.086,0,1.321,1.32,0,7.469,0,7.469h1.151s1.65-7.686,0-9.336c-2.013-2.013-9.374-2.013-11.387,0" transform="translate(10.306 5.105)" fill="#474747"/>
            <path id="Trazado_239344" data-name="Trazado 239344" d="M83.5,197.2l-2.316-.045c2.013,21.478,3.684,38.677,5.228,54.424.138,1.406.528,7.859.649,9.1.112,1.135-1.919,7.218-1.822,8.2.5,5.04,2.864,6.606,2.864,6.606l13.321.872,1.324-6.268-1.052-6.825,1.362-65.693q-9.78-.176-19.557-.379" transform="translate(8.473 20.579)" fill="#0269af"/>
            <path id="Trazado_239345" data-name="Trazado 239345" d="M106.248,197.632l3.041,66.242-1.343,5.958,1.9,6.141,11.964.2s2.26-1.894,2.717-6.969c.124-1.368-1.76-8.092-1.612-9.742,1.4-15.488,3.873-38.447,5.958-61.523q-11.313-.106-22.624-.308" transform="translate(11.09 20.628)" fill="#0269af"/>
            <path id="Trazado_239346" data-name="Trazado 239346" d="M136.22,225.683c0-18.055-.131-60.12,2.319-94.307A429.776,429.776,0,0,1,145.2,81.038c0-4.6-3.746-9.679-8.349-11.331l-17.808-6.436L107.656,86.5,96.833,63.271l-17.81,6.436c-4.6,1.651-8.349,6.734-8.349,11.331,0,0,4.138,17.925,6.282,50.9,1.966,30.221,1.954,74.79,1.954,93.652,0,8.306,57.311,8.087,57.311.1" transform="translate(7.377 6.604)" fill="#017de1"/>
            <path id="Trazado_239347" data-name="Trazado 239347" d="M112.524,71.79l2.761-7.4,16.826,6.081c3.964,1.422-19.587,1.318-19.587,1.318" transform="translate(11.745 6.721)" fill="#31acff"/>
            <path id="Trazado_239348" data-name="Trazado 239348" d="M78.881,70.473,95.7,64.4l5.5,11.687s-36.729,1.461-22.317-5.609" transform="translate(7.884 6.721)" fill="#31acff"/>
            <rect id="Rectángulo_216935" data-name="Rectángulo 216935" width="12.626" height="6.328" transform="translate(125.812 95.883)" fill="#003e4d"/>
            <rect id="Rectángulo_216936" data-name="Rectángulo 216936" width="11.947" height="5.649" transform="translate(126.151 96.222)" fill="#f4f4f4"/>
            <rect id="Rectángulo_216937" data-name="Rectángulo 216937" width="1.655" height="1.392" transform="translate(131.297 95.209)" fill="#b7bdbd"/>
            <rect id="Rectángulo_216938" data-name="Rectángulo 216938" width="3.784" height="4.654" transform="translate(126.95 96.774)" fill="#b7bdbd"/>
            <path id="Trazado_239349" data-name="Trazado 239349" d="M100.822,277.064c0,2.025-2.336,3.668-5.217,3.668H92.127c-2.881,0-5.216-1.642-5.216-3.668v-7.823c0-2.027,2.335-2.356,5.216-2.356H95.6c2.881,0,5.217.329,5.217,2.356Z" transform="translate(9.072 27.857)" fill="#003e61"/>
            <path id="Trazado_239350" data-name="Trazado 239350" d="M100.822,275.2c0,1.517-2.336,2.748-5.217,2.748H92.127c-2.881,0-5.216-1.23-5.216-2.748v-5.861c0-1.519,2.335-4.78,5.216-4.78H95.6c2.881,0,5.217,3.261,5.217,4.78Z" transform="translate(9.072 27.614)" fill="#3f5e77"/>
            <path id="Trazado_239351" data-name="Trazado 239351" d="M122.575,277.064c0,2.025-2.336,3.668-5.217,3.668H113.88c-2.881,0-5.216-1.642-5.216-3.668v-7.823c0-2.027,2.335-2.356,5.216-2.356h3.478c2.881,0,5.217.329,5.217,2.356Z" transform="translate(11.342 27.857)" fill="#003e61"/>
            <path id="Trazado_239352" data-name="Trazado 239352" d="M122.575,275.2c0,1.517-2.336,2.748-5.217,2.748H113.88c-2.881,0-5.216-1.23-5.216-2.748v-5.861c0-1.519,2.335-4.78,5.216-4.78h3.478c2.881,0,5.217,3.261,5.217,4.78Z" transform="translate(11.342 27.614)" fill="#3f5e77"/>
            <path id="Trazado_239353" data-name="Trazado 239353" d="M131.379,97.639c2.467,20.537-1.184,25.131-9.823,54.075-.125.082-4.4,4.389-4.5,4.532a15.269,15.269,0,0,1,6.772,10.743c2.237-1.914,5.209-1.47,8.251-5.775.754-20.687,5.078-47.824,5.982-63.576Z" transform="translate(12.217 10.191)" fill="#0269af"/>
            <path id="Trazado_239354" data-name="Trazado 239354" d="M130.4,162.43c-2.03,1.272-10.222-9.367-7.449-11.173,11.9-28.9,14.049-29.593,7.816-51.122,1.938-8.483-1.7-25.723,1.157-26.6l.213-4.273c9.939,5.3,9.82,10.752,13.16,20.36,5.076,14.611,12.431,38.689-14.9,72.809" transform="translate(12.774 7.229)" fill="#017de1"/>
            <path id="Trazado_239355" data-name="Trazado 239355" d="M114.971,156.3c2.973,1.9,5.935,3.826,9.068,5.491.993-1.856,4.9-5.262,5.785-7.727-1.093-.52-4.414-4.3-5.681-6.655-2.241,1.1-6.374,2.755-6.974,3.763-1.183,1.99-1.527,4.243-2.2,5.129" transform="translate(12 15.386)" fill="#eab794"/>
            <path id="Trazado_239356" data-name="Trazado 239356" d="M79.977,97.639C76.4,119.475,81.609,128.1,94.962,157.45c.125.082-6.859,5-7.429,9.54-2.261.268-6.48-2.108-9.522-6.413-.754-20.687-3.807-47.186-4.711-62.937Z" transform="translate(7.651 10.191)" fill="#0269af"/>
            <path id="Trazado_239357" data-name="Trazado 239357" d="M81.6,162.43c2.03,1.272,10.222-9.367,7.449-11.173-11.9-28.9-14.049-29.593-7.816-51.122-1.937-8.483,1.7-25.723-1.157-26.6l-.213-4.273c-9.939,5.3-9.82,10.752-13.16,20.36-5.076,14.611-12.431,38.689,14.9,72.809" transform="translate(6.453 7.229)" fill="#017de1"/>
            <path id="Trazado_239358" data-name="Trazado 239358" d="M95.8,156.3c-2.973,1.9-5.935,3.826-9.068,5.491-.993-1.856-4.877-5.275-5.764-7.739,2.106-1.481,4.288-4.663,5.654-6.628,2.241,1.1,6.381,2.741,6.98,3.748,1.183,1.99,1.527,4.243,2.2,5.129" transform="translate(8.451 15.388)" fill="#eab794"/>
            <path id="Trazado_239359" data-name="Trazado 239359" d="M94.833,176.214c1.355-6.622,1.108-17.574,1.108-29.467C92.36,150.817,79.5,157,79.5,157c0,9.411.652,15.4,1.848,19.211Z" transform="translate(8.298 15.317)" fill="#31acff"/>
            <path id="Trazado_239360" data-name="Trazado 239360" d="M115.707,176.214c-1.355-6.622-1.108-17.574-1.108-29.467,3.582,4.07,16.443,10.256,16.443,10.256,0,9.411-.652,15.4-1.848,19.211Z" transform="translate(11.96 15.317)" fill="#31acff"/>
            <g id="Grupo_174330" data-name="Grupo 174330" transform="translate(221.545 316.961)" opacity="0.3">
              <g id="Grupo_174329" data-name="Grupo 174329">
                <g id="Grupo_174328" data-name="Grupo 174328" clip-path="url(#clip-path-11)">
                  <path id="Trazado_239361" data-name="Trazado 239361" d="M311.35,299.228c0-6.752-24.791-12.225-55.371-12.225s-55.372,5.473-55.372,12.225,24.791,12.225,55.372,12.225,55.371-5.473,55.371-12.225" transform="translate(-200.606 -287.004)"/>
                </g>
              </g>
            </g>
            <g id="Grupo_174333" data-name="Grupo 174333" transform="translate(153.918 305.588)" opacity="0.3">
              <g id="Grupo_174332" data-name="Grupo 174332">
                <g id="Grupo_174331" data-name="Grupo 174331" clip-path="url(#clip-path-10)">
                  <path id="Trazado_239362" data-name="Trazado 239362" d="M222.848,285.921c0-5.089-18.687-9.215-41.738-9.215s-41.739,4.126-41.739,9.215,18.687,9.215,41.739,9.215,41.738-4.126,41.738-9.215" transform="translate(-139.371 -276.707)"/>
                </g>
              </g>
            </g>
            <g id="Grupo_174336" data-name="Grupo 174336" transform="translate(316.079 305.588)" opacity="0.3">
              <g id="Grupo_174335" data-name="Grupo 174335">
                <g id="Grupo_174334" data-name="Grupo 174334" clip-path="url(#clip-path-13)">
                  <path id="Trazado_239363" data-name="Trazado 239363" d="M369.682,285.921c0-5.089-18.687-9.215-41.738-9.215s-41.739,4.126-41.739,9.215,18.687,9.215,41.739,9.215,41.738-4.126,41.738-9.215" transform="translate(-286.206 -276.707)"/>
                </g>
              </g>
            </g>
            <path id="Trazado_239364" data-name="Trazado 239364" d="M161.888,138.281l17.894,7.167,17.508-6.292s4.646,13.547,4.646,27.056c0,6.751-6.789,60.377-6.789,60.788l-8.162,63.768-5.447,3.587.355-37.85.253-38.1s-.671-32.29-.358-40.724c.1-2.76.935-11.01.935-11.01l-1.872-.056-3.395-.014s.918,8.158,1.03,10.891c.35,8.444-.391,40.769-.391,40.769l.391,37.866-.237,38.056-5.425-2.277-7.959-63.956c0-2.784-6.672-57.037-7-61.885-.447-6.722,4.018-27.783,4.018-27.783" transform="translate(16.475 14.433)" fill="#eab794"/>
            <path id="Trazado_239365" data-name="Trazado 239365" d="M200.052,139.3l-.293-7.758H160l-.189,7.093c-.228.755-5.756,19.2-5.551,25.611.078,2.426,2.53,17.636,5.03,33.153,1.135,7.038,3.345,16.611,3.345,20.975,0,8.9,35.163,8.891,35.611,0,.777-15.46,8.276-49.141,8.048-54.048-.592-12.645-6.191-24.907-6.246-25.026" transform="translate(16.101 13.73)" fill="#0569b5"/>
            <path id="Trazado_239366" data-name="Trazado 239366" d="M166.246,204.978c-3.3-13.244-7.269-29.191-7.725-32.076-.907-5.731-.307-21.986.146-31.337-1.658,5.914-4.551,16.986-4.4,21.634.078,2.426,1.827,17.458,4.327,32.976,1.134,7.038,2.359,14.5,3.319,20.9.674,4.492,7.871,5.741,7.871,5.741-.89-3.62-2.448-13.473-3.535-17.838" transform="translate(16.101 14.776)" fill="#0766a0"/>
            <path id="Trazado_239367" data-name="Trazado 239367" d="M198.046,141.576c.787,7.214,1.79,20.079.611,31.424-.654,6.295-8.814,37.145-12.155,50.043,0,0,5.506-.982,7.608-3.71,2.916-3.784,9.053-51.147,8.823-56.054-.408-8.7-3.186-17.222-4.887-21.7" transform="translate(19.467 14.777)" fill="#0766a0"/>
            <path id="Trazado_239368" data-name="Trazado 239368" d="M170.229,274.348s-3.292,5.41-3.559,7.225-.854,6.913.641,7.554,7.742.748,8.6.213,2.669-4.136,2.829-6.165-1.062-10.149-1.062-10.149Z" transform="translate(17.361 28.498)" fill="#0468b4"/>
            <path id="Trazado_239369" data-name="Trazado 239369" d="M170.176,274.048s-3.393,6.774-1.187,9.453c.888,1.077,8.813-.977,8.476-10.052s-7.289.6-7.289.6" transform="translate(17.561 28.136)" fill="#eab794"/>
            <path id="Trazado_239370" data-name="Trazado 239370" d="M186.574,274.348s3.292,5.41,3.559,7.225.854,6.913-.641,7.554-7.742.748-8.6.213-2.669-4.136-2.829-6.165,1.062-10.149,1.062-10.149Z" transform="translate(18.585 28.498)" fill="#0468b4"/>
            <path id="Trazado_239371" data-name="Trazado 239371" d="M186.326,274.048s3.393,6.774,1.187,9.453c-.888,1.077-8.813-.977-8.476-10.052s7.289.6,7.289.6" transform="translate(18.686 28.136)" fill="#eab794"/>
            <path id="Trazado_239372" data-name="Trazado 239372" d="M189.713,16.708c-7.736-6.4-32.481-1.195-32.481,29.508,0,23.3,9.055,25.5-2.865,39.955,8.5,7.263,33.407,10.436,39.254,5.652S204.457,70.8,205.1,54.625c.689-17.239-3.686-35.022-15.392-37.918" transform="translate(16.112 1.492)" fill="#ffb048"/>
            <path id="Trazado_239373" data-name="Trazado 239373" d="M199.283,49.976c0-11.654-8.5-18.785-18.978-18.785s-18.977,7.131-18.977,18.785c0,23.161,11.937,27.793,18.977,27.793s18.978-4.632,18.978-27.793" transform="translate(16.839 3.256)" fill="#ef9a33"/>
            <path id="Trazado_239374" data-name="Trazado 239374" d="M198.981,128.75l12.328-43.543a11.322,11.322,0,0,0-6.743-9.823l-15.852-6.105V48.24H173.4V69.278L157.55,75.383a11.32,11.32,0,0,0-6.743,9.822l12.328,43.544Z" transform="translate(15.741 5.035)" fill="#eab794"/>
            <path id="Trazado_239375" data-name="Trazado 239375" d="M199.992,140.765,211.31,84.671c0-4.355-3.019-9.154-6.743-10.719L188.714,67.29A29.2,29.2,0,0,1,181,76.436,31.354,31.354,0,0,1,173.4,67.29L157.55,73.952c-3.724,1.565-6.743,6.365-6.743,10.719l12.244,56.095Z" transform="translate(15.741 7.024)" fill="#31acff"/>
            <path id="Trazado_239376" data-name="Trazado 239376" d="M178.409,201.267,169.987,68.092l-12.377,4.765a11.86,11.86,0,0,0-7.054,10.275s7.3,36.543,7.3,48.723c0,11.085-8.55,36.919-9.293,51.793-.552,11.05,29.844,17.618,29.844,17.618" transform="translate(15.506 7.107)" fill="#ddd"/>
            <path id="Trazado_239377" data-name="Trazado 239377" d="M210.471,186.884c-1.526-14.248-10.211-43.469-10.318-54.656-.119-12.45,8.951-48.287,8.951-48.287,0-4.169-3.773-9.586-7.662-11.085l-12.377-4.765-6.639,132.815s29.125-3.955,28.046-14.022" transform="translate(19.041 7.107)" fill="#ddd"/>
            <path id="Trazado_239378" data-name="Trazado 239378" d="M171.268,63.293a12.635,12.635,0,0,0,9.67,4.7,12.15,12.15,0,0,0,5.64-1.421V51.315h-15.31Z" transform="translate(17.876 5.356)" fill="#d19a75"/>
            <path id="Trazado_239379" data-name="Trazado 239379" d="M193.064,75.169l-.83-5.121,8.836,3.544c3.785,1.458-8.006,1.577-8.006,1.577" transform="translate(20.065 7.311)" fill="#f4f4f4"/>
            <path id="Trazado_239380" data-name="Trazado 239380" d="M196.426,41.238c0,21.67-10.3,26-16.367,26s-16.366-4.335-16.366-26c0-10.9,7.328-17.577,16.366-17.577s16.367,6.673,16.367,17.577" transform="translate(17.086 2.47)" fill="#f4c3a2"/>
            <path id="Trazado_239381" data-name="Trazado 239381" d="M190.954,43.064c-.708,3.769.127,7.09,1.864,7.416s3.72-2.465,4.427-6.234-.127-7.09-1.864-7.417-3.72,2.465-4.427,6.235" transform="translate(19.905 3.841)" fill="#f4c3a2"/>
            <path id="Trazado_239382" data-name="Trazado 239382" d="M174.218,157.676l-5.665-89.584-3.092,1.19-1.77,10.91,2.377,4.52-3.76,4Z" transform="translate(16.941 7.107)" fill="#f4f4f4"/>
            <path id="Trazado_239383" data-name="Trazado 239383" d="M194.805,89.195l-2.668-4.118,1.449-4.226-1.692-11.586-3.043-1.172-4.38,87.61Z" transform="translate(19.255 7.107)" fill="#f4f4f4"/>
            <path id="Trazado_239384" data-name="Trazado 239384" d="M190.954,43.064c-.708,3.769.127,7.09,1.864,7.416s3.72-2.465,4.427-6.234-.127-7.09-1.864-7.417-3.72,2.465-4.427,6.235" transform="translate(19.905 3.841)" fill="#f4c3a2"/>
            <path id="Trazado_239385" data-name="Trazado 239385" d="M179.1,76.517c-1.532,1.586-10.123,4.7-9.417-9a6.892,6.892,0,0,0,1.689-1Z" transform="translate(17.707 6.943)" fill="#6ccbff"/>
            <path id="Trazado_239386" data-name="Trazado 239386" d="M178.142,76.517c1.532,1.586,10.123,4.7,9.418-9a6.892,6.892,0,0,1-1.69-1Z" transform="translate(18.594 6.943)" fill="#6ccbff"/>
            <path id="Trazado_239387" data-name="Trazado 239387" d="M180.224,20.989c-9.039,0-18.117,12.437-18.117,19.663,7.908,1.558,26.151,4.848,29.755-10.344.176-.741,3.24,2.792,4.614,8.927,7.658-3.017-9.21-18.247-16.252-18.247" transform="translate(16.92 2.191)" fill="#ef9a33"/>
            <path id="Trazado_239388" data-name="Trazado 239388" d="M165.981,43.064c.708,3.769-.127,7.09-1.864,7.416s-3.72-2.465-4.427-6.234.127-7.09,1.864-7.417,3.72,2.465,4.427,6.235" transform="translate(16.642 3.841)" fill="#f4c3a2"/>
            <path id="Trazado_239389" data-name="Trazado 239389" d="M200.127,50.214h2.964c3.544-7.127-1.393-15.768-12.044-31.929-2.054-1.369-22.958-7.268-29.908,10.959-4.085,10.711-2.082,11.1-2.082,11.1s27.656,8.249,31.989-12.018c.374-1.752,9.466,11.611,9.08,21.883" transform="translate(16.551 1.7)" fill="#ffb048"/>
            <path id="Trazado_239390" data-name="Trazado 239390" d="M168.88,19.253c-.982.819-8.052,9.9-4.484,10.631,7.925,1.618,24.757-12.012,21.056-13.387a16.551,16.551,0,0,0-16.572,2.757" transform="translate(17.055 1.607)" fill="#ffc176"/>
            <rect id="Rectángulo_216942" data-name="Rectángulo 216942" width="12.941" height="6.486" transform="translate(210.029 102.45)" fill="#003e4d"/>
            <rect id="Rectángulo_216943" data-name="Rectángulo 216943" width="12.244" height="5.789" transform="translate(210.377 102.798)" fill="#f4f4f4"/>
            <rect id="Rectángulo_216944" data-name="Rectángulo 216944" width="1.697" height="1.427" transform="translate(215.651 101.758)" fill="#b7bdbd"/>
            <rect id="Rectángulo_216945" data-name="Rectángulo 216945" width="3.879" height="4.77" transform="translate(211.197 103.364)" fill="#b7bdbd"/>
            <path id="Trazado_239391" data-name="Trazado 239391" d="M185.785,104.752c-2.833-3.3-4.747-9.435-4.762-16.478h.579c.015,6.527,1.683,12.239,4.183,15.492Z" transform="translate(18.895 9.214)" fill="#b7bdbd"/>
            <path id="Trazado_239392" data-name="Trazado 239392" d="M194.122,103.6c2.424-3.282,4.031-8.912,4.045-15.321h.579c-.015,6.928-1.868,12.97-4.624,16.312Z" transform="translate(20.262 9.214)" fill="#b7bdbd"/>
            <path id="Trazado_239393" data-name="Trazado 239393" d="M193.546,103.308a.412.412,0,1,0,.824,0v-1.237a.412.412,0,1,0-.824,0Z" transform="translate(20.202 10.611)" fill="#b7bdbd"/>
            <path id="Trazado_239394" data-name="Trazado 239394" d="M185.149,103.308a.412.412,0,1,0,.824,0v-1.237a.412.412,0,1,0-.824,0Z" transform="translate(19.325 10.611)" fill="#b7bdbd"/>
            <path id="Trazado_239395" data-name="Trazado 239395" d="M192.239,102.78a.746.746,0,0,0,.747.747h.1a.747.747,0,0,0,0-1.493h-.1a.746.746,0,0,0-.747.747" transform="translate(20.065 10.65)" fill="#b7bdbd"/>
            <path id="Trazado_239396" data-name="Trazado 239396" d="M185.708,102.78a.746.746,0,0,0,.747.747h.1a.747.747,0,1,0,0-1.493h-.1a.746.746,0,0,0-.747.747" transform="translate(19.384 10.65)" fill="#b7bdbd"/>
            <path id="Trazado_239397" data-name="Trazado 239397" d="M181.92,90.515v-.29c.023-9.959,3.915-18.063,8.676-18.063s8.653,8.1,8.675,18.063v.29h1.161v-.292c-.023-10.679-4.436-19.366-9.836-19.366s-9.812,8.687-9.836,19.366v.292Z" transform="translate(18.867 7.396)" fill="#003e4d"/>
            <path id="Trazado_239398" data-name="Trazado 239398" d="M185.122,65.538a14.41,14.41,0,0,1,5.546,6.857h-.962a13.421,13.421,0,0,0-4.584-5.709Z" transform="translate(19.323 6.841)" fill="#003e4d"/>
            <path id="Trazado_239399" data-name="Trazado 239399" d="M166.466,102.068l1.069,0c-1.445-13.607,2.2-33.816,4.265-35.337v-1.15c-2.571,1.75-6.337,17.82-5.334,36.491" transform="translate(17.358 6.845)" fill="#003e4d"/>
            <path id="Trazado_239400" data-name="Trazado 239400" d="M167.551,110.688a6.232,6.232,0,1,0-6.232-6.232,6.238,6.238,0,0,0,6.232,6.232" transform="translate(16.838 10.252)" fill="#003e4d"/>
            <path id="Trazado_239401" data-name="Trazado 239401" d="M173.337,104.417a5.824,5.824,0,1,0-5.824,5.824,5.824,5.824,0,0,0,5.824-5.824" transform="translate(16.877 10.291)" fill="#b7bdbd"/>
            <path id="Trazado_239402" data-name="Trazado 239402" d="M168.51,104a1.414,1.414,0,1,0-1.415,1.415A1.415,1.415,0,0,0,168.51,104" transform="translate(17.293 10.708)" fill="#6a686b"/>
            <path id="Trazado_239403" data-name="Trazado 239403" d="M164.937,104.836a3.059,3.059,0,0,0,4.863,0h1.858a4.3,4.3,0,0,1-8.579,0Z" transform="translate(17.022 10.942)" fill="#ddd"/>
            <path id="Trazado_239404" data-name="Trazado 239404" d="M181.644,49.27a3.6,3.6,0,0,1-5.39,0Z" transform="translate(18.397 5.143)" fill="#d19a75"/>
            <g id="Grupo_174339" data-name="Grupo 174339" transform="translate(171.967 138.51)" opacity="0.2">
              <g id="Grupo_174338" data-name="Grupo 174338">
                <g id="Grupo_174337" data-name="Grupo 174337" clip-path="url(#clip-path-14)">
                  <path id="Trazado_239405" data-name="Trazado 239405" d="M157.107,125.529c0,.112.006.235.006.342a100.68,100.68,0,0,1-1.4,13.321l16.069-.02-.547-13.754Z" transform="translate(-155.714 -125.419)" fill="#48545b"/>
                </g>
              </g>
            </g>
            <rect id="Rectángulo_216947" data-name="Rectángulo 216947" width="29.502" height="43.132" transform="translate(171.333 124.235) rotate(-8.924)" fill="#69452b"/>
            <path id="Trazado_239406" data-name="Trazado 239406" d="M186.131,121.778c-1.746.7-5.034,2.7-6.113,1.438s-6.832,5.394-6.832,5.394l-2.157,5.753s12.944.719,16.337-.69.51-12.594-1.236-11.894" transform="translate(17.852 12.708)" fill="#eab794"/>
            <path id="Trazado_239407" data-name="Trazado 239407" d="M177.52,141.545c2.279-.48,1.272-11.93-1.887-11.327-35.507,4.405-26.826-11.49-19.416-34.248,1.072-3.294,4.654-22.422,1.84-23.229-12.475,7.724-15.341,19.172-18.111,29.7-6.139,23.344-9.707,42.068,37.574,39.1" transform="translate(14.239 7.593)" fill="#ddd"/>
            <path id="Trazado_239408" data-name="Trazado 239408" d="M156.041,74.083l8.894-3.45-1.366,8.6s-15.648-.728-7.527-5.15" transform="translate(16.043 7.372)" fill="#f4f4f4"/>
            <path id="Trazado_239409" data-name="Trazado 239409" d="M170.613,156.774s1.8,27.327-.719,26.967-12.942-3.252-15.1-7.551,2.157-14.022,2.157-14.022Z" transform="translate(16.094 16.364)" fill="#f4f4f4"/>
            <g id="Grupo_174342" data-name="Grupo 174342" transform="translate(215.048 161.282)" opacity="0.2">
              <g id="Grupo_174341" data-name="Grupo 174341">
                <g id="Grupo_174340" data-name="Grupo 174340" clip-path="url(#clip-path-15)">
                  <path id="Trazado_239410" data-name="Trazado 239410" d="M202.514,146.04a141.4,141.4,0,0,1-7.114,13.276c-2.68,1.779,3.327,9.269,5.292,8.018,1.855-2.341,3.523-4.676,5.046-7-1.045-4.7-2.18-9.6-3.224-14.294" transform="translate(-194.723 -146.039)" fill="#48545b"/>
                </g>
              </g>
            </g>
            <path id="Trazado_239411" data-name="Trazado 239411" d="M198.1,155.222c-2.184,1.058-6.653,3.388-5.972,4.448.9,1.395-1.961,3.97-3.134,5.441s8.71,7.447,11.036,4.6c1.188-1.452,2.559-5.448,3.617-9.013-1.517-.258-4.149-2.962-5.546-5.479" transform="translate(19.717 16.202)" fill="#eab794"/>
            <path id="Trazado_239412" data-name="Trazado 239412" d="M189.061,157.1s-1.528,27.327.988,26.967,12.942-3.252,15.1-7.551-2.158-14.022-2.158-14.022Z" transform="translate(19.686 16.398)" fill="#f4f4f4"/>
            <path id="Trazado_239413" data-name="Trazado 239413" d="M203.551,169.155c-1.965,1.251-9.252-7.637-6.572-9.416,19.314-32.3,13.917-35.8,6.507-58.56,1.482-8.794-4.543-21.559-1.731-22.366l-.022-5.309c10.245,5.936,10.425,12.477,14.291,22.655,5.877,15.478,10.113,44.5-12.473,72.995" transform="translate(20.499 7.672)" fill="#ddd"/>
            <path id="Trazado_239414" data-name="Trazado 239414" d="M349.631,140.289l-23.813,7.963-23.3-6.99s-1.587,15.05-1.587,30.059c0,7.5,6.926,121.1,6.926,121.1l11.678-.294,4.79-120.3.067-.063,2.442-.015,5.6,121.888,12.37.205s6.46-118.543,6.889-123.929c.6-7.468-2.063-29.626-2.063-29.626" transform="translate(31.411 14.643)" fill="#3f5e77"/>
            <path id="Trazado_239415" data-name="Trazado 239415" d="M352.172,137.781l14.637-56.846c0-5.148-3.956-10.821-8.835-12.671l-19.028-7.214V30.712H315.4V61.051l-19.028,7.214c-4.879,1.85-8.835,7.523-8.835,12.671l14.637,56.846Z" transform="translate(30.012 3.206)" fill="#eab794"/>
            <path id="Trazado_239416" data-name="Trazado 239416" d="M350.03,165.546l16.057-87.732c0-5.227-3.917-11.008-8.733-12.887l-18.628-7.319L326.82,84.021,315.5,57.607l-18.63,7.32c-4.815,1.879-8.732,7.659-8.732,12.886l16.057,87.733Z" transform="translate(30.075 6.013)" fill="#31acff"/>
            <path id="Trazado_239417" data-name="Trazado 239417" d="M324.085,44.514a19.442,19.442,0,0,1-5.111-.7c.7-1,2.2-1.281,5.224-1.281,2.966,0,4.462.278,5.182,1.225a19.6,19.6,0,0,1-5.294.758" transform="translate(33.294 4.439)" fill="#ffb048"/>
            <path id="Trazado_239418" data-name="Trazado 239418" d="M342.161,27.379c0,23.732-10.608,27.612-16.864,27.612s-16.863-4.6-16.863-27.612c0-11.578,7.549-18.664,16.863-18.664s16.864,7.086,16.864,18.664" transform="translate(32.193 0.91)" fill="#fed1aa"/>
            <path id="Trazado_239419" data-name="Trazado 239419" d="M310.883,30.092c.684,3.641-.123,6.847-1.8,7.163s-3.593-2.381-4.276-6.022.123-6.847,1.8-7.162,3.593,2.38,4.276,6.021" transform="translate(31.79 2.51)" fill="#fed1aa"/>
            <path id="Trazado_239420" data-name="Trazado 239420" d="M336.882,30.092c-.684,3.641.123,6.847,1.8,7.163s3.593-2.381,4.276-6.022-.123-6.847-1.8-7.162-3.593,2.38-4.276,6.021" transform="translate(35.137 2.51)" fill="#fed1aa"/>
            <path id="Trazado_239421" data-name="Trazado 239421" d="M312.875,48.4c.99,7.284,6.325,10.864,13.4,10.864,4.5,0,7.671-1.257,10.021-3.556v-6.1Z" transform="translate(32.657 5.052)" fill="#d19a75"/>
            <path id="Trazado_239422" data-name="Trazado 239422" d="M332.851,44.969c-.352-2.405-1.94-3.819-7.536-3.819-5.658,0-7.217,1.447-7.545,3.9-6.518,0-9.493-17.745-9.493-17.745-.1,18.121,2.757,30.6,17.037,30.6,14.91,0,18.273-16.637,16.864-32.05,0,0-2.114,19.108-9.326,19.108M325.2,46.526a19.488,19.488,0,0,1-5.111-.7c.7-1,2.2-1.281,5.224-1.281,2.966,0,4.462.278,5.182,1.225a19.6,19.6,0,0,1-5.294.758" transform="translate(32.177 2.699)" fill="#474747"/>
            <path id="Trazado_239423" data-name="Trazado 239423" d="M340.388,20.2c.126-.138.224-.283.341-.422a16.521,16.521,0,0,0-30.665-1.311,3.406,3.406,0,0,0,.87.908c3.628,2.488,22.28,8.684,29.454.825" transform="translate(32.364 0.91)" fill="#eab794"/>
            <path id="Trazado_239424" data-name="Trazado 239424" d="M310.245,19.023c-3.682-2.3-1.64-10.72,7.692-12.991,11.787-2.867,22.169,3.8,22.009-3.366,3.5,2.23,7.1,10.768.72,17.133-7.409,7.395-26.674,1.565-30.421-.776" transform="translate(32.202 0.278)" fill="#474747"/>
            <path id="Trazado_239425" data-name="Trazado 239425" d="M356.739,200.157c0-40.663,5.3-122.934,5.3-122.934a14.974,14.974,0,0,0-8.9-12.972l-16.925-6.563s-7.772,94.6,7.757,103.71c1.679,45.853,12.771,45.538,12.771,38.759" transform="translate(34.89 6.021)" fill="#ddd"/>
            <path id="Trazado_239426" data-name="Trazado 239426" d="M343.873,83.325l-2.782-8.662,2.188-1.4-1.457-13.706s-5.321-3.637-5.551-2.165c-4.76,30.468-1.492,67.814-1.492,67.814Z" transform="translate(34.829 5.954)" fill="#f4f4f4"/>
            <path id="Trazado_239427" data-name="Trazado 239427" d="M329.654,10.5c-14.719.646-20.142,8.283-20.142,4.14S314.8,6.583,321.326,5.9s12.467,4.412,8.328,4.593" transform="translate(32.306 0.61)" fill="#606060"/>
            <path id="Trazado_239428" data-name="Trazado 239428" d="M352.641,64.577l-10.576-3.759,1.128,5.946c5.3-.368,12.185-1.05,9.448-2.187" transform="translate(35.704 6.348)" fill="#f6f7f5"/>
            <rect id="Rectángulo_216949" data-name="Rectángulo 216949" width="13.054" height="6.542" transform="translate(376.018 93.572)" fill="#003e4d"/>
            <rect id="Rectángulo_216950" data-name="Rectángulo 216950" width="12.351" height="5.84" transform="translate(376.37 93.923)" fill="#f4f4f4"/>
            <rect id="Rectángulo_216951" data-name="Rectángulo 216951" width="1.712" height="1.439" transform="translate(381.69 92.876)" fill="#b7bdbd"/>
            <rect id="Rectángulo_216952" data-name="Rectángulo 216952" width="3.912" height="4.812" transform="translate(377.197 94.494)" fill="#b7bdbd"/>
            <path id="Trazado_239429" data-name="Trazado 239429" d="M320.48,288.9c0,2.094-2.414,3.791-5.394,3.791h-3.595c-2.978,0-5.394-1.7-5.394-3.791v-8.088c0-2.1,2.415-2.436,5.394-2.436h3.595c2.98,0,5.394.341,5.394,2.436Z" transform="translate(31.95 29.057)" fill="#003e61"/>
            <path id="Trazado_239430" data-name="Trazado 239430" d="M320.48,286.973c0,1.569-2.414,2.84-5.394,2.84h-3.595c-2.978,0-5.394-1.271-5.394-2.84v-6.06c0-1.569,2.415-4.941,5.394-4.941h3.595c2.98,0,5.394,3.372,5.394,4.941Z" transform="translate(31.95 28.805)" fill="#ddd"/>
            <path id="Trazado_239431" data-name="Trazado 239431" d="M342.97,288.9c0,2.094-2.414,3.791-5.394,3.791h-3.595c-2.978,0-5.394-1.7-5.394-3.791v-8.088c0-2.1,2.415-2.436,5.394-2.436h3.595c2.98,0,5.394.341,5.394,2.436Z" transform="translate(34.297 29.057)" fill="#003e61"/>
            <path id="Trazado_239432" data-name="Trazado 239432" d="M342.97,286.973c0,1.569-2.414,2.84-5.394,2.84h-3.595c-2.978,0-5.394-1.271-5.394-2.84v-6.06c0-1.569,2.415-4.941,5.394-4.941h3.595c2.98,0,5.394,3.372,5.394,4.941Z" transform="translate(34.297 28.805)" fill="#ddd"/>
            <path id="Trazado_239433" data-name="Trazado 239433" d="M352.575,95.692c2.724,22.678-1.308,27.751-10.848,59.714a1.432,1.432,0,0,0-.369.384,7.379,7.379,0,0,0,1.87,1.641c.258,7.049.739,13,1.367,18.016a123.938,123.938,0,0,0,12.2-14.6c.833-22.845,2.159-47.759,3.159-65.154Z" transform="translate(35.63 9.988)" fill="#b7bdbd"/>
            <path id="Trazado_239434" data-name="Trazado 239434" d="M351.931,167.238c-2.242,1.4-11.288-10.345-8.225-12.337,13.137-31.91,15.513-32.68,8.631-56.454,2.139-9.366-1.876-28.4,1.278-29.375l.235-4.719c10.976,5.858,10.845,11.873,14.531,22.484,5.606,16.134,13.727,42.722-16.45,80.4" transform="translate(35.81 6.717)" fill="#ddd"/>
            <path id="Trazado_239435" data-name="Trazado 239435" d="M334.891,160.425c3.283,2.1,6.554,4.224,10.014,6.064,1.1-2.05,4.9-7.086,5.876-9.808-1.661-.211-4.413-2.963-5.812-5.568-2.474,1.21-6.99,2.537-7.651,3.649-1.306,2.2-1.686,4.686-2.427,5.663" transform="translate(34.955 15.773)" fill="#eab794"/>
            <path id="Trazado_239436" data-name="Trazado 239436" d="M292.952,200.157c0-40.663-5.3-122.934-5.3-122.934a14.974,14.974,0,0,1,8.9-12.972l16.925-6.563s7.771,94.6-7.757,103.71c-1.679,45.853-12.771,45.538-12.771,38.759" transform="translate(30.024 6.021)" fill="#ddd"/>
            <path id="Trazado_239437" data-name="Trazado 239437" d="M304.156,83.325l2.782-8.662-2.188-1.4,1.457-13.706s5.321-3.637,5.551-2.165c4.76,30.468,1.492,67.814,1.492,67.814Z" transform="translate(31.747 5.954)" fill="#f4f4f4"/>
            <path id="Trazado_239438" data-name="Trazado 239438" d="M295.484,64.577l10.576-3.759-1.128,5.946c-5.3-.368-12.185-1.05-9.448-2.187" transform="translate(30.777 6.348)" fill="#f6f7f5"/>
            <path id="Trazado_239439" data-name="Trazado 239439" d="M296.249,95.692c-2.725,22.678,1.308,27.751,10.848,59.714a1.412,1.412,0,0,1,.368.384,7.394,7.394,0,0,1-1.869,1.641c-.26,7.049-.74,13-1.368,18.016a124.042,124.042,0,0,1-12.2-14.6c-.833-22.845-2.158-47.759-3.157-65.154Z" transform="translate(30.152 9.988)" fill="#b7bdbd"/>
            <path id="Trazado_239440" data-name="Trazado 239440" d="M298.037,167.238c2.242,1.4,11.287-10.345,8.225-12.337-13.138-31.91-15.514-32.68-8.632-56.454-2.139-9.366,1.876-28.4-1.278-29.375l-.235-4.719c-10.975,5.858-10.845,11.873-14.531,22.484-5.606,16.134-13.727,42.722,16.451,80.4" transform="translate(28.829 6.717)" fill="#ddd"/>
            <path id="Trazado_239441" data-name="Trazado 239441" d="M313.677,160.425c-3.283,2.1-6.554,4.224-10.014,6.064-1.1-2.05-4.9-7.086-5.876-9.808,1.661-.211,4.413-2.963,5.812-5.568,2.474,1.21,6.99,2.537,7.651,3.649,1.306,2.2,1.686,4.686,2.427,5.663" transform="translate(31.082 15.773)" fill="#eab794"/>
            <path id="Trazado_239442" data-name="Trazado 239442" d="M312.53,99.088c3.164-3.691,5.3-10.538,5.319-18.406H317.2c-.017,7.291-1.88,13.67-4.673,17.3Z" transform="translate(32.621 8.421)" fill="#b7bdbd"/>
            <path id="Trazado_239443" data-name="Trazado 239443" d="M303.2,97.8c-2.708-3.665-4.5-9.954-4.519-17.113h-.646c.018,7.739,2.086,14.487,5.165,18.22Z" transform="translate(31.108 8.421)" fill="#b7bdbd"/>
            <path id="Trazado_239444" data-name="Trazado 239444" d="M303.446,97.475a.461.461,0,0,1-.921,0V96.093a.461.461,0,0,1,.921,0Z" transform="translate(31.577 9.982)" fill="#b7bdbd"/>
            <path id="Trazado_239445" data-name="Trazado 239445" d="M312.825,97.475a.461.461,0,1,1-.921,0V96.093a.461.461,0,0,1,.921,0Z" transform="translate(32.556 9.982)" fill="#b7bdbd"/>
            <path id="Trazado_239446" data-name="Trazado 239446" d="M304.987,96.885a.834.834,0,0,1-.835.834h-.115a.834.834,0,0,1,0-1.669h.115a.835.835,0,0,1,.835.835" transform="translate(31.647 10.025)" fill="#b7bdbd"/>
            <path id="Trazado_239447" data-name="Trazado 239447" d="M312.282,96.885a.834.834,0,0,1-.835.834h-.115a.834.834,0,0,1,0-1.669h.115a.835.835,0,0,1,.835.835" transform="translate(32.409 10.025)" fill="#b7bdbd"/>
            <path id="Trazado_239448" data-name="Trazado 239448" d="M318.421,83.185v-.325c-.027-11.124-4.373-20.175-9.691-20.175s-9.664,9.05-9.69,20.175v.325h-1.3v-.326c.027-11.927,4.955-21.631,10.986-21.631s10.96,9.7,10.986,21.631v.326Z" transform="translate(31.078 6.391)" fill="#003e4d"/>
            <path id="Trazado_239449" data-name="Trazado 239449" d="M313.353,56.569a15,15,0,0,0-5.12,6.377h-1.075a16.093,16.093,0,0,1,6.194-7.659ZM336.9,55.3v1.285c2.31,1.7,6.377,24.27,4.763,39.469l1.195,0c1.12-20.854-3.087-38.8-5.958-40.759" transform="translate(32.06 5.771)" fill="#003e4d"/>
            <path id="Trazado_239450" data-name="Trazado 239450" d="M339.568,105.687a6.961,6.961,0,1,1,6.961-6.961,6.968,6.968,0,0,1-6.961,6.961" transform="translate(34.717 9.578)" fill="#003e4d"/>
            <path id="Trazado_239451" data-name="Trazado 239451" d="M333.019,98.683a6.505,6.505,0,1,1,6.506,6.506,6.506,6.506,0,0,1-6.506-6.506" transform="translate(34.76 9.621)" fill="#b7bdbd"/>
            <path id="Trazado_239452" data-name="Trazado 239452" d="M337.479,98.217a1.58,1.58,0,1,1,1.579,1.579,1.579,1.579,0,0,1-1.579-1.579" transform="translate(35.225 10.087)" fill="#6a686b"/>
            <path id="Trazado_239453" data-name="Trazado 239453" d="M342.077,99.15a3.416,3.416,0,0,1-5.43,0h-2.076a4.8,4.8,0,0,0,9.583,0Z" transform="translate(34.922 10.349)" fill="#ddd"/>
            <path id="Trazado_239454" data-name="Trazado 239454" d="M228.3,209.888l-2.559-.051c2.225,23.719,4.069,42.712,5.774,60.1.151,1.553.582,8.679.718,10.053.123,1.253-2.119,7.97-2.012,9.059.547,5.566,3.161,7.3,3.161,7.3l14.71.964,1.462-6.922-1.161-7.537,1.5-72.542q-10.8-.2-21.6-.419" transform="translate(23.562 21.902)" fill="#ddd"/>
            <path id="Trazado_239455" data-name="Trazado 239455" d="M253.424,210.361l3.36,73.148-1.484,6.579,2.1,6.783,13.213.22s2.494-2.092,3-7.694c.137-1.512-1.945-8.936-1.78-10.758,1.543-17.1,4.276-42.456,6.579-67.937q-12.492-.118-24.983-.341" transform="translate(26.452 21.957)" fill="#ddd"/>
            <path id="Trazado_239456" data-name="Trazado 239456" d="M291.828,79.086a14.121,14.121,0,0,0-7.228-7.093l-18.355-7.069V35.2H243.534V64.924l-18.355,7.068a14.127,14.127,0,0,0-7.228,7.095l36.532,15.425Z" transform="translate(22.749 3.674)" fill="#e29a59"/>
            <path id="Trazado_239457" data-name="Trazado 239457" d="M271.99,31.867c0,25.67-11.835,30.8-18.813,30.8s-18.814-5.134-18.814-30.8c0-12.917,8.423-20.822,18.814-20.822S271.99,18.95,271.99,31.867" transform="translate(24.462 1.153)" fill="#efaf6a"/>
            <path id="Trazado_239458" data-name="Trazado 239458" d="M238.294,34.894c.763,4.062-.137,7.639-2.009,7.99s-4.008-2.656-4.77-6.718.137-7.639,2.009-7.99,4.008,2.656,4.77,6.718" transform="translate(24.137 2.938)" fill="#efaf6a"/>
            <path id="Trazado_239459" data-name="Trazado 239459" d="M265.2,34.894c-.762,4.062.136,7.639,2.008,7.99s4.009-2.656,4.77-6.718-.137-7.639-2.009-7.99-4.008,2.656-4.769,6.718" transform="translate(27.653 2.938)" fill="#efaf6a"/>
            <path id="Trazado_239460" data-name="Trazado 239460" d="M234.369,8.707V31.1c7.929-12.379,30.1-10.3,37.551-.22V8.17C264.467-1.94,242.3-3.671,234.369,8.707" transform="translate(24.463 0)" fill="#16c4b3"/>
            <path id="Trazado_239461" data-name="Trazado 239461" d="M286.522,241.338c0-19.938-.146-66.389,2.561-104.142a474.75,474.75,0,0,1,7.35-55.586c0-5.075-4.136-10.688-9.219-12.513l-19.666-7.107L254.98,87.639,243.028,61.99,223.36,69.1c-5.083,1.823-9.219,7.437-9.219,12.513,0,0,4.569,19.795,6.938,56.2,2.17,33.372,2.157,82.588,2.157,103.417,0,9.172,63.286,8.93,63.286.106" transform="translate(22.351 6.47)" fill="#16c4b3"/>
            <path id="Trazado_239462" data-name="Trazado 239462" d="M252.72,1.792c-6.792-.019-13.564,2.314-17.171,7.6v6.12Z" transform="translate(24.586 0.187)" fill="#29d6c1"/>
            <path id="Trazado_239463" data-name="Trazado 239463" d="M260.355,71.4l3.048-8.169,18.581,6.715c4.377,1.57-21.629,1.454-21.629,1.454" transform="translate(27.175 6.6)" fill="#29d6c1"/>
            <path id="Trazado_239464" data-name="Trazado 239464" d="M223.2,69.943l18.569-6.71,6.075,12.9S207.29,77.75,223.2,69.943" transform="translate(22.911 6.6)" fill="#29d6c1"/>
            <path id="Trazado_239465" data-name="Trazado 239465" d="M271.893,28.72c-7.448-10.03-29.47-12.106-37.455.137,0,.013,0,.027,0,.041s15.307-13.941,37.456-.178" transform="translate(24.47 2.131)" fill="#e29a59"/>
            <path id="Trazado_239466" data-name="Trazado 239466" d="M241.116,38.651V55.137c3.469,5.8,8.147,8.236,11.355,8.81a11.5,11.5,0,0,0,11.355-4.178V42.708L252.47,37.823Z" transform="translate(25.167 3.948)" fill="#d67f43"/>
            <path id="Trazado_239467" data-name="Trazado 239467" d="M234.447,27.348l-.821.885L236.5,39.841l.564-1.919Z" transform="translate(24.385 2.854)" fill="#e7eae1"/>
            <path id="Trazado_239468" data-name="Trazado 239468" d="M268.617,27.348l.821.885-2.869,11.608L266,37.921Z" transform="translate(27.765 2.854)" fill="#e7eae1"/>
            <path id="Trazado_239469" data-name="Trazado 239469" d="M269.515,27.159a.632.632,0,0,0-.642-.525H257c-1,0-2.521.656-3.869.656s-2.867-.656-3.87-.656H237.381a.633.633,0,0,0-.643.525h-3.289v1.082h3.276c.382,2.478,1.692,6.962,2.349,6.962h9.194c1.072,0,2.639-2.167,3.217-3.545a1.713,1.713,0,0,1,3.283,0c.578,1.378,2.145,3.545,3.217,3.545h9.194c.657,0,1.968-4.484,2.349-6.962H272.8V27.159ZM248.3,34.87c-.853,0-8.034.013-8.757.013s-3-7.373-1.1-7.373h9.967c5.3,0,.74,7.36-.113,7.36m18.41.013c-.722,0-7.9-.013-8.757-.013s-5.411-7.36-.113-7.36h9.967c1.9,0-.375,7.373-1.1,7.373" transform="translate(24.367 2.78)" fill="#003e4d"/>
            <g id="Grupo_174345" data-name="Grupo 174345" transform="translate(262.071 30.291)" opacity="0.3">
              <g id="Grupo_174344" data-name="Grupo 174344">
                <g id="Grupo_174343" data-name="Grupo 174343" clip-path="url(#clip-path-16)">
                  <path id="Trazado_239470" data-name="Trazado 239470" d="M247.9,34.788c-.853,0-8.034.013-8.757.013s-3-7.373-1.1-7.373h9.967c5.3,0,.74,7.36-.113,7.36" transform="translate(-237.302 -27.428)" fill="#e7eae1"/>
                </g>
              </g>
            </g>
            <g id="Grupo_174348" data-name="Grupo 174348" transform="translate(279.685 30.291)" opacity="0.3">
              <g id="Grupo_174347" data-name="Grupo 174347">
                <g id="Grupo_174346" data-name="Grupo 174346" clip-path="url(#clip-path-16)">
                  <path id="Trazado_239471" data-name="Trazado 239471" d="M264.643,34.8c-.722,0-7.9-.013-8.757-.013s-5.411-7.36-.113-7.36h9.967c1.9,0-.375,7.373-1.1,7.373" transform="translate(-253.251 -27.428)" fill="#e7eae1"/>
                </g>
              </g>
            </g>
            <path id="Trazado_239472" data-name="Trazado 239472" d="M269.984,37.3,253,33.509l-16.98,3.8c.574,5.481,2.146,13.393,2.146,13.393,4.045,7.457,10.568,9.629,14.835,9.629a16.648,16.648,0,0,0,14.835-8.952s1.579-8.663,2.146-14.07" transform="translate(24.635 3.498)" fill="#e7eae1"/>
            <path id="Trazado_239473" data-name="Trazado 239473" d="M252.909,34.242v7.367s-13.831,3.337-16-3.629Z" transform="translate(24.728 3.574)" fill="#f6f7f5"/>
            <rect id="Rectángulo_216955" data-name="Rectángulo 216955" width="13.943" height="6.989" transform="translate(289.233 97.18)" fill="#003e4d"/>
            <rect id="Rectángulo_216956" data-name="Rectángulo 216956" width="13.192" height="6.238" transform="translate(289.61 97.555)" fill="#f4f4f4"/>
            <rect id="Rectángulo_216957" data-name="Rectángulo 216957" width="1.829" height="1.537" transform="translate(295.291 96.435)" fill="#b7bdbd"/>
            <rect id="Rectángulo_216958" data-name="Rectángulo 216958" width="4.179" height="5.139" transform="translate(290.491 98.166)" fill="#b7bdbd"/>
            <path id="Trazado_239474" data-name="Trazado 239474" d="M247.433,298.075c0,2.236-2.579,4.05-5.76,4.05h-3.841c-3.181,0-5.76-1.813-5.76-4.05v-8.64c0-2.236,2.58-2.6,5.76-2.6h3.841c3.182,0,5.76.366,5.76,2.6Z" transform="translate(24.223 29.939)" fill="#003e61"/>
            <path id="Trazado_239475" data-name="Trazado 239475" d="M247.433,296.012c0,1.675-2.579,3.034-5.76,3.034h-3.841c-3.181,0-5.76-1.358-5.76-3.034V289.54c0-1.675,2.58-5.277,5.76-5.277h3.841c3.182,0,5.76,3.6,5.76,5.277Z" transform="translate(24.223 29.671)" fill="#3f5e77"/>
            <path id="Trazado_239476" data-name="Trazado 239476" d="M271.455,298.075c0,2.236-2.579,4.05-5.76,4.05h-3.841c-3.181,0-5.76-1.813-5.76-4.05v-8.64c0-2.236,2.58-2.6,5.76-2.6h3.841c3.182,0,5.76.366,5.76,2.6Z" transform="translate(26.73 29.939)" fill="#003e61"/>
            <path id="Trazado_239477" data-name="Trazado 239477" d="M271.455,296.012c0,1.675-2.579,3.034-5.76,3.034h-3.841c-3.181,0-5.76-1.358-5.76-3.034V289.54c0-1.675,2.58-5.277,5.76-5.277h3.841c3.182,0,5.76,3.6,5.76,5.277Z" transform="translate(26.73 29.671)" fill="#3f5e77"/>
            <path id="Trazado_239478" data-name="Trazado 239478" d="M214.436,80.594l-.108.361c.917,5.8,4.7,30.542,7.023,58.26,17.579-2.334,56.658-13.4,61.994-15.016-1.353-6.536-14.252-12.179-14.252-12.179s-42.864,3.98-42.638.6,2.419-21.71,2.419-21.71Z" transform="translate(22.371 8.412)" fill="#0eaf9c"/>
            <path id="Trazado_239479" data-name="Trazado 239479" d="M215.384,77.532c-5.464,18.071-14.706,53.908-7.493,58.416s62.585-10.6,70.023-12.856c-1.353-6.536-8.108-8.659-8.108-8.659s-46.363,6.414-46.138,3.034S230.2,89.743,230.2,89.743Z" transform="translate(21.423 8.093)" fill="#16c4b3"/>
            <path id="Trazado_239480" data-name="Trazado 239480" d="M293.979,80.594l.108.361c-.917,5.8-5.241,34.278-7.566,62-17.579-2.334-47.348-19.666-52.684-21.282,1.353-6.536,3.515-8.916,3.515-8.916s46.314,10.93,46.089,7.55-3.9-29.393-3.9-29.393Z" transform="translate(24.407 8.412)" fill="#0eaf9c"/>
            <path id="Trazado_239481" data-name="Trazado 239481" d="M293.8,77.532c5.464,18.071,14.706,53.908,7.493,58.416s-58.325-13.147-65.763-15.4c1.353-6.536,2.744-12.238,2.744-12.238s44.675,9.407,47.22,9.928c2.953.605-.107-3.782-6.515-28.5Z" transform="translate(24.584 8.093)" fill="#16c4b3"/>
            <path id="Trazado_239482" data-name="Trazado 239482" d="M238.81,107.147c.927.63,40.305,7.573,47.71,8.341,22.851,10.753-28.281,2.171-47.71-8.341" transform="translate(24.926 11.184)" fill="#29d6c1"/>
            <path id="Trazado_239483" data-name="Trazado 239483" d="M293.288,110.879a22.332,22.332,0,0,0-12.512-5.392l-.424-1.718c-2.2-.149-16.648,7.925-16.648,7.925s21.309,3.379,25.918,5.972c2.086,1.173,7.091-3.875,3.667-6.787" transform="translate(27.525 10.831)" fill="#f4f4f4"/>
            <path id="Trazado_239484" data-name="Trazado 239484" d="M279.43,105.847c6.165,2.617,12.642,8.111,12.5,6.418s-5.827-6-12.5-6.418" transform="translate(29.166 11.048)" fill="#fff"/>
            <path id="Trazado_239485" data-name="Trazado 239485" d="M233.009,102.418l-4.95,1.184s-.987-.532-3.839.127c-.986,4.179-1.757,7.714-1.833,8.855a.422.422,0,0,0,.2.366c5.911-.414,14.975,1.888,14.975,1.888l2.084-9.125s-4.482-2.838-6.64-3.294" transform="translate(23.212 10.69)" fill="#f4f4f4"/>
            <path id="Trazado_239486" data-name="Trazado 239486" d="M223.838,104.448c-.155.658-.3,1.3-.442,1.909a54.529,54.529,0,0,1,8.064-1.849,19.726,19.726,0,0,0-7.622-.061" transform="translate(23.317 10.866)" fill="#fff"/>
          </g>
        </g>
      </g>
    </g>
  </g>
</svg>
