<svg xmlns="http://www.w3.org/2000/svg" xmlns:xlink="http://www.w3.org/1999/xlink" width="392.639" height="332.497" viewBox="0 0 392.639 332.497">
  <defs>
    <clipPath id="clip-path">
      <rect id="Rectángulo_216989" data-name="Rectángulo 216989" width="392.639" height="332.496" fill="none"/>
    </clipPath>
  </defs>
  <g id="Grupo_174355" data-name="Grupo 174355" transform="translate(0 0.003)">
    <g id="Grupo_174354" data-name="Grupo 174354" transform="translate(0 -0.003)" clip-path="url(#clip-path)">
      <path id="Trazado_239487" data-name="Trazado 239487" d="M347.6,216.259c-11.385,44.824-47.787,104.521-89.423,104.43-50.041-.108-63.66-86.48-134.193-95.756-38.883-5.114-53.53,18.665-79.7,6.512C5.228,213.31-12.792,136.839,10.082,85.951,46.123,5.77,193.176-32,281.741,33.252c53.973,39.766,83.022,115.435,65.86,183.007" transform="translate(0 0.003)" fill="#f7e8f1"/>
      <rect id="Rectángulo_216976" data-name="Rectángulo 216976" width="90.604" height="140.165" transform="translate(45.668 21.815)" fill="#f4c9e3"/>
      <rect id="Rectángulo_216977" data-name="Rectángulo 216977" width="35.635" height="59.666" transform="translate(51.398 29.274)" fill="#f4dfea"/>
      <rect id="Rectángulo_216978" data-name="Rectángulo 216978" width="35.635" height="59.666" transform="translate(94.488 29.274)" fill="#f4dfea"/>
      <rect id="Rectángulo_216979" data-name="Rectángulo 216979" width="35.635" height="59.666" transform="translate(51.398 96.068)" fill="#f4dfea"/>
      <rect id="Rectángulo_216980" data-name="Rectángulo 216980" width="35.635" height="59.666" transform="translate(94.488 96.068)" fill="#f4dfea"/>
      <rect id="Rectángulo_216981" data-name="Rectángulo 216981" width="40.59" height="62.424" transform="translate(158.017 82.704)" fill="#f4c9e3"/>
      <rect id="Rectángulo_216982" data-name="Rectángulo 216982" width="28.384" height="36.621" transform="translate(164.467 93.124)" fill="#f4bddb"/>
      <rect id="Rectángulo_216983" data-name="Rectángulo 216983" width="49.841" height="76.651" transform="translate(215.64 27.887)" fill="#f4c9e3"/>
      <rect id="Rectángulo_216984" data-name="Rectángulo 216984" width="34.852" height="44.967" transform="translate(223.562 40.682)" fill="#f4bddb"/>
      <path id="Trazado_239488" data-name="Trazado 239488" d="M1101.952,1814.005c0,2.214-15.4,4.008-34.407,4.008s-34.407-1.795-34.407-4.008,15.4-4.008,34.407-4.008,34.407,1.795,34.407,4.008" transform="translate(-870.748 -1525.498)" fill="#f4c9e3"/>
      <path id="Trazado_239489" data-name="Trazado 239489" d="M1171.559,1579.875h-24.315a7.12,7.12,0,0,1-7.055-6.156c-3.758-9.876-4.974-23.407-5.239-38.3a2.764,2.764,0,0,1,2.738-3.138h44.285a2.764,2.764,0,0,1,2.73,3.2,179.822,179.822,0,0,1-6.113,38.4,7.121,7.121,0,0,1-7.032,6" transform="translate(-956.535 -1291.432)" fill="#f4bddb"/>
      <path id="Trazado_239490" data-name="Trazado 239490" d="M1374.279,1393.29a54.025,54.025,0,0,1-1.137-16.911,37.159,37.159,0,0,1,4.078-14.246,28.631,28.631,0,0,1,12.14-11.918l.865,1.647c-9,4.723-14.121,13.012-15.226,24.638a53.175,53.175,0,0,0,1.08,16.323Z" transform="translate(-1157.124 -1137.986)" fill="#f4bddb"/>
      <path id="Trazado_239491" data-name="Trazado 239491" d="M1183.194,1209.237l-1.733-.675a102.8,102.8,0,0,0,5.816-27.2c1.218-19.209-4.684-32.45-17.543-39.354l.88-1.639a33.138,33.138,0,0,1,15.778,18.3c2.375,6.449,3.3,14.138,2.739,22.855a104.807,104.807,0,0,1-5.937,27.717" transform="translate(-985.872 -961.121)" fill="#f4bddb"/>
      <path id="Trazado_239492" data-name="Trazado 239492" d="M1322.011,1140.6c-.209-.427-5.123-10.641-6.138-26.767a91.948,91.948,0,0,1,2.646-28.3,104.92,104.92,0,0,1,15.561-33.734l1.533,1.054c-16.418,23.875-18.79,46.228-17.889,60.776.978,15.782,5.909,26.053,5.958,26.155Z" transform="translate(-1108.891 -886.472)" fill="#f4bddb"/>
      <path id="Trazado_239493" data-name="Trazado 239493" d="M1185.773,1289.441a63.044,63.044,0,0,1-2.889-13.628,84.385,84.385,0,0,1,2.869-33.058l1.784.525a82.509,82.509,0,0,0-2.8,32.322,62.311,62.311,0,0,0,2.785,13.192Z" transform="translate(-996.516 -1047.416)" fill="#f4bddb"/>
      <path id="Trazado_239494" data-name="Trazado 239494" d="M1322.48,988.958c-5.885-.923-4.415-11.583-.878-17.345s4.754-1.313,6.2-8.36,4.724-12.816,8.645-11.7,9.762-1.234,13.369-6.041,6.759,5.961,4.766,8.3l-1.993,2.336s-6.637,3.8-8.8,7.643.354,4.547.542,10.7-7.158,5.781-10.78,7.827-3.286,7.865-11.067,6.645" transform="translate(-1111.26 -795.861)" fill="#f4bddb"/>
      <path id="Trazado_239495" data-name="Trazado 239495" d="M1397.678,1282.936c1.674-2.824,2.833-5.372,3.88-7.461,2.115-4.22,3.772-6.572,8.286-5.567,6.749,1.5,16.6.309,18.125-4.64s7.665,3.915.188,9.675-7.667,16.2-15.124,13.92-10.1-.563-12.348,2.543-6.867-1.956-3.007-8.469" transform="translate(-1176.736 -1065.17)" fill="#f4bddb"/>
      <path id="Trazado_239496" data-name="Trazado 239496" d="M1068.433,1053.557c-3.934-2.209-7.509-3.83-10.434-5.261-5.906-2.891-9.163-5.01-7.373-9.648,2.676-6.934,1.71-17.571-5.29-19.951s6.215-7.538,13.928,1.281,22.715,10.619,18.865,18.185-1.581,10.633,2.714,13.5-3.337,6.99-12.409,1.9" transform="translate(-879.359 -855.477)" fill="#f4bddb"/>
      <path id="Trazado_239497" data-name="Trazado 239497" d="M1163.642,1103.262c8.466-4.919,13.1-25.325,7.717-42.6s-12.991,12.68-9.693,20.847.726,8.424-2.087,13.063,4.063,8.689,4.063,8.689" transform="translate(-976.744 -889.495)" fill="#f4bddb"/>
      <path id="Trazado_239498" data-name="Trazado 239498" d="M207.41,1941.632c0,4.654-37.522,8.426-83.808,8.426s-83.808-3.773-83.808-8.426,37.522-8.426,83.808-8.426,83.808,3.773,83.808,8.426" transform="translate(-33.538 -1629.341)" fill="#f4bddb"/>
      <path id="Trazado_239499" data-name="Trazado 239499" d="M1703.888,1872.156c0,6.878-32.531,12.453-72.661,12.453s-72.661-5.575-72.661-12.453,32.531-12.453,72.661-12.453,72.661,5.576,72.661,12.453" transform="translate(-1313.588 -1567.391)" fill="#f4bddb"/>
      <path id="Trazado_239500" data-name="Trazado 239500" d="M886.535,2020.364c0,4.2-23.011,7.611-51.4,7.611s-51.4-3.407-51.4-7.611,23.011-7.611,51.4-7.611,51.4,3.407,51.4,7.611" transform="translate(-660.552 -1696.385)" fill="#f4bddb"/>
      <path id="Trazado_239501" data-name="Trazado 239501" d="M1292.67,1960.557c0,5.2-23.011,9.423-51.4,9.423s-51.4-4.219-51.4-9.423,23.011-9.423,51.4-9.423,51.4,4.219,51.4,9.423" transform="translate(-1002.85 -1644.451)" fill="#f4bddb"/>
      <path id="Trazado_239502" data-name="Trazado 239502" d="M240.318,1518.471l-27.313,76.9-2.094-.637,20.139-79.08Z" transform="translate(-177.76 -1277.419)" fill="#0c2333"/>
      <path id="Trazado_239503" data-name="Trazado 239503" d="M386.352,1518.727l-16.678,64.711-1.948-.407,10.607-65.978Z" transform="translate(-309.926 -1278.599)" fill="#0c2333"/>
      <path id="Trazado_239504" data-name="Trazado 239504" d="M803.265,1534.128l20.139,79.081-2.094.637L794,1536.947Z" transform="translate(-669.196 -1292.99)" fill="#0c2333"/>
      <path id="Trazado_239505" data-name="Trazado 239505" d="M713.788,1536.977l10.607,65.978-1.948.407-16.678-64.711Z" transform="translate(-594.835 -1295.392)" fill="#0c2333"/>
      <path id="Trazado_239506" data-name="Trazado 239506" d="M359.351,837.835H317.162a14.537,14.537,0,0,1-14.43-14.643V761.431c0-14.457-15.657-23.284-27.754-15.647A43.331,43.331,0,0,0,254.9,782.451c1.1,34.7-11.108,93.616,40.13,95.233,23.776-.356,59.089,4.713,74.366-19.085,6.449-8.469.5-20.763-10.048-20.763" transform="translate(-214.391 -626.191)" fill="#f7b452"/>
      <path id="Trazado_239507" data-name="Trazado 239507" d="M436.826,1345.209a27.85,27.85,0,0,1,.9-8.652c1.628-6.031,5.229-10.107,10.415-11.787l.223.689c-5.006,1.622-8.348,5.412-9.934,11.266a27.657,27.657,0,0,0-.883,8.424Z" transform="translate(-368.127 -1116.54)" fill="#ed910c"/>
      <path id="Trazado_239508" data-name="Trazado 239508" d="M458.181,1355.627a22.157,22.157,0,0,1,1.779-9c1.856-4.549,6.054-10.846,15.508-15.014l.292.663c-9.233,4.07-13.324,10.2-15.13,14.624a21.8,21.8,0,0,0-1.727,8.679Z" transform="translate(-386.153 -1122.308)" fill="#ed910c"/>
      <path id="Trazado_239509" data-name="Trazado 239509" d="M281.924,993.919c-1.055,0-2.133-.774-3.211-2.307l.593-.417c1.037,1.474,2.007,2.139,2.884,1.974,1.708-.32,2.925-3.724,3.271-5.08l-5.155-84.753c-1.489-2.954-2.948-4.421-4.221-4.244-2.612.364-4.472,7.235-4.968,9.852l-.712-.135c.077-.405,1.923-9.926,5.58-10.435,1.668-.231,3.3,1.307,5,4.7l.033.066,0,.074,5.167,84.938-.013.054c-.052.212-1.312,5.2-3.854,5.671a2.156,2.156,0,0,1-.4.037" transform="translate(-227.901 -757.147)" fill="#ed910c"/>
      <path id="Trazado_239510" data-name="Trazado 239510" d="M463.18,1509.533l-.029-.724c4.543-.181,7.38-1.193,8.2-2.928.723-1.521-.265-3.226-.578-3.7-3.784-.29-66.917-5.087-72.7-2.89a4.261,4.261,0,0,0-2.892,2.645c-.615,2.184,1.263,4.644,1.282,4.669l-.573.443c-.087-.112-2.119-2.778-1.406-5.309a4.933,4.933,0,0,1,3.332-3.126c6.081-2.312,70.448,2.646,73.185,2.858l.163.013.1.131c.073.1,1.776,2.409.743,4.582-.961,2.021-3.932,3.146-8.831,3.34" transform="translate(-332.355 -1262.538)" fill="#ed910c"/>
      <path id="Trazado_239511" data-name="Trazado 239511" d="M2250.653,1450.135l20.139,79.08-2.094.637-27.313-76.9Z" transform="translate(-1889.08 -1222.199)" fill="#0c2333"/>
      <path id="Trazado_239512" data-name="Trazado 239512" d="M2161.176,1451.536l10.608,65.978-1.948.407-16.678-64.711Z" transform="translate(-1814.72 -1223.38)" fill="#0c2333"/>
      <path id="Trazado_239513" data-name="Trazado 239513" d="M1687.706,1471.43l-27.312,76.9-2.094-.637,20.139-79.08Z" transform="translate(-1397.645 -1237.772)" fill="#0c2333"/>
      <path id="Trazado_239514" data-name="Trazado 239514" d="M1833.74,1473.134l-16.678,64.711-1.948-.407,10.607-65.978Z" transform="translate(-1529.811 -1240.173)" fill="#0c2333"/>
      <path id="Trazado_239515" data-name="Trazado 239515" d="M1648.926,772.318h42.189a14.537,14.537,0,0,0,14.43-14.643V695.914c0-14.457,15.657-23.284,27.754-15.647a43.331,43.331,0,0,1,20.075,36.667c-1.1,34.7,11.109,93.616-40.129,95.233-23.776-.356-59.089,4.713-74.366-19.085-6.449-8.469-.5-20.763,10.048-20.763" transform="translate(-1379.023 -570.972)" fill="#f7b452"/>
      <path id="Trazado_239516" data-name="Trazado 239516" d="M2140.45,1279.692l-.723-.059a27.661,27.661,0,0,0-.883-8.424c-1.586-5.854-4.927-9.645-9.933-11.266l.223-.69c5.186,1.68,8.787,5.755,10.415,11.787a27.859,27.859,0,0,1,.9,8.652" transform="translate(-1794.285 -1061.321)" fill="#ed910c"/>
      <path id="Trazado_239517" data-name="Trazado 239517" d="M2086.873,1290.111l-.724-.047a21.876,21.876,0,0,0-1.74-8.712c-1.809-4.414-5.9-10.529-15.116-14.591l.292-.663c9.455,4.167,13.652,10.465,15.509,15.014a22.163,22.163,0,0,1,1.78,9" transform="translate(-1744.037 -1067.089)" fill="#ed910c"/>
      <path id="Trazado_239518" data-name="Trazado 239518" d="M2272.81,928.4a2.159,2.159,0,0,1-.4-.037c-2.542-.476-3.8-5.46-3.854-5.671l-.013-.054,5.171-85.012.033-.066c1.7-3.4,3.335-4.936,5-4.7,3.657.509,5.5,10.03,5.581,10.435l-.712.135c-.5-2.617-2.357-9.489-4.968-9.852-1.276-.177-2.733,1.29-4.221,4.244l-5.156,84.753c.346,1.356,1.563,4.76,3.271,5.08.877.162,1.847-.5,2.884-1.974l.593.417c-1.078,1.533-2.156,2.307-3.211,2.307" transform="translate(-1911.969 -701.927)" fill="#ed910c"/>
      <path id="Trazado_239519" data-name="Trazado 239519" d="M1757.939,1444.015c-4.9-.2-7.869-1.319-8.831-3.341-1.033-2.173.669-4.484.743-4.581l.1-.131.164-.013c2.737-.212,67.1-5.17,73.184-2.858a4.933,4.933,0,0,1,3.332,3.126c.713,2.531-1.32,5.2-1.407,5.309l-.574-.443c.02-.025,1.9-2.494,1.282-4.672a4.263,4.263,0,0,0-2.892-2.642c-5.781-2.2-68.908,2.6-72.7,2.89-.313.479-1.3,2.192-.577,3.708.827,1.733,3.664,2.744,8.2,2.924Z" transform="translate(-1473.901 -1207.318)" fill="#ed910c"/>
      <path id="Trazado_239520" data-name="Trazado 239520" d="M1537.816,1924.976c-1.1,5.393-10.544,6.911-18.4,12.145-5.1,3.4-19.244.476-20.073-4.824-.509-3.264,9.886-3.148,14.676-5.857a6.43,6.43,0,0,0,1.69-1.439,14.411,14.411,0,0,0,1.848-2.885c2.243-4.426,3.682-10.613,6.514-13.187,3.986-3.618,8.744-1.466,11.59,3.193a16.642,16.642,0,0,1,1.528,3.267,18.389,18.389,0,0,1,.626,9.587" transform="translate(-1263.659 -1607.348)" fill="#f2a488"/>
      <path id="Trazado_239521" data-name="Trazado 239521" d="M1535.571,1964.472c-2.321,4.832-11.065,3.854-18.469,9.3-8.676,6.385-23.682.269-21.019-5.754,1.469-3.324,18.891-9.831,18.856-9.773-3.206,5.308,16.683,6.685,18.7-7.245.4-2.762,4.1,8.969,1.936,13.469" transform="translate(-1260.663 -1643.99)" fill="#91bbe5"/>
      <path id="Trazado_239522" data-name="Trazado 239522" d="M1324.6,1839.77c-1.85,5.184-11.415,5.352-19.931,9.423-5.527,2.643-19.118-2.248-19.19-7.611-.042-3.3,10.232-1.72,15.356-3.725a6.429,6.429,0,0,0,1.877-1.185,14.419,14.419,0,0,0,2.237-2.6c2.845-4.064,5.144-9.985,8.311-12.134,4.457-3.019,8.863-.216,11.023,4.8a16.661,16.661,0,0,1,1.051,3.45,18.387,18.387,0,0,1-.735,9.579" transform="translate(-1083.423 -1534.516)" fill="#f2a488"/>
      <path id="Trazado_239523" data-name="Trazado 239523" d="M1687.311,495.627c-5.705-13.429-6.388-31.9,6.433-40.107,7.034-4.505,22.046-6.2,32.751,3.055,11.327,9.8,12.94,27.874,15.936,31.941,9.069,12.31,18.979,3.69,25.32,17.569,7.387,16.165-4.582,35.3-17.725,43.457-20.987,13.033-51.785,2.328-55.754-10.607-2.43-7.919,6.286-13.114,3.876-25.817-1.719-9.063-6.86-10.126-10.838-19.489" transform="translate(-1418.807 -380.846)" fill="#0c2333"/>
      <path id="Trazado_239524" data-name="Trazado 239524" d="M1861.906,645.817l-9.658,10.284-2.614-4.29-7.24-11.881,7.725-8,3.276,3.859Z" transform="translate(-1552.804 -532.604)" fill="#f2a488"/>
      <path id="Trazado_239525" data-name="Trazado 239525" d="M1849.635,651.811l-7.24-11.881,7.725-8,3.276,3.859s1.612,10.1-3.761,16.018" transform="translate(-1552.804 -532.604)" fill="#dd7a5f"/>
      <path id="Trazado_239526" data-name="Trazado 239526" d="M1748,546.416c-4.136,2.761-14.646-.322-17.743-8.973-.45-1.255-.889-2.467-1.3-3.639-3.256-9.251-4.8-16,4.215-22.016,7.667-5.12,14.755-1.607,19.9,6.344a16.983,16.983,0,0,1,2.354,5.923c1.772,8.852-2.582,19.13-7.419,22.36" transform="translate(-1455.043 -429.321)" fill="#f2a488"/>
      <path id="Trazado_239527" data-name="Trazado 239527" d="M1752.328,520.905c-1.015-1.768-3.511-.759-10.23-7.906a20.613,20.613,0,0,0-4.594-3.965,4.112,4.112,0,0,0-4.147.108c-2.37,1.456-5.4,3.88-5,7.362,1.052,9.181-3.964,9.278-3.773,14.621-3.413-9.7-5.031-16.773,4.42-23.082,8.039-5.368,15.47-1.685,20.859,6.652a17.8,17.8,0,0,1,2.469,6.209" transform="translate(-1451.255 -426.067)" fill="#0c2333"/>
      <path id="Trazado_239528" data-name="Trazado 239528" d="M1881.585,587.674a3.257,3.257,0,1,0,1.488-4.36,3.258,3.258,0,0,0-1.488,4.36" transform="translate(-1585.552 -491.346)" fill="#f2a488"/>
      <path id="Trazado_239529" data-name="Trazado 239529" d="M1680.379,709.66a30.024,30.024,0,0,0-1.945-3.121q-.527-.753-1.084-1.488c-.366-.493-.762-.966-1.115-1.468a14.6,14.6,0,0,0-2.2-2.954,6.907,6.907,0,0,0-1.73-1.067,3.529,3.529,0,0,0-1.505-.117,8.771,8.771,0,0,0-1.131.188,13.482,13.482,0,0,0-1.507.433,3.6,3.6,0,0,0-1.417.922,14.342,14.342,0,0,0-1.031,1.22,9.4,9.4,0,0,0-.655.975,3.88,3.88,0,0,0-.555,1.458,7.481,7.481,0,0,0,.172,2.082,14.91,14.91,0,0,0,1.6,3.344c.281.548.519,1.124.787,1.681s.536,1.114.819,1.661a30.111,30.111,0,0,0,1.86,3.177c1.58,2.292,5.187,2.508,8.056.482,2.694-1.9,3.768-5.125,2.582-7.406" transform="translate(-1402.863 -589.483)" fill="#f2a488"/>
      <path id="Trazado_239530" data-name="Trazado 239530" d="M1730.45,696.557c-.188-.5-.347-1.018-.509-1.532s-.307-1.032-.446-1.552-.272-1.043-.408-1.564l-.373-1.576-.048-.2-.008-.019-.493-1.158c-.153-.391-.317-.777-.459-1.175s-.287-.792-.422-1.192-.259-.806-.362-1.222a1.276,1.276,0,0,0-1.831-.7,1.775,1.775,0,0,0-1.183,1.911,1.148,1.148,0,0,0,.081.222c.186.375.345.764.506,1.152s.306.783.446,1.181.273.8.409,1.2l.375,1.216-.056-.221.107,1.662c.024.558.06,1.112.072,1.673s.028,1.122.034,1.685,0,1.131-.029,1.706a1.77,1.77,0,0,0,2.247,1.779,2.944,2.944,0,0,0,2.455-2.549,1.846,1.846,0,0,0-.106-.718" transform="translate(-1452.912 -576.932)" fill="#f2a488"/>
      <path id="Trazado_239531" data-name="Trazado 239531" d="M1695.3,654.364a1.5,1.5,0,0,0,2.063.1,1.529,1.529,0,0,0,.611-2.024l-3.305-4.84-.222-7.139a1.179,1.179,0,0,0-1.578-1.038,1.887,1.887,0,0,0-1.492,1.743l.242,7.807,3.659,5.358.021.03" transform="translate(-1425.519 -538.882)" fill="#f2a488"/>
      <path id="Trazado_239532" data-name="Trazado 239532" d="M1671.82,646.027l4.015,5.435a1.692,1.692,0,0,0,2.653-1.953v0l-3.631-4.915-.42-8.6a1.185,1.185,0,0,0-1.6-1.009,1.878,1.878,0,0,0-1.467,1.759Z" transform="translate(-1408.657 -535.13)" fill="#f2a488"/>
      <path id="Trazado_239533" data-name="Trazado 239533" d="M1662.838,668.362a1.486,1.486,0,0,0,2.033.122,1.548,1.548,0,0,0,.657-2.021l-3.582-5.571-.192-6.713a1.179,1.179,0,0,0-1.575-1.041,1.888,1.888,0,0,0-1.5,1.741l.21,7.353,3.907,6.076c.012.019.024.037.037.054" transform="translate(-1397.968 -550.44)" fill="#f2a488"/>
      <path id="Trazado_239534" data-name="Trazado 239534" d="M1651.293,697.369a1.5,1.5,0,0,0,2.082.089,1.517,1.517,0,0,0,.582-2.026l-3.082-4.345-.824-4.906a1.235,1.235,0,0,0-1.744-.823,1.815,1.815,0,0,0-1.294,1.854l.908,5.4,3.362,4.74.01.015" transform="translate(-1388.118 -577.551)" fill="#f2a488"/>
      <path id="Trazado_239535" data-name="Trazado 239535" d="M1651.276,788.532c-8.115,4.185-20.3,21.921-30.106,35.877-2.861,4.536-6.3,8.971-7.185,14.43a4.721,4.721,0,0,0,6.8,5.6c8.779-3.667,17.779-15.336,24.3-22.418,7.476-8.556,9.871-13.6,16.551-22.8,6.3-8.746,4.378-18.284-10.358-10.685" transform="translate(-1360.13 -662.256)" fill="#f2a488"/>
      <path id="Trazado_239536" data-name="Trazado 239536" d="M1659.6,831.646c5.545-5.182,10.767-11.679,14.989-16.311,7.794-9.006,10.293-14.312,17.258-23.995,6.571-9.2,4.571-19.238-10.787-11.236-8.458,4.407-21.167,23.073-31.388,37.76-.326.522-.66,1.043-1,1.565Z" transform="translate(-1389.536 -655.028)" fill="#91bbe5"/>
      <path id="Trazado_239537" data-name="Trazado 239537" d="M1602.059,836.788c8.453-14.96,10.445-31.782,12.433-48.705a18.5,18.5,0,0,0-1.068-8.169c-.877-1.573-3.5,1.619-4.12,2.1-4.451,5.6-6.921,12.458-9.624,19.045-3.74,9.968-8.544,19.119-9.815,30.535-.719,6.461,9.746,11.183,12.2,5.191" transform="translate(-1339.937 -656.961)" fill="#f2a488"/>
      <path id="Trazado_239538" data-name="Trazado 239538" d="M1441.221,1195.351c-5.924,22.732-4.1,73.925-4.271,97.463-.031,4.172,14.824,3.864,15.2.774,1.575-12.881,9.085-34.528,9.829-52.233.767-18.278-.267-29.135,1.054-40.94,1.433-12.8-18.089-19.355-21.814-5.063" transform="translate(-1210.974 -1000.654)" fill="#3376bc"/>
      <path id="Trazado_239539" data-name="Trazado 239539" d="M1552.761,1180.787c-19.05-6.27-52.923-3.449-71.908-3.271-7.7.072-11.834,2.306-14.152,8.172-1.822,4.61,3.207,9.226,7.962,10.095,18.677,3.413,56,10.389,74.728,13.537,19.783,3.326,22.458-22.25,3.371-28.533" transform="translate(-1235.84 -991.769)" fill="#3376bc"/>
      <path id="Trazado_239540" data-name="Trazado 239540" d="M1537.505,1278.377c.6,23.532,10.81,73.762,15.181,96.655,1.478,7.739,16.026,2.4,15.669-.7-1.934-16.749,2.816-40.6-1.846-59.219-5.11-20.409-3.873-25.31-7.811-36.153-4.359-12-21.521-13.419-21.193-.587" transform="translate(-1295.834 -1069.825)" fill="#3376bc"/>
      <path id="Trazado_239541" data-name="Trazado 239541" d="M1636.9,1173.7c-20.688,3.6-62.539,8.349-82.791,14.155-9.632,2.762-2.552,19.772,2.081,22.1,19.08,9.6,62.917,3.472,85-1.437,8.176-1.818,13.61-10.057,13.245-19.157-.33-9.79-8.682-17.2-17.535-15.663" transform="translate(-1305.791 -989.042)" fill="#3376bc"/>
      <path id="Trazado_239542" data-name="Trazado 239542" d="M1850.684,813.643c-16.273,2.437-31.309-4.855-29.942-10.6,5.966-25.073-8.725-31.662-10.4-46.538a32.165,32.165,0,0,1,4.495-20.379c.264-.444.542-.881.829-1.315a40.136,40.136,0,0,1,13.069-12.182,12.173,12.173,0,0,1,1.3-.672,13.108,13.108,0,0,1,5.009-1.133h.011l.143,0a13.861,13.861,0,0,1,14.02,11.507c2.838,16.133,14.036,53.19,23.6,67.2,5.352,7.844-4.178,11.425-22.129,14.114" transform="translate(-1525.613 -607.518)" fill="#91bbe5"/>
      <path id="Trazado_239543" data-name="Trazado 239543" d="M1626.5,1179.748c-13.138-.621-24.962,2.351-36.567,7.19-10.251,4.274-16.365,4.063-23.895,8.174-5.2,3.532-5.277,4.187.807,5.646,8.279,1.133,16.658-.112,24.917-1.02,12.272-1.681,24.587-3.491,36.651-6.6,7.264-1.913,5.475-14.259-1.914-13.387" transform="translate(-1316.66 -994.244)" fill="#f2a488"/>
      <path id="Trazado_239544" data-name="Trazado 239544" d="M1929.715,738.872a435.666,435.666,0,0,0-.231,54.1c.6,5.643.663,11.582,3.512,16.694a5,5,0,0,0,9.319.177c4.87-8.77,4.69-24.431,5.443-34.559.586-12.01,2.935-24.272.531-36.062-2.676-13.119-17.665-11.677-18.574-.354" transform="translate(-1625.591 -615.155)" fill="#f2a488"/>
      <path id="Trazado_239545" data-name="Trazado 239545" d="M1533.93,1265.054a27.188,27.188,0,0,0-2.544,2.384c-.4.422-.8.852-1.187,1.293s-.761.9-1.163,1.321a13.5,13.5,0,0,0-2.348,2.616,6.979,6.979,0,0,0-.691,1.877,3.844,3.844,0,0,0,.145,1.518,9.592,9.592,0,0,0,.363,1.1,14.7,14.7,0,0,0,.651,1.441,3.747,3.747,0,0,0,1.086,1.281,13.914,13.914,0,0,0,1.3.854,8.932,8.932,0,0,0,1.007.514,3.487,3.487,0,0,0,1.434.345,6.413,6.413,0,0,0,1.886-.468,13.219,13.219,0,0,0,2.807-2.075c.457-.359.947-.678,1.414-1.024s.934-.693,1.39-1.053a27.183,27.183,0,0,0,2.61-2.307c1.843-1.9,1.436-5.528-.91-8.1-2.2-2.414-5.347-3.026-7.247-1.518" transform="translate(-1286.116 -1065.52)" fill="#f2a488"/>
      <path id="Trazado_239546" data-name="Trazado 239546" d="M1525.8,1268.506l-5.381,2.063-.3.116-.092.075-2.872,2.334a1.5,1.5,0,0,0,.058,2.061,1.46,1.46,0,0,0,1.977.5l2.872-2.335-.395.191,6.015-.565c1.1-.1,1.669-1.2,1.266-2.457a2.881,2.881,0,0,0-2.724-2.082,1.664,1.664,0,0,0-.423.1" transform="translate(-1278.361 -1069.031)" fill="#f2a488"/>
      <path id="Trazado_239547" data-name="Trazado 239547" d="M1490.877,1308.52a1.408,1.408,0,0,0,.116-1.85,1.63,1.63,0,0,0-1.959-.838l-5.258,2.615-4.846,4.741a1.569,1.569,0,0,0,.2,2.09,1.391,1.391,0,0,0,1.968.356l4.634-4.534,4.992-2.482a.937.937,0,0,0,.157-.1" transform="translate(-1246.203 -1100.489)" fill="#f2a488"/>
      <path id="Trazado_239548" data-name="Trazado 239548" d="M1487.909,1332.926a.95.95,0,0,0,.095-.084l5.256-5.3,4.617-3.278a1.449,1.449,0,0,0,.039-2.034,1.508,1.508,0,0,0-1.978-.6l-4.749,3.372-.057.058-5.313,5.361a1.581,1.581,0,0,0,.219,2.095,1.43,1.43,0,0,0,1.871.415" transform="translate(-1252.017 -1113.736)" fill="#f2a488"/>
      <path id="Trazado_239549" data-name="Trazado 239549" d="M1507.022,1341.849l4.988-4.461a1.535,1.535,0,0,0-.129-2.077,1.424,1.424,0,0,0-1.974-.427l-4.882,4.366-4.578,2.985a1.419,1.419,0,0,0-.1,2.014,1.539,1.539,0,0,0,1.976.662Z" transform="translate(-1264.216 -1124.855)" fill="#f2a488"/>
      <path id="Trazado_239550" data-name="Trazado 239550" d="M1531.483,1353.329a1.021,1.021,0,0,0,.084-.073l7.029-6.869a1.569,1.569,0,0,0-.2-2.091,1.394,1.394,0,0,0-1.969-.357l-7.029,6.869a1.569,1.569,0,0,0,.195,2.09,1.437,1.437,0,0,0,1.885.43" transform="translate(-1288.742 -1132.464)" fill="#f2a488"/>
      <path id="Trazado_239551" data-name="Trazado 239551" d="M1855.059,720.33c-3.09.322-9.158,14.83-12.322,18.453-7.129,8.165-10.714,1.146-7.886-3.15,5.182-7.874,13.121-16.424,20.208-15.3" transform="translate(-1545.63 -607.023)" fill="#f2a488"/>
      <path id="Trazado_239552" data-name="Trazado 239552" d="M1924.094,737.639a404.5,404.5,0,0,0-.019,54.432q.056.462.106.926l18.337.934c.869-6.829.985-14.029,1.408-19.577.587-12.081,3.1-24.407.423-36.279-2.974-13.21-19.312-11.824-20.256-.436" transform="translate(-1620.881 -614.101)" fill="#91bbe5"/>
      <path id="Trazado_239553" data-name="Trazado 239553" d="M1320.341,1884.482c-3.017,4.51-11.638,2.279-19.835,6.68-9.606,5.157-23.3-3.043-19.767-8.7,1.948-3.12,19.788-6.551,19.744-6.5-5.133,6.005,18.452,2.49,19.845-5.256.5-2.78,2.823,9.573.014,13.772" transform="translate(-1078.951 -1576.328)" fill="#91bbe5"/>
      <path id="Trazado_239554" data-name="Trazado 239554" d="M1945.115,810.464l-19.025-.969.009-26.029c-1.652-34.4,5.887-35.634,6.209-35.67l.08.72c-.064.01-7.17,1.505-5.565,34.932l-.008,25.358,17.648.9c1.658-16.6,2.206-43.542,2.211-43.814l.725.014c-.005.274-.562,27.614-2.25,44.216Z" transform="translate(-1623.152 -630.255)" fill="#3376bc"/>
      <path id="Trazado_239555" data-name="Trazado 239555" d="M1811.526,913.585l-6.411-12.722a16.417,16.417,0,0,1-3.508-12.432,22.145,22.145,0,0,1,1.6-6.383l.66.3c-.047.1-4.635,10.451,1.828,18.08l.028.033.019.038,6.43,12.761Z" transform="translate(-1518.34 -743.405)" fill="#3376bc"/>
      <path id="Trazado_239556" data-name="Trazado 239556" d="M1833.921,785.937c-1.66-.084-2.79-.618-3.364-1.591-1.267-2.147.741-5.573.828-5.718l.623.37c-.019.032-1.876,3.2-.826,4.98.521.882,1.715,1.3,3.549,1.24,6.862-.219,10.62-13.619,10.657-13.754l.7.192c-.157.574-3.943,14.051-11.333,14.287q-.436.014-.832-.006" transform="translate(-1542.474 -650.204)" fill="#3376bc"/>
      <path id="Trazado_239557" data-name="Trazado 239557" d="M1694.886,1043.912l-4.339-4.853.54-.483,3.807,4.258,13.3-14.432.533.491Z" transform="translate(-1424.824 -866.755)" fill="#3376bc"/>
      <path id="Trazado_239558" data-name="Trazado 239558" d="M1302.708,1941.83a19.532,19.532,0,0,1-8.321-2.06l.351-.634c5.474,3.032,14.346,2.057,17.663.89a18.592,18.592,0,0,0,2.578-1.179,13.711,13.711,0,0,1,7.928-1.826c5.713.118,9.7-5.938,9.741-6l.608.394c-.171.264-4.252,6.456-10.365,6.33a13.1,13.1,0,0,0-7.577,1.743,19.16,19.16,0,0,1-2.674,1.221,29.123,29.123,0,0,1-9.934,1.12" transform="translate(-1090.933 -1627.5)" fill="#3376bc"/>
      <path id="Trazado_239559" data-name="Trazado 239559" d="M1406.439,1878.168c-1.592-.081-2.565-.483-2.954-1.214-.577-1.085.458-2.357.5-2.411l.559.461c-.008.01-.766.965-.421,1.611.23.431,1.161,1.1,4.816.742,7.685-.75,12.632-4.074,13.945-5.993,1.105-1.615,1.013-2.1,1.013-2.108a.213.213,0,0,0,.04.073l.578-.437c.184.244.294.942-1.032,2.881-1.387,2.027-6.543,5.531-14.473,6.306a17.635,17.635,0,0,1-2.573.089" transform="translate(-1182.737 -1575.136)" fill="#3376bc"/>
      <path id="Trazado_239560" data-name="Trazado 239560" d="M1372.77,1924.951a4.869,4.869,0,0,0-3.516-3.616l.173-.7a5.6,5.6,0,0,1,4.056,4.19Z" transform="translate(-1154.032 -1618.743)" fill="#3376bc"/>
      <path id="Trazado_239561" data-name="Trazado 239561" d="M1359.008,1932.728a3.719,3.719,0,0,0-2.136-2.98l.274-.671a4.446,4.446,0,0,1,2.583,3.574Z" transform="translate(-1143.596 -1625.86)" fill="#3376bc"/>
      <path id="Trazado_239562" data-name="Trazado 239562" d="M1338.775,1939.54l-.669-.278c.636-1.528-1.829-3.1-1.854-3.115l.386-.614c.123.077,3.006,1.92,2.137,4.007" transform="translate(-1126.217 -1631.301)" fill="#3376bc"/>
      <path id="Trazado_239563" data-name="Trazado 239563" d="M1530.587,2020.42a26.809,26.809,0,0,1-6.185-1.1l.2-.7c10.1,2.963,15.391-.873,16.772-2.119,1.562-1.411,4.725-3.357,10.925-4.619,6.084-1.239,7.059-7.5,7.1-7.761l.717.1c-.01.07-1.08,7.027-7.671,8.368-6.039,1.229-9.089,3.1-10.584,4.447-1.132,1.022-4.762,3.707-11.276,3.375" transform="translate(-1284.794 -1689.115)" fill="#3376bc"/>
      <path id="Trazado_239564" data-name="Trazado 239564" d="M1618.332,1964.2c-2.294-.117-3.772-.7-4.4-1.74a2.7,2.7,0,0,1,0-2.541l.636.348a2.006,2.006,0,0,0-.015,1.822c.417.681,1.644,1.478,5.123,1.4a13.745,13.745,0,0,0,11.651-6.683c.9-1.9,1.369-3.35,1.262-3.889l.711-.143c.146.728-.3,2.188-1.317,4.342a14.43,14.43,0,0,1-12.291,7.1q-.721.015-1.36-.017" transform="translate(-1359.974 -1645.838)" fill="#3376bc"/>
      <path id="Trazado_239565" data-name="Trazado 239565" d="M1588.514,2023.149c-.2-1.7-3.15-3.723-4.272-4.357l.357-.631c.177.1,4.356,2.486,4.635,4.9Z" transform="translate(-1335.228 -1700.943)" fill="#3376bc"/>
      <path id="Trazado_239566" data-name="Trazado 239566" d="M1574.032,2035.908a6.8,6.8,0,0,0-3.57-3.9l.28-.668a7.418,7.418,0,0,1,3.985,4.369Z" transform="translate(-1323.613 -1712.047)" fill="#3376bc"/>
      <path id="Trazado_239567" data-name="Trazado 239567" d="M1554.916,2048.551l-.721-.073c.136-1.328-1.708-2.814-2.43-3.274l.39-.612c.121.078,2.969,1.919,2.761,3.959" transform="translate(-1307.856 -1723.219)" fill="#3376bc"/>
      <rect id="Rectángulo_216985" data-name="Rectángulo 216985" width="0.725" height="38.726" transform="translate(240.473 221.046) rotate(-10.936)" fill="#20495b"/>
      <path id="Trazado_239568" data-name="Trazado 239568" d="M1539.972,1237.86l-.715-.119c.4-2.41,6.083-3.562,6.73-3.685l20.528-4.027.14.711-20.53,4.028c-1.621.31-5.884,1.469-6.152,3.092" transform="translate(-1297.314 -1036.691)" fill="#20495b"/>
      <path id="Trazado_239569" data-name="Trazado 239569" d="M1920.3,1263.025c-3.652-.186-6.031-1.162-11.354-3.346-.613-.252-1.267-.52-1.966-.8l.273-.672c.7.285,1.353.553,1.968.805,9.46,3.881,9.46,3.881,24.584,2.418l1.459-.141c17.213-1.66,19.957-7.657,19.982-7.717l.669.278c-.108.263-2.847,6.451-20.582,8.161l-1.458.141c-6.84.661-10.623,1.027-13.575.877" transform="translate(-1607.24 -1056.53)" fill="#20495b"/>
      <path id="Trazado_239570" data-name="Trazado 239570" d="M1770.288,1184.862l-.193-.7,12.9-3.562,6.379-1.2a41.5,41.5,0,0,1,13.657.249l-.144.71a40.706,40.706,0,0,0-13.378-.246l-6.364,1.2Z" transform="translate(-1491.869 -993.614)" fill="#dd7a5f"/>
      <path id="Trazado_239571" data-name="Trazado 239571" d="M1497.336,1334.6l-.539-.485,3.178-3.529.038-.025,3.572-2.363.4.6-3.533,2.338Z" transform="translate(-1261.528 -1119.426)" fill="#dd7a5f"/>
      <path id="Trazado_239572" data-name="Trazado 239572" d="M1500.845,1348.853l-.484-.539,4.73-4.244,3.369-3.4.515.51-3.392,3.426Z" transform="translate(-1264.531 -1129.937)" fill="#dd7a5f"/>
      <path id="Trazado_239573" data-name="Trazado 239573" d="M1530.262,1365.112l-.386-.613,2.118-1.333,3.235-2.894.483.54-3.306,2.95Z" transform="translate(-1289.408 -1146.462)" fill="#dd7a5f"/>
      <rect id="Rectángulo_216986" data-name="Rectángulo 216986" width="6.263" height="0.725" transform="translate(239.901 206.401) rotate(-34.353)" fill="#dd7a5f"/>
      <path id="Trazado_239574" data-name="Trazado 239574" d="M1602.239,1314.732l-.4-.605c.037-.025,3.72-2.474,4.969-5l.089-.18,13.081-1.311.072.721-12.684,1.271c-1.408,2.632-4.973,5-5.127,5.1" transform="translate(-1350.06 -1102.098)" fill="#dd7a5f"/>
      <path id="Trazado_239575" data-name="Trazado 239575" d="M1665.462,958.138l-.47-.552c4.718-4.024,10.456-34.136,10.513-34.439l.712.135c-.236,1.25-5.844,30.668-10.755,34.856" transform="translate(-1403.285 -778.045)" fill="#dd7a5f"/>
      <path id="Trazado_239576" data-name="Trazado 239576" d="M1730.615,717.995l-.719-.089c.253-2.038-1.244-4.849-1.259-4.877l.638-.344c.066.123,1.622,3.042,1.341,5.31" transform="translate(-1456.926 -600.664)" fill="#dd7a5f"/>
      <path id="Trazado_239577" data-name="Trazado 239577" d="M1691.233,660.795l-1.811-2.847-.349-7.271.724-.035.34,7.078,1.708,2.685Z" transform="translate(-1423.581 -548.373)" fill="#dd7a5f"/>
      <path id="Trazado_239578" data-name="Trazado 239578" d="M1673.81,664.078l-2.622-3.538-.07-7.006.725-.007.068,6.771,2.482,3.349Z" transform="translate(-1408.448 -550.804)" fill="#dd7a5f"/>
      <path id="Trazado_239579" data-name="Trazado 239579" d="M1662.847,694.586l-1.94-2.948-.928-5.964.716-.111.9,5.808,1.854,2.817Z" transform="translate(-1399.06 -577.804)" fill="#dd7a5f"/>
      <path id="Trazado_239580" data-name="Trazado 239580" d="M1721.447,530.64l-.6-.406c3.308-4.884,3.219-10.425,3.155-14.471-.012-.722-.022-1.4-.013-2.02.066-4.176,5.194-8.078,5.413-8.242l.435.579c-.051.038-5.063,3.854-5.124,7.674-.009.606,0,1.282.013,2,.066,4.142.157,9.816-3.279,14.889" transform="translate(-1450.361 -426.044)" fill="#20495b"/>
      <path id="Trazado_239581" data-name="Trazado 239581" d="M1937.439,569.013l-.678-.257a16.906,16.906,0,0,0-.23-13.5c-2.017-4.25-6.01-7.554-11.243-9.3-14.7-4.917-16.132-11.229-17.786-18.537-.869-3.842-1.768-7.815-4.616-12.132-3.795-5.753-7.052-6.848-9.669-7.728-1.661-.558-3.095-1.04-4.138-2.589l.6-.4c.906,1.345,2.169,1.77,3.767,2.307,2.579.867,6.111,2.054,10.043,8.015,2.92,4.427,3.875,8.648,4.717,12.371,1.605,7.095,2.991,13.222,17.309,18.01,5.421,1.813,9.565,5.251,11.668,9.681a17.848,17.848,0,0,1,.253,14.067" transform="translate(-1592.152 -425.253)" fill="#20495b"/>
      <path id="Trazado_239582" data-name="Trazado 239582" d="M1788.095,584.6a.815.815,0,0,1-.01-1.628l5.388-.346a.815.815,0,1,1,.1,1.627l-5.388.346a.843.843,0,0,1-.094,0" transform="translate(-1506.387 -491.049)" fill="#20495b"/>
      <path id="Trazado_239583" data-name="Trazado 239583" d="M1801.735,612.535c.294-.073.547-.146.786-.223a6.261,6.261,0,0,0,.657-.262,5.671,5.671,0,0,0,1.07-.655q.118-.1.245-.2c.083-.067.155-.151.239-.222.041-.037.083-.073.127-.109s.078-.083.118-.124c.079-.084.165-.164.253-.246.166-.173.332-.359.529-.54a4.777,4.777,0,0,1,.613-.58,3.7,3.7,0,0,1,.036.875,4.564,4.564,0,0,1-.206.842c-.058.134-.119.269-.187.4-.035.065-.065.134-.107.2s-.087.123-.133.184a3.833,3.833,0,0,1-.289.355q-.169.16-.348.312a2.96,2.96,0,0,1-1.75.627,2.218,2.218,0,0,1-1.653-.632" transform="translate(-1518.536 -513.593)" fill="#20495b"/>
      <path id="Trazado_239584" data-name="Trazado 239584" d="M1743.353,649.144c.3.011.566.01.817,0a6.266,6.266,0,0,0,.7-.07,5.675,5.675,0,0,0,1.209-.334q.142-.068.29-.125c.1-.041.191-.1.291-.147.05-.024.1-.048.152-.07s.1-.058.148-.086c.1-.059.2-.112.311-.166.208-.121.418-.254.657-.373a4.748,4.748,0,0,1,.749-.389,3.719,3.719,0,0,1-.207.851,4.608,4.608,0,0,1-.43.752c-.093.112-.189.225-.291.334-.052.053-.1.11-.157.159s-.118.094-.178.14a3.725,3.725,0,0,1-.375.262q-.207.107-.42.2a2.961,2.961,0,0,1-1.855.12,2.217,2.217,0,0,1-1.414-1.063" transform="translate(-1469.33 -545.628)" fill="#20495b"/>
      <path id="Trazado_239585" data-name="Trazado 239585" d="M1788.18,677.941a2.112,2.112,0,0,1-1.064-.342c-1.362-.888-1.463-3.179-1.467-3.275l.724-.028c0,.02.092,2.015,1.14,2.7a1.886,1.886,0,0,0,1.773.012l.267.674a3.293,3.293,0,0,1-1.373.262" transform="translate(-1504.978 -568.309)" fill="#dd7a5f"/>
      <path id="Trazado_239586" data-name="Trazado 239586" d="M1810.383,704.04a1.839,1.839,0,0,1-.224-1.275,2.9,2.9,0,0,1,.174-.631c.041-.1.091-.195.14-.293l.077-.146c.027-.045.059-.087.09-.131a3.023,3.023,0,0,1,.4-.494c.073-.074.146-.15.225-.218l.117-.105.121-.091c.163-.119.335-.228.506-.336q.264-.127.532-.247a5.529,5.529,0,0,1,1.1-.3c.185-.017.368-.038.554-.04a3.081,3.081,0,0,1,.552.012,5.057,5.057,0,0,1,1.088.231,4.25,4.25,0,0,1,1.051.55l.008.153-.969.118c-.323.038-.64.107-.959.159s-.629.147-.943.218c-.155.044-.306.1-.459.148a3.729,3.729,0,0,0-.451.166l-.442.186-.42.227a4.827,4.827,0,0,0-.767.558l-.09.077-.08.086-.161.173c-.054.057-.1.125-.144.187a1.547,1.547,0,0,0-.132.195,2.181,2.181,0,0,0-.341.864Z" transform="translate(-1525.613 -589.744)" fill="#dd7a5f"/>
      <path id="Trazado_239587" data-name="Trazado 239587" d="M1816.721,713.125a6.679,6.679,0,0,1,.9-1.253,2.562,2.562,0,0,1,1.726-.883,14.283,14.283,0,0,1,1.509-.08l.134.09a4.155,4.155,0,0,1-.795.978,4.791,4.791,0,0,1-1.043.716,5.924,5.924,0,0,1-1.182.438c-.2.047-.41.089-.618.117a5.223,5.223,0,0,1-.629.039Z" transform="translate(-1531.166 -599.166)" fill="#dd7a5f"/>
      <path id="Trazado_239588" data-name="Trazado 239588" d="M1897.015,595.431l-.335-.643c.295-.154.37-.771.336-1.363a4.569,4.569,0,0,1-2.047.493l-.006-.725c.413,0,1.669-.14,2.016-.7l.479-.768.184.886c.048.23.435,2.262-.628,2.815" transform="translate(-1597.11 -498.72)" fill="#dd7a5f"/>
      <path id="Trazado_239589" data-name="Trazado 239589" d="M511.919,643.1l-1.27,13.969-.446,4.891L497,656.985l4.458-17.659,3.37,1.216Z" transform="translate(-418.882 -538.835)" fill="#f2a488"/>
      <path id="Trazado_239590" data-name="Trazado 239590" d="M531.721,649.617l-1.27,13.969c-.248-.141-.509-.292-.787-.451C524.33,660.067,520.5,651.1,520.5,651.1l4.135-4.039Z" transform="translate(-438.684 -545.355)" fill="#dd7a5f"/>
      <path id="Trazado_239591" data-name="Trazado 239591" d="M565.724,772.8c7.891,4.592,19.162,22.925,28.241,37.362,2.626,4.676,5.834,9.28,6.442,14.777a4.721,4.721,0,0,1-7.078,5.242c-8.581-4.109-16.976-16.221-23.123-23.625-7.031-8.926-9.167-14.083-15.37-23.612-5.849-9.055-3.442-18.483,10.888-10.144" transform="translate(-465.13 -648.606)" fill="#d36697"/>
      <path id="Trazado_239592" data-name="Trazado 239592" d="M793.95,908.4c9.85-14.079,24.167-23.133,38.578-32.227a18.494,18.494,0,0,1,7.831-2.56c1.8.113.048,3.855-.12,4.624-3.133,6.431-8.253,11.618-13.031,16.9-7.38,7.675-13.563,15.956-23.314,22.027-5.519,3.436-14.293-3.969-9.944-8.763" transform="translate(-668.169 -736.298)" fill="#f2a488"/>
      <path id="Trazado_239593" data-name="Trazado 239593" d="M1059.878,857.29a30.012,30.012,0,0,1,3.667-.281c.613-.014,1.227-.019,1.841-.008s1.23.042,1.843.029a14.617,14.617,0,0,1,3.684.024,6.91,6.91,0,0,1,1.885.762,3.525,3.525,0,0,1,.986,1.144,8.7,8.7,0,0,1,.519,1.023,13.482,13.482,0,0,1,.544,1.47,3.6,3.6,0,0,1,.1,1.688,14.285,14.285,0,0,1-.372,1.553,9.425,9.425,0,0,1-.4,1.106,3.886,3.886,0,0,1-.846,1.31,7.492,7.492,0,0,1-1.779,1.094,14.888,14.888,0,0,1-3.644.689c-.608.1-1.213.248-1.821.362s-1.215.228-1.823.324a30.116,30.116,0,0,1-3.661.383c-2.783.084-5.093-2.694-5.16-6.205-.063-3.3,1.9-6.072,4.438-6.467" transform="translate(-889.543 -722.221)" fill="#f2a488"/>
      <path id="Trazado_239594" data-name="Trazado 239594" d="M1078.076,836.378c.518-.148,1.026-.323,1.535-.5s1.013-.364,1.515-.56,1-.4,1.5-.6l1.49-.633.192-.081.02,0,1.225-.289c.406-.109.815-.205,1.218-.326s.809-.238,1.211-.366.8-.269,1.2-.432a1.276,1.276,0,0,1,1.653,1.058,1.775,1.775,0,0,1-.839,2.085,1.162,1.162,0,0,1-.227.066c-.413.072-.82.174-1.227.274s-.812.217-1.216.34-.806.254-1.208.381l-1.2.418.211-.086-1.4.9c-.464.311-.931.61-1.391.933s-.921.641-1.378.971-.911.671-1.358,1.034a1.77,1.77,0,0,1-2.764-.757,2.943,2.943,0,0,1,.6-3.488,1.839,1.839,0,0,1,.641-.339" transform="translate(-907.308 -701.653)" fill="#f2a488"/>
      <path id="Trazado_239595" data-name="Trazado 239595" d="M1129.922,839.759a1.5,1.5,0,0,1-1.3-1.6,1.529,1.529,0,0,1,1.269-1.691l5.857-.2,5.884-4.049a1.179,1.179,0,0,1,1.771.657,1.887,1.887,0,0,1-.521,2.234l-6.434,4.429-6.484.225h-.037" transform="translate(-951.22 -701.234)" fill="#f2a488"/>
      <path id="Trazado_239596" data-name="Trazado 239596" d="M1142.129,853.737l-6.757-.016a1.692,1.692,0,0,1,0-3.294h0l6.111.015,7.179-4.756a1.186,1.186,0,0,1,1.762.693,1.878,1.878,0,0,1-.549,2.224Z" transform="translate(-955.814 -712.599)" fill="#f2a488"/>
      <path id="Trazado_239597" data-name="Trazado 239597" d="M1135.908,874.2a1.486,1.486,0,0,1-1.3-1.565,1.548,1.548,0,0,1,1.239-1.726l6.61-.413,5.522-3.822a1.178,1.178,0,0,1,1.772.652,1.888,1.888,0,0,1-.517,2.236l-6.049,4.186-7.209.451-.066,0" transform="translate(-956.265 -730.278)" fill="#f2a488"/>
      <path id="Trazado_239598" data-name="Trazado 239598" d="M1132.568,900.685a1.5,1.5,0,0,1-1.3-1.625,1.517,1.517,0,0,1,1.287-1.669l5.326-.09,4.441-2.242a1.234,1.234,0,0,1,1.7.918,1.815,1.815,0,0,1-.727,2.141l-4.891,2.468-5.811.1h-.018" transform="translate(-953.45 -754.273)" fill="#f2a488"/>
      <path id="Trazado_239599" data-name="Trazado 239599" d="M823,914.944c-12.238,7.866-24.466,16.542-32.9,28.6-4.349,4.794,3.386,12.172,9.179,9.221,10.54-5.368,17.218-15.117,24.6-22.791,1.558-1.723,3.154-3.436,4.7-5.185Z" transform="translate(-664.838 -771.131)" fill="#d36697"/>
      <path id="Trazado_239600" data-name="Trazado 239600" d="M432.783,436.208a10.257,10.257,0,1,1-1.53-14.4,10.242,10.242,0,0,1,1.53,14.4" transform="translate(-349.406 -353.572)" fill="#0c2333"/>
      <path id="Trazado_239601" data-name="Trazado 239601" d="M485.323,464.993a18.5,18.5,0,1,1-18.5-18.5,18.5,18.5,0,0,1,18.5,18.5" transform="translate(-377.855 -376.312)" fill="#0c2333"/>
      <path id="Trazado_239602" data-name="Trazado 239602" d="M898.692,1246.272c-3.818,23.179-27.11,68.211-35.924,90.037-2.98,7.378-14.108-1.858-13.2-4.834,3.792-12.411,4.959-35.113,11.47-51.594,6.722-17.015,12.076-26.516,15.663-37.84,3.891-12.283,24.391-10.342,21.99,4.232" transform="translate(-715.988 -1039.997)" fill="#f2a488"/>
      <path id="Trazado_239603" data-name="Trazado 239603" d="M540.947,1203.828c19.344-5.293,53.03-.751,71.981.391,7.689.464,11.7,2.9,13.718,8.882,1.585,4.7-3.672,9.051-8.465,9.677-18.826,2.458-56.461,7.526-75.32,9.717-19.927,2.315-21.3-23.364-1.915-28.667" transform="translate(-444.281 -1012.491)" fill="#dd7a5f"/>
      <path id="Trazado_239604" data-name="Trazado 239604" d="M978.93,1310.06c8.474,21.962,18.321,72.264,23.068,95.082,1.6,7.713-12.369,5.617-13.226,2.621-4.641-16.209-19.69-33.665-22.528-52.646-3.112-20.808-6.135-24.859-6.659-36.383-.579-12.753,14.724-20.65,19.345-8.674" transform="translate(-808.742 -1099.156)" fill="#f2a488"/>
      <path id="Trazado_239605" data-name="Trazado 239605" d="M427.573,1183.159c20.478,4.652,62.034,11.52,81.963,18.349,9.479,3.248,1.543,19.876-3.2,21.967-19.544,8.614-63.012.266-84.816-5.76-8.073-2.231-13.081-10.736-12.253-19.806.828-9.76,9.546-16.741,18.309-14.75" transform="translate(-344.86 -996.901)" fill="#f2a488"/>
      <path id="Trazado_239606" data-name="Trazado 239606" d="M848.143,1864.819c-2.243,4.873-16.649,3.822-20.627-.837-6.128-7.18-14.8-11.217-14.386-16.706a18.118,18.118,0,0,1,5.579-11.778c4.01-3.706,9.175-4.478,12.021.093,2.524,4.053,1.424,12.929,3.659,17.744a6.417,6.417,0,0,0,1.234,1.844c3.867,3.914,13.9,6.64,12.52,9.64" transform="translate(-685.309 -1544.41)" fill="#f2a488"/>
      <path id="Trazado_239607" data-name="Trazado 239607" d="M1157.589,1947.666c-8.894-3.16-18.425-2.325-20.806-7.288a18.874,18.874,0,0,1-1.732-10.294v0c.788-6.658,5.242-11.483,10.76-8.535,4.833,2.582,9.086,12.971,14.4,14.44l.007,0c5.3,1.461,15.359-1.19,15.662,2.1.489,5.342-12.516,11.626-18.289,9.577" transform="translate(-956.537 -1618.769)" fill="#f2a488"/>
      <path id="Trazado_239608" data-name="Trazado 239608" d="M426.108,833.953c-9.441-1-19.592-8.006-17.193-17.193,4.287-16.412,2.76-49.379,0-65.526a13.9,13.9,0,0,1,14.574-16.222,12.468,12.468,0,0,1,1.452.2,40.119,40.119,0,0,1,16.406,7.073,32.3,32.3,0,0,1,12.317,18.635c3.428,14.573-7.544,38.4,6.514,60.007,3.22,4.947-28.2,13.654-34.071,13.031" transform="translate(-344.341 -619.448)" fill="#d36697"/>
      <path id="Trazado_239609" data-name="Trazado 239609" d="M495.93,1210.727c-5.01,2.668-8.7-5.617-23.195-.363-18.574,6.733-53.275-4.53-61.792-15.584-11.5-14.921,3.632-33.82,3.632-33.82s32.5-3.6,38.408,3.559c5.98,7.248,54.312-9.118,69.583,8.7,10.872,12.684-12.684,30.08-26.637,37.51" transform="translate(-342.717 -977.714)" fill="#d36697"/>
      <path id="Trazado_239610" data-name="Trazado 239610" d="M520.255,510.146c1.035,9.131-7.04,16.533-11.969,15.878-7.129-.947-18.342-11.891-17.016-23.153,1.107-9.4,5.92-15.681,15.059-14.466,12.105,1.609,12.591,9.955,13.927,21.741" transform="translate(-413.961 -411.51)" fill="#f2a488"/>
      <path id="Trazado_239611" data-name="Trazado 239611" d="M480.908,490.2c-5.71,4.832-3.3,15.552-6.172,13.716s-5.677-18.819.857-22.46c12-6.686,29.538.208,25.546,4.286-7.887,8.058-13.544-1.2-20.231,4.458" transform="translate(-397.473 -403.422)" fill="#0c2333"/>
      <path id="Trazado_239612" data-name="Trazado 239612" d="M489.338,601.132a3.258,3.258,0,1,1-3.258-3.258,3.258,3.258,0,0,1,3.258,3.258" transform="translate(-406.932 -503.899)" fill="#f2a488"/>
      <path id="Trazado_239613" data-name="Trazado 239613" d="M517.366,743.394c.847,2.311,4.764,9.334,2.718,9.423-4.989.217-20.367-17.512-19.389-17.577,5.436-.362,14.678,2.718,16.671,8.154" transform="translate(-421.957 -619.649)" fill="#f2a488"/>
      <path id="Trazado_239614" data-name="Trazado 239614" d="M586.614,1237.693l-20.32-16.464c-.634-.514-.435-1.2.445-1.541l36.932-14.165a3.065,3.065,0,0,1,2.741.319l20.32,16.464c.634.514.435,1.2-.445,1.541l-36.932,14.165a3.065,3.065,0,0,1-2.741-.319" transform="translate(-476.971 -1015.882)" fill="#0c2333"/>
      <path id="Trazado_239615" data-name="Trazado 239615" d="M619.8,1252.961c-6.847-6.067-13.377-11.595-18.8-15.231,10.936-3.649,21.878-7.889,32.824-12.589l18.8,15.231Z" transform="translate(-506.533 -1032.571)" fill="#fff"/>
      <path id="Trazado_239616" data-name="Trazado 239616" d="M840.232,1246.1l-8.44-6.839c-.481-.39-.33-.913.338-1.169l1.831-.7a.716.716,0,0,1,.64.075l9.646,7.816c.148.12.1.281-.1.36l-1.832.7a2.325,2.325,0,0,1-2.08-.242" transform="translate(-700.813 -1042.855)" fill="#dd7a5f"/>
      <path id="Trazado_239617" data-name="Trazado 239617" d="M804.471,1258.592l-14-11.344,1.176-.451,14,11.344Z" transform="translate(-666.223 -1050.823)" fill="#91bbe5"/>
      <path id="Trazado_239618" data-name="Trazado 239618" d="M780.639,1263.408,770.262,1255l1.176-.451,10.378,8.409Z" transform="translate(-649.19 -1057.356)" fill="#91bbe5"/>
      <path id="Trazado_239619" data-name="Trazado 239619" d="M764.053,1274.094l-14-11.344,1.177-.451,14,11.344Z" transform="translate(-632.158 -1063.888)" fill="#91bbe5"/>
      <path id="Trazado_239620" data-name="Trazado 239620" d="M743.1,1282.132l-14-11.344,1.176-.451,14,11.344Z" transform="translate(-614.495 -1070.662)" fill="#91bbe5"/>
      <path id="Trazado_239621" data-name="Trazado 239621" d="M721.285,1287.692l-11.65-9.44,1.176-.451,11.651,9.44Z" transform="translate(-598.093 -1076.953)" fill="#91bbe5"/>
      <path id="Trazado_239622" data-name="Trazado 239622" d="M266.343,1161.934c13.152-.1,24.848,3.344,36.251,8.641,10.073,4.679,16.19,4.712,23.55,9.12,5.054,3.737,5.106,4.394-1.032,5.609-8.317.8-16.641-.776-24.857-2.013-12.2-2.168-24.428-4.468-36.358-8.058-7.181-2.2-4.9-14.466,2.446-13.3" transform="translate(-218.736 -979.233)" fill="#f2a488"/>
      <path id="Trazado_239623" data-name="Trazado 239623" d="M300.333,762.019a435.657,435.657,0,0,1-22.5,49.2c-2.917,4.868-5.464,10.233-10.2,13.677a5,5,0,0,1-8.533-3.751c-.738-10,6-24.143,9.568-33.651,4.51-11.147,7.526-23.262,14.657-32.953,7.935-10.784,20.934-3.183,17.007,7.477" transform="translate(-218.328 -631.537)" fill="#d36697"/>
      <path id="Trazado_239624" data-name="Trazado 239624" d="M638.56,1239.024a27.13,27.13,0,0,1,3.471.335c.577.088,1.153.187,1.729.3s1.151.246,1.727.337a13.481,13.481,0,0,1,3.456.639,6.979,6.979,0,0,1,1.693,1.065,3.842,3.842,0,0,1,.811,1.291,9.618,9.618,0,0,1,.385,1.093,14.687,14.687,0,0,1,.364,1.539,3.752,3.752,0,0,1-.078,1.678,13.968,13.968,0,0,1-.5,1.467,8.953,8.953,0,0,1-.484,1.023,3.482,3.482,0,0,1-.925,1.148,6.407,6.407,0,0,1-1.78.781,13.216,13.216,0,0,1-3.49.07c-.581,0-1.164.041-1.746.052s-1.163.022-1.744.015a27.136,27.136,0,0,1-3.475-.234c-2.621-.381-4.512-3.5-4.224-6.971.271-3.257,2.388-5.661,4.813-5.627" transform="translate(-534.109 -1044.272)" fill="#f2a488"/>
      <path id="Trazado_239625" data-name="Trazado 239625" d="M658.339,1227.917l5.521-1.651.311-.093.118,0,3.7.1a1.5,1.5,0,0,1,1.212,1.668c-.013.9-.578,1.621-1.26,1.6l-3.7-.1.429-.09-5.109,3.225c-.936.591-2.056.066-2.5-1.173a2.882,2.882,0,0,1,.886-3.312,1.673,1.673,0,0,1,.394-.181" transform="translate(-553.626 -1033.441)" fill="#f2a488"/>
      <path id="Trazado_239626" data-name="Trazado 239626" d="M706.723,1246.1a1.407,1.407,0,0,1-1.221-1.395,1.629,1.629,0,0,1,1.04-1.86l5.76-1.138,6.732.8a1.569,1.569,0,0,1,1.121,1.775c-.061.9-.661,1.566-1.342,1.484l-6.438-.762-5.469,1.081a.932.932,0,0,1-.184.018" transform="translate(-594.598 -1046.53)" fill="#f2a488"/>
      <path id="Trazado_239627" data-name="Trazado 239627" d="M723.414,1268.834a.937.937,0,0,1-.126-.008l-7.4-.992-5.658.222c-.687.023-1.252-.684-1.272-1.587a1.509,1.509,0,0,1,1.2-1.684l5.82-.229.08.011,7.481,1a1.581,1.581,0,0,1,1.105,1.792,1.43,1.43,0,0,1-1.229,1.471" transform="translate(-597.521 -1065.79)" fill="#f2a488"/>
      <path id="Trazado_239628" data-name="Trazado 239628" d="M715.518,1287.406l-6.674-.489a1.534,1.534,0,0,1-1.166-1.724c.038-.9.619-1.592,1.3-1.543l6.532.478,5.448-.431c.684-.054,1.267.634,1.308,1.536a1.539,1.539,0,0,1-1.16,1.731Z" transform="translate(-596.442 -1081.881)" fill="#f2a488"/>
      <path id="Trazado_239629" data-name="Trazado 239629" d="M713.955,1303.1a.944.944,0,0,1-.111-.007l-9.76-1.149a1.569,1.569,0,0,1-1.122-1.775c.06-.9.663-1.564,1.341-1.484l9.76,1.149a1.569,1.569,0,0,1,1.122,1.775,1.437,1.437,0,0,1-1.23,1.491" transform="translate(-592.465 -1094.548)" fill="#f2a488"/>
      <path id="Trazado_239630" data-name="Trazado 239630" d="M311.507,1173.633c-14.022-6.536-28.34-12.336-44.582-11.718-7.348-1.167-9.37,10.389-2.445,13.3,14.586,5.852,29.836,7.361,45.12,9.565Z" transform="translate(-219.319 -979.213)" fill="#d36697"/>
      <path id="Trazado_239631" data-name="Trazado 239631" d="M846.4,1879.563c-2.294,4.983-17.026,3.908-21.094-.856-6.267-7.342-15.136-11.471-14.712-17.084a18.857,18.857,0,0,1,6.068-12.045c.58.61.272,18.365,10.4,20.685a4.767,4.767,0,0,0,5.276-2.445c2.31,5.411,15.627,8.118,14.065,11.745" transform="translate(-683.175 -1558.858)" fill="#0c2333"/>
      <path id="Trazado_239632" data-name="Trazado 239632" d="M1155.336,1977.391c-9.128-3.244-18.91-2.386-21.354-7.48-1.679-3.5-2.837-10.772-.42-14.306,0,0,11.545,16.366,21.216,14.32,3.13-.662,3.788-2.43,3.247-4.521l.008,0c5.444,1.5,15.764-1.222,16.074,2.156.5,5.483-12.846,11.932-18.771,9.829" transform="translate(-954.223 -1648.219)" fill="#0c2333"/>
      <path id="Trazado_239633" data-name="Trazado 239633" d="M426.175,796.385l-.656-.308,8.2-17.474c4.345-9.288,5.295-16.659,2.822-21.909a11.455,11.455,0,0,0-6.787-6.035l.18-.7a11.974,11.974,0,0,1,7.255,6.414c2.578,5.455,1.631,13.039-2.815,22.541Z" transform="translate(-358.635 -632.077)" fill="#a3215c"/>
      <path id="Trazado_239634" data-name="Trazado 239634" d="M652.085,842.731l-.684-.24c.042-.119,4.131-11.938.89-17.406-3.343-5.639-8.316-18.179-8.366-18.3l.674-.267c.05.126,5,12.613,8.315,18.2,3.414,5.759-.655,17.519-.829,18.016" transform="translate(-542.712 -679.743)" fill="#a3215c"/>
      <path id="Trazado_239635" data-name="Trazado 239635" d="M518.84,752.285a.843.843,0,0,1-.229-.031c-9.012-1.749-19.176-17.078-19.6-17.73l.606-.4c.1.157,10.439,15.748,19.155,17.42l.048.013a.135.135,0,0,0,.136-.053c.175-.211.833-1.717-3.4-10.679l.655-.31c3.152,6.667,4.226,10.422,3.284,11.478a.85.85,0,0,1-.647.29" transform="translate(-420.571 -618.734)" fill="#a3215c"/>
      <path id="Trazado_239636" data-name="Trazado 239636" d="M435.121,1194.75l-.34-.039c-.864-.1-21.2-2.436-25.985-4.587l.3-.661c4.348,1.957,22.693,4.167,25.429,4.488l1.807-10.557c-6.493-3.657-25.127-9.453-25.317-9.512l.215-.692c.786.244,19.33,6.013,25.684,9.7l.218.126Z" transform="translate(-344.54 -988.785)" fill="#a3215c"/>
      <path id="Trazado_239637" data-name="Trazado 239637" d="M791.61,988.13c-1.621-4.326-10.309-17.225-10.4-17.355l.6-.405c.36.533,8.824,13.1,10.475,17.506Z" transform="translate(-658.421 -817.845)" fill="#a3215c"/>
      <path id="Trazado_239638" data-name="Trazado 239638" d="M948.794,922.152l-5.386-9.5-11.16,7.758-.414-.6,11.812-8.212,5.778,10.187Z" transform="translate(-785.367 -768.319)" fill="#a3215c"/>
      <path id="Trazado_239639" data-name="Trazado 239639" d="M341.833,1151.806l-.279-.669c.966-.4,3.768-5.711,5.307-8.962l.655.31c-.685,1.446-4.177,8.691-5.683,9.32" transform="translate(-287.868 -962.645)" fill="#a3215c"/>
      <path id="Trazado_239640" data-name="Trazado 239640" d="M633.383,1180.555l-.153-.709a12.4,12.4,0,0,0,9-8.219l.7.193a13.175,13.175,0,0,1-9.542,8.735" transform="translate(-533.698 -987.468)" fill="#a3215c"/>
      <path id="Trazado_239641" data-name="Trazado 239641" d="M911.889,1261.965c-6.062-4.295-24.887-7.021-25.076-7.048l.1-.717c.781.111,19.187,2.778,25.393,7.174Z" transform="translate(-747.422 -1057.062)" fill="#a3215c"/>
      <path id="Trazado_239642" data-name="Trazado 239642" d="M832.656,1328.042a20.07,20.07,0,0,1-6.435-1.633c-7.085-2.73-17.888,1.386-18,1.428l-.262-.676c.453-.176,11.17-4.26,18.519-1.428,6.225,2.4,7.286,1.374,7.36,1.287l.036-.118.136-.07c13.248-6.833,20.414-14.258,24.094-19.284,3.983-5.44,4.849-9.316,4.857-9.354l.709.152c-.035.162-.892,4.031-4.948,9.586-3.716,5.088-10.943,12.6-24.282,19.494a1.144,1.144,0,0,1-.46.375,3.06,3.06,0,0,1-1.327.242" transform="translate(-680.966 -1094.14)" fill="#a3215c"/>
      <path id="Trazado_239643" data-name="Trazado 239643" d="M980.5,1521.086c-2.34-5.493-4.975-20.7-5.086-21.344l-2.914-14.161.71-.146,2.917,14.173c.029.169,2.734,15.78,5.041,21.195Z" transform="translate(-819.638 -1251.951)" fill="#dd7a5f"/>
      <rect id="Rectángulo_216987" data-name="Rectángulo 216987" width="0.725" height="10.321" transform="translate(172.827 219.26) rotate(-15.657)" fill="#dd7a5f"/>
      <path id="Trazado_239644" data-name="Trazado 239644" d="M622.994,1309.509c-8.251,0-8.711-.948-8.873-1.282l-.016-.035-5.545-.317.041-.724,6.589.376-.362.438c.3.24,2.01,1,11.393.776l.017.724c-1.2.029-2.275.042-3.245.042" transform="translate(-512.906 -1101.691)" fill="#dd7a5f"/>
      <path id="Trazado_239645" data-name="Trazado 239645" d="M694.088,1240.89l-.106-.036a30.319,30.319,0,0,0-5.175-.471l.013-.725a31.887,31.887,0,0,1,5.282.475,17.51,17.51,0,0,1,4.215-.8c.324.067,1.527.2,2.8.331,1.439.153,3.07.327,3.917.464l-.116.716c-.827-.134-2.448-.306-3.878-.458-1.347-.144-2.511-.267-2.87-.342a18.849,18.849,0,0,0-3.974.814Z" transform="translate(-580.539 -1044.517)" fill="#dd7a5f"/>
      <path id="Trazado_239646" data-name="Trazado 239646" d="M738.32,1284.812l-7.488-1-4.073.343-.061-.722,4.151-.35.039.005,7.527,1Z" transform="translate(-612.475 -1081.409)" fill="#dd7a5f"/>
      <path id="Trazado_239647" data-name="Trazado 239647" d="M732.353,1303.1l-4.348-.534h-3.937v-.725l4,0,4.37.536Z" transform="translate(-610.258 -1097.212)" fill="#dd7a5f"/>
      <path id="Trazado_239648" data-name="Trazado 239648" d="M745.395,1264.276l-7.972-1.237-3.057.15-.036-.724,3.131-.154,8.045,1.248Z" transform="translate(-618.906 -1063.899)" fill="#dd7a5f"/>
      <path id="Trazado_239649" data-name="Trazado 239649" d="M1032.167,857.443l-.361-.629,3.778-2.167c.1-.851.961-3.768,7.777-5.341l.163.706c-7.212,1.664-7.229,4.809-7.229,4.84l0,.215-.187.111Z" transform="translate(-869.625 -715.81)" fill="#dd7a5f"/>
      <path id="Trazado_239650" data-name="Trazado 239650" d="M1163.618,849.953l-.052-.723,3.637-.26,6.12-4.175.408.6-6.282,4.285Z" transform="translate(-980.675 -712.008)" fill="#dd7a5f"/>
      <path id="Trazado_239651" data-name="Trazado 239651" d="M1163.632,870.555l-.045-.723,3.171-.2,5.44-3.764.412.6-5.606,3.879Z" transform="translate(-980.692 -729.77)" fill="#dd7a5f"/>
      <path id="Trazado_239652" data-name="Trazado 239652" d="M1155.425,898.423l-.012-.724,2.745-.047,4.6-1.865.272.671-4.728,1.916Z" transform="translate(-973.803 -754.985)" fill="#dd7a5f"/>
      <path id="Trazado_239653" data-name="Trazado 239653" d="M1118.154,858.382l-.324-.648a13.689,13.689,0,0,1,6.256-1.291l2.57.032-.009.725-2.588-.033a13.194,13.194,0,0,0-5.905,1.215" transform="translate(-942.128 -721.81)" fill="#dd7a5f"/>
      <path id="Trazado_239654" data-name="Trazado 239654" d="M574.338,601.078a1.55,1.55,0,1,1-1.54-1.721,1.638,1.638,0,0,1,1.54,1.721" transform="translate(-481.466 -505.149)" fill="#183a4c"/>
      <path id="Trazado_239655" data-name="Trazado 239655" d="M641.813,589.549c0,.951-.568,1.721-1.268,1.721s-1.268-.771-1.268-1.721.568-1.721,1.268-1.721,1.268.771,1.268,1.721" transform="translate(-538.794 -495.432)" fill="#183a4c"/>
      <path id="Trazado_239656" data-name="Trazado 239656" d="M620.576,561.813a.725.725,0,0,1-.121-1.439l4.864-.831a.725.725,0,0,1,.244,1.429l-4.864.831a.73.73,0,0,1-.123.01" transform="translate(-522.422 -471.583)" fill="#20495b"/>
      <path id="Trazado_239657" data-name="Trazado 239657" d="M544.518,574.377a.725.725,0,0,1-.129-1.438l4.854-.884a.725.725,0,0,1,.26,1.426l-4.854.884a.707.707,0,0,1-.131.012" transform="translate(-458.319 -482.127)" fill="#20495b"/>
      <path id="Trazado_239658" data-name="Trazado 239658" d="M627.228,630.314l-.38-.617a2.309,2.309,0,0,0,1.328-1.755c.049-1.266-1.508-2.416-1.524-2.427l.426-.587c.077.056,1.885,1.386,1.823,3.04a2.968,2.968,0,0,1-1.672,2.346" transform="translate(-528.154 -526.7)" fill="#dd7a5f"/>
      <path id="Trazado_239659" data-name="Trazado 239659" d="M605.354,678.15c-1.419.412-2.722.152-2.938-.578a.155.155,0,0,1-.01-.03c-.188-.752.824-1.7,2.262-2.115,1.29-.373,2.483-.193,2.852.391a.7.7,0,0,1,.1.217c.188.752-.826,1.7-2.262,2.115" transform="translate(-507.7 -569.097)" fill="#dd7a5f"/>
      <path id="Trazado_239660" data-name="Trazado 239660" d="M490.558,613.881a1.167,1.167,0,0,0-1.024-1.126l-.941-.168.816-.5c.285-.174,1.745-1.012,2.451-.4l.541.469-.475.548-.541-.469c-.124-.108-.5-.033-.909.129a1.913,1.913,0,0,1,.806,1.51Z" transform="translate(-411.795 -515.356)" fill="#dd7a5f"/>
      <path id="Trazado_239661" data-name="Trazado 239661" d="M488.085,517.007c-.765-2.217.119-4.9,2.364-7.188,2.7-2.745,7.5-4.839,12.134-3.328,6.559,2.137,8.524-2.628,8.6-2.832l.675.264c-.022.056-2.279,5.611-9.5,3.257-4.342-1.415-8.851.561-11.393,3.147-2.048,2.083-2.869,4.492-2.2,6.443Z" transform="translate(-411.14 -424.493)" fill="#20495b"/>
      <path id="Trazado_239662" data-name="Trazado 239662" d="M463.536,432.019c-1.865-3.869-10.081-3.11-10.164-3.1l-.071-.721c.359-.036,8.8-.816,10.888,3.508Z" transform="translate(-382.05 -360.826)" fill="#20495b"/>
      <path id="Trazado_239663" data-name="Trazado 239663" d="M447.357,445.709c-.054-.034-5.488-3.414-9.885-.862l-.364-.627c4.782-2.775,10.4.727,10.637.877Z" transform="translate(-368.403 -373.497)" fill="#20495b"/>
      <path id="Trazado_239664" data-name="Trazado 239664" d="M431.132,481.861a7.95,7.95,0,0,1-2.564-8.807l.7.2c-1.535,5.287,2.123,7.9,2.28,8.009Z" transform="translate(-360.869 -398.697)" fill="#20495b"/>
      <path id="Trazado_239665" data-name="Trazado 239665" d="M478.216,509.3l-.7-.169c.678-2.831,6.016-7.18,10.071-6.474a14.576,14.576,0,0,0,6.549-.334l.235.685a15.077,15.077,0,0,1-6.908.362c-3.649-.635-8.636,3.4-9.242,5.928" transform="translate(-402.455 -423.364)" fill="#20495b"/>
      <path id="Trazado_239666" data-name="Trazado 239666" d="M547.591,588.082a4.9,4.9,0,1,1,4.9-4.9,4.9,4.9,0,0,1-4.9,4.9m0-8.97a4.073,4.073,0,1,0,4.072,4.072,4.077,4.077,0,0,0-4.072-4.072" transform="translate(-457.392 -487.39)" fill="#0c2333"/>
      <path id="Trazado_239667" data-name="Trazado 239667" d="M620.221,570.789a4.9,4.9,0,1,1,4.9-4.9,4.9,4.9,0,0,1-4.9,4.9m0-8.97a4.072,4.072,0,1,0,4.073,4.072,4.077,4.077,0,0,0-4.073-4.072" transform="translate(-518.606 -472.816)" fill="#0c2333"/>
      <path id="Trazado_239668" data-name="Trazado 239668" d="M602.117,600.055a3.126,3.126,0,0,1-.959-.145l.273-.778-.137.389.135-.39a2.1,2.1,0,0,0,2.231-.621l.634.527a2.744,2.744,0,0,1-2.179,1.018" transform="translate(-506.667 -504.435)" fill="#0c2333"/>
      <rect id="Rectángulo_216988" data-name="Rectángulo 216988" width="0.825" height="8.026" transform="translate(78.814 93.937) rotate(-61.699)" fill="#0c2333"/>
    </g>
  </g>
</svg>
