<svg id="Grupo_174361" data-name="Grupo 174361" xmlns="http://www.w3.org/2000/svg" xmlns:xlink="http://www.w3.org/1999/xlink" width="246.398" height="246.411" viewBox="0 0 246.398 246.411">
  <defs>
    <clipPath id="clip-path">
      <rect id="Rectángulo_216992" data-name="Rectángulo 216992" width="246.398" height="246.411" fill="none"/>
    </clipPath>
  </defs>
  <g id="Grupo_174360" data-name="Grupo 174360" clip-path="url(#clip-path)">
    <path id="Trazado_239758" data-name="Trazado 239758" d="M0,130.537V116.113c.418-4.36.3-8.755.811-13.1A99.633,99.633,0,0,1,8.124,76.49,125.045,125.045,0,0,1,92.614,2.957a99.394,99.394,0,0,1,22.3-2.8,222.692,222.692,0,0,1,25.647.484c10.278.871,20.1,3.852,29.586,7.813a125.023,125.023,0,0,1,73.3,84.425,99.7,99.7,0,0,1,2.8,22.3,224.511,224.511,0,0,1-.484,25.649c-.849,10.119-3.775,19.8-7.634,29.145a121.979,121.979,0,0,1-24.85,38.5,136.822,136.822,0,0,1-15.856,14.249c-1.072.813-2.151,1.722-3.671,1.515a2.14,2.14,0,0,1-1.44-2.013,8.3,8.3,0,0,1-.066-1.2c.281-9.034-.439-18.05-.584-27.077-.188-11.654-.606-23.307-.949-34.96-.205-6.986-4.222-11.486-10.333-14.338a48.094,48.094,0,0,0-8.819-3.057c-1.6-.4-3.317-.649-4.586-1.9-1.72-2.5-1.606-5.483-2.042-8.288-2.634-16.968-4.659-34.022-7.148-51.012-1.182-8.069-2.573-16.095-4.087-24.1-2.622-13.868-10.765-22.849-24.421-26.359-11.309-2.907-21.559.062-30.621,7.125-7.824,6.1-10.9,14.63-12.1,24.188-1.194,9.455-1.2,18.969-1.948,28.44-.813,10.268-1.657,20.532-2.416,30.8-.4,5.411-.792,10.829-1.369,16.228a6.316,6.316,0,0,1-.547,2.075c-.92,1.312-2.408,1.5-3.787,1.838A43.337,43.337,0,0,0,64.241,145.4a14.609,14.609,0,0,0-7.4,12.9c-.232,8.789-.825,17.56-1.1,26.348-.233,7.342-.525,14.694-1,22.022-.325,5.021-.1,10.065-.807,15.071-.407,2.886-1.374,3.483-3.909,1.863a71.216,71.216,0,0,1-9.012-7.146A125.028,125.028,0,0,1,4.492,160.221,89.493,89.493,0,0,1,.225,133.354c0-.937.272-1.914-.225-2.817" transform="translate(0 0)" fill="#ffc812"/>
    <path id="Trazado_239759" data-name="Trazado 239759" d="M198.525,333.936c1.871.146,1.976-1.039,1.972-2.465q-.042-14.368-.014-28.735c0-1.037.047-2.074.072-3.111a3.061,3.061,0,0,1,.7-1.148c2.7-3.957,5.119-8.094,7.717-12.116,7.29-11.281,14.612-22.542,21.824-33.872,1.61-2.531,1.577-2.555-1.1-4.071-.974-.552-1.934-1.127-2.905-1.681-.951-.543-2.292-1.053-1.968-2.393.354-1.47,1.841-1.293,3.018-1.317,2.48-.051,4.961-.008,7.44-.022a6.943,6.943,0,0,0,2.5-.238c.142-.965-.532-1.593-.987-2.289-3.331-5.085-6.771-10.1-10.083-15.193-.709-1.093-1.789-2.189-.742-3.675a1.824,1.824,0,0,1,1.1-.327c11.412,1.568,17.538,6.22,21.253,18.124,2.48,7.945,2.643,16.177,1.848,24.431-.221,2.3-.187,4.631-1.005,6.84-.188,1.282.865,2.845-.85,3.786-3.073-.716-5.3.36-6.781,3.283a7.231,7.231,0,0,0,1.54,8.545,7.043,7.043,0,0,0,9.594-.031c3.029-2.91,3.26-6.554.843-9.91-.972-1.351-2.452-1.341-3.7-1.97-.775-1.213-.575-2.56-.533-3.888,1.022-1.828.88-3.912,1-5.85.532-8.285.7-16.562-1.67-24.681a34.53,34.53,0,0,0-4.985-10.554c-.59-.828-1.387-1.613-.948-2.8,1.315-1.132,2.345-.461,3.326.525,4.349,1.567,8.951,2.3,13.2,4.258,7.566,3.484,11.435,8.987,11.544,17.592.255,20.218.948,40.431,1.491,60.645.021.787-.4,1.845.832,2.221a101.523,101.523,0,0,1-24.59,13.383c-1.278-1.117-1.358-2.682-1.4-4.175-.227-8.137-1.093-16.246-1.1-24.389a36.885,36.885,0,0,1,.3-5.21c.173,8.149-1.65,16.072-2.7,24.081-.352,2.69-.815,5.369-1.135,8.061a10.779,10.779,0,0,1-1.5,4.489,108.266,108.266,0,0,1-22.641,5.427c-1.936.257-3.959.071-5.816.879h-1.442a22.284,22.284,0,0,0-7.212,0h-5.288q-.477-.19-.036-.453" transform="translate(-78.847 -87.978)" fill="#edf2f6"/>
    <path id="Trazado_239760" data-name="Trazado 239760" d="M207.5,408.648a11.275,11.275,0,0,1,7.211,0Z" transform="translate(-82.501 -162.237)" fill="#bce7d9"/>
    <path id="Trazado_239761" data-name="Trazado 239761" d="M194.564,408.226a3.561,3.561,0,0,1,.036.453h-6.25c2.008-1.018,4.145-.264,6.214-.453" transform="translate(-74.885 -162.268)" fill="#c0ebd7"/>
    <path id="Trazado_239762" data-name="Trazado 239762" d="M200.648,152.462l-.872-.127c-1.783.876-3.286-.068-4.832-.742-2.724-.239-4.075-1.86-4.528-4.436-.757-4.3-2.159-8.48-2.387-12.876a5.084,5.084,0,0,1,1.594-3.151c4.551-5.3,7.517-11.49,10.1-17.889a14.435,14.435,0,0,1,2.654-4.231,14.582,14.582,0,0,0,3.466-11.829c-.3-2.607-1-3.2-3.667-3.382a2.252,2.252,0,0,1-2.382-2.44c-.007-1.857-.783-2.51-2.623-2.5-11.072.089-19.994-4.929-27.945-12.064a53.983,53.983,0,0,1-8.583-9.678c-1.012-1.48-1.669-1.253-2.69-.016-5.684,6.887-9.653,14.489-10.112,23.606-.083,1.657-.857,2.846-2.579,2.9a2.846,2.846,0,0,0-3.02,3.268c.21,4.9.5,9.861,5.536,12.709,1.344.76,1.909,2.137,2.483,3.449a74.767,74.767,0,0,0,9.6,16.282c1.11,1.416,2.88,2.4,3.1,4.444.087,5.221-1.535,10.149-2.578,15.175-.292,1.4-1.4,2.046-2.564,2.611a6.049,6.049,0,0,1-4.628.8,3.971,3.971,0,0,0-3.321-.7c-4.683.724-9.092,2.07-12.916,4.987a1.947,1.947,0,0,1-1.972.5c-.839-1.02-1.733.361-2.585-.058.9-11.969,1.86-23.934,2.683-35.908.6-8.777,1.616-17.521,1.754-26.341A110.581,110.581,0,0,1,139.4,72.434c3.287-14.714,15.889-24.029,29.325-25.756,14.756-1.9,26.739,3.31,34.7,16.348,3.066,5.022,3.876,10.8,4.927,16.448,3.263,17.541,5.4,35.249,7.794,52.918,1.139,8.4,2.443,16.777,3.671,25.163l-3.529-.548c-1.093.313-1.774-.43-2.53-.986a22.068,22.068,0,0,0-9.024-4.047c-1.393-.265-2.825-.528-4.084.486" transform="translate(-52.642 -18.409)" fill="#666"/>
    <path id="Trazado_239763" data-name="Trazado 239763" d="M269.107,373.353c.136-4.881,1.216-9.642,1.853-14.458.931-7.04,1.986-14.063,3.005-21.091.1-.695.325-1.371.639-2.661l2.034,35.353-7.532,2.857" transform="translate(-106.993 -133.248)" fill="#f9d14e"/>
    <path id="Trazado_239764" data-name="Trazado 239764" d="M157.226,220.76c1.6.107,2.955-.867,4.5-1.022,1.831.234,1.92,1.825,2.159,3.071,1.4,7.3,3.042,14.541,4.479,21.829.942,4.778,2.066,9.521,2.886,14.325,2.608,11.2,4.679,22.521,7.194,33.744a34.316,34.316,0,0,1,.55,4.027,2,2,0,0,1-.635,1.947c-2.7-2.983-4.121-6.747-6.2-10.11-1.793-2.9-3.42-5.907-5.158-8.845-.237-.4-.567-1.528-1.164-.181-1.636-.474-1.338-2.005-1.592-3.134-.884-3.942-1.557-7.929-2.4-11.878a16.784,16.784,0,0,0-8.636-15.018c-.97-.585-2.351-.823-2.379-2.378.967-1.771,3.02-2,4.467-3.207-3.119-.057-6.216.036-9.311-.04-3.245-.079-4.12-1.561-2.341-4.268,4.04-6.147,7.99-12.357,12.345-18.295.319-.4.662-.746,1.243-.566" transform="translate(-56.749 -87.365)" fill="#edf2f6"/>
    <path id="Trazado_239765" data-name="Trazado 239765" d="M196.555,324.044c-1.142-5.833-2.248-11.672-3.434-17.5-1.5-7.389-3.07-14.766-4.611-22.148,1.118-1.06,2.531-.92,3.837-.749a45.152,45.152,0,0,0,12.318-.013,5.46,5.46,0,0,1,2.822.181c1.237,1.045.742,2.352.426,3.545-2.737,10.326-5.33,20.689-8.076,31.013a19.4,19.4,0,0,1-2.425,5.636l-.754.364a.323.323,0,0,0-.1-.332" transform="translate(-74.949 -112.729)" fill="#21cfc2"/>
    <path id="Trazado_239766" data-name="Trazado 239766" d="M134.879,264.091c6.764,2.705,10.813,7.584,11.883,14.848.1.68.533,1.38-.166,1.99-.493.361-.931.841-1.631.76a2.341,2.341,0,0,1-1.738-2.075,15.046,15.046,0,0,0-7.164-11.029,3.886,3.886,0,0,1-1.036-1.295c-8.243-3.9-21.307-.813-26.815,6.375-3.039,3.966-3.555,8.428-2.47,13.187.166.73.727,1.51-.074,2.222a1.28,1.28,0,0,1-1.545.281,15.3,15.3,0,0,1-.339-13.117c2.76-6.868,8.491-10.284,15.311-12.2,1.26-1.671,3.333-1.22,4.971-1.911,2.866-.055,5.738-.345,8.571.414.96.257,1.849.52,2.242,1.551" transform="translate(-40.743 -104.178)" fill="#4d4d4d"/>
    <path id="Trazado_239767" data-name="Trazado 239767" d="M130.979,346.282q1.45,10.917,2.9,21.833c.343,2.611.622,5.231.982,7.84.189,1.369-.277,1.775-1.554,1.249-.148-.06-.3-.119-.449-.167-5.441-1.734-5.532-1.739-5.2-7.328.445-7.574,1.047-15.139,1.581-22.707a1.183,1.183,0,0,1,1.745-.721" transform="translate(-50.71 -137.616)" fill="#f9d14d"/>
    <path id="Trazado_239768" data-name="Trazado 239768" d="M151.746,220.481l-.494.914c-1.7,1.349-3.812,1.5-5.8,2.026-4.539,1.2-8.931,2.69-11.307,7.238-1.421,2.719-2.389,5.572-1.837,8.726a3.688,3.688,0,0,1-.457,2.987c-1.964,1-2.11.928-2.625-1.2-.78-5.766-.072-11.105,4.392-15.373,4.354-4.487,10.051-5.8,15.912-6.692,1.03-.157,2.171-.2,2.218,1.371" transform="translate(-51.269 -87.086)" fill="#4e4e4e"/>
    <path id="Trazado_239769" data-name="Trazado 239769" d="M156.511,270.765c5.353,1.949,7.91,6.107,9.016,11.412.19.913.059,1.951,1,2.57,1.755,1.369,1.626,3.08.889,4.9a1.8,1.8,0,0,1-1.3-.939c-3.132-5.516-6.275-11.025-9.381-16.556a4.182,4.182,0,0,1-.223-1.387" transform="translate(-62.227 -107.653)" fill="#ebf0f4"/>
    <path id="Trazado_239770" data-name="Trazado 239770" d="M172.515,298.634q-.445-2.45-.889-4.9a2.054,2.054,0,0,1,1.549-.343l3.23,15.428a19.466,19.466,0,0,0,.247,2.358c.971,4.3-.752,7.165-4.964,8.2-.614.151-1.2.4-1.805.605-.761-.566-.692-1.171-.084-1.8,5.287-1.167,6.192-2.512,5.144-7.828-.772-3.913-1.616-7.81-2.428-11.715" transform="translate(-67.322 -116.64)" fill="#25d0c3"/>
    <path id="Trazado_239771" data-name="Trazado 239771" d="M105.212,307.191a2.123,2.123,0,0,1,1.545-.281c1.151,5.8,2.291,11.611,3.457,17.413.8,3.952,2.14,4.981,6.1,4.742a1.051,1.051,0,0,1,.4,1.672c-4.74.449-7.143-1.372-8.043-6.017-1.133-5.847-2.3-11.686-3.46-17.528" transform="translate(-41.831 -122.014)" fill="#27d0c4"/>
    <path id="Trazado_239772" data-name="Trazado 239772" d="M124.043,343.837q-.2-.836-.4-1.672l4.2-2.237a.975.975,0,0,1,1.216.307,2.678,2.678,0,0,1,.366,3.545l-1.745.72c-1.084-.928-2.41-.531-3.639-.663" transform="translate(-49.158 -135.114)" fill="#0d6a76"/>
    <path id="Trazado_239773" data-name="Trazado 239773" d="M166.126,334.1q.041.9.083,1.8c-.822.4-1.756.431-2.461,1.246a1.952,1.952,0,0,1-2.956.058,2,2,0,0,1-.393-2.605,1.792,1.792,0,0,1,2.595-.887c1.083.769,2.174-.261,3.134.384" transform="translate(-63.649 -132.568)" fill="#0b6975"/>
    <path id="Trazado_239774" data-name="Trazado 239774" d="M129.342,255.785a1.529,1.529,0,0,0,2.309.972c2.267.342,1.887,2.66,2.927,3.918-1.539.706-3.239.516-4.839.88-.166-1.921-.713-3.816-.4-5.77" transform="translate(-51.386 -101.697)" fill="#6d6d6d"/>
    <path id="Trazado_239775" data-name="Trazado 239775" d="M131.835,337.795l-1.219-.307c.132-1.053.262-2.105.47-3.79a8.176,8.176,0,0,1,.749,4.1" transform="translate(-51.931 -132.674)" fill="#f7e194"/>
    <path id="Trazado_239776" data-name="Trazado 239776" d="M203.287,298.75q3.555-13.959,7.11-27.918,1.5-5.889,3-11.778c-.895-1-.487-2.147-.219-3.19q4.287-16.672,8.568-33.345c.275-1.072.574-2.209,1.9-2.524l4.311,1.4c.913,2.431,2.649,4.357,4.029,6.5,2.863,4.439,5.842,8.8,8.766,13.2.387.583,1.093,1.157.751,1.9-.372.811-1.277.472-1.952.478-3.283.033-6.566,0-9.848.029a3.05,3.05,0,0,0-2.583.62c2.3,1.285,4.428,2.586,6.657,3.687,1.539.76,2.026,1.457.966,3.09q-14.9,22.942-29.71,45.945c-.464.718-.806,1.6-1.745,1.907" transform="translate(-80.824 -87.467)" fill="#fdfdfd"/>
    <path id="Trazado_239777" data-name="Trazado 239777" d="M245.686,221.288c-.033-1.677.59-2.057,2.355-1.807a22.217,22.217,0,0,1,13.283,6.354c5.063,5.1,7.242,11.544,8.376,18.4,1.352,8.177.872,16.384.078,24.585-.095.978-.409,1.481-1.414,1.439a.617.617,0,0,1-.936-.171c.222-4.627.935-9.221.91-13.866a63.211,63.211,0,0,0-2.355-17.982c-2.921-9.739-9.355-15.3-19.436-16.636a4.079,4.079,0,0,1-.858-.318" transform="translate(-97.681 -87.235)" fill="#4e4e4e"/>
    <path id="Trazado_239778" data-name="Trazado 239778" d="M277.339,308.342c.431-1.411,1.234-1.069,2.169-.515a8.276,8.276,0,0,1-6.1,15.159,8.272,8.272,0,0,1,.467-16.223c1.3-.158,1.795.211,1.6,1.492,1.107,1.436.257,2.37-.881,3.134a8.892,8.892,0,0,0-1.944,1.377,3.067,3.067,0,0,0-.1,4.339,3.4,3.4,0,0,0,5.79-3.271,16.75,16.75,0,0,0-1.3-2.289c-.579-1.095-.982-2.246.293-3.2" transform="translate(-106.143 -121.951)" fill="#107986"/>
    <path id="Trazado_239779" data-name="Trazado 239779" d="M279.717,307.074c-.1,1.334-.158,2.5,1.11,3.583,1.64,1.4,1.661,3.4.637,5.229a4.381,4.381,0,0,1-5.1,2.154,4.076,4.076,0,0,1-3.347-3.59,4.188,4.188,0,0,1,2.661-4.815c1.355-.542,2.143-1.192,2.181-2.648.842-1.066-.129-2.347.41-3.448l.936.171c1.551.911.275,2.254.514,3.365" transform="translate(-108.521 -120.683)" fill="#fdfdfd"/>
    <path id="Trazado_239780" data-name="Trazado 239780" d="M168.107,145.23c-5.961-6-10.042-13.215-13.347-20.907a4.581,4.581,0,0,0-2.629-2.732c-3.031-1.318-3.745-4.417-4.489-7.269a14.769,14.769,0,0,1-.344-7.582c.451-1.724,1.354-2.742,3.217-2.416,1.839.322,2.116-.623,2.162-2.155.31-10.254,5.4-18.38,11.693-25.948,1.269-1.527,1.589.149,1.993.725a61.53,61.53,0,0,0,15.259,15.474c6.669,4.616,13.959,7.487,22.213,7.068,2.214-.113,2.829.691,2.678,2.7-.117,1.558-.267,3.049,2.307,2.125,1.749-.628,2.713.939,3.348,2.4,1.84,4.227-.131,12.312-3.749,15.263a3.543,3.543,0,0,0-1.378,1.581,63.229,63.229,0,0,1-12.627,22.133,5.956,5.956,0,0,1-2.6,3.551c-1.244.854-2.44,1.78-3.737,2.557-4.241,2.54-8.564,2.825-12.889.287-2.9-1.7-6.333-2.9-7.076-6.85" transform="translate(-58.422 -30.055)" fill="#fdd197"/>
    <path id="Trazado_239781" data-name="Trazado 239781" d="M178.965,191.189c2.487,3.451,6.063,5.4,9.846,7,3.513,1.484,6.744.355,9.81-1.446a41.261,41.261,0,0,0,6.65-5.1c.845,3.882,1.82,7.742,2.49,11.654.462,2.7,1.234,4.864,4.341,5.243q-3.608,13.752-7.216,27.5-1.516,5.779-3.037,11.556a64.186,64.186,0,0,1-19.008.085q-3.879-18.564-7.748-37.128a3.533,3.533,0,0,0-.843-2.171,2.743,2.743,0,0,0,1.934-2.377c.83-4.957,1.839-9.883,2.781-14.821" transform="translate(-69.279 -76.014)" fill="#efb97d"/>
    <path id="Trazado_239782" data-name="Trazado 239782" d="M135.925,247.622c-1.155.081-1.939-.185-2-1.6A2.766,2.766,0,0,0,133,243.7c-.022-1.837-.487-3.632-.336-5.5a14.167,14.167,0,0,1,8.949-12.62,29.867,29.867,0,0,1,11.1-2.633q-6.17,9.3-12.323,18.613c-.409.623-1.287,1.232-.808,2.1.466.845,1.443.5,2.2.5,4.075.03,8.15.014,12.31.248a22.615,22.615,0,0,1-7.228,4.142,29.739,29.739,0,0,0-10.944-.934" transform="translate(-52.733 -88.642)" fill="#fefefe"/>
    <path id="Trazado_239783" data-name="Trazado 239783" d="M126.622,344.726c.773,1.851.535,3.8.363,5.688-.577,6.36-1.1,12.721-1.4,19.1a4.012,4.012,0,0,0,4.227,3.961c1-.107.8-.787.725-1.422q-1.128-9.27-2.34-18.531a85.2,85.2,0,0,1-.95-8.8,16.728,16.728,0,0,0-.4-4.122c-.111.008.209-.392-.118-.134-.158.125-.242.361-.388.534a7.338,7.338,0,0,1-4.4,2.07,9.492,9.492,0,0,1-2,.057,18.575,18.575,0,0,0,2.72.176c1.6-.3,3.032-.115,3.971,1.426" transform="translate(-47.683 -135.329)" fill="#fdfdfd"/>
    <path id="Trazado_239784" data-name="Trazado 239784" d="M112.407,335.894c-.071-.227-.138-.461-.2-.712-.327-1.4-.633-2.805-.931-4.212.152.79.306,1.579.467,2.367a21.2,21.2,0,0,0,.66,2.557" transform="translate(-44.243 -131.589)" fill="#fdfdfd"/>
    <path id="Trazado_239785" data-name="Trazado 239785" d="M164.07,335.627c-.559-.09-1.13-.153-1.475.436a.7.7,0,0,0,.086.877c.564.542,1.17.314,1.742-.011a6.456,6.456,0,0,1,2.422-.923c.522-.2,1-.378,1.439-.549a3.407,3.407,0,0,0-.672.208,17.489,17.489,0,0,1-3.542-.038" transform="translate(-64.6 -133.373)" fill="#fdfdfd"/>
    <path id="Trazado_239786" data-name="Trazado 239786" d="M37.456,322.551c.072.1.143.2.215.3-.072-.1-.143-.2-.215-.3" transform="translate(-14.892 -128.242)" fill="#fdfdfd"/>
    <path id="Trazado_239787" data-name="Trazado 239787" d="M40.31,326.481c.281.378.569.751.854,1.125-.286-.374-.573-.748-.854-1.125" transform="translate(-16.027 -129.804)" fill="#fdfdfd"/>
    <path id="Trazado_239788" data-name="Trazado 239788" d="M154.007,337.112c2.1.239,2.627-1,2.63-2.771.02-10.318.138-20.635-.065-30.958a2.752,2.752,0,0,0-.24-.822c-2.24-3.573-3.94-7.438-6.133-11.03-1.659-2.717-3.062-5.591-4.836-8.236-1.121-1.672-1.787-1.665-2.981-.3a2.554,2.554,0,0,0-.056.942c.018.269.035.523.052.772q.213,1.2.427,2.395a5.134,5.134,0,0,1-3.99,5.684c-.382.1-.778.154-1.165.24-.442.171-.918.351-1.44.548a6.467,6.467,0,0,0-2.422.924c-.571.325-1.178.552-1.742.011a.7.7,0,0,1-.086-.877c.346-.589.916-.525,1.475-.436a17.491,17.491,0,0,0,3.542.038,3.378,3.378,0,0,1,.672-.208c4.943-1.908,5.118-2.469,4.729-8.319-.7-3.931-1.419-7.865-2.5-11.719-2.17-2.09-2.988-4.993-4.473-7.492-2.339-3.936-4.731-7.849-6.81-11.931-.876-1.213-2.263-1.437-3.563-1.754a24.772,24.772,0,0,0-14.1,1.024c-6.612,2.266-11.555,6.323-13.293,13.472-.8,3.291.327,6.477.524,9.713.216,1.082.425,2.165.636,3.248.857,3.659,1.493,7.365,2.2,11.055.3,1.407.6,2.811.931,4.212.058.251.125.485.2.712a4.491,4.491,0,0,0,4.085,3.49,9.5,9.5,0,0,0,2-.057,7.342,7.342,0,0,0,4.4-2.071c.146-.173.23-.41.388-.534.327-.257.007.142.118.134a16.787,16.787,0,0,1,.4,4.122,85.034,85.034,0,0,0,.95,8.8q1.227,9.258,2.34,18.531c.078.636.278,1.315-.725,1.422a4.011,4.011,0,0,1-4.227-3.961c.293-6.38.82-12.741,1.4-19.1.172-1.889.41-3.837-.363-5.688-.939-1.541-2.368-1.724-3.971-1.427a18.575,18.575,0,0,1-2.72-.176,4.379,4.379,0,0,1-4.085-3.49,21.087,21.087,0,0,1-.66-2.557q-.242-1.182-.467-2.367c-.779-3.676-1.484-7.367-2.2-11.055-.289-1.234-.6-2.464-.951-3.684-1.4-5.452-1.608-10.764,1.963-15.58a21.727,21.727,0,0,1,9.9-7.292c1.183-.459,2.467-.775,3.157-2.008.926-1.812-.695-3.634.005-5.448-.4-5.088-.042-9.992,3.341-14.194a1.7,1.7,0,0,0,.231-1.592c-.972-1.313-1.847-.6-2.72.13-1.389.378-2.771.78-4.167,1.128a41.593,41.593,0,0,0-11.4,4.336,16.067,16.067,0,0,0-8.414,13.919Q88.519,278.4,87.216,307.8c-.1,2.356-.316,4.707-.495,7.313-.542-.34-.943-.572-1.295-.8A122.554,122.554,0,0,0,149.495,337.1c1.5-.054,3.012.109,4.512.016" transform="translate(-33.965 -90.943)" fill="#fdfdfd"/>
    <path id="Trazado_239789" data-name="Trazado 239789" d="M11.636,272.741c.194.548.387,1.1.589,1.641q-.3-.818-.589-1.641" transform="translate(-4.626 -108.438)" fill="#fdfdfd"/>
    <path id="Trazado_239790" data-name="Trazado 239790" d="M2.1,232.334c-.728-4.025-.978-8.1-1.548-12.136a122.591,122.591,0,0,0,6.561,31.318A127.14,127.14,0,0,1,2.1,232.334" transform="translate(-0.218 -87.548)" fill="#fdfdfd"/>
    <path id="Trazado_239791" data-name="Trazado 239791" d="M172.113,329.968c.387-.086.784-.136,1.165-.24a5.135,5.135,0,0,0,3.991-5.685q-.215-1.2-.427-2.394c.389,5.849.214,6.41-4.729,8.319" transform="translate(-68.43 -127.883)" fill="#fdfdfd"/>
    <path id="Trazado_239792" data-name="Trazado 239792" d="M49.591,338.054c.143.165.287.328.43.493-.143-.164-.288-.328-.43-.493" transform="translate(-19.717 -134.406)" fill="#fdfdfd"/>
    <path id="Trazado_239793" data-name="Trazado 239793" d="M45.259,332.848q.739.916,1.5,1.818-.757-.9-1.5-1.818" transform="translate(-17.994 -132.336)" fill="#fdfdfd"/>
    <path id="Trazado_239794" data-name="Trazado 239794" d="M42.768,329.7q.516.665,1.04,1.322-.525-.659-1.04-1.322" transform="translate(-17.004 -131.086)" fill="#fdfdfd"/>
    <path id="Trazado_239795" data-name="Trazado 239795" d="M117.237,342.634a4.491,4.491,0,0,1-4.086-3.49,4.38,4.38,0,0,0,4.086,3.49" transform="translate(-44.987 -134.839)" fill="#fdfdfd"/>
    <path id="Trazado_239796" data-name="Trazado 239796" d="M107.628,312.619c.717,3.688,1.422,7.379,2.2,11.055-.707-3.69-1.344-7.4-2.2-11.055" transform="translate(-42.791 -124.293)" fill="#fdfdfd"/>
  </g>
</svg>
