<svg xmlns="http://www.w3.org/2000/svg" xmlns:xlink="http://www.w3.org/1999/xlink" width="246.346" height="246.411" viewBox="0 0 246.346 246.411">
  <defs>
    <clipPath id="clip-path">
      <rect id="Rectángulo_218995" data-name="Rectángulo 218995" width="118.742" height="175.717" fill="none"/>
    </clipPath>
  </defs>
  <g id="Grupo_176914" data-name="Grupo 176914" transform="translate(-672.05 -3757.321)">
    <path id="Trazado_239797" data-name="Trazado 239797" d="M0,128.188v-9.612c.534-1.514.1-3.078.24-4.612C0,99.265,3.972,85.551,9.9,72.273A119.723,119.723,0,0,1,29.4,41.91a124.366,124.366,0,0,1,30.45-25.376A120.7,120.7,0,0,1,102.414,1.028,111.831,111.831,0,0,1,116.267.164a177.817,177.817,0,0,1,27.067.8A101.9,101.9,0,0,1,169.61,8.289a126,126,0,0,1,64.362,59.383c5.689,11.271,9.937,23.133,11.444,35.7a184.518,184.518,0,0,1,.708,28.491,101.076,101.076,0,0,1-2.8,22.286,122.412,122.412,0,0,1-24.239,47.764,123.293,123.293,0,0,1-72.2,43.243c-4.089.773-8.263.687-12.4,1.017-.778.062-1.6-.244-2.335.234H113.411c-3.548-.5-7.135-.462-10.695-.8-7.707-.724-15.047-2.98-22.246-5.644a122.6,122.6,0,0,1-30-15.928,127.535,127.535,0,0,1-27.213-26.861,122.868,122.868,0,0,1-21.1-45.364C.658,145.555.409,139.181.24,132.791c-.137-1.532.294-3.093-.24-4.6" transform="translate(672.05 3757.321)" fill="#afd55a"/>
    <path id="Trazado_239798" data-name="Trazado 239798" d="M0,177.107a1.132,1.132,0,0,1,.419-.055A10.065,10.065,0,0,1,0,181.912Z" transform="translate(672.05 3693.986)" fill="#76d598"/>
    <path id="Trazado_239799" data-name="Trazado 239799" d="M.42,204.445a1.288,1.288,0,0,1-.42-.054v-4.805a10.094,10.094,0,0,1,.42,4.859" transform="translate(672.05 3685.924)" fill="#76d598"/>
    <g id="Grupo_176842" data-name="Grupo 176842" transform="translate(735.852 3782.032)">
      <g id="Grupo_176842-2" data-name="Grupo 176842" clip-path="url(#clip-path)">
        <path id="Trazado_250426" data-name="Trazado 250426" d="M59.359,184.238l-59.306.025C.035,183.455,0,182.645,0,181.835Q0,104.913,0,27.992c0-3.411,0-3.421,3.441-3.415q14.7.023,29.406.06a1.474,1.474,0,0,1,1.1,1.171c.3,2.931.808,5.88-.415,8.74a6.009,6.009,0,0,1-3.932.959c-3.892.052-7.784.008-11.677.026-4.566.021-5.073.5-5.078,4.991q-.024,20.921-.006,41.842,0,40.5,0,81.008c0,.892-.007,1.784.007,2.676.058,3.676.713,4.35,4.481,4.361,12.65.034,25.3-.017,37.95.04,1.5.007,3.113-.317,4.422.832,1.471,3.884.809,7.867.524,11.828-.034.478-.53.779-.858,1.126" transform="translate(0 -8.622)" fill="#c28678"/>
        <path id="Trazado_250427" data-name="Trazado 250427" d="M91.435,183.709q0-6.32-.006-12.639c.9-1.491,2.426-1.127,3.732-1.135,12.16-.077,24.321-.03,36.482-.041.972,0,1.947.031,2.918-.031,2.42-.153,3.178-.889,3.352-3.25.054-.728.032-1.459.032-2.188q0-62.019,0-124.038c0-.649.014-1.3-.027-1.945-.158-2.524-.9-3.331-3.445-3.4-4.133-.115-8.269-.008-12.4-.053a7.239,7.239,0,0,1-4.222-.855,15.031,15.031,0,0,1-.091-10.243c1.894-1.411,3.809-.711,5.725-.054q11.5.08,22.99.166c1.449.012,2.9.1,4.346.156q-.007,77.721-.015,155.442c0,.811-.039,1.623,0,2.432.055,1.223-.482,1.822-1.718,1.768-.162-.007-.324.01-.486.01q-28.339-.018-56.678-.038a3.606,3.606,0,0,1-.482-.063" transform="translate(-32.076 -8.093)" fill="#a55d4e"/>
        <path id="Trazado_250428" data-name="Trazado 250428" d="M117.563,15.919q-.006,4.912-.011,9.824c1.744,1.774,1.242,3.9.743,5.9-.351,1.408-1.781,1.47-3,1.513-4.673.164-9.349.053-14.023.073-2.579.011-5.159.056-7.737-.045-1.028-.04-2.121.068-2.982-.717a6.213,6.213,0,0,1-.917-3.939q-.06-12.373.009-24.745c.009-1.341-.19-2.806,1.147-3.77C95.37-.231,98.361,2.289,100.8,5.77c1.332,1.352,2.007,3.395,4.124,3.922q4.986.023,9.97.047c.971.006,1.979-.092,2.637.868.913,1.765,1.842,3.53.032,5.312" transform="translate(-31.434 0)" fill="#fcb912"/>
        <path id="Trazado_250429" data-name="Trazado 250429" d="M76.553.026V32.05c-.818,1.4-2.238,1.133-3.476,1.15-6.384.089-12.769.083-19.154.018-4.385-.045-5.406-1.346-4.694-5.7a5.257,5.257,0,0,1,.713-1.783,70.034,70.034,0,0,0,.1-9.709c.027-.16.068-.319.079-.48.375-5.451.375-5.45,5.985-5.451,2.19,0,4.386-.105,6.568.032,1.862.116,2.7-.594,3.259-2.385A10.8,10.8,0,0,1,76.553.026" transform="translate(-17.198 -0.009)" fill="#fecd00"/>
        <path id="Trazado_250430" data-name="Trazado 250430" d="M38.973,39.589c.056.639.154,1.279.164,1.919.064,4.47.058,4.478,4.647,4.468q10.9-.025,21.8-.07c8.387.053,16.774.1,25.161.172,1.193.01,1.516-.555,1.5-1.635-.019-1.611.061-3.222.1-4.834,6.24,0,12.481.058,18.719-.036,1.724-.026,2.373.317,2.371,2.23q-.084,66.37,0,132.74c0,1.9-.665,2.257-2.394,2.253-15.152-.033-30.3.019-45.458.047-1.048-.06-2.1-.169-3.145-.17-13.949-.012-27.9-.057-41.846.042-2.259.016-2.829-.663-2.826-2.872q.093-65.689-.008-131.378c0-2.371.632-3,2.971-2.936,6.078.17,12.163.06,18.245.062" transform="translate(-6.23 -13.866)" fill="#f3f5f9"/>
        <path id="Trazado_250431" data-name="Trazado 250431" d="M90.788,61.48c15.951-.917,32.077,10.589,37.668,26.878,8.08,23.538-7.536,48.942-32.189,52.255-1.8.241-3.666.68-5.519.151a2.777,2.777,0,0,1-1.006-1.859c-.121-3.765-.5-7.536.265-11.275.334-1.4,1.487-1.516,2.628-1.69,6.06-.926,11.451-3.1,15.836-7.649A24.546,24.546,0,0,0,111.7,88.13a24.219,24.219,0,0,0-18.911-11.6,3.6,3.6,0,0,1-3.159-3.88c-.031-2.8-.078-5.606.014-8.409a3,3,0,0,1,1.141-2.756" transform="translate(-31.413 -21.551)" fill="#fe432e"/>
        <path id="Trazado_250432" data-name="Trazado 250432" d="M69.989,61.48c-.007,3.214.109,6.435-.062,9.64-.125,2.343.217,4.092,2.974,4.327-.542,1.43-1.838,1.18-2.9,1.171a23.533,23.533,0,0,0-15.87,5.727c-6.746,5.715-9.775,13.159-8.512,21.835,1.725,11.848,8.957,18.907,20.8,21.359,1.259.261,2.845.048,3.561,1.609q-.015,6.808-.031,13.616c-19.132.614-36.933-14.786-39.355-34.048C27.908,85.346,41.408,66.478,62.51,62.158a27.089,27.089,0,0,1,7.478-.678" transform="translate(-10.614 -21.551)" fill="#fe6c52"/>
        <path id="Trazado_250433" data-name="Trazado 250433" d="M114.981,233.3c-4.774,0-9.549-.056-14.322.026-1.878.032-2.6-.642-2.557-2.543.178-7.982-1.074-6.639,6.6-6.711,8.172-.077,16.346.049,24.517-.059,2.314-.031,3.134.7,3.065,3.05-.211,7.244.906,6.148-6.139,6.231-3.722.044-7.444.008-11.166.007" transform="translate(-34.416 -78.589)" fill="#cdd2e0"/>
        <path id="Trazado_250434" data-name="Trazado 250434" d="M49.152,208.806c-4.778,0-9.557-.07-14.333.032-2.035.043-2.692-.742-2.652-2.714.145-7.023-.773-6.013,5.829-6.053,8.422-.05,16.845.059,25.265-.056,2.371-.032,3.09.8,3.028,3.094-.177,6.531.7,5.634-5.719,5.693-3.806.034-7.612.006-11.418.005" transform="translate(-11.284 -70.17)" fill="#e8ecf4"/>
        <path id="Trazado_250435" data-name="Trazado 250435" d="M115.15,208.819c-4.863,0-9.726-.046-14.588.023-1.751.025-2.487-.586-2.454-2.395.141-7.631-.913-6.356,6.176-6.418,8.347-.072,16.7.041,25.042-.055,2.187-.025,3.024.627,2.962,2.9-.193,6.928.8,5.856-5.954,5.938-3.728.045-7.456.008-11.184.006" transform="translate(-34.419 -70.156)" fill="#ccd1e0"/>
        <path id="Trazado_250436" data-name="Trazado 250436" d="M49.439,224.795c4.618,0,9.237.079,13.852-.034,2.135-.052,3.043.537,3.021,2.862-.053,5.924.045,5.926-5.98,5.925q-12.273,0-24.546-.007c-3.277-.006-3.584-.327-3.576-3.653.014-5.656-.524-5.067,5.077-5.089,4.051-.017,8.1,0,12.152,0" transform="translate(-11.297 -78.851)" fill="#e9edf4"/>
        <path id="Trazado_250437" data-name="Trazado 250437" d="M77.4,134.709c-8.139-.526-15.209-3.392-20.237-10.016-6.579-8.668-7.619-18.183-2.6-27.833C59.537,87.3,67.821,82.787,78.624,82.988c.565.01,1.132.014,1.7.02,12.227,1.276,22.37,12.119,22.924,23.789.763,16.078-11.334,26.129-21.528,27.387q-2.157.267-4.315.526" transform="translate(-18.036 -29.112)" fill="#fefefe"/>
        <path id="Trazado_250438" data-name="Trazado 250438" d="M93.277,104.723c5.785,1.082,10.141,6.823,9.472,12.484-.78,6.592-5.686,11.055-11.96,10.878-1.073-.755-1.126-1.909-1.141-3.046-.079-5.824-.125-11.649.018-17.471.072-2.928.565-3.241,3.611-2.845" transform="translate(-31.425 -36.691)" fill="#fe432e"/>
        <path id="Trazado_250439" data-name="Trazado 250439" d="M87.526,104.52c-2.079-.2-2.554.882-2.531,2.774.086,6.862.04,13.725.043,20.587a11.608,11.608,0,0,1-11.756-10.056,11.775,11.775,0,0,1,8.82-13.231c1.768-.406,3.605-1.054,5.424-.075" transform="translate(-25.673 -36.488)" fill="#fe6c52"/>
      </g>
    </g>
  </g>
</svg>
