<svg id="Grupo_175448" data-name="Grupo 175448" xmlns="http://www.w3.org/2000/svg" xmlns:xlink="http://www.w3.org/1999/xlink" width="180.67" height="175.33" viewBox="0 0 180.67 175.33">
  <defs>
    <clipPath id="clip-path">
      <rect id="Rectángulo_218348" data-name="Rectángulo 218348" width="180.67" height="175.33" fill="#fff"/>
    </clipPath>
  </defs>
  <g id="Grupo_175447" data-name="Grupo 175447" clip-path="url(#clip-path)">
    <path id="Trazado_247004" data-name="Trazado 247004" d="M86.111,163.047a15.811,15.811,0,0,0-6.117-12.367c-1.037-.836-1.041-1.358-.491-2.485,2.806-5.748,2.36-11.343-1.579-16.375s-9.289-6.755-15.545-5.429a37.1,37.1,0,0,0-4.055,1.341c0-2.35.126-4.593-.04-6.814-.136-1.818.479-2.2,2.238-2.2q51.694.085,103.388.041c3.428,0,4.339-.889,4.339-4.225q0-55.219,0-110.437c0-3.154-.943-4.1-4.1-4.1Q89.161,0,14.179,0c-3.171,0-4.05.892-4.05,4.1q0,55.307,0,110.614c0,3.159.9,4.039,4.117,4.044,4.293.008,8.586-.007,12.879.013.518,0,1.33-.3,1.343.655.038,2.663.013,5.328.013,8.235a15.422,15.422,0,0,0-10.591-2.15,15.237,15.237,0,0,0-11.026,22.5c.462.876.341,1.232-.4,1.789a16.783,16.783,0,0,0-5.339,7.093c-.418,1-.413,2.151-1.128,3.035v14.82c1.524-.039,3.049-.156,4.568-.092,1.127.047,1.519-.243,1.487-1.448-.089-3.349-.066-6.7-.019-10.055a10.744,10.744,0,0,1,4.688-9.01,1.654,1.654,0,0,1,2.042-.127,14.9,14.9,0,0,0,14.922.033,1.757,1.757,0,0,1,2.18.162,10.49,10.49,0,0,1,4.39,6.958c.48,2.921.184,5.869.214,8.8.05,4.832.013,4.8,4.784,4.681.99-.025,1.318-.283,1.3-1.3-.063-2.939-.08-5.881-.01-8.82.144-6.082-1.856-11.168-6.765-14.941-.493-.379-.686-.64-.3-1.265a13.991,13.991,0,0,0,2-6.135c.083-.96.488-1.113,1.333-1.105,4.116.038,8.234.067,12.349-.014,1.187-.024,1.5.394,1.542,1.478a12.483,12.483,0,0,0,1.724,5.854c.54.92.525,1.4-.4,2.112a15.838,15.838,0,0,0-5.945,9.5c-.744,3.487-.377,7.031-.415,10.551-.05,4.7-.013,4.653,4.621,4.647,1.183,0,1.479-.345,1.466-1.487-.042-3.7-.062-7.411.086-11.11a10.043,10.043,0,0,1,4.2-7.617,2.111,2.111,0,0,1,2.667-.248,15.006,15.006,0,0,0,13.366.569c2.855-1.172,3.525-1.04,5.529,1.38a10.167,10.167,0,0,1,2.223,4.532c.616,3.091.137,6.214.3,9.318.08,1.51-.669,3.575.308,4.377.924.758,2.914.177,4.43.271.948.058,1.335-.158,1.314-1.222-.072-3.644.034-7.293-.059-10.937m-58-50.632c-1.021.92-3.467.273-5.283.292s-3.647-.037-5.468.022c-.878.028-1.352-.163-1.2-1.143a5.72,5.72,0,0,0,.007-.881q0-51.329-.047-102.657c0-1.759.482-2.049,2.118-2.044q35.456.087,70.912.04,35.543,0,71.089-.041c1.651,0,1.987.462,1.985,2.031q-.069,51.329.01,102.657c0,1.776-.518,2.06-2.148,2.058q-49.832-.075-99.665,0c-1.606,0-2.129-.379-1.968-2a45.547,45.547,0,0,0,.072-5.111c-.011-.812.052-1.187,1.11-1.156,5.016.146,8.2-2.955,8.232-7.97.041-5.762.059-11.524,0-17.286-.073-6.651-4.622-11.122-11.262-11.122q-12.523,0-25.046.081A13.389,13.389,0,0,0,17.987,81.679c-.05,5.115-.03,10.231-.007,15.346.024,5.3,3.712,8.84,8.994,8.536,1.258-.072,1.658.2,1.533,1.455-.186,1.853.777,4.346-.391,5.4m-7.978,37.313a9.066,9.066,0,0,1-9.176-9.1,9.295,9.295,0,1,1,18.589.047,9.1,9.1,0,0,1-9.413,9.053M52.92,82.389a9.053,9.053,0,0,0-.225,2.267c-.174,16.05-.361,32.1-.462,48.151-.011,1.706-.345,2.4-2.223,2.314-3.424-.154-3.429-.04-3.429-3.539,0-5.88.017-11.76-.011-17.641a2.976,2.976,0,0,0-3-3.218,3.016,3.016,0,0,0-3.006,3.208c-.017.47-.006.941-.006,1.411,0,6.057-.031,12.114.027,18.17.011,1.183-.224,1.731-1.517,1.578-1.446-.171-3.339.609-4.25-.3s-.271-2.795-.276-4.249c-.029-7.291-.013-14.582-.016-21.873q0-12.26.007-24.519c0-1.432-.24-2.713-1.583-3.489a2.949,2.949,0,0,0-4.444,2.687c-.075,3.879-.016,7.761-.031,11.643,0,.82-.075,1.641-.116,2.462a1.97,1.97,0,0,1-2.1,2.114,2.1,2.1,0,0,1-2.246-2.2c-.065-.937-.017-1.881-.017-2.822q0-6.086,0-12.172c.008-5.086,3.038-8.155,8.078-8.17q12.349-.037,24.7-.054c3.057-.005,5.011,1.821,5.037,4.877.052,5.821.009,11.643.025,17.464,0,1.063-.275,1.963-1.466,1.99-1.315.03-1.587-.948-1.585-2.061.007-4.175,0-8.35,0-12.525,0-1.6-.457-2.9-2.125-3.463a2.878,2.878,0,0,0-3.743,1.959M65.861,150.4a9.2,9.2,0,1,1,9.316-9.16,9.126,9.126,0,0,1-9.316,9.16" transform="translate(0 0)" fill="#fff"/>
    <path id="Trazado_247005" data-name="Trazado 247005" d="M337.785,300.866a16.308,16.308,0,0,0-6.492-10.519c-.69-.515-.494-.89-.181-1.423a14.3,14.3,0,0,0,1.976-6.681A15.3,15.3,0,0,0,306.46,271.12a15.093,15.093,0,0,0-2.109,17.506c.556,1.038.307,1.425-.491,2.068a16.213,16.213,0,0,0-6.115,10.743,75.34,75.34,0,0,0-.207,9.512c-.05,4.483-.012,4.418,4.442,4.48,1.391.019,1.651-.439,1.617-1.7-.086-3.173-.048-6.35-.022-9.525a10.828,10.828,0,0,1,4.763-9.329,1.537,1.537,0,0,1,1.884-.154,14.915,14.915,0,0,0,15.073.064,1.645,1.645,0,0,1,2.037.12,10.713,10.713,0,0,1,4.679,8.835c.073,3.409.075,6.822-.013,10.231-.031,1.2.358,1.5,1.486,1.448,1.519-.064,3.045.053,4.569.092V301.041c-.093-.058-.255-.1-.268-.175m-19.977-10.378a9.09,9.09,0,0,1-9.306-9.157,9.3,9.3,0,0,1,18.589-.015,9.069,9.069,0,0,1-9.283,9.172" transform="translate(-157.383 -140.76)" fill="#fff"/>
    <path id="Trazado_247006" data-name="Trazado 247006" d="M240.846,303.553a16.159,16.159,0,0,0-6.361-12.962c-.815-.652-.931-1.058-.41-1.962a14,14,0,0,0,1.638-9.872c-1.241-6.326-5.031-10.6-11.284-12.194a14.389,14.389,0,0,0-15.728,5.3c-4.077,5.127-4.457,10.815-1.542,16.662.48.964.479,1.414-.419,2.109a16.078,16.078,0,0,0-5.905,9.322c-.64,2.728-.383,5.5-.456,7.866v3.2c0,4.361,0,4.285,4.4,4.368,1.5.028,1.719-.516,1.7-1.816-.058-3.583-.079-7.172.066-10.751a10.122,10.122,0,0,1,4.557-7.96,1.665,1.665,0,0,1,2.044-.136,14.9,14.9,0,0,0,15.063-.037,1.537,1.537,0,0,1,1.889.128,10.482,10.482,0,0,1,4.7,8.442c.1,2.524.029,5.053.03,7.581,0,4.569,0,4.538,4.547,4.531,1.078,0,1.553-.173,1.518-1.423-.1-3.465,0-6.935-.047-10.4m-20.185-13.1a8.985,8.985,0,0,1-9.274-9.141,9.252,9.252,0,0,1,18.5-.042,8.981,8.981,0,0,1-9.229,9.184" transform="translate(-106.007 -140.725)" fill="#fff"/>
    <path id="Trazado_247007" data-name="Trazado 247007" d="M170.567,136.487a10.747,10.747,0,0,0-.026,1.585c.1,1.035-.349,1.315-1.338,1.247-1.7-.118-3.406-.146-5.109-.155-2.412-.015-3.606,1.125-3.656,3.513q-.337,16.13-.636,32.261c-.048,2.587,1,3.709,3.562,3.725,5.935.037,11.87.012,17.8.012v.7c5.935,0,11.869.009,17.8-.005,2.157-.005,3.367-1.086,3.413-3.152q.362-16.394.655-32.789c.041-2.311-1.113-3.469-3.418-3.568-1.291-.055-2.586-.045-3.879-.06-2.53-.028-2.53-.027-2.548-2.578-.016-2.3-.977-3.53-3.172-3.6q-8.194-.251-16.394-.276c-1.931-.007-2.952,1.176-3.061,3.141m5.951,3.9c-.026-.765.235-1.011,1-.99,2.817.077,5.636.11,8.454.125.8,0,1.245.239,1.1,1.117-.009.057,0,.119-.008.176-.32,1.6.55,3.849-.573,4.667-1.073.781-3.162.169-4.8.169v-.2c-1.409,0-2.818-.017-4.227.008-.615.011-.978-.085-.947-.847.056-1.406.048-2.817,0-4.224m13.108,11.418c2.105.015,3.133-.947,3.358-3,.032-.292,0-.591.049-.88.105-.676-.246-1.776.292-1.951a8.76,8.76,0,0,1,3.131-.1c.568.034.443.6.435.986-.158,8.523-.342,17.046-.467,25.57-.016,1.086-.647.872-1.262.872H181.233v-.581c-4.643,0-9.286-.025-13.93.019-1.041.01-1.394-.232-1.366-1.366.2-8.287.335-16.576.455-24.864.013-.856.162-1.335,1.148-1.2a8.558,8.558,0,0,0,1.76.045c.748-.053.965.2,1.012.98.3,5.046.325,5.11,5.382,5.277,4.641.153,9.287.162,13.931.2" transform="translate(-84.54 -70.545)" fill="#fff"/>
    <path id="Trazado_247008" data-name="Trazado 247008" d="M127.458,42.112c.511,7.794.993,15.591,1.542,23.382.2,2.786,1.43,3.751,4.106,3.568q17.4-1.189,34.809-2.334c2.712-.178,3.765-1.3,3.6-4.058-.194-3.224-.444-6.445-.656-9.668-.493-7.5-.959-15-1.477-22.5-.159-2.3-1.422-3.363-3.713-3.253-1.643.078-3.292.142-4.92.349-1.183.151-1.586-.129-1.669-1.4-.248-3.83-1-4.436-4.783-4.288-4.981.341-9.962.667-14.942,1.034a3.007,3.007,0,0,0-2.978,3.244,10.043,10.043,0,0,0,.165,1.753c.175.962-.1,1.368-1.161,1.378-1.641.015-3.282.2-4.923.305-2.8.178-3.79,1.389-3.561,4.233.221,2.751.379,5.507.559,8.261M142.995,28.88c.829-.653,2.471-.273,3.751-.359,1.752-.118,3.507-.2,5.253-.381.873-.089,1.269.059,1.251,1.063a30.51,30.51,0,0,0,.242,4.023c.1.841-.283.986-.975,1.019-2.336.111-4.671.256-7.006.388a2.075,2.075,0,0,0-.525,0c-1.774.47-2.261-.341-2.026-1.966.189-1.3-1.038-2.945.035-3.791m-8.43,6.453c2.318-.09,2.316-.135,2.462,2.1.183,2.806,1.577,3.883,4.39,3.651,4.214-.348,8.439-.568,12.659-.837.47-.03.941-.017,1.411-.04,3.6-.173,4.708-1.445,4.281-5.014-.105-.888-.284-1.791,1.028-1.548.989.183,2.66-1.249,2.806,1.218.485,8.156,1.048,16.308,1.634,24.457.086,1.192-.226,1.611-1.464,1.686q-13.643.831-27.275,1.809c-1.271.091-1.67-.166-1.724-1.526-.164-4.11-.524-8.212-.808-12.316h.014c-.277-4.047-.5-8.1-.864-12.137-.112-1.258.385-1.461,1.449-1.5" transform="translate(-67.118 -11.578)" fill="#fff"/>
    <path id="Trazado_247009" data-name="Trazado 247009" d="M231.395,79.277q11.731,2.764,23.458,5.542c3.939.927,7.884,1.832,11.593,2.693,1.989.119,3.127-.845,3.612-2.9q1.96-8.3,3.894-16.617,1.683-7.2,3.362-14.392c.689-2.93-.008-4.077-2.98-4.822-1.023-.257-2.058-.471-3.083-.719-2.666-.645-2.665-.649-2.122-3.269.454-2.191-.3-3.511-2.5-4.047q-7.862-1.922-15.752-3.727a2.983,2.983,0,0,0-3.674,2.208,16.55,16.55,0,0,0-.427,1.887c-.15.821-.406,1.184-1.4.872-1.618-.508-3.3-.813-4.964-1.169-2.627-.563-3.9.226-4.5,2.8Q232.246,59.2,228.6,74.786c-.606,2.587.224,3.884,2.8,4.491m19.8-30.42a2.189,2.189,0,0,0,.09-.216c.43-1.622.1-3.9,1.29-4.729,1.1-.768,3.041.543,4.643.788.344.053.675.182,1.016.262,4.83,1.148,4.81,1.141,3.21,5.964-.228.689-.466.959-1.19.778-2.815-.7-5.633-1.4-8.461-2.047-.561-.129-.913-.208-.6-.8m-15.9,23.75c1.92-7.978,3.761-15.975,5.68-23.953.106-.439-.16-1.429.784-1.274,1.077.176,2.281.17,3.131.913.227.2-.109,1.082-.237,1.639-.767,3.346-.212,4.3,3.155,5.1,4.935,1.185,9.883,2.319,14.825,3.477.284.066.561.155.763.211a3.3,3.3,0,0,0,3.1-2.325,8.563,8.563,0,0,0,.413-1.876c.1-1.092.7-1.147,1.586-.961,2.5.526,2.517.507,1.941,2.989Q269,62.719,267.548,68.88c-.83,3.538-1.694,7.068-2.479,10.616-.23,1.038-.562,1.415-1.723,1.136Q249.84,77.386,236.3,74.273c-1.035-.239-1.261-.615-1.009-1.665" transform="translate(-120.836 -19.534)" fill="#fff"/>
    <path id="Trazado_247010" data-name="Trazado 247010" d="M75.192,107.608a14.809,14.809,0,1,0,.1-29.618,14.809,14.809,0,0,0-.1,29.618m-.044-23.585a8.766,8.766,0,1,1-8.6,8.838,8.718,8.718,0,0,1,8.6-8.838" transform="translate(-32.01 -41.26)" fill="#fff"/>
    <path id="Trazado_247011" data-name="Trazado 247011" d="M295.864,163.926c-4.523.057-9.047.024-13.571.024h-11.1c-4.263,0-4.189,0-4.281,4.306-.033,1.544.5,1.8,1.9,1.784,8.048-.065,16.1-.032,24.146-.032,4.563,0,4.507,0,4.533-4.57.008-1.314-.468-1.525-1.623-1.511" transform="translate(-141.203 -86.723)" fill="#fff"/>
    <path id="Trazado_247012" data-name="Trazado 247012" d="M295.908,202.6c-8.166.052-16.332.027-24.5.027-4.549,0-4.5,0-4.486,4.623,0,1.189.365,1.482,1.5,1.467,4.523-.06,9.047-.024,13.571-.024h10.927c4.6,0,4.547,0,4.567-4.539.006-1.255-.366-1.561-1.585-1.553" transform="translate(-141.211 -107.184)" fill="#fff"/>
    <path id="Trazado_247013" data-name="Trazado 247013" d="M268.445,189.377c3.109-.068,6.22-.024,9.33-.024s6.221-.024,9.33.016c.876.011,1.292-.19,1.231-1.166a27.554,27.554,0,0,1,0-3.694c.077-1.057-.367-1.264-1.318-1.259q-9.418.05-18.838,0c-1.06-.008-1.3.4-1.249,1.347a22.942,22.942,0,0,1-.007,3.342c-.111,1.221.4,1.468,1.517,1.443" transform="translate(-141.207 -96.943)" fill="#fff"/>
  </g>
</svg>
