<svg id="Grupo_174357" data-name="Grupo 174357" xmlns="http://www.w3.org/2000/svg" xmlns:xlink="http://www.w3.org/1999/xlink" width="236.452" height="236.41" viewBox="0 0 236.452 236.41">
  <defs>
    <clipPath id="clip-path">
      <rect id="Rectángulo_216990" data-name="Rectángulo 216990" width="236.452" height="236.41" fill="none"/>
    </clipPath>
  </defs>
  <g id="Grupo_174356" data-name="Grupo 174356" clip-path="url(#clip-path)">
    <path id="Trazado_239669" data-name="Trazado 239669" d="M117.98,236.408C52.854,236.5-.485,183.016,0,117.292.485,52.588,53.457-.254,118.68,0A118.315,118.315,0,0,1,236.452,118.317c-.015,65.357-53.36,118.435-118.472,118.091" transform="translate(0 0)" fill="#f3725c"/>
    <path id="Trazado_239670" data-name="Trazado 239670" d="M78.66,47.6c.2-1.932-.219-3.887.226-5.81a4.724,4.724,0,0,0,2.133.357c9.44-.013,18.88,0,28.319-.015a22.79,22.79,0,0,0,3.34.046c1.75-.052,3.5-.067,5.252,0a17.039,17.039,0,0,0,2.953-.053q14.416.01,28.831.01a2.94,2.94,0,0,1,2.2.476q.047,2.536.095,5.074a1.8,1.8,0,0,1,.372,1.333c-.055,1.1.536,1.4,1.516,1.372,1.115-.028,2.23,0,3.346,0,3.561,0,7.123-.013,10.685.008,2.158.012,2.51.341,2.513,2.437q.023,16.412,0,32.824A2.828,2.828,0,0,1,170.1,87.4c-.287.276-.436.04-.6-.159a6.64,6.64,0,0,1-.257-2.414q0-15.193,0-30.386c0-.43.008-.859-.006-1.288-.044-1.41-.141-1.534-1.579-1.541-4.592-.021-9.185.008-13.777-.019-1.108-.006-1.57.4-1.506,1.511a2.369,2.369,0,0,1-.392,1.719,4,4,0,0,1-2.5.391q-33.253.013-66.506.008c-.688,0-1.376-.014-2.063.008-1.367.044-1.43.141-1.517,1.483-.074,1.136.285,2.329-.394,3.4-.96-.087-.755-.879-.778-1.427-.08-1.8-.014-3.607-.037-5.411-.02-1.581-.085-1.656-1.7-1.662-6.014-.016-12.028.011-18.042-.025-.708,0-1.6.27-2-.7.627-.626,1.435-.465,2.185-.469,5.774-.016,11.549-.006,17.323-.01,1.972,0,1.974-.005,2.295-1.885a1.337,1.337,0,0,1,.414-.909" transform="translate(4.228 3.13)" fill="#bcbdbf"/>
    <path id="Trazado_239671" data-name="Trazado 239671" d="M79.048,47.2c.289,3.256.289,3.25-2.893,3.257q-9.642.021-19.285.054a1.07,1.07,0,0,0-.123.48c-.032,15.166-.009,30.332-.012,45.5q-.008,33.124-.009,66.247a4,4,0,0,1-.239,2.145c-.78.269-.687-.414-.77-.779a9.5,9.5,0,0,1-.077-2.055c-.008-2.406.03-4.811-.014-7.217-.043-2.337-1.146-2.983-3.189-1.9-.56.3-.894.286-.853-.471.014-.257,0-.515,0-.773q0-18.557.016-37.114c0-.5-.353-1.38.339-1.441.867-.075.928.866.963,1.536.1,1.846.033,3.693.039,5.54.01,2.745,0,5.49.137,8.291,1.2-.979,2.573-1.734,2.57-3.623-.006-4.724-.064-9.448.026-14.174a1.633,1.633,0,0,0-.876-1.719,1.77,1.77,0,0,1-.887-.906,1.6,1.6,0,0,0-1.46-1.066c-.6-.052-.881-.367-.877-1.021.024-3.221.01-6.443.015-9.665,0-.073.076-.135.009-.09-.055.7-.011,1.51-.015,2.316-.009,1.676.035,3.352-.011,5.026-.073,2.614.388,5.2.272,7.823-.59,13.342-.116,26.692-.259,40.038-.018,1.751.381,3.479.325,5.235a3.611,3.611,0,0,1-.333,2l-.2.134c-.032-1.8-.091-3.605-.092-5.408q0-52.29-.026-104.58c0-1.276.264-1.663,1.611-1.653,8.725.069,17.451.037,26.177.037" transform="translate(3.839 3.533)" fill="#102946"/>
    <path id="Trazado_239672" data-name="Trazado 239672" d="M111.158,44.04c-11.045.009-22.089,0-33.133.057-.844,0-.609-.469-.7-.865a5.59,5.59,0,0,1,5.616-4.846c4.084-.032,8.167,0,12.252-.012A4.106,4.106,0,0,0,99.5,34.764a14.353,14.353,0,0,1,13.432-12.127c7.431-.221,13.382,4.252,15.031,11.31.282,1.208.4,2.478,1.444,3.355a4.339,4.339,0,0,0,2.944,1.087c4.084-.029,8.168-.037,12.252,0a5.589,5.589,0,0,1,5.746,5.663l-34.053-.01c-.023-.584.486-.668.845-.821a8.765,8.765,0,0,0,2.785-14.182,8.6,8.6,0,0,0-9.456-1.8,8.159,8.159,0,0,0-5.31,7.323,7.754,7.754,0,0,0,2.5,6.634,6.808,6.808,0,0,0,2.811,2.07c.332.115.744.261.678.772" transform="translate(5.791 1.695)" fill="#d1d2d4"/>
    <path id="Trazado_239673" data-name="Trazado 239673" d="M163.277,87.136q.024-8.633.048-17.265c.008-6.057-.026-12.114.027-18.17.01-1.043-.3-1.276-1.293-1.266-5.111.045-10.223-.021-15.335.039-1.1.013-1.6-.2-1.412-1.384a13.06,13.06,0,0,0,.044-1.8c.385-.029.77-.083,1.153-.083,6.877-.005,13.754,0,20.632-.016.832,0,1.326.041,1.323,1.135q-.068,22.049-.049,44.1c-.394.21-.649-.071-.9-.286a57.776,57.776,0,0,1-4.088-4.4.653.653,0,0,1-.154-.6" transform="translate(10.881 3.534)" fill="#102947"/>
    <path id="Trazado_239674" data-name="Trazado 239674" d="M51.377,151.029l.005-.009c.665.515.439,1.258.44,1.911.016,10.16,0,20.32.025,30.48,0,.877-.243,1.808.321,2.622a6.738,6.738,0,0,0,3.512.441c2.1,0,4.205.019,6.308.019q39.382-.008,78.762-.006,16.046,0,32.092,0a6.6,6.6,0,0,0,1.666-.086,2.792,2.792,0,0,1,.461-.109.758.758,0,0,1,.455.072c.181,2.6.181,2.6-2.313,2.6H57.88c-1.891,0-3.781-.027-5.671.005-.634.011-.936-.123-.935-.837q.032-18.431.033-36.863a.929.929,0,0,1,.07-.247" transform="translate(3.84 11.311)" fill="#221f20"/>
    <path id="Trazado_239675" data-name="Trazado 239675" d="M162.948,84.956a68.509,68.509,0,0,0,5.139,5.284c2.9,3.11,2.47,4.762,0,7.386a.616.616,0,0,1-.353.068c-.855-.32-1.187-1.179-1.793-1.759C164.437,94.5,163,93,161.51,91.543c-1.92-2.124-3.857-4.231-5.942-6.2-1.837-1.761-3.377-3.8-5.25-5.533a1.961,1.961,0,0,1-.651-.923,3.865,3.865,0,0,1,5.947-1.872,10.776,10.776,0,0,1,2.13,2.035,57.6,57.6,0,0,0,3.976,4.187,4.3,4.3,0,0,1,1,1.475l.232.242" transform="translate(11.21 5.714)" fill="#e93a25"/>
    <path id="Trazado_239676" data-name="Trazado 239676" d="M166.971,96.128c.067,0,.134.006.2.012q.015,23.908.029,47.815.006,22.426-.008,44.851c0,.558-.035,1.115-.055,1.673a1.265,1.265,0,0,0-.143-.005,1.8,1.8,0,0,1-.47-1.547c.025-8.551-.025-17.1.034-25.654.035-5.153-.032-10.308-.039-15.462,0-.937-.331-1.106-1.173-.8a5.63,5.63,0,0,1-3.132.534.6.6,0,0,1-.342-.6.884.884,0,0,1,.156-.444c.888-.8,2.067-.789,3.131-1.062a1.585,1.585,0,0,0,1.391-1.8c-.03-7.347,0-14.694-.026-22.041-.006-2.05-.529-2.432-2.512-2a3.869,3.869,0,0,1-1.655.155.789.789,0,0,1-.389-.262.771.771,0,0,1,.118-.893,4.372,4.372,0,0,1,2.917-.791c1.475.015,1.509,0,1.513-1.5.017-5.967.009-11.934,0-17.9,0-.43.015-.858.025-1.287a.927.927,0,0,1,.422-1" transform="translate(12.124 7.2)" fill="#102946"/>
    <path id="Trazado_239677" data-name="Trazado 239677" d="M169.96,150.322c.023.169.045.335.069.5a2.867,2.867,0,0,1,.444,2.087c-.026,5.319-.053,10.639-.035,15.956.018,5.793,0,11.586.04,17.379a7.647,7.647,0,0,1-.125,1.923,1.155,1.155,0,0,1-.345.687,6.2,6.2,0,0,1-2.649.355q-29.869.018-59.739.005c-.943,0-1.882-.126-2.822-.129a1.682,1.682,0,0,1-1.05-.665c-7.407-7.515-14.909-14.934-22.358-22.405a2.428,2.428,0,0,0-1.723-1.009c-7.088-.1-14.171-.006-21.255-.049-.755,0-1.562.148-2.209-.444a4.6,4.6,0,0,1-.074-1.409q0-55.642,0-111.283a2.739,2.739,0,0,1,.138-1.511.214.214,0,0,1,.238-.03c.46.345.994.195,1.494.195,6.425.01,12.85.033,19.276-.018,1.123-.01,1.5.283,1.448,1.434-.095,2.094-.044,4.2-.038,6.295,0,.458-.132.952.241,1.35,1.541,1.548,3.508,1.325,5.433,1.323q31.323-.008,62.645,0c4.292,0,4.445-.159,4.476-4.389a3.242,3.242,0,0,1,.437-2.344c.013-.9.049-1.8.029-2.7-.014-.638.192-.941.88-.939q8.055.023,16.111,0c.622,0,.849.291.808.871-.006.085,0,.171,0,.257q-.011,17.528-.024,35.057c-2.064-2.114-4.226-4.139-6.166-6.361-2.341-2.685-5.011-2.15-6.75.537.015.649-.493.975-.878,1.355-3.446,3.412-6.742,6.971-10.121,10.448q-6.862,7.057-13.673,14.169-6.959,7.236-13.925,14.463c-2.108,2.2-4.243,4.373-6.36,6.56a3.336,3.336,0,0,0-.7.918q-.131.256-.272.507c-1.077,5.2-2.482,10.319-3.66,15.494-.171.749-.32,1.506-.556,2.241-.229,1.163-.573,2.3-.844,3.451a2.9,2.9,0,0,0,.266,2.327c.213.507.7.594,1.143.738,6.49,2.113,13.022,4.09,19.5,6.241a4.789,4.789,0,0,0,2.784.076c8.566-2.195,17.164-4.264,25.723-6.485,4.321-1.12,8.657-2.181,12.993-3.244.568-.141,1.245-.553,1.727.22" transform="translate(4.202 3.764)" fill="#e2e2e2"/>
    <path id="Trazado_239678" data-name="Trazado 239678" d="M150.331,53.856c.019,1.5.063,3.008.049,4.51a2.5,2.5,0,0,1-2.65,2.679c-1.719.037-3.439,0-5.157,0q-31.08,0-62.158.006c-1.42,0-2.537-.353-3.075-1.786,0-1.461.035-2.924-.006-4.383-.021-.784.264-1.126,1.047-1.035a2.293,2.293,0,0,0,.258,0l71.693.005" transform="translate(5.792 4.032)" fill="#939498"/>
    <path id="Trazado_239679" data-name="Trazado 239679" d="M118.023,28.367a8.994,8.994,0,0,1-1.9,14.278c-.629.348-1.286.646-1.929.967l-5.143,0c-1.267-.772-2.846-1.1-3.621-2.57a2.267,2.267,0,0,1,2.119-2.024,9.019,9.019,0,0,1,1.727.821,5.757,5.757,0,0,0,6.411-1.038,5.639,5.639,0,0,0,.91-6.733,5.269,5.269,0,0,1-.759-1.472,2.888,2.888,0,0,1,2.184-2.227" transform="translate(7.897 2.125)" fill="#f0f0f0"/>
    <path id="Trazado_239680" data-name="Trazado 239680" d="M170.381,185.1q-.026-12.146-.047-24.292c0-4.369.031-8.739.048-13.108a20.2,20.2,0,0,0,4.89-1.517v44.6q-.018.124-.039.248a12.3,12.3,0,0,1-3.178.11q-10.179.058-20.358,0c-1.225-.008-2.47-.106-3.69-.148a18.8,18.8,0,0,0-4.149.124c-.8.153-1.377-.361-2.118-.287-7.065.713-14.153.2-21.23.317-4.8.077-9.609.01-14.413,0-14.357-.015-28.716.027-43.074.011-2.1,0-2.236-.206-1.425-2.064.064-.148.191-.295,0-.561-.388,1.124-.444,2.465-2.077,2.506a2.361,2.361,0,0,1-2.573-1.4c.033.5.428,1.26-.273,1.422-.76.175-1.726.493-2.391-.326-1.06-1.308-1.257-1.326-2.281-.022-.134.171-.266.336-.517.3q-.023-14.439-.046-28.875c-.005-2.233-.041-4.466-.062-6.7.024-.557.069-1.113.069-1.669q.006-30.165,0-60.329V92.046h.258v4.028c0,1.762.083,3.529-.027,5.284-.085,1.375.171,2.187,1.774,1.9a.579.579,0,0,1,.73.665c-.168,1,.436,1.343,1.192,1.451.665.1.719.459.718.975q-.006,7.992,0,15.985a1.53,1.53,0,0,1-.431,1.164c-.964.972-1.909,1.962-2.864,2.947-.5-.4-.31-.816-.311-1.164-.015-4.554-.009-9.109-.012-13.664a1.991,1.991,0,0,0-.605-1.837V149.5c1.483-1.5,2.514-1.5,3.793-.053a1.938,1.938,0,0,1,.427,1.425q-.006,4.7,0,9.411c0,.455-.154.957.253,1.341a.936.936,0,0,1,.512.2c7.463,7.361,14.831,14.82,22.269,22.207.525.52.944,1.287,1.892,1.142,7.292-.062,14.58-.022,21.867-.025a2.35,2.35,0,0,1,1.7.458c2.057.026,4.115.072,6.172.073q29.029.008,58.057,0c.511,0,1.022-.055,1.534-.085.159.378-.191.334-.362.44.187-.074.417,0,.572-.189.281-.333.018-.53-.176-.746" transform="translate(3.848 6.894)" fill="#102947"/>
    <path id="Trazado_239681" data-name="Trazado 239681" d="M56.319,164.848c-.156.131-.236.018-.315-.1.012-5.8.034-11.6.034-17.394q.008-41.173,0-82.345c0-4.51-.011-9.021.006-13.531,0-.389-.236-.863.231-1.174q0,48.343,0,96.688c0,5.843.031,11.686.046,17.529a.355.355,0,0,1,0,.322" transform="translate(4.194 3.768)" fill="#bcbdbf"/>
    <path id="Trazado_239682" data-name="Trazado 239682" d="M118.219,28.549l-2.024,2.109c-.54.162-.876-.248-1.273-.465a5.647,5.647,0,0,0-7.807,7.74c.238.439.656.814.569,1.39a7.783,7.783,0,0,0-2.057,1.9c-2.939-2.273-3.671-6.769-1.712-10.513,2.764-5.283,10.521-6.455,14.3-2.161" transform="translate(7.701 1.942)" fill="#aaacad"/>
    <path id="Trazado_239683" data-name="Trazado 239683" d="M51.477,184.333c.282-.713.339-1.469,1.355-1.77,1.043-.31,1.562,0,1.655.91.138,1.339,1.088.852,1.736.845,1.006-.011.238-.763.374-1.152.2-.561-.641-1.449.018-1.615.836-.211.3.869.613,1.333a2.3,2.3,0,0,0,2.492,1.16c1.093-.178,1.311-.918,1.285-1.889-.009-.322-.344-.982.439-.92.4.031.942-.2,1.178.253.188.364-.388.531-.456.837-.134.613-1.131.937-.734,1.617.358.613,1.164.406,1.8.406q16.044.006,32.089,0c2.153,0,4.314.113,6.456-.034,6.086-.418,12.16.226,18.245.07,6.139-.158,12.285-.042,18.428-.03a15.412,15.412,0,0,0,4.208-.981c.08.862.449,1.346,1.415.615a.768.768,0,0,1,.859-.052c.656.381,1.278.8,1.828-.16.126-.218.393-.046.591.006,3.6.958,7.27.534,10.907.54,5.062.008,10.128.225,15.188-.125a11.268,11.268,0,0,1,1.782.15c-.383.419-.887.247-1.338.247q-60.544.015-121.087,0c-.446,0-.959.188-1.323-.269" transform="translate(3.856 13.572)" fill="#102946"/>
    <path id="Trazado_239684" data-name="Trazado 239684" d="M107.04,126.429c2.123-2.245,4.228-4.507,6.372-6.732Q132.959,99.41,152.52,79.14c.148-.153.316-.287.474-.431,2.085,2,4.066,4.1,6,6.252.152.628-.327.947-.683,1.286-3.328,3.165-6.337,6.639-9.586,9.882-4.7,4.7-9.139,9.652-13.825,14.366-4.624,4.653-9.094,9.458-13.649,14.178-2.587,2.681-5.264,5.283-7.737,8.078-.637.176-.705-.3-.8-.717a6.619,6.619,0,0,1-.066-1.15,4.283,4.283,0,0,0-4.293-4.22c-.443-.019-.946.217-1.317-.233" transform="translate(8.017 5.895)" fill="#364e5c"/>
    <path id="Trazado_239685" data-name="Trazado 239685" d="M170.25,96.569c-.084.236-.169.473-.253.709-.319.993-1.219,1.5-1.874,2.211-.836.908-1.745,1.751-2.6,2.641-6.9,6.784-13.4,13.966-20.253,20.8-.844.841-1.562,1.816-2.421,2.655-5.639,5.627-11.013,11.512-16.654,17.137-.434.433-.77,1.066-1.534,1.036-.625-.45-.276-1.239-.627-1.785-.787-2.32-2.257-3.682-4.851-3.6-.516.017-1.334.067-1.013-.946,1.194-.741,1.9-1.963,2.887-2.91,3.9-3.754,7.544-7.752,11.311-11.633q7.351-7.575,14.666-15.186c4.594-4.751,9.111-9.577,13.785-14.251,1.082-1.081,1.863-2.472,3.281-3.212q3.075,3.165,6.152,6.328" transform="translate(8.845 6.759)" fill="#0e2038"/>
    <path id="Trazado_239686" data-name="Trazado 239686" d="M164.477,90.67c-.89,1.031-1.732,2.108-2.677,3.086-3.661,3.788-7.407,7.5-11.021,11.327-3.12,3.309-6.387,6.473-9.512,9.772-4.123,4.354-8.359,8.6-12.431,13-2.767,2.987-5.866,5.652-8.435,8.827-.429.529-.829,1.253-1.707,1.223-.35-.427-.276-.964-.368-1.455a4.583,4.583,0,0,0-4.007-4.016c-.408-.077-.86-.03-1.177-.387-.332-.534.241-.66.454-.879,4.09-4.213,8.266-8.342,12.288-12.617,4.433-4.711,8.992-9.3,13.457-13.977,4.113-4.309,8.271-8.576,12.357-12.908,2.263-2.4,4.71-4.623,6.846-7.142,2.081,1.95,4.031,4.024,5.932,6.145" transform="translate(8.467 6.331)" fill="#163142"/>
    <path id="Trazado_239687" data-name="Trazado 239687" d="M126.008,141.624c1.694-1.7,3.505-3.305,5.054-5.132,2.337-2.755,5.127-5.057,7.5-7.761a67.553,67.553,0,0,1,5.275-5.41c7.084-1.813,14.181-3.565,21.277-5.33a1.9,1.9,0,0,1,1.374-.072.069.069,0,0,1,.115-.02,2.711,2.711,0,0,1,.416,1.841q.011,11.7,0,23.409a2.688,2.688,0,0,1-.429,1.838c-.029.091-.057.184-.086.275-1.192-.236-2.26.314-3.355.587q-18.571,4.634-37.122,9.353a4.537,4.537,0,0,1-2.624-.056c-6.612-2.128-13.236-4.218-19.852-6.335-.5-.16-1.146-.2-1.259-.921,1.794-.563,3.663-.835,5.46-1.389,5.566-1.406,11.119-2.861,16.689-4.244.274-.107.564-.173.833-.3.233-.139.5-.206.736-.338" transform="translate(7.661 8.824)" fill="#9e9e9e"/>
    <path id="Trazado_239688" data-name="Trazado 239688" d="M163.589,119.166c-2.959,1.013-6.03,1.6-9.052,2.373-4.145,1.059-8.3,2.089-12.447,3.126-.388.1-.807.406-1.151-.1,2.394-2.794,5.125-5.27,7.6-7.973,3.622-3.946,7.519-7.626,11.112-11.6,1.228-1.358,2.63-2.555,3.952-3.825a1.9,1.9,0,0,1,.5,1.654q.031,6.993,0,13.989a2.179,2.179,0,0,1-.44,1.568l-.084.781" transform="translate(10.556 7.578)" fill="#e2e2e2"/>
    <path id="Trazado_239689" data-name="Trazado 239689" d="M162.109,145.025c-.021-5.179-.059-10.357-.06-15.536,0-3.85.047-7.7.073-11.553.793-.167,1.6-.289,2.376-.509a1.741,1.741,0,0,1,2.457,1.791c.029,1.8.008,3.61.008,5.415,0,5.974-.009,11.949.01,17.923,0,.837-.012,1.43-1.131,1.558a28.517,28.517,0,0,0-3.732.912" transform="translate(12.137 8.787)" fill="#0b1d33"/>
    <path id="Trazado_239690" data-name="Trazado 239690" d="M162.094,118.712l-.064-17.211a43.125,43.125,0,0,1,4.678-4.712c.376.342.254.8.254,1.211.006,6.305-.011,12.611.018,18.916.005,1.123-.157,1.737-1.512,1.32-1.15-.354-2.257.233-3.373.476" transform="translate(12.136 7.249)" fill="#102947"/>
    <path id="Trazado_239691" data-name="Trazado 239691" d="M56.3,156.892l0-.322q11.506-.015,23.008-.029c.341,0,.7-.034.944.279a2.164,2.164,0,0,1,.441,1.573q.024,10.245-.009,20.49c0,.651.116,1.419-.73,1.747-.493-.464-1-.915-1.478-1.393Q67.832,168.6,57.2,157.955c-.328-.328-.745-.588-.9-1.063" transform="translate(4.217 11.725)" fill="#fefefe"/>
    <path id="Trazado_239692" data-name="Trazado 239692" d="M78.305,180.609c.454-.464.281-1.052.282-1.59q.019-11.109.015-22.219c.6,0,.876.5,1.229.853q10.9,10.882,21.776,21.784c.383.384.918.675.96,1.316-3.6.025-7.2.059-10.8.071q-6.048.018-12.095,0c-.461,0-.951.117-1.366-.212" transform="translate(5.865 11.744)" fill="silver"/>
    <path id="Trazado_239693" data-name="Trazado 239693" d="M91.2,94.02c-.027,4.292-.1,8.584-.052,12.874.012,1.1-.325,1.321-1.361,1.317q-13.331-.061-26.665,0c-1.082.005-1.329-.3-1.323-1.352q.068-13.333,0-26.665c-.005-1.027.282-1.285,1.289-1.28q13.4.056,26.793,0c1.054-.005,1.317.322,1.255,1.3-.071,1.153.008,2.315.021,3.474-.334,1.186-1.361,1.64-2.317,2.145-.354.187-.649-.03-.805-.4a7.919,7.919,0,0,1-.2-2.3A.934.934,0,0,0,86.8,82.112c-.3,0-.6-.025-.9-.025q-9.527,0-19.056,0c-1.693,0-1.774.074-1.777,1.719q-.019,9.722,0,19.443c0,1.52.1,1.607,1.607,1.625,4.248.051,8.5-.072,12.743.068a1.814,1.814,0,0,1,.714-.011c2.132-.067,4.264-.058,6.395-.034,1,.011,1.36-.39,1.349-1.367-.021-2.132-.035-4.264.032-6.4a41.509,41.509,0,0,1,.068-5.158c.392-1.417,1.564-2.179,2.6-3.049a.5.5,0,0,1,.843.18A8.849,8.849,0,0,1,91.2,94.02" transform="translate(4.629 5.91)" fill="#102947"/>
    <path id="Trazado_239694" data-name="Trazado 239694" d="M91.2,137.276c-.027,3.992-.09,7.984-.056,11.977.009,1.01-.258,1.292-1.279,1.288q-13.4-.061-26.8,0c-1.048.005-1.265-.317-1.261-1.3q.055-13.4,0-26.8c0-.989.274-1.2,1.222-1.192q13.465.056,26.931,0c1,0,1.235.295,1.188,1.231-.069,1.369.005,2.746.019,4.12-.36,1.244-1.466,1.661-2.46,2.184-.321.17-.55-.07-.672-.385a8.523,8.523,0,0,1-.174-2.563c-.005-.86-.361-1.248-1.235-1.25q-2.193-.008-4.385-.008c-5.158,0-10.316-.011-15.474,0-1.6,0-1.69.09-1.693,1.679q-.024,9.737,0,19.473c0,1.539.087,1.63,1.593,1.632,6.532.009,13.064.027,19.6,0,1.5-.006,1.578-.106,1.6-1.642.02-1.761-.021-3.522.06-5.282a39.3,39.3,0,0,1,.06-5.193c.388-1.42,1.564-2.181,2.6-3.054a.5.5,0,0,1,.843.178,8.862,8.862,0,0,1-.21,4.912" transform="translate(4.629 9.081)" fill="#102947"/>
    <path id="Trazado_239695" data-name="Trazado 239695" d="M90.72,88.839a21.919,21.919,0,0,0-2.794,2.812,5.225,5.225,0,0,1-.9,1.242c-2.616,2.6-5.215,5.222-7.835,7.82-1.159,1.149-1.432,1.139-2.628-.046-2.47-2.444-4.907-4.923-7.387-7.359q-.892-.927-1.813-1.826c-.648-.635-1.006-1.25-.264-2.1,1-1.136,1.6-1.369,2.623-.733,1.31.818,2.544,1.75,3.806,2.64.843.593,1.726,1.129,2.529,1.771a1.346,1.346,0,0,0,1.935-.032c2.809-2.188,5.653-4.331,8.478-6.5.463-.357.882-.841,1.554-.817A19.029,19.029,0,0,0,90.8,83.6a44.868,44.868,0,0,0,3.883-2.941c1.314-1.223,1.71.11,2.4.662.932.749-.046,1.083-.4,1.456-1.688,1.764-3.418,3.487-5.133,5.225a.941.941,0,0,1-.821.841" transform="translate(4.994 6.003)" fill="#e93a25"/>
    <path id="Trazado_239696" data-name="Trazado 239696" d="M90.617,132.126a23.865,23.865,0,0,0-2.8,2.821,6.857,6.857,0,0,1-1.626,1.961q-2.72,2.726-5.447,5.444c-1.188,1.176-1.377,1.172-2.591-.031-2.522-2.5-5.012-5.031-7.546-7.519-.566-.586-1.144-1.163-1.723-1.737s-1.019-1.148-.3-1.975c.928-1.064,1.549-1.3,2.524-.712,1.578.959,3.055,2.07,4.561,3.135,2.8,1.98,2.8,2.02,5.468-.037,1.836-1.412,3.691-2.8,5.519-4.227a1.823,1.823,0,0,1,1.244-.59l2.784-2.115c1.917-1.444,3.862-2.85,5.739-4.343,1.274-1.014,1.435.473,2.069.843.785.459.253.875-.15,1.28q-2.809,2.83-5.6,5.674a4.158,4.158,0,0,1-2.124,2.126" transform="translate(5.109 9.127)" fill="#e93a25"/>
    <path id="Trazado_239697" data-name="Trazado 239697" d="M102.812,141.386q2-8.249,4.01-16.494c.121-.492-.069-1.044.3-1.48a4.943,4.943,0,0,0,.877.143c3.476.5,5.307,3.2,4.583,6.751-2.162,4.039-4.713,7.849-7.044,11.79-.259.439-.552.888-1.166.886-.9-.164-1.157-.95-1.561-1.6" transform="translate(7.701 9.243)" fill="#fee696"/>
    <path id="Trazado_239698" data-name="Trazado 239698" d="M89.055,131.855a13.988,13.988,0,0,1,2.124-2.126c1.747-1.29,3.551-2.51,5.222-3.892,1.206-1,1.406.322,2,.7.76.484.384.936-.1,1.413q-4.582,4.49-9.133,9.012l-.106-5.1" transform="translate(6.67 9.398)" fill="#9e9e9e"/>
    <path id="Trazado_239699" data-name="Trazado 239699" d="M112.041,130.419c.234-2.181.032-4.2-2-5.571a4.6,4.6,0,0,0-2.374-.869c-.392-.018-.794.012-.842-.535l.235-.331c3.592-.7,6.223,1.6,6.088,5.275-.009.233-.671,1.129.463.78,3.722-.072,5.867,2.191,5.552,5.858-.373,1.02.5.548.744.53a4.644,4.644,0,0,1,4.756,2.5,11.751,11.751,0,0,1,.578,1.4,5.315,5.315,0,0,1-.061,2.373l-.717.254c-.651.03-.591-.5-.666-.887-.606-3.059-1.634-3.989-4.678-4.2a2.044,2.044,0,0,1-1.1-.267c-.349-.41-.177-.894-.181-1.348a4.586,4.586,0,0,0-4.825-4.787c-.334,0-.685.1-.966-.18" transform="translate(8.001 9.212)" fill="#f0c30f"/>
    <path id="Trazado_239700" data-name="Trazado 239700" d="M89.045,88.571a1.915,1.915,0,0,1,.821-.841c1.9-1.006,3.4-2.561,5.167-3.761,1.135-.772,1.275.551,1.871.886.5.283.508.687.047,1.136-2.61,2.542-5.2,5.108-7.791,7.666l-.116-5.086" transform="translate(6.669 6.271)" fill="#9f9f9e"/>
    <path id="Trazado_239701" data-name="Trazado 239701" d="M102.89,140.134c.689.3,1.006,1.017,1.6,1.424a7.257,7.257,0,0,1,1.933,1.592c.462.67,1.426.99,1.4,2-1.819.424-3.525,1.429-5.5,1.067a1.9,1.9,0,0,1-.453-2q.508-2.041,1.015-4.081" transform="translate(7.623 10.496)" fill="#0e2038"/>
    <path id="Trazado_239702" data-name="Trazado 239702" d="M162.162,178.613c.307.1.987-.192.833.4-.246.953-1.092.707-1.875.573.272-.364.835-.047,1.008-.477.012-.164.023-.33.033-.5" transform="translate(12.068 13.378)" fill="#102946"/>
    <path id="Trazado_239703" data-name="Trazado 239703" d="M107.473,39.114a5.991,5.991,0,0,1-1.438-6.419,5.889,5.889,0,0,1,4.868-3.916,6.262,6.262,0,0,1,5.081,1.67c1.69,2.085,2.348,4.361,1.128,6.9-1.793,3.726-6.131,4.5-9.639,1.766" transform="translate(7.912 2.15)" fill="#f3735d"/>
    <path id="Trazado_239704" data-name="Trazado 239704" d="M52.007,147.235a3.978,3.978,0,0,0,2.549,1.25.369.369,0,0,1,.41.391.479.479,0,0,1-.4.447c-.77.181-.745.935-1.1,1.4-1.739,2.258-.933,4.835-.962,7.257-.1,8.251-.039,16.5-.039,24.755,0,.344.012.689-.013,1.032-.021.3-.07.661-.465.638-.349-.021-.275-.373-.289-.613-.018-.3-.006-.6-.006-.9q0-14.827-.011-29.655a3.816,3.816,0,0,1,1.171-3.251c.589-.5.49-1.013-.159-1.469a1.248,1.248,0,0,1-.677-1.282" transform="translate(3.87 11.028)" fill="#102946"/>
    <path id="Trazado_239705" data-name="Trazado 239705" d="M59.972,176.289A12,12,0,0,1,63,179.051c.338.361-.158.428-.389.584-.491.33-.846,1.1-1.6.427-.358-.317-.57-.769-.276-1.139.622-.786.643-1.234-.461-1.462-.6-.124-.444-.613-.3-1.172" transform="translate(4.482 13.204)" fill="#102946"/>
    <path id="Trazado_239706" data-name="Trazado 239706" d="M143.18,181.69c-1.115.166-1.676,1.691-2.721.453-.678-.8.092-1.564.592-1.784,1.033-.455,1.165.874,2.128,1.332" transform="translate(10.5 13.502)" fill="#102946"/>
    <path id="Trazado_239707" data-name="Trazado 239707" d="M166.252,158.949a3.23,3.23,0,0,0-2.472-1.991c-1-.142-.724-.9-.826-1.451a.315.315,0,0,1,.537-.256c1.009,1.018,2.3,1.8,2.836,3.225.048.129-.047.314-.075.473" transform="translate(12.205 11.621)" fill="#102946"/>
    <path id="Trazado_239708" data-name="Trazado 239708" d="M51.8,103.139c.654,1.627,2.085,1.872,2.818,2.872.156.212.644.225.451.628a.934.934,0,0,1-.578.437c-.412.089-.424-.274-.511-.565-.182-.611-.617-1.243-1.217-1.111-1.389.3-1.071-.588-1.077-1.3,0-.2.043-.391.113-.964" transform="translate(3.869 7.725)" fill="#102946"/>
    <path id="Trazado_239709" data-name="Trazado 239709" d="M98.5,183.041c-.285-.063-.445-.107-.608-.134-1.472-.246-1.476-.259-.634-1.5.26-.384.487-.977,1.021-.783.579.212-.046.733.062,1.125a9.206,9.206,0,0,1,.159,1.288" transform="translate(7.242 13.526)" fill="#102946"/>
    <path id="Trazado_239710" data-name="Trazado 239710" d="M64.079,175.277a1.5,1.5,0,0,1,1.119,1.092c.11.4-.086.66-.532.676a1.048,1.048,0,0,1-1.2-.915.685.685,0,0,1,.608-.853" transform="translate(4.753 13.128)" fill="#102946"/>
    <path id="Trazado_239711" data-name="Trazado 239711" d="M164.112,159.747a1.422,1.422,0,0,1-1.034-1.106c-.056-.463.318-.672.748-.637a.978.978,0,0,1,.971.971.659.659,0,0,1-.685.773" transform="translate(12.214 11.834)" fill="#102946"/>
    <path id="Trazado_239712" data-name="Trazado 239712" d="M139.345,182.679a5.51,5.51,0,0,0-1.733-.1c-.264.071-.612.3-.69-.195-.045-.282.182-.447.424-.572,1.446-.742,1.626-.675,2,.865" transform="translate(10.255 13.583)" fill="#102946"/>
    <path id="Trazado_239713" data-name="Trazado 239713" d="M53.92,147.289c-.693-.033-.9-.563-.985-1.121a.522.522,0,0,1,.632-.614,1.3,1.3,0,0,1,1.048,1c.115.471-.234.68-.7.732" transform="translate(3.964 10.901)" fill="#102946"/>
    <path id="Trazado_239714" data-name="Trazado 239714" d="M58.492,181.267a1.007,1.007,0,0,1,.958.981.635.635,0,0,1-.731.7,1.055,1.055,0,0,1-.934-.914.673.673,0,0,1,.707-.767" transform="translate(4.327 13.577)" fill="#102946"/>
    <path id="Trazado_239715" data-name="Trazado 239715" d="M162.709,160.5l1.882.126c.291.02.656-.034.7.37.052.424-.273.566-.626.671-.956.282-1.359-.361-1.961-1.166" transform="translate(12.187 12.021)" fill="#102946"/>
    <path id="Trazado_239716" data-name="Trazado 239716" d="M165.744,182.8c-.1.446-.278.905-.777.836-.417-.057-.5-.542-.478-.925s.1-.877.568-.843c.45.032.669.464.688.932" transform="translate(12.32 13.621)" fill="#102946"/>
    <path id="Trazado_239717" data-name="Trazado 239717" d="M102.044,179.569c.367.042.871-.072.788.529a.6.6,0,0,1-.691.583c-.421-.085-.884-.319-.887-.775-.005-.5.509-.258.79-.336" transform="translate(7.584 13.45)" fill="#102946"/>
    <path id="Trazado_239718" data-name="Trazado 239718" d="M65.75,178.068c-.473.269-.732,1.109-1.456.57-.16-.119-.392-.364-.217-.522.493-.445,1.091-.161,1.674-.047" transform="translate(4.795 13.323)" fill="#102946"/>
    <path id="Trazado_239719" data-name="Trazado 239719" d="M144.846,181.022c-.016.258-.077.507-.342.428a1.025,1.025,0,0,1-.748-.763c-.044-.223.193-.355.418-.354.472,0,.645.3.672.689" transform="translate(10.767 13.507)" fill="#102946"/>
    <path id="Trazado_239720" data-name="Trazado 239720" d="M52.015,107.563c-.277-.045-.321-.244-.308-.464.023-.384.206-.652.613-.66a.326.326,0,0,1,.335.424.9.9,0,0,1-.64.7" transform="translate(3.873 7.972)" fill="#102946"/>
    <path id="Trazado_239721" data-name="Trazado 239721" d="M101.407,181.676a.982.982,0,0,1-.849,1.044c-.181.033-.36-.132-.293-.3a1.131,1.131,0,0,1,1.143-.744" transform="translate(7.509 13.607)" fill="#102946"/>
    <path id="Trazado_239722" data-name="Trazado 239722" d="M62.691,176.875c-.455-.252-.832-.445-.8-.952,0-.057.215-.16.306-.14.526.117.634.479.489,1.092" transform="translate(4.636 13.166)" fill="#102946"/>
    <path id="Trazado_239723" data-name="Trazado 239723" d="M165.819,154.045a.759.759,0,0,1-.574.571c-.21.071-.465.012-.434-.267.038-.332.357-.435.634-.53.185-.063.325,0,.374.226" transform="translate(12.344 11.519)" fill="#102946"/>
    <path id="Trazado_239724" data-name="Trazado 239724" d="M102.3,181.529c.694.528.483.93.459,1.479-.633-.426-.361-.873-.459-1.479" transform="translate(7.662 13.596)" fill="#102946"/>
    <path id="Trazado_239725" data-name="Trazado 239725" d="M123.9,140.684l.061-2.373c.486.511-.056,1.268.429,1.779-.027.311-.253.457-.49.594" transform="translate(9.28 10.359)" fill="#163142"/>
    <path id="Trazado_239726" data-name="Trazado 239726" d="M107.512,145.487l-1.592-1.821c.092-.48.5-.678.848-.916,3.374-2.294,6.884-4.38,10.223-6.726a1.453,1.453,0,0,1,1.07-.363c1.742-.017,3.479-.162,4.845,1.349a4.485,4.485,0,0,1,1.324,3.066c0,.379-.047.777.3,1.062-4.174,1.1-8.347,2.2-12.525,3.285-1.489.386-2.994.712-4.491,1.064" transform="translate(7.933 10.16)" fill="#f19b21"/>
    <path id="Trazado_239727" data-name="Trazado 239727" d="M88.193,85.617c-3.488,2.7-6.985,5.39-10.456,8.112-.525.412-.832.144-1.223-.131-2.244-1.576-4.547-3.075-6.722-4.738-1.355-1.036-1.65.325-2.319.815-.89.652.011.984.338,1.363.584.679,1.22,1.314,1.834,1.967-.649.916-.312,1.562.435,2.287,2.851,2.771,5.646,5.6,8.44,8.426.391.4,1.02.7.849,1.45-4.684.01-9.369,0-14.053.048-.775.006-.908-.282-.906-.973q.031-10.9-.006-21.793c0-.816.252-1,1.028-1q10.83.042,21.662,0c.841,0,1.132.217,1.077,1.074-.066,1.027.009,2.061.023,3.091" transform="translate(4.824 6.101)" fill="#e2e2e2"/>
    <path id="Trazado_239728" data-name="Trazado 239728" d="M79.065,104.465a37.517,37.517,0,0,0-3.816-3.983c-2.006-2.063-4.013-4.131-6.119-6.089-1.005-.934-.855-1.493.211-2.092,2.555,2.524,5.136,5.022,7.647,7.588.675.69,1.033.684,1.709,0,3-3.046,6.058-6.029,9.1-9.035l0,5.378a4.292,4.292,0,0,1-.877,1.249q-3.047,3.025-6.071,6.072a4.615,4.615,0,0,1-1.248.879l-.528.035" transform="translate(5.127 6.805)" fill="#9e9e9e"/>
    <path id="Trazado_239729" data-name="Trazado 239729" d="M78.817,104.053l8.2-8.2c.019,2.489.024,4.98.07,7.469.011.611-.174.82-.8.808-2.488-.051-4.979-.056-7.468-.078" transform="translate(5.903 7.179)" fill="#e2e2e2"/>
    <path id="Trazado_239730" data-name="Trazado 239730" d="M88.183,128.512c-2.947,2.281-5.911,4.541-8.829,6.859-.575.457-.894.188-1.323-.114-2.245-1.575-4.545-3.079-6.731-4.73-1.384-1.046-1.63.4-2.291.88-.833.6.042.918.34,1.264.558.648,1.177,1.244,1.77,1.861-.55,1.063-.027,1.709.743,2.451,2.867,2.762,5.672,5.588,8.451,8.439.75.769,1.248.761,1.974-.012,1.436-1.527,2.941-2.99,4.444-4.454.374-.365.674-.933,1.363-.772.019,2.191.023,4.38.069,6.57.013.6-.163.828-.8.827q-11.085-.026-22.17,0c-.643,0-.786-.249-.785-.842q.024-11.02,0-22.041c0-.717.27-.843.9-.842q10.956.026,21.913,0c.712,0,.976.176.946.922-.049,1.244,0,2.491.015,3.736" transform="translate(4.824 9.277)" fill="#e2e2e2"/>
    <path id="Trazado_239731" data-name="Trazado 239731" d="M87.688,139.44c-1.981,1.957-3.988,3.889-5.927,5.887-.629.647-.977.791-1.7.056-3.271-3.334-6.619-6.592-9.932-9.886-.95-.944.518-1.094.585-1.709,2.615,2.586,5.253,5.151,7.827,7.777.641.652.976.616,1.6-.017,2.485-2.531,5.032-5,7.555-7.5l-.006,5.387" transform="translate(5.229 10.021)" fill="#9e9e9e"/>
    <path id="Trazado_239732" data-name="Trazado 239732" d="M118.183,136.109c-3.913,2.872-8.086,5.349-12.141,8l-1.743-1.773c1.464-1.408,2.207-3.3,3.283-4.964,1.589-2.46,3.1-4.97,4.648-7.459a4.312,4.312,0,0,1,4.825,1.362,4.7,4.7,0,0,1,1.129,4.828" transform="translate(7.812 9.712)" fill="#eec749"/>
  </g>
</svg>
