<svg id="Grupo_175446" data-name="Grupo 175446" xmlns="http://www.w3.org/2000/svg" xmlns:xlink="http://www.w3.org/1999/xlink" width="162.287" height="175.33" viewBox="0 0 162.287 175.33">
  <defs>
    <clipPath id="clip-path">
      <rect id="Rectángulo_218347" data-name="Rectángulo 218347" width="162.287" height="175.33" fill="#fff" stroke="#fff" stroke-width="1"/>
    </clipPath>
  </defs>
  <g id="Grupo_175445" data-name="Grupo 175445" clip-path="url(#clip-path)">
    <path id="Trazado_246995" data-name="Trazado 246995" d="M124.106,106.87a2.68,2.68,0,0,0,.555-3c-.458-1.344-.808-2.726-1.214-4.088-.626-2.1.366-3.4,2.648-3.411,3.309-.015,6.626-.149,9.926.031,4.476.244,7.228-2.646,7.208-7.238q-.181-40.742,0-81.486c.014-3.688-1.121-6.258-4.563-7.68H23.623c-3.435,1.424-4.875,3.982-4.534,7.68.151,1.641.02,3.307.027,4.962.01,2.161.906,3.365,2.5,3.388,1.65.024,2.617-1.254,2.627-3.489.008-1.883.067-3.769-.02-5.648-.061-1.328.374-1.818,1.749-1.783,3.307.084,6.618.027,9.927.027h7.921c-.677.6-1.092.96-1.5,1.329C33.8,14.177,32.718,26.338,39.7,35.1c1.109,1.392,3.247,2.255,3.327,4.052.076,1.72-.883,3.492-1.419,5.231a2.785,2.785,0,0,0,.487,3.026,2.833,2.833,0,0,0,3.161.535c3.313-1.026,6.648-1.986,9.967-2.995a15.5,15.5,0,0,1,4.853-.752,24.2,24.2,0,0,0,11.356-2.7c14.428-7.208,17.287-25.049,4.811-35.621-.191-.162-.377-.331-.847-.745H135.6c2.432,0,2.434,0,2.434,2.419q0,40.657,0,81.315c0,.4-.015.8,0,1.2.032.793-.365,1.157-1.129,1.158-2.663,0-5.326,0-8.141,0,.263-.6.443-1.013.619-1.424a20.483,20.483,0,0,0-4.277-22.76c-9.023-9.223-24.421-10.29-34.486-2.219-6.652,5.334-9.633,12.255-8.094,20.844A30.254,30.254,0,0,0,84.4,91.08a1.984,1.984,0,0,1-.436.133q-20.626.014-41.252.04c-1.042,0-1.179-.468-1.268-1.325A19.491,19.491,0,0,0,35.6,77.886a25.2,25.2,0,0,0-4.212-3.224,5.658,5.658,0,0,1,.447-.421C38.3,69.533,41.2,63.191,39.6,55.34c-1.578-7.734-6.544-12.565-14.3-14.355-.953-.22-1.077-.688-1.069-1.531.038-4.279.02-8.56.017-12.839,0-2.534-.781-3.666-2.539-3.7-1.78-.04-2.593,1.081-2.595,3.595,0,4.166-.062,8.333.034,12.5.031,1.324-.319,1.8-1.654,2.107A18.251,18.251,0,0,0,3.72,62.811a18.445,18.445,0,0,0,8.1,11.686c-.06.438-.38.5-.608.646a19.807,19.807,0,0,0-9.5,17.5c0,11.07-.049,22.141.018,33.21A19.572,19.572,0,0,0,10.34,142.3c.377.274,1,.334,1.026.983-6.288,4.009-9.585,8.385-10.807,14.865-.926,4.908-.44,9.9-.372,14.855.022,1.573,1.185,2.313,3.021,2.314q18.4.013,36.8,0c2.229,0,3.138-.892,3.15-3.079.019-3.424.071-6.85-.016-10.271-.194-7.686-3.593-13.62-9.952-17.9-.436-.293-1.069-.379-1.294-1.022,7-4.559,9.928-11.08,9.762-19.316-.173-8.613-.016-17.232-.065-25.849-.006-1.189.311-1.535,1.519-1.532q22,.06,43.991.008a3.16,3.16,0,0,1,2.283.879,25.676,25.676,0,0,0,14.13,6.276c2.363.309,4.759-.1,7.109.717,3.435,1.192,6.963,2.117,10.451,3.155a2.784,2.784,0,0,0,3.027-.508M73.759,33.694a18.025,18.025,0,0,1-12.282,5.255,37.262,37.262,0,0,0-10.655,1.972c-.915.286-1.838.542-3.088.909.334-1.111.551-1.925.825-2.719a3.135,3.135,0,0,0-1.352-3.965,15.6,15.6,0,0,1-6.8-11.008c-.718-6.068,1.618-10.919,6.333-14.654,7.827-6.2,19.932-5.7,27.016,1.072,6.991,6.678,7.008,16.488,0,23.138M8.454,58.937A13.223,13.223,0,0,1,34.9,58.864a13.223,13.223,0,1,1-26.446.073M38.01,161.847c.048,2.336-.062,4.678.053,7.01.06,1.22-.431,1.353-1.454,1.344-5.016-.045-10.033-.021-15.049-.021-4.9,0-9.806-.06-14.707.038-1.408.028-1.707-.424-1.642-1.715.173-3.4-.279-6.839.56-10.211a16.354,16.354,0,0,1,32.239,3.554M21.729,140.7a14.835,14.835,0,1,1,14.728-14.866A14.88,14.88,0,0,1,21.729,140.7M36.4,112.254c-9.2-9.06-21.947-7.75-29.319-.069-.465-.342-.227-.836-.228-1.244q-.027-9.317-.007-18.636c.031-8.014,6.224-14.649,13.9-14.933,8.407-.31,15.209,5.5,15.588,13.821.316,6.926.065,13.878.065,21.061m81.738-12.219a6.79,6.79,0,0,1,.277,1,2.107,2.107,0,0,1-.563-.006,57.694,57.694,0,0,0-14.641-2.859,17.611,17.611,0,0,1-12.608-7.093c-5.011-6.354-4.354-14.962,1.524-20.772,7.616-7.529,20.943-7.66,28.712-.282,7.155,6.795,6.935,17.342-.819,23.653-2.387,1.943-3.1,3.68-1.882,6.358" transform="translate(0)" fill="#fff" stroke="#fff" stroke-width="1"/>
    <path id="Trazado_246996" data-name="Trazado 246996" d="M165.823,271.61a33.187,33.187,0,0,0-4-2.86c12.2-8.039,12.067-22.648,4.562-30.751a19.928,19.928,0,0,0-29.339-.113c-7.509,7.977-7.89,22.718,4.5,30.889-5.886,3.388-9.648,8.228-10.953,14.735-.994,4.955-.406,10.015-.415,15.028,0,1.537,1.2,2.344,3,2.345q18.488.015,36.976,0c2.086,0,3.035-.946,3.051-3.032.026-3.481.083-6.964-.019-10.443a21.278,21.278,0,0,0-7.358-15.8m-28.939-20.293a14.778,14.778,0,1,1,14.78,14.96,14.832,14.832,0,0,1-14.78-14.96M166.7,295.78c-5.018-.062-10.037-.027-15.056-.027-4.962,0-9.924-.035-14.885.026-1.133.014-1.61-.178-1.533-1.45.214-3.571-.335-7.177.617-10.717a16.368,16.368,0,0,1,32.186,3.4c.113,2.448-.022,4.906.073,7.356.043,1.119-.278,1.425-1.4,1.411" transform="translate(-70.518 -125.571)" fill="#fff" stroke="#fff" stroke-width="1"/>
    <path id="Trazado_246997" data-name="Trazado 246997" d="M302.828,283.824c-1.214-6.673-5.03-11.585-10.982-15.069,11.957-7.89,12.207-22.178,4.815-30.511a19.876,19.876,0,0,0-28.829-1.111,19.086,19.086,0,0,0-6.051,14.223c.024,7.532,3.53,13.222,9.828,17.356-.327.221-.5.351-.69.464a20.867,20.867,0,0,0-10.485,15.6c-.624,4.581-.246,9.228-.172,13.843.024,1.53,1.2,2.248,2.71,2.256,2.795.015,5.59.032,8.384-.006a2.585,2.585,0,0,0,2.779-2.611,2.631,2.631,0,0,0-2.885-2.508c-1.6-.029-3.2-.054-4.79.012-.877.036-1.177-.2-1.151-1.123.069-2.394-.006-4.791.039-7.186a16.355,16.355,0,0,1,32.237-3.614c.828,3.317.389,6.7.569,10.046.076,1.428-.2,1.958-1.809,1.906-4.216-.138-8.44-.071-12.66-.032a2.552,2.552,0,1,0-.08,5.1c5.647.042,11.293.03,16.94.011a2.364,2.364,0,0,0,2.638-2.359c.062-4.9.529-9.831-.354-14.682m-21.573-17.573a14.833,14.833,0,1,1,15.253-14.328,14.865,14.865,0,0,1-15.253,14.328" transform="translate(-141.073 -125.557)" fill="#fff" stroke="#fff" stroke-width="1"/>
    <path id="Trazado_246998" data-name="Trazado 246998" d="M150.152,44.152a2.824,2.824,0,0,0-2.856,2.925,2.872,2.872,0,0,0,2.81,2.826,2.907,2.907,0,0,0,2.875-2.948,2.857,2.857,0,0,0-2.829-2.8" transform="translate(-79.896 -23.949)" fill="#fff" stroke="#fff" stroke-width="1"/>
    <path id="Trazado_246999" data-name="Trazado 246999" d="M103.758,44.152a2.829,2.829,0,0,0-2.873,2.735,2.836,2.836,0,1,0,2.873-2.735" transform="translate(-54.72 -23.949)" fill="#fff" stroke="#fff" stroke-width="1"/>
    <path id="Trazado_247000" data-name="Trazado 247000" d="M126.992,44.151a2.825,2.825,0,0,0-2.9,2.881,2.87,2.87,0,0,0,2.766,2.868,2.908,2.908,0,0,0,2.918-2.9,2.861,2.861,0,0,0-2.786-2.846" transform="translate(-67.31 -23.948)" fill="#fff" stroke="#fff" stroke-width="1"/>
    <path id="Trazado_247001" data-name="Trazado 247001" d="M229.86,174.061a2.837,2.837,0,1,0,2.64,2.99,2.891,2.891,0,0,0-2.64-2.99" transform="translate(-122.99 -94.408)" fill="#fff" stroke="#fff" stroke-width="1"/>
    <path id="Trazado_247002" data-name="Trazado 247002" d="M252.842,174.029a2.878,2.878,0,0,0-2.9,2.742,2.878,2.878,0,1,0,5.756.048,2.9,2.9,0,0,0-2.86-2.79" transform="translate(-135.574 -94.397)" fill="#fff" stroke="#fff" stroke-width="1"/>
    <path id="Trazado_247003" data-name="Trazado 247003" d="M206.513,174.073a2.834,2.834,0,0,0-2.993,2.791,2.8,2.8,0,0,0,2.723,2.874,2.836,2.836,0,1,0,.27-5.664" transform="translate(-110.393 -94.419)" fill="#fff" stroke="#fff" stroke-width="1"/>
  </g>
</svg>
